 0
SECTION
 2
HEADER
 9
$MEASUREMENT
 70
 2
 0
ENDSEC
 0
SECTION
 2
ENTITIES
 0
POLYLINE
8
layer0
66
1
70
8
10
  0.0
20
  0.0
30
  0.0
  0
VERTEX
8
layer0
10
  64.9162531419301
20
  27.500212845851852
30
  3.5090642097331233
0
VERTEX
8
layer0
10
  64.91625314193006
20
  12.500212845851857
30
  3.509064209733128
0
VERTEX
8
layer0
10
  64.91625314193006
20
  12.500212845851857
30
  3.509064209733128
0
VERTEX
8
layer0
10
  39.91625314193005
20
  12.500212845851813
30
  3.509064209733086
0
VERTEX
8
layer0
10
  39.91625314193005
20
  27.500212845851873
30
  3.509064209733126
 0
SEQEND
 0
SEQEND
 0
CIRCLE
8
layer0
66
1
10
  57.41625318723346
20
  20.000212845851866
30
  3.509064209733172
40
  1.5999999999999974
 0
CIRCLE
8
layer0
66
1
10
  42.416253187233416
20
  20.00021284585184
30
  3.5090642097332636
40
  1.5999999999999956
 0
POLYLINE
8
layer0
66
1
70
8
10
  0.0
20
  0.0
30
  0.0
  0
VERTEX
8
layer0
10
  64.91625314193003
20
  27.500212845851852
30
  0.5090642097331287
0
VERTEX
8
layer0
10
  52.41625314193003
20
  40.00021284585187
30
  0.5090642097330811
0
VERTEX
8
layer0
10
  39.91625314193003
20
  27.500212845851873
30
  0.5090642097331318
0
VERTEX
8
layer0
10
  39.91625314193005
20
  12.500212845851879
30
  0.5090642097331367
0
VERTEX
8
layer0
10
  64.91625314193007
20
  12.500212845851879
30
  0.5090642097330884
0
VERTEX
8
layer0
10
  64.91625314193007
20
  12.500212845851879
30
  0.5090642097330884
0
VERTEX
8
layer0
10
  52.41625314193005
20
  0.0002128458518113049
30
  0.5090642097331392
 0
SEQEND
 0
ARC
8
layer0
66
1
10
  1.4162531419299635
20
  4.000212845851826
30
  0.5090642097331443
40
  4.0
50
  179.98833189786103
51
  269.976663795724
 0
POLYLINE
8
layer0
66
1
70
8
10
  0.0
20
  0.0
30
  0.0
  0
VERTEX
8
layer0
10
  -2.583746858069984
20
  4.0002128458518715
30
  0.5090642097331447
0
VERTEX
8
layer0
10
  -2.5837468580699388
20
  16.900212845851826
30
  0.5090642097332307
 0
SEQEND
 0
ARC
8
layer0
66
1
10
  -4.183746858069936
20
  16.900212845851893
30
  0.509064209733231
40
  1.6000000000000005
50
  0.011668102135899971
51
  90.00000000000323
 0
POLYLINE
8
layer0
66
1
70
8
10
  0.0
20
  0.0
30
  0.0
  0
VERTEX
8
layer0
10
  -7.583746858069975
20
  18.500212845851866
30
  0.5090642097331406
0
VERTEX
8
layer0
10
  -4.183746858070026
20
  18.500212845851866
30
  0.5090642097331853
 0
SEQEND
 0
ARC
8
layer0
66
1
10
  -7.583746858069975
20
  19.500212845851866
30
  0.5090642097331403
40
  0.9999999999999989
50
  -89.97666379572334
51
  0.011668102138330028
 0
POLYLINE
8
layer0
66
1
70
8
10
  0.0
20
  0.0
30
  0.0
  0
VERTEX
8
layer0
10
  -8.583746858069928
20
  20.50021284585191
30
  0.5090642097331852
0
VERTEX
8
layer0
10
  -8.583746858069974
20
  19.500212845851866
30
  0.5090642097331856
 0
SEQEND
 0
ARC
8
layer0
66
1
10
  -7.583746858069929
20
  20.500212845851863
30
  0.5090642097330949
40
  0.9999999999999989
50
  90.0
51
  179.9883318978591
 0
POLYLINE
8
layer0
66
1
70
8
10
  0.0
20
  0.0
30
  0.0
  0
VERTEX
8
layer0
10
  -4.183746858070026
20
  21.500212845851863
30
  0.5090642097331843
0
VERTEX
8
layer0
10
  -7.583746858069929
20
  21.500212845851838
30
  0.5090642097331396
 0
SEQEND
 0
ARC
8
layer0
66
1
10
  -4.183746858069936
20
  23.10021284585186
30
  0.5090642097331387
40
  1.6000000000000005
50
  0.011668102138330028
51
  90.00000000000323
 0
POLYLINE
8
layer0
66
1
70
8
10
  0.0
20
  0.0
30
  0.0
  0
VERTEX
8
layer0
10
  -2.5837468580699388
20
  23.10021284585186
30
  0.5090642097330934
0
VERTEX
8
layer0
10
  -2.5837468580699388
20
  36.000212845851884
30
  0.5090642097331343
 0
SEQEND
 0
ARC
8
layer0
66
1
10
  1.4162531419300537
20
  36.000212845851884
30
  0.5090642097331789
40
  3.9999999999999956
50
  90.00000000000064
51
  179.98833189786166
 0
POLYLINE
8
layer0
66
1
70
8
10
  0.0
20
  0.0
30
  0.0
  0
VERTEX
8
layer0
10
  52.41625314193003
20
  40.00021284585187
30
  0.5090642097330811
0
VERTEX
8
layer0
10
  1.4162531419300086
20
  40.0002128458519
30
  0.5090642097330874
 0
SEQEND
 0
SEQEND
 0
CIRCLE
8
layer0
66
1
10
  19.91625314193002
20
  20.000000000000075
30
  0.5090642097331819
40
  5.000000000000009
 0
CIRCLE
8
layer0
66
1
10
  4.916253187233395
20
  32.50021284585186
30
  0.5090642097332247
40
  1.5999999999999945
 0
CIRCLE
8
layer0
66
1
10
  4.91625318723335
20
  7.500212845851798
30
  0.5090642097332329
40
  1.5999999999999979
 0
CIRCLE
8
layer0
66
1
10
  49.9162531872334
20
  32.500212845851884
30
  0.5090642097332191
40
  1.5999999999999974
 0
CIRCLE
8
layer0
66
1
10
  49.91625318723342
20
  7.500212845851798
30
  0.5090642097332273
40
  1.5999999999999974
 0
CIRCLE
8
layer0
66
1
10
  34.91625318723341
20
  32.50021284585184
30
  0.5090642097332211
40
  1.599999999999997
 0
CIRCLE
8
layer0
66
1
10
  19.91625318723339
20
  32.50021284585186
30
  0.5090642097331778
40
  1.5999999999999974
 0
CIRCLE
8
layer0
66
1
10
  34.91625318723339
20
  7.500212845851876
30
  0.5090642097332292
40
  1.599999999999996
 0
CIRCLE
8
layer0
66
1
10
  19.91625318723339
20
  7.500212845851842
30
  0.509064209733231
40
  1.599999999999998
 0
POLYLINE
8
layer0
66
1
70
8
10
  0.0
20
  0.0
30
  0.0
  0
VERTEX
8
layer0
10
  -4.183746858069935
20
  21.500212845851866
30
  6.509064209733173
0
VERTEX
8
layer0
10
  -7.583746858070018
20
  21.500212845851934
30
  6.509064209733129
 0
SEQEND
 0
ARC
8
layer0
66
1
10
  -7.583746858070018
20
  20.500212845851866
30
  6.509064209733129
40
  0.9999999999999989
50
  90.0
51
  179.98833189786166
 0
POLYLINE
8
layer0
66
1
70
8
10
  0.0
20
  0.0
30
  0.0
  0
VERTEX
8
layer0
10
  -8.583746858070016
20
  20.500212845851866
30
  6.509064209733084
0
VERTEX
8
layer0
10
  -8.583746858069972
20
  19.50021284585187
30
  6.509064209733084
 0
SEQEND
 0
ARC
8
layer0
66
1
10
  -7.583746858070018
20
  19.50021284585187
30
  6.509064209733084
40
  0.9999999999999989
50
  -89.97666379572334
51
  0.011668102138330028
 0
POLYLINE
8
layer0
66
1
70
8
10
  0.0
20
  0.0
30
  0.0
  0
VERTEX
8
layer0
10
  -7.583746858070018
20
  18.50021284585185
30
  6.509064209733129
0
VERTEX
8
layer0
10
  -4.183746858069935
20
  18.50021284585185
30
  6.50906420973322
 0
SEQEND
 0
ARC
8
layer0
66
1
10
  -4.183746858069981
20
  16.90021284585183
30
  6.50906420973322
40
  1.600000000000001
50
  0.011668102139125835
51
  89.99999999999838
 0
POLYLINE
8
layer0
66
1
70
8
10
  0.0
20
  0.0
30
  0.0
  0
VERTEX
8
layer0
10
  -2.5837468580700285
20
  4.000212845851829
30
  6.509064209733088
0
VERTEX
8
layer0
10
  -2.583746858069983
20
  16.90021284585185
30
  6.509064209733174
 0
SEQEND
 0
ARC
8
layer0
66
1
10
  1.4162531419300095
20
  4.000212845851851
30
  6.509064209733223
40
  3.9999999999999947
50
  179.988331897862
51
  269.9766637957233
 0
POLYLINE
8
layer0
66
1
70
8
10
  0.0
20
  0.0
30
  0.0
  0
VERTEX
8
layer0
10
  1.4162531419300095
20
  0.00021284585185838353
30
  6.509064209733134
0
VERTEX
8
layer0
10
  52.41625314193007
20
  0.00021284585185838353
30
  6.509064209733083
0
VERTEX
8
layer0
10
  64.91625314193007
20
  12.50021284585188
30
  6.509064209733122
0
VERTEX
8
layer0
10
  64.91625314193007
20
  12.50021284585188
30
  6.509064209733122
0
VERTEX
8
layer0
10
  52.41625314193007
20
  40.00021284585187
30
  6.509064209733115
0
VERTEX
8
layer0
10
  1.4162531419300546
20
  40.00021284585187
30
  6.509064209733122
 0
SEQEND
 0
ARC
8
layer0
66
1
10
  1.4162531419300546
20
  36.000212845851884
30
  6.509064209733078
40
  3.9999999999999956
50
  90.0
51
  179.98833189786166
 0
POLYLINE
8
layer0
66
1
70
8
10
  0.0
20
  0.0
30
  0.0
  0
VERTEX
8
layer0
10
  -2.5837468580699383
20
  23.100212845851818
30
  6.509064209733083
0
VERTEX
8
layer0
10
  -2.5837468580699383
20
  36.000212845851884
30
  6.509064209733124
 0
SEQEND
 0
ARC
8
layer0
66
1
10
  -4.183746858069935
20
  23.100212845851885
30
  6.509064209733127
40
  1.6000000000000005
50
  0.011668102135899971
51
  89.99999999999515
 0
CIRCLE
8
layer0
66
1
10
  19.916253187233412
20
  7.500212845851846
30
  6.5090642097332205
40
  1.599999999999998
 0
CIRCLE
8
layer0
66
1
10
  34.91625318723345
20
  7.5002128458518795
30
  6.509064209733218
40
  1.5999999999999932
 0
CIRCLE
8
layer0
66
1
10
  19.916253187233412
20
  32.50021284585184
30
  6.5090642097332125
40
  1.5999999999999974
 0
CIRCLE
8
layer0
66
1
10
  34.91625318723341
20
  32.500212845851884
30
  6.509064209733165
40
  1.599999999999996
 0
CIRCLE
8
layer0
66
1
10
  49.91625318723342
20
  7.500212845851846
30
  6.509064209733172
40
  1.5999999999999974
 0
CIRCLE
8
layer0
66
1
10
  49.9162531872334
20
  32.50021284585186
30
  6.509064209733208
40
  1.5999999999999985
 0
CIRCLE
8
layer0
66
1
10
  4.916253187233396
20
  7.5002128458518005
30
  6.509064209733177
40
  1.599999999999995
 0
CIRCLE
8
layer0
66
1
10
  4.916253187233441
20
  32.50021284585184
30
  6.509064209733168
40
  1.5999999999999979
 0
CIRCLE
8
layer0
66
1
10
  57.41625318723339
20
  20.000212845851866
30
  6.5090642097331655
40
  1.5999999999999974
 0
CIRCLE
8
layer0
66
1
10
  42.416253187233416
20
  20.000212845851866
30
  6.509064209733259
40
  1.5999999999999968
 0
CIRCLE
8
layer0
66
1
10
  19.916253141930042
20
  20.000000000000078
30
  6.509064209733216
40
  4.999999999999998
 0
ENDSEC
 0
EOF
