0
SECTION
2
HEADER
9
MEASUREMENT
70
2
0
ENDSEC
0
SECTION
2
ENTITIES
0
POLYLINE
8
layer0
66
1
70
8
10
  0.0
20
  0.0
30
  0.0
  0
VERTEX
8
layer0
10
  -5.50911573199153
20
  156.60692577482968
30
  3.0179052512165336
0
VERTEX
8
layer0
10
  -1.0091157319915263
20
  156.6069257748113
30
  3.0179052512165336
0
VERTEX
8
layer0
10
  -5.50911573199153
20
  156.60692577482968
30
  3.0179052512165336
0
VERTEX
8
layer0
10
  -5.509115732848203
20
  -53.4159984508443
30
  3.0174739267179476
0
VERTEX
8
layer0
10
  -1.009115732872674
20
  -59.41599845084999
30
  3.0174616045059746
0
VERTEX
8
layer0
10
  58.9908842671273
20
  -59.41599845109473
30
  3.0174616045059746
0
VERTEX
8
layer0
10
  58.9908842671273
20
  -59.41599845109473
30
  3.0174616045059746
0
VERTEX
8
layer0
10
  58.99088426715178
20
  -53.41599845110739
30
  3.0174739267179476
0
VERTEX
8
layer0
10
  63.49088426715177
20
  -53.415998451125745
30
  3.0174739267179476
0
VERTEX
8
layer0
10
  63.49088426800844
20
  156.60692577454822
30
  3.0179052512165336
0
VERTEX
8
layer0
10
  58.99088426800845
20
  156.60692577456658
30
  3.0179052512165336
0
VERTEX
8
layer0
10
  58.99085494844355
20
  162.6069257719416
30
  3.0191895664872783
0
VERTEX
8
layer0
10
  -1.0091157319915263
20
  156.6069257748113
30
  3.0179052512165336
  0
SEQEND
  0
SEQEND
0
CIRCLE
8
layer0
66
1
10
  28.999993295129798
20
  -29.00001102036296
30
  3.0186356205523666
40
  28.999999999938836
0
CIRCLE
8
layer0
66
1
10
  28.999993295788553
20
  132.4999889814653
30
  3.017911244177452
40
  28.999999999938836
0
CIRCLE
8
layer0
66
1
10
  53.99999329568657
20
  107.49998898141608
30
  3.017859901627564
40
  2.099999999999996
0
CIRCLE
8
layer0
66
1
10
  3.999993295686589
20
  107.49998898162002
30
  3.0178599018315038
40
  2.099999999999996
0
CIRCLE
8
layer0
66
1
10
  3.999993295890536
20
  157.49998898151458
30
  3.0179625869312794
40
  2.099999999999996
0
CIRCLE
8
layer0
66
1
10
  53.99999329589052
20
  157.49998898131065
30
  3.0179625867273394
40
  2.099999999999996
0
CIRCLE
8
layer0
66
1
10
  3.9999932950278265
20
  -54.00001101803942
30
  3.017528228959229
40
  2.099999999999996
0
CIRCLE
8
layer0
66
1
10
  53.99999329502783
20
  -54.00001101824336
30
  3.0175282287552436
40
  2.099999999999996
0
CIRCLE
8
layer0
66
1
10
  3.999993295231774
20
  -4.000011018144853
30
  3.0176309140589592
40
  2.099999999999996
0
CIRCLE
8
layer0
66
1
10
  53.999993295231775
20
  -4.000011018348801
30
  3.0176309138550192
40
  2.0999999999999965
0
POLYLINE
8
layer0
66
1
70
8
10
  0.0
20
  0.0
30
  0.0
  0
VERTEX
8
layer0
10
  -5.509115732003768
20
  156.60693809704165
30
  0.0179052512418352
0
VERTEX
8
layer0
10
  -1.009115732003765
20
  156.6069380970233
30
  0.0179052512418352
0
VERTEX
8
layer0
10
  -1.009115732003765
20
  156.6069380970233
30
  0.0179052512418352
0
VERTEX
8
layer0
10
  58.99085494843132
20
  162.6069380941536
30
  0.019189566512579845
0
VERTEX
8
layer0
10
  58.99088426799622
20
  156.60693809677855
30
  0.0179052512418352
0
VERTEX
8
layer0
10
  63.490884267996215
20
  156.6069380967602
30
  0.0179052512418352
0
VERTEX
8
layer0
10
  63.49088426713954
20
  -53.415986128913765
30
  0.01747392674324896
0
VERTEX
8
layer0
10
  58.99088426713955
20
  -53.41598612889541
30
  0.01747392674324896
0
VERTEX
8
layer0
10
  58.99088426711508
20
  -59.41598612888274
30
  0.017461604531275897
0
VERTEX
8
layer0
10
  58.99088426711508
20
  -59.41598612888274
30
  0.017461604531275897
0
VERTEX
8
layer0
10
  -1.0091157328849127
20
  -59.41598612863801
30
  0.017461604531275897
0
VERTEX
8
layer0
10
  -5.509115732860442
20
  -53.41598612863232
30
  0.01747392674324896
0
VERTEX
8
layer0
10
  -5.509115732003768
20
  156.60693809704165
30
  0.0179052512418352
  0
SEQEND
  0
SEQEND
0
CIRCLE
8
layer0
66
1
10
  28.99999329511757
20
  -28.999998698150982
30
  0.018635620577668023
40
  28.999999999938833
0
CIRCLE
8
layer0
66
1
10
  28.999993295776324
20
  132.50000130367727
30
  0.017911244202753192
40
  28.999999999938836
0
CIRCLE
8
layer0
66
1
10
  53.999993295674344
20
  107.50000130362805
30
  0.017859901652865415
40
  2.099999999999996
0
CIRCLE
8
layer0
66
1
10
  3.9999932956743502
20
  107.50000130383202
30
  0.01785990185680539
40
  2.099999999999996
0
CIRCLE
8
layer0
66
1
10
  3.999993295878298
20
  157.50000130372658
30
  0.017962586956580946
40
  2.099999999999996
0
CIRCLE
8
layer0
66
1
10
  53.9999932958783
20
  157.5000013035226
30
  0.01796258675264097
40
  2.099999999999996
0
CIRCLE
8
layer0
66
1
10
  3.999993295015588
20
  -53.99999869582743
30
  0.01752822898453036
40
  2.099999999999996
0
CIRCLE
8
layer0
66
1
10
  53.9999932950156
20
  -53.99999869603138
30
  0.017528228780545264
40
  2.099999999999996
0
CIRCLE
8
layer0
66
1
10
  3.9999932952195354
20
  -3.9999986959328715
30
  0.01763091408426079
40
  2.099999999999996
0
CIRCLE
8
layer0
66
1
10
  53.999993295219554
20
  -3.9999986961368186
30
  0.017630913880320814
40
  2.0999999999999965
 0
ENDSEC
 0
EOF
