0
SECTION
2
HEADER
9
MEASUREMENT
70
2
0
ENDSEC
0
SECTION
2
ENTITIES
0
CIRCLE
8
layer0
66
1
10
  78.74999999999987
20
  232.49999999999756
30
  3.813763541082861e-15
40
  1.5999999999999974
0
CIRCLE
8
layer0
66
1
10
  149.9999999999997
20
  232.4999999999973
30
  3.3228194501466413e-15
40
  1.5999999999999974
0
CIRCLE
8
layer0
66
1
10
  221.24999999999986
20
  232.49999999999756
30
  2.479379548891936e-15
40
  1.5999999999999974
0
CIRCLE
8
layer0
66
1
10
  78.74999999999987
20
  7.499999999997573
30
  -2.9999999999999964
40
  1.5999999999999974
0
POLYLINE
8
layer0
66
1
70
8
10
  0.0
20
  0.0
30
  0.0
  0
VERTEX
8
layer0
10
  303.0
20
  0.0
30
  -3.586839159020013e-15
0
VERTEX
8
layer0
10
  -3.000000000000175
20
  -7.977811707467778e-33
30
  7.405048796371745e-16
0
VERTEX
8
layer0
10
  -3.0000000000001297
20
  239.99999999999758
30
  1.332627064254412e-14
0
VERTEX
8
layer0
10
  -3.0000000000001297
20
  239.99999999999758
30
  1.332627064254412e-14
0
VERTEX
8
layer0
10
  303.0
20
  0.0
30
  -3.586839159020013e-15
  0
SEQEND
0
VERTEX
8
layer0
10
  274.8363169479328
20
  19.999999999999964
30
  -5.4945915182077945e-15
0
VERTEX
8
layer0
10
  275.65123062990017
20
  20.05341226461171
30
  -4.798642221681814e-15
0
VERTEX
8
layer0
10
  276.29131852316533
20
  20.180733662792047
30
  -4.452282821949321e-15
0
VERTEX
8
layer0
10
  276.9093115984789
20
  20.39051404415528
30
  -4.457224558884804e-15
0
VERTEX
8
layer0
10
  277.4946358229816
20
  20.679164008214137
30
  -4.4608870676806925e-15
0
VERTEX
8
layer0
10
  278.03727613690904
20
  21.04174467405446
30
  -1.3980594560395201e-14
0
VERTEX
8
layer0
10
  278.5279478140429
20
  21.47205218595784
30
  -8.341600608383324e-15
0
VERTEX
8
layer0
10
  278.9582553259452
20
  21.96272386309035
30
  -8.341141953661586e-15
0
VERTEX
8
layer0
10
  279.3208359917858
20
  22.50536417701847
30
  -7.986797668525163e-15
0
VERTEX
8
layer0
10
  279.6094859558447
20
  23.090688401521447
30
  -8.336086811846144e-15
0
VERTEX
8
layer0
10
  279.8192663372079
20
  23.708681476834656
30
  -6.56909776803802e-15
0
VERTEX
8
layer0
10
  279.94658773538856
20
  24.34876937010091
30
  -1.6284202733625382e-15
0
VERTEX
8
layer0
10
  280.0
20
  25.16368305206468
30
  -5.497284758579843e-15
0
VERTEX
8
layer0
10
  280.0
20
  214.83631694793507
30
  -1.784528990602514e-16
0
VERTEX
8
layer0
10
  279.94658773538856
20
  215.6512306298992
30
  -3.693557011567776e-15
0
VERTEX
8
layer0
10
  279.8192663372079
20
  216.29131852316544
30
  -2.9798148421875686e-15
0
VERTEX
8
layer0
10
  279.60948595584455
20
  216.90931159847938
30
  -7.905279537753019e-15
0
VERTEX
8
layer0
10
  279.3208359917858
20
  217.49463582298182
30
  -1.9028101613852222e-15
0
VERTEX
8
layer0
10
  278.95825532594563
20
  218.0372761369092
30
  -4.359848078067068e-15
0
VERTEX
8
layer0
10
  278.5279478140424
20
  218.52794781404262
30
  -5.0541932959023405e-15
0
VERTEX
8
layer0
10
  278.03727613690927
20
  218.95825532594563
30
  -7.158490270661118e-15
0
VERTEX
8
layer0
10
  277.4946358229816
20
  219.32083599178597
30
  -6.090476169812703e-15
0
VERTEX
8
layer0
10
  276.9093115984792
20
  219.60948595584463
30
  -5.727785021100874e-15
0
VERTEX
8
layer0
10
  276.2913185231653
20
  219.81926633720806
30
  -5.365599648955236e-15
0
VERTEX
8
layer0
10
  275.6512306298995
20
  219.94658773538856
30
  2.8335131031218457e-16
0
VERTEX
8
layer0
10
  274.8363169479305
20
  220.0000000000003
30
  2.936024799682182e-16
0
VERTEX
8
layer0
10
  25.16368305206477
20
  219.9999999999986
30
  -2.7432633245109064e-15
0
VERTEX
8
layer0
10
  24.348769370100506
20
  219.94658773538723
30
  -2.381725190081458e-15
0
VERTEX
8
layer0
10
  23.708681476834837
20
  219.8192663372066
30
  -2.37558877949546e-15
0
VERTEX
8
layer0
10
  23.090688401520683
20
  219.6094859558431
30
  -2.7231428528784617e-15
0
VERTEX
8
layer0
10
  22.50536417701856
20
  219.3208359917846
30
  -2.3669845337640885e-15
0
VERTEX
8
layer0
10
  21.962723863090666
20
  218.9582553259442
30
  -4.479638781559654e-15
0
VERTEX
8
layer0
10
  21.472052185957388
20
  218.52794781404108
30
  -3.0687165272017906e-15
0
VERTEX
8
layer0
10
  21.041744674054414
20
  218.03727613690793
30
  -9.542003200126032e-16
0
VERTEX
8
layer0
10
  20.679164008214318
20
  217.49463582298054
30
  3.2739009289913092e-15
0
VERTEX
8
layer0
10
  20.390514044155417
20
  216.90931159847767
30
  -3.779221944375941e-15
0
VERTEX
8
layer0
10
  20.180733662792093
20
  216.29131852316382
30
  1.1512094078671867e-15
0
VERTEX
8
layer0
10
  20.053412264611485
20
  215.65123062989784
30
  -6.170057939419081e-16
0
VERTEX
8
layer0
10
  20.000013397377867
20
  214.8365213524202
30
  2.8993650354399108e-15
0
VERTEX
8
layer0
10
  20.000013397377867
20
  214.8365213524202
30
  2.8993650354399108e-15
0
VERTEX
8
layer0
10
  20.068963650873364
20
  24.34876937010091
30
  3.904594198385068e-16
0
VERTEX
8
layer0
10
  20.196285049053973
20
  23.708681476834656
30
  1.086700491732249e-15
0
VERTEX
8
layer0
10
  20.40606543041716
20
  23.090688401521447
30
  -6.325188173849342e-15
0
VERTEX
8
layer0
10
  20.69471539447611
20
  22.50536417701847
30
  -5.630237154165891e-15
0
VERTEX
8
layer0
10
  21.057296060316432
20
  21.962723863090712
30
  -5.288174099394974e-15
0
VERTEX
8
layer0
10
  21.48760357221981
20
  21.472052185957118
30
  -3.536341450604244e-15
0
VERTEX
8
layer0
10
  21.978275249352414
20
  21.04174467405464
30
  -4.957002579030327e-15
0
VERTEX
8
layer0
10
  22.520915563280443
20
  20.679164008214137
30
  -7.434999921152697e-15
0
VERTEX
8
layer0
10
  23.10623978778261
20
  20.39051404415546
30
  -1.1002706738132658e-15
0
VERTEX
8
layer0
10
  23.72423286309672
20
  20.180733662792047
30
  -1.4624560459589054e-15
0
VERTEX
8
layer0
10
  24.36432075636171
20
  20.05341226461171
30
  -1.4714740401305203e-15
0
VERTEX
8
layer0
10
  25.17923443832214
20
  20.000000000000504
30
  -1.4817252097864463e-15
  0
SEQEND
  0
SEQEND
0
CIRCLE
8
layer0
66
1
10
  7.499999999999874
20
  232.49999999999756
30
  7.477169924885464e-15
40
  1.5999999999999974
0
CIRCLE
8
layer0
66
1
10
  78.74999999999987
20
  232.49999999999756
30
  3.813763541082861e-15
40
  1.5999999999999974
0
CIRCLE
8
layer0
66
1
10
  149.9999999999997
20
  232.4999999999973
30
  3.3228194501466413e-15
40
  1.5999999999999974
0
CIRCLE
8
layer0
66
1
10
  221.24999999999986
20
  232.49999999999756
30
  2.479379548891936e-15
40
  1.5999999999999974
0
CIRCLE
8
layer0
66
1
10
  292.49999999999983
20
  232.49999999999756
30
  1.988435457955718e-15
40
  1.5999999999999974
0
CIRCLE
8
layer0
66
1
10
  7.499999999999783
20
  7.499999999997573
30
  7.04600440493139e-15
40
  1.5999999999999974
0
CIRCLE
8
layer0
66
1
10
  78.74999999999987
20
  7.499999999997573
30
  3.7350938314472724e-15
40
  1.5999999999999974
0
CIRCLE
8
layer0
66
1
10
  149.99999999999966
20
  7.499999999997302
30
  3.2441497405110534e-15
40
  1.5999999999999974
0
CIRCLE
8
layer0
66
1
10
  221.24999999999986
20
  7.499999999997573
30
  -4.192566432915495e-16
40
  1.5999999999999974
0
CIRCLE
8
layer0
66
1
10
  292.49999999999983
20
  7.499999999997573
30
  2.6147573689571046e-15
40
  1.5999999999999974
0
CIRCLE
8
layer0
66
1
10
  7.499999999999874
20
  194.99999999999756
30
  7.405309004893119e-15
40
  1.5999999999999974
0
CIRCLE
8
layer0
66
1
10
  7.499999999999648
20
  157.49999999999756
30
  7.333448084900776e-15
40
  1.5999999999999974
0
CIRCLE
8
layer0
66
1
10
  7.499999999999829
20
  119.99999999999757
30
  7.261587164908427e-15
40
  1.5999999999999974
0
CIRCLE
8
layer0
66
1
10
  7.499999999999603
20
  82.49999999999757
30
  7.189726244916084e-15
40
  1.5999999999999974
0
CIRCLE
8
layer0
66
1
10
  7.499999999999783
20
  44.99999999999757
30
  7.117865324923735e-15
40
  1.5999999999999974
0
CIRCLE
8
layer0
66
1
10
  292.49999999999983
20
  194.99999999999756
30
  1.916574537963373e-15
40
  1.5999999999999974
0
CIRCLE
8
layer0
66
1
10
  292.49999999999966
20
  157.49999999999756
30
  1.8447136179710278e-15
40
  1.5999999999999974
0
CIRCLE
8
layer0
66
1
10
  292.49999999999983
20
  119.99999999999757
30
  1.7728526979786805e-15
40
  1.5999999999999974
0
CIRCLE
8
layer0
66
1
10
  292.49999999999966
20
  82.49999999999757
30
  2.7584792089417975e-15
40
  1.5999999999999974
0
CIRCLE
8
layer0
66
1
10
  292.49999999999983
20
  44.99999999999757
30
  2.6866182889494504e-15
40
  1.5999999999999974
0
POLYLINE
8
layer0
66
1
70
8
10
  0.0
20
  0.0
30
  0.0
  0
VERTEX
8
layer0
10
  303.0
20
  -3.394853842486665e-17
30
  2.9999999999999964
0
VERTEX
8
layer0
10
  -3.000000000000175
20
  -3.394853842486661e-17
30
  2.9999999999999964
0
VERTEX
8
layer0
10
  303.0
20
  -3.394853842486665e-17
30
  2.9999999999999964
0
VERTEX
8
layer0
10
  -3.0000000000001297
20
  239.99999999999758
30
  3.000000000000012
0
VERTEX
8
layer0
10
  -3.0000000000001297
20
  239.99999999999758
30
  3.000000000000012
  0
SEQEND
0
VERTEX
8
layer0
10
  274.8363169479328
20
  19.999999999999964
30
  2.9999999999999907
0
VERTEX
8
layer0
10
  25.17923443832214
20
  20.000000000000504
30
  2.9999999999999987
0
VERTEX
8
layer0
10
  24.36432075636171
20
  20.05341226461171
30
  2.9999999999999987
0
VERTEX
8
layer0
10
  23.72423286309672
20
  20.180733662792047
30
  2.9999999999999947
0
VERTEX
8
layer0
10
  23.10623978778261
20
  20.39051404415546
30
  2.999999999999995
0
VERTEX
8
layer0
10
  22.520915563280443
20
  20.679164008214137
30
  2.999999999999994
0
VERTEX
8
layer0
10
  21.978275249352414
20
  21.04174467405464
30
  2.999999999999999
0
VERTEX
8
layer0
10
  21.48760357221981
20
  21.472052185957118
30
  2.9999999999999964
0
VERTEX
8
layer0
10
  21.057296060316432
20
  21.962723863090712
30
  2.9999999999999987
0
VERTEX
8
layer0
10
  20.69471539447611
20
  22.50536417701847
30
  2.9999999999999947
0
VERTEX
8
layer0
10
  20.40606543041716
20
  23.090688401521447
30
  2.999999999999994
0
VERTEX
8
layer0
10
  20.196285049053973
20
  23.708681476834656
30
  3.0
0
VERTEX
8
layer0
10
  20.068963650873364
20
  24.34876937010091
30
  2.9999999999999996
0
VERTEX
8
layer0
10
  20.000013397377867
20
  214.8365213524202
30
  3.0000000000000018
0
VERTEX
8
layer0
10
  20.000013397377867
20
  214.8365213524202
30
  3.0000000000000018
0
VERTEX
8
layer0
10
  20.053412264611485
20
  215.65123062989784
30
  2.9999999999999996
0
VERTEX
8
layer0
10
  20.180733662792093
20
  216.29131852316382
30
  2.9999999999999973
0
VERTEX
8
layer0
10
  20.390514044155417
20
  216.90931159847767
30
  2.9999999999999973
0
VERTEX
8
layer0
10
  20.679164008214318
20
  217.49463582298054
30
  2.9999999999999996
0
VERTEX
8
layer0
10
  21.041744674054414
20
  218.03727613690793
30
  3.000000000000004
0
VERTEX
8
layer0
10
  21.472052185957388
20
  218.52794781404108
30
  2.999999999999997
0
VERTEX
8
layer0
10
  21.962723863090666
20
  218.9582553259442
30
  2.9999999999999964
0
VERTEX
8
layer0
10
  22.50536417701856
20
  219.3208359917846
30
  3.000000000000001
0
VERTEX
8
layer0
10
  23.090688401520683
20
  219.6094859558431
30
  2.9999999999999973
0
VERTEX
8
layer0
10
  23.708681476834837
20
  219.8192663372066
30
  2.999999999999998
0
VERTEX
8
layer0
10
  24.348769370100506
20
  219.94658773538723
30
  2.999999999999998
0
VERTEX
8
layer0
10
  25.16368305206477
20
  219.9999999999986
30
  2.9999999999999973
0
VERTEX
8
layer0
10
  274.8363169479305
20
  220.0000000000003
30
  2.9999999999999996
0
VERTEX
8
layer0
10
  275.6512306298995
20
  219.94658773538856
30
  2.9999999999999996
0
VERTEX
8
layer0
10
  276.2913185231653
20
  219.81926633720806
30
  2.9999999999999947
0
VERTEX
8
layer0
10
  276.9093115984792
20
  219.60948595584463
30
  2.9999999999999947
0
VERTEX
8
layer0
10
  277.4946358229816
20
  219.32083599178597
30
  2.9999999999999942
0
VERTEX
8
layer0
10
  278.03727613690927
20
  218.95825532594563
30
  2.999999999999997
0
VERTEX
8
layer0
10
  278.5279478140424
20
  218.52794781404262
30
  2.999999999999995
0
VERTEX
8
layer0
10
  278.95825532594563
20
  218.0372761369092
30
  3.0
0
VERTEX
8
layer0
10
  279.3208359917858
20
  217.49463582298182
30
  2.9999999999999947
0
VERTEX
8
layer0
10
  279.60948595584455
20
  216.90931159847938
30
  2.9999999999999933
0
VERTEX
8
layer0
10
  279.8192663372079
20
  216.29131852316544
30
  2.9999999999999973
0
VERTEX
8
layer0
10
  279.94658773538856
20
  215.6512306298992
30
  2.9999999999999964
0
VERTEX
8
layer0
10
  280.0
20
  214.83631694793507
30
  2.9999999999999987
0
VERTEX
8
layer0
10
  280.0
20
  25.16368305206468
30
  2.9999999999999947
0
VERTEX
8
layer0
10
  279.94658773538856
20
  24.34876937010091
30
  2.9999999999999973
0
VERTEX
8
layer0
10
  279.8192663372079
20
  23.708681476834656
30
  2.9999999999999933
0
VERTEX
8
layer0
10
  279.6094859558447
20
  23.090688401521447
30
  2.9999999999999925
0
VERTEX
8
layer0
10
  279.3208359917858
20
  22.50536417701847
30
  2.999999999999992
0
VERTEX
8
layer0
10
  278.9582553259452
20
  21.96272386309035
30
  2.9999999999999956
0
VERTEX
8
layer0
10
  278.5279478140429
20
  21.47205218595784
30
  2.9999999999999916
0
VERTEX
8
layer0
10
  278.03727613690904
20
  21.04174467405446
30
  2.999999999999991
0
VERTEX
8
layer0
10
  277.4946358229816
20
  20.679164008214137
30
  2.9999999999999956
0
VERTEX
8
layer0
10
  276.9093115984789
20
  20.39051404415528
30
  2.9999999999999925
0
VERTEX
8
layer0
10
  276.29131852316533
20
  20.180733662792047
30
  2.9999999999999916
0
VERTEX
8
layer0
10
  275.65123062990017
20
  20.05341226461171
30
  2.999999999999991
  0
SEQEND
  0
SEQEND
0
CIRCLE
8
layer0
66
1
10
  7.499999999999874
20
  232.49999999999756
30
  3.0000000000000075
40
  1.5999999999999974
0
CIRCLE
8
layer0
66
1
10
  7.499999999999874
20
  7.499999999997573
30
  3.0000000000000018
40
  1.5999999999999974
0
CIRCLE
8
layer0
66
1
10
  149.99999999999966
20
  7.499999999997302
30
  3.0000000000000004
40
  1.6000000000000045
0
CIRCLE
8
layer0
66
1
10
  221.24999999999986
20
  7.499999999997573
30
  3.0
40
  1.5999999999999974
0
CIRCLE
8
layer0
66
1
10
  292.49999999999983
20
  7.499999999997573
30
  3.0000000000000018
40
  1.5999999999999974
0
CIRCLE
8
layer0
66
1
10
  292.49999999999983
20
  232.49999999999756
30
  3.000000000000002
40
  1.5999999999999974
0
CIRCLE
8
layer0
66
1
10
  7.499999999999874
20
  194.99999999999756
30
  3.0000000000000075
40
  1.5999999999999974
0
CIRCLE
8
layer0
66
1
10
  7.499999999999648
20
  157.49999999999756
30
  3.0000000000000075
40
  1.5999999999999974
0
CIRCLE
8
layer0
66
1
10
  7.499999999999829
20
  119.99999999999757
30
  3.0000000000000058
40
  1.5999999999999974
0
CIRCLE
8
layer0
66
1
10
  7.499999999999603
20
  82.49999999999757
30
  3.0000000000000053
40
  1.5999999999999974
0
CIRCLE
8
layer0
66
1
10
  7.499999999999783
20
  44.99999999999757
30
  3.0000000000000053
40
  1.5999999999999974
0
CIRCLE
8
layer0
66
1
10
  292.49999999999983
20
  194.99999999999756
30
  3.0000000000000018
40
  1.5999999999999974
0
CIRCLE
8
layer0
66
1
10
  292.49999999999966
20
  157.49999999999756
30
  3.0000000000000018
40
  1.5999999999999974
0
CIRCLE
8
layer0
66
1
10
  292.49999999999983
20
  119.99999999999757
30
  3.0000000000000018
40
  1.5999999999999979
0
CIRCLE
8
layer0
66
1
10
  292.49999999999966
20
  82.49999999999757
30
  3.000000000000003
40
  1.5999999999999974
0
CIRCLE
8
layer0
66
1
10
  292.49999999999983
20
  44.99999999999757
30
  3.000000000000003
40
  1.599999999999997
 0
ENDSEC
 0
EOF
