0
SECTION
2
HEADER
9
MEASUREMENT
70
2
0
ENDSEC
0
SECTION
2
ENTITIES
0
POLYLINE
8
layer0
66
1
70
8
10
  0.0
20
  0.0
30
  0.0
  0
VERTEX
8
layer0
10
  -219.0
20
  279.0
30
  0.0
0
VERTEX
8
layer0
10
  0.0
20
  279.0
30
  0.0
0
VERTEX
8
layer0
10
  0.0
20
  0.0
30
  0.0
0
VERTEX
8
layer0
10
  -219.0
20
  0.0
30
  0.0
0
VERTEX
8
layer0
10
  -219.0
20
  279.0
30
  0.0
  0
SEQEND
0
VERTEX
8
layer0
10
  -214.49999999999994
20
  274.49999999999994
30
  0.0
0
VERTEX
8
layer0
10
  -214.49999999999994
20
  4.500000000000003
30
  0.0
0
VERTEX
8
layer0
10
  -4.5
20
  4.500000000000003
30
  0.0
0
VERTEX
8
layer0
10
  -4.5
20
  274.49999999999994
30
  0.0
  0
SEQEND
0
VERTEX
8
layer0
10
  -214.49999999999994
20
  274.49999999999994
30
  -1.9999999999999962
0
VERTEX
8
layer0
10
  -4.5
20
  274.49999999999994
30
  -1.9999999999999962
0
VERTEX
8
layer0
10
  -4.5
20
  4.500000000000003
30
  -1.9999999999999962
0
VERTEX
8
layer0
10
  -214.49999999999994
20
  4.500000000000003
30
  -1.9999999999999962
  0
SEQEND
  0
SEQEND
0
CIRCLE
8
layer0
66
1
10
  -197.5
20
  11.499999999999979
30
  -1.9999999999999962
40
  1.599999999999997
0
CIRCLE
8
layer0
66
1
10
  -134.5088195647512
20
  245.2495021986419
30
  -1.9999999999999962
40
  2.100000000000019
0
CIRCLE
8
layer0
66
1
10
  -207.5
20
  11.499999999999979
30
  -1.9999999999999962
40
  1.599999999999997
0
ARC
8
layer0
66
1
10
  -102.74999999999999
20
  11.499999999999979
30
  -1.9999999999999962
40
  1.5999999999999968
50
  -89.97666379572334
51
  90.0
0
POLYLINE
8
layer0
66
1
70
8
10
  0.0
20
  0.0
30
  0.0
  0
VERTEX
8
layer0
10
  -116.24999999999999
20
  13.099999999999977
30
  -1.9999999999999962
0
VERTEX
8
layer0
10
  -102.74999999999999
20
  13.099999999999977
30
  -1.9999999999999962
  0
SEQEND
0
ARC
8
layer0
66
1
10
  -116.24999999999999
20
  11.499999999999979
30
  -1.9999999999999962
40
  1.5999999999999968
50
  90.0
51
  269.9766637957233
0
POLYLINE
8
layer0
66
1
70
8
10
  0.0
20
  0.0
30
  0.0
  0
VERTEX
8
layer0
10
  -102.74999999999999
20
  9.899999999999983
30
  -1.9999999999999962
0
VERTEX
8
layer0
10
  -116.24999999999999
20
  9.899999999999983
30
  -1.9999999999999962
  0
SEQEND
0
ARC
8
layer0
66
1
10
  -102.74999999999999
20
  11.499999999999979
30
  -1.9999999999999962
40
  1.5999999999999968
50
  -89.97666379572334
51
  90.0
0
CIRCLE
8
layer0
66
1
10
  -17.5
20
  224.24999999999997
30
  -1.9999999999999962
40
  8.949999999999996
0
CIRCLE
8
layer0
66
1
10
  -109.50881956475119
20
  220.2495021986419
30
  -1.9999999999999962
40
  28.999999999999993
0
CIRCLE
8
layer0
66
1
10
  -207.5
20
  267.5
30
  -1.9999999999999962
40
  1.599999999999997
0
CIRCLE
8
layer0
66
1
10
  -197.5
20
  267.5
30
  -1.9999999999999962
40
  1.599999999999997
0
POLYLINE
8
layer0
66
1
70
8
10
  0.0
20
  0.0
30
  0.0
  0
VERTEX
8
layer0
10
  -14.750000000000004
20
  256.17499999999995
30
  -1.9999999999999962
0
VERTEX
8
layer0
10
  -14.750000000000004
20
  253.37499999999994
30
  -1.9999999999999962
0
VERTEX
8
layer0
10
  -14.750000000000004
20
  256.17499999999995
30
  -1.9999999999999962
0
VERTEX
8
layer0
10
  -20.250000000000004
20
  253.37499999999994
30
  -1.9999999999999962
0
VERTEX
8
layer0
10
  -20.27008362608487
20
  252.66376341025222
30
  -1.9999999999999962
  0
SEQEND
0
ARC
8
layer0
66
1
10
  -17.5
20
  247.625
30
  -1.9999999999999962
40
  5.750000000000001
50
  118.79626620731574
51
  421.50893384479514
0
POLYLINE
8
layer0
66
1
70
8
10
  0.0
20
  0.0
30
  0.0
  0
VERTEX
8
layer0
10
  -14.750000000000004
20
  253.37499999999994
30
  -1.9999999999999962
0
VERTEX
8
layer0
10
  -14.770083626084869
20
  252.66376341025222
30
  -1.9999999999999962
  0
SEQEND
  0
SEQEND
0
CIRCLE
8
layer0
66
1
10
  -187.50000000000003
20
  267.5
30
  -1.9999999999999962
40
  1.599999999999997
0
CIRCLE
8
layer0
66
1
10
  -177.50000000000003
20
  267.5
30
  -1.9999999999999962
40
  1.599999999999997
0
CIRCLE
8
layer0
66
1
10
  -167.50000000000006
20
  267.5
30
  -1.9999999999999962
40
  1.599999999999997
0
CIRCLE
8
layer0
66
1
10
  -109.50881956475119
20
  58.74950219864186
30
  -1.9999999999999962
40
  28.999999999999993
0
CIRCLE
8
layer0
66
1
10
  -84.50881956475119
20
  245.2495021986419
30
  -1.9999999999999962
40
  2.100000000000018
0
CIRCLE
8
layer0
66
1
10
  -134.5088195647512
20
  195.24950219864186
30
  -1.9999999999999962
40
  2.100000000000018
0
CIRCLE
8
layer0
66
1
10
  -84.50881956475119
20
  195.24950219864186
30
  -1.9999999999999962
40
  2.100000000000018
0
CIRCLE
8
layer0
66
1
10
  -134.5088195647512
20
  83.74950219864186
30
  -1.9999999999999962
40
  2.1000000000000103
0
CIRCLE
8
layer0
66
1
10
  -134.5088195647512
20
  33.74950219864186
30
  -1.9999999999999962
40
  2.1000000000000103
0
CIRCLE
8
layer0
66
1
10
  -84.50881956475119
20
  33.74950219864186
30
  -1.9999999999999962
40
  2.100000000000016
0
CIRCLE
8
layer0
66
1
10
  -84.50881956475119
20
  83.74950219864186
30
  -1.9999999999999962
40
  2.100000000000018
0
POLYLINE
8
layer0
66
1
70
8
10
  0.0
20
  0.0
30
  0.0
  0
VERTEX
8
layer0
10
  0.0
20
  279.0
30
  2.9999999999999947
0
VERTEX
8
layer0
10
  0.0
20
  0.0
30
  2.9999999999999947
0
VERTEX
8
layer0
10
  0.0
20
  279.0
30
  2.9999999999999947
0
VERTEX
8
layer0
10
  -219.0
20
  279.0
30
  2.9999999999999947
0
VERTEX
8
layer0
10
  -219.0
20
  0.0
30
  2.9999999999999947
  0
SEQEND
  0
SEQEND
0
CIRCLE
8
layer0
66
1
10
  -109.50881956475119
20
  220.2495021986419
30
  2.9999999999999947
40
  28.999999999999993
0
CIRCLE
8
layer0
66
1
10
  -109.50881956475119
20
  58.74950219864186
30
  2.9999999999999947
40
  28.999999999999993
0
ARC
8
layer0
66
1
10
  -17.5
20
  247.625
30
  2.9999999999999947
40
  5.750000000000001
50
  118.79626620731574
51
  421.50893384479514
0
POLYLINE
8
layer0
66
1
70
8
10
  0.0
20
  0.0
30
  0.0
  0
VERTEX
8
layer0
10
  -20.250000000000004
20
  253.37499999999994
30
  2.9999999999999947
0
VERTEX
8
layer0
10
  -20.27008362608487
20
  252.66376341025222
30
  2.9999999999999947
0
VERTEX
8
layer0
10
  -20.250000000000004
20
  253.37499999999994
30
  2.9999999999999947
0
VERTEX
8
layer0
10
  -14.750000000000004
20
  256.17499999999995
30
  2.9999999999999947
0
VERTEX
8
layer0
10
  -14.750000000000004
20
  253.37499999999994
30
  2.9999999999999947
0
VERTEX
8
layer0
10
  -14.770083626084869
20
  252.66376341025222
30
  2.9999999999999947
  0
SEQEND
0
CIRCLE
8
layer0
66
1
10
  -17.5
20
  224.24999999999997
30
  2.9999999999999947
40
  8.949999999999996
0
CIRCLE
8
layer0
66
1
10
  -167.50000000000006
20
  267.5
30
  2.9999999999999947
40
  1.599999999999997
0
CIRCLE
8
layer0
66
1
10
  -177.50000000000003
20
  267.5
30
  2.9999999999999947
40
  1.599999999999997
0
CIRCLE
8
layer0
66
1
10
  -187.50000000000003
20
  267.5
30
  2.9999999999999947
40
  1.599999999999997
0
CIRCLE
8
layer0
66
1
10
  -197.5
20
  267.5
30
  2.9999999999999947
40
  1.599999999999997
0
CIRCLE
8
layer0
66
1
10
  -207.5
20
  267.5
30
  2.9999999999999947
40
  1.599999999999997
0
CIRCLE
8
layer0
66
1
10
  -197.5
20
  11.499999999999979
30
  2.9999999999999947
40
  1.599999999999997
0
CIRCLE
8
layer0
66
1
10
  -207.5
20
  11.499999999999979
30
  2.9999999999999947
40
  1.599999999999997
0
ARC
8
layer0
66
1
10
  -116.24999999999999
20
  11.499999999999979
30
  2.9999999999999947
40
  1.5999999999999968
50
  90.0
51
  269.9766637957233
0
POLYLINE
8
layer0
66
1
70
8
10
  0.0
20
  0.0
30
  0.0
  0
VERTEX
8
layer0
10
  -116.24999999999999
20
  13.099999999999977
30
  2.9999999999999947
0
VERTEX
8
layer0
10
  -102.74999999999999
20
  13.099999999999977
30
  2.9999999999999947
  0
SEQEND
0
ARC
8
layer0
66
1
10
  -102.74999999999999
20
  11.499999999999979
30
  2.9999999999999947
40
  1.5999999999999968
50
  -89.97666379572334
51
  90.0
0
POLYLINE
8
layer0
66
1
70
8
10
  0.0
20
  0.0
30
  0.0
  0
VERTEX
8
layer0
10
  -102.74999999999999
20
  9.899999999999983
30
  2.9999999999999947
0
VERTEX
8
layer0
10
  -116.24999999999999
20
  9.899999999999983
30
  2.9999999999999947
  0
SEQEND
0
ARC
8
layer0
66
1
10
  -116.24999999999999
20
  11.499999999999979
30
  2.9999999999999947
40
  1.5999999999999968
50
  90.0
51
  269.9766637957233
0
CIRCLE
8
layer0
66
1
10
  -134.5088195647512
20
  33.74950219864186
30
  2.9999999999999947
40
  2.1000000000000103
0
CIRCLE
8
layer0
66
1
10
  -84.50881956475119
20
  33.74950219864186
30
  2.9999999999999947
40
  2.100000000000016
0
CIRCLE
8
layer0
66
1
10
  -134.5088195647512
20
  83.74950219864186
30
  2.9999999999999947
40
  2.1000000000000103
0
CIRCLE
8
layer0
66
1
10
  -84.50881956475119
20
  83.74950219864186
30
  2.9999999999999947
40
  2.100000000000018
0
CIRCLE
8
layer0
66
1
10
  -84.50881956475119
20
  245.2495021986419
30
  2.9999999999999947
40
  2.100000000000018
0
CIRCLE
8
layer0
66
1
10
  -134.5088195647512
20
  245.2495021986419
30
  2.9999999999999947
40
  2.100000000000019
0
CIRCLE
8
layer0
66
1
10
  -134.5088195647512
20
  195.24950219864186
30
  2.9999999999999947
40
  2.100000000000018
0
CIRCLE
8
layer0
66
1
10
  -84.50881956475119
20
  195.24950219864186
30
  2.9999999999999947
40
  2.100000000000018
 0
ENDSEC
 0
EOF
