 0
SECTION
 2
HEADER
 9
$MEASUREMENT
 70
 2
 0
ENDSEC
 0
SECTION
 2
ENTITIES
 0
POLYLINE
8
layer0
66
1
70
8
10
  0.0
20
  0.0
30
  0.0
  0
VERTEX
8
layer0
10
  -233.59850219864313
20
  52.97868534383104
30
  -2.9999999999985505
0
VERTEX
8
layer0
10
  6.4014978013566965
20
  52.978685343830904
30
  -2.999999999999549
0
VERTEX
8
layer0
10
  -233.59850219864268
20
  155.97868534383082
30
  -2.9999999999983404
0
VERTEX
8
layer0
10
  -233.59850219864268
20
  155.97868534383082
30
  -2.9999999999983404
0
VERTEX
8
layer0
10
  6.401497801356725
20
  155.97868534383028
30
  -2.99999999999997
 0
SEQEND
 0
SEQEND
 0
CIRCLE
8
layer0
66
1
10
  -1.0985021986431778
20
  60.47868534383173
30
  -2.9999999999999907
40
  1.5999999999999968
 0
CIRCLE
8
layer0
66
1
10
  -1.0985021986431158
20
  82.97868534383176
30
  -2.999999999999729
40
  1.599999999999997
 0
CIRCLE
8
layer0
66
1
10
  -1.0985021986431158
20
  105.47868534383173
30
  -2.999999999999671
40
  1.599999999999997
 0
CIRCLE
8
layer0
66
1
10
  -226.09850219864313
20
  60.47868534383168
30
  -2.999999999999243
40
  1.599999999999997
 0
CIRCLE
8
layer0
66
1
10
  -226.09850219864313
20
  82.97868534383171
30
  -2.999999999999229
40
  1.5999999999999945
 0
CIRCLE
8
layer0
66
1
10
  -226.09850219864313
20
  105.47868534383102
30
  -2.9999999999989675
40
  1.599999999999997
 0
CIRCLE
8
layer0
66
1
10
  -226.09850219864302
20
  145.47868534383102
30
  -2.999999999998894
40
  1.599999999999997
 0
CIRCLE
8
layer0
66
1
10
  -1.0985021986430932
20
  145.47868534383178
30
  -3.0000000000000933
40
  1.599999999999997
 0
CIRCLE
8
layer0
66
1
10
  -203.5985021986432
20
  60.47868534383186
30
  -2.9999999999997753
40
  1.599999999999997
 0
CIRCLE
8
layer0
66
1
10
  -203.5985021986432
20
  105.47868534383187
30
  -2.999999999999455
40
  1.5999999999999974
 0
CIRCLE
8
layer0
66
1
10
  -203.5985021986431
20
  145.47868534383193
30
  -2.9999999999998326
40
  1.599999999999997
 0
CIRCLE
8
layer0
66
1
10
  -113.5985021986431
20
  105.47868534383183
30
  -2.999999999999556
40
  1.599999999999997
 0
CIRCLE
8
layer0
66
1
10
  -113.59850219864335
20
  145.4786853438319
30
  -2.9999999999996856
40
  1.599999999999997
 0
CIRCLE
8
layer0
66
1
10
  -113.59850219864312
20
  60.47868534383182
30
  -2.999999999999583
40
  1.5999999999999974
 0
CIRCLE
8
layer0
66
1
10
  -23.59850219864312
20
  105.47868534383178
30
  -2.999999999999634
40
  1.599999999999997
 0
CIRCLE
8
layer0
66
1
10
  -23.598502198643097
20
  145.47868534383184
30
  -3.000000000000057
40
  1.599999999999995
 0
CIRCLE
8
layer0
66
1
10
  -23.59850219864312
20
  60.47868534383177
30
  -2.999999999999706
40
  1.599999999999997
 0
CIRCLE
8
layer0
66
1
10
  -163.1985021986427
20
  126.92868534383078
30
  -2.999999999998817
40
  1.599999999999997
 0
CIRCLE
8
layer0
66
1
10
  -36.048502198642986
20
  73.72868534383075
30
  -2.9999999999993916
40
  1.599999999999997
 0
CIRCLE
8
layer0
66
1
10
  -163.198502198643
20
  74.62868534383077
30
  -2.9999999999989067
40
  1.599999999999997
 0
CIRCLE
8
layer0
66
1
10
  -222.39850219864314
20
  118.5786853438311
30
  -2.9999999999987934
40
  1.599999999999991
 0
CIRCLE
8
layer0
66
1
10
  -212.99850219864317
20
  118.57868534383137
30
  -2.9999999999988085
40
  1.5999999999999903
 0
CIRCLE
8
layer0
66
1
10
  -203.5985021986432
20
  118.57868534383137
30
  -2.9999999999988463
40
  1.5999999999999968
 0
CIRCLE
8
layer0
66
1
10
  -194.1985021986432
20
  118.57868534383137
30
  -2.999999999998862
40
  1.5999999999999968
 0
CIRCLE
8
layer0
66
1
10
  -184.79850219864323
20
  118.57868534383101
30
  -2.999999999999057
40
  1.5999999999999968
 0
CIRCLE
8
layer0
66
1
10
  -175.39850219864326
20
  118.57868534383101
30
  -2.9999999999989146
40
  1.5999999999999968
 0
POLYLINE
8
layer0
66
1
70
8
10
  0.0
20
  0.0
30
  0.0
  0
VERTEX
8
layer0
10
  -233.59850219864313
20
  52.97868534383102
30
  7.672684345990503e-13
0
VERTEX
8
layer0
10
  -233.59850219864268
20
  155.9786853438308
30
  1.067847440728504e-12
0
VERTEX
8
layer0
10
  6.401497801356706
20
  52.97868534383088
30
  4.0080601863077513e-13
0
VERTEX
8
layer0
10
  6.401497801356757
20
  155.97868534383025
30
  9.227226452988027e-14
0
VERTEX
8
layer0
10
  -233.59850219864268
20
  155.9786853438308
30
  1.067847440728504e-12
 0
SEQEND
 0
SEQEND
 0
CIRCLE
8
layer0
66
1
10
  -226.09850219864313
20
  60.47868534383171
30
  7.520292897016168e-13
40
  1.599999999999997
 0
CIRCLE
8
layer0
66
1
10
  -226.09850219864313
20
  105.47868534383107
30
  1.0268125872198302e-12
40
  1.599999999999997
 0
CIRCLE
8
layer0
66
1
10
  -226.09850219864313
20
  82.97868534383173
30
  7.65342413228619e-13
40
  1.5999999999999939
 0
CIRCLE
8
layer0
66
1
10
  -1.0985021986431052
20
  60.47868534383175
30
  3.805584485736876e-15
40
  1.599999999999997
 0
CIRCLE
8
layer0
66
1
10
  -1.0985021986431052
20
  82.97868534383177
30
  2.652757584769539e-13
40
  1.599999999999997
 0
CIRCLE
8
layer0
66
1
10
  -1.0985021986431052
20
  105.47868534383176
30
  3.2370834572472195e-13
40
  1.599999999999997
 0
CIRCLE
8
layer0
66
1
10
  -1.0985021986430883
20
  145.4786853438318
30
  -9.88052425770748e-14
40
  1.599999999999997
 0
CIRCLE
8
layer0
66
1
10
  -23.598502198643114
20
  60.47868534383179
30
  2.8843346130888894e-13
40
  1.599999999999997
 0
CIRCLE
8
layer0
66
1
10
  -23.598502198643114
20
  105.4786853438318
30
  3.6017917208365905e-13
40
  1.599999999999997
 0
CIRCLE
8
layer0
66
1
10
  -23.598502198643093
20
  145.47868534383187
30
  -6.233441621813787e-14
40
  1.5999999999999974
 0
CIRCLE
8
layer0
66
1
10
  -113.5985021986431
20
  105.47868534383184
30
  4.3838328193825635e-13
40
  1.599999999999997
 0
CIRCLE
8
layer0
66
1
10
  -113.59850219864312
20
  60.47868534383184
30
  4.1175703488425266e-13
40
  1.599999999999997
 0
CIRCLE
8
layer0
66
1
10
  -113.5985021986431
20
  145.4786853438319
30
  3.091462078214408e-13
40
  1.599999999999997
 0
CIRCLE
8
layer0
66
1
10
  -203.5985021986432
20
  105.4786853438319
30
  5.39147123653237e-13
40
  1.599999999999997
 0
CIRCLE
8
layer0
66
1
10
  -203.5985021986432
20
  60.478685343831884
30
  2.19244362414252e-13
40
  1.599999999999997
 0
CIRCLE
8
layer0
66
1
10
  -226.09850219864302
20
  145.4786853438311
30
  1.100613099846463e-12
40
  1.599999999999997
 0
CIRCLE
8
layer0
66
1
10
  -203.5985021986431
20
  145.47868534383196
30
  1.617529990722066e-13
40
  1.599999999999997
 0
CIRCLE
8
layer0
66
1
10
  -163.1985021986427
20
  126.92868534383076
30
  1.1772829609751466e-12
40
  1.599999999999997
 0
CIRCLE
8
layer0
66
1
10
  -163.19850219864296
20
  74.62868534383074
30
  1.0877823075925434e-12
40
  1.599999999999997
 0
CIRCLE
8
layer0
66
1
10
  -36.04850219864296
20
  73.72868534383072
30
  6.032131940631516e-13
40
  1.599999999999997
 0
CIRCLE
8
layer0
66
1
10
  -222.39850219864314
20
  118.57868534383108
30
  1.2013237721184827e-12
40
  1.599999999999991
 0
CIRCLE
8
layer0
66
1
10
  -212.99850219864317
20
  118.5786853438314
30
  1.1860870713285297e-12
40
  1.5999999999999908
 0
CIRCLE
8
layer0
66
1
10
  -203.5985021986432
20
  118.5786853438314
30
  1.1482906386781909e-12
40
  1.5999999999999968
 0
CIRCLE
8
layer0
66
1
10
  -194.1985021986432
20
  118.5786853438314
30
  1.1330539378882352e-12
40
  1.5999999999999968
 0
CIRCLE
8
layer0
66
1
10
  -184.79850219864323
20
  118.57868534383104
30
  9.373393822152109e-13
40
  1.5999999999999968
 0
CIRCLE
8
layer0
66
1
10
  -175.39850219864326
20
  118.57868534383104
30
  1.0800208044479373e-12
40
  1.5999999999999968
 0
ENDSEC
 0
EOF
