0
SECTION
2
HEADER
9
MEASUREMENT
70
2
0
ENDSEC
0
SECTION
2
ENTITIES
0
POLYLINE
8
layer0
66
1
70
8
10
  0.0
20
  0.0
30
  0.0
  0
VERTEX
8
layer0
10
  -5.301536987189994e-13
20
  239.99999999999943
30
  2.0303758674344865e-13
0
VERTEX
8
layer0
10
  -90.0000000000012
20
  239.99999999999923
30
  2.0303758674344865e-13
0
VERTEX
8
layer0
10
  -5.301536987189994e-13
20
  239.99999999999943
30
  2.0303758674344865e-13
0
VERTEX
8
layer0
10
  1.127986593019159e-14
20
  2.5447075080619205e-29
30
  0.0
0
VERTEX
8
layer0
10
  -90.00000000000065
20
  -1.9175772081325664e-13
30
  4.0607517348689725e-13
  0
SEQEND
  0
SEQEND
0
CIRCLE
8
layer0
66
1
10
  -82.50000000000065
20
  7.499999999999248
30
  3.997302489011649e-13
40
  1.5999999999999963
0
ARC
8
layer0
66
1
10
  -22.500000000001155
20
  224.99999999999937
30
  1.2548850847338151e-13
40
  2.999999999999992
50
  90.00000000000013
51
  269.9766637957235
0
POLYLINE
8
layer0
66
1
70
8
10
  0.0
20
  0.0
30
  0.0
  0
VERTEX
8
layer0
10
  -22.50000000000116
20
  227.99999999999932
30
  1.2295053863908844e-13
0
VERTEX
8
layer0
10
  -39.000000000001144
20
  227.99999999999926
30
  1.680700023598548e-13
  0
SEQEND
0
ARC
8
layer0
66
1
10
  -39.00000000000114
20
  224.99999999999932
30
  1.7060797219414789e-13
40
  2.999999999999992
50
  -89.97666379572323
51
  90.00000000000013
0
POLYLINE
8
layer0
66
1
70
8
10
  0.0
20
  0.0
30
  0.0
  0
VERTEX
8
layer0
10
  -39.00000000000113
20
  221.9999999999993
30
  1.73145942028441e-13
0
VERTEX
8
layer0
10
  -22.500000000001148
20
  221.99999999999932
30
  1.2802647830767464e-13
  0
SEQEND
0
ARC
8
layer0
66
1
10
  -22.500000000001155
20
  224.99999999999937
30
  1.2548850847338151e-13
40
  2.999999999999992
50
  90.00000000000013
51
  269.9766637957235
0
POLYLINE
8
layer0
66
1
70
8
10
  0.0
20
  0.0
30
  0.0
  0
VERTEX
8
layer0
10
  -22.500000000001076
20
  190.49999999999935
30
  1.5467516156775232e-13
0
VERTEX
8
layer0
10
  -39.00000000000106
20
  190.49999999999932
30
  1.997946252885187e-13
  0
SEQEND
0
ARC
8
layer0
66
1
10
  -39.00000000000105
20
  187.49999999999926
30
  1.5721313140204546e-13
40
  2.999999999999991
50
  -89.97666379572323
51
  90.00000000000013
0
POLYLINE
8
layer0
66
1
70
8
10
  0.0
20
  0.0
30
  0.0
  0
VERTEX
8
layer0
10
  -39.000000000001044
20
  184.49999999999932
30
  1.5975110123633854e-13
0
VERTEX
8
layer0
10
  -22.500000000001066
20
  184.49999999999937
30
  1.5975110123633854e-13
  0
SEQEND
0
ARC
8
layer0
66
1
10
  -22.50000000000107
20
  187.49999999999932
30
  1.5721313140204546e-13
40
  2.999999999999991
50
  90.00000000000013
51
  269.9766637957235
0
ARC
8
layer0
66
1
10
  -67.5000000000011
20
  199.99999999999926
30
  2.368771845340235e-13
40
  2.999999999999991
50
  -89.97666379572323
51
  90.00000000000013
0
POLYLINE
8
layer0
66
1
70
8
10
  0.0
20
  0.0
30
  0.0
  0
VERTEX
8
layer0
10
  -67.50000000000108
20
  196.9999999999992
30
  2.3941515436831666e-13
0
VERTEX
8
layer0
10
  -51.000000000001094
20
  196.99999999999926
30
  1.9429569064755032e-13
  0
SEQEND
0
ARC
8
layer0
66
1
10
  -51.0000000000011
20
  199.9999999999993
30
  1.9175772081325714e-13
40
  2.9999999999999907
50
  90.00000000000013
51
  269.9766637957235
0
POLYLINE
8
layer0
66
1
70
8
10
  0.0
20
  0.0
30
  0.0
  0
VERTEX
8
layer0
10
  -67.50000000000111
20
  202.9999999999992
30
  2.343392146997304e-13
0
VERTEX
8
layer0
10
  -51.000000000001116
20
  202.99999999999923
30
  1.8921975097896407e-13
  0
SEQEND
0
ARC
8
layer0
66
1
10
  -67.5000000000011
20
  199.99999999999926
30
  2.368771845340235e-13
40
  2.999999999999991
50
  -89.97666379572323
51
  90.00000000000013
0
ARC
8
layer0
66
1
10
  -51.000000000001044
20
  174.9999999999993
30
  2.1290746943236643e-13
40
  2.9999999999999907
50
  90.00000000000013
51
  269.9766637957235
0
POLYLINE
8
layer0
66
1
70
8
10
  0.0
20
  0.0
30
  0.0
  0
VERTEX
8
layer0
10
  -67.50000000000105
20
  177.9999999999992
30
  2.5548896331883975e-13
0
VERTEX
8
layer0
10
  -51.00000000000106
20
  177.99999999999923
30
  2.1036949959807338e-13
  0
SEQEND
0
ARC
8
layer0
66
1
10
  -67.50000000000104
20
  174.99999999999926
30
  2.5802693315313277e-13
40
  2.999999999999991
50
  -89.97666379572323
51
  90.00000000000013
0
POLYLINE
8
layer0
66
1
70
8
10
  0.0
20
  0.0
30
  0.0
  0
VERTEX
8
layer0
10
  -67.50000000000102
20
  171.9999999999992
30
  2.605649029874259e-13
0
VERTEX
8
layer0
10
  -51.00000000000104
20
  171.99999999999926
30
  2.1544543926665955e-13
  0
SEQEND
0
ARC
8
layer0
66
1
10
  -51.000000000001044
20
  174.9999999999993
30
  2.1290746943236643e-13
40
  2.9999999999999907
50
  90.00000000000013
51
  269.9766637957235
0
POLYLINE
8
layer0
66
1
70
8
10
  0.0
20
  0.0
30
  0.0
  0
VERTEX
8
layer0
10
  -22.500000000001048
20
  177.99999999999932
30
  1.6525003587730698e-13
0
VERTEX
8
layer0
10
  -39.00000000000103
20
  177.99999999999926
30
  2.1036949959807338e-13
  0
SEQEND
0
ARC
8
layer0
66
1
10
  -39.00000000000102
20
  174.99999999999932
30
  1.6778800571160005e-13
40
  2.999999999999991
50
  -89.97666379572323
51
  90.00000000000013
0
POLYLINE
8
layer0
66
1
70
8
10
  0.0
20
  0.0
30
  0.0
  0
VERTEX
8
layer0
10
  -39.000000000001016
20
  171.9999999999993
30
  1.703259755458932e-13
0
VERTEX
8
layer0
10
  -22.500000000001037
20
  171.99999999999932
30
  1.703259755458932e-13
  0
SEQEND
0
ARC
8
layer0
66
1
10
  -22.50000000000104
20
  174.99999999999937
30
  1.6778800571160005e-13
40
  2.999999999999991
50
  90.00000000000013
51
  269.9766637957235
0
ARC
8
layer0
66
1
10
  -22.500000000001013
20
  162.49999999999932
30
  1.7836288002115475e-13
40
  2.999999999999991
50
  90.00000000000013
51
  269.9766637957235
0
POLYLINE
8
layer0
66
1
70
8
10
  0.0
20
  0.0
30
  0.0
  0
VERTEX
8
layer0
10
  -22.50000000000102
20
  165.49999999999935
30
  1.758249101868616e-13
0
VERTEX
8
layer0
10
  -39.000000000001
20
  165.49999999999932
30
  2.2094437390762795e-13
  0
SEQEND
0
ARC
8
layer0
66
1
10
  -39.000000000000995
20
  162.49999999999926
30
  1.7836288002115475e-13
40
  2.999999999999991
50
  -89.97666379572323
51
  90.00000000000013
0
POLYLINE
8
layer0
66
1
70
8
10
  0.0
20
  0.0
30
  0.0
  0
VERTEX
8
layer0
10
  -39.00000000000099
20
  159.49999999999932
30
  1.809008498554478e-13
0
VERTEX
8
layer0
10
  -22.50000000000101
20
  159.49999999999937
30
  1.809008498554478e-13
  0
SEQEND
0
ARC
8
layer0
66
1
10
  -22.500000000001013
20
  162.49999999999932
30
  1.7836288002115475e-13
40
  2.999999999999991
50
  90.00000000000013
51
  269.9766637957235
0
ARC
8
layer0
66
1
10
  -51.00000000000101
20
  162.49999999999926
30
  2.2348234374192112e-13
40
  2.9999999999999907
50
  90.00000000000013
51
  269.9766637957235
0
POLYLINE
8
layer0
66
1
70
8
10
  0.0
20
  0.0
30
  0.0
  0
VERTEX
8
layer0
10
  -67.50000000000101
20
  165.49999999999923
30
  2.660638376283943e-13
0
VERTEX
8
layer0
10
  -51.00000000000102
20
  165.4999999999993
30
  2.2094437390762795e-13
  0
SEQEND
0
ARC
8
layer0
66
1
10
  -67.50000000000101
20
  162.4999999999992
30
  2.686018074626875e-13
40
  2.999999999999991
50
  -89.97666379572323
51
  90.00000000000013
0
POLYLINE
8
layer0
66
1
70
8
10
  0.0
20
  0.0
30
  0.0
  0
VERTEX
8
layer0
10
  -67.50000000000101
20
  159.49999999999926
30
  2.711397772969805e-13
0
VERTEX
8
layer0
10
  -51.00000000000101
20
  159.4999999999993
30
  2.2602031357621416e-13
  0
SEQEND
0
ARC
8
layer0
66
1
10
  -51.00000000000101
20
  162.49999999999926
30
  2.2348234374192112e-13
40
  2.9999999999999907
50
  90.00000000000013
51
  269.9766637957235
0
CIRCLE
8
layer0
66
1
10
  -7.500000000000911
20
  119.9999999999994
30
  1.2407852523210774e-13
40
  1.5999999999999963
0
CIRCLE
8
layer0
66
1
10
  -82.50000000000091
20
  119.99999999999923
30
  3.0455638011517317e-13
40
  1.5999999999999963
0
ARC
8
layer0
66
1
10
  -51.000000000001066
20
  187.49999999999926
30
  2.023325951228118e-13
40
  2.9999999999999907
50
  90.00000000000013
51
  269.9766637957235
0
POLYLINE
8
layer0
66
1
70
8
10
  0.0
20
  0.0
30
  0.0
  0
VERTEX
8
layer0
10
  -67.50000000000107
20
  190.49999999999923
30
  2.4491408900928503e-13
0
VERTEX
8
layer0
10
  -51.00000000000108
20
  190.4999999999993
30
  1.997946252885187e-13
  0
SEQEND
0
ARC
8
layer0
66
1
10
  -67.50000000000107
20
  187.4999999999992
30
  2.4745205884357816e-13
40
  2.999999999999991
50
  -89.97666379572323
51
  90.00000000000013
0
POLYLINE
8
layer0
66
1
70
8
10
  0.0
20
  0.0
30
  0.0
  0
VERTEX
8
layer0
10
  -67.50000000000107
20
  184.49999999999926
30
  2.4999002867787123e-13
0
VERTEX
8
layer0
10
  -51.000000000001066
20
  184.4999999999993
30
  2.0487056495710488e-13
  0
SEQEND
0
ARC
8
layer0
66
1
10
  -51.000000000001066
20
  187.49999999999926
30
  2.023325951228118e-13
40
  2.9999999999999907
50
  90.00000000000013
51
  269.9766637957235
0
ARC
8
layer0
66
1
10
  -22.500000000001098
20
  199.99999999999937
30
  1.466382570924908e-13
40
  2.999999999999991
50
  90.00000000000013
51
  269.9766637957235
0
POLYLINE
8
layer0
66
1
70
8
10
  0.0
20
  0.0
30
  0.0
  0
VERTEX
8
layer0
10
  -22.500000000001105
20
  202.99999999999932
30
  1.441002872581977e-13
0
VERTEX
8
layer0
10
  -39.00000000000109
20
  202.99999999999926
30
  1.8921975097896407e-13
  0
SEQEND
0
ARC
8
layer0
66
1
10
  -39.00000000000108
20
  199.99999999999932
30
  1.466382570924908e-13
40
  2.999999999999991
50
  -89.97666379572323
51
  90.00000000000013
0
POLYLINE
8
layer0
66
1
70
8
10
  0.0
20
  0.0
30
  0.0
  0
VERTEX
8
layer0
10
  -39.00000000000107
20
  196.9999999999993
30
  1.4917622692678394e-13
0
VERTEX
8
layer0
10
  -22.50000000000109
20
  196.99999999999932
30
  1.4917622692678394e-13
  0
SEQEND
0
ARC
8
layer0
66
1
10
  -22.500000000001098
20
  199.99999999999937
30
  1.466382570924908e-13
40
  2.999999999999991
50
  90.00000000000013
51
  269.9766637957235
0
ARC
8
layer0
66
1
10
  -67.50000000000112
20
  212.49999999999923
30
  2.263023102244689e-13
40
  2.999999999999991
50
  -89.97666379572323
51
  90.00000000000013
0
POLYLINE
8
layer0
66
1
70
8
10
  0.0
20
  0.0
30
  0.0
  0
VERTEX
8
layer0
10
  -67.50000000000112
20
  209.4999999999993
30
  2.28840280058762e-13
0
VERTEX
8
layer0
10
  -51.00000000000112
20
  209.4999999999993
30
  1.8372081633799562e-13
  0
SEQEND
0
ARC
8
layer0
66
1
10
  -51.00000000000112
20
  212.49999999999923
30
  1.8118284650370253e-13
40
  2.9999999999999907
50
  90.00000000000013
51
  269.9766637957235
0
POLYLINE
8
layer0
66
1
70
8
10
  0.0
20
  0.0
30
  0.0
  0
VERTEX
8
layer0
10
  -67.50000000000112
20
  215.49999999999926
30
  2.2376434039017578e-13
0
VERTEX
8
layer0
10
  -51.00000000000114
20
  215.49999999999926
30
  1.786448766694094e-13
  0
SEQEND
0
ARC
8
layer0
66
1
10
  -67.50000000000112
20
  212.49999999999923
30
  2.263023102244689e-13
40
  2.999999999999991
50
  -89.97666379572323
51
  90.00000000000013
0
ARC
8
layer0
66
1
10
  -22.500000000001126
20
  212.49999999999932
30
  1.3606338278293618e-13
40
  2.999999999999991
50
  90.00000000000013
51
  269.9766637957235
0
POLYLINE
8
layer0
66
1
70
8
10
  0.0
20
  0.0
30
  0.0
  0
VERTEX
8
layer0
10
  -22.500000000001133
20
  215.49999999999935
30
  1.3352541294864306e-13
0
VERTEX
8
layer0
10
  -39.000000000001116
20
  215.49999999999932
30
  1.786448766694094e-13
  0
SEQEND
0
ARC
8
layer0
66
1
10
  -39.00000000000111
20
  212.49999999999926
30
  1.3606338278293618e-13
40
  2.999999999999991
50
  -89.97666379572323
51
  90.00000000000013
0
POLYLINE
8
layer0
66
1
70
8
10
  0.0
20
  0.0
30
  0.0
  0
VERTEX
8
layer0
10
  -39.0000000000011
20
  209.49999999999932
30
  1.3860135261722925e-13
0
VERTEX
8
layer0
10
  -22.50000000000112
20
  209.49999999999937
30
  1.3860135261722925e-13
  0
SEQEND
0
ARC
8
layer0
66
1
10
  -22.500000000001126
20
  212.49999999999932
30
  1.3606338278293618e-13
40
  2.999999999999991
50
  90.00000000000013
51
  269.9766637957235
0
ARC
8
layer0
66
1
10
  -51.00000000000116
20
  224.99999999999926
30
  1.7060797219414789e-13
40
  2.999999999999991
50
  90.00000000000013
51
  269.9766637957235
0
POLYLINE
8
layer0
66
1
70
8
10
  0.0
20
  0.0
30
  0.0
  0
VERTEX
8
layer0
10
  -67.50000000000117
20
  227.99999999999923
30
  2.1318946608062116e-13
0
VERTEX
8
layer0
10
  -51.00000000000117
20
  227.99999999999923
30
  1.680700023598548e-13
  0
SEQEND
0
ARC
8
layer0
66
1
10
  -67.50000000000115
20
  224.99999999999926
30
  2.1572743591491423e-13
40
  2.999999999999992
50
  -89.97666379572323
51
  90.00000000000013
0
POLYLINE
8
layer0
66
1
70
8
10
  0.0
20
  0.0
30
  0.0
  0
VERTEX
8
layer0
10
  -67.50000000000114
20
  221.99999999999923
30
  2.1826540574920735e-13
0
VERTEX
8
layer0
10
  -51.000000000001144
20
  221.99999999999923
30
  1.73145942028441e-13
  0
SEQEND
0
ARC
8
layer0
66
1
10
  -51.00000000000116
20
  224.99999999999926
30
  1.7060797219414789e-13
40
  2.999999999999991
50
  90.00000000000013
51
  269.9766637957235
0
CIRCLE
8
layer0
66
1
10
  -7.500000000001165
20
  232.4999999999994
30
  2.890465644611599e-14
40
  1.5999999999999963
0
CIRCLE
8
layer0
66
1
10
  -82.50000000000115
20
  232.49999999999923
30
  2.0938251132918143e-13
40
  1.5999999999999963
0
CIRCLE
8
layer0
66
1
10
  -7.500000000000657
20
  7.4999999999994165
30
  2.192523940180995e-13
40
  1.5999999999999963
0
ARC
8
layer0
66
1
10
  -51.00000000000011
20
  52.49999999999997
30
  4.0678016510753406e-13
40
  2.999999999999985
50
  90.00000000000013
51
  269.9766637957235
0
POLYLINE
8
layer0
66
1
70
8
10
  0.0
20
  0.0
30
  0.0
  0
VERTEX
8
layer0
10
  -51.00000000000012
20
  55.499999999999964
30
  4.0424219527324094e-13
0
VERTEX
8
layer0
10
  -67.50000000000011
20
  55.49999999999993
30
  4.944811227147737e-13
  0
SEQEND
0
ARC
8
layer0
66
1
10
  -67.5000000000001
20
  52.499999999999936
30
  4.970190925490668e-13
40
  2.999999999999985
50
  -89.97666379572323
51
  90.00000000000013
0
POLYLINE
8
layer0
66
1
70
8
10
  0.0
20
  0.0
30
  0.0
  0
VERTEX
8
layer0
10
  -67.5000000000001
20
  49.499999999999936
30
  4.995570623833599e-13
0
VERTEX
8
layer0
10
  -51.00000000000011
20
  49.49999999999998
30
  4.5443759866259355e-13
  0
SEQEND
0
ARC
8
layer0
66
1
10
  -51.00000000000011
20
  52.49999999999997
30
  4.0678016510753406e-13
40
  2.999999999999985
50
  90.00000000000013
51
  269.9766637957235
0
ARC
8
layer0
66
1
10
  -39.00000000000009
20
  52.49999999999999
30
  3.616607013867677e-13
40
  2.9999999999999845
50
  -89.97666379572323
51
  90.00000000000013
0
POLYLINE
8
layer0
66
1
70
8
10
  0.0
20
  0.0
30
  0.0
  0
VERTEX
8
layer0
10
  -22.500000000000092
20
  49.500000000000036
30
  3.641986712210608e-13
0
VERTEX
8
layer0
10
  -39.000000000000085
20
  49.5
30
  3.641986712210608e-13
  0
SEQEND
0
ARC
8
layer0
66
1
10
  -22.5000000000001
20
  52.500000000000064
30
  3.616607013867677e-13
40
  2.999999999999985
50
  90.00000000000013
51
  269.9766637957235
0
POLYLINE
8
layer0
66
1
70
8
10
  0.0
20
  0.0
30
  0.0
  0
VERTEX
8
layer0
10
  -22.500000000000107
20
  55.50000000000006
30
  3.5912273155247457e-13
0
VERTEX
8
layer0
10
  -39.0000000000001
20
  55.499999999999986
30
  4.0424219527324094e-13
  0
SEQEND
0
ARC
8
layer0
66
1
10
  -39.00000000000009
20
  52.49999999999999
30
  3.616607013867677e-13
40
  2.9999999999999845
50
  -89.97666379572323
51
  90.00000000000013
0
ARC
8
layer0
66
1
10
  -39.00000000000001
20
  14.999999999999998
30
  3.9338532431543164e-13
40
  2.999999999999986
50
  -89.97666379572323
51
  90.00000000000013
0
POLYLINE
8
layer0
66
1
70
8
10
  0.0
20
  0.0
30
  0.0
  0
VERTEX
8
layer0
10
  -22.50000000000001
20
  12.00000000000004
30
  3.5080383042895834e-13
0
VERTEX
8
layer0
10
  -39.0
20
  12.000000000000004
30
  3.9592329414972476e-13
  0
SEQEND
0
ARC
8
layer0
66
1
10
  -22.500000000000014
20
  15.000000000000034
30
  3.4826586059466526e-13
40
  2.9999999999999862
50
  90.00000000000013
51
  269.9766637957235
0
POLYLINE
8
layer0
66
1
70
8
10
  0.0
20
  0.0
30
  0.0
  0
VERTEX
8
layer0
10
  -22.50000000000002
20
  18.00000000000003
30
  3.4572789076037214e-13
0
VERTEX
8
layer0
10
  -39.000000000000014
20
  17.999999999999993
30
  3.908473544811385e-13
  0
SEQEND
0
ARC
8
layer0
66
1
10
  -39.00000000000001
20
  14.999999999999998
30
  3.9338532431543164e-13
40
  2.999999999999986
50
  -89.97666379572323
51
  90.00000000000013
0
POLYLINE
8
layer0
66
1
70
8
10
  0.0
20
  0.0
30
  0.0
  0
VERTEX
8
layer0
10
  -51.00000000000004
20
  17.999999999999964
30
  4.3596681820190484e-13
0
VERTEX
8
layer0
10
  -67.50000000000003
20
  17.99999999999993
30
  4.810862819226712e-13
  0
SEQEND
0
ARC
8
layer0
66
1
10
  -67.5
20
  14.999999999999932
30
  4.836242517569644e-13
40
  2.999999999999981
50
  269.9766637957231
51
  449.95332759144554
0
POLYLINE
8
layer0
66
1
70
8
10
  0.0
20
  0.0
30
  0.0
  0
VERTEX
8
layer0
10
  -67.50000000000001
20
  11.999999999999938
30
  4.861622215912575e-13
0
VERTEX
8
layer0
10
  -51.00000000000002
20
  11.999999999999975
30
  4.410427578704911e-13
  0
SEQEND
0
ARC
8
layer0
66
1
10
  -51.00000000000003
20
  14.99999999999997
30
  4.3850478803619796e-13
40
  2.999999999999981
50
  90.00000000000013
51
  269.9766637957235
0
POLYLINE
8
layer0
66
1
70
8
10
  0.0
20
  0.0
30
  0.0
  0
VERTEX
8
layer0
10
  -51.000000000000064
20
  30.499999999999968
30
  4.253919438923502e-13
0
VERTEX
8
layer0
10
  -67.50000000000006
20
  30.49999999999993
30
  4.705114076131166e-13
  0
SEQEND
0
ARC
8
layer0
66
1
10
  -67.50000000000004
20
  27.499999999999932
30
  4.730493774474097e-13
40
  2.9999999999999822
50
  -89.97666379572323
51
  90.00000000000013
0
POLYLINE
8
layer0
66
1
70
8
10
  0.0
20
  0.0
30
  0.0
  0
VERTEX
8
layer0
10
  -67.50000000000004
20
  24.49999999999994
30
  4.755873472817027e-13
0
VERTEX
8
layer0
10
  -51.00000000000005
20
  24.499999999999975
30
  4.304678835609364e-13
  0
SEQEND
0
ARC
8
layer0
66
1
10
  -51.00000000000005
20
  27.49999999999997
30
  3.828104500058769e-13
40
  2.9999999999999862
50
  90.00000000000013
51
  269.9766637957235
0
ARC
8
layer0
66
1
10
  -39.00000000000004
20
  40.00000000000001
30
  3.722355756963223e-13
40
  2.999999999999985
50
  269.9766637957231
51
  449.95332759144554
0
POLYLINE
8
layer0
66
1
70
8
10
  0.0
20
  0.0
30
  0.0
  0
VERTEX
8
layer0
10
  -22.500000000000068
20
  37.00000000000004
30
  3.747735455306154e-13
0
VERTEX
8
layer0
10
  -39.00000000000006
20
  37.0
30
  3.747735455306154e-13
  0
SEQEND
0
ARC
8
layer0
66
1
10
  -22.50000000000006
20
  40.00000000000004
30
  3.722355756963223e-13
40
  2.999999999999986
50
  90.00000000000034
51
  269.97666379572416
0
POLYLINE
8
layer0
66
1
70
8
10
  0.0
20
  0.0
30
  0.0
  0
VERTEX
8
layer0
10
  -22.500000000000078
20
  43.00000000000005
30
  3.696976058620292e-13
0
VERTEX
8
layer0
10
  -39.00000000000007
20
  42.999999999999986
30
  4.1481706958279555e-13
  0
SEQEND
0
ARC
8
layer0
66
1
10
  -39.00000000000004
20
  40.00000000000001
30
  3.722355756963223e-13
40
  2.999999999999985
50
  269.9766637957231
51
  449.95332759144554
0
ARC
8
layer0
66
1
10
  -51.000000000000085
20
  39.99999999999996
30
  4.173550394170887e-13
40
  2.999999999999986
50
  90.00000000000013
51
  269.9766637957235
0
POLYLINE
8
layer0
66
1
70
8
10
  0.0
20
  0.0
30
  0.0
  0
VERTEX
8
layer0
10
  -51.0000000000001
20
  42.999999999999964
30
  4.1481706958279555e-13
0
VERTEX
8
layer0
10
  -67.50000000000009
20
  42.99999999999993
30
  5.050559970243283e-13
  0
SEQEND
0
ARC
8
layer0
66
1
10
  -67.50000000000009
20
  39.99999999999992
30
  5.075939668586214e-13
40
  2.999999999999986
50
  -89.97666379572323
51
  90.00000000000013
0
POLYLINE
8
layer0
66
1
70
8
10
  0.0
20
  0.0
30
  0.0
  0
VERTEX
8
layer0
10
  -67.50000000000007
20
  36.999999999999936
30
  5.101319366929145e-13
0
VERTEX
8
layer0
10
  -51.00000000000008
20
  36.99999999999998
30
  4.650124729721481e-13
  0
SEQEND
0
ARC
8
layer0
66
1
10
  -51.000000000000085
20
  39.99999999999996
30
  4.173550394170887e-13
40
  2.999999999999986
50
  90.00000000000013
51
  269.9766637957235
0
ARC
8
layer0
66
1
10
  -39.000000000000014
20
  27.499999999999996
30
  3.828104500058769e-13
40
  2.999999999999985
50
  269.9766637957231
51
  449.95332759144554
0
POLYLINE
8
layer0
66
1
70
8
10
  0.0
20
  0.0
30
  0.0
  0
VERTEX
8
layer0
10
  -22.50000000000004
20
  24.50000000000004
30
  3.4022895611940367e-13
0
VERTEX
8
layer0
10
  -39.00000000000003
20
  24.500000000000004
30
  3.8534841984017004e-13
  0
SEQEND
0
ARC
8
layer0
66
1
10
  -22.500000000000032
20
  27.500000000000036
30
  3.376909862851106e-13
40
  2.999999999999978
50
  90.00000000000034
51
  269.97666379572416
0
POLYLINE
8
layer0
66
1
70
8
10
  0.0
20
  0.0
30
  0.0
  0
VERTEX
8
layer0
10
  -22.50000000000005
20
  30.50000000000003
30
  3.351530164508175e-13
0
VERTEX
8
layer0
10
  -39.00000000000004
20
  30.49999999999999
30
  3.802724801715839e-13
  0
SEQEND
0
ARC
8
layer0
66
1
10
  -39.000000000000014
20
  27.499999999999996
30
  3.828104500058769e-13
40
  2.999999999999985
50
  269.9766637957231
51
  449.95332759144554
0
ARC
8
layer0
66
1
10
  -22.500000000000156
20
  77.50000000000006
30
  3.4051095276765835e-13
40
  2.999999999999976
50
  90.00000000000013
51
  269.9766637957235
0
POLYLINE
8
layer0
66
1
70
8
10
  0.0
20
  0.0
30
  0.0
  0
VERTEX
8
layer0
10
  -22.500000000000163
20
  80.50000000000004
30
  3.379729829333653e-13
0
VERTEX
8
layer0
10
  -39.000000000000156
20
  80.49999999999997
30
  3.830924466541316e-13
  0
SEQEND
0
ARC
8
layer0
66
1
10
  -39.00000000000015
20
  77.49999999999999
30
  3.405109527676584e-13
40
  2.999999999999976
50
  -89.97666379572323
51
  90.00000000000013
0
POLYLINE
8
layer0
66
1
70
8
10
  0.0
20
  0.0
30
  0.0
  0
VERTEX
8
layer0
10
  -22.50000000000015
20
  74.50000000000003
30
  3.430489226019515e-13
0
VERTEX
8
layer0
10
  -39.00000000000014
20
  74.49999999999999
30
  3.430489226019515e-13
  0
SEQEND
0
ARC
8
layer0
66
1
10
  -22.500000000000156
20
  77.50000000000006
30
  3.4051095276765835e-13
40
  2.999999999999976
50
  90.00000000000013
51
  269.9766637957235
0
ARC
8
layer0
66
1
10
  -51.00000000000016
20
  77.49999999999996
30
  3.8563041648842473e-13
40
  2.999999999999978
50
  90.00000000000013
51
  269.9766637957235
0
POLYLINE
8
layer0
66
1
70
8
10
  0.0
20
  0.0
30
  0.0
  0
VERTEX
8
layer0
10
  -51.00000000000018
20
  80.49999999999996
30
  3.830924466541316e-13
0
VERTEX
8
layer0
10
  -67.50000000000017
20
  80.49999999999991
30
  4.733313740956643e-13
  0
SEQEND
0
ARC
8
layer0
66
1
10
  -67.50000000000016
20
  77.49999999999993
30
  4.758693439299574e-13
40
  2.999999999999976
50
  -89.97666379572323
51
  90.00000000000013
0
POLYLINE
8
layer0
66
1
70
8
10
  0.0
20
  0.0
30
  0.0
  0
VERTEX
8
layer0
10
  -67.50000000000016
20
  74.49999999999993
30
  4.784073137642506e-13
0
VERTEX
8
layer0
10
  -51.00000000000016
20
  74.49999999999997
30
  4.332878500434842e-13
  0
SEQEND
0
ARC
8
layer0
66
1
10
  -51.00000000000016
20
  77.49999999999996
30
  3.8563041648842473e-13
40
  2.999999999999978
50
  90.00000000000013
51
  269.9766637957235
0
ARC
8
layer0
66
1
10
  -51.00000000000014
20
  64.99999999999996
30
  3.9620529079797944e-13
40
  2.9999999999999765
50
  90.00000000000013
51
  269.9766637957235
0
POLYLINE
8
layer0
66
1
70
8
10
  0.0
20
  0.0
30
  0.0
  0
VERTEX
8
layer0
10
  -51.000000000000156
20
  67.99999999999996
30
  3.936673209636863e-13
0
VERTEX
8
layer0
10
  -67.50000000000014
20
  67.99999999999991
30
  4.839062484052191e-13
  0
SEQEND
0
ARC
8
layer0
66
1
10
  -67.50000000000014
20
  64.99999999999993
30
  4.864442182395121e-13
40
  2.9999999999999782
50
  -89.97666379572323
51
  90.00000000000013
0
POLYLINE
8
layer0
66
1
70
8
10
  0.0
20
  0.0
30
  0.0
  0
VERTEX
8
layer0
10
  -67.50000000000013
20
  61.99999999999993
30
  4.889821880738052e-13
0
VERTEX
8
layer0
10
  -51.000000000000135
20
  61.999999999999964
30
  4.4386272435303884e-13
  0
SEQEND
0
ARC
8
layer0
66
1
10
  -51.00000000000014
20
  64.99999999999996
30
  3.9620529079797944e-13
40
  2.9999999999999765
50
  90.00000000000013
51
  269.9766637957235
0
ARC
8
layer0
66
1
10
  -39.00000000000012
20
  64.99999999999999
30
  3.51085827077213e-13
40
  2.9999999999999782
50
  -89.97666379572323
51
  90.00000000000013
0
POLYLINE
8
layer0
66
1
70
8
10
  0.0
20
  0.0
30
  0.0
  0
VERTEX
8
layer0
10
  -22.50000000000012
20
  62.000000000000036
30
  3.5362379691150614e-13
0
VERTEX
8
layer0
10
  -39.000000000000114
20
  61.999999999999986
30
  3.5362379691150614e-13
  0
SEQEND
0
ARC
8
layer0
66
1
10
  -22.500000000000128
20
  65.00000000000006
30
  3.51085827077213e-13
40
  2.999999999999981
50
  90.00000000000013
51
  269.9766637957235
0
POLYLINE
8
layer0
66
1
70
8
10
  0.0
20
  0.0
30
  0.0
  0
VERTEX
8
layer0
10
  -22.500000000000135
20
  68.00000000000004
30
  3.485478572429199e-13
0
VERTEX
8
layer0
10
  -39.00000000000013
20
  67.99999999999997
30
  3.936673209636863e-13
  0
SEQEND
0
ARC
8
layer0
66
1
10
  -39.00000000000012
20
  64.99999999999999
30
  3.51085827077213e-13
40
  2.9999999999999782
50
  -89.97666379572323
51
  90.00000000000013
0
POLYLINE
8
layer0
66
1
70
8
10
  0.0
20
  0.0
30
  0.0
  0
VERTEX
8
layer0
10
  2.2559731860383173e-14
20
  2.53796983429316e-15
30
  2.9999999999999947
0
VERTEX
8
layer0
10
  -5.188738327888077e-13
20
  239.99999999999943
30
  3.0000000000001976
0
VERTEX
8
layer0
10
  -90.0000000000012
20
  239.99999999999923
30
  3.0000000000001976
0
VERTEX
8
layer0
10
  -90.00000000000065
20
  -1.8921975097896354e-13
30
  3.0000000000004006
0
VERTEX
8
layer0
10
  2.2559731860383173e-14
20
  2.53796983429316e-15
30
  2.9999999999999947
  0
SEQEND
  0
SEQEND
0
CIRCLE
8
layer0
66
1
10
  -82.50000000000091
20
  119.99999999999923
30
  3.000000000000299
40
  1.5999999999999963
0
CIRCLE
8
layer0
66
1
10
  -7.500000000001165
20
  232.4999999999994
30
  3.0000000000000235
40
  1.5999999999999963
0
CIRCLE
8
layer0
66
1
10
  -82.50000000000115
20
  232.49999999999923
30
  3.000000000000204
40
  1.5999999999999963
0
ARC
8
layer0
66
1
10
  -39.00000000000108
20
  199.99999999999932
30
  3.000000000000141
40
  2.9999999999999916
50
  -89.97666379572323
51
  90.00000000000013
0
POLYLINE
8
layer0
66
1
70
8
10
  0.0
20
  0.0
30
  0.0
  0
VERTEX
8
layer0
10
  -22.50000000000109
20
  202.99999999999932
30
  3.0000000000001386
0
VERTEX
8
layer0
10
  -39.00000000000109
20
  202.99999999999926
30
  3.000000000000184
  0
SEQEND
0
ARC
8
layer0
66
1
10
  -22.500000000001087
20
  199.99999999999937
30
  3.000000000000141
40
  2.9999999999999916
50
  90.00000000000013
51
  269.9766637957235
0
POLYLINE
8
layer0
66
1
70
8
10
  0.0
20
  0.0
30
  0.0
  0
VERTEX
8
layer0
10
  -39.00000000000107
20
  196.9999999999993
30
  3.0000000000001434
0
VERTEX
8
layer0
10
  -22.50000000000108
20
  196.99999999999932
30
  3.0000000000001434
  0
SEQEND
0
ARC
8
layer0
66
1
10
  -39.00000000000108
20
  199.99999999999932
30
  3.000000000000141
40
  2.9999999999999916
50
  -89.97666379572323
51
  90.00000000000013
0
ARC
8
layer0
66
1
10
  -67.5000000000011
20
  199.99999999999926
30
  3.0000000000002314
40
  2.9999999999999916
50
  -89.97666379572323
51
  90.00000000000013
0
POLYLINE
8
layer0
66
1
70
8
10
  0.0
20
  0.0
30
  0.0
  0
VERTEX
8
layer0
10
  -67.50000000000111
20
  202.9999999999992
30
  3.0000000000002287
0
VERTEX
8
layer0
10
  -51.000000000001116
20
  202.99999999999923
30
  3.000000000000184
  0
SEQEND
0
ARC
8
layer0
66
1
10
  -51.0000000000011
20
  199.9999999999993
30
  3.000000000000186
40
  2.999999999999991
50
  90.00000000000013
51
  269.9766637957235
0
POLYLINE
8
layer0
66
1
70
8
10
  0.0
20
  0.0
30
  0.0
  0
VERTEX
8
layer0
10
  -67.50000000000108
20
  196.9999999999992
30
  3.000000000000234
0
VERTEX
8
layer0
10
  -51.000000000001094
20
  196.99999999999926
30
  3.0000000000001887
  0
SEQEND
0
ARC
8
layer0
66
1
10
  -67.5000000000011
20
  199.99999999999926
30
  3.0000000000002314
40
  2.9999999999999916
50
  -89.97666379572323
51
  90.00000000000013
0
POLYLINE
8
layer0
66
1
70
8
10
  0.0
20
  0.0
30
  0.0
  0
VERTEX
8
layer0
10
  -67.50000000000105
20
  177.9999999999992
30
  3.00000000000025
0
VERTEX
8
layer0
10
  -51.00000000000106
20
  177.99999999999923
30
  3.0000000000002047
  0
SEQEND
0
ARC
8
layer0
66
1
10
  -51.000000000001044
20
  174.9999999999993
30
  3.0000000000002074
40
  2.999999999999991
50
  90.00000000000013
51
  269.9766637957235
0
POLYLINE
8
layer0
66
1
70
8
10
  0.0
20
  0.0
30
  0.0
  0
VERTEX
8
layer0
10
  -67.50000000000102
20
  171.9999999999992
30
  3.000000000000255
0
VERTEX
8
layer0
10
  -51.00000000000104
20
  171.99999999999926
30
  3.00000000000021
  0
SEQEND
0
ARC
8
layer0
66
1
10
  -67.50000000000104
20
  174.99999999999926
30
  3.0000000000002527
40
  2.9999999999999916
50
  -89.97666379572323
51
  90.00000000000013
0
POLYLINE
8
layer0
66
1
70
8
10
  0.0
20
  0.0
30
  0.0
  0
VERTEX
8
layer0
10
  -22.500000000001037
20
  177.99999999999932
30
  3.00000000000016
0
VERTEX
8
layer0
10
  -39.00000000000103
20
  177.99999999999926
30
  3.0000000000002047
  0
SEQEND
0
ARC
8
layer0
66
1
10
  -22.50000000000103
20
  174.99999999999937
30
  3.000000000000162
40
  2.9999999999999916
50
  90.00000000000013
51
  269.9766637957235
0
POLYLINE
8
layer0
66
1
70
8
10
  0.0
20
  0.0
30
  0.0
  0
VERTEX
8
layer0
10
  -39.000000000001016
20
  171.9999999999993
30
  3.0000000000001648
0
VERTEX
8
layer0
10
  -22.500000000001023
20
  171.99999999999932
30
  3.0000000000001648
  0
SEQEND
0
ARC
8
layer0
66
1
10
  -39.00000000000102
20
  174.99999999999932
30
  3.000000000000162
40
  2.9999999999999916
50
  -89.97666379572323
51
  90.00000000000013
0
ARC
8
layer0
66
1
10
  -22.500000000001002
20
  162.49999999999932
30
  3.0000000000001728
40
  2.9999999999999916
50
  90.00000000000013
51
  269.9766637957235
0
POLYLINE
8
layer0
66
1
70
8
10
  0.0
20
  0.0
30
  0.0
  0
VERTEX
8
layer0
10
  -39.00000000000099
20
  159.49999999999932
30
  3.0000000000001754
0
VERTEX
8
layer0
10
  -22.500000000000995
20
  159.49999999999937
30
  3.0000000000001754
  0
SEQEND
0
ARC
8
layer0
66
1
10
  -39.000000000000995
20
  162.49999999999926
30
  3.0000000000001728
40
  2.9999999999999916
50
  -89.97666379572323
51
  90.00000000000013
0
POLYLINE
8
layer0
66
1
70
8
10
  0.0
20
  0.0
30
  0.0
  0
VERTEX
8
layer0
10
  -22.50000000000101
20
  165.49999999999935
30
  3.0000000000001705
0
VERTEX
8
layer0
10
  -39.000000000001
20
  165.49999999999932
30
  3.0000000000002154
  0
SEQEND
0
ARC
8
layer0
66
1
10
  -22.500000000001002
20
  162.49999999999932
30
  3.0000000000001728
40
  2.9999999999999916
50
  90.00000000000013
51
  269.9766637957235
0
POLYLINE
8
layer0
66
1
70
8
10
  0.0
20
  0.0
30
  0.0
  0
VERTEX
8
layer0
10
  -67.50000000000101
20
  165.49999999999923
30
  3.0000000000002607
0
VERTEX
8
layer0
10
  -51.00000000000102
20
  165.4999999999993
30
  3.0000000000002154
  0
SEQEND
0
ARC
8
layer0
66
1
10
  -51.00000000000101
20
  162.49999999999926
30
  3.000000000000218
40
  2.999999999999991
50
  90.00000000000013
51
  269.9766637957235
0
POLYLINE
8
layer0
66
1
70
8
10
  0.0
20
  0.0
30
  0.0
  0
VERTEX
8
layer0
10
  -67.50000000000101
20
  159.49999999999926
30
  3.0000000000002656
0
VERTEX
8
layer0
10
  -51.00000000000101
20
  159.4999999999993
30
  3.0000000000002203
  0
SEQEND
0
ARC
8
layer0
66
1
10
  -67.50000000000101
20
  162.4999999999992
30
  3.000000000000263
40
  2.9999999999999916
50
  -89.97666379572323
51
  90.00000000000013
0
ARC
8
layer0
66
1
10
  -67.50000000000107
20
  187.4999999999992
30
  3.000000000000242
40
  2.9999999999999916
50
  -89.97666379572323
51
  90.00000000000013
0
POLYLINE
8
layer0
66
1
70
8
10
  0.0
20
  0.0
30
  0.0
  0
VERTEX
8
layer0
10
  -67.50000000000107
20
  190.49999999999923
30
  3.0000000000002394
0
VERTEX
8
layer0
10
  -51.00000000000108
20
  190.4999999999993
30
  3.0000000000001945
  0
SEQEND
0
ARC
8
layer0
66
1
10
  -51.000000000001066
20
  187.49999999999926
30
  3.0000000000001967
40
  2.999999999999991
50
  90.00000000000013
51
  269.9766637957235
0
POLYLINE
8
layer0
66
1
70
8
10
  0.0
20
  0.0
30
  0.0
  0
VERTEX
8
layer0
10
  -67.50000000000107
20
  184.49999999999926
30
  3.0000000000002442
0
VERTEX
8
layer0
10
  -51.000000000001066
20
  184.4999999999993
30
  3.0000000000001994
  0
SEQEND
0
ARC
8
layer0
66
1
10
  -67.50000000000107
20
  187.4999999999992
30
  3.000000000000242
40
  2.9999999999999916
50
  -89.97666379572323
51
  90.00000000000013
0
POLYLINE
8
layer0
66
1
70
8
10
  0.0
20
  0.0
30
  0.0
  0
VERTEX
8
layer0
10
  -22.500000000001066
20
  190.49999999999935
30
  3.000000000000149
0
VERTEX
8
layer0
10
  -39.00000000000106
20
  190.49999999999932
30
  3.0000000000001945
  0
SEQEND
0
ARC
8
layer0
66
1
10
  -22.50000000000106
20
  187.49999999999932
30
  3.000000000000152
40
  2.9999999999999916
50
  90.00000000000013
51
  269.9766637957235
0
POLYLINE
8
layer0
66
1
70
8
10
  0.0
20
  0.0
30
  0.0
  0
VERTEX
8
layer0
10
  -39.000000000001044
20
  184.49999999999932
30
  3.000000000000154
0
VERTEX
8
layer0
10
  -22.50000000000105
20
  184.49999999999937
30
  3.000000000000154
  0
SEQEND
0
ARC
8
layer0
66
1
10
  -39.00000000000105
20
  187.49999999999926
30
  3.000000000000152
40
  2.9999999999999916
50
  -89.97666379572323
51
  90.00000000000013
0
POLYLINE
8
layer0
66
1
70
8
10
  0.0
20
  0.0
30
  0.0
  0
VERTEX
8
layer0
10
  -67.50000000000112
20
  215.49999999999926
30
  3.0000000000002185
0
VERTEX
8
layer0
10
  -51.00000000000114
20
  215.49999999999932
30
  3.000000000000173
  0
SEQEND
0
ARC
8
layer0
66
1
10
  -51.00000000000112
20
  212.49999999999926
30
  3.000000000000176
40
  2.999999999999991
50
  90.00000000000013
51
  269.9766637957235
0
POLYLINE
8
layer0
66
1
70
8
10
  0.0
20
  0.0
30
  0.0
  0
VERTEX
8
layer0
10
  -67.50000000000112
20
  209.4999999999993
30
  3.0000000000002234
0
VERTEX
8
layer0
10
  -51.00000000000112
20
  209.49999999999932
30
  3.000000000000178
  0
SEQEND
0
ARC
8
layer0
66
1
10
  -67.50000000000112
20
  212.49999999999923
30
  3.0000000000002207
40
  2.9999999999999916
50
  -89.97666379572323
51
  90.00000000000013
0
POLYLINE
8
layer0
66
1
70
8
10
  0.0
20
  0.0
30
  0.0
  0
VERTEX
8
layer0
10
  -22.50000000000112
20
  215.49999999999935
30
  3.000000000000128
0
VERTEX
8
layer0
10
  -39.000000000001116
20
  215.49999999999932
30
  3.000000000000173
  0
SEQEND
0
ARC
8
layer0
66
1
10
  -22.500000000001116
20
  212.49999999999932
30
  3.0000000000001306
40
  2.9999999999999916
50
  90.00000000000013
51
  269.9766637957235
0
POLYLINE
8
layer0
66
1
70
8
10
  0.0
20
  0.0
30
  0.0
  0
VERTEX
8
layer0
10
  -39.0000000000011
20
  209.49999999999932
30
  3.0000000000001332
0
VERTEX
8
layer0
10
  -22.50000000000111
20
  209.49999999999937
30
  3.0000000000001332
  0
SEQEND
0
ARC
8
layer0
66
1
10
  -39.00000000000111
20
  212.49999999999926
30
  3.0000000000001306
40
  2.9999999999999916
50
  -89.97666379572323
51
  90.00000000000013
0
ARC
8
layer0
66
1
10
  -67.50000000000115
20
  224.99999999999926
30
  3.00000000000021
40
  2.9999999999999925
50
  -89.97666379572323
51
  90.00000000000013
0
POLYLINE
8
layer0
66
1
70
8
10
  0.0
20
  0.0
30
  0.0
  0
VERTEX
8
layer0
10
  -67.50000000000117
20
  227.99999999999923
30
  3.000000000000208
0
VERTEX
8
layer0
10
  -51.00000000000117
20
  227.99999999999926
30
  3.0000000000001625
  0
SEQEND
0
ARC
8
layer0
66
1
10
  -51.00000000000116
20
  224.99999999999932
30
  3.000000000000165
40
  2.9999999999999916
50
  90.00000000000013
51
  269.9766637957235
0
POLYLINE
8
layer0
66
1
70
8
10
  0.0
20
  0.0
30
  0.0
  0
VERTEX
8
layer0
10
  -67.50000000000114
20
  221.99999999999923
30
  3.0000000000002127
0
VERTEX
8
layer0
10
  -51.000000000001144
20
  221.9999999999993
30
  3.0000000000001674
  0
SEQEND
0
ARC
8
layer0
66
1
10
  -67.50000000000115
20
  224.99999999999926
30
  3.00000000000021
40
  2.9999999999999925
50
  -89.97666379572323
51
  90.00000000000013
0
ARC
8
layer0
66
1
10
  -22.500000000001144
20
  224.99999999999937
30
  3.00000000000012
40
  2.9999999999999925
50
  90.00000000000013
51
  269.9766637957235
0
POLYLINE
8
layer0
66
1
70
8
10
  0.0
20
  0.0
30
  0.0
  0
VERTEX
8
layer0
10
  -39.00000000000113
20
  221.9999999999993
30
  3.0000000000001674
0
VERTEX
8
layer0
10
  -22.500000000001137
20
  221.99999999999932
30
  3.0000000000001226
  0
SEQEND
0
ARC
8
layer0
66
1
10
  -39.00000000000114
20
  224.99999999999932
30
  3.000000000000165
40
  2.9999999999999925
50
  -89.97666379572323
51
  90.00000000000013
0
POLYLINE
8
layer0
66
1
70
8
10
  0.0
20
  0.0
30
  0.0
  0
VERTEX
8
layer0
10
  -22.500000000001148
20
  227.99999999999932
30
  3.0000000000001177
0
VERTEX
8
layer0
10
  -39.000000000001144
20
  227.99999999999926
30
  3.0000000000001625
  0
SEQEND
0
ARC
8
layer0
66
1
10
  -22.500000000001144
20
  224.99999999999937
30
  3.00000000000012
40
  2.9999999999999925
50
  90.00000000000013
51
  269.9766637957235
0
CIRCLE
8
layer0
66
1
10
  -7.500000000000911
20
  119.9999999999994
30
  3.0000000000001186
40
  1.5999999999999963
0
CIRCLE
8
layer0
66
1
10
  -7.500000000000657
20
  7.499999999999419
30
  3.0000000000002136
40
  1.5999999999999963
0
CIRCLE
8
layer0
66
1
10
  -82.50000000000065
20
  7.49999999999925
30
  3.0000000000003944
40
  1.5999999999999963
0
ARC
8
layer0
66
1
10
  -22.500000000000078
20
  52.50000000000004
30
  3.000000000000356
40
  2.9999999999999853
50
  90.00000000000013
51
  269.9766637957235
0
POLYLINE
8
layer0
66
1
70
8
10
  0.0
20
  0.0
30
  0.0
  0
VERTEX
8
layer0
10
  -22.50000000000007
20
  49.500000000000036
30
  3.000000000000359
0
VERTEX
8
layer0
10
  -39.000000000000064
20
  49.50000000000001
30
  3.000000000000359
  0
SEQEND
0
ARC
8
layer0
66
1
10
  -39.00000000000007
20
  52.49999999999999
30
  3.000000000000356
40
  2.9999999999999845
50
  -89.97666379572323
51
  90.00000000000013
0
POLYLINE
8
layer0
66
1
70
8
10
  0.0
20
  0.0
30
  0.0
  0
VERTEX
8
layer0
10
  -22.50000000000008
20
  55.500000000000036
30
  3.0000000000003535
0
VERTEX
8
layer0
10
  -39.00000000000008
20
  55.499999999999986
30
  3.000000000000399
  0
SEQEND
0
ARC
8
layer0
66
1
10
  -22.500000000000078
20
  52.50000000000004
30
  3.000000000000356
40
  2.9999999999999853
50
  90.00000000000013
51
  269.9766637957235
0
ARC
8
layer0
66
1
10
  -67.5000000000001
20
  52.499999999999936
30
  3.0000000000004916
40
  2.9999999999999853
50
  -89.97666379572323
51
  90.00000000000013
0
POLYLINE
8
layer0
66
1
70
8
10
  0.0
20
  0.0
30
  0.0
  0
VERTEX
8
layer0
10
  -51.00000000000012
20
  55.499999999999964
30
  3.000000000000399
0
VERTEX
8
layer0
10
  -67.50000000000011
20
  55.49999999999993
30
  3.000000000000489
  0
SEQEND
0
ARC
8
layer0
66
1
10
  -51.00000000000011
20
  52.49999999999997
30
  3.0000000000004015
40
  2.9999999999999853
50
  90.00000000000013
51
  269.9766637957235
0
POLYLINE
8
layer0
66
1
70
8
10
  0.0
20
  0.0
30
  0.0
  0
VERTEX
8
layer0
10
  -67.5000000000001
20
  49.499999999999936
30
  3.000000000000494
0
VERTEX
8
layer0
10
  -51.00000000000011
20
  49.49999999999998
30
  3.000000000000449
  0
SEQEND
0
ARC
8
layer0
66
1
10
  -67.5000000000001
20
  52.499999999999936
30
  3.0000000000004916
40
  2.9999999999999853
50
  -89.97666379572323
51
  90.00000000000013
0
ARC
8
layer0
66
1
10
  -51.000000000000085
20
  39.99999999999997
30
  3.0000000000004117
40
  2.9999999999999862
50
  90.00000000000013
51
  269.9766637957235
0
POLYLINE
8
layer0
66
1
70
8
10
  0.0
20
  0.0
30
  0.0
  0
VERTEX
8
layer0
10
  -67.50000000000007
20
  36.999999999999936
30
  3.0000000000005045
0
VERTEX
8
layer0
10
  -51.00000000000008
20
  36.99999999999998
30
  3.0000000000004596
  0
SEQEND
0
ARC
8
layer0
66
1
10
  -67.50000000000009
20
  39.99999999999993
30
  3.0000000000005023
40
  2.9999999999999862
50
  -89.97666379572323
51
  90.00000000000013
0
POLYLINE
8
layer0
66
1
70
8
10
  0.0
20
  0.0
30
  0.0
  0
VERTEX
8
layer0
10
  -51.0000000000001
20
  42.999999999999964
30
  3.0000000000004095
0
VERTEX
8
layer0
10
  -67.50000000000009
20
  42.99999999999993
30
  3.0000000000004996
  0
SEQEND
0
ARC
8
layer0
66
1
10
  -51.000000000000085
20
  39.99999999999997
30
  3.0000000000004117
40
  2.9999999999999862
50
  90.00000000000013
51
  269.9766637957235
0
ARC
8
layer0
66
1
10
  -39.00000000000004
20
  40.0
30
  3.000000000000367
40
  2.9999999999999853
50
  -89.97666379572323
51
  90.00000000000013
0
POLYLINE
8
layer0
66
1
70
8
10
  0.0
20
  0.0
30
  0.0
  0
VERTEX
8
layer0
10
  -22.500000000000053
20
  43.00000000000003
30
  3.000000000000364
0
VERTEX
8
layer0
10
  -39.00000000000005
20
  42.99999999999999
30
  3.0000000000004095
  0
SEQEND
0
ARC
8
layer0
66
1
10
  -22.50000000000005
20
  40.000000000000036
30
  3.000000000000367
40
  2.9999999999999862
50
  90.00000000000013
51
  269.9766637957235
0
POLYLINE
8
layer0
66
1
70
8
10
  0.0
20
  0.0
30
  0.0
  0
VERTEX
8
layer0
10
  -22.500000000000043
20
  37.00000000000004
30
  3.000000000000369
0
VERTEX
8
layer0
10
  -39.000000000000036
20
  37.00000000000001
30
  3.000000000000369
  0
SEQEND
0
ARC
8
layer0
66
1
10
  -39.00000000000004
20
  40.0
30
  3.000000000000367
40
  2.9999999999999853
50
  -89.97666379572323
51
  90.00000000000013
0
ARC
8
layer0
66
1
10
  -51.00000000000003
20
  14.999999999999973
30
  3.000000000000433
40
  2.9999999999999862
50
  90.00000000000013
51
  269.9766637957235
0
POLYLINE
8
layer0
66
1
70
8
10
  0.0
20
  0.0
30
  0.0
  0
VERTEX
8
layer0
10
  -67.49999999999999
20
  11.999999999999941
30
  3.0000000000004805
0
VERTEX
8
layer0
10
  -51.00000000000002
20
  11.999999999999979
30
  3.0000000000004357
  0
SEQEND
0
ARC
8
layer0
66
1
10
  -67.5
20
  14.999999999999936
30
  3.0000000000004783
40
  2.9999999999999876
50
  -89.97666379572323
51
  90.00000000000013
0
POLYLINE
8
layer0
66
1
70
8
10
  0.0
20
  0.0
30
  0.0
  0
VERTEX
8
layer0
10
  -51.00000000000004
20
  17.999999999999968
30
  3.0000000000004303
0
VERTEX
8
layer0
10
  -67.50000000000001
20
  17.99999999999993
30
  3.0000000000004756
  0
SEQEND
0
ARC
8
layer0
66
1
10
  -51.00000000000003
20
  14.999999999999973
30
  3.000000000000433
40
  2.9999999999999862
50
  90.00000000000013
51
  269.9766637957235
0
ARC
8
layer0
66
1
10
  -67.50000000000004
20
  27.499999999999932
30
  3.0000000000004676
40
  2.999999999999984
50
  -89.9766637957228
51
  90.000000000001
0
POLYLINE
8
layer0
66
1
70
8
10
  0.0
20
  0.0
30
  0.0
  0
VERTEX
8
layer0
10
  -51.000000000000064
20
  30.499999999999968
30
  3.00000000000042
0
VERTEX
8
layer0
10
  -67.50000000000006
20
  30.49999999999993
30
  3.000000000000465
  0
SEQEND
0
ARC
8
layer0
66
1
10
  -51.00000000000005
20
  27.49999999999997
30
  3.0000000000003775
40
  2.9999999999999862
50
  90.00000000000013
51
  269.9766637957235
0
POLYLINE
8
layer0
66
1
70
8
10
  0.0
20
  0.0
30
  0.0
  0
VERTEX
8
layer0
10
  -67.50000000000003
20
  24.49999999999994
30
  3.00000000000047
0
VERTEX
8
layer0
10
  -51.00000000000005
20
  24.49999999999998
30
  3.000000000000425
  0
SEQEND
0
ARC
8
layer0
66
1
10
  -67.50000000000004
20
  27.499999999999932
30
  3.0000000000004676
40
  2.999999999999984
50
  -89.9766637957228
51
  90.000000000001
0
ARC
8
layer0
66
1
10
  -39.000000000000014
20
  27.5
30
  3.0000000000003775
40
  2.9999999999999853
50
  -89.97666379572323
51
  90.00000000000013
0
POLYLINE
8
layer0
66
1
70
8
10
  0.0
20
  0.0
30
  0.0
  0
VERTEX
8
layer0
10
  -22.500000000000025
20
  30.50000000000003
30
  3.0000000000003295
0
VERTEX
8
layer0
10
  -39.00000000000002
20
  30.499999999999996
30
  3.000000000000375
  0
SEQEND
0
ARC
8
layer0
66
1
10
  -22.50000000000002
20
  27.500000000000036
30
  3.000000000000332
40
  2.9999999999999782
50
  90.00000000000013
51
  269.9766637957235
0
POLYLINE
8
layer0
66
1
70
8
10
  0.0
20
  0.0
30
  0.0
  0
VERTEX
8
layer0
10
  -22.500000000000014
20
  24.500000000000043
30
  3.000000000000335
0
VERTEX
8
layer0
10
  -39.00000000000001
20
  24.500000000000007
30
  3.0000000000003797
  0
SEQEND
0
ARC
8
layer0
66
1
10
  -39.000000000000014
20
  27.5
30
  3.0000000000003775
40
  2.9999999999999853
50
  -89.97666379572323
51
  90.00000000000013
0
ARC
8
layer0
66
1
10
  -22.499999999999993
20
  15.000000000000037
30
  3.000000000000343
40
  2.9999999999999867
50
  90.00000000000013
51
  269.9766637957235
0
POLYLINE
8
layer0
66
1
70
8
10
  0.0
20
  0.0
30
  0.0
  0
VERTEX
8
layer0
10
  -22.499999999999986
20
  12.000000000000043
30
  3.000000000000345
0
VERTEX
8
layer0
10
  -38.99999999999998
20
  12.000000000000005
30
  3.0000000000003904
  0
SEQEND
0
ARC
8
layer0
66
1
10
  -38.999999999999986
20
  15.0
30
  3.0000000000003877
40
  2.9999999999999862
50
  -89.97666379572323
51
  90.00000000000013
0
POLYLINE
8
layer0
66
1
70
8
10
  0.0
20
  0.0
30
  0.0
  0
VERTEX
8
layer0
10
  -22.5
20
  18.000000000000032
30
  3.00000000000034
0
VERTEX
8
layer0
10
  -38.99999999999999
20
  17.999999999999996
30
  3.0000000000003855
  0
SEQEND
0
ARC
8
layer0
66
1
10
  -22.499999999999993
20
  15.000000000000037
30
  3.000000000000343
40
  2.9999999999999867
50
  90.00000000000013
51
  269.9766637957235
0
ARC
8
layer0
66
1
10
  -22.500000000000135
20
  77.50000000000003
30
  3.000000000000335
40
  2.999999999999976
50
  90.00000000000013
51
  269.9766637957235
0
POLYLINE
8
layer0
66
1
70
8
10
  0.0
20
  0.0
30
  0.0
  0
VERTEX
8
layer0
10
  -22.500000000000128
20
  74.50000000000003
30
  3.0000000000003375
0
VERTEX
8
layer0
10
  -39.00000000000012
20
  74.49999999999999
30
  3.0000000000003375
  0
SEQEND
0
ARC
8
layer0
66
1
10
  -39.00000000000013
20
  77.49999999999999
30
  3.000000000000335
40
  2.999999999999976
50
  -89.97666379572323
51
  90.00000000000013
0
POLYLINE
8
layer0
66
1
70
8
10
  0.0
20
  0.0
30
  0.0
  0
VERTEX
8
layer0
10
  -22.50000000000014
20
  80.50000000000003
30
  3.0000000000003326
0
VERTEX
8
layer0
10
  -39.000000000000135
20
  80.49999999999997
30
  3.0000000000003775
  0
SEQEND
0
ARC
8
layer0
66
1
10
  -22.500000000000135
20
  77.50000000000003
30
  3.000000000000335
40
  2.999999999999976
50
  90.00000000000013
51
  269.9766637957235
0
POLYLINE
8
layer0
66
1
70
8
10
  0.0
20
  0.0
30
  0.0
  0
VERTEX
8
layer0
10
  -51.00000000000018
20
  80.49999999999996
30
  3.0000000000003775
0
VERTEX
8
layer0
10
  -67.50000000000017
20
  80.49999999999991
30
  3.000000000000468
  0
SEQEND
0
ARC
8
layer0
66
1
10
  -51.00000000000016
20
  77.49999999999996
30
  3.00000000000038
40
  2.999999999999978
50
  90.00000000000013
51
  269.9766637957235
0
POLYLINE
8
layer0
66
1
70
8
10
  0.0
20
  0.0
30
  0.0
  0
VERTEX
8
layer0
10
  -67.50000000000016
20
  74.49999999999993
30
  3.000000000000473
0
VERTEX
8
layer0
10
  -51.00000000000016
20
  74.49999999999997
30
  3.0000000000004277
  0
SEQEND
0
ARC
8
layer0
66
1
10
  -67.50000000000016
20
  77.49999999999993
30
  3.0000000000004703
40
  2.9999999999999765
50
  -89.97666379572323
51
  90.00000000000013
0
ARC
8
layer0
66
1
10
  -51.00000000000014
20
  64.99999999999996
30
  3.000000000000391
40
  2.9999999999999774
50
  90.00000000000013
51
  269.9766637957235
0
POLYLINE
8
layer0
66
1
70
8
10
  0.0
20
  0.0
30
  0.0
  0
VERTEX
8
layer0
10
  -67.50000000000013
20
  61.99999999999993
30
  3.0000000000004836
0
VERTEX
8
layer0
10
  -51.000000000000135
20
  61.999999999999964
30
  3.0000000000004383
  0
SEQEND
0
ARC
8
layer0
66
1
10
  -67.50000000000014
20
  64.99999999999993
30
  3.000000000000481
40
  2.9999999999999787
50
  -89.97666379572323
51
  90.00000000000013
0
POLYLINE
8
layer0
66
1
70
8
10
  0.0
20
  0.0
30
  0.0
  0
VERTEX
8
layer0
10
  -51.000000000000156
20
  67.99999999999996
30
  3.000000000000388
0
VERTEX
8
layer0
10
  -67.50000000000014
20
  67.99999999999991
30
  3.0000000000004783
  0
SEQEND
0
ARC
8
layer0
66
1
10
  -51.00000000000014
20
  64.99999999999996
30
  3.000000000000391
40
  2.9999999999999774
50
  90.00000000000013
51
  269.9766637957235
0
ARC
8
layer0
66
1
10
  -39.0000000000001
20
  64.99999999999999
30
  3.0000000000003455
40
  2.9999999999999787
50
  -89.97666379572323
51
  90.00000000000013
0
POLYLINE
8
layer0
66
1
70
8
10
  0.0
20
  0.0
30
  0.0
  0
VERTEX
8
layer0
10
  -22.50000000000011
20
  68.00000000000003
30
  3.0000000000003433
0
VERTEX
8
layer0
10
  -39.00000000000011
20
  67.99999999999997
30
  3.000000000000388
  0
SEQEND
0
ARC
8
layer0
66
1
10
  -22.500000000000107
20
  65.00000000000003
30
  3.0000000000003455
40
  2.999999999999981
50
  90.00000000000013
51
  269.9766637957235
0
POLYLINE
8
layer0
66
1
70
8
10
  0.0
20
  0.0
30
  0.0
  0
VERTEX
8
layer0
10
  -22.5000000000001
20
  62.000000000000036
30
  3.000000000000348
0
VERTEX
8
layer0
10
  -39.00000000000009
20
  61.999999999999986
30
  3.000000000000348
  0
SEQEND
0
ARC
8
layer0
66
1
10
  -39.0000000000001
20
  64.99999999999999
30
  3.0000000000003455
40
  2.9999999999999787
50
  -89.97666379572323
51
  90.00000000000013
 0
ENDSEC
 0
EOF
