 0
SECTION
 2
HEADER
 9
$MEASUREMENT
 70
 2
 0
ENDSEC
 0
SECTION
 2
ENTITIES
 0
POLYLINE
8
layer0
66
1
70
8
10
  0.0
20
  0.0
30
  0.0
  0
VERTEX
8
layer0
10
  -2.9999999999998592
20
  224.99999999999991
30
  4.4286796810341615e-14
0
VERTEX
8
layer0
10
  303.0000000000001
20
  224.99999999999991
30
  4.3938464336365385e-14
0
VERTEX
8
layer0
10
  303.0
20
  -3.0000000000000324
30
  -9.353625402027254e-16
0
VERTEX
8
layer0
10
  -2.9999999999999494
20
  -3.0000000000000324
30
  -5.870300662264972e-16
0
VERTEX
8
layer0
10
  -2.9999999999998592
20
  224.99999999999991
30
  4.4286796810341615e-14
 0
SEQEND
 0
SEQEND
 0
CIRCLE
8
layer0
66
1
10
  292.50000000000006
20
  7.4999999999999245
30
  -4.39763158593937e-14
40
  1.599999999999997
 0
CIRCLE
8
layer0
66
1
10
  292.5000000000003
20
  59.99999999999998
30
  2.85012685751939e-13
40
  1.5999999999999939
 0
CIRCLE
8
layer0
66
1
10
  292.5
20
  97.4999999999999
30
  -2.37954924727295e-14
40
  1.599999999999997
 0
CIRCLE
8
layer0
66
1
10
  292.5000000000002
20
  112.4999999999999
30
  -6.984018465459342e-14
40
  1.5999999999999963
 0
CIRCLE
8
layer0
66
1
10
  292.50000000000017
20
  202.49999999999997
30
  -5.071684869888468e-14
40
  1.5999999999999974
 0
CIRCLE
8
layer0
66
1
10
  292.5
20
  164.99999999999991
30
  -5.950739557117312e-14
40
  1.599999999999997
 0
CIRCLE
8
layer0
66
1
10
  7.50000000000028
20
  202.49999999999997
30
  -5.039242139469113e-14
40
  1.599999999999997
 0
CIRCLE
8
layer0
66
1
10
  7.500000000000189
20
  164.99999999999991
30
  -2.847802868708114e-13
40
  1.599999999999997
 0
CIRCLE
8
layer0
66
1
10
  7.5000000000002345
20
  112.49999999999996
30
  -2.4396293629633504e-14
40
  1.59999999999999
 0
CIRCLE
8
layer0
66
1
10
  7.499999999999964
20
  97.4999999999999
30
  -2.3471065168535955e-14
40
  1.5999999999999936
 0
CIRCLE
8
layer0
66
1
10
  7.5000000000002345
20
  59.99999999999998
30
  1.4620330731534414e-14
40
  1.599999999999997
 0
CIRCLE
8
layer0
66
1
10
  7.500000000000054
20
  7.499999999999969
30
  1.4675751655662207e-15
40
  1.599999999999997
 0
CIRCLE
8
layer0
66
1
10
  78.75000000000004
20
  7.499999999999951
30
  1.3864683395178304e-15
40
  1.599999999999997
 0
CIRCLE
8
layer0
66
1
10
  78.75000000000023
20
  112.5000000000002
30
  -2.4477400455681843e-14
40
  1.5999999999999892
 0
CIRCLE
8
layer0
66
1
10
  150.00000000000014
20
  112.49999999999993
30
  1.1220986712184275e-13
40
  1.5999999999999892
 0
CIRCLE
8
layer0
66
1
10
  150.00000000000003
20
  7.49999999999994
30
  1.3666375267576852e-13
40
  1.5999999999999979
 0
CIRCLE
8
layer0
66
1
10
  221.2500000000001
20
  112.50000000000017
30
  -6.834909458727103e-14
40
  1.5999999999999963
 0
CIRCLE
8
layer0
66
1
10
  221.25000000000003
20
  7.499999999999928
30
  -4.389520903334531e-14
40
  1.599999999999997
 0
CIRCLE
8
layer0
66
1
10
  292.5000000000003
20
  22.49999999999998
30
  2.7763212212092453e-13
40
  1.599999999999997
 0
CIRCLE
8
layer0
66
1
10
  292.5
20
  127.49999999999993
30
  -6.688795920218763e-14
40
  1.599999999999997
 0
CIRCLE
8
layer0
66
1
10
  7.500000000000189
20
  127.49999999999993
30
  -2.921608505018259e-13
40
  1.599999999999997
 0
CIRCLE
8
layer0
66
1
10
  7.5000000000002345
20
  22.49999999999998
30
  7.239767100519916e-15
40
  1.5999999999999968
 0
POLYLINE
8
layer0
66
1
70
8
10
  0.0
20
  0.0
30
  0.0
  0
VERTEX
8
layer0
10
  -2.9999999999998592
20
  224.99999999999991
30
  3.000000000000084
0
VERTEX
8
layer0
10
  303.0000000000001
20
  224.99999999999991
30
  3.000000000000082
0
VERTEX
8
layer0
10
  -2.9999999999998592
20
  224.99999999999991
30
  3.000000000000084
0
VERTEX
8
layer0
10
  -2.9999999999999494
20
  -3.0000000000000333
30
  2.999999999999994
0
VERTEX
8
layer0
10
  303.0
20
  -3.0000000000000333
30
  2.9999999999999933
 0
SEQEND
 0
SEQEND
 0
CIRCLE
8
layer0
66
1
10
  7.500000000000054
20
  7.499999999999971
30
  2.999999999999996
40
  1.599999999999997
 0
CIRCLE
8
layer0
66
1
10
  7.5000000000002345
20
  59.99999999999998
30
  3.000000000000009
40
  1.599999999999997
 0
CIRCLE
8
layer0
66
1
10
  7.499999999999964
20
  97.4999999999999
30
  2.9999999999999725
40
  1.5999999999999936
 0
CIRCLE
8
layer0
66
1
10
  7.5000000000002345
20
  112.49999999999996
30
  2.9999999999999716
40
  1.5999999999999903
 0
CIRCLE
8
layer0
66
1
10
  7.50000000000028
20
  164.99999999999991
30
  2.9999999999997096
40
  1.599999999999997
 0
CIRCLE
8
layer0
66
1
10
  7.50000000000028
20
  202.49999999999997
30
  2.999999999999944
40
  1.599999999999997
 0
CIRCLE
8
layer0
66
1
10
  78.75000000000004
20
  7.499999999999952
30
  2.999999999999996
40
  1.599999999999997
 0
CIRCLE
8
layer0
66
1
10
  78.75000000000023
20
  112.5000000000002
30
  2.9999999999999702
40
  1.5999999999999897
 0
CIRCLE
8
layer0
66
1
10
  150.00000000000003
20
  7.499999999999941
30
  3.0000000000001315
40
  1.599999999999997
 0
CIRCLE
8
layer0
66
1
10
  150.00000000000014
20
  112.49999999999993
30
  3.0000000000001066
40
  1.5999999999999897
 0
CIRCLE
8
layer0
66
1
10
  221.25000000000003
20
  7.49999999999993
30
  2.9999999999999503
40
  1.599999999999997
 0
CIRCLE
8
layer0
66
1
10
  221.2500000000001
20
  112.50000000000017
30
  2.9999999999999263
40
  1.5999999999999963
 0
CIRCLE
8
layer0
66
1
10
  292.5000000000002
20
  112.4999999999999
30
  2.9999999999999263
40
  1.5999999999999963
 0
CIRCLE
8
layer0
66
1
10
  292.5
20
  7.499999999999925
30
  2.9999999999999503
40
  1.5999999999999936
 0
CIRCLE
8
layer0
66
1
10
  292.5
20
  164.99999999999991
30
  2.9999999999999347
40
  1.599999999999997
 0
CIRCLE
8
layer0
66
1
10
  292.50000000000017
20
  202.49999999999997
30
  2.9999999999999436
40
  1.599999999999997
 0
CIRCLE
8
layer0
66
1
10
  292.5000000000002
20
  59.99999999999998
30
  3.0000000000002798
40
  1.599999999999997
 0
CIRCLE
8
layer0
66
1
10
  292.5
20
  97.4999999999999
30
  2.999999999999972
40
  1.599999999999997
 0
CIRCLE
8
layer0
66
1
10
  7.500000000000189
20
  127.49999999999993
30
  2.9999999999997087
40
  1.599999999999997
 0
CIRCLE
8
layer0
66
1
10
  7.5000000000002345
20
  22.499999999999982
30
  3.0000000000000075
40
  1.5999999999999968
 0
CIRCLE
8
layer0
66
1
10
  292.5000000000003
20
  22.49999999999998
30
  3.000000000000278
40
  1.599999999999997
 0
CIRCLE
8
layer0
66
1
10
  292.5
20
  127.49999999999993
30
  2.999999999999934
40
  1.599999999999997
 0
ENDSEC
 0
EOF
