solid OpenSCAD_Model
  facet normal 1 0 0
    outer loop
      vertex 16 9.5 21
      vertex 16 8.125 6
      vertex 16 9.5 0
    endloop
  endfacet
  facet normal 1 0 0
    outer loop
      vertex 16 7.5 16
      vertex 16 9.5 21
      vertex 16 7.5 21
    endloop
  endfacet
  facet normal 1 0 0
    outer loop
      vertex 16 9.5 21
      vertex 16 7.5 16
      vertex 16 8.125 6
    endloop
  endfacet
  facet normal 1 0 0
    outer loop
      vertex 16 -7.5 0
      vertex 16 8.125 6
      vertex 16 -7.5 6
    endloop
  endfacet
  facet normal 1 0 0
    outer loop
      vertex 16 8.125 6
      vertex 16 -7.5 0
      vertex 16 9.5 0
    endloop
  endfacet
  facet normal -0 0 1
    outer loop
      vertex -16 9.5 21
      vertex 16 7.5 21
      vertex 16 9.5 21
    endloop
  endfacet
  facet normal 0 0 1
    outer loop
      vertex 16 7.5 21
      vertex -16 9.5 21
      vertex -16 7.5 21
    endloop
  endfacet
  facet normal -0.964458 0.264235 0
    outer loop
      vertex -16 9.5 0
      vertex -6 46 12
      vertex -6 46 0
    endloop
  endfacet
  facet normal -0.964458 0.264235 0
    outer loop
      vertex -6 46 12
      vertex -16 9.5 0
      vertex -16 9.5 21
    endloop
  endfacet
  facet normal -1 0 0
    outer loop
      vertex -16 9.5 0
      vertex -16 8.125 6
      vertex -16 9.5 21
    endloop
  endfacet
  facet normal -1 0 0
    outer loop
      vertex -16 -7.5 0
      vertex -16 8.125 6
      vertex -16 9.5 0
    endloop
  endfacet
  facet normal -1 -0 0
    outer loop
      vertex -16 8.125 6
      vertex -16 -7.5 0
      vertex -16 -7.5 6
    endloop
  endfacet
  facet normal -1 0 0
    outer loop
      vertex -16 7.5 16
      vertex -16 9.5 21
      vertex -16 8.125 6
    endloop
  endfacet
  facet normal -1 -0 0
    outer loop
      vertex -16 9.5 21
      vertex -16 7.5 16
      vertex -16 7.5 21
    endloop
  endfacet
  facet normal 1.07859e-006 0.239405 0.97092
    outer loop
      vertex 3.60313 28.5075 16.3132
      vertex 3.9 22.5 17.7945
      vertex 3.9 30 15.9452
    endloop
  endfacet
  facet normal -1.79165e-006 0.239405 0.97092
    outer loop
      vertex 3.60313 28.5075 16.3132
      vertex 3.60313 23.9925 17.4265
      vertex 3.9 22.5 17.7945
    endloop
  endfacet
  facet normal -4.09212e-007 0.239405 0.97092
    outer loop
      vertex 2.75772 27.2423 16.6252
      vertex 3.60313 23.9925 17.4265
      vertex 3.60313 28.5075 16.3132
    endloop
  endfacet
  facet normal 9.30995e-007 0.239405 0.97092
    outer loop
      vertex 2.75772 27.2423 16.6252
      vertex 2.75772 25.2577 17.1145
      vertex 3.60313 23.9925 17.4265
    endloop
  endfacet
  facet normal -2.68106e-007 0.239405 0.97092
    outer loop
      vertex 1.49247 26.3969 16.8336
      vertex 2.75772 25.2577 17.1145
      vertex 2.75772 27.2423 16.6252
    endloop
  endfacet
  facet normal 1.81138e-006 0.239407 0.970919
    outer loop
      vertex 1.49247 26.3969 16.8336
      vertex 1.49247 26.1031 16.9061
      vertex 2.75772 25.2577 17.1145
    endloop
  endfacet
  facet normal 0 0.239407 0.970919
    outer loop
      vertex 1.49247 26.1031 16.9061
      vertex 1.49247 26.3969 16.8336
      vertex 0.7541 26.25 16.8699
    endloop
  endfacet
  facet normal 1.42587e-007 0.239405 0.97092
    outer loop
      vertex 3.60313 31.4925 15.5772
      vertex 4.80417 38.01 13.9701
      vertex 3.67696 36.323 14.3861
    endloop
  endfacet
  facet normal -8.55661e-007 0.239405 0.97092
    outer loop
      vertex 4.80417 38.01 13.9701
      vertex 3.60313 31.4925 15.5772
      vertex 3.9 30 15.9452
    endloop
  endfacet
  facet normal 4.06505e-007 0.239405 0.97092
    outer loop
      vertex 3.67696 36.323 14.3861
      vertex 2.75772 32.7577 15.2652
      vertex 3.60313 31.4925 15.5772
    endloop
  endfacet
  facet normal -1.19555e-007 0.239405 0.97092
    outer loop
      vertex 1.98995 35.1958 14.664
      vertex 2.75772 32.7577 15.2652
      vertex 3.67696 36.323 14.3861
    endloop
  endfacet
  facet normal 1.89621e-007 0.239405 0.97092
    outer loop
      vertex 1.98995 35.1958 14.664
      vertex 1.49247 33.6031 15.0568
      vertex 2.75772 32.7577 15.2652
    endloop
  endfacet
  facet normal 1.56597e-007 0.239405 0.97092
    outer loop
      vertex 0 34.8 14.7616
      vertex 1.49247 33.6031 15.0568
      vertex 1.98995 35.1958 14.664
    endloop
  endfacet
  facet normal -6.21176e-008 0.239405 0.97092
    outer loop
      vertex 0 34.8 14.7616
      vertex 0 33.9 14.9836
      vertex 1.49247 33.6031 15.0568
    endloop
  endfacet
  facet normal 6.21176e-008 0.239405 0.97092
    outer loop
      vertex 0 34.8 14.7616
      vertex -1.49247 33.6031 15.0568
      vertex 0 33.9 14.9836
    endloop
  endfacet
  facet normal -1.56597e-007 0.239405 0.97092
    outer loop
      vertex -1.98995 35.1958 14.664
      vertex -1.49247 33.6031 15.0568
      vertex 0 34.8 14.7616
    endloop
  endfacet
  facet normal -1.89621e-007 0.239405 0.97092
    outer loop
      vertex -1.98995 35.1958 14.664
      vertex -2.75772 32.7577 15.2652
      vertex -1.49247 33.6031 15.0568
    endloop
  endfacet
  facet normal 1.19555e-007 0.239405 0.97092
    outer loop
      vertex -3.67696 36.323 14.3861
      vertex -2.75772 32.7577 15.2652
      vertex -1.98995 35.1958 14.664
    endloop
  endfacet
  facet normal -4.06505e-007 0.239405 0.97092
    outer loop
      vertex -2.75772 32.7577 15.2652
      vertex -3.67696 36.323 14.3861
      vertex -3.60313 31.4925 15.5772
    endloop
  endfacet
  facet normal -1.42587e-007 0.239405 0.97092
    outer loop
      vertex -4.80417 38.01 13.9701
      vertex -3.60313 31.4925 15.5772
      vertex -3.67696 36.323 14.3861
    endloop
  endfacet
  facet normal -4.56096e-008 0.239405 0.97092
    outer loop
      vertex -16 9.5 21
      vertex -3.9 30 15.9452
      vertex -4.80417 38.01 13.9701
    endloop
  endfacet
  facet normal 8.55661e-007 0.239405 0.97092
    outer loop
      vertex -3.60313 31.4925 15.5772
      vertex -4.80417 38.01 13.9701
      vertex -3.9 30 15.9452
    endloop
  endfacet
  facet normal 1.14916e-007 0.239405 0.97092
    outer loop
      vertex 6 46 12
      vertex 4.80417 41.99 12.9888
      vertex 5.2 40 13.4795
    endloop
  endfacet
  facet normal 1.61007e-009 0.239405 0.97092
    outer loop
      vertex 6 46 12
      vertex 3.67696 43.677 12.5728
      vertex 4.80417 41.99 12.9888
    endloop
  endfacet
  facet normal 6.27008e-008 0.239405 0.97092
    outer loop
      vertex 6 46 12
      vertex 1.98995 44.8042 12.2949
      vertex 3.67696 43.677 12.5728
    endloop
  endfacet
  facet normal -9.70162e-008 0.239405 0.97092
    outer loop
      vertex 6 46 12
      vertex 0 45.2 12.1973
      vertex 1.98995 44.8042 12.2949
    endloop
  endfacet
  facet normal -1.14916e-007 0.239405 0.97092
    outer loop
      vertex -4.80417 41.99 12.9888
      vertex -6 46 12
      vertex -5.2 40 13.4795
    endloop
  endfacet
  facet normal -1.61007e-009 0.239405 0.97092
    outer loop
      vertex -3.67696 43.677 12.5728
      vertex -6 46 12
      vertex -4.80417 41.99 12.9888
    endloop
  endfacet
  facet normal -6.27008e-008 0.239405 0.97092
    outer loop
      vertex -1.98995 44.8042 12.2949
      vertex -6 46 12
      vertex -3.67696 43.677 12.5728
    endloop
  endfacet
  facet normal 9.70162e-008 0.239405 0.97092
    outer loop
      vertex 0 45.2 12.1973
      vertex -6 46 12
      vertex -1.98995 44.8042 12.2949
    endloop
  endfacet
  facet normal -0 0.239405 0.97092
    outer loop
      vertex -6 46 12
      vertex 0 45.2 12.1973
      vertex 6 46 12
    endloop
  endfacet
  facet normal 3.11415e-008 0.239405 0.97092
    outer loop
      vertex 5.2 40 13.4795
      vertex 16 9.5 21
      vertex 6 46 12
    endloop
  endfacet
  facet normal -4.15925e-008 0.239405 0.97092
    outer loop
      vertex 4.80417 38.01 13.9701
      vertex 16 9.5 21
      vertex 5.2 40 13.4795
    endloop
  endfacet
  facet normal 4.56096e-008 0.239405 0.97092
    outer loop
      vertex 3.9 30 15.9452
      vertex 16 9.5 21
      vertex 4.80417 38.01 13.9701
    endloop
  endfacet
  facet normal 1.42845e-007 0.239405 0.97092
    outer loop
      vertex 3.9 22.5 17.7945
      vertex 16 9.5 21
      vertex 3.9 30 15.9452
    endloop
  endfacet
  facet normal -7.90772e-007 0.239404 0.97092
    outer loop
      vertex 3.60313 21.0075 18.1625
      vertex 16 9.5 21
      vertex 3.9 22.5 17.7945
    endloop
  endfacet
  facet normal 6.1043e-007 0.239406 0.97092
    outer loop
      vertex 2.75772 19.7423 18.4745
      vertex 16 9.5 21
      vertex 3.60313 21.0075 18.1625
    endloop
  endfacet
  facet normal -1.63911e-008 0.239405 0.97092
    outer loop
      vertex 1.49247 18.8969 18.683
      vertex 16 9.5 21
      vertex 2.75772 19.7423 18.4745
    endloop
  endfacet
  facet normal -4.31456e-007 0.239404 0.97092
    outer loop
      vertex 0 18.6 18.7562
      vertex 16 9.5 21
      vertex 1.49247 18.8969 18.683
    endloop
  endfacet
  facet normal 4.31456e-007 0.239404 0.97092
    outer loop
      vertex -16 9.5 21
      vertex 0 18.6 18.7562
      vertex -1.49247 18.8969 18.683
    endloop
  endfacet
  facet normal 4.15925e-008 0.239405 0.97092
    outer loop
      vertex -16 9.5 21
      vertex -4.80417 38.01 13.9701
      vertex -5.2 40 13.4795
    endloop
  endfacet
  facet normal -3.11415e-008 0.239405 0.97092
    outer loop
      vertex -16 9.5 21
      vertex -5.2 40 13.4795
      vertex -6 46 12
    endloop
  endfacet
  facet normal 0 0.239405 0.97092
    outer loop
      vertex 0 18.6 18.7562
      vertex -16 9.5 21
      vertex 16 9.5 21
    endloop
  endfacet
  facet normal 1.63911e-008 0.239405 0.97092
    outer loop
      vertex -2.75772 19.7423 18.4745
      vertex -16 9.5 21
      vertex -1.49247 18.8969 18.683
    endloop
  endfacet
  facet normal -6.1043e-007 0.239406 0.97092
    outer loop
      vertex -3.60313 21.0075 18.1625
      vertex -16 9.5 21
      vertex -2.75772 19.7423 18.4745
    endloop
  endfacet
  facet normal 7.90772e-007 0.239404 0.97092
    outer loop
      vertex -3.9 22.5 17.7945
      vertex -16 9.5 21
      vertex -3.60313 21.0075 18.1625
    endloop
  endfacet
  facet normal -1.42845e-007 0.239405 0.97092
    outer loop
      vertex -3.9 30 15.9452
      vertex -16 9.5 21
      vertex -3.9 22.5 17.7945
    endloop
  endfacet
  facet normal 0 0.239407 0.970919
    outer loop
      vertex -1.49247 26.3969 16.8336
      vertex -1.49247 26.1031 16.9061
      vertex -0.7541 26.25 16.8699
    endloop
  endfacet
  facet normal 1.81138e-006 0.239407 0.970919
    outer loop
      vertex -2.75772 27.2423 16.6252
      vertex -1.49247 26.1031 16.9061
      vertex -1.49247 26.3969 16.8336
    endloop
  endfacet
  facet normal -2.68106e-007 0.239405 0.97092
    outer loop
      vertex -2.75772 27.2423 16.6252
      vertex -2.75772 25.2577 17.1145
      vertex -1.49247 26.1031 16.9061
    endloop
  endfacet
  facet normal 9.30995e-007 0.239405 0.97092
    outer loop
      vertex -3.60313 28.5075 16.3132
      vertex -2.75772 25.2577 17.1145
      vertex -2.75772 27.2423 16.6252
    endloop
  endfacet
  facet normal -4.09212e-007 0.239405 0.97092
    outer loop
      vertex -3.60313 28.5075 16.3132
      vertex -3.60313 23.9925 17.4265
      vertex -2.75772 25.2577 17.1145
    endloop
  endfacet
  facet normal -1.79165e-006 0.239405 0.97092
    outer loop
      vertex -3.9 30 15.9452
      vertex -3.60313 23.9925 17.4265
      vertex -3.60313 28.5075 16.3132
    endloop
  endfacet
  facet normal 1.07859e-006 0.239405 0.97092
    outer loop
      vertex -3.60313 23.9925 17.4265
      vertex -3.9 30 15.9452
      vertex -3.9 22.5 17.7945
    endloop
  endfacet
  facet normal 0.964458 0.264235 -0
    outer loop
      vertex 16 9.5 0
      vertex 6 46 12
      vertex 16 9.5 21
    endloop
  endfacet
  facet normal 0.964458 0.264235 0
    outer loop
      vertex 6 46 12
      vertex 16 9.5 0
      vertex 6 46 0
    endloop
  endfacet
  facet normal 0 -0.998053 -0.0623783
    outer loop
      vertex -16 8.125 6
      vertex 16 7.5 16
      vertex -16 7.5 16
    endloop
  endfacet
  facet normal 0 -0.998053 -0.0623783
    outer loop
      vertex 16 7.5 16
      vertex -16 8.125 6
      vertex 16 8.125 6
    endloop
  endfacet
  facet normal 0 -1 0
    outer loop
      vertex -16 7.5 16
      vertex 16 7.5 21
      vertex -16 7.5 21
    endloop
  endfacet
  facet normal 0 -1 -0
    outer loop
      vertex 16 7.5 21
      vertex -16 7.5 16
      vertex 16 7.5 16
    endloop
  endfacet
  facet normal 0 0 -1
    outer loop
      vertex 1.5244 23.1314 0
      vertex 1.65 30 0
      vertex 1.65 22.5 0
    endloop
  endfacet
  facet normal 0 0 -1
    outer loop
      vertex 1.5244 23.1314 0
      vertex 1.5244 29.3686 0
      vertex 1.65 30 0
    endloop
  endfacet
  facet normal 0 0 -1
    outer loop
      vertex 1.16673 23.6667 0
      vertex 1.5244 29.3686 0
      vertex 1.5244 23.1314 0
    endloop
  endfacet
  facet normal 0 0 -1
    outer loop
      vertex 1.16673 23.6667 0
      vertex 1.16673 28.8333 0
      vertex 1.5244 29.3686 0
    endloop
  endfacet
  facet normal 0 0 -1
    outer loop
      vertex 0.631427 24.0244 0
      vertex 1.16673 28.8333 0
      vertex 1.16673 23.6667 0
    endloop
  endfacet
  facet normal 0 0 -1
    outer loop
      vertex 0.631427 24.0244 0
      vertex 0.631427 28.4756 0
      vertex 1.16673 28.8333 0
    endloop
  endfacet
  facet normal 0 0 -1
    outer loop
      vertex 0 24.15 0
      vertex 0.631427 28.4756 0
      vertex 0.631427 24.0244 0
    endloop
  endfacet
  facet normal 0 0 -1
    outer loop
      vertex 0 24.15 0
      vertex 0 28.35 0
      vertex 0.631427 28.4756 0
    endloop
  endfacet
  facet normal 0 0 -1
    outer loop
      vertex -0.631427 24.0244 0
      vertex 0 28.35 0
      vertex 0 24.15 0
    endloop
  endfacet
  facet normal 0 0 -1
    outer loop
      vertex -0.631427 24.0244 0
      vertex -0.631427 28.4756 0
      vertex 0 28.35 0
    endloop
  endfacet
  facet normal 0 0 -1
    outer loop
      vertex -1.16673 23.6667 0
      vertex -0.631427 28.4756 0
      vertex -0.631427 24.0244 0
    endloop
  endfacet
  facet normal 0 0 -1
    outer loop
      vertex -1.16673 23.6667 0
      vertex -1.16673 28.8333 0
      vertex -0.631427 28.4756 0
    endloop
  endfacet
  facet normal 0 0 -1
    outer loop
      vertex -1.5244 23.1314 0
      vertex -1.16673 28.8333 0
      vertex -1.16673 23.6667 0
    endloop
  endfacet
  facet normal 0 0 -1
    outer loop
      vertex -1.5244 23.1314 0
      vertex -1.5244 29.3686 0
      vertex -1.16673 28.8333 0
    endloop
  endfacet
  facet normal 0 0 -1
    outer loop
      vertex -1.65 22.5 0
      vertex -1.5244 29.3686 0
      vertex -1.5244 23.1314 0
    endloop
  endfacet
  facet normal -0 0 -1
    outer loop
      vertex -1.5244 29.3686 0
      vertex -1.65 22.5 0
      vertex -1.65 30 0
    endloop
  endfacet
  facet normal 0 0 -1
    outer loop
      vertex 16 -7.5 0
      vertex 12.65 0 0
      vertex 16 9.5 0
    endloop
  endfacet
  facet normal 0 0 -1
    outer loop
      vertex 16 -7.5 0
      vertex 12.5244 -0.631427 0
      vertex 12.65 0 0
    endloop
  endfacet
  facet normal 0 0 -1
    outer loop
      vertex 16 -7.5 0
      vertex 12.1667 -1.16673 0
      vertex 12.5244 -0.631427 0
    endloop
  endfacet
  facet normal 0 0 -1
    outer loop
      vertex 16 -7.5 0
      vertex 11.6314 -1.5244 0
      vertex 12.1667 -1.16673 0
    endloop
  endfacet
  facet normal 0 0 -1
    outer loop
      vertex 16 -7.5 0
      vertex 11 -1.65 0
      vertex 11.6314 -1.5244 0
    endloop
  endfacet
  facet normal 0 0 -1
    outer loop
      vertex 16 -7.5 0
      vertex 10.3686 -1.5244 0
      vertex 11 -1.65 0
    endloop
  endfacet
  facet normal 0 0 -1
    outer loop
      vertex -10.3686 -1.5244 0
      vertex 10.3686 -1.5244 0
      vertex 16 -7.5 0
    endloop
  endfacet
  facet normal 0 0 -1
    outer loop
      vertex 16 9.5 0
      vertex 2.2 40 0
      vertex 6 46 0
    endloop
  endfacet
  facet normal 0 0 -1
    outer loop
      vertex 9.4756 0.631427 0
      vertex 1.65 30 0
      vertex 2.2 40 0
    endloop
  endfacet
  facet normal 0 0 -1
    outer loop
      vertex 9.4756 0.631427 0
      vertex 1.65 22.5 0
      vertex 1.65 30 0
    endloop
  endfacet
  facet normal 0 0 -1
    outer loop
      vertex -9.35 0 0
      vertex 9.35 0 0
      vertex 9.4756 -0.631427 0
    endloop
  endfacet
  facet normal 0 0 -1
    outer loop
      vertex 9.4756 0.631427 0
      vertex 1.5244 21.8686 0
      vertex 1.65 22.5 0
    endloop
  endfacet
  facet normal 0 0 -1
    outer loop
      vertex 9.4756 0.631427 0
      vertex 1.16673 21.3333 0
      vertex 1.5244 21.8686 0
    endloop
  endfacet
  facet normal 0 0 -1
    outer loop
      vertex 9.4756 0.631427 0
      vertex 0.631427 20.9756 0
      vertex 1.16673 21.3333 0
    endloop
  endfacet
  facet normal 0 0 -1
    outer loop
      vertex 9.4756 0.631427 0
      vertex 0 20.85 0
      vertex 0.631427 20.9756 0
    endloop
  endfacet
  facet normal 0 0 -1
    outer loop
      vertex 9.4756 0.631427 0
      vertex -9.83327 1.16673 0
      vertex 0 20.85 0
    endloop
  endfacet
  facet normal -0 0 -1
    outer loop
      vertex 0 20.85 0
      vertex -9.83327 1.16673 0
      vertex -0.631427 20.9756 0
    endloop
  endfacet
  facet normal 0 0 -1
    outer loop
      vertex -10.3686 1.5244 0
      vertex -0.631427 20.9756 0
      vertex -9.83327 1.16673 0
    endloop
  endfacet
  facet normal 0 0 -1
    outer loop
      vertex -16 9.5 0
      vertex -1.65 30 0
      vertex -1.65 22.5 0
    endloop
  endfacet
  facet normal 0 -0 -1
    outer loop
      vertex -6 46 0
      vertex -1.65 30 0
      vertex -16 9.5 0
    endloop
  endfacet
  facet normal 0 0 -1
    outer loop
      vertex -1.65 30 0
      vertex -6 46 0
      vertex -2.03253 39.1581 0
    endloop
  endfacet
  facet normal 0 0 -1
    outer loop
      vertex -16 9.5 0
      vertex -0.631427 20.9756 0
      vertex -10.3686 1.5244 0
    endloop
  endfacet
  facet normal 0 0 -1
    outer loop
      vertex 9.4756 0.631427 0
      vertex -9.4756 0.631427 0
      vertex -9.83327 1.16673 0
    endloop
  endfacet
  facet normal 0 0 -1
    outer loop
      vertex 9.35 0 0
      vertex -9.35 0 0
      vertex -9.4756 0.631427 0
    endloop
  endfacet
  facet normal 0 0 -1
    outer loop
      vertex -9.4756 -0.631427 0
      vertex 9.4756 -0.631427 0
      vertex 9.83327 -1.16673 0
    endloop
  endfacet
  facet normal 0 0 -1
    outer loop
      vertex 10.3686 -1.5244 0
      vertex -10.3686 -1.5244 0
      vertex 9.83327 -1.16673 0
    endloop
  endfacet
  facet normal 0 0 -1
    outer loop
      vertex 9.4756 -0.631427 0
      vertex -9.4756 -0.631427 0
      vertex -9.35 0 0
    endloop
  endfacet
  facet normal 0 0 -1
    outer loop
      vertex 9.83327 -1.16673 0
      vertex -9.83327 -1.16673 0
      vertex -9.4756 -0.631427 0
    endloop
  endfacet
  facet normal -0 0 -1
    outer loop
      vertex 9.83327 -1.16673 0
      vertex -10.3686 -1.5244 0
      vertex -9.83327 -1.16673 0
    endloop
  endfacet
  facet normal 0 0 -1
    outer loop
      vertex -16 -7.5 0
      vertex -10.3686 -1.5244 0
      vertex 16 -7.5 0
    endloop
  endfacet
  facet normal 0 0 -1
    outer loop
      vertex -10.3686 -1.5244 0
      vertex -16 -7.5 0
      vertex -11 -1.65 0
    endloop
  endfacet
  facet normal -0 0 -1
    outer loop
      vertex -12.5244 -0.631427 0
      vertex -16 -7.5 0
      vertex -12.65 0 0
    endloop
  endfacet
  facet normal -0 0 -1
    outer loop
      vertex -12.1667 -1.16673 0
      vertex -16 -7.5 0
      vertex -12.5244 -0.631427 0
    endloop
  endfacet
  facet normal -0 0 -1
    outer loop
      vertex -11.6314 -1.5244 0
      vertex -16 -7.5 0
      vertex -12.1667 -1.16673 0
    endloop
  endfacet
  facet normal -0 0 -1
    outer loop
      vertex -11 -1.65 0
      vertex -16 -7.5 0
      vertex -11.6314 -1.5244 0
    endloop
  endfacet
  facet normal 0 0 -1
    outer loop
      vertex 12.5244 0.631427 0
      vertex 16 9.5 0
      vertex 12.65 0 0
    endloop
  endfacet
  facet normal 0 0 -1
    outer loop
      vertex 12.1667 1.16673 0
      vertex 16 9.5 0
      vertex 12.5244 0.631427 0
    endloop
  endfacet
  facet normal 0 0 -1
    outer loop
      vertex 11.6314 1.5244 0
      vertex 16 9.5 0
      vertex 12.1667 1.16673 0
    endloop
  endfacet
  facet normal 0 0 -1
    outer loop
      vertex 11 1.65 0
      vertex 16 9.5 0
      vertex 11.6314 1.5244 0
    endloop
  endfacet
  facet normal 0 0 -1
    outer loop
      vertex 10.3686 1.5244 0
      vertex 16 9.5 0
      vertex 11 1.65 0
    endloop
  endfacet
  facet normal 0 0 -1
    outer loop
      vertex 9.83327 1.16673 0
      vertex 16 9.5 0
      vertex 10.3686 1.5244 0
    endloop
  endfacet
  facet normal 0 0 -1
    outer loop
      vertex 2.2 40 0
      vertex 16 9.5 0
      vertex 9.83327 1.16673 0
    endloop
  endfacet
  facet normal 0 0 -1
    outer loop
      vertex 2.2 40 0
      vertex 9.83327 1.16673 0
      vertex 9.4756 0.631427 0
    endloop
  endfacet
  facet normal 0 0 -1
    outer loop
      vertex -9.4756 0.631427 0
      vertex 9.4756 0.631427 0
      vertex 9.35 0 0
    endloop
  endfacet
  facet normal 0 0 -1
    outer loop
      vertex 2.03253 40.8419 0
      vertex 6 46 0
      vertex 2.2 40 0
    endloop
  endfacet
  facet normal 0 0 -1
    outer loop
      vertex 1.55563 41.5556 0
      vertex 6 46 0
      vertex 2.03253 40.8419 0
    endloop
  endfacet
  facet normal 0 0 -1
    outer loop
      vertex 0.841903 42.0325 0
      vertex 6 46 0
      vertex 1.55563 41.5556 0
    endloop
  endfacet
  facet normal 0 0 -1
    outer loop
      vertex 0 42.2 0
      vertex 6 46 0
      vertex 0.841903 42.0325 0
    endloop
  endfacet
  facet normal 0 0 -1
    outer loop
      vertex -6 46 0
      vertex 0 42.2 0
      vertex -0.841903 42.0325 0
    endloop
  endfacet
  facet normal 0 0 -1
    outer loop
      vertex 0 42.2 0
      vertex -6 46 0
      vertex 6 46 0
    endloop
  endfacet
  facet normal 0 0 -1
    outer loop
      vertex -1.55563 41.5556 0
      vertex -6 46 0
      vertex -0.841903 42.0325 0
    endloop
  endfacet
  facet normal 0 0 -1
    outer loop
      vertex -2.03253 40.8419 0
      vertex -6 46 0
      vertex -1.55563 41.5556 0
    endloop
  endfacet
  facet normal 0 0 -1
    outer loop
      vertex -6 46 0
      vertex -2.03253 40.8419 0
      vertex -2.2 40 0
    endloop
  endfacet
  facet normal 0 0 -1
    outer loop
      vertex 2.2 40 0
      vertex 1.65 30 0
      vertex 2.03253 39.1581 0
    endloop
  endfacet
  facet normal 0 0 -1
    outer loop
      vertex 1.5244 30.6314 0
      vertex 2.03253 39.1581 0
      vertex 1.65 30 0
    endloop
  endfacet
  facet normal 0 0 -1
    outer loop
      vertex 2.03253 39.1581 0
      vertex 1.5244 30.6314 0
      vertex 1.55563 38.4444 0
    endloop
  endfacet
  facet normal 0 0 -1
    outer loop
      vertex 1.16673 31.1667 0
      vertex 1.55563 38.4444 0
      vertex 1.5244 30.6314 0
    endloop
  endfacet
  facet normal 0 0 -1
    outer loop
      vertex 1.16673 31.1667 0
      vertex 0.841903 37.9675 0
      vertex 1.55563 38.4444 0
    endloop
  endfacet
  facet normal 0 0 -1
    outer loop
      vertex 0.631427 31.5244 0
      vertex 0.841903 37.9675 0
      vertex 1.16673 31.1667 0
    endloop
  endfacet
  facet normal 0 0 -1
    outer loop
      vertex 0 37.8 0
      vertex 0.631427 31.5244 0
      vertex 0 31.65 0
    endloop
  endfacet
  facet normal 0 0 -1
    outer loop
      vertex 0.631427 31.5244 0
      vertex 0 37.8 0
      vertex 0.841903 37.9675 0
    endloop
  endfacet
  facet normal 0 0 -1
    outer loop
      vertex -0.631427 31.5244 0
      vertex 0 37.8 0
      vertex 0 31.65 0
    endloop
  endfacet
  facet normal 0 0 -1
    outer loop
      vertex -0.631427 31.5244 0
      vertex -0.841903 37.9675 0
      vertex 0 37.8 0
    endloop
  endfacet
  facet normal 0 0 -1
    outer loop
      vertex -1.16673 31.1667 0
      vertex -0.841903 37.9675 0
      vertex -0.631427 31.5244 0
    endloop
  endfacet
  facet normal 0 0 -1
    outer loop
      vertex -1.55563 38.4444 0
      vertex -1.16673 31.1667 0
      vertex -1.5244 30.6314 0
    endloop
  endfacet
  facet normal 0 0 -1
    outer loop
      vertex -1.16673 31.1667 0
      vertex -1.55563 38.4444 0
      vertex -0.841903 37.9675 0
    endloop
  endfacet
  facet normal 0 0 -1
    outer loop
      vertex -2.03253 39.1581 0
      vertex -1.5244 30.6314 0
      vertex -1.65 30 0
    endloop
  endfacet
  facet normal 0 0 -1
    outer loop
      vertex -1.5244 30.6314 0
      vertex -2.03253 39.1581 0
      vertex -1.55563 38.4444 0
    endloop
  endfacet
  facet normal -0 0 -1
    outer loop
      vertex -0.631427 20.9756 0
      vertex -16 9.5 0
      vertex -1.16673 21.3333 0
    endloop
  endfacet
  facet normal -0 0 -1
    outer loop
      vertex -1.16673 21.3333 0
      vertex -16 9.5 0
      vertex -1.5244 21.8686 0
    endloop
  endfacet
  facet normal -0 0 -1
    outer loop
      vertex -1.5244 21.8686 0
      vertex -16 9.5 0
      vertex -1.65 22.5 0
    endloop
  endfacet
  facet normal 0 0 -1
    outer loop
      vertex -16 9.5 0
      vertex -10.3686 1.5244 0
      vertex -11 1.65 0
    endloop
  endfacet
  facet normal 0 0 -1
    outer loop
      vertex -16 9.5 0
      vertex -11 1.65 0
      vertex -11.6314 1.5244 0
    endloop
  endfacet
  facet normal 0 0 -1
    outer loop
      vertex -16 9.5 0
      vertex -11.6314 1.5244 0
      vertex -12.1667 1.16673 0
    endloop
  endfacet
  facet normal 0 0 -1
    outer loop
      vertex -16 9.5 0
      vertex -12.1667 1.16673 0
      vertex -12.5244 0.631427 0
    endloop
  endfacet
  facet normal 0 0 -1
    outer loop
      vertex -16 9.5 0
      vertex -12.5244 0.631427 0
      vertex -12.65 0 0
    endloop
  endfacet
  facet normal 0 0 -1
    outer loop
      vertex -16 9.5 0
      vertex -12.65 0 0
      vertex -16 -7.5 0
    endloop
  endfacet
  facet normal 0 0 -1
    outer loop
      vertex -2.03253 39.1581 0
      vertex -6 46 0
      vertex -2.2 40 0
    endloop
  endfacet
  facet normal 0 1 -0
    outer loop
      vertex 6 46 0
      vertex -6 46 12
      vertex 6 46 12
    endloop
  endfacet
  facet normal 0 1 0
    outer loop
      vertex -6 46 12
      vertex 6 46 0
      vertex -6 46 0
    endloop
  endfacet
  facet normal 0 0 1
    outer loop
      vertex 16 8.125 6
      vertex 12.65 0 6
      vertex 16 -7.5 6
    endloop
  endfacet
  facet normal 0 0 1
    outer loop
      vertex 16 8.125 6
      vertex 12.5244 0.631427 6
      vertex 12.65 0 6
    endloop
  endfacet
  facet normal 0 0 1
    outer loop
      vertex 16 8.125 6
      vertex 12.1667 1.16673 6
      vertex 12.5244 0.631427 6
    endloop
  endfacet
  facet normal 0 0 1
    outer loop
      vertex 16 8.125 6
      vertex 11.6314 1.5244 6
      vertex 12.1667 1.16673 6
    endloop
  endfacet
  facet normal 0 0 1
    outer loop
      vertex 16 8.125 6
      vertex 11 1.65 6
      vertex 11.6314 1.5244 6
    endloop
  endfacet
  facet normal 0 0 1
    outer loop
      vertex 16 8.125 6
      vertex 10.3686 1.5244 6
      vertex 11 1.65 6
    endloop
  endfacet
  facet normal 0 0 1
    outer loop
      vertex 16 8.125 6
      vertex 9.83327 1.16673 6
      vertex 10.3686 1.5244 6
    endloop
  endfacet
  facet normal 0 0 1
    outer loop
      vertex 9.4756 0.631427 6
      vertex -9.35 0 6
      vertex 9.35 0 6
    endloop
  endfacet
  facet normal 0 0 1
    outer loop
      vertex -9.4756 0.631427 6
      vertex 9.4756 0.631427 6
      vertex 9.83327 1.16673 6
    endloop
  endfacet
  facet normal 0 0 1
    outer loop
      vertex -9.83327 1.16673 6
      vertex 9.83327 1.16673 6
      vertex 16 8.125 6
    endloop
  endfacet
  facet normal 0 0 1
    outer loop
      vertex 9.4756 0.631427 6
      vertex -9.4756 0.631427 6
      vertex -9.35 0 6
    endloop
  endfacet
  facet normal 0 0 1
    outer loop
      vertex 9.83327 1.16673 6
      vertex -9.83327 1.16673 6
      vertex -9.4756 0.631427 6
    endloop
  endfacet
  facet normal -0 0 1
    outer loop
      vertex -16 8.125 6
      vertex -9.83327 1.16673 6
      vertex 16 8.125 6
    endloop
  endfacet
  facet normal 0 0 1
    outer loop
      vertex -9.83327 1.16673 6
      vertex -16 8.125 6
      vertex -10.3686 1.5244 6
    endloop
  endfacet
  facet normal 0 0 1
    outer loop
      vertex -10.3686 1.5244 6
      vertex -16 8.125 6
      vertex -11 1.65 6
    endloop
  endfacet
  facet normal 0 0 1
    outer loop
      vertex -12.5244 0.631427 6
      vertex -16 8.125 6
      vertex -12.65 0 6
    endloop
  endfacet
  facet normal 0 0 1
    outer loop
      vertex -12.1667 1.16673 6
      vertex -16 8.125 6
      vertex -12.5244 0.631427 6
    endloop
  endfacet
  facet normal 0 0 1
    outer loop
      vertex -11.6314 1.5244 6
      vertex -16 8.125 6
      vertex -12.1667 1.16673 6
    endloop
  endfacet
  facet normal 0 0 1
    outer loop
      vertex -11 1.65 6
      vertex -16 8.125 6
      vertex -11.6314 1.5244 6
    endloop
  endfacet
  facet normal -0 0 1
    outer loop
      vertex 12.5244 -0.631427 6
      vertex 16 -7.5 6
      vertex 12.65 0 6
    endloop
  endfacet
  facet normal -0 0 1
    outer loop
      vertex 12.1667 -1.16673 6
      vertex 16 -7.5 6
      vertex 12.5244 -0.631427 6
    endloop
  endfacet
  facet normal -0 0 1
    outer loop
      vertex 11.6314 -1.5244 6
      vertex 16 -7.5 6
      vertex 12.1667 -1.16673 6
    endloop
  endfacet
  facet normal -0 0 1
    outer loop
      vertex 11 -1.65 6
      vertex 16 -7.5 6
      vertex 11.6314 -1.5244 6
    endloop
  endfacet
  facet normal 0 0 1
    outer loop
      vertex 10.3686 -1.5244 6
      vertex 16 -7.5 6
      vertex 11 -1.65 6
    endloop
  endfacet
  facet normal 0 0 1
    outer loop
      vertex -10.3686 -1.5244 6
      vertex 10.3686 -1.5244 6
      vertex 9.83327 -1.16673 6
    endloop
  endfacet
  facet normal -0 0 1
    outer loop
      vertex -9.35 0 6
      vertex 9.4756 -0.631427 6
      vertex 9.35 0 6
    endloop
  endfacet
  facet normal 0 0 1
    outer loop
      vertex -9.4756 -0.631427 6
      vertex 9.4756 -0.631427 6
      vertex -9.35 0 6
    endloop
  endfacet
  facet normal 0 0 1
    outer loop
      vertex 9.4756 -0.631427 6
      vertex -9.4756 -0.631427 6
      vertex 9.83327 -1.16673 6
    endloop
  endfacet
  facet normal 0 0 1
    outer loop
      vertex -9.83327 -1.16673 6
      vertex 9.83327 -1.16673 6
      vertex -9.4756 -0.631427 6
    endloop
  endfacet
  facet normal 0 0 1
    outer loop
      vertex -10.3686 -1.5244 6
      vertex 9.83327 -1.16673 6
      vertex -9.83327 -1.16673 6
    endloop
  endfacet
  facet normal 0 0 1
    outer loop
      vertex 10.3686 -1.5244 6
      vertex -10.3686 -1.5244 6
      vertex 16 -7.5 6
    endloop
  endfacet
  facet normal 0 0 1
    outer loop
      vertex -16 -7.5 6
      vertex -10.3686 -1.5244 6
      vertex -11 -1.65 6
    endloop
  endfacet
  facet normal 0 0 1
    outer loop
      vertex -16 -7.5 6
      vertex -11 -1.65 6
      vertex -11.6314 -1.5244 6
    endloop
  endfacet
  facet normal 0 0 1
    outer loop
      vertex -16 -7.5 6
      vertex -12.65 0 6
      vertex -16 8.125 6
    endloop
  endfacet
  facet normal 0 0 1
    outer loop
      vertex -10.3686 -1.5244 6
      vertex -16 -7.5 6
      vertex 16 -7.5 6
    endloop
  endfacet
  facet normal 0 0 1
    outer loop
      vertex -12.1667 -1.16673 6
      vertex -16 -7.5 6
      vertex -11.6314 -1.5244 6
    endloop
  endfacet
  facet normal 0 0 1
    outer loop
      vertex -12.5244 -0.631427 6
      vertex -16 -7.5 6
      vertex -12.1667 -1.16673 6
    endloop
  endfacet
  facet normal 0 0 1
    outer loop
      vertex -12.65 0 6
      vertex -16 -7.5 6
      vertex -12.5244 -0.631427 6
    endloop
  endfacet
  facet normal 0 -1 0
    outer loop
      vertex -16 -7.5 0
      vertex 16 -7.5 6
      vertex -16 -7.5 6
    endloop
  endfacet
  facet normal 0 -1 -0
    outer loop
      vertex 16 -7.5 6
      vertex -16 -7.5 0
      vertex 16 -7.5 0
    endloop
  endfacet
  facet normal -0.980785 -0.19509 0
    outer loop
      vertex 2.2 40 0
      vertex 2.03253 40.8419 6
      vertex 2.03253 40.8419 0
    endloop
  endfacet
  facet normal -0.980785 -0.19509 0
    outer loop
      vertex 2.03253 40.8419 6
      vertex 2.2 40 0
      vertex 2.2 40 6
    endloop
  endfacet
  facet normal 0.195091 -0.980785 0
    outer loop
      vertex -0.841903 42.0325 0
      vertex 0 42.2 6
      vertex -0.841903 42.0325 6
    endloop
  endfacet
  facet normal 0.195091 -0.980785 0
    outer loop
      vertex 0 42.2 6
      vertex -0.841903 42.0325 0
      vertex 0 42.2 0
    endloop
  endfacet
  facet normal 0.980785 0.19509 0
    outer loop
      vertex -2.03253 39.1581 6
      vertex -2.2 40 0
      vertex -2.2 40 6
    endloop
  endfacet
  facet normal 0.980785 0.19509 0
    outer loop
      vertex -2.2 40 0
      vertex -2.03253 39.1581 6
      vertex -2.03253 39.1581 0
    endloop
  endfacet
  facet normal -0.555572 -0.831469 0
    outer loop
      vertex 0.841903 42.0325 0
      vertex 1.55563 41.5556 6
      vertex 0.841903 42.0325 6
    endloop
  endfacet
  facet normal -0.555572 -0.831469 -0
    outer loop
      vertex 1.55563 41.5556 6
      vertex 0.841903 42.0325 0
      vertex 1.55563 41.5556 0
    endloop
  endfacet
  facet normal -0.831469 -0.555571 0
    outer loop
      vertex 2.03253 40.8419 0
      vertex 1.55563 41.5556 6
      vertex 1.55563 41.5556 0
    endloop
  endfacet
  facet normal -0.831469 -0.555571 0
    outer loop
      vertex 1.55563 41.5556 6
      vertex 2.03253 40.8419 0
      vertex 2.03253 40.8419 6
    endloop
  endfacet
  facet normal 0.555572 -0.831469 0
    outer loop
      vertex -1.55563 41.5556 0
      vertex -0.841903 42.0325 6
      vertex -1.55563 41.5556 6
    endloop
  endfacet
  facet normal 0.555572 -0.831469 0
    outer loop
      vertex -0.841903 42.0325 6
      vertex -1.55563 41.5556 0
      vertex -0.841903 42.0325 0
    endloop
  endfacet
  facet normal 0.831469 -0.555571 0
    outer loop
      vertex -2.03253 40.8419 6
      vertex -1.55563 41.5556 0
      vertex -1.55563 41.5556 6
    endloop
  endfacet
  facet normal 0.831469 -0.555571 0
    outer loop
      vertex -1.55563 41.5556 0
      vertex -2.03253 40.8419 6
      vertex -2.03253 40.8419 0
    endloop
  endfacet
  facet normal 0.831469 0.555571 0
    outer loop
      vertex -1.55563 38.4444 6
      vertex -2.03253 39.1581 0
      vertex -2.03253 39.1581 6
    endloop
  endfacet
  facet normal 0.831469 0.555571 0
    outer loop
      vertex -2.03253 39.1581 0
      vertex -1.55563 38.4444 6
      vertex -1.55563 38.4444 0
    endloop
  endfacet
  facet normal -0.195091 -0.980785 0
    outer loop
      vertex 0 42.2 0
      vertex 0.841903 42.0325 6
      vertex 0 42.2 6
    endloop
  endfacet
  facet normal -0.195091 -0.980785 -0
    outer loop
      vertex 0.841903 42.0325 6
      vertex 0 42.2 0
      vertex 0.841903 42.0325 0
    endloop
  endfacet
  facet normal 0.980785 -0.19509 0
    outer loop
      vertex -2.2 40 6
      vertex -2.03253 40.8419 0
      vertex -2.03253 40.8419 6
    endloop
  endfacet
  facet normal 0.980785 -0.19509 0
    outer loop
      vertex -2.03253 40.8419 0
      vertex -2.2 40 6
      vertex -2.2 40 0
    endloop
  endfacet
  facet normal -0.555572 0.831469 0
    outer loop
      vertex 1.55563 38.4444 0
      vertex 0.841903 37.9675 6
      vertex 1.55563 38.4444 6
    endloop
  endfacet
  facet normal -0.555572 0.831469 0
    outer loop
      vertex 0.841903 37.9675 6
      vertex 1.55563 38.4444 0
      vertex 0.841903 37.9675 0
    endloop
  endfacet
  facet normal -0.831469 0.555571 0
    outer loop
      vertex 1.55563 38.4444 0
      vertex 2.03253 39.1581 6
      vertex 2.03253 39.1581 0
    endloop
  endfacet
  facet normal -0.831469 0.555571 0
    outer loop
      vertex 2.03253 39.1581 6
      vertex 1.55563 38.4444 0
      vertex 1.55563 38.4444 6
    endloop
  endfacet
  facet normal -0.980785 0.19509 0
    outer loop
      vertex 2.03253 39.1581 0
      vertex 2.2 40 6
      vertex 2.2 40 0
    endloop
  endfacet
  facet normal -0.980785 0.19509 0
    outer loop
      vertex 2.2 40 6
      vertex 2.03253 39.1581 0
      vertex 2.03253 39.1581 6
    endloop
  endfacet
  facet normal 0.555572 0.831469 -0
    outer loop
      vertex -0.841903 37.9675 0
      vertex -1.55563 38.4444 6
      vertex -0.841903 37.9675 6
    endloop
  endfacet
  facet normal 0.555572 0.831469 0
    outer loop
      vertex -1.55563 38.4444 6
      vertex -0.841903 37.9675 0
      vertex -1.55563 38.4444 0
    endloop
  endfacet
  facet normal -0.195091 0.980785 0
    outer loop
      vertex 0.841903 37.9675 0
      vertex 0 37.8 6
      vertex 0.841903 37.9675 6
    endloop
  endfacet
  facet normal -0.195091 0.980785 0
    outer loop
      vertex 0 37.8 6
      vertex 0.841903 37.9675 0
      vertex 0 37.8 0
    endloop
  endfacet
  facet normal 0.195091 0.980785 -0
    outer loop
      vertex 0 37.8 0
      vertex -0.841903 37.9675 6
      vertex 0 37.8 6
    endloop
  endfacet
  facet normal 0.195091 0.980785 0
    outer loop
      vertex -0.841903 37.9675 6
      vertex 0 37.8 0
      vertex -0.841903 37.9675 0
    endloop
  endfacet
  facet normal -0.980785 -0.19509 0
    outer loop
      vertex 5.2 40 6
      vertex 4.80417 41.99 12.9888
      vertex 4.80417 41.99 6
    endloop
  endfacet
  facet normal -0.980785 -0.19509 0
    outer loop
      vertex 4.80417 41.99 12.9888
      vertex 5.2 40 6
      vertex 5.2 40 13.4795
    endloop
  endfacet
  facet normal 0.195091 -0.980785 0
    outer loop
      vertex -1.98995 44.8042 6
      vertex 0 45.2 12.1973
      vertex -1.98995 44.8042 12.2949
    endloop
  endfacet
  facet normal 0.195091 -0.980785 0
    outer loop
      vertex 0 45.2 12.1973
      vertex -1.98995 44.8042 6
      vertex 0 45.2 6
    endloop
  endfacet
  facet normal 0.980785 0.19509 -0
    outer loop
      vertex -4.80417 38.01 6
      vertex -5.2 40 13.4795
      vertex -4.80417 38.01 13.9701
    endloop
  endfacet
  facet normal 0.980785 0.19509 0
    outer loop
      vertex -5.2 40 13.4795
      vertex -4.80417 38.01 6
      vertex -5.2 40 6
    endloop
  endfacet
  facet normal -0.555569 -0.83147 0
    outer loop
      vertex 3.67696 43.677 6
      vertex 1.98995 44.8042 12.2949
      vertex 1.98995 44.8042 6
    endloop
  endfacet
  facet normal -0.555569 -0.83147 0
    outer loop
      vertex 1.98995 44.8042 12.2949
      vertex 3.67696 43.677 6
      vertex 3.67696 43.677 12.5728
    endloop
  endfacet
  facet normal -0.83147 -0.55557 0
    outer loop
      vertex 4.80417 41.99 6
      vertex 3.67696 43.677 12.5728
      vertex 3.67696 43.677 6
    endloop
  endfacet
  facet normal -0.83147 -0.55557 0
    outer loop
      vertex 3.67696 43.677 12.5728
      vertex 4.80417 41.99 6
      vertex 4.80417 41.99 12.9888
    endloop
  endfacet
  facet normal 0 0 1
    outer loop
      vertex 2.2 40 6
      vertex 5.2 40 6
      vertex 4.80417 41.99 6
    endloop
  endfacet
  facet normal 0 0 1
    outer loop
      vertex 2.03253 40.8419 6
      vertex 4.80417 41.99 6
      vertex 3.67696 43.677 6
    endloop
  endfacet
  facet normal 0 0 1
    outer loop
      vertex 5.2 40 6
      vertex 2.2 40 6
      vertex 4.80417 38.01 6
    endloop
  endfacet
  facet normal -0 0 1
    outer loop
      vertex 2.03253 39.1581 6
      vertex 4.80417 38.01 6
      vertex 2.2 40 6
    endloop
  endfacet
  facet normal 0 0 1
    outer loop
      vertex 4.80417 41.99 6
      vertex 2.03253 40.8419 6
      vertex 2.2 40 6
    endloop
  endfacet
  facet normal 0 0 1
    outer loop
      vertex 1.55563 41.5556 6
      vertex 3.67696 43.677 6
      vertex 1.98995 44.8042 6
    endloop
  endfacet
  facet normal 0 0 1
    outer loop
      vertex 3.67696 43.677 6
      vertex 1.55563 41.5556 6
      vertex 2.03253 40.8419 6
    endloop
  endfacet
  facet normal 0 0 1
    outer loop
      vertex 1.98995 44.8042 6
      vertex 0.841903 42.0325 6
      vertex 1.55563 41.5556 6
    endloop
  endfacet
  facet normal 0 0 1
    outer loop
      vertex 0 45.2 6
      vertex 0.841903 42.0325 6
      vertex 1.98995 44.8042 6
    endloop
  endfacet
  facet normal 0 0 1
    outer loop
      vertex 0 45.2 6
      vertex 0 42.2 6
      vertex 0.841903 42.0325 6
    endloop
  endfacet
  facet normal 0 0 1
    outer loop
      vertex 0 45.2 6
      vertex -0.841903 42.0325 6
      vertex 0 42.2 6
    endloop
  endfacet
  facet normal -0 0 1
    outer loop
      vertex -1.98995 44.8042 6
      vertex -0.841903 42.0325 6
      vertex 0 45.2 6
    endloop
  endfacet
  facet normal 0 0 1
    outer loop
      vertex -0.841903 42.0325 6
      vertex -1.98995 44.8042 6
      vertex -1.55563 41.5556 6
    endloop
  endfacet
  facet normal -0 0 1
    outer loop
      vertex -3.67696 43.677 6
      vertex -1.55563 41.5556 6
      vertex -1.98995 44.8042 6
    endloop
  endfacet
  facet normal 0 0 1
    outer loop
      vertex -1.55563 41.5556 6
      vertex -3.67696 43.677 6
      vertex -2.03253 40.8419 6
    endloop
  endfacet
  facet normal -0 0 1
    outer loop
      vertex -4.80417 41.99 6
      vertex -2.03253 40.8419 6
      vertex -3.67696 43.677 6
    endloop
  endfacet
  facet normal 0 0 1
    outer loop
      vertex 4.80417 38.01 6
      vertex 2.03253 39.1581 6
      vertex 3.67696 36.323 6
    endloop
  endfacet
  facet normal -0 0 1
    outer loop
      vertex 1.55563 38.4444 6
      vertex 3.67696 36.323 6
      vertex 2.03253 39.1581 6
    endloop
  endfacet
  facet normal 0 0 1
    outer loop
      vertex 3.67696 36.323 6
      vertex 1.55563 38.4444 6
      vertex 1.98995 35.1958 6
    endloop
  endfacet
  facet normal -0 0 1
    outer loop
      vertex 0.841903 37.9675 6
      vertex 1.98995 35.1958 6
      vertex 1.55563 38.4444 6
    endloop
  endfacet
  facet normal -0 0 1
    outer loop
      vertex 0 37.8 6
      vertex 1.98995 35.1958 6
      vertex 0.841903 37.9675 6
    endloop
  endfacet
  facet normal 0 0 1
    outer loop
      vertex 0 37.8 6
      vertex 0 34.8 6
      vertex 1.98995 35.1958 6
    endloop
  endfacet
  facet normal 0 0 1
    outer loop
      vertex -0.841903 37.9675 6
      vertex 0 34.8 6
      vertex 0 37.8 6
    endloop
  endfacet
  facet normal 0 0 1
    outer loop
      vertex -1.98995 35.1958 6
      vertex -0.841903 37.9675 6
      vertex -1.55563 38.4444 6
    endloop
  endfacet
  facet normal 0 0 1
    outer loop
      vertex -0.841903 37.9675 6
      vertex -1.98995 35.1958 6
      vertex 0 34.8 6
    endloop
  endfacet
  facet normal 0 0 1
    outer loop
      vertex -3.67696 36.323 6
      vertex -1.55563 38.4444 6
      vertex -2.03253 39.1581 6
    endloop
  endfacet
  facet normal 0 0 1
    outer loop
      vertex -4.80417 38.01 6
      vertex -2.03253 39.1581 6
      vertex -2.2 40 6
    endloop
  endfacet
  facet normal 0 0 1
    outer loop
      vertex -2.03253 40.8419 6
      vertex -4.80417 41.99 6
      vertex -2.2 40 6
    endloop
  endfacet
  facet normal 0 0 1
    outer loop
      vertex -1.55563 38.4444 6
      vertex -3.67696 36.323 6
      vertex -1.98995 35.1958 6
    endloop
  endfacet
  facet normal 0 0 1
    outer loop
      vertex -5.2 40 6
      vertex -2.2 40 6
      vertex -4.80417 41.99 6
    endloop
  endfacet
  facet normal 0 0 1
    outer loop
      vertex -2.03253 39.1581 6
      vertex -4.80417 38.01 6
      vertex -3.67696 36.323 6
    endloop
  endfacet
  facet normal 0 0 1
    outer loop
      vertex -2.2 40 6
      vertex -5.2 40 6
      vertex -4.80417 38.01 6
    endloop
  endfacet
  facet normal 0.555569 -0.83147 0
    outer loop
      vertex -3.67696 43.677 6
      vertex -1.98995 44.8042 12.2949
      vertex -3.67696 43.677 12.5728
    endloop
  endfacet
  facet normal 0.555569 -0.83147 0
    outer loop
      vertex -1.98995 44.8042 12.2949
      vertex -3.67696 43.677 6
      vertex -1.98995 44.8042 6
    endloop
  endfacet
  facet normal 0.83147 -0.55557 0
    outer loop
      vertex -4.80417 41.99 6
      vertex -3.67696 43.677 12.5728
      vertex -4.80417 41.99 12.9888
    endloop
  endfacet
  facet normal 0.83147 -0.55557 0
    outer loop
      vertex -3.67696 43.677 12.5728
      vertex -4.80417 41.99 6
      vertex -3.67696 43.677 6
    endloop
  endfacet
  facet normal 0.83147 0.55557 -0
    outer loop
      vertex -3.67696 36.323 6
      vertex -4.80417 38.01 13.9701
      vertex -3.67696 36.323 14.3861
    endloop
  endfacet
  facet normal 0.83147 0.55557 0
    outer loop
      vertex -4.80417 38.01 13.9701
      vertex -3.67696 36.323 6
      vertex -4.80417 38.01 6
    endloop
  endfacet
  facet normal -0.195091 -0.980785 0
    outer loop
      vertex 1.98995 44.8042 6
      vertex 0 45.2 12.1973
      vertex 0 45.2 6
    endloop
  endfacet
  facet normal -0.195091 -0.980785 0
    outer loop
      vertex 0 45.2 12.1973
      vertex 1.98995 44.8042 6
      vertex 1.98995 44.8042 12.2949
    endloop
  endfacet
  facet normal 0.980785 -0.19509 0
    outer loop
      vertex -5.2 40 6
      vertex -4.80417 41.99 12.9888
      vertex -5.2 40 13.4795
    endloop
  endfacet
  facet normal 0.980785 -0.19509 0
    outer loop
      vertex -4.80417 41.99 12.9888
      vertex -5.2 40 6
      vertex -4.80417 41.99 6
    endloop
  endfacet
  facet normal -0.555571 0.831469 0
    outer loop
      vertex 1.98995 35.1958 6
      vertex 3.67696 36.323 14.3861
      vertex 3.67696 36.323 6
    endloop
  endfacet
  facet normal -0.555571 0.831469 0
    outer loop
      vertex 3.67696 36.323 14.3861
      vertex 1.98995 35.1958 6
      vertex 1.98995 35.1958 14.664
    endloop
  endfacet
  facet normal -0.83147 0.55557 0
    outer loop
      vertex 3.67696 36.323 6
      vertex 4.80417 38.01 13.9701
      vertex 4.80417 38.01 6
    endloop
  endfacet
  facet normal -0.83147 0.55557 0
    outer loop
      vertex 4.80417 38.01 13.9701
      vertex 3.67696 36.323 6
      vertex 3.67696 36.323 14.3861
    endloop
  endfacet
  facet normal -0.980785 0.19509 0
    outer loop
      vertex 4.80417 38.01 6
      vertex 5.2 40 13.4795
      vertex 5.2 40 6
    endloop
  endfacet
  facet normal -0.980785 0.19509 0
    outer loop
      vertex 5.2 40 13.4795
      vertex 4.80417 38.01 6
      vertex 4.80417 38.01 13.9701
    endloop
  endfacet
  facet normal 0.555571 0.831469 -0
    outer loop
      vertex -1.98995 35.1958 6
      vertex -3.67696 36.323 14.3861
      vertex -1.98995 35.1958 14.664
    endloop
  endfacet
  facet normal 0.555571 0.831469 0
    outer loop
      vertex -3.67696 36.323 14.3861
      vertex -1.98995 35.1958 6
      vertex -3.67696 36.323 6
    endloop
  endfacet
  facet normal -0.195089 0.980785 0
    outer loop
      vertex 0 34.8 6
      vertex 1.98995 35.1958 14.664
      vertex 1.98995 35.1958 6
    endloop
  endfacet
  facet normal -0.195089 0.980785 0
    outer loop
      vertex 1.98995 35.1958 14.664
      vertex 0 34.8 6
      vertex 0 34.8 14.7616
    endloop
  endfacet
  facet normal 0.195089 0.980785 -0
    outer loop
      vertex 0 34.8 6
      vertex -1.98995 35.1958 14.664
      vertex 0 34.8 14.7616
    endloop
  endfacet
  facet normal 0.195089 0.980785 0
    outer loop
      vertex -1.98995 35.1958 14.664
      vertex 0 34.8 6
      vertex -1.98995 35.1958 6
    endloop
  endfacet
  facet normal -0.980785 -0.19509 0
    outer loop
      vertex 1.65 30 0
      vertex 1.5244 30.6314 6
      vertex 1.5244 30.6314 0
    endloop
  endfacet
  facet normal -0.980785 -0.19509 0
    outer loop
      vertex 1.5244 30.6314 6
      vertex 1.65 30 0
      vertex 1.65 30 6
    endloop
  endfacet
  facet normal 0.195091 -0.980785 0
    outer loop
      vertex -0.631427 31.5244 0
      vertex 0 31.65 6
      vertex -0.631427 31.5244 6
    endloop
  endfacet
  facet normal 0.195091 -0.980785 0
    outer loop
      vertex 0 31.65 6
      vertex -0.631427 31.5244 0
      vertex 0 31.65 0
    endloop
  endfacet
  facet normal 0.980785 0.19509 0
    outer loop
      vertex -1.5244 29.3686 6
      vertex -1.65 30 0
      vertex -1.65 30 6
    endloop
  endfacet
  facet normal 0.980785 0.19509 0
    outer loop
      vertex -1.65 30 0
      vertex -1.5244 29.3686 6
      vertex -1.5244 29.3686 0
    endloop
  endfacet
  facet normal -0.55557 -0.83147 0
    outer loop
      vertex 0.631427 31.5244 0
      vertex 1.16673 31.1667 6
      vertex 0.631427 31.5244 6
    endloop
  endfacet
  facet normal -0.55557 -0.83147 -0
    outer loop
      vertex 1.16673 31.1667 6
      vertex 0.631427 31.5244 0
      vertex 1.16673 31.1667 0
    endloop
  endfacet
  facet normal -0.831469 -0.555571 0
    outer loop
      vertex 1.5244 30.6314 0
      vertex 1.16673 31.1667 6
      vertex 1.16673 31.1667 0
    endloop
  endfacet
  facet normal -0.831469 -0.555571 0
    outer loop
      vertex 1.16673 31.1667 6
      vertex 1.5244 30.6314 0
      vertex 1.5244 30.6314 6
    endloop
  endfacet
  facet normal 0.55557 -0.83147 0
    outer loop
      vertex -1.16673 31.1667 0
      vertex -0.631427 31.5244 6
      vertex -1.16673 31.1667 6
    endloop
  endfacet
  facet normal 0.55557 -0.83147 0
    outer loop
      vertex -0.631427 31.5244 6
      vertex -1.16673 31.1667 0
      vertex -0.631427 31.5244 0
    endloop
  endfacet
  facet normal 0.831469 -0.555571 0
    outer loop
      vertex -1.5244 30.6314 6
      vertex -1.16673 31.1667 0
      vertex -1.16673 31.1667 6
    endloop
  endfacet
  facet normal 0.831469 -0.555571 0
    outer loop
      vertex -1.16673 31.1667 0
      vertex -1.5244 30.6314 6
      vertex -1.5244 30.6314 0
    endloop
  endfacet
  facet normal 0.83147 0.555569 0
    outer loop
      vertex -1.16673 28.8333 6
      vertex -1.5244 29.3686 0
      vertex -1.5244 29.3686 6
    endloop
  endfacet
  facet normal 0.83147 0.555569 0
    outer loop
      vertex -1.5244 29.3686 0
      vertex -1.16673 28.8333 6
      vertex -1.16673 28.8333 0
    endloop
  endfacet
  facet normal -0.195091 -0.980785 0
    outer loop
      vertex 0 31.65 0
      vertex 0.631427 31.5244 6
      vertex 0 31.65 6
    endloop
  endfacet
  facet normal -0.195091 -0.980785 -0
    outer loop
      vertex 0.631427 31.5244 6
      vertex 0 31.65 0
      vertex 0.631427 31.5244 0
    endloop
  endfacet
  facet normal 0.980785 -0.19509 0
    outer loop
      vertex -1.65 30 6
      vertex -1.5244 30.6314 0
      vertex -1.5244 30.6314 6
    endloop
  endfacet
  facet normal 0.980785 -0.19509 0
    outer loop
      vertex -1.5244 30.6314 0
      vertex -1.65 30 6
      vertex -1.65 30 0
    endloop
  endfacet
  facet normal -0.55557 0.83147 0
    outer loop
      vertex 1.16673 28.8333 0
      vertex 0.631427 28.4756 6
      vertex 1.16673 28.8333 6
    endloop
  endfacet
  facet normal -0.55557 0.83147 0
    outer loop
      vertex 0.631427 28.4756 6
      vertex 1.16673 28.8333 0
      vertex 0.631427 28.4756 0
    endloop
  endfacet
  facet normal -0.83147 0.555569 0
    outer loop
      vertex 1.16673 28.8333 0
      vertex 1.5244 29.3686 6
      vertex 1.5244 29.3686 0
    endloop
  endfacet
  facet normal -0.83147 0.555569 0
    outer loop
      vertex 1.5244 29.3686 6
      vertex 1.16673 28.8333 0
      vertex 1.16673 28.8333 6
    endloop
  endfacet
  facet normal -0.980785 0.19509 0
    outer loop
      vertex 1.5244 29.3686 0
      vertex 1.65 30 6
      vertex 1.65 30 0
    endloop
  endfacet
  facet normal -0.980785 0.19509 0
    outer loop
      vertex 1.65 30 6
      vertex 1.5244 29.3686 0
      vertex 1.5244 29.3686 6
    endloop
  endfacet
  facet normal 0.55557 0.83147 -0
    outer loop
      vertex -0.631427 28.4756 0
      vertex -1.16673 28.8333 6
      vertex -0.631427 28.4756 6
    endloop
  endfacet
  facet normal 0.55557 0.83147 0
    outer loop
      vertex -1.16673 28.8333 6
      vertex -0.631427 28.4756 0
      vertex -1.16673 28.8333 0
    endloop
  endfacet
  facet normal -0.195091 0.980785 0
    outer loop
      vertex 0.631427 28.4756 0
      vertex 0 28.35 6
      vertex 0.631427 28.4756 6
    endloop
  endfacet
  facet normal -0.195091 0.980785 0
    outer loop
      vertex 0 28.35 6
      vertex 0.631427 28.4756 0
      vertex 0 28.35 0
    endloop
  endfacet
  facet normal 0.195091 0.980785 -0
    outer loop
      vertex 0 28.35 0
      vertex -0.631427 28.4756 6
      vertex 0 28.35 6
    endloop
  endfacet
  facet normal 0.195091 0.980785 0
    outer loop
      vertex -0.631427 28.4756 6
      vertex 0 28.35 0
      vertex -0.631427 28.4756 0
    endloop
  endfacet
  facet normal -0.980785 -0.195091 0
    outer loop
      vertex 3.9 30 6
      vertex 3.60313 31.4925 15.5772
      vertex 3.60313 31.4925 6
    endloop
  endfacet
  facet normal -0.980785 -0.195091 0
    outer loop
      vertex 3.60313 31.4925 15.5772
      vertex 3.9 30 6
      vertex 3.9 30 15.9452
    endloop
  endfacet
  facet normal 0.195091 -0.980785 0
    outer loop
      vertex -1.49247 33.6031 6
      vertex 0 33.9 14.9836
      vertex -1.49247 33.6031 15.0568
    endloop
  endfacet
  facet normal 0.195091 -0.980785 0
    outer loop
      vertex 0 33.9 14.9836
      vertex -1.49247 33.6031 6
      vertex 0 33.9 6
    endloop
  endfacet
  facet normal 0.980785 0.195091 -0
    outer loop
      vertex -3.60313 28.5075 6
      vertex -3.9 30 15.9452
      vertex -3.60313 28.5075 16.3132
    endloop
  endfacet
  facet normal 0.980785 0.195091 0
    outer loop
      vertex -3.9 30 15.9452
      vertex -3.60313 28.5075 6
      vertex -3.9 30 6
    endloop
  endfacet
  facet normal -0.55557 -0.83147 0
    outer loop
      vertex 2.75772 32.7577 6
      vertex 1.49247 33.6031 15.0568
      vertex 1.49247 33.6031 6
    endloop
  endfacet
  facet normal -0.55557 -0.83147 0
    outer loop
      vertex 1.49247 33.6031 15.0568
      vertex 2.75772 32.7577 6
      vertex 2.75772 32.7577 15.2652
    endloop
  endfacet
  facet normal -0.83147 -0.55557 0
    outer loop
      vertex 3.60313 31.4925 6
      vertex 2.75772 32.7577 15.2652
      vertex 2.75772 32.7577 6
    endloop
  endfacet
  facet normal -0.83147 -0.55557 0
    outer loop
      vertex 2.75772 32.7577 15.2652
      vertex 3.60313 31.4925 6
      vertex 3.60313 31.4925 15.5772
    endloop
  endfacet
  facet normal 0 0 1
    outer loop
      vertex 1.65 30 6
      vertex 3.9 30 6
      vertex 3.60313 31.4925 6
    endloop
  endfacet
  facet normal 0 0 1
    outer loop
      vertex 1.5244 30.6314 6
      vertex 3.60313 31.4925 6
      vertex 2.75772 32.7577 6
    endloop
  endfacet
  facet normal 0 0 1
    outer loop
      vertex 3.9 30 6
      vertex 1.65 30 6
      vertex 3.60313 28.5075 6
    endloop
  endfacet
  facet normal -0 0 1
    outer loop
      vertex 1.5244 29.3686 6
      vertex 3.60313 28.5075 6
      vertex 1.65 30 6
    endloop
  endfacet
  facet normal 0 0 1
    outer loop
      vertex 3.60313 31.4925 6
      vertex 1.5244 30.6314 6
      vertex 1.65 30 6
    endloop
  endfacet
  facet normal 0 0 1
    outer loop
      vertex 1.16673 31.1667 6
      vertex 2.75772 32.7577 6
      vertex 1.49247 33.6031 6
    endloop
  endfacet
  facet normal 0 0 1
    outer loop
      vertex 2.75772 32.7577 6
      vertex 1.16673 31.1667 6
      vertex 1.5244 30.6314 6
    endloop
  endfacet
  facet normal 0 0 1
    outer loop
      vertex 1.49247 33.6031 6
      vertex 0.631427 31.5244 6
      vertex 1.16673 31.1667 6
    endloop
  endfacet
  facet normal 0 0 1
    outer loop
      vertex 0 33.9 6
      vertex 0.631427 31.5244 6
      vertex 1.49247 33.6031 6
    endloop
  endfacet
  facet normal 0 0 1
    outer loop
      vertex 0 33.9 6
      vertex 0 31.65 6
      vertex 0.631427 31.5244 6
    endloop
  endfacet
  facet normal 0 0 1
    outer loop
      vertex 0 33.9 6
      vertex -0.631427 31.5244 6
      vertex 0 31.65 6
    endloop
  endfacet
  facet normal -0 0 1
    outer loop
      vertex -1.49247 33.6031 6
      vertex -0.631427 31.5244 6
      vertex 0 33.9 6
    endloop
  endfacet
  facet normal 0 0 1
    outer loop
      vertex -0.631427 31.5244 6
      vertex -1.49247 33.6031 6
      vertex -1.16673 31.1667 6
    endloop
  endfacet
  facet normal -0 0 1
    outer loop
      vertex -2.75772 32.7577 6
      vertex -1.16673 31.1667 6
      vertex -1.49247 33.6031 6
    endloop
  endfacet
  facet normal 0 0 1
    outer loop
      vertex -1.16673 31.1667 6
      vertex -2.75772 32.7577 6
      vertex -1.5244 30.6314 6
    endloop
  endfacet
  facet normal -0 0 1
    outer loop
      vertex -3.60313 31.4925 6
      vertex -1.5244 30.6314 6
      vertex -2.75772 32.7577 6
    endloop
  endfacet
  facet normal 0 0 1
    outer loop
      vertex 3.60313 28.5075 6
      vertex 1.5244 29.3686 6
      vertex 2.75772 27.2423 6
    endloop
  endfacet
  facet normal -0 0 1
    outer loop
      vertex 1.16673 28.8333 6
      vertex 2.75772 27.2423 6
      vertex 1.5244 29.3686 6
    endloop
  endfacet
  facet normal 0 0 1
    outer loop
      vertex 2.75772 27.2423 6
      vertex 1.16673 28.8333 6
      vertex 1.49247 26.3969 6
    endloop
  endfacet
  facet normal -0 0 1
    outer loop
      vertex 0.631427 28.4756 6
      vertex 1.49247 26.3969 6
      vertex 1.16673 28.8333 6
    endloop
  endfacet
  facet normal 0 0 1
    outer loop
      vertex 1.49247 26.3969 6
      vertex 0.631427 28.4756 6
      vertex 0.7541 26.25 6
    endloop
  endfacet
  facet normal 0 0 1
    outer loop
      vertex 1.65 22.5 6
      vertex 3.9 22.5 6
      vertex 3.60313 23.9925 6
    endloop
  endfacet
  facet normal 0 0 1
    outer loop
      vertex 1.5244 23.1314 6
      vertex 3.60313 23.9925 6
      vertex 2.75772 25.2577 6
    endloop
  endfacet
  facet normal 0 0 1
    outer loop
      vertex 3.9 22.5 6
      vertex 1.65 22.5 6
      vertex 3.60313 21.0075 6
    endloop
  endfacet
  facet normal -0 0 1
    outer loop
      vertex 1.5244 21.8686 6
      vertex 3.60313 21.0075 6
      vertex 1.65 22.5 6
    endloop
  endfacet
  facet normal 0 0 1
    outer loop
      vertex 3.60313 23.9925 6
      vertex 1.5244 23.1314 6
      vertex 1.65 22.5 6
    endloop
  endfacet
  facet normal 0 0 1
    outer loop
      vertex 1.16673 23.6667 6
      vertex 2.75772 25.2577 6
      vertex 1.49247 26.1031 6
    endloop
  endfacet
  facet normal 0 0 1
    outer loop
      vertex 2.75772 25.2577 6
      vertex 1.16673 23.6667 6
      vertex 1.5244 23.1314 6
    endloop
  endfacet
  facet normal 0 0 1
    outer loop
      vertex 0.631427 24.0244 6
      vertex 1.49247 26.1031 6
      vertex 0.7541 26.25 6
    endloop
  endfacet
  facet normal 0 0 1
    outer loop
      vertex 1.49247 26.1031 6
      vertex 0.631427 24.0244 6
      vertex 1.16673 23.6667 6
    endloop
  endfacet
  facet normal -0 0 1
    outer loop
      vertex 0 28.35 6
      vertex 0.7541 26.25 6
      vertex 0.631427 28.4756 6
    endloop
  endfacet
  facet normal 0 0 1
    outer loop
      vertex 0.7541 26.25 6
      vertex 0 28.35 6
      vertex -0.7541 26.25 6
    endloop
  endfacet
  facet normal 0 -0 1
    outer loop
      vertex 0 24.15 6
      vertex 0.7541 26.25 6
      vertex -0.7541 26.25 6
    endloop
  endfacet
  facet normal 0 0 1
    outer loop
      vertex -0.7541 26.25 6
      vertex 0 28.35 6
      vertex -0.631427 28.4756 6
    endloop
  endfacet
  facet normal 0 0 1
    outer loop
      vertex 0.7541 26.25 6
      vertex 0 24.15 6
      vertex 0.631427 24.0244 6
    endloop
  endfacet
  facet normal 0 0 1
    outer loop
      vertex 0 24.15 6
      vertex -0.7541 26.25 6
      vertex -0.631427 24.0244 6
    endloop
  endfacet
  facet normal 0 0 1
    outer loop
      vertex -1.49247 26.3969 6
      vertex -0.631427 28.4756 6
      vertex -1.16673 28.8333 6
    endloop
  endfacet
  facet normal 0 0 1
    outer loop
      vertex -0.631427 28.4756 6
      vertex -1.49247 26.3969 6
      vertex -0.7541 26.25 6
    endloop
  endfacet
  facet normal 0 0 1
    outer loop
      vertex -2.75772 27.2423 6
      vertex -1.16673 28.8333 6
      vertex -1.5244 29.3686 6
    endloop
  endfacet
  facet normal 0 0 1
    outer loop
      vertex -3.60313 28.5075 6
      vertex -1.5244 29.3686 6
      vertex -1.65 30 6
    endloop
  endfacet
  facet normal 0 0 1
    outer loop
      vertex -1.5244 30.6314 6
      vertex -3.60313 31.4925 6
      vertex -1.65 30 6
    endloop
  endfacet
  facet normal 0 0 1
    outer loop
      vertex -1.16673 28.8333 6
      vertex -2.75772 27.2423 6
      vertex -1.49247 26.3969 6
    endloop
  endfacet
  facet normal 0 0 1
    outer loop
      vertex -3.9 30 6
      vertex -1.65 30 6
      vertex -3.60313 31.4925 6
    endloop
  endfacet
  facet normal 0 0 1
    outer loop
      vertex -1.5244 29.3686 6
      vertex -3.60313 28.5075 6
      vertex -2.75772 27.2423 6
    endloop
  endfacet
  facet normal 0 0 1
    outer loop
      vertex -1.65 30 6
      vertex -3.9 30 6
      vertex -3.60313 28.5075 6
    endloop
  endfacet
  facet normal 0 0 1
    outer loop
      vertex 3.60313 21.0075 6
      vertex 1.5244 21.8686 6
      vertex 2.75772 19.7423 6
    endloop
  endfacet
  facet normal -0 0 1
    outer loop
      vertex 1.16673 21.3333 6
      vertex 2.75772 19.7423 6
      vertex 1.5244 21.8686 6
    endloop
  endfacet
  facet normal 0 0 1
    outer loop
      vertex 2.75772 19.7423 6
      vertex 1.16673 21.3333 6
      vertex 1.49247 18.8969 6
    endloop
  endfacet
  facet normal -0 0 1
    outer loop
      vertex 0.631427 20.9756 6
      vertex 1.49247 18.8969 6
      vertex 1.16673 21.3333 6
    endloop
  endfacet
  facet normal -0 0 1
    outer loop
      vertex 0 20.85 6
      vertex 1.49247 18.8969 6
      vertex 0.631427 20.9756 6
    endloop
  endfacet
  facet normal 0 0 1
    outer loop
      vertex 0 20.85 6
      vertex 0 18.6 6
      vertex 1.49247 18.8969 6
    endloop
  endfacet
  facet normal 0 0 1
    outer loop
      vertex -0.631427 20.9756 6
      vertex 0 18.6 6
      vertex 0 20.85 6
    endloop
  endfacet
  facet normal 0 0 1
    outer loop
      vertex -1.49247 18.8969 6
      vertex -0.631427 20.9756 6
      vertex -1.16673 21.3333 6
    endloop
  endfacet
  facet normal 0 0 1
    outer loop
      vertex -0.631427 20.9756 6
      vertex -1.49247 18.8969 6
      vertex 0 18.6 6
    endloop
  endfacet
  facet normal 0 0 1
    outer loop
      vertex -2.75772 19.7423 6
      vertex -1.16673 21.3333 6
      vertex -1.5244 21.8686 6
    endloop
  endfacet
  facet normal 0 0 1
    outer loop
      vertex -3.60313 21.0075 6
      vertex -1.5244 21.8686 6
      vertex -1.65 22.5 6
    endloop
  endfacet
  facet normal 0 0 1
    outer loop
      vertex -1.5244 23.1314 6
      vertex -3.60313 23.9925 6
      vertex -1.65 22.5 6
    endloop
  endfacet
  facet normal 0 0 1
    outer loop
      vertex -1.16673 21.3333 6
      vertex -2.75772 19.7423 6
      vertex -1.49247 18.8969 6
    endloop
  endfacet
  facet normal 0 0 1
    outer loop
      vertex -3.9 22.5 6
      vertex -1.65 22.5 6
      vertex -3.60313 23.9925 6
    endloop
  endfacet
  facet normal 0 0 1
    outer loop
      vertex -1.5244 21.8686 6
      vertex -3.60313 21.0075 6
      vertex -2.75772 19.7423 6
    endloop
  endfacet
  facet normal 0 0 1
    outer loop
      vertex -1.65 22.5 6
      vertex -3.9 22.5 6
      vertex -3.60313 21.0075 6
    endloop
  endfacet
  facet normal -0 0 1
    outer loop
      vertex -1.49247 26.1031 6
      vertex -0.631427 24.0244 6
      vertex -0.7541 26.25 6
    endloop
  endfacet
  facet normal 0 0 1
    outer loop
      vertex -0.631427 24.0244 6
      vertex -1.49247 26.1031 6
      vertex -1.16673 23.6667 6
    endloop
  endfacet
  facet normal -0 0 1
    outer loop
      vertex -2.75772 25.2577 6
      vertex -1.16673 23.6667 6
      vertex -1.49247 26.1031 6
    endloop
  endfacet
  facet normal 0 0 1
    outer loop
      vertex -1.16673 23.6667 6
      vertex -2.75772 25.2577 6
      vertex -1.5244 23.1314 6
    endloop
  endfacet
  facet normal -0 0 1
    outer loop
      vertex -3.60313 23.9925 6
      vertex -1.5244 23.1314 6
      vertex -2.75772 25.2577 6
    endloop
  endfacet
  facet normal 0.55557 -0.83147 0
    outer loop
      vertex -2.75772 32.7577 6
      vertex -1.49247 33.6031 15.0568
      vertex -2.75772 32.7577 15.2652
    endloop
  endfacet
  facet normal 0.55557 -0.83147 0
    outer loop
      vertex -1.49247 33.6031 15.0568
      vertex -2.75772 32.7577 6
      vertex -1.49247 33.6031 6
    endloop
  endfacet
  facet normal 0.980785 -0.195091 0
    outer loop
      vertex -3.9 30 6
      vertex -3.60313 31.4925 15.5772
      vertex -3.9 30 15.9452
    endloop
  endfacet
  facet normal 0.980785 -0.195091 0
    outer loop
      vertex -3.60313 31.4925 15.5772
      vertex -3.9 30 6
      vertex -3.60313 31.4925 6
    endloop
  endfacet
  facet normal 0.83147 -0.55557 0
    outer loop
      vertex -3.60313 31.4925 6
      vertex -2.75772 32.7577 15.2652
      vertex -3.60313 31.4925 15.5772
    endloop
  endfacet
  facet normal 0.83147 -0.55557 0
    outer loop
      vertex -2.75772 32.7577 15.2652
      vertex -3.60313 31.4925 6
      vertex -2.75772 32.7577 6
    endloop
  endfacet
  facet normal 0.83147 0.55557 -0
    outer loop
      vertex -2.75772 27.2423 6
      vertex -3.60313 28.5075 16.3132
      vertex -2.75772 27.2423 16.6252
    endloop
  endfacet
  facet normal 0.83147 0.55557 0
    outer loop
      vertex -3.60313 28.5075 16.3132
      vertex -2.75772 27.2423 6
      vertex -3.60313 28.5075 6
    endloop
  endfacet
  facet normal -0.195091 -0.980785 0
    outer loop
      vertex 1.49247 33.6031 6
      vertex 0 33.9 14.9836
      vertex 0 33.9 6
    endloop
  endfacet
  facet normal -0.195091 -0.980785 0
    outer loop
      vertex 0 33.9 14.9836
      vertex 1.49247 33.6031 6
      vertex 1.49247 33.6031 15.0568
    endloop
  endfacet
  facet normal -0.55557 0.83147 0
    outer loop
      vertex 1.49247 26.3969 6
      vertex 2.75772 27.2423 16.6252
      vertex 2.75772 27.2423 6
    endloop
  endfacet
  facet normal -0.55557 0.83147 0
    outer loop
      vertex 2.75772 27.2423 16.6252
      vertex 1.49247 26.3969 6
      vertex 1.49247 26.3969 16.8336
    endloop
  endfacet
  facet normal -0.83147 0.55557 0
    outer loop
      vertex 2.75772 27.2423 6
      vertex 3.60313 28.5075 16.3132
      vertex 3.60313 28.5075 6
    endloop
  endfacet
  facet normal -0.83147 0.55557 0
    outer loop
      vertex 3.60313 28.5075 16.3132
      vertex 2.75772 27.2423 6
      vertex 2.75772 27.2423 16.6252
    endloop
  endfacet
  facet normal -0.980785 0.195091 0
    outer loop
      vertex 3.60313 28.5075 6
      vertex 3.9 30 15.9452
      vertex 3.9 30 6
    endloop
  endfacet
  facet normal -0.980785 0.195091 0
    outer loop
      vertex 3.9 30 15.9452
      vertex 3.60313 28.5075 6
      vertex 3.60313 28.5075 16.3132
    endloop
  endfacet
  facet normal 0.55557 0.83147 -0
    outer loop
      vertex -1.49247 26.3969 6
      vertex -2.75772 27.2423 16.6252
      vertex -1.49247 26.3969 16.8336
    endloop
  endfacet
  facet normal 0.55557 0.83147 0
    outer loop
      vertex -2.75772 27.2423 16.6252
      vertex -1.49247 26.3969 6
      vertex -2.75772 27.2423 6
    endloop
  endfacet
  facet normal -0.19509 0.980785 0
    outer loop
      vertex 0.7541 26.25 6
      vertex 1.49247 26.3969 16.8336
      vertex 1.49247 26.3969 6
    endloop
  endfacet
  facet normal -0.19509 0.980785 0
    outer loop
      vertex 1.49247 26.3969 16.8336
      vertex 0.7541 26.25 6
      vertex 0.7541 26.25 16.8699
    endloop
  endfacet
  facet normal 0.19509 0.980785 -0
    outer loop
      vertex -0.7541 26.25 6
      vertex -1.49247 26.3969 16.8336
      vertex -0.7541 26.25 16.8699
    endloop
  endfacet
  facet normal 0.19509 0.980785 0
    outer loop
      vertex -1.49247 26.3969 16.8336
      vertex -0.7541 26.25 6
      vertex -1.49247 26.3969 6
    endloop
  endfacet
  facet normal -0.980785 -0.19509 0
    outer loop
      vertex 1.65 22.5 0
      vertex 1.5244 23.1314 6
      vertex 1.5244 23.1314 0
    endloop
  endfacet
  facet normal -0.980785 -0.19509 0
    outer loop
      vertex 1.5244 23.1314 6
      vertex 1.65 22.5 0
      vertex 1.65 22.5 6
    endloop
  endfacet
  facet normal 0.195091 -0.980785 0
    outer loop
      vertex -0.631427 24.0244 0
      vertex 0 24.15 6
      vertex -0.631427 24.0244 6
    endloop
  endfacet
  facet normal 0.195091 -0.980785 0
    outer loop
      vertex 0 24.15 6
      vertex -0.631427 24.0244 0
      vertex 0 24.15 0
    endloop
  endfacet
  facet normal 0.980785 0.19509 0
    outer loop
      vertex -1.5244 21.8686 6
      vertex -1.65 22.5 0
      vertex -1.65 22.5 6
    endloop
  endfacet
  facet normal 0.980785 0.19509 0
    outer loop
      vertex -1.65 22.5 0
      vertex -1.5244 21.8686 6
      vertex -1.5244 21.8686 0
    endloop
  endfacet
  facet normal -0.55557 -0.83147 0
    outer loop
      vertex 0.631427 24.0244 0
      vertex 1.16673 23.6667 6
      vertex 0.631427 24.0244 6
    endloop
  endfacet
  facet normal -0.55557 -0.83147 -0
    outer loop
      vertex 1.16673 23.6667 6
      vertex 0.631427 24.0244 0
      vertex 1.16673 23.6667 0
    endloop
  endfacet
  facet normal -0.831469 -0.555571 0
    outer loop
      vertex 1.5244 23.1314 0
      vertex 1.16673 23.6667 6
      vertex 1.16673 23.6667 0
    endloop
  endfacet
  facet normal -0.831469 -0.555571 0
    outer loop
      vertex 1.16673 23.6667 6
      vertex 1.5244 23.1314 0
      vertex 1.5244 23.1314 6
    endloop
  endfacet
  facet normal -0.195091 -0.980785 0
    outer loop
      vertex 0 24.15 0
      vertex 0.631427 24.0244 6
      vertex 0 24.15 6
    endloop
  endfacet
  facet normal -0.195091 -0.980785 -0
    outer loop
      vertex 0.631427 24.0244 6
      vertex 0 24.15 0
      vertex 0.631427 24.0244 0
    endloop
  endfacet
  facet normal 0.55557 -0.83147 0
    outer loop
      vertex -1.16673 23.6667 0
      vertex -0.631427 24.0244 6
      vertex -1.16673 23.6667 6
    endloop
  endfacet
  facet normal 0.55557 -0.83147 0
    outer loop
      vertex -0.631427 24.0244 6
      vertex -1.16673 23.6667 0
      vertex -0.631427 24.0244 0
    endloop
  endfacet
  facet normal 0.831469 -0.555571 0
    outer loop
      vertex -1.5244 23.1314 6
      vertex -1.16673 23.6667 0
      vertex -1.16673 23.6667 6
    endloop
  endfacet
  facet normal 0.831469 -0.555571 0
    outer loop
      vertex -1.16673 23.6667 0
      vertex -1.5244 23.1314 6
      vertex -1.5244 23.1314 0
    endloop
  endfacet
  facet normal 0.83147 0.555569 0
    outer loop
      vertex -1.16673 21.3333 6
      vertex -1.5244 21.8686 0
      vertex -1.5244 21.8686 6
    endloop
  endfacet
  facet normal 0.83147 0.555569 0
    outer loop
      vertex -1.5244 21.8686 0
      vertex -1.16673 21.3333 6
      vertex -1.16673 21.3333 0
    endloop
  endfacet
  facet normal 0.980785 -0.19509 0
    outer loop
      vertex -1.65 22.5 6
      vertex -1.5244 23.1314 0
      vertex -1.5244 23.1314 6
    endloop
  endfacet
  facet normal 0.980785 -0.19509 0
    outer loop
      vertex -1.5244 23.1314 0
      vertex -1.65 22.5 6
      vertex -1.65 22.5 0
    endloop
  endfacet
  facet normal -0.55557 0.83147 0
    outer loop
      vertex 1.16673 21.3333 0
      vertex 0.631427 20.9756 6
      vertex 1.16673 21.3333 6
    endloop
  endfacet
  facet normal -0.55557 0.83147 0
    outer loop
      vertex 0.631427 20.9756 6
      vertex 1.16673 21.3333 0
      vertex 0.631427 20.9756 0
    endloop
  endfacet
  facet normal -0.83147 0.555569 0
    outer loop
      vertex 1.16673 21.3333 0
      vertex 1.5244 21.8686 6
      vertex 1.5244 21.8686 0
    endloop
  endfacet
  facet normal -0.83147 0.555569 0
    outer loop
      vertex 1.5244 21.8686 6
      vertex 1.16673 21.3333 0
      vertex 1.16673 21.3333 6
    endloop
  endfacet
  facet normal -0.980785 0.19509 0
    outer loop
      vertex 1.5244 21.8686 0
      vertex 1.65 22.5 6
      vertex 1.65 22.5 0
    endloop
  endfacet
  facet normal -0.980785 0.19509 0
    outer loop
      vertex 1.65 22.5 6
      vertex 1.5244 21.8686 0
      vertex 1.5244 21.8686 6
    endloop
  endfacet
  facet normal 0.55557 0.83147 -0
    outer loop
      vertex -0.631427 20.9756 0
      vertex -1.16673 21.3333 6
      vertex -0.631427 20.9756 6
    endloop
  endfacet
  facet normal 0.55557 0.83147 0
    outer loop
      vertex -1.16673 21.3333 6
      vertex -0.631427 20.9756 0
      vertex -1.16673 21.3333 0
    endloop
  endfacet
  facet normal -0.195091 0.980785 0
    outer loop
      vertex 0.631427 20.9756 0
      vertex 0 20.85 6
      vertex 0.631427 20.9756 6
    endloop
  endfacet
  facet normal -0.195091 0.980785 0
    outer loop
      vertex 0 20.85 6
      vertex 0.631427 20.9756 0
      vertex 0 20.85 0
    endloop
  endfacet
  facet normal 0.195091 0.980785 -0
    outer loop
      vertex 0 20.85 0
      vertex -0.631427 20.9756 6
      vertex 0 20.85 6
    endloop
  endfacet
  facet normal 0.195091 0.980785 0
    outer loop
      vertex -0.631427 20.9756 6
      vertex 0 20.85 0
      vertex -0.631427 20.9756 0
    endloop
  endfacet
  facet normal -0.980785 -0.195091 0
    outer loop
      vertex 3.9 22.5 6
      vertex 3.60313 23.9925 17.4265
      vertex 3.60313 23.9925 6
    endloop
  endfacet
  facet normal -0.980785 -0.195091 0
    outer loop
      vertex 3.60313 23.9925 17.4265
      vertex 3.9 22.5 6
      vertex 3.9 22.5 17.7945
    endloop
  endfacet
  facet normal 0.19509 -0.980785 0
    outer loop
      vertex -1.49247 26.1031 6
      vertex -0.7541 26.25 16.8699
      vertex -1.49247 26.1031 16.9061
    endloop
  endfacet
  facet normal 0.19509 -0.980785 0
    outer loop
      vertex -0.7541 26.25 16.8699
      vertex -1.49247 26.1031 6
      vertex -0.7541 26.25 6
    endloop
  endfacet
  facet normal 0.980785 0.195091 -0
    outer loop
      vertex -3.60313 21.0075 6
      vertex -3.9 22.5 17.7945
      vertex -3.60313 21.0075 18.1625
    endloop
  endfacet
  facet normal 0.980785 0.195091 0
    outer loop
      vertex -3.9 22.5 17.7945
      vertex -3.60313 21.0075 6
      vertex -3.9 22.5 6
    endloop
  endfacet
  facet normal -0.55557 -0.83147 0
    outer loop
      vertex 2.75772 25.2577 6
      vertex 1.49247 26.1031 16.9061
      vertex 1.49247 26.1031 6
    endloop
  endfacet
  facet normal -0.55557 -0.83147 0
    outer loop
      vertex 1.49247 26.1031 16.9061
      vertex 2.75772 25.2577 6
      vertex 2.75772 25.2577 17.1145
    endloop
  endfacet
  facet normal -0.83147 -0.55557 0
    outer loop
      vertex 3.60313 23.9925 6
      vertex 2.75772 25.2577 17.1145
      vertex 2.75772 25.2577 6
    endloop
  endfacet
  facet normal -0.83147 -0.55557 0
    outer loop
      vertex 2.75772 25.2577 17.1145
      vertex 3.60313 23.9925 6
      vertex 3.60313 23.9925 17.4265
    endloop
  endfacet
  facet normal 0.55557 -0.83147 0
    outer loop
      vertex -2.75772 25.2577 6
      vertex -1.49247 26.1031 16.9061
      vertex -2.75772 25.2577 17.1145
    endloop
  endfacet
  facet normal 0.55557 -0.83147 0
    outer loop
      vertex -1.49247 26.1031 16.9061
      vertex -2.75772 25.2577 6
      vertex -1.49247 26.1031 6
    endloop
  endfacet
  facet normal 0.83147 -0.55557 0
    outer loop
      vertex -3.60313 23.9925 6
      vertex -2.75772 25.2577 17.1145
      vertex -3.60313 23.9925 17.4265
    endloop
  endfacet
  facet normal 0.83147 -0.55557 0
    outer loop
      vertex -2.75772 25.2577 17.1145
      vertex -3.60313 23.9925 6
      vertex -2.75772 25.2577 6
    endloop
  endfacet
  facet normal 0.83147 0.55557 -0
    outer loop
      vertex -2.75772 19.7423 6
      vertex -3.60313 21.0075 18.1625
      vertex -2.75772 19.7423 18.4745
    endloop
  endfacet
  facet normal 0.83147 0.55557 0
    outer loop
      vertex -3.60313 21.0075 18.1625
      vertex -2.75772 19.7423 6
      vertex -3.60313 21.0075 6
    endloop
  endfacet
  facet normal -0.19509 -0.980785 0
    outer loop
      vertex 1.49247 26.1031 6
      vertex 0.7541 26.25 16.8699
      vertex 0.7541 26.25 6
    endloop
  endfacet
  facet normal -0.19509 -0.980785 0
    outer loop
      vertex 0.7541 26.25 16.8699
      vertex 1.49247 26.1031 6
      vertex 1.49247 26.1031 16.9061
    endloop
  endfacet
  facet normal 0.980785 -0.195091 0
    outer loop
      vertex -3.9 22.5 6
      vertex -3.60313 23.9925 17.4265
      vertex -3.9 22.5 17.7945
    endloop
  endfacet
  facet normal 0.980785 -0.195091 0
    outer loop
      vertex -3.60313 23.9925 17.4265
      vertex -3.9 22.5 6
      vertex -3.60313 23.9925 6
    endloop
  endfacet
  facet normal -0.55557 0.83147 0
    outer loop
      vertex 1.49247 18.8969 6
      vertex 2.75772 19.7423 18.4745
      vertex 2.75772 19.7423 6
    endloop
  endfacet
  facet normal -0.55557 0.83147 0
    outer loop
      vertex 2.75772 19.7423 18.4745
      vertex 1.49247 18.8969 6
      vertex 1.49247 18.8969 18.683
    endloop
  endfacet
  facet normal -0.83147 0.55557 0
    outer loop
      vertex 2.75772 19.7423 6
      vertex 3.60313 21.0075 18.1625
      vertex 3.60313 21.0075 6
    endloop
  endfacet
  facet normal -0.83147 0.55557 0
    outer loop
      vertex 3.60313 21.0075 18.1625
      vertex 2.75772 19.7423 6
      vertex 2.75772 19.7423 18.4745
    endloop
  endfacet
  facet normal -0.980785 0.195091 0
    outer loop
      vertex 3.60313 21.0075 6
      vertex 3.9 22.5 17.7945
      vertex 3.9 22.5 6
    endloop
  endfacet
  facet normal -0.980785 0.195091 0
    outer loop
      vertex 3.9 22.5 17.7945
      vertex 3.60313 21.0075 6
      vertex 3.60313 21.0075 18.1625
    endloop
  endfacet
  facet normal 0.55557 0.83147 -0
    outer loop
      vertex -1.49247 18.8969 6
      vertex -2.75772 19.7423 18.4745
      vertex -1.49247 18.8969 18.683
    endloop
  endfacet
  facet normal 0.55557 0.83147 0
    outer loop
      vertex -2.75772 19.7423 18.4745
      vertex -1.49247 18.8969 6
      vertex -2.75772 19.7423 6
    endloop
  endfacet
  facet normal -0.195091 0.980785 0
    outer loop
      vertex 0 18.6 6
      vertex 1.49247 18.8969 18.683
      vertex 1.49247 18.8969 6
    endloop
  endfacet
  facet normal -0.195091 0.980785 0
    outer loop
      vertex 1.49247 18.8969 18.683
      vertex 0 18.6 6
      vertex 0 18.6 18.7562
    endloop
  endfacet
  facet normal 0.195091 0.980785 -0
    outer loop
      vertex 0 18.6 6
      vertex -1.49247 18.8969 18.683
      vertex 0 18.6 18.7562
    endloop
  endfacet
  facet normal 0.195091 0.980785 0
    outer loop
      vertex -1.49247 18.8969 18.683
      vertex 0 18.6 6
      vertex -1.49247 18.8969 6
    endloop
  endfacet
  facet normal -0.980785 -0.195091 0
    outer loop
      vertex -9.35 0 0
      vertex -9.4756 0.631427 6
      vertex -9.4756 0.631427 0
    endloop
  endfacet
  facet normal -0.980785 -0.195091 0
    outer loop
      vertex -9.4756 0.631427 6
      vertex -9.35 0 0
      vertex -9.35 0 6
    endloop
  endfacet
  facet normal 0.980785 -0.195091 0
    outer loop
      vertex -12.65 0 6
      vertex -12.5244 0.631427 0
      vertex -12.5244 0.631427 6
    endloop
  endfacet
  facet normal 0.980785 -0.195091 0
    outer loop
      vertex -12.5244 0.631427 0
      vertex -12.65 0 6
      vertex -12.65 0 0
    endloop
  endfacet
  facet normal -0.19509 -0.980785 0
    outer loop
      vertex -11 1.65 0
      vertex -10.3686 1.5244 6
      vertex -11 1.65 6
    endloop
  endfacet
  facet normal -0.19509 -0.980785 -0
    outer loop
      vertex -10.3686 1.5244 6
      vertex -11 1.65 0
      vertex -10.3686 1.5244 0
    endloop
  endfacet
  facet normal -0.83147 -0.555569 0
    outer loop
      vertex -9.4756 0.631427 0
      vertex -9.83327 1.16673 6
      vertex -9.83327 1.16673 0
    endloop
  endfacet
  facet normal -0.83147 -0.555569 0
    outer loop
      vertex -9.83327 1.16673 6
      vertex -9.4756 0.631427 0
      vertex -9.4756 0.631427 6
    endloop
  endfacet
  facet normal 0.195091 0.980785 -0
    outer loop
      vertex -11 -1.65 0
      vertex -11.6314 -1.5244 6
      vertex -11 -1.65 6
    endloop
  endfacet
  facet normal 0.195091 0.980785 0
    outer loop
      vertex -11.6314 -1.5244 6
      vertex -11 -1.65 0
      vertex -11.6314 -1.5244 0
    endloop
  endfacet
  facet normal -0.555569 -0.83147 0
    outer loop
      vertex -10.3686 1.5244 0
      vertex -9.83327 1.16673 6
      vertex -10.3686 1.5244 6
    endloop
  endfacet
  facet normal -0.555569 -0.83147 -0
    outer loop
      vertex -9.83327 1.16673 6
      vertex -10.3686 1.5244 0
      vertex -9.83327 1.16673 0
    endloop
  endfacet
  facet normal 0.195091 -0.980785 0
    outer loop
      vertex -11.6314 1.5244 0
      vertex -11 1.65 6
      vertex -11.6314 1.5244 6
    endloop
  endfacet
  facet normal 0.195091 -0.980785 0
    outer loop
      vertex -11 1.65 6
      vertex -11.6314 1.5244 0
      vertex -11 1.65 0
    endloop
  endfacet
  facet normal 0.555569 -0.83147 0
    outer loop
      vertex -12.1667 1.16673 0
      vertex -11.6314 1.5244 6
      vertex -12.1667 1.16673 6
    endloop
  endfacet
  facet normal 0.555569 -0.83147 0
    outer loop
      vertex -11.6314 1.5244 6
      vertex -12.1667 1.16673 0
      vertex -11.6314 1.5244 0
    endloop
  endfacet
  facet normal -0.19509 0.980785 0
    outer loop
      vertex -10.3686 -1.5244 0
      vertex -11 -1.65 6
      vertex -10.3686 -1.5244 6
    endloop
  endfacet
  facet normal -0.19509 0.980785 0
    outer loop
      vertex -11 -1.65 6
      vertex -10.3686 -1.5244 0
      vertex -11 -1.65 0
    endloop
  endfacet
  facet normal -0.555569 0.83147 0
    outer loop
      vertex -9.83327 -1.16673 0
      vertex -10.3686 -1.5244 6
      vertex -9.83327 -1.16673 6
    endloop
  endfacet
  facet normal -0.555569 0.83147 0
    outer loop
      vertex -10.3686 -1.5244 6
      vertex -9.83327 -1.16673 0
      vertex -10.3686 -1.5244 0
    endloop
  endfacet
  facet normal 0.980785 0.195091 0
    outer loop
      vertex -12.5244 -0.631427 6
      vertex -12.65 0 0
      vertex -12.65 0 6
    endloop
  endfacet
  facet normal 0.980785 0.195091 0
    outer loop
      vertex -12.65 0 0
      vertex -12.5244 -0.631427 6
      vertex -12.5244 -0.631427 0
    endloop
  endfacet
  facet normal 0.555569 0.83147 -0
    outer loop
      vertex -11.6314 -1.5244 0
      vertex -12.1667 -1.16673 6
      vertex -11.6314 -1.5244 6
    endloop
  endfacet
  facet normal 0.555569 0.83147 0
    outer loop
      vertex -12.1667 -1.16673 6
      vertex -11.6314 -1.5244 0
      vertex -12.1667 -1.16673 0
    endloop
  endfacet
  facet normal 0.83147 -0.555569 0
    outer loop
      vertex -12.5244 0.631427 6
      vertex -12.1667 1.16673 0
      vertex -12.1667 1.16673 6
    endloop
  endfacet
  facet normal 0.83147 -0.555569 0
    outer loop
      vertex -12.1667 1.16673 0
      vertex -12.5244 0.631427 6
      vertex -12.5244 0.631427 0
    endloop
  endfacet
  facet normal -0.83147 0.555569 0
    outer loop
      vertex -9.83327 -1.16673 0
      vertex -9.4756 -0.631427 6
      vertex -9.4756 -0.631427 0
    endloop
  endfacet
  facet normal -0.83147 0.555569 0
    outer loop
      vertex -9.4756 -0.631427 6
      vertex -9.83327 -1.16673 0
      vertex -9.83327 -1.16673 6
    endloop
  endfacet
  facet normal 0.83147 0.555569 0
    outer loop
      vertex -12.1667 -1.16673 6
      vertex -12.5244 -0.631427 0
      vertex -12.5244 -0.631427 6
    endloop
  endfacet
  facet normal 0.83147 0.555569 0
    outer loop
      vertex -12.5244 -0.631427 0
      vertex -12.1667 -1.16673 6
      vertex -12.1667 -1.16673 0
    endloop
  endfacet
  facet normal -0.980785 0.195091 0
    outer loop
      vertex -9.4756 -0.631427 0
      vertex -9.35 0 6
      vertex -9.35 0 0
    endloop
  endfacet
  facet normal -0.980785 0.195091 0
    outer loop
      vertex -9.35 0 6
      vertex -9.4756 -0.631427 0
      vertex -9.4756 -0.631427 6
    endloop
  endfacet
  facet normal -0.980785 -0.195091 0
    outer loop
      vertex 12.65 0 0
      vertex 12.5244 0.631427 6
      vertex 12.5244 0.631427 0
    endloop
  endfacet
  facet normal -0.980785 -0.195091 0
    outer loop
      vertex 12.5244 0.631427 6
      vertex 12.65 0 0
      vertex 12.65 0 6
    endloop
  endfacet
  facet normal 0.980785 -0.195091 0
    outer loop
      vertex 9.35 0 6
      vertex 9.4756 0.631427 0
      vertex 9.4756 0.631427 6
    endloop
  endfacet
  facet normal 0.980785 -0.195091 0
    outer loop
      vertex 9.4756 0.631427 0
      vertex 9.35 0 6
      vertex 9.35 0 0
    endloop
  endfacet
  facet normal -0.195091 -0.980785 0
    outer loop
      vertex 11 1.65 0
      vertex 11.6314 1.5244 6
      vertex 11 1.65 6
    endloop
  endfacet
  facet normal -0.195091 -0.980785 -0
    outer loop
      vertex 11.6314 1.5244 6
      vertex 11 1.65 0
      vertex 11.6314 1.5244 0
    endloop
  endfacet
  facet normal -0.83147 -0.555569 0
    outer loop
      vertex 12.5244 0.631427 0
      vertex 12.1667 1.16673 6
      vertex 12.1667 1.16673 0
    endloop
  endfacet
  facet normal -0.83147 -0.555569 0
    outer loop
      vertex 12.1667 1.16673 6
      vertex 12.5244 0.631427 0
      vertex 12.5244 0.631427 6
    endloop
  endfacet
  facet normal -0.195091 0.980785 0
    outer loop
      vertex 11.6314 -1.5244 0
      vertex 11 -1.65 6
      vertex 11.6314 -1.5244 6
    endloop
  endfacet
  facet normal -0.195091 0.980785 0
    outer loop
      vertex 11 -1.65 6
      vertex 11.6314 -1.5244 0
      vertex 11 -1.65 0
    endloop
  endfacet
  facet normal 0.19509 0.980785 -0
    outer loop
      vertex 11 -1.65 0
      vertex 10.3686 -1.5244 6
      vertex 11 -1.65 6
    endloop
  endfacet
  facet normal 0.19509 0.980785 0
    outer loop
      vertex 10.3686 -1.5244 6
      vertex 11 -1.65 0
      vertex 10.3686 -1.5244 0
    endloop
  endfacet
  facet normal 0.19509 -0.980785 0
    outer loop
      vertex 10.3686 1.5244 0
      vertex 11 1.65 6
      vertex 10.3686 1.5244 6
    endloop
  endfacet
  facet normal 0.19509 -0.980785 0
    outer loop
      vertex 11 1.65 6
      vertex 10.3686 1.5244 0
      vertex 11 1.65 0
    endloop
  endfacet
  facet normal 0.83147 -0.555569 0
    outer loop
      vertex 9.4756 0.631427 6
      vertex 9.83327 1.16673 0
      vertex 9.83327 1.16673 6
    endloop
  endfacet
  facet normal 0.83147 -0.555569 0
    outer loop
      vertex 9.83327 1.16673 0
      vertex 9.4756 0.631427 6
      vertex 9.4756 0.631427 0
    endloop
  endfacet
  facet normal 0.555569 -0.83147 0
    outer loop
      vertex 9.83327 1.16673 0
      vertex 10.3686 1.5244 6
      vertex 9.83327 1.16673 6
    endloop
  endfacet
  facet normal 0.555569 -0.83147 0
    outer loop
      vertex 10.3686 1.5244 6
      vertex 9.83327 1.16673 0
      vertex 10.3686 1.5244 0
    endloop
  endfacet
  facet normal 0.980785 0.195091 0
    outer loop
      vertex 9.4756 -0.631427 6
      vertex 9.35 0 0
      vertex 9.35 0 6
    endloop
  endfacet
  facet normal 0.980785 0.195091 0
    outer loop
      vertex 9.35 0 0
      vertex 9.4756 -0.631427 6
      vertex 9.4756 -0.631427 0
    endloop
  endfacet
  facet normal 0.555569 0.83147 -0
    outer loop
      vertex 10.3686 -1.5244 0
      vertex 9.83327 -1.16673 6
      vertex 10.3686 -1.5244 6
    endloop
  endfacet
  facet normal 0.555569 0.83147 0
    outer loop
      vertex 9.83327 -1.16673 6
      vertex 10.3686 -1.5244 0
      vertex 9.83327 -1.16673 0
    endloop
  endfacet
  facet normal -0.555569 -0.83147 0
    outer loop
      vertex 11.6314 1.5244 0
      vertex 12.1667 1.16673 6
      vertex 11.6314 1.5244 6
    endloop
  endfacet
  facet normal -0.555569 -0.83147 -0
    outer loop
      vertex 12.1667 1.16673 6
      vertex 11.6314 1.5244 0
      vertex 12.1667 1.16673 0
    endloop
  endfacet
  facet normal -0.83147 0.555569 0
    outer loop
      vertex 12.1667 -1.16673 0
      vertex 12.5244 -0.631427 6
      vertex 12.5244 -0.631427 0
    endloop
  endfacet
  facet normal -0.83147 0.555569 0
    outer loop
      vertex 12.5244 -0.631427 6
      vertex 12.1667 -1.16673 0
      vertex 12.1667 -1.16673 6
    endloop
  endfacet
  facet normal -0.555569 0.83147 0
    outer loop
      vertex 12.1667 -1.16673 0
      vertex 11.6314 -1.5244 6
      vertex 12.1667 -1.16673 6
    endloop
  endfacet
  facet normal -0.555569 0.83147 0
    outer loop
      vertex 11.6314 -1.5244 6
      vertex 12.1667 -1.16673 0
      vertex 11.6314 -1.5244 0
    endloop
  endfacet
  facet normal -0.980785 0.195091 0
    outer loop
      vertex 12.5244 -0.631427 0
      vertex 12.65 0 6
      vertex 12.65 0 0
    endloop
  endfacet
  facet normal -0.980785 0.195091 0
    outer loop
      vertex 12.65 0 6
      vertex 12.5244 -0.631427 0
      vertex 12.5244 -0.631427 6
    endloop
  endfacet
  facet normal 0.83147 0.555569 0
    outer loop
      vertex 9.83327 -1.16673 6
      vertex 9.4756 -0.631427 0
      vertex 9.4756 -0.631427 6
    endloop
  endfacet
  facet normal 0.83147 0.555569 0
    outer loop
      vertex 9.4756 -0.631427 0
      vertex 9.83327 -1.16673 6
      vertex 9.83327 -1.16673 0
    endloop
  endfacet
endsolid OpenSCAD_Model
