 0
SECTION
 2
HEADER
 9
$MEASUREMENT
 70
 2
 0
ENDSEC
 0
SECTION
 2
ENTITIES
 0
POLYLINE
8
layer0
66
1
70
8
10
  0.0
20
  0.0
30
  0.0
  0
VERTEX
8
layer0
10
  -3.000
20
  243.000
30
  -0.000
0
VERTEX
8
layer0
10
  303.000
20
  243.000
30
  -0.000
0
VERTEX
8
layer0
10
  303.000
20
  -3.000
30
  -0.000
0
VERTEX
8
layer0
10
  -3.000
20
  -3.000
30
  0.000
0
VERTEX
8
layer0
10
  -3.000
20
  243.000
30
  -0.000
 0
SEQEND
 0
ARC
8
layer0
66
1
10
  96.250
20
  93.000
30
  0.000
40
  2.999999999999985
50
  -90.000
51
  -0.000
 0
POLYLINE
8
layer0
66
1
70
8
10
  0.0
20
  0.0
30
  0.0
  0
VERTEX
8
layer0
10
  99.250
20
  93.000
30
  0.000
0
VERTEX
8
layer0
10
  99.250
20
  147.000
30
  0.000
 0
SEQEND
 0
ARC
8
layer0
66
1
10
  96.250
20
  147.000
30
  0.000
40
  2.9999999999999867
50
  -0.000
51
  90.000
 0
POLYLINE
8
layer0
66
1
70
8
10
  0.0
20
  0.0
30
  0.0
  0
VERTEX
8
layer0
10
  96.250
20
  150.000
30
  0.000
0
VERTEX
8
layer0
10
  42.250
20
  150.000
30
  0.000
 0
SEQEND
 0
ARC
8
layer0
66
1
10
  42.250
20
  147.000
30
  0.000
40
  2.999999999999985
50
  90.000
51
  180.000
 0
POLYLINE
8
layer0
66
1
70
8
10
  0.0
20
  0.0
30
  0.0
  0
VERTEX
8
layer0
10
  39.250
20
  147.000
30
  0.000
0
VERTEX
8
layer0
10
  39.250
20
  93.000
30
  0.000
 0
SEQEND
 0
ARC
8
layer0
66
1
10
  42.250
20
  93.000
30
  0.000
40
  2.999999999999985
50
  -180.000
51
  -90.000
 0
POLYLINE
8
layer0
66
1
70
8
10
  0.0
20
  0.0
30
  0.0
  0
VERTEX
8
layer0
10
  42.250
20
  90.000
30
  0.000
0
VERTEX
8
layer0
10
  96.250
20
  90.000
30
  0.000
 0
SEQEND
 0
ARC
8
layer0
66
1
10
  96.250
20
  93.000
30
  0.000
40
  2.999999999999985
50
  -90.000
51
  -0.000
 0
ARC
8
layer0
66
1
10
  32.750
20
  92.500
30
  0.000
40
  2.5000000000000075
50
  -180.000
51
  -0.000
 0
POLYLINE
8
layer0
66
1
70
8
10
  0.0
20
  0.0
30
  0.0
  0
VERTEX
8
layer0
10
  35.250
20
  92.500
30
  0.000
0
VERTEX
8
layer0
10
  35.250
20
  147.500
30
  0.000
 0
SEQEND
 0
ARC
8
layer0
66
1
10
  32.750
20
  147.500
30
  0.000
40
  2.499999999999973
50
  -0.000
51
  180.000
 0
POLYLINE
8
layer0
66
1
70
8
10
  0.0
20
  0.0
30
  0.0
  0
VERTEX
8
layer0
10
  30.250
20
  147.500
30
  0.000
0
VERTEX
8
layer0
10
  30.250
20
  92.500
30
  0.000
 0
SEQEND
 0
ARC
8
layer0
66
1
10
  32.750
20
  92.500
30
  0.000
40
  2.5000000000000075
50
  -180.000
51
  -0.000
 0
CIRCLE
8
layer0
66
1
10
  7.500
20
  232.500
30
  -0.000
40
  1.5999999999999974
 0
CIRCLE
8
layer0
66
1
10
  7.500
20
  195.000
30
  -0.000
40
  1.5999999999999974
 0
CIRCLE
8
layer0
66
1
10
  7.500
20
  157.500
30
  -0.000
40
  1.5999999999999974
 0
CIRCLE
8
layer0
66
1
10
  7.500
20
  120.000
30
  -0.000
40
  1.5999999999999974
 0
CIRCLE
8
layer0
66
1
10
  7.500
20
  82.500
30
  -0.000
40
  1.5999999999999974
 0
CIRCLE
8
layer0
66
1
10
  7.500
20
  45.000
30
  -0.000
40
  1.5999999999999974
 0
CIRCLE
8
layer0
66
1
10
  7.500
20
  7.500
30
  0.000
40
  1.5999999999999963
 0
CIRCLE
8
layer0
66
1
10
  78.750
20
  7.500
30
  -0.000
40
  1.5999999999999974
 0
CIRCLE
8
layer0
66
1
10
  150.000
20
  7.500
30
  0.000
40
  1.5999999999999974
 0
CIRCLE
8
layer0
66
1
10
  221.250
20
  7.500
30
  -0.000
40
  1.5999999999999974
 0
CIRCLE
8
layer0
66
1
10
  292.500
20
  7.500
30
  -0.000
40
  1.5999999999999974
 0
CIRCLE
8
layer0
66
1
10
  292.500
20
  45.000
30
  -0.000
40
  1.5999999999999974
 0
CIRCLE
8
layer0
66
1
10
  292.500
20
  82.500
30
  -0.000
40
  1.5999999999999974
 0
CIRCLE
8
layer0
66
1
10
  292.500
20
  120.000
30
  -0.000
40
  1.5999999999999974
 0
CIRCLE
8
layer0
66
1
10
  292.500
20
  157.500
30
  -0.000
40
  1.5999999999999974
 0
CIRCLE
8
layer0
66
1
10
  292.500
20
  195.000
30
  -0.000
40
  1.5999999999999974
 0
CIRCLE
8
layer0
66
1
10
  292.500
20
  232.500
30
  -0.000
40
  1.5999999999999974
 0
CIRCLE
8
layer0
66
1
10
  221.250
20
  232.500
30
  0.000
40
  1.5999999999999974
 0
CIRCLE
8
layer0
66
1
10
  150.000
20
  232.500
30
  0.000
40
  1.5999999999999974
 0
CIRCLE
8
layer0
66
1
10
  78.750
20
  232.500
30
  -0.000
40
  1.5999999999999974
 0
CIRCLE
8
layer0
66
1
10
  65.500
20
  212.000
30
  -0.000
40
  9.100000000000007
 0
POLYLINE
8
layer0
66
1
70
8
10
  0.0
20
  0.0
30
  0.0
  0
VERTEX
8
layer0
10
  47.875
20
  217.875
30
  0.000
0
VERTEX
8
layer0
10
  24.875
20
  217.875
30
  0.000
0
VERTEX
8
layer0
10
  24.875
20
  206.125
30
  0.000
0
VERTEX
8
layer0
10
  47.875
20
  206.125
30
  0.000
0
VERTEX
8
layer0
10
  47.875
20
  217.875
30
  0.000
 0
SEQEND
 0
CIRCLE
8
layer0
66
1
10
  27.250
20
  198.000
30
  0.000
40
  1.599999999999997
 0
CIRCLE
8
layer0
66
1
10
  262.500
20
  157.500
30
  0.000
40
  1.5999999999999974
 0
CIRCLE
8
layer0
66
1
10
  247.500
20
  157.500
30
  0.000
40
  1.5999999999999956
 0
CIRCLE
8
layer0
66
1
10
  262.500
20
  82.500
30
  0.000
40
  1.5999999999999974
 0
CIRCLE
8
layer0
66
1
10
  247.500
20
  82.500
30
  0.000
40
  1.5999999999999974
 0
CIRCLE
8
layer0
66
1
10
  198.750
20
  82.500
30
  -0.000
40
  1.5999999999999974
 0
CIRCLE
8
layer0
66
1
10
  198.750
20
  157.500
30
  -0.000
40
  1.5999999999999974
 0
CIRCLE
8
layer0
66
1
10
  150.000
20
  82.500
30
  0.000
40
  1.5999999999999974
 0
CIRCLE
8
layer0
66
1
10
  150.000
20
  157.500
30
  0.000
40
  1.5999999999999974
 0
CIRCLE
8
layer0
66
1
10
  101.250
20
  157.500
30
  -0.000
40
  1.5999999999999974
 0
CIRCLE
8
layer0
66
1
10
  101.250
20
  82.500
30
  -0.000
40
  1.5999999999999974
 0
CIRCLE
8
layer0
66
1
10
  37.500
20
  82.500
30
  -0.000
40
  1.5999999999999974
 0
CIRCLE
8
layer0
66
1
10
  52.500
20
  82.500
30
  0.000
40
  1.5999999999999974
 0
CIRCLE
8
layer0
66
1
10
  37.500
20
  157.500
30
  0.000
40
  1.599999999999997
 0
CIRCLE
8
layer0
66
1
10
  52.500
20
  157.500
30
  0.000
40
  1.5999999999999974
 0
ARC
8
layer0
66
1
10
  203.750
20
  147.000
30
  -0.000
40
  2.9999999999999845
50
  90.000
51
  180.000
 0
POLYLINE
8
layer0
66
1
70
8
10
  0.0
20
  0.0
30
  0.0
  0
VERTEX
8
layer0
10
  200.750
20
  147.000
30
  -0.000
0
VERTEX
8
layer0
10
  200.750
20
  93.000
30
  0.000
 0
SEQEND
 0
ARC
8
layer0
66
1
10
  203.750
20
  93.000
30
  0.000
40
  2.9999999999999942
50
  180.000
51
  270.000
 0
POLYLINE
8
layer0
66
1
70
8
10
  0.0
20
  0.0
30
  0.0
  0
VERTEX
8
layer0
10
  203.750
20
  90.000
30
  0.000
0
VERTEX
8
layer0
10
  257.750
20
  90.000
30
  0.000
 0
SEQEND
 0
ARC
8
layer0
66
1
10
  257.750
20
  93.000
30
  0.000
40
  2.9999999999999845
50
  -90.000
51
  -0.000
 0
POLYLINE
8
layer0
66
1
70
8
10
  0.0
20
  0.0
30
  0.0
  0
VERTEX
8
layer0
10
  260.750
20
  93.000
30
  0.000
0
VERTEX
8
layer0
10
  260.750
20
  147.000
30
  0.000
 0
SEQEND
 0
ARC
8
layer0
66
1
10
  257.750
20
  147.000
30
  0.000
40
  2.9999999999999845
50
  -0.000
51
  90.000
 0
POLYLINE
8
layer0
66
1
70
8
10
  0.0
20
  0.0
30
  0.0
  0
VERTEX
8
layer0
10
  257.750
20
  150.000
30
  0.000
0
VERTEX
8
layer0
10
  203.750
20
  150.000
30
  -0.000
 0
SEQEND
 0
ARC
8
layer0
66
1
10
  203.750
20
  147.000
30
  -0.000
40
  2.9999999999999845
50
  90.000
51
  180.000
 0
ARC
8
layer0
66
1
10
  267.250
20
  92.500
30
  0.000
40
  2.499999999999973
50
  180.000
51
  360.000
 0
POLYLINE
8
layer0
66
1
70
8
10
  0.0
20
  0.0
30
  0.0
  0
VERTEX
8
layer0
10
  269.750
20
  92.500
30
  0.000
0
VERTEX
8
layer0
10
  269.750
20
  147.500
30
  0.000
 0
SEQEND
 0
ARC
8
layer0
66
1
10
  267.250
20
  147.500
30
  0.000
40
  2.5000000000000133
50
  -0.000
51
  180.000
 0
POLYLINE
8
layer0
66
1
70
8
10
  0.0
20
  0.0
30
  0.0
  0
VERTEX
8
layer0
10
  264.750
20
  147.500
30
  0.000
0
VERTEX
8
layer0
10
  264.750
20
  92.500
30
  0.000
 0
SEQEND
 0
ARC
8
layer0
66
1
10
  267.250
20
  92.500
30
  0.000
40
  2.499999999999973
50
  180.000
51
  360.000
 0
POLYLINE
8
layer0
66
1
70
8
10
  0.0
20
  0.0
30
  0.0
  0
VERTEX
8
layer0
10
  303.000
20
  243.000
30
  3.000
0
VERTEX
8
layer0
10
  65.500
20
  243.000
30
  3.000
0
VERTEX
8
layer0
10
  -3.000
20
  243.000
30
  3.000
0
VERTEX
8
layer0
10
  -3.000
20
  -3.000
30
  3.000
0
VERTEX
8
layer0
10
  303.000
20
  -3.000
30
  3.000
0
VERTEX
8
layer0
10
  303.000
20
  243.000
30
  3.000
 0
SEQEND
 0
CIRCLE
8
layer0
66
1
10
  78.750
20
  232.500
30
  3.000
40
  1.5999999999999974
 0
CIRCLE
8
layer0
66
1
10
  292.500
20
  7.500
30
  3.000
40
  1.5999999999999974
 0
CIRCLE
8
layer0
66
1
10
  7.500
20
  45.000
30
  3.000
40
  1.5999999999999974
 0
CIRCLE
8
layer0
66
1
10
  7.500
20
  232.500
30
  3.000
40
  1.5999999999999974
 0
CIRCLE
8
layer0
66
1
10
  7.500
20
  82.500
30
  3.000
40
  1.5999999999999974
 0
CIRCLE
8
layer0
66
1
10
  7.500
20
  195.000
30
  3.000
40
  1.5999999999999974
 0
CIRCLE
8
layer0
66
1
10
  7.500
20
  157.500
30
  3.000
40
  1.5999999999999974
 0
CIRCLE
8
layer0
66
1
10
  7.500
20
  7.500
30
  3.000
40
  1.5999999999999963
 0
CIRCLE
8
layer0
66
1
10
  7.500
20
  120.000
30
  3.000
40
  1.5999999999999974
 0
CIRCLE
8
layer0
66
1
10
  292.500
20
  232.500
30
  3.000
40
  1.5999999999999974
 0
CIRCLE
8
layer0
66
1
10
  221.250
20
  232.500
30
  3.000
40
  1.5999999999999974
 0
CIRCLE
8
layer0
66
1
10
  150.000
20
  232.500
30
  3.000
40
  1.5999999999999974
 0
CIRCLE
8
layer0
66
1
10
  292.500
20
  45.000
30
  3.000
40
  1.5999999999999974
 0
CIRCLE
8
layer0
66
1
10
  292.500
20
  120.000
30
  3.000
40
  1.5999999999999974
 0
CIRCLE
8
layer0
66
1
10
  292.500
20
  82.500
30
  3.000
40
  1.5999999999999974
 0
CIRCLE
8
layer0
66
1
10
  292.500
20
  157.500
30
  3.000
40
  1.5999999999999974
 0
CIRCLE
8
layer0
66
1
10
  292.500
20
  195.000
30
  3.000
40
  1.5999999999999974
 0
CIRCLE
8
layer0
66
1
10
  78.750
20
  7.500
30
  3.000
40
  1.5999999999999974
 0
CIRCLE
8
layer0
66
1
10
  65.500
20
  212.000
30
  3.000
40
  9.100000000000007
 0
POLYLINE
8
layer0
66
1
70
8
10
  0.0
20
  0.0
30
  0.0
  0
VERTEX
8
layer0
10
  47.875
20
  206.125
30
  3.000
0
VERTEX
8
layer0
10
  24.875
20
  206.125
30
  3.000
0
VERTEX
8
layer0
10
  24.875
20
  217.875
30
  3.000
0
VERTEX
8
layer0
10
  47.875
20
  217.875
30
  3.000
0
VERTEX
8
layer0
10
  47.875
20
  206.125
30
  3.000
 0
SEQEND
 0
ARC
8
layer0
66
1
10
  32.750
20
  147.500
30
  3.000
40
  2.499999999999973
50
  -0.000
51
  180.000
 0
POLYLINE
8
layer0
66
1
70
8
10
  0.0
20
  0.0
30
  0.0
  0
VERTEX
8
layer0
10
  35.250
20
  147.500
30
  3.000
0
VERTEX
8
layer0
10
  35.250
20
  92.500
30
  3.000
 0
SEQEND
 0
ARC
8
layer0
66
1
10
  32.750
20
  92.500
30
  3.000
40
  2.500000000000007
50
  -180.000
51
  -0.000
 0
POLYLINE
8
layer0
66
1
70
8
10
  0.0
20
  0.0
30
  0.0
  0
VERTEX
8
layer0
10
  30.250
20
  92.500
30
  3.000
0
VERTEX
8
layer0
10
  30.250
20
  147.500
30
  3.000
 0
SEQEND
 0
ARC
8
layer0
66
1
10
  32.750
20
  147.500
30
  3.000
40
  2.499999999999973
50
  -0.000
51
  180.000
 0
ARC
8
layer0
66
1
10
  42.250
20
  147.000
30
  3.000
40
  2.9999999999999853
50
  90.000
51
  180.000
 0
POLYLINE
8
layer0
66
1
70
8
10
  0.0
20
  0.0
30
  0.0
  0
VERTEX
8
layer0
10
  42.250
20
  150.000
30
  3.000
0
VERTEX
8
layer0
10
  96.250
20
  150.000
30
  3.000
 0
SEQEND
 0
ARC
8
layer0
66
1
10
  96.250
20
  147.000
30
  3.000
40
  2.999999999999987
50
  -0.000
51
  90.000
 0
POLYLINE
8
layer0
66
1
70
8
10
  0.0
20
  0.0
30
  0.0
  0
VERTEX
8
layer0
10
  99.250
20
  147.000
30
  3.000
0
VERTEX
8
layer0
10
  99.250
20
  93.000
30
  3.000
 0
SEQEND
 0
ARC
8
layer0
66
1
10
  96.250
20
  93.000
30
  3.000
40
  2.9999999999999853
50
  -90.000
51
  -0.000
 0
POLYLINE
8
layer0
66
1
70
8
10
  0.0
20
  0.0
30
  0.0
  0
VERTEX
8
layer0
10
  96.250
20
  90.000
30
  3.000
0
VERTEX
8
layer0
10
  42.250
20
  90.000
30
  3.000
 0
SEQEND
 0
ARC
8
layer0
66
1
10
  42.250
20
  93.000
30
  3.000
40
  2.9999999999999853
50
  -180.000
51
  -90.000
 0
POLYLINE
8
layer0
66
1
70
8
10
  0.0
20
  0.0
30
  0.0
  0
VERTEX
8
layer0
10
  39.250
20
  93.000
30
  3.000
0
VERTEX
8
layer0
10
  39.250
20
  147.000
30
  3.000
 0
SEQEND
 0
ARC
8
layer0
66
1
10
  42.250
20
  147.000
30
  3.000
40
  2.9999999999999853
50
  90.000
51
  180.000
 0
CIRCLE
8
layer0
66
1
10
  150.000
20
  7.500
30
  3.000
40
  1.5999999999999974
 0
CIRCLE
8
layer0
66
1
10
  221.250
20
  7.500
30
  3.000
40
  1.5999999999999974
 0
CIRCLE
8
layer0
66
1
10
  27.250
20
  198.000
30
  3.000
40
  1.599999999999997
 0
CIRCLE
8
layer0
66
1
10
  37.500
20
  157.500
30
  3.000
40
  1.599999999999997
 0
CIRCLE
8
layer0
66
1
10
  37.500
20
  82.500
30
  3.000
40
  1.5999999999999974
 0
CIRCLE
8
layer0
66
1
10
  52.500
20
  82.500
30
  3.000
40
  1.5999999999999974
 0
CIRCLE
8
layer0
66
1
10
  52.500
20
  157.500
30
  3.000
40
  1.5999999999999974
 0
CIRCLE
8
layer0
66
1
10
  101.250
20
  157.500
30
  3.000
40
  1.5999999999999974
 0
CIRCLE
8
layer0
66
1
10
  101.250
20
  82.500
30
  3.000
40
  1.5999999999999974
 0
CIRCLE
8
layer0
66
1
10
  150.000
20
  82.500
30
  3.000
40
  1.5999999999999974
 0
CIRCLE
8
layer0
66
1
10
  150.000
20
  157.500
30
  3.000
40
  1.5999999999999974
 0
CIRCLE
8
layer0
66
1
10
  198.750
20
  82.500
30
  3.000
40
  1.5999999999999974
 0
CIRCLE
8
layer0
66
1
10
  198.750
20
  157.500
30
  3.000
40
  1.5999999999999974
 0
CIRCLE
8
layer0
66
1
10
  247.500
20
  157.500
30
  3.000
40
  1.5999999999999956
 0
CIRCLE
8
layer0
66
1
10
  247.500
20
  82.500
30
  3.000
40
  1.5999999999999974
 0
CIRCLE
8
layer0
66
1
10
  262.500
20
  157.500
30
  3.000
40
  1.5999999999999974
 0
CIRCLE
8
layer0
66
1
10
  262.500
20
  82.500
30
  3.000
40
  1.5999999999999974
 0
ARC
8
layer0
66
1
10
  203.750
20
  147.000
30
  3.000
40
  2.9999999999999845
50
  90.000
51
  180.000
 0
POLYLINE
8
layer0
66
1
70
8
10
  0.0
20
  0.0
30
  0.0
  0
VERTEX
8
layer0
10
  203.750
20
  150.000
30
  3.000
0
VERTEX
8
layer0
10
  257.750
20
  150.000
30
  3.000
 0
SEQEND
 0
ARC
8
layer0
66
1
10
  257.750
20
  147.000
30
  3.000
40
  2.9999999999999845
50
  -0.000
51
  90.000
 0
POLYLINE
8
layer0
66
1
70
8
10
  0.0
20
  0.0
30
  0.0
  0
VERTEX
8
layer0
10
  260.750
20
  147.000
30
  3.000
0
VERTEX
8
layer0
10
  260.750
20
  93.000
30
  3.000
 0
SEQEND
 0
ARC
8
layer0
66
1
10
  257.750
20
  93.000
30
  3.000
40
  2.9999999999999845
50
  -90.000
51
  -0.000
 0
POLYLINE
8
layer0
66
1
70
8
10
  0.0
20
  0.0
30
  0.0
  0
VERTEX
8
layer0
10
  257.750
20
  90.000
30
  3.000
0
VERTEX
8
layer0
10
  203.750
20
  90.000
30
  3.000
 0
SEQEND
 0
ARC
8
layer0
66
1
10
  203.750
20
  93.000
30
  3.000
40
  2.9999999999999942
50
  180.000
51
  270.000
 0
POLYLINE
8
layer0
66
1
70
8
10
  0.0
20
  0.0
30
  0.0
  0
VERTEX
8
layer0
10
  200.750
20
  93.000
30
  3.000
0
VERTEX
8
layer0
10
  200.750
20
  147.000
30
  3.000
 0
SEQEND
 0
ARC
8
layer0
66
1
10
  203.750
20
  147.000
30
  3.000
40
  2.9999999999999845
50
  90.000
51
  180.000
 0
ARC
8
layer0
66
1
10
  267.250
20
  92.500
30
  3.000
40
  2.499999999999973
50
  180.000
51
  360.000
 0
POLYLINE
8
layer0
66
1
70
8
10
  0.0
20
  0.0
30
  0.0
  0
VERTEX
8
layer0
10
  264.750
20
  92.500
30
  3.000
0
VERTEX
8
layer0
10
  264.750
20
  147.500
30
  3.000
 0
SEQEND
 0
ARC
8
layer0
66
1
10
  267.250
20
  147.500
30
  3.000
40
  2.5000000000000138
50
  -0.000
51
  180.000
 0
POLYLINE
8
layer0
66
1
70
8
10
  0.0
20
  0.0
30
  0.0
  0
VERTEX
8
layer0
10
  269.750
20
  147.500
30
  3.000
0
VERTEX
8
layer0
10
  269.750
20
  92.500
30
  3.000
 0
SEQEND
 0
ENDSEC
 0
EOF
