 0
SECTION
 2
HEADER
 9
$MEASUREMENT
 70
 2
 0
ENDSEC
 0
SECTION
 2
ENTITIES
 0
POLYLINE
8
layer0
66
1
70
8
10
  0.0
20
  0.0
30
  0.0
  0
VERTEX
8
layer0
10
  -2.9999999999999947
20
  243.00000000000014
30
  -1.9500655991949386e-13
0
VERTEX
8
layer0
10
  303.0
20
  243.00000000000014
30
  -2.0403267310969646e-13
0
VERTEX
8
layer0
10
  303.0
20
  -2.9999999999999947
30
  -7.643101837703353e-15
0
VERTEX
8
layer0
10
  -2.9999999999999947
20
  -2.9999999999999947
30
  1.3830113524992282e-15
0
VERTEX
8
layer0
10
  -2.9999999999999947
20
  243.00000000000014
30
  -1.9500655991949386e-13
 0
SEQEND
 0
ARC
8
layer0
66
1
10
  96.25049780135778
20
  93.00000000000013
30
  9.2389158969857e-14
40
  2.999999999999986
50
  -89.97666379572334
51
  0.011668102138330028
 0
POLYLINE
8
layer0
66
1
70
8
10
  0.0
20
  0.0
30
  0.0
  0
VERTEX
8
layer0
10
  99.25049780135782
20
  146.99999999999923
30
  1.5923823426477104e-13
0
VERTEX
8
layer0
10
  99.25049780135782
20
  93.00000000000013
30
  9.230066766407069e-14
 0
SEQEND
 0
ARC
8
layer0
66
1
10
  96.2504978013577
20
  146.99999999999923
30
  1.5932672557055734e-13
40
  2.9999999999999876
50
  0.011668102138330028
51
  90.0
 0
POLYLINE
8
layer0
66
1
70
8
10
  0.0
20
  0.0
30
  0.0
  0
VERTEX
8
layer0
10
  42.25049780135762
20
  149.9999999999995
30
  2.099761989020951e-12
0
VERTEX
8
layer0
10
  96.2504978013577
20
  149.99999999999923
30
  1.5803220552384442e-13
 0
SEQEND
 0
ARC
8
layer0
66
1
10
  42.25049780135762
20
  146.99999999999952
30
  2.101056509067664e-12
40
  2.999999999999986
50
  90.0
51
  179.98833189786166
 0
POLYLINE
8
layer0
66
1
70
8
10
  0.0
20
  0.0
30
  0.0
  0
VERTEX
8
layer0
10
  39.250497801357845
20
  93.00000000000014
30
  1.943968506331217e-12
0
VERTEX
8
layer0
10
  39.25049780135767
20
  146.99999999999952
30
  2.1011450003734504e-12
 0
SEQEND
 0
ARC
8
layer0
66
1
10
  42.250497801357795
20
  93.00000000000014
30
  1.9438800150254313e-12
40
  2.999999999999986
50
  -89.97666379572334
51
  0.011668102138330028
 0
POLYLINE
8
layer0
66
1
70
8
10
  0.0
20
  0.0
30
  0.0
  0
VERTEX
8
layer0
10
  42.250497801357795
20
  90.00000000000016
30
  1.945174535072144e-12
0
VERTEX
8
layer0
10
  96.25049780135778
20
  90.00000000000013
30
  9.368367901656993e-14
 0
SEQEND
 0
ARC
8
layer0
66
1
10
  96.25049780135778
20
  93.00000000000013
30
  9.2389158969857e-14
40
  2.999999999999986
50
  -89.97666379572334
51
  0.011668102138330028
 0
ARC
8
layer0
66
1
10
  32.7504978013577
20
  92.49999999999932
30
  5.005531517703501e-13
40
  2.500000000000008
50
  0.011668102138330028
51
  179.9883318978715
 0
POLYLINE
8
layer0
66
1
70
8
10
  0.0
20
  0.0
30
  0.0
  0
VERTEX
8
layer0
10
  35.25049780135772
20
  92.49999999999932
30
  5.004794090155282e-13
0
VERTEX
8
layer0
10
  35.25049780135758
20
  147.49999999999952
30
  2.1010472354400467e-12
 0
SEQEND
 0
ARC
8
layer0
66
1
10
  32.75049780135761
20
  147.5000000000001
30
  2.1011209781948684e-12
40
  2.499999999999973
50
  0.011668102124872348
51
  179.98833189786166
 0
POLYLINE
8
layer0
66
1
70
8
10
  0.0
20
  0.0
30
  0.0
  0
VERTEX
8
layer0
10
  30.250497801357547
20
  147.5000000000001
30
  4.768940270021012e-13
0
VERTEX
8
layer0
10
  30.250497801357728
20
  92.49999999999974
30
  5.006268945251718e-13
 0
SEQEND
 0
ARC
8
layer0
66
1
10
  32.7504978013577
20
  92.49999999999932
30
  5.005531517703501e-13
40
  2.500000000000008
50
  0.011668102138330028
51
  179.9883318978715
 0
CIRCLE
8
layer0
66
1
10
  7.499999999999918
20
  232.49999999999787
30
  -5.542706816395061e-14
40
  1.5999999999999974
 0
CIRCLE
8
layer0
66
1
10
  7.499999999999918
20
  194.99999999999775
30
  -1.74603958742338e-13
40
  1.5999999999999974
 0
CIRCLE
8
layer0
66
1
10
  7.499999999999783
20
  157.49999999999775
30
  -1.5842245815842636e-13
40
  1.5999999999999974
 0
CIRCLE
8
layer0
66
1
10
  7.499999999999874
20
  119.9999999999982
30
  -1.422409575745149e-13
40
  1.5999999999999974
 0
CIRCLE
8
layer0
66
1
10
  7.499999999999738
20
  82.4999999999982
30
  -1.2605945699060328e-13
40
  1.5999999999999974
 0
CIRCLE
8
layer0
66
1
10
  7.499999999999829
20
  44.9999999999982
30
  -1.0987795640669166e-13
40
  1.5999999999999974
 0
CIRCLE
8
layer0
66
1
10
  7.499999999999918
20
  7.499999999997888
30
  4.1661935339519197e-14
40
  1.5999999999999963
 0
CIRCLE
8
layer0
66
1
10
  78.74999999999991
20
  7.4999999999978435
30
  -5.559196893671764e-15
40
  1.5999999999999974
 0
CIRCLE
8
layer0
66
1
10
  149.99999999999991
20
  7.499999999997392
30
  8.496089452884646e-13
40
  1.5999999999999974
 0
CIRCLE
8
layer0
66
1
10
  221.2499999999999
20
  7.499999999997798
30
  -5.4881997639287345e-14
40
  1.5999999999999974
 0
CIRCLE
8
layer0
66
1
10
  292.4999999999999
20
  7.499999999997753
30
  -1.021031298724783e-13
40
  1.5999999999999974
 0
CIRCLE
8
layer0
66
1
10
  292.49999999999983
20
  44.9999999999982
30
  -1.1828463045639013e-13
40
  1.5999999999999974
 0
CIRCLE
8
layer0
66
1
10
  292.49999999999983
20
  82.4999999999982
30
  -1.3446613104030178e-13
40
  1.5999999999999974
 0
CIRCLE
8
layer0
66
1
10
  292.49999999999983
20
  119.9999999999982
30
  -1.5064763162421341e-13
40
  1.5999999999999974
 0
CIRCLE
8
layer0
66
1
10
  292.49999999999983
20
  157.49999999999798
30
  -1.6682913220812494e-13
40
  1.5999999999999974
 0
CIRCLE
8
layer0
66
1
10
  292.4999999999999
20
  194.9999999999982
30
  -1.8301063279203665e-13
40
  1.5999999999999974
 0
CIRCLE
8
layer0
66
1
10
  292.4999999999999
20
  232.49999999999775
30
  -1.9919213337594813e-13
40
  1.5999999999999974
 0
CIRCLE
8
layer0
66
1
10
  221.2499999999999
20
  232.49999999999778
30
  7.052988095518036e-13
40
  1.5999999999999974
 0
CIRCLE
8
layer0
66
1
10
  149.99999999999991
20
  232.49999999999784
30
  7.525199417849946e-13
40
  1.5999999999999974
 0
CIRCLE
8
layer0
66
1
10
  78.74999999999991
20
  232.4999999999983
30
  -1.0264820039714175e-13
40
  1.5999999999999974
 0
CIRCLE
8
layer0
66
1
10
  65.49999999999999
20
  212.0000000000006
30
  -9.341147681071492e-14
40
  9.100000000000007
 0
POLYLINE
8
layer0
66
1
70
8
10
  0.0
20
  0.0
30
  0.0
  0
VERTEX
8
layer0
10
  47.87450765950841
20
  217.87500000000023
30
  3.557679595829149e-13
0
VERTEX
8
layer0
10
  24.87500000000003
20
  217.87500000000017
30
  2.6620745096312614e-13
0
VERTEX
8
layer0
10
  24.87500000000003
20
  206.12500000000017
30
  2.712776544794185e-13
0
VERTEX
8
layer0
10
  24.87500000000003
20
  206.12500000000017
30
  2.712776544794185e-13
0
VERTEX
8
layer0
10
  47.87450765950841
20
  206.12500000000023
30
  3.608381630992072e-13
 0
SEQEND
 0
CIRCLE
8
layer0
66
1
10
  27.25000000000003
20
  198.00000000000048
30
  5.0031090925935e-13
40
  1.599999999999997
 0
CIRCLE
8
layer0
66
1
10
  262.4999999999998
20
  157.49999999999775
30
  2.8525041805740174e-13
40
  1.5999999999999974
 0
CIRCLE
8
layer0
66
1
10
  247.49999999999983
20
  157.49999999999775
30
  5.112901931901651e-13
40
  1.5999999999999956
 0
CIRCLE
8
layer0
66
1
10
  262.4999999999998
20
  82.4999999999983
30
  3.176134192252248e-13
40
  1.5999999999999974
 0
CIRCLE
8
layer0
66
1
10
  247.4999999999998
20
  82.4999999999983
30
  5.436531943579881e-13
40
  1.5999999999999974
 0
CIRCLE
8
layer0
66
1
10
  198.74999999999977
20
  82.4999999999983
30
  -1.3170077773447993e-13
40
  1.5999999999999974
 0
CIRCLE
8
layer0
66
1
10
  198.74999999999983
20
  157.49999999999775
30
  -1.64063778902303e-13
40
  1.5999999999999974
 0
CIRCLE
8
layer0
66
1
10
  149.99999999999977
20
  82.4999999999983
30
  5.014096980752765e-13
40
  1.5999999999999974
 0
CIRCLE
8
layer0
66
1
10
  149.9999999999998
20
  157.49999999999775
30
  4.690466969074534e-13
40
  1.5999999999999974
 0
CIRCLE
8
layer0
66
1
10
  101.24999999999984
20
  157.49999999999775
30
  -2.063072751850146e-13
40
  1.5999999999999974
 0
CIRCLE
8
layer0
66
1
10
  101.24999999999976
20
  82.4999999999983
30
  -1.7394427401719155e-13
40
  1.5999999999999974
 0
CIRCLE
8
layer0
66
1
10
  37.49999999999973
20
  82.49999999999793
30
  -1.7206383376923252e-13
40
  1.5999999999999974
 0
CIRCLE
8
layer0
66
1
10
  52.499999999999744
20
  82.4999999999983
30
  4.591662017925649e-13
40
  1.5999999999999974
 0
CIRCLE
8
layer0
66
1
10
  37.499999999999815
20
  157.499999999998
30
  4.272456571536732e-13
40
  1.599999999999997
 0
CIRCLE
8
layer0
66
1
10
  52.49999999999984
20
  157.49999999999778
30
  4.268032006247418e-13
40
  1.5999999999999974
 0
ARC
8
layer0
66
1
10
  203.74950219864192
20
  146.99999999999585
30
  -2.4322038402454257e-14
40
  2.999999999999985
50
  90.0
51
  179.98833189786166
 0
POLYLINE
8
layer0
66
1
70
8
10
  0.0
20
  0.0
30
  0.0
  0
VERTEX
8
layer0
10
  200.74950219864184
20
  92.99999999999676
30
  1.3442620490646347e-13
0
VERTEX
8
layer0
10
  200.74950219864192
20
  146.99999999999585
30
  -2.4233547096667953e-14
 0
SEQEND
 0
ARC
8
layer0
66
1
10
  203.74950219864192
20
  92.99999999999676
30
  1.3433771360067718e-13
40
  2.9999999999999942
50
  179.98833189786166
51
  269.9766637957233
 0
POLYLINE
8
layer0
66
1
70
8
10
  0.0
20
  0.0
30
  0.0
  0
VERTEX
8
layer0
10
  257.74950219864195
20
  89.99999999999666
30
  1.9388179389738913e-12
0
VERTEX
8
layer0
10
  203.74950219864192
20
  89.99999999999676
30
  1.3563223364739012e-13
 0
SEQEND
 0
ARC
8
layer0
66
1
10
  257.74950219864195
20
  92.99999999999665
30
  1.937523418927178e-12
40
  2.999999999999985
50
  -89.97666379572334
51
  0.011668102138330028
 0
POLYLINE
8
layer0
66
1
70
8
10
  0.0
20
  0.0
30
  0.0
  0
VERTEX
8
layer0
10
  260.7495021986419
20
  146.99999999999577
30
  1.6885362481767278e-12
0
VERTEX
8
layer0
10
  260.7495021986419
20
  92.99999999999665
30
  1.937434927621392e-12
 0
SEQEND
 0
ARC
8
layer0
66
1
10
  257.74950219864195
20
  146.99999999999577
30
  1.688624739482514e-12
40
  2.999999999999985
50
  90.0
51
  179.98833189786166
 0
POLYLINE
8
layer0
66
1
70
8
10
  0.0
20
  0.0
30
  0.0
  0
VERTEX
8
layer0
10
  257.74950219864195
20
  149.99999999999577
30
  1.6873302194358012e-12
0
VERTEX
8
layer0
10
  203.74950219864192
20
  149.99999999999585
30
  -2.5616558449167185e-14
 0
SEQEND
 0
ARC
8
layer0
66
1
10
  203.74950219864192
20
  146.99999999999585
30
  -2.4322038402454257e-14
40
  2.999999999999985
50
  90.0
51
  179.98833189786166
 0
ARC
8
layer0
66
1
10
  267.24950219864166
20
  92.49999999999633
30
  1.4862643125923104e-12
40
  2.499999999999973
50
  179.98833189785597
51
  359.964995693585
 0
POLYLINE
8
layer0
66
1
70
8
10
  0.0
20
  0.0
30
  0.0
  0
VERTEX
8
layer0
10
  269.7495021986417
20
  92.49999999999633
30
  4.935623679806286e-13
0
VERTEX
8
layer0
10
  269.7495021986417
20
  147.49999999999628
30
  3.795905730160254e-13
 0
SEQEND
 0
ARC
8
layer0
66
1
10
  267.2495021986418
20
  147.49999999999628
30
  3.796643157708473e-13
40
  2.5000000000000133
50
  179.98833189786166
51
  359.964995693585
 0
POLYLINE
8
layer0
66
1
70
8
10
  0.0
20
  0.0
30
  0.0
  0
VERTEX
8
layer0
10
  264.74950219864166
20
  147.49999999999628
30
  3.797380585256692e-13
0
VERTEX
8
layer0
10
  264.74950219864166
20
  92.49999999999658
30
  1.486338055347132e-12
 0
SEQEND
 0
ARC
8
layer0
66
1
10
  267.24950219864166
20
  92.49999999999633
30
  1.4862643125923104e-12
40
  2.499999999999973
50
  179.98833189785597
51
  359.964995693585
 0
POLYLINE
8
layer0
66
1
70
8
10
  0.0
20
  0.0
30
  0.0
  0
VERTEX
8
layer0
10
  65.49999999999994
20
  243.0000000000006
30
  3.0000000000002487
0
VERTEX
8
layer0
10
  303.00000000000006
20
  243.00000000000014
30
  2.9999999999997904
0
VERTEX
8
layer0
10
  65.49999999999994
20
  243.0000000000006
30
  3.0000000000002487
0
VERTEX
8
layer0
10
  -2.9999999999999947
20
  243.00000000000014
30
  2.9999999999997997
0
VERTEX
8
layer0
10
  -2.9999999999999947
20
  -2.999999999999993
30
  2.999999999999996
0
VERTEX
8
layer0
10
  303.0
20
  -2.999999999999993
30
  2.9999999999999867
 0
SEQEND
 0
CIRCLE
8
layer0
66
1
10
  78.74999999999991
20
  232.4999999999983
30
  2.999999999999892
40
  1.5999999999999974
 0
CIRCLE
8
layer0
66
1
10
  292.4999999999999
20
  7.499999999997755
30
  2.999999999999892
40
  1.5999999999999974
 0
CIRCLE
8
layer0
66
1
10
  7.499999999999829
20
  44.9999999999982
30
  2.9999999999998845
40
  1.5999999999999974
 0
CIRCLE
8
layer0
66
1
10
  7.499999999999918
20
  232.49999999999787
30
  2.999999999999939
40
  1.5999999999999974
 0
CIRCLE
8
layer0
66
1
10
  7.499999999999738
20
  82.4999999999982
30
  2.999999999999868
40
  1.5999999999999974
 0
CIRCLE
8
layer0
66
1
10
  7.499999999999918
20
  194.99999999999775
30
  2.99999999999982
40
  1.5999999999999974
 0
CIRCLE
8
layer0
66
1
10
  7.499999999999783
20
  157.49999999999775
30
  2.999999999999836
40
  1.5999999999999974
 0
CIRCLE
8
layer0
66
1
10
  7.499999999999918
20
  7.49999999999789
30
  3.000000000000036
40
  1.5999999999999963
 0
CIRCLE
8
layer0
66
1
10
  7.499999999999874
20
  119.9999999999982
30
  2.999999999999852
40
  1.5999999999999974
 0
CIRCLE
8
layer0
66
1
10
  292.4999999999999
20
  232.49999999999775
30
  2.9999999999997953
40
  1.5999999999999974
 0
CIRCLE
8
layer0
66
1
10
  221.2499999999999
20
  232.49999999999778
30
  3.0000000000007
40
  1.5999999999999974
 0
CIRCLE
8
layer0
66
1
10
  149.99999999999991
20
  232.49999999999784
30
  3.000000000000747
40
  1.5999999999999974
 0
CIRCLE
8
layer0
66
1
10
  292.49999999999983
20
  44.9999999999982
30
  2.999999999999876
40
  1.5999999999999974
 0
CIRCLE
8
layer0
66
1
10
  292.49999999999983
20
  119.9999999999982
30
  2.999999999999844
40
  1.5999999999999974
 0
CIRCLE
8
layer0
66
1
10
  292.49999999999983
20
  82.4999999999982
30
  2.99999999999986
40
  1.5999999999999974
 0
CIRCLE
8
layer0
66
1
10
  292.49999999999983
20
  157.49999999999798
30
  2.9999999999998277
40
  1.5999999999999974
 0
CIRCLE
8
layer0
66
1
10
  292.4999999999999
20
  194.9999999999982
30
  2.9999999999998117
40
  1.5999999999999974
 0
CIRCLE
8
layer0
66
1
10
  78.74999999999991
20
  7.499999999997844
30
  2.999999999999989
40
  1.5999999999999974
 0
CIRCLE
8
layer0
66
1
10
  65.49999999999999
20
  212.0000000000006
30
  3.0000000000002167
40
  9.100000000000007
 0
POLYLINE
8
layer0
66
1
70
8
10
  0.0
20
  0.0
30
  0.0
  0
VERTEX
8
layer0
10
  47.87450765950841
20
  206.12500000000023
30
  3.000000000000581
0
VERTEX
8
layer0
10
  24.87500000000003
20
  206.12500000000017
30
  3.0000000000004916
0
VERTEX
8
layer0
10
  24.87500000000003
20
  206.12500000000017
30
  3.0000000000004916
0
VERTEX
8
layer0
10
  24.87500000000003
20
  217.87500000000017
30
  3.0000000000004863
0
VERTEX
8
layer0
10
  47.87450765950841
20
  206.12500000000023
30
  3.000000000000581
 0
SEQEND
 0
ARC
8
layer0
66
1
10
  32.75049780135761
20
  147.5000000000001
30
  3.0000000000020957
40
  2.499999999999973
50
  0.011668102124872348
51
  179.98833189786166
 0
POLYLINE
8
layer0
66
1
70
8
10
  0.0
20
  0.0
30
  0.0
  0
VERTEX
8
layer0
10
  35.25049780135772
20
  92.49999999999932
30
  3.000000000000495
0
VERTEX
8
layer0
10
  35.25049780135758
20
  147.49999999999952
30
  3.000000000002095
 0
SEQEND
 0
ARC
8
layer0
66
1
10
  32.7504978013577
20
  92.49999999999932
30
  3.000000000000495
40
  2.5000000000000075
50
  0.011668102138330028
51
  179.9883318978715
 0
POLYLINE
8
layer0
66
1
70
8
10
  0.0
20
  0.0
30
  0.0
  0
VERTEX
8
layer0
10
  30.250497801357547
20
  147.5000000000001
30
  3.0000000000005165
0
VERTEX
8
layer0
10
  30.250497801357728
20
  92.49999999999974
30
  3.000000000000495
 0
SEQEND
 0
ARC
8
layer0
66
1
10
  32.75049780135761
20
  147.5000000000001
30
  3.0000000000020957
40
  2.499999999999973
50
  0.011668102124872348
51
  179.98833189786166
 0
ARC
8
layer0
66
1
10
  42.25049780135762
20
  146.99999999999952
30
  3.0000000000020957
40
  2.9999999999999862
50
  90.0
51
  179.98833189786166
 0
POLYLINE
8
layer0
66
1
70
8
10
  0.0
20
  0.0
30
  0.0
  0
VERTEX
8
layer0
10
  42.25049780135762
20
  149.9999999999995
30
  3.0000000000020943
0
VERTEX
8
layer0
10
  96.2504978013577
20
  149.99999999999923
30
  3.0000000000001523
 0
SEQEND
 0
ARC
8
layer0
66
1
10
  96.2504978013577
20
  146.99999999999923
30
  3.0000000000001537
40
  2.999999999999988
50
  0.011668102138330028
51
  90.0
 0
POLYLINE
8
layer0
66
1
70
8
10
  0.0
20
  0.0
30
  0.0
  0
VERTEX
8
layer0
10
  99.25049780135782
20
  146.99999999999923
30
  3.0000000000001537
0
VERTEX
8
layer0
10
  99.25049780135782
20
  93.00000000000013
30
  3.000000000000087
 0
SEQEND
 0
ARC
8
layer0
66
1
10
  96.25049780135778
20
  93.00000000000013
30
  3.000000000000087
40
  2.9999999999999862
50
  -89.97666379572334
51
  0.011668102138330028
 0
POLYLINE
8
layer0
66
1
70
8
10
  0.0
20
  0.0
30
  0.0
  0
VERTEX
8
layer0
10
  42.250497801357795
20
  90.00000000000016
30
  3.00000000000194
0
VERTEX
8
layer0
10
  96.25049780135778
20
  90.00000000000013
30
  3.0000000000000884
 0
SEQEND
 0
ARC
8
layer0
66
1
10
  42.250497801357795
20
  93.00000000000014
30
  3.0000000000019384
40
  2.9999999999999862
50
  -89.97666379572334
51
  0.011668102138330028
 0
POLYLINE
8
layer0
66
1
70
8
10
  0.0
20
  0.0
30
  0.0
  0
VERTEX
8
layer0
10
  39.250497801357845
20
  93.00000000000014
30
  3.0000000000019384
0
VERTEX
8
layer0
10
  39.25049780135767
20
  146.99999999999952
30
  3.0000000000020957
 0
SEQEND
 0
ARC
8
layer0
66
1
10
  42.25049780135762
20
  146.99999999999952
30
  3.0000000000020957
40
  2.9999999999999862
50
  90.0
51
  179.98833189786166
 0
CIRCLE
8
layer0
66
1
10
  149.99999999999991
20
  7.499999999997393
30
  3.000000000000844
40
  1.5999999999999974
 0
CIRCLE
8
layer0
66
1
10
  221.2499999999999
20
  7.499999999997799
30
  2.9999999999999396
40
  1.5999999999999974
 0
CIRCLE
8
layer0
66
1
10
  27.25000000000003
20
  198.00000000000048
30
  3.0000000000004947
40
  1.599999999999997
 0
CIRCLE
8
layer0
66
1
10
  37.499999999999815
20
  157.499999999998
30
  3.000000000000422
40
  1.599999999999997
 0
CIRCLE
8
layer0
66
1
10
  37.49999999999973
20
  82.49999999999793
30
  2.9999999999998224
40
  1.5999999999999974
 0
CIRCLE
8
layer0
66
1
10
  52.499999999999744
20
  82.4999999999983
30
  3.000000000000454
40
  1.5999999999999974
 0
CIRCLE
8
layer0
66
1
10
  52.49999999999984
20
  157.49999999999778
30
  3.0000000000004214
40
  1.5999999999999974
 0
CIRCLE
8
layer0
66
1
10
  101.24999999999984
20
  157.49999999999775
30
  2.999999999999788
40
  1.5999999999999974
 0
CIRCLE
8
layer0
66
1
10
  101.24999999999976
20
  82.4999999999983
30
  2.9999999999998206
40
  1.5999999999999974
 0
CIRCLE
8
layer0
66
1
10
  149.99999999999977
20
  82.4999999999983
30
  3.0000000000004956
40
  1.5999999999999974
 0
CIRCLE
8
layer0
66
1
10
  149.9999999999998
20
  157.49999999999775
30
  3.0000000000004636
40
  1.5999999999999974
 0
CIRCLE
8
layer0
66
1
10
  198.74999999999977
20
  82.4999999999983
30
  2.9999999999998628
40
  1.5999999999999974
 0
CIRCLE
8
layer0
66
1
10
  198.74999999999983
20
  157.49999999999775
30
  2.999999999999831
40
  1.5999999999999974
 0
CIRCLE
8
layer0
66
1
10
  247.49999999999983
20
  157.49999999999775
30
  3.000000000000506
40
  1.5999999999999956
 0
CIRCLE
8
layer0
66
1
10
  247.4999999999998
20
  82.4999999999983
30
  3.0000000000005382
40
  1.5999999999999974
 0
CIRCLE
8
layer0
66
1
10
  262.49999999999983
20
  157.49999999999775
30
  3.0000000000002798
40
  1.5999999999999974
 0
CIRCLE
8
layer0
66
1
10
  262.4999999999998
20
  82.4999999999983
30
  3.000000000000312
40
  1.5999999999999974
 0
ARC
8
layer0
66
1
10
  203.74950219864184
20
  146.99999999999585
30
  2.9999999999999702
40
  2.9999999999999853
50
  90.0
51
  179.98833189786083
 0
POLYLINE
8
layer0
66
1
70
8
10
  0.0
20
  0.0
30
  0.0
  0
VERTEX
8
layer0
10
  257.74950219864184
20
  149.9999999999958
30
  3.0000000000016818
0
VERTEX
8
layer0
10
  203.74950219864184
20
  149.99999999999585
30
  2.999999999999969
 0
SEQEND
 0
ARC
8
layer0
66
1
10
  257.74950219864184
20
  146.9999999999958
30
  3.000000000001683
40
  2.9999999999999853
50
  90.0
51
  179.98833189786166
 0
POLYLINE
8
layer0
66
1
70
8
10
  0.0
20
  0.0
30
  0.0
  0
VERTEX
8
layer0
10
  260.7495021986418
20
  146.9999999999958
30
  3.000000000001683
0
VERTEX
8
layer0
10
  260.7495021986419
20
  92.99999999999665
30
  3.000000000001932
 0
SEQEND
 0
ARC
8
layer0
66
1
10
  257.74950219864195
20
  92.99999999999665
30
  3.0000000000019322
40
  2.9999999999999853
50
  -89.97666379572334
51
  0.011668102138330028
 0
POLYLINE
8
layer0
66
1
70
8
10
  0.0
20
  0.0
30
  0.0
  0
VERTEX
8
layer0
10
  257.74950219864195
20
  89.99999999999666
30
  3.000000000001933
0
VERTEX
8
layer0
10
  203.74950219864184
20
  89.99999999999676
30
  3.00000000000013
 0
SEQEND
 0
ARC
8
layer0
66
1
10
  203.74950219864184
20
  92.99999999999676
30
  3.000000000000129
40
  2.9999999999999942
50
  179.98833189786166
51
  269.9766637957233
 0
POLYLINE
8
layer0
66
1
70
8
10
  0.0
20
  0.0
30
  0.0
  0
VERTEX
8
layer0
10
  200.74950219864175
20
  92.99999999999676
30
  3.000000000000129
0
VERTEX
8
layer0
10
  200.74950219864186
20
  146.9999999999959
30
  2.9999999999999702
 0
SEQEND
 0
ARC
8
layer0
66
1
10
  203.74950219864184
20
  146.99999999999585
30
  2.9999999999999702
40
  2.9999999999999853
50
  90.0
51
  179.98833189786083
 0
ARC
8
layer0
66
1
10
  267.24950219864195
20
  92.49999999999638
30
  3.0000000000014806
40
  2.499999999999973
50
  179.98833189785597
51
  359.964995693585
 0
POLYLINE
8
layer0
66
1
70
8
10
  0.0
20
  0.0
30
  0.0
  0
VERTEX
8
layer0
10
  264.74950219864195
20
  147.49999999999633
30
  3.000000000000374
0
VERTEX
8
layer0
10
  264.74950219864195
20
  92.49999999999663
30
  3.000000000001481
 0
SEQEND
 0
ARC
8
layer0
66
1
10
  267.24950219864195
20
  147.49999999999633
30
  3.000000000000374
40
  2.5000000000000138
50
  179.98833189786166
51
  359.964995693585
 0
POLYLINE
8
layer0
66
1
70
8
10
  0.0
20
  0.0
30
  0.0
  0
VERTEX
8
layer0
10
  269.749502198642
20
  92.49999999999638
30
  3.000000000000488
0
VERTEX
8
layer0
10
  269.7495021986419
20
  147.49999999999633
30
  3.000000000000374
 0
SEQEND
 0
ENDSEC
 0
EOF
