 0
SECTION
 2
HEADER
 9
$MEASUREMENT
 70
 2
 0
ENDSEC
 0
SECTION
 2
ENTITIES
 0
CIRCLE
8
layer0
66
1
10
  -16.057
20
  1.750
30
  -0.000
40
  1.600
 0
CIRCLE
8
layer0
66
1
10
  73.943
20
  -20.549
30
  0.000
40
  1.600
 0
CIRCLE
8
layer0
66
1
10
  73.943
20
  1.750
30
  0.000
40
  1.600
 0
CIRCLE
8
layer0
66
1
10
  -16.057
20
  -20.549
30
  0.000
40
  1.600
 0
CIRCLE
8
layer0
66
1
10
  3.943
20
  -4.000
30
  0.000
40
  2.100
 0
CIRCLE
8
layer0
66
1
10
  53.943
20
  -4.000
30
  0.000
40
  2.100
 0
ARC
8
layer0
66
1
10
  28.943
20
  -29.000
30
  0.000
40
  29.000
50
  45.000
51
  135.000
 0
POLYLINE
8
layer0
66
1
70
8
10
  0.000
20
  0.000
30
  0.000
  0
VERTEX
8
layer0
10
  49.419
20
  -8.524
30
  0.000
  0
VERTEX
8
layer0
10
  66.443
20
  -26.653
30
  0.000
 0
SEQEND
 0
POLYLINE
8
layer0
66
1
70
8
10
  0.000
20
  0.000
30
  0.000
  0
VERTEX
8
layer0
10
  66.443
20
  -26.653
30
  0.000
  0
VERTEX
8
layer0
10
  79.443
20
  -26.653
30
  0.000
 0
SEQEND
 0
ARC
8
layer0
66
1
10
  79.443
20
  -24.653
30
  0.000
40
  2.000
50
  270.000
51
  0.000
 0
POLYLINE
8
layer0
66
1
70
8
10
  0.000
20
  0.000
30
  0.000
  0
VERTEX
8
layer0
10
  81.443
20
  -24.653
30
  0.000
  0
VERTEX
8
layer0
10
  81.443
20
  4.750
30
  0.000
 0
SEQEND
 0
ARC
8
layer0
66
1
10
  79.443
20
  4.750
30
  0.000
40
  2.000
50
  0.000
51
  90.000
 0
POLYLINE
8
layer0
66
1
70
8
10
  0.000
20
  0.000
30
  0.000
  0
VERTEX
8
layer0
10
  79.443
20
  6.750
30
  0.000
  0
VERTEX
8
layer0
10
  -21.557
20
  6.750
30
  -0.000
 0
SEQEND
 0
ARC
8
layer0
66
1
10
  -21.557
20
  4.750
30
  -0.000
40
  2.000
50
  90.000
51
  180.000
 0
POLYLINE
8
layer0
66
1
70
8
10
  0.000
20
  0.000
30
  0.000
  0
VERTEX
8
layer0
10
  -23.557
20
  4.750
30
  -0.000
  0
VERTEX
8
layer0
10
  -23.557
20
  -24.653
30
  0.000
 0
SEQEND
 0
ARC
8
layer0
66
1
10
  -21.557
20
  -24.653
30
  0.000
40
  2.000
50
  180.000
51
  -90.000
 0
POLYLINE
8
layer0
66
1
70
8
10
  0.000
20
  0.000
30
  0.000
  0
VERTEX
8
layer0
10
  -21.557
20
  -26.653
30
  0.000
  0
VERTEX
8
layer0
10
  -8.557
20
  -26.653
30
  0.000
 0
SEQEND
 0
POLYLINE
8
layer0
66
1
70
8
10
  0.000
20
  0.000
30
  0.000
  0
VERTEX
8
layer0
10
  -8.557
20
  -26.653
30
  0.000
  0
VERTEX
8
layer0
10
  8.467
20
  -8.524
30
  0.000
 0
SEQEND
 0
ARC
8
layer0
66
1
10
  28.943
20
  -29.000
30
  0.000
40
  29.000
50
  45.000
51
  135.000
 0
CIRCLE
8
layer0
66
1
10
  -16.057
20
  -20.549
30
  -5.000
40
  1.600
 0
CIRCLE
8
layer0
66
1
10
  73.943
20
  1.750
30
  -5.000
40
  1.600
 0
CIRCLE
8
layer0
66
1
10
  -16.057
20
  1.750
30
  -5.000
40
  1.600
 0
CIRCLE
8
layer0
66
1
10
  73.943
20
  -20.549
30
  -5.000
40
  1.600
 0
CIRCLE
8
layer0
66
1
10
  3.943
20
  -4.000
30
  -5.000
40
  2.100
 0
CIRCLE
8
layer0
66
1
10
  53.943
20
  -4.000
30
  -5.000
40
  2.100
 0
ARC
8
layer0
66
1
10
  28.943
20
  -29.000
30
  -5.000
40
  29.000
50
  45.000
51
  135.000
 0
POLYLINE
8
layer0
66
1
70
8
10
  0.000
20
  0.000
30
  0.000
  0
VERTEX
8
layer0
10
  8.467
20
  -8.524
30
  -5.000
  0
VERTEX
8
layer0
10
  -8.557
20
  -26.653
30
  -5.000
 0
SEQEND
 0
POLYLINE
8
layer0
66
1
70
8
10
  0.000
20
  0.000
30
  0.000
  0
VERTEX
8
layer0
10
  -8.557
20
  -26.653
30
  -5.000
  0
VERTEX
8
layer0
10
  -21.557
20
  -26.653
30
  -5.000
 0
SEQEND
 0
ARC
8
layer0
66
1
10
  -21.557
20
  -24.653
30
  -5.000
40
  2.000
50
  180.000
51
  -90.000
 0
POLYLINE
8
layer0
66
1
70
8
10
  0.000
20
  0.000
30
  0.000
  0
VERTEX
8
layer0
10
  -23.557
20
  -24.653
30
  -5.000
  0
VERTEX
8
layer0
10
  -23.557
20
  4.750
30
  -5.000
 0
SEQEND
 0
ARC
8
layer0
66
1
10
  -21.557
20
  4.750
30
  -5.000
40
  2.000
50
  90.000
51
  180.000
 0
POLYLINE
8
layer0
66
1
70
8
10
  0.000
20
  0.000
30
  0.000
  0
VERTEX
8
layer0
10
  -21.557
20
  6.750
30
  -5.000
  0
VERTEX
8
layer0
10
  79.443
20
  6.750
30
  -5.000
 0
SEQEND
 0
ARC
8
layer0
66
1
10
  79.443
20
  4.750
30
  -5.000
40
  2.000
50
  0.000
51
  90.000
 0
POLYLINE
8
layer0
66
1
70
8
10
  0.000
20
  0.000
30
  0.000
  0
VERTEX
8
layer0
10
  81.443
20
  4.750
30
  -5.000
  0
VERTEX
8
layer0
10
  81.443
20
  -24.653
30
  -5.000
 0
SEQEND
 0
ARC
8
layer0
66
1
10
  79.443
20
  -24.653
30
  -5.000
40
  2.000
50
  -90.000
51
  0.000
 0
POLYLINE
8
layer0
66
1
70
8
10
  0.000
20
  0.000
30
  0.000
  0
VERTEX
8
layer0
10
  79.443
20
  -26.653
30
  -5.000
  0
VERTEX
8
layer0
10
  66.443
20
  -26.653
30
  -5.000
 0
SEQEND
 0
POLYLINE
8
layer0
66
1
70
8
10
  0.000
20
  0.000
30
  0.000
  0
VERTEX
8
layer0
10
  66.443
20
  -26.653
30
  -5.000
  0
VERTEX
8
layer0
10
  49.419
20
  -8.524
30
  -5.000
 0
SEQEND
 0
ENDSEC
 0
EOF
