 0
SECTION
 2
HEADER
 9
$MEASUREMENT
 70
 2
 0
ENDSEC
 0
SECTION
 2
ENTITIES
 0
CIRCLE
8
layer0
66
1
10
  53.943
20
  -4.000
30
  0.000
40
  2.100
 0
CIRCLE
8
layer0
66
1
10
  3.943
20
  -4.000
30
  0.000
40
  2.100
 0
POLYLINE
8
layer0
66
1
70
8
10
  0.000
20
  0.000
30
  0.000
  0
VERTEX
8
layer0
10
  48.795
20
  -7.860
30
  0.000
  0
VERTEX
8
layer0
10
  49.419
20
  -8.524
30
  0.000
 0
SEQEND
 0
POLYLINE
8
layer0
66
1
70
8
10
  0.000
20
  0.000
30
  0.000
  0
VERTEX
8
layer0
10
  49.419
20
  -8.524
30
  0.000
  0
VERTEX
8
layer0
10
  66.443
20
  -26.653
30
  0.000
 0
SEQEND
 0
POLYLINE
8
layer0
66
1
70
8
10
  0.000
20
  0.000
30
  0.000
  0
VERTEX
8
layer0
10
  66.443
20
  -26.653
30
  0.000
  0
VERTEX
8
layer0
10
  66.443
20
  6.750
30
  0.000
 0
SEQEND
 0
POLYLINE
8
layer0
66
1
70
8
10
  0.000
20
  0.000
30
  0.000
  0
VERTEX
8
layer0
10
  66.443
20
  6.750
30
  0.000
  0
VERTEX
8
layer0
10
  -8.557
20
  6.750
30
  0.000
 0
SEQEND
 0
POLYLINE
8
layer0
66
1
70
8
10
  0.000
20
  0.000
30
  0.000
  0
VERTEX
8
layer0
10
  -8.557
20
  6.750
30
  0.000
  0
VERTEX
8
layer0
10
  -8.557
20
  -26.653
30
  0.000
 0
SEQEND
 0
POLYLINE
8
layer0
66
1
70
8
10
  0.000
20
  0.000
30
  0.000
  0
VERTEX
8
layer0
10
  -8.557
20
  -26.653
30
  0.000
  0
VERTEX
8
layer0
10
  8.467
20
  -8.524
30
  0.000
 0
SEQEND
 0
POLYLINE
8
layer0
66
1
70
8
10
  0.000
20
  0.000
30
  0.000
  0
VERTEX
8
layer0
10
  8.467
20
  -8.524
30
  0.000
  0
VERTEX
8
layer0
10
  9.091
20
  -7.860
30
  0.000
 0
SEQEND
 0
POLYLINE
8
layer0
66
1
70
8
10
  0.000
20
  0.000
30
  0.000
  0
VERTEX
8
layer0
10
  9.091
20
  -7.860
30
  0.000
  0
VERTEX
8
layer0
10
  11.897
20
  -5.539
30
  0.000
 0
SEQEND
 0
POLYLINE
8
layer0
66
1
70
8
10
  0.000
20
  0.000
30
  0.000
  0
VERTEX
8
layer0
10
  11.897
20
  -5.539
30
  0.000
  0
VERTEX
8
layer0
10
  14.972
20
  -3.587
30
  0.000
 0
SEQEND
 0
POLYLINE
8
layer0
66
1
70
8
10
  0.000
20
  0.000
30
  0.000
  0
VERTEX
8
layer0
10
  14.972
20
  -3.587
30
  0.000
  0
VERTEX
8
layer0
10
  18.267
20
  -2.036
30
  0.000
 0
SEQEND
 0
POLYLINE
8
layer0
66
1
70
8
10
  0.000
20
  0.000
30
  0.000
  0
VERTEX
8
layer0
10
  18.267
20
  -2.036
30
  0.000
  0
VERTEX
8
layer0
10
  21.731
20
  -0.911
30
  0.000
 0
SEQEND
 0
POLYLINE
8
layer0
66
1
70
8
10
  0.000
20
  0.000
30
  0.000
  0
VERTEX
8
layer0
10
  21.731
20
  -0.911
30
  0.000
  0
VERTEX
8
layer0
10
  25.308
20
  -0.229
30
  0.000
 0
SEQEND
 0
POLYLINE
8
layer0
66
1
70
8
10
  0.000
20
  0.000
30
  0.000
  0
VERTEX
8
layer0
10
  25.308
20
  -0.229
30
  0.000
  0
VERTEX
8
layer0
10
  28.943
20
  0.000
30
  0.000
 0
SEQEND
 0
POLYLINE
8
layer0
66
1
70
8
10
  0.000
20
  0.000
30
  0.000
  0
VERTEX
8
layer0
10
  28.943
20
  0.000
30
  0.000
  0
VERTEX
8
layer0
10
  32.577
20
  -0.229
30
  0.000
 0
SEQEND
 0
POLYLINE
8
layer0
66
1
70
8
10
  0.000
20
  0.000
30
  0.000
  0
VERTEX
8
layer0
10
  32.577
20
  -0.229
30
  0.000
  0
VERTEX
8
layer0
10
  36.155
20
  -0.911
30
  0.000
 0
SEQEND
 0
POLYLINE
8
layer0
66
1
70
8
10
  0.000
20
  0.000
30
  0.000
  0
VERTEX
8
layer0
10
  36.155
20
  -0.911
30
  0.000
  0
VERTEX
8
layer0
10
  39.618
20
  -2.036
30
  0.000
 0
SEQEND
 0
POLYLINE
8
layer0
66
1
70
8
10
  0.000
20
  0.000
30
  0.000
  0
VERTEX
8
layer0
10
  39.618
20
  -2.036
30
  0.000
  0
VERTEX
8
layer0
10
  42.914
20
  -3.587
30
  0.000
 0
SEQEND
 0
POLYLINE
8
layer0
66
1
70
8
10
  0.000
20
  0.000
30
  0.000
  0
VERTEX
8
layer0
10
  42.914
20
  -3.587
30
  0.000
  0
VERTEX
8
layer0
10
  45.989
20
  -5.538
30
  0.000
 0
SEQEND
 0
POLYLINE
8
layer0
66
1
70
8
10
  0.000
20
  0.000
30
  0.000
  0
VERTEX
8
layer0
10
  45.989
20
  -5.538
30
  0.000
  0
VERTEX
8
layer0
10
  48.795
20
  -7.860
30
  0.000
 0
SEQEND
 0
CIRCLE
8
layer0
66
1
10
  3.943
20
  -4.000
30
  -5.000
40
  2.100
 0
CIRCLE
8
layer0
66
1
10
  53.943
20
  -4.000
30
  -5.000
40
  2.100
 0
POLYLINE
8
layer0
66
1
70
8
10
  0.000
20
  0.000
30
  0.000
  0
VERTEX
8
layer0
10
  -8.557
20
  -26.653
30
  -5.000
  0
VERTEX
8
layer0
10
  -8.557
20
  6.750
30
  -5.000
 0
SEQEND
 0
POLYLINE
8
layer0
66
1
70
8
10
  0.000
20
  0.000
30
  0.000
  0
VERTEX
8
layer0
10
  -8.557
20
  6.750
30
  -5.000
  0
VERTEX
8
layer0
10
  66.443
20
  6.750
30
  -5.000
 0
SEQEND
 0
POLYLINE
8
layer0
66
1
70
8
10
  0.000
20
  0.000
30
  0.000
  0
VERTEX
8
layer0
10
  66.443
20
  6.750
30
  -5.000
  0
VERTEX
8
layer0
10
  66.443
20
  -26.653
30
  -5.000
 0
SEQEND
 0
POLYLINE
8
layer0
66
1
70
8
10
  0.000
20
  0.000
30
  0.000
  0
VERTEX
8
layer0
10
  66.443
20
  -26.653
30
  -5.000
  0
VERTEX
8
layer0
10
  49.419
20
  -8.524
30
  -5.000
 0
SEQEND
 0
POLYLINE
8
layer0
66
1
70
8
10
  0.000
20
  0.000
30
  0.000
  0
VERTEX
8
layer0
10
  49.419
20
  -8.524
30
  -5.000
  0
VERTEX
8
layer0
10
  48.795
20
  -7.860
30
  -5.000
 0
SEQEND
 0
POLYLINE
8
layer0
66
1
70
8
10
  0.000
20
  0.000
30
  0.000
  0
VERTEX
8
layer0
10
  48.795
20
  -7.860
30
  -5.000
  0
VERTEX
8
layer0
10
  45.989
20
  -5.539
30
  -5.000
 0
SEQEND
 0
POLYLINE
8
layer0
66
1
70
8
10
  0.000
20
  0.000
30
  0.000
  0
VERTEX
8
layer0
10
  45.989
20
  -5.539
30
  -5.000
  0
VERTEX
8
layer0
10
  42.914
20
  -3.587
30
  -5.000
 0
SEQEND
 0
POLYLINE
8
layer0
66
1
70
8
10
  0.000
20
  0.000
30
  0.000
  0
VERTEX
8
layer0
10
  42.914
20
  -3.587
30
  -5.000
  0
VERTEX
8
layer0
10
  39.618
20
  -2.036
30
  -5.000
 0
SEQEND
 0
POLYLINE
8
layer0
66
1
70
8
10
  0.000
20
  0.000
30
  0.000
  0
VERTEX
8
layer0
10
  39.618
20
  -2.036
30
  -5.000
  0
VERTEX
8
layer0
10
  36.155
20
  -0.911
30
  -5.000
 0
SEQEND
 0
POLYLINE
8
layer0
66
1
70
8
10
  0.000
20
  0.000
30
  0.000
  0
VERTEX
8
layer0
10
  36.155
20
  -0.911
30
  -5.000
  0
VERTEX
8
layer0
10
  32.577
20
  -0.229
30
  -5.000
 0
SEQEND
 0
POLYLINE
8
layer0
66
1
70
8
10
  0.000
20
  0.000
30
  0.000
  0
VERTEX
8
layer0
10
  32.577
20
  -0.229
30
  -5.000
  0
VERTEX
8
layer0
10
  28.943
20
  0.000
30
  -5.000
 0
SEQEND
 0
POLYLINE
8
layer0
66
1
70
8
10
  0.000
20
  0.000
30
  0.000
  0
VERTEX
8
layer0
10
  28.943
20
  0.000
30
  -5.000
  0
VERTEX
8
layer0
10
  25.308
20
  -0.229
30
  -5.000
 0
SEQEND
 0
POLYLINE
8
layer0
66
1
70
8
10
  0.000
20
  0.000
30
  0.000
  0
VERTEX
8
layer0
10
  25.308
20
  -0.229
30
  -5.000
  0
VERTEX
8
layer0
10
  21.731
20
  -0.911
30
  -5.000
 0
SEQEND
 0
POLYLINE
8
layer0
66
1
70
8
10
  0.000
20
  0.000
30
  0.000
  0
VERTEX
8
layer0
10
  21.731
20
  -0.911
30
  -5.000
  0
VERTEX
8
layer0
10
  18.267
20
  -2.036
30
  -5.000
 0
SEQEND
 0
POLYLINE
8
layer0
66
1
70
8
10
  0.000
20
  0.000
30
  0.000
  0
VERTEX
8
layer0
10
  18.267
20
  -2.036
30
  -5.000
  0
VERTEX
8
layer0
10
  14.972
20
  -3.587
30
  -5.000
 0
SEQEND
 0
POLYLINE
8
layer0
66
1
70
8
10
  0.000
20
  0.000
30
  0.000
  0
VERTEX
8
layer0
10
  14.972
20
  -3.587
30
  -5.000
  0
VERTEX
8
layer0
10
  11.897
20
  -5.539
30
  -5.000
 0
SEQEND
 0
POLYLINE
8
layer0
66
1
70
8
10
  0.000
20
  0.000
30
  0.000
  0
VERTEX
8
layer0
10
  11.897
20
  -5.539
30
  -5.000
  0
VERTEX
8
layer0
10
  9.091
20
  -7.860
30
  -5.000
 0
SEQEND
 0
POLYLINE
8
layer0
66
1
70
8
10
  0.000
20
  0.000
30
  0.000
  0
VERTEX
8
layer0
10
  9.091
20
  -7.860
30
  -5.000
  0
VERTEX
8
layer0
10
  8.467
20
  -8.524
30
  -5.000
 0
SEQEND
 0
POLYLINE
8
layer0
66
1
70
8
10
  0.000
20
  0.000
30
  0.000
  0
VERTEX
8
layer0
10
  8.467
20
  -8.524
30
  -5.000
  0
VERTEX
8
layer0
10
  -8.557
20
  -26.653
30
  -5.000
 0
SEQEND
 0
ENDSEC
 0
EOF
