 0
SECTION
 2
HEADER
 9
$MEASUREMENT
 70
 2
 0
ENDSEC
 0
SECTION
 2
ENTITIES
 0
ARC
8
layer0
66
1
10
  79.44278348119296
20
  -23.548504949275674
30
  5.365437901011546e-05
40
  1.9999999999999962
50
  269.97663908163645
51
  359.9650252384051
 0
POLYLINE
8
layer0
66
1
70
8
10
  0.0
20
  0.0
30
  0.0
  0
VERTEX
8
layer0
10
  81.4427737312708
20
  4.7495417576181485
30
  3.909565386361036e-06
0
VERTEX
8
layer0
10
  81.44278203174989
20
  -23.54850391782885
30
  5.6442841804129576e-05
 0
SEQEND
 0
ARC
8
layer0
66
1
10
  79.44277373126845
20
  4.749541170976353
30
  1.0691393019166033e-05
40
  1.9999999999999991
50
  0.011684906008980533
51
  90.0000168030726
 0
POLYLINE
8
layer0
66
1
70
8
10
  0.0
20
  0.0
30
  0.0
  0
VERTEX
8
layer0
10
  -21.557226915311812
20
  6.74950841131232
30
  -1.0035640834170217e-05
0
VERTEX
8
layer0
10
  79.44277314462416
20
  6.749541170970146
30
  1.7369176940242148e-06
 0
SEQEND
 0
ARC
8
layer0
66
1
10
  -21.557226328664964
20
  4.749508411312965
30
  -8.545282543343369e-06
40
  2.0000000000000044
50
  179.98834870189123
51
  269.9766805997529
 0
POLYLINE
8
layer0
66
1
70
8
10
  0.0
20
  0.0
30
  0.0
  0
VERTEX
8
layer0
10
  -23.557217580219177
20
  -24.653273665598498
30
  1.3530218416487925e-05
0
VERTEX
8
layer0
10
  -23.557226328664772
20
  4.749507824665622
30
  -9.207209711354016e-06
 0
SEQEND
 0
ARC
8
layer0
66
1
10
  -21.557217580219355
20
  -24.65327307895119
30
  1.4142576709982464e-05
40
  1.9999999999999998
50
  179.98834870189017
51
  269.97668059975183
 0
POLYLINE
8
layer0
66
1
70
8
10
  0.0
20
  0.0
30
  0.0
  0
VERTEX
8
layer0
10
  -21.557216993572506
20
  -26.653273078950548
30
  1.5632935000809313e-05
0
VERTEX
8
layer0
10
  -8.557217057553204
20
  -26.65326613176399
30
  1.9861456208125508e-05
0
VERTEX
8
layer0
10
  8.467041528220319
20
  -8.524261419850887
30
  6.352103690839843e-06
 0
SEQEND
 0
ARC
8
layer0
66
1
10
  28.942783630797962
20
  -28.99999151039678
30
  2.161019521698936e-05
40
  28.999999999999993
50
  45.005850855758176
51
  134.9941827530091
 0
POLYLINE
8
layer0
66
1
70
8
10
  0.0
20
  0.0
30
  0.0
  0
VERTEX
8
layer0
10
  66.44278261839813
20
  -25.548508317687382
30
  5.3148577312011354e-05
0
VERTEX
8
layer0
10
  49.41851372091251
20
  -8.524249407774652
30
  7.428233160538015e-05
0
VERTEX
8
layer0
10
  66.44278261839813
20
  -25.548508317687382
30
  5.3148577312011354e-05
 0
SEQEND
 0
ARC
8
layer0
66
1
10
  79.44278348119296
20
  -23.548504949275674
30
  5.365437901011546e-05
40
  1.9999999999999962
50
  269.97663908163645
51
  359.9650252384051
 0
CIRCLE
8
layer0
66
1
10
  3.942776297713395
20
  -3.999998843490408
30
  2.9807165816537002e-06
40
  2.100000000000026
 0
CIRCLE
8
layer0
66
1
10
  73.94277461124103
20
  1.7495395576948467
30
  7.378325240651725e-06
40
  1.5999999999998613
 0
CIRCLE
8
layer0
66
1
10
  53.94277629771127
20
  -3.9999841773191784
30
  2.9807165816537002e-06
40
  2.1000000000000187
 0
CIRCLE
8
layer0
66
1
10
  73.94278115178051
20
  -20.54850611777893
30
  2.2761141443444686e-05
40
  1.5999999999998613
 0
CIRCLE
8
layer0
66
1
10
  -16.05721884821417
20
  -20.54853530955321
30
  1.2270742777290957e-05
40
  1.5999999999998613
 0
CIRCLE
8
layer0
66
1
10
  -16.057225388753647
20
  1.749510365920572
30
  -3.1120734255020003e-06
40
  1.5999999999998613
 0
ARC
8
layer0
66
1
10
  -21.557224673842317
20
  4.749504685409487
30
  -5.000019536385216
40
  2.0000000000000044
50
  179.98834870157958
51
  269.97668059641296
 0
POLYLINE
8
layer0
66
1
70
8
10
  0.0
20
  0.0
30
  0.0
  0
VERTEX
8
layer0
10
  -21.55722526049397
20
  6.749504685419722
30
  -5.000006488106352
0
VERTEX
8
layer0
10
  79.44277485034806
20
  6.7495374450764665
30
  -4.999996187294512
 0
SEQEND
 0
ARC
8
layer0
66
1
10
  79.44277543699489
20
  4.749537445077111
30
  -4.999994696936221
40
  1.9999999999999931
50
  0.011684906168298426
51
  90.00001680402997
 0
POLYLINE
8
layer0
66
1
70
8
10
  0.0
20
  0.0
30
  0.0
  0
VERTEX
8
layer0
10
  81.44277543699471
20
  4.749538031724469
30
  -4.99999401464682
0
VERTEX
8
layer0
10
  81.44278362662519
20
  -23.548507643724108
30
  -4.99994355715558
 0
SEQEND
 0
ARC
8
layer0
66
1
10
  79.44278362662536
20
  -23.548508230371432
30
  -4.9999441951052725
40
  1.9999999999999962
50
  -89.97664699170792
51
  0.01168490615374651
 0
POLYLINE
8
layer0
66
1
70
8
10
  0.0
20
  0.0
30
  0.0
  0
VERTEX
8
layer0
10
  66.44278421327442
20
  -25.548515177561548
30
  -4.999946851417737
0
VERTEX
8
layer0
10
  79.44278421327222
20
  -25.548508230370786
30
  -4.999942704746982
0
VERTEX
8
layer0
10
  49.418515315788795
20
  -8.524256267648822
30
  -4.999925717663444
 0
SEQEND
 0
ARC
8
layer0
66
1
10
  28.94278522567425
20
  -28.99999837027094
30
  -4.999978389799832
40
  28.999999999999993
50
  45.005850855758176
51
  134.9941827530091
 0
POLYLINE
8
layer0
66
1
70
8
10
  0.0
20
  0.0
30
  0.0
  0
VERTEX
8
layer0
10
  -8.557215462676927
20
  -26.653272991638154
30
  -4.999980138538841
0
VERTEX
8
layer0
10
  8.467043123096596
20
  -8.524268279725057
30
  -4.999993647891358
0
VERTEX
8
layer0
10
  -8.557215462676927
20
  -26.653272991638154
30
  -4.999980138538841
 0
SEQEND
 0
ARC
8
layer0
66
1
10
  -21.557216049325405
20
  -24.65327680483946
30
  -4.9999764512625235
40
  1.9999999999999998
50
  179.98834870208975
51
  269.97668059869915
 0
POLYLINE
8
layer0
66
1
70
8
10
  0.0
20
  0.0
30
  0.0
  0
VERTEX
8
layer0
10
  -23.557216049322374
20
  -24.653277391493734
30
  -4.999986413519915
0
VERTEX
8
layer0
10
  -23.55722467384693
20
  4.749504098773024
30
  -5.000005659675229
 0
SEQEND
 0
ARC
8
layer0
66
1
10
  -21.557224673842317
20
  4.749504685409487
30
  -5.000019536385216
40
  2.0000000000000044
50
  179.98834870157958
51
  269.97668059641296
 0
CIRCLE
8
layer0
66
1
10
  53.942777892587564
20
  -3.999991037193347
30
  -4.999997019278467
40
  2.1000000000000187
 0
CIRCLE
8
layer0
66
1
10
  3.942777892589672
20
  -4.000005703364577
30
  -4.999997019278467
40
  2.1000000000000263
 0
CIRCLE
8
layer0
66
1
10
  73.94278264724137
20
  -20.548511899013768
30
  -4.999950389484512
40
  1.599999999999861
 0
CIRCLE
8
layer0
66
1
10
  73.94277610670474
20
  1.749533776449396
30
  -4.999974995339537
40
  1.5999999999998613
 0
CIRCLE
8
layer0
66
1
10
  -16.057217352744765
20
  -20.548541090821118
30
  -4.999989340642655
40
  1.5999999999998613
 0
CIRCLE
8
layer0
66
1
10
  -16.05722389328112
20
  1.7495045846405992
30
  -5.000015222546815
40
  1.5999999999998613
 0
ENDSEC
 0
EOF
