 0
SECTION
 2
HEADER
 9
$MEASUREMENT
 70
 2
 0
ENDSEC
 0
SECTION
 2
ENTITIES
 0
CIRCLE
8
layer0
66
1
10
  -5.756
20
  36.744
30
  -11.000
40
  1.600
 0
CIRCLE
8
layer0
66
1
10
  -36.744
20
  5.756
30
  -11.000
40
  1.600
 0
CIRCLE
8
layer0
66
1
10
  -36.744
20
  36.744
30
  -11.000
40
  1.600
 0
CIRCLE
8
layer0
66
1
10
  -5.756
20
  5.756
30
  -11.000
40
  1.600
 0
CIRCLE
8
layer0
66
1
10
  -21.250
20
  21.250
30
  -11.000
40
  9.000
 0
POLYLINE
8
layer0
66
1
70
8
10
  0.000
20
  0.000
30
  0.000
  0
VERTEX
8
layer0
10
  -0.045
20
  4.417
30
  -11.000
  0
VERTEX
8
layer0
10
  -0.175
20
  3.766
30
  -11.000
 0
SEQEND
 0
POLYLINE
8
layer0
66
1
70
8
10
  0.000
20
  0.000
30
  0.000
  0
VERTEX
8
layer0
10
  -0.175
20
  3.766
30
  -11.000
  0
VERTEX
8
layer0
10
  -0.388
20
  3.137
30
  -11.000
 0
SEQEND
 0
POLYLINE
8
layer0
66
1
70
8
10
  0.000
20
  0.000
30
  0.000
  0
VERTEX
8
layer0
10
  -0.388
20
  3.137
30
  -11.000
  0
VERTEX
8
layer0
10
  -0.682
20
  2.541
30
  -11.000
 0
SEQEND
 0
POLYLINE
8
layer0
66
1
70
8
10
  0.000
20
  0.000
30
  0.000
  0
VERTEX
8
layer0
10
  -0.682
20
  2.541
30
  -11.000
  0
VERTEX
8
layer0
10
  -1.051
20
  1.989
30
  -11.000
 0
SEQEND
 0
POLYLINE
8
layer0
66
1
70
8
10
  0.000
20
  0.000
30
  0.000
  0
VERTEX
8
layer0
10
  -1.051
20
  1.989
30
  -11.000
  0
VERTEX
8
layer0
10
  -1.489
20
  1.489
30
  -11.000
 0
SEQEND
 0
POLYLINE
8
layer0
66
1
70
8
10
  0.000
20
  0.000
30
  0.000
  0
VERTEX
8
layer0
10
  -1.489
20
  1.489
30
  -11.000
  0
VERTEX
8
layer0
10
  -1.989
20
  1.051
30
  -11.000
 0
SEQEND
 0
POLYLINE
8
layer0
66
1
70
8
10
  0.000
20
  0.000
30
  0.000
  0
VERTEX
8
layer0
10
  -1.989
20
  1.051
30
  -11.000
  0
VERTEX
8
layer0
10
  -2.541
20
  0.682
30
  -11.000
 0
SEQEND
 0
POLYLINE
8
layer0
66
1
70
8
10
  0.000
20
  0.000
30
  0.000
  0
VERTEX
8
layer0
10
  -2.541
20
  0.682
30
  -11.000
  0
VERTEX
8
layer0
10
  -3.137
20
  0.388
30
  -11.000
 0
SEQEND
 0
POLYLINE
8
layer0
66
1
70
8
10
  0.000
20
  0.000
30
  0.000
  0
VERTEX
8
layer0
10
  -3.137
20
  0.388
30
  -11.000
  0
VERTEX
8
layer0
10
  -3.766
20
  0.175
30
  -11.000
 0
SEQEND
 0
POLYLINE
8
layer0
66
1
70
8
10
  0.000
20
  0.000
30
  0.000
  0
VERTEX
8
layer0
10
  -3.766
20
  0.175
30
  -11.000
  0
VERTEX
8
layer0
10
  -4.417
20
  0.045
30
  -11.000
 0
SEQEND
 0
POLYLINE
8
layer0
66
1
70
8
10
  0.000
20
  0.000
30
  0.000
  0
VERTEX
8
layer0
10
  -4.417
20
  0.045
30
  -11.000
  0
VERTEX
8
layer0
10
  -5.098
20
  0.000
30
  -11.000
 0
SEQEND
 0
POLYLINE
8
layer0
66
1
70
8
10
  0.000
20
  0.000
30
  0.000
  0
VERTEX
8
layer0
10
  -5.098
20
  0.000
30
  -11.000
  0
VERTEX
8
layer0
10
  -37.402
20
  0.000
30
  -11.000
 0
SEQEND
 0
POLYLINE
8
layer0
66
1
70
8
10
  0.000
20
  0.000
30
  0.000
  0
VERTEX
8
layer0
10
  -37.402
20
  0.000
30
  -11.000
  0
VERTEX
8
layer0
10
  -38.082
20
  0.045
30
  -11.000
 0
SEQEND
 0
POLYLINE
8
layer0
66
1
70
8
10
  0.000
20
  0.000
30
  0.000
  0
VERTEX
8
layer0
10
  -38.082
20
  0.045
30
  -11.000
  0
VERTEX
8
layer0
10
  -38.734
20
  0.175
30
  -11.000
 0
SEQEND
 0
POLYLINE
8
layer0
66
1
70
8
10
  0.000
20
  0.000
30
  0.000
  0
VERTEX
8
layer0
10
  -38.734
20
  0.175
30
  -11.000
  0
VERTEX
8
layer0
10
  -39.363
20
  0.388
30
  -11.000
 0
SEQEND
 0
POLYLINE
8
layer0
66
1
70
8
10
  0.000
20
  0.000
30
  0.000
  0
VERTEX
8
layer0
10
  -39.363
20
  0.388
30
  -11.000
  0
VERTEX
8
layer0
10
  -39.959
20
  0.682
30
  -11.000
 0
SEQEND
 0
POLYLINE
8
layer0
66
1
70
8
10
  0.000
20
  0.000
30
  0.000
  0
VERTEX
8
layer0
10
  -39.959
20
  0.682
30
  -11.000
  0
VERTEX
8
layer0
10
  -40.511
20
  1.051
30
  -11.000
 0
SEQEND
 0
POLYLINE
8
layer0
66
1
70
8
10
  0.000
20
  0.000
30
  0.000
  0
VERTEX
8
layer0
10
  -40.511
20
  1.051
30
  -11.000
  0
VERTEX
8
layer0
10
  -41.011
20
  1.489
30
  -11.000
 0
SEQEND
 0
POLYLINE
8
layer0
66
1
70
8
10
  0.000
20
  0.000
30
  0.000
  0
VERTEX
8
layer0
10
  -41.011
20
  1.489
30
  -11.000
  0
VERTEX
8
layer0
10
  -41.449
20
  1.989
30
  -11.000
 0
SEQEND
 0
POLYLINE
8
layer0
66
1
70
8
10
  0.000
20
  0.000
30
  0.000
  0
VERTEX
8
layer0
10
  -41.449
20
  1.989
30
  -11.000
  0
VERTEX
8
layer0
10
  -41.818
20
  2.541
30
  -11.000
 0
SEQEND
 0
POLYLINE
8
layer0
66
1
70
8
10
  0.000
20
  0.000
30
  0.000
  0
VERTEX
8
layer0
10
  -41.818
20
  2.541
30
  -11.000
  0
VERTEX
8
layer0
10
  -42.112
20
  3.137
30
  -11.000
 0
SEQEND
 0
POLYLINE
8
layer0
66
1
70
8
10
  0.000
20
  0.000
30
  0.000
  0
VERTEX
8
layer0
10
  -42.112
20
  3.137
30
  -11.000
  0
VERTEX
8
layer0
10
  -42.325
20
  3.766
30
  -11.000
 0
SEQEND
 0
POLYLINE
8
layer0
66
1
70
8
10
  0.000
20
  0.000
30
  0.000
  0
VERTEX
8
layer0
10
  -42.325
20
  3.766
30
  -11.000
  0
VERTEX
8
layer0
10
  -42.455
20
  4.417
30
  -11.000
 0
SEQEND
 0
POLYLINE
8
layer0
66
1
70
8
10
  0.000
20
  0.000
30
  0.000
  0
VERTEX
8
layer0
10
  -42.455
20
  4.417
30
  -11.000
  0
VERTEX
8
layer0
10
  -42.500
20
  5.098
30
  -11.000
 0
SEQEND
 0
POLYLINE
8
layer0
66
1
70
8
10
  0.000
20
  0.000
30
  0.000
  0
VERTEX
8
layer0
10
  -42.500
20
  5.098
30
  -11.000
  0
VERTEX
8
layer0
10
  -42.500
20
  37.402
30
  -11.000
 0
SEQEND
 0
POLYLINE
8
layer0
66
1
70
8
10
  0.000
20
  0.000
30
  0.000
  0
VERTEX
8
layer0
10
  -42.500
20
  37.402
30
  -11.000
  0
VERTEX
8
layer0
10
  -42.455
20
  38.082
30
  -11.000
 0
SEQEND
 0
POLYLINE
8
layer0
66
1
70
8
10
  0.000
20
  0.000
30
  0.000
  0
VERTEX
8
layer0
10
  -42.455
20
  38.082
30
  -11.000
  0
VERTEX
8
layer0
10
  -42.325
20
  38.734
30
  -11.000
 0
SEQEND
 0
POLYLINE
8
layer0
66
1
70
8
10
  0.000
20
  0.000
30
  0.000
  0
VERTEX
8
layer0
10
  -42.325
20
  38.734
30
  -11.000
  0
VERTEX
8
layer0
10
  -42.112
20
  39.363
30
  -11.000
 0
SEQEND
 0
POLYLINE
8
layer0
66
1
70
8
10
  0.000
20
  0.000
30
  0.000
  0
VERTEX
8
layer0
10
  -42.112
20
  39.363
30
  -11.000
  0
VERTEX
8
layer0
10
  -41.818
20
  39.959
30
  -11.000
 0
SEQEND
 0
POLYLINE
8
layer0
66
1
70
8
10
  0.000
20
  0.000
30
  0.000
  0
VERTEX
8
layer0
10
  -41.818
20
  39.959
30
  -11.000
  0
VERTEX
8
layer0
10
  -41.449
20
  40.511
30
  -11.000
 0
SEQEND
 0
POLYLINE
8
layer0
66
1
70
8
10
  0.000
20
  0.000
30
  0.000
  0
VERTEX
8
layer0
10
  -41.449
20
  40.511
30
  -11.000
  0
VERTEX
8
layer0
10
  -41.011
20
  41.011
30
  -11.000
 0
SEQEND
 0
POLYLINE
8
layer0
66
1
70
8
10
  0.000
20
  0.000
30
  0.000
  0
VERTEX
8
layer0
10
  -41.011
20
  41.011
30
  -11.000
  0
VERTEX
8
layer0
10
  -40.511
20
  41.449
30
  -11.000
 0
SEQEND
 0
POLYLINE
8
layer0
66
1
70
8
10
  0.000
20
  0.000
30
  0.000
  0
VERTEX
8
layer0
10
  -40.511
20
  41.449
30
  -11.000
  0
VERTEX
8
layer0
10
  -39.959
20
  41.818
30
  -11.000
 0
SEQEND
 0
POLYLINE
8
layer0
66
1
70
8
10
  0.000
20
  0.000
30
  0.000
  0
VERTEX
8
layer0
10
  -39.959
20
  41.818
30
  -11.000
  0
VERTEX
8
layer0
10
  -39.363
20
  42.112
30
  -11.000
 0
SEQEND
 0
POLYLINE
8
layer0
66
1
70
8
10
  0.000
20
  0.000
30
  0.000
  0
VERTEX
8
layer0
10
  -39.363
20
  42.112
30
  -11.000
  0
VERTEX
8
layer0
10
  -38.734
20
  42.325
30
  -11.000
 0
SEQEND
 0
POLYLINE
8
layer0
66
1
70
8
10
  0.000
20
  0.000
30
  0.000
  0
VERTEX
8
layer0
10
  -38.734
20
  42.325
30
  -11.000
  0
VERTEX
8
layer0
10
  -38.082
20
  42.455
30
  -11.000
 0
SEQEND
 0
POLYLINE
8
layer0
66
1
70
8
10
  0.000
20
  0.000
30
  0.000
  0
VERTEX
8
layer0
10
  -38.082
20
  42.455
30
  -11.000
  0
VERTEX
8
layer0
10
  -37.402
20
  42.500
30
  -11.000
 0
SEQEND
 0
POLYLINE
8
layer0
66
1
70
8
10
  0.000
20
  0.000
30
  0.000
  0
VERTEX
8
layer0
10
  -37.402
20
  42.500
30
  -11.000
  0
VERTEX
8
layer0
10
  -5.098
20
  42.500
30
  -11.000
 0
SEQEND
 0
POLYLINE
8
layer0
66
1
70
8
10
  0.000
20
  0.000
30
  0.000
  0
VERTEX
8
layer0
10
  -5.098
20
  42.500
30
  -11.000
  0
VERTEX
8
layer0
10
  -4.417
20
  42.455
30
  -11.000
 0
SEQEND
 0
POLYLINE
8
layer0
66
1
70
8
10
  0.000
20
  0.000
30
  0.000
  0
VERTEX
8
layer0
10
  -4.417
20
  42.455
30
  -11.000
  0
VERTEX
8
layer0
10
  -3.766
20
  42.325
30
  -11.000
 0
SEQEND
 0
POLYLINE
8
layer0
66
1
70
8
10
  0.000
20
  0.000
30
  0.000
  0
VERTEX
8
layer0
10
  -3.766
20
  42.325
30
  -11.000
  0
VERTEX
8
layer0
10
  -3.137
20
  42.112
30
  -11.000
 0
SEQEND
 0
POLYLINE
8
layer0
66
1
70
8
10
  0.000
20
  0.000
30
  0.000
  0
VERTEX
8
layer0
10
  -3.137
20
  42.112
30
  -11.000
  0
VERTEX
8
layer0
10
  -2.541
20
  41.818
30
  -11.000
 0
SEQEND
 0
POLYLINE
8
layer0
66
1
70
8
10
  0.000
20
  0.000
30
  0.000
  0
VERTEX
8
layer0
10
  -2.541
20
  41.818
30
  -11.000
  0
VERTEX
8
layer0
10
  -1.989
20
  41.449
30
  -11.000
 0
SEQEND
 0
POLYLINE
8
layer0
66
1
70
8
10
  0.000
20
  0.000
30
  0.000
  0
VERTEX
8
layer0
10
  -1.989
20
  41.449
30
  -11.000
  0
VERTEX
8
layer0
10
  -1.489
20
  41.011
30
  -11.000
 0
SEQEND
 0
POLYLINE
8
layer0
66
1
70
8
10
  0.000
20
  0.000
30
  0.000
  0
VERTEX
8
layer0
10
  -1.489
20
  41.011
30
  -11.000
  0
VERTEX
8
layer0
10
  -1.051
20
  40.511
30
  -11.000
 0
SEQEND
 0
POLYLINE
8
layer0
66
1
70
8
10
  0.000
20
  0.000
30
  0.000
  0
VERTEX
8
layer0
10
  -1.051
20
  40.511
30
  -11.000
  0
VERTEX
8
layer0
10
  -0.682
20
  39.959
30
  -11.000
 0
SEQEND
 0
POLYLINE
8
layer0
66
1
70
8
10
  0.000
20
  0.000
30
  0.000
  0
VERTEX
8
layer0
10
  -0.682
20
  39.959
30
  -11.000
  0
VERTEX
8
layer0
10
  -0.388
20
  39.363
30
  -11.000
 0
SEQEND
 0
POLYLINE
8
layer0
66
1
70
8
10
  0.000
20
  0.000
30
  0.000
  0
VERTEX
8
layer0
10
  -0.388
20
  39.363
30
  -11.000
  0
VERTEX
8
layer0
10
  -0.175
20
  38.734
30
  -11.000
 0
SEQEND
 0
POLYLINE
8
layer0
66
1
70
8
10
  0.000
20
  0.000
30
  0.000
  0
VERTEX
8
layer0
10
  -0.175
20
  38.734
30
  -11.000
  0
VERTEX
8
layer0
10
  -0.045
20
  38.082
30
  -11.000
 0
SEQEND
 0
POLYLINE
8
layer0
66
1
70
8
10
  0.000
20
  0.000
30
  0.000
  0
VERTEX
8
layer0
10
  -0.045
20
  38.082
30
  -11.000
  0
VERTEX
8
layer0
10
  -0.000
20
  37.402
30
  -11.000
 0
SEQEND
 0
POLYLINE
8
layer0
66
1
70
8
10
  0.000
20
  0.000
30
  0.000
  0
VERTEX
8
layer0
10
  -0.000
20
  37.402
30
  -11.000
  0
VERTEX
8
layer0
10
  -0.000
20
  5.098
30
  -11.000
 0
SEQEND
 0
POLYLINE
8
layer0
66
1
70
8
10
  0.000
20
  0.000
30
  0.000
  0
VERTEX
8
layer0
10
  -0.000
20
  5.098
30
  -11.000
  0
VERTEX
8
layer0
10
  -0.045
20
  4.417
30
  -11.000
 0
SEQEND
 0
CIRCLE
8
layer0
66
1
10
  -36.744
20
  5.756
30
  -8.000
40
  1.600
 0
CIRCLE
8
layer0
66
1
10
  -36.744
20
  36.744
30
  -8.000
40
  1.600
 0
CIRCLE
8
layer0
66
1
10
  -5.756
20
  5.756
30
  -8.000
40
  1.600
 0
CIRCLE
8
layer0
66
1
10
  -5.756
20
  36.744
30
  -8.000
40
  1.600
 0
CIRCLE
8
layer0
66
1
10
  -21.250
20
  21.250
30
  -8.000
40
  9.000
 0
POLYLINE
8
layer0
66
1
70
8
10
  0.000
20
  0.000
30
  0.000
  0
VERTEX
8
layer0
10
  -0.175
20
  3.766
30
  -8.000
  0
VERTEX
8
layer0
10
  -0.045
20
  4.417
30
  -8.000
 0
SEQEND
 0
POLYLINE
8
layer0
66
1
70
8
10
  0.000
20
  0.000
30
  0.000
  0
VERTEX
8
layer0
10
  -0.045
20
  4.417
30
  -8.000
  0
VERTEX
8
layer0
10
  -0.000
20
  5.098
30
  -8.000
 0
SEQEND
 0
POLYLINE
8
layer0
66
1
70
8
10
  0.000
20
  0.000
30
  0.000
  0
VERTEX
8
layer0
10
  -0.000
20
  5.098
30
  -8.000
  0
VERTEX
8
layer0
10
  -0.000
20
  37.402
30
  -8.000
 0
SEQEND
 0
POLYLINE
8
layer0
66
1
70
8
10
  0.000
20
  0.000
30
  0.000
  0
VERTEX
8
layer0
10
  -0.000
20
  37.402
30
  -8.000
  0
VERTEX
8
layer0
10
  -0.045
20
  38.082
30
  -8.000
 0
SEQEND
 0
POLYLINE
8
layer0
66
1
70
8
10
  0.000
20
  0.000
30
  0.000
  0
VERTEX
8
layer0
10
  -0.045
20
  38.082
30
  -8.000
  0
VERTEX
8
layer0
10
  -0.175
20
  38.734
30
  -8.000
 0
SEQEND
 0
POLYLINE
8
layer0
66
1
70
8
10
  0.000
20
  0.000
30
  0.000
  0
VERTEX
8
layer0
10
  -0.175
20
  38.734
30
  -8.000
  0
VERTEX
8
layer0
10
  -0.388
20
  39.363
30
  -8.000
 0
SEQEND
 0
POLYLINE
8
layer0
66
1
70
8
10
  0.000
20
  0.000
30
  0.000
  0
VERTEX
8
layer0
10
  -0.388
20
  39.363
30
  -8.000
  0
VERTEX
8
layer0
10
  -0.682
20
  39.959
30
  -8.000
 0
SEQEND
 0
POLYLINE
8
layer0
66
1
70
8
10
  0.000
20
  0.000
30
  0.000
  0
VERTEX
8
layer0
10
  -0.682
20
  39.959
30
  -8.000
  0
VERTEX
8
layer0
10
  -1.051
20
  40.511
30
  -8.000
 0
SEQEND
 0
POLYLINE
8
layer0
66
1
70
8
10
  0.000
20
  0.000
30
  0.000
  0
VERTEX
8
layer0
10
  -1.051
20
  40.511
30
  -8.000
  0
VERTEX
8
layer0
10
  -1.489
20
  41.011
30
  -8.000
 0
SEQEND
 0
POLYLINE
8
layer0
66
1
70
8
10
  0.000
20
  0.000
30
  0.000
  0
VERTEX
8
layer0
10
  -1.489
20
  41.011
30
  -8.000
  0
VERTEX
8
layer0
10
  -1.989
20
  41.449
30
  -8.000
 0
SEQEND
 0
POLYLINE
8
layer0
66
1
70
8
10
  0.000
20
  0.000
30
  0.000
  0
VERTEX
8
layer0
10
  -1.989
20
  41.449
30
  -8.000
  0
VERTEX
8
layer0
10
  -2.541
20
  41.818
30
  -8.000
 0
SEQEND
 0
POLYLINE
8
layer0
66
1
70
8
10
  0.000
20
  0.000
30
  0.000
  0
VERTEX
8
layer0
10
  -2.541
20
  41.818
30
  -8.000
  0
VERTEX
8
layer0
10
  -3.137
20
  42.112
30
  -8.000
 0
SEQEND
 0
POLYLINE
8
layer0
66
1
70
8
10
  0.000
20
  0.000
30
  0.000
  0
VERTEX
8
layer0
10
  -3.137
20
  42.112
30
  -8.000
  0
VERTEX
8
layer0
10
  -3.766
20
  42.325
30
  -8.000
 0
SEQEND
 0
POLYLINE
8
layer0
66
1
70
8
10
  0.000
20
  0.000
30
  0.000
  0
VERTEX
8
layer0
10
  -3.766
20
  42.325
30
  -8.000
  0
VERTEX
8
layer0
10
  -4.417
20
  42.455
30
  -8.000
 0
SEQEND
 0
POLYLINE
8
layer0
66
1
70
8
10
  0.000
20
  0.000
30
  0.000
  0
VERTEX
8
layer0
10
  -4.417
20
  42.455
30
  -8.000
  0
VERTEX
8
layer0
10
  -5.098
20
  42.500
30
  -8.000
 0
SEQEND
 0
POLYLINE
8
layer0
66
1
70
8
10
  0.000
20
  0.000
30
  0.000
  0
VERTEX
8
layer0
10
  -5.098
20
  42.500
30
  -8.000
  0
VERTEX
8
layer0
10
  -37.402
20
  42.500
30
  -8.000
 0
SEQEND
 0
POLYLINE
8
layer0
66
1
70
8
10
  0.000
20
  0.000
30
  0.000
  0
VERTEX
8
layer0
10
  -37.402
20
  42.500
30
  -8.000
  0
VERTEX
8
layer0
10
  -38.082
20
  42.455
30
  -8.000
 0
SEQEND
 0
POLYLINE
8
layer0
66
1
70
8
10
  0.000
20
  0.000
30
  0.000
  0
VERTEX
8
layer0
10
  -38.082
20
  42.455
30
  -8.000
  0
VERTEX
8
layer0
10
  -38.734
20
  42.325
30
  -8.000
 0
SEQEND
 0
POLYLINE
8
layer0
66
1
70
8
10
  0.000
20
  0.000
30
  0.000
  0
VERTEX
8
layer0
10
  -38.734
20
  42.325
30
  -8.000
  0
VERTEX
8
layer0
10
  -39.363
20
  42.112
30
  -8.000
 0
SEQEND
 0
POLYLINE
8
layer0
66
1
70
8
10
  0.000
20
  0.000
30
  0.000
  0
VERTEX
8
layer0
10
  -39.363
20
  42.112
30
  -8.000
  0
VERTEX
8
layer0
10
  -39.959
20
  41.818
30
  -8.000
 0
SEQEND
 0
POLYLINE
8
layer0
66
1
70
8
10
  0.000
20
  0.000
30
  0.000
  0
VERTEX
8
layer0
10
  -39.959
20
  41.818
30
  -8.000
  0
VERTEX
8
layer0
10
  -40.511
20
  41.449
30
  -8.000
 0
SEQEND
 0
POLYLINE
8
layer0
66
1
70
8
10
  0.000
20
  0.000
30
  0.000
  0
VERTEX
8
layer0
10
  -40.511
20
  41.449
30
  -8.000
  0
VERTEX
8
layer0
10
  -41.011
20
  41.011
30
  -8.000
 0
SEQEND
 0
POLYLINE
8
layer0
66
1
70
8
10
  0.000
20
  0.000
30
  0.000
  0
VERTEX
8
layer0
10
  -41.011
20
  41.011
30
  -8.000
  0
VERTEX
8
layer0
10
  -41.449
20
  40.511
30
  -8.000
 0
SEQEND
 0
POLYLINE
8
layer0
66
1
70
8
10
  0.000
20
  0.000
30
  0.000
  0
VERTEX
8
layer0
10
  -41.449
20
  40.511
30
  -8.000
  0
VERTEX
8
layer0
10
  -41.818
20
  39.959
30
  -8.000
 0
SEQEND
 0
POLYLINE
8
layer0
66
1
70
8
10
  0.000
20
  0.000
30
  0.000
  0
VERTEX
8
layer0
10
  -41.818
20
  39.959
30
  -8.000
  0
VERTEX
8
layer0
10
  -42.112
20
  39.363
30
  -8.000
 0
SEQEND
 0
POLYLINE
8
layer0
66
1
70
8
10
  0.000
20
  0.000
30
  0.000
  0
VERTEX
8
layer0
10
  -42.112
20
  39.363
30
  -8.000
  0
VERTEX
8
layer0
10
  -42.325
20
  38.734
30
  -8.000
 0
SEQEND
 0
POLYLINE
8
layer0
66
1
70
8
10
  0.000
20
  0.000
30
  0.000
  0
VERTEX
8
layer0
10
  -42.325
20
  38.734
30
  -8.000
  0
VERTEX
8
layer0
10
  -42.455
20
  38.082
30
  -8.000
 0
SEQEND
 0
POLYLINE
8
layer0
66
1
70
8
10
  0.000
20
  0.000
30
  0.000
  0
VERTEX
8
layer0
10
  -42.455
20
  38.082
30
  -8.000
  0
VERTEX
8
layer0
10
  -42.500
20
  37.402
30
  -8.000
 0
SEQEND
 0
POLYLINE
8
layer0
66
1
70
8
10
  0.000
20
  0.000
30
  0.000
  0
VERTEX
8
layer0
10
  -42.500
20
  37.402
30
  -8.000
  0
VERTEX
8
layer0
10
  -42.500
20
  5.098
30
  -8.000
 0
SEQEND
 0
POLYLINE
8
layer0
66
1
70
8
10
  0.000
20
  0.000
30
  0.000
  0
VERTEX
8
layer0
10
  -42.500
20
  5.098
30
  -8.000
  0
VERTEX
8
layer0
10
  -42.455
20
  4.417
30
  -8.000
 0
SEQEND
 0
POLYLINE
8
layer0
66
1
70
8
10
  0.000
20
  0.000
30
  0.000
  0
VERTEX
8
layer0
10
  -42.455
20
  4.417
30
  -8.000
  0
VERTEX
8
layer0
10
  -42.325
20
  3.766
30
  -8.000
 0
SEQEND
 0
POLYLINE
8
layer0
66
1
70
8
10
  0.000
20
  0.000
30
  0.000
  0
VERTEX
8
layer0
10
  -42.325
20
  3.766
30
  -8.000
  0
VERTEX
8
layer0
10
  -42.112
20
  3.137
30
  -8.000
 0
SEQEND
 0
POLYLINE
8
layer0
66
1
70
8
10
  0.000
20
  0.000
30
  0.000
  0
VERTEX
8
layer0
10
  -42.112
20
  3.137
30
  -8.000
  0
VERTEX
8
layer0
10
  -41.818
20
  2.541
30
  -8.000
 0
SEQEND
 0
POLYLINE
8
layer0
66
1
70
8
10
  0.000
20
  0.000
30
  0.000
  0
VERTEX
8
layer0
10
  -41.818
20
  2.541
30
  -8.000
  0
VERTEX
8
layer0
10
  -41.449
20
  1.989
30
  -8.000
 0
SEQEND
 0
POLYLINE
8
layer0
66
1
70
8
10
  0.000
20
  0.000
30
  0.000
  0
VERTEX
8
layer0
10
  -41.449
20
  1.989
30
  -8.000
  0
VERTEX
8
layer0
10
  -41.011
20
  1.489
30
  -8.000
 0
SEQEND
 0
POLYLINE
8
layer0
66
1
70
8
10
  0.000
20
  0.000
30
  0.000
  0
VERTEX
8
layer0
10
  -41.011
20
  1.489
30
  -8.000
  0
VERTEX
8
layer0
10
  -40.511
20
  1.051
30
  -8.000
 0
SEQEND
 0
POLYLINE
8
layer0
66
1
70
8
10
  0.000
20
  0.000
30
  0.000
  0
VERTEX
8
layer0
10
  -40.511
20
  1.051
30
  -8.000
  0
VERTEX
8
layer0
10
  -39.959
20
  0.682
30
  -8.000
 0
SEQEND
 0
POLYLINE
8
layer0
66
1
70
8
10
  0.000
20
  0.000
30
  0.000
  0
VERTEX
8
layer0
10
  -39.959
20
  0.682
30
  -8.000
  0
VERTEX
8
layer0
10
  -39.363
20
  0.388
30
  -8.000
 0
SEQEND
 0
POLYLINE
8
layer0
66
1
70
8
10
  0.000
20
  0.000
30
  0.000
  0
VERTEX
8
layer0
10
  -39.363
20
  0.388
30
  -8.000
  0
VERTEX
8
layer0
10
  -38.734
20
  0.175
30
  -8.000
 0
SEQEND
 0
POLYLINE
8
layer0
66
1
70
8
10
  0.000
20
  0.000
30
  0.000
  0
VERTEX
8
layer0
10
  -38.734
20
  0.175
30
  -8.000
  0
VERTEX
8
layer0
10
  -38.082
20
  0.045
30
  -8.000
 0
SEQEND
 0
POLYLINE
8
layer0
66
1
70
8
10
  0.000
20
  0.000
30
  0.000
  0
VERTEX
8
layer0
10
  -38.082
20
  0.045
30
  -8.000
  0
VERTEX
8
layer0
10
  -37.402
20
  0.000
30
  -8.000
 0
SEQEND
 0
POLYLINE
8
layer0
66
1
70
8
10
  0.000
20
  0.000
30
  0.000
  0
VERTEX
8
layer0
10
  -37.402
20
  0.000
30
  -8.000
  0
VERTEX
8
layer0
10
  -5.098
20
  0.000
30
  -8.000
 0
SEQEND
 0
POLYLINE
8
layer0
66
1
70
8
10
  0.000
20
  0.000
30
  0.000
  0
VERTEX
8
layer0
10
  -5.098
20
  0.000
30
  -8.000
  0
VERTEX
8
layer0
10
  -4.417
20
  0.045
30
  -8.000
 0
SEQEND
 0
POLYLINE
8
layer0
66
1
70
8
10
  0.000
20
  0.000
30
  0.000
  0
VERTEX
8
layer0
10
  -4.417
20
  0.045
30
  -8.000
  0
VERTEX
8
layer0
10
  -3.766
20
  0.175
30
  -8.000
 0
SEQEND
 0
POLYLINE
8
layer0
66
1
70
8
10
  0.000
20
  0.000
30
  0.000
  0
VERTEX
8
layer0
10
  -3.766
20
  0.175
30
  -8.000
  0
VERTEX
8
layer0
10
  -3.137
20
  0.388
30
  -8.000
 0
SEQEND
 0
POLYLINE
8
layer0
66
1
70
8
10
  0.000
20
  0.000
30
  0.000
  0
VERTEX
8
layer0
10
  -3.137
20
  0.388
30
  -8.000
  0
VERTEX
8
layer0
10
  -2.541
20
  0.682
30
  -8.000
 0
SEQEND
 0
POLYLINE
8
layer0
66
1
70
8
10
  0.000
20
  0.000
30
  0.000
  0
VERTEX
8
layer0
10
  -2.541
20
  0.682
30
  -8.000
  0
VERTEX
8
layer0
10
  -1.989
20
  1.051
30
  -8.000
 0
SEQEND
 0
POLYLINE
8
layer0
66
1
70
8
10
  0.000
20
  0.000
30
  0.000
  0
VERTEX
8
layer0
10
  -1.989
20
  1.051
30
  -8.000
  0
VERTEX
8
layer0
10
  -1.489
20
  1.489
30
  -8.000
 0
SEQEND
 0
POLYLINE
8
layer0
66
1
70
8
10
  0.000
20
  0.000
30
  0.000
  0
VERTEX
8
layer0
10
  -1.489
20
  1.489
30
  -8.000
  0
VERTEX
8
layer0
10
  -1.051
20
  1.989
30
  -8.000
 0
SEQEND
 0
POLYLINE
8
layer0
66
1
70
8
10
  0.000
20
  0.000
30
  0.000
  0
VERTEX
8
layer0
10
  -1.051
20
  1.989
30
  -8.000
  0
VERTEX
8
layer0
10
  -0.682
20
  2.541
30
  -8.000
 0
SEQEND
 0
POLYLINE
8
layer0
66
1
70
8
10
  0.000
20
  0.000
30
  0.000
  0
VERTEX
8
layer0
10
  -0.682
20
  2.541
30
  -8.000
  0
VERTEX
8
layer0
10
  -0.388
20
  3.137
30
  -8.000
 0
SEQEND
 0
POLYLINE
8
layer0
66
1
70
8
10
  0.000
20
  0.000
30
  0.000
  0
VERTEX
8
layer0
10
  -0.388
20
  3.137
30
  -8.000
  0
VERTEX
8
layer0
10
  -0.175
20
  3.766
30
  -8.000
 0
SEQEND
 0
ENDSEC
 0
EOF
