 0
SECTION
 2
HEADER
 9
$MEASUREMENT
 70
 2
 0
ENDSEC
 0
SECTION
 2
ENTITIES
 0
POLYLINE
8
layer0
66
1
70
8
10
  0.0
20
  0.0
30
  0.0
  0
VERTEX
8
layer0
10
  -0.17475695065773528
20
  3.7656435215346207
30
  -10.999984000000028
0
VERTEX
8
layer0
10
  -0.04510970952009752
20
  4.417424216950075
30
  -10.999984000000048
0
VERTEX
8
layer0
10
  -0.17475695065773528
20
  3.7656435215346207
30
  -10.999984000000028
0
VERTEX
8
layer0
10
  -0.38827994904444946
20
  3.136625052001059
30
  -10.999984000000012
0
VERTEX
8
layer0
10
  -0.6820796142449832
20
  2.5408582666031845
30
  -10.99998399999999
0
VERTEX
8
layer0
10
  -1.051128952530249
20
  1.9885369002174123
30
  -10.999983999999959
0
VERTEX
8
layer0
10
  -1.4891134274028228
20
  1.4891113245550973
30
  -10.999983999999921
0
VERTEX
8
layer0
10
  -1.9885390030653407
20
  1.0511268496824784
30
  -10.999983999999907
0
VERTEX
8
layer0
10
  -2.5408603694509773
20
  0.6820775113971
30
  -10.999983999999836
0
VERTEX
8
layer0
10
  -3.1366271548487847
20
  0.3882778461967917
30
  -10.999983999999813
0
VERTEX
8
layer0
10
  -3.765645624383
20
  0.17475484780971662
30
  -10.999983999999762
0
VERTEX
8
layer0
10
  -4.417426255844119
20
  0.045107619393534186
30
  -10.999983999999678
0
VERTEX
8
layer0
10
  -5.098400985446991
20
  3.1200292794547723e-13
30
  -10.999983999999618
0
VERTEX
8
layer0
10
  -37.40151676906901
20
  2.09940778582413e-06
30
  -10.999983999996969
0
VERTEX
8
layer0
10
  -38.08248968245799
20
  0.04510970952009224
30
  -10.999983999996916
0
VERTEX
8
layer0
10
  -38.73427037787302
20
  0.1747569506574142
30
  -10.999983999996857
0
VERTEX
8
layer0
10
  -39.363288847407006
20
  0.38827994904444413
30
  -10.999983999996806
0
VERTEX
8
layer0
10
  -39.95905563280481
20
  0.682079614244775
30
  -10.999983999996758
0
VERTEX
8
layer0
10
  -40.511376999190404
20
  1.0511289525300633
30
  -10.999983999996708
0
VERTEX
8
layer0
10
  -41.0108025748531
20
  1.4891134274027724
30
  -10.99998399999667
0
VERTEX
8
layer0
10
  -41.448787049725404
20
  1.988539003064952
30
  -10.999983999996632
0
VERTEX
8
layer0
10
  -41.81783638801103
20
  2.540860369450972
30
  -10.999983999996605
0
VERTEX
8
layer0
10
  -42.11163605321121
20
  3.1366271548485987
30
  -10.99998399999658
0
VERTEX
8
layer0
10
  -42.325159051598234
20
  3.7656456243824765
30
  -10.999983999996562
0
VERTEX
8
layer0
10
  -42.45480628001435
20
  4.417426255844023
30
  -10.999983999996553
0
VERTEX
8
layer0
10
  -42.49991389940764
20
  5.098400985446693
30
  -10.999983999996546
0
VERTEX
8
layer0
10
  -42.49991180000006
20
  37.40151676907033
30
  -10.999983999996553
0
VERTEX
8
layer0
10
  -42.45480418988776
20
  38.08248968245804
30
  -10.999983999996555
0
VERTEX
8
layer0
10
  -42.32515694875039
20
  38.734270377873294
30
  -10.999983999996562
0
VERTEX
8
layer0
10
  -42.111633950363455
20
  39.36328884740688
30
  -10.999983999996585
0
VERTEX
8
layer0
10
  -41.81783428516305
20
  39.959055632804954
30
  -10.999983999996607
0
VERTEX
8
layer0
10
  -41.448784946877694
20
  40.51137699919077
30
  -10.999983999996639
0
VERTEX
8
layer0
10
  -41.01080047200531
20
  41.01080257485302
30
  -10.99998399999667
0
VERTEX
8
layer0
10
  -40.511374896342694
20
  41.44878704972568
30
  -10.999983999996712
0
VERTEX
8
layer0
10
  -39.9590535299571
20
  41.81783638801104
30
  -10.99998399999676
0
VERTEX
8
layer0
10
  -39.363286744559296
20
  42.1116360532113
30
  -10.999983999996806
0
VERTEX
8
layer0
10
  -38.734268275025215
20
  42.325159051598284
30
  -10.999983999996857
0
VERTEX
8
layer0
10
  -38.08248764356378
20
  42.45480628001454
30
  -10.999983999996912
0
VERTEX
8
layer0
10
  -37.40151291396082
20
  42.49991389940778
30
  -10.999983999996973
0
VERTEX
8
layer0
10
  -5.098397130339056
20
  42.499911800000305
30
  -10.999983999999621
0
VERTEX
8
layer0
10
  -4.41742421695008
20
  42.45480418988796
30
  -10.99998399999968
0
VERTEX
8
layer0
10
  -3.76564352153519
20
  42.325156948750724
30
  -10.999983999999738
0
VERTEX
8
layer0
10
  -3.136625052001155
20
  42.11163395036365
30
  -10.999983999999792
0
VERTEX
8
layer0
10
  -2.5408582666034376
20
  41.817834285163386
30
  -10.999983999999834
0
VERTEX
8
layer0
10
  -1.98853690021744
20
  41.44878494687789
30
  -10.999983999999882
0
VERTEX
8
layer0
10
  -1.4891113245551928
20
  41.010800472005364
30
  -10.999983999999927
0
VERTEX
8
layer0
10
  -1.0511268496826192
20
  40.51137489634303
30
  -10.999983999999959
0
VERTEX
8
layer0
10
  -0.6820775113973307
20
  39.959053529957394
30
  -10.999983999999992
0
VERTEX
8
layer0
10
  -0.38827784619715794
20
  39.36328674455972
30
  -10.999984000000016
0
VERTEX
8
layer0
10
  -0.17475484781008283
20
  38.734268275025414
30
  -10.999984000000033
0
VERTEX
8
layer0
10
  -0.04510761939369738
20
  38.08248764356389
30
  -10.999984000000042
0
VERTEX
8
layer0
10
  -5.879935125213313e-13
20
  37.401512913960836
30
  -10.999984000000044
0
VERTEX
8
layer0
10
  -2.099407971575787e-06
20
  5.098397130338487
30
  -10.999984000000039
 0
SEQEND
 0
CIRCLE
8
layer0
66
1
10
  -21.24995694970356
20
  21.249956949704366
30
  -10.999983999997712
40
  8.999999999999986
 0
CIRCLE
8
layer0
66
1
10
  -36.7439262773695
20
  5.755987622038542
30
  -10.999983999997028
40
  1.599999999999997
 0
CIRCLE
8
layer0
66
1
10
  -5.755987622038411
20
  5.755987622038406
30
  -10.999999999999588
40
  1.5999999999999968
 0
CIRCLE
8
layer0
66
1
10
  -5.755987622038253
20
  36.743926277369596
30
  -10.999999999999563
40
  1.5999999999999963
 0
CIRCLE
8
layer0
66
1
10
  -36.74392627736945
20
  36.74392627736978
30
  -10.999999999997035
40
  1.599999999999997
 0
POLYLINE
8
layer0
66
1
70
8
10
  0.0
20
  0.0
30
  0.0
  0
VERTEX
8
layer0
10
  -0.17475695065747648
20
  3.765643521534611
30
  -7.999984000000028
0
VERTEX
8
layer0
10
  -0.045109709519838705
20
  4.4174242169500655
30
  -7.999984000000052
0
VERTEX
8
layer0
10
  -2.099407712771274e-06
20
  5.098397130338477
30
  -7.999984000000038
0
VERTEX
8
layer0
10
  -3.291889996122105e-13
20
  37.40151291396086
30
  -7.999984000000044
0
VERTEX
8
layer0
10
  -0.045107619393438575
20
  38.08248764356391
30
  -7.999984000000042
0
VERTEX
8
layer0
10
  -0.17475484780982403
20
  38.73426827502543
30
  -7.9999840000000395
0
VERTEX
8
layer0
10
  -0.38827784619689915
20
  39.363286744559694
30
  -7.999984000000021
0
VERTEX
8
layer0
10
  -0.6820775113970721
20
  39.95905352995741
30
  -7.9999839999999915
0
VERTEX
8
layer0
10
  -1.0511268496823378
20
  40.51137489634305
30
  -7.999983999999959
0
VERTEX
8
layer0
10
  -1.4891113245549117
20
  41.010800472005386
30
  -7.999983999999932
0
VERTEX
8
layer0
10
  -1.9885369002171587
20
  41.448784946877865
30
  -7.999983999999881
0
VERTEX
8
layer0
10
  -2.5408582666031565
20
  41.81783428516341
30
  -7.9999839999998335
0
VERTEX
8
layer0
10
  -3.1366250520008734
20
  42.11163395036367
30
  -7.999983999999792
0
VERTEX
8
layer0
10
  -3.7656435215349084
20
  42.325156948750745
30
  -7.999983999999739
0
VERTEX
8
layer0
10
  -4.417424216949799
20
  42.45480418988793
30
  -7.99998399999968
0
VERTEX
8
layer0
10
  -5.098397130338775
20
  42.499911800000326
30
  -7.9999839999996265
0
VERTEX
8
layer0
10
  -37.401512913960595
20
  42.49991389940775
30
  -7.999983999996973
0
VERTEX
8
layer0
10
  -38.08248764356356
20
  42.45480628001455
30
  -7.999983999996912
0
VERTEX
8
layer0
10
  -38.734268275024995
20
  42.325159051598305
30
  -7.999983999996857
0
VERTEX
8
layer0
10
  -39.36328674455907
20
  42.11163605321132
30
  -7.9999839999968065
0
VERTEX
8
layer0
10
  -39.95905352995688
20
  41.81783638801101
30
  -7.9999839999967595
0
VERTEX
8
layer0
10
  -40.511374896342474
20
  41.4487870497257
30
  -7.9999839999967115
0
VERTEX
8
layer0
10
  -41.01080047200508
20
  41.01080257485299
30
  -7.999983999996675
0
VERTEX
8
layer0
10
  -41.448784946877474
20
  40.511376999190745
30
  -7.999983999996639
0
VERTEX
8
layer0
10
  -41.81783428516283
20
  39.95905563280497
30
  -7.999983999996606
0
VERTEX
8
layer0
10
  -42.11163395036323
20
  39.36328884740689
30
  -7.999983999996585
0
VERTEX
8
layer0
10
  -42.32515694875017
20
  38.73427037787331
30
  -7.9999839999965685
0
VERTEX
8
layer0
10
  -42.45480418988753
20
  38.08248968245806
30
  -7.999983999996555
0
VERTEX
8
layer0
10
  -42.49991179999984
20
  37.4015167690703
30
  -7.9999839999965525
0
VERTEX
8
layer0
10
  -42.4999138994074
20
  5.098400985446683
30
  -7.9999839999965525
0
VERTEX
8
layer0
10
  -42.45480628001411
20
  4.417426255844013
30
  -7.999983999996554
0
VERTEX
8
layer0
10
  -42.325159051598
20
  3.7656456243824663
30
  -7.999983999996562
0
VERTEX
8
layer0
10
  -42.11163605321097
20
  3.13662715484859
30
  -7.999983999996581
0
VERTEX
8
layer0
10
  -41.8178363880108
20
  2.540860369450963
30
  -7.999983999996605
0
VERTEX
8
layer0
10
  -41.44878704972517
20
  1.9885390030649428
30
  -7.999983999996637
0
VERTEX
8
layer0
10
  -41.01080257485287
20
  1.489113427402763
30
  -7.99998399999667
0
VERTEX
8
layer0
10
  -40.51137699919017
20
  1.051128952530054
30
  -7.999983999996713
0
VERTEX
8
layer0
10
  -39.95905563280458
20
  0.6820796142447657
30
  -7.999983999996757
0
VERTEX
8
layer0
10
  -39.36328884740677
20
  0.3882799490444349
30
  -7.999983999996805
0
VERTEX
8
layer0
10
  -38.73427037787278
20
  0.17475695065740499
30
  -7.999983999996857
0
VERTEX
8
layer0
10
  -38.082489682457755
20
  0.04510970952008303
30
  -7.999983999996922
0
VERTEX
8
layer0
10
  -37.40151676906878
20
  2.0994077766149794e-06
30
  -7.999983999996968
0
VERTEX
8
layer0
10
  -5.098400985446732
20
  3.0279377729754703e-13
30
  -7.999983999999624
0
VERTEX
8
layer0
10
  -4.41742625584386
20
  0.04510761939352498
30
  -7.999983999999679
0
VERTEX
8
layer0
10
  -3.765645624382741
20
  0.1747548478097074
30
  -7.9999839999997615
0
VERTEX
8
layer0
10
  -3.136627154848526
20
  0.38827784619678246
30
  -7.999983999999812
0
VERTEX
8
layer0
10
  -2.540860369450719
20
  0.6820775113970907
30
  -7.999983999999836
0
VERTEX
8
layer0
10
  -1.988539003065082
20
  1.0511268496824693
30
  -7.999983999999907
0
VERTEX
8
layer0
10
  -1.4891134274025641
20
  1.4891113245550882
30
  -7.999983999999921
0
VERTEX
8
layer0
10
  -1.0511289525299903
20
  1.9885369002174031
30
  -7.999983999999958
0
VERTEX
8
layer0
10
  -0.6820796142447245
20
  2.540858266603175
30
  -7.999983999999996
0
VERTEX
8
layer0
10
  -0.3882799490441906
20
  3.13662505200105
30
  -7.999984000000011
0
VERTEX
8
layer0
10
  -0.17475695065747648
20
  3.765643521534611
30
  -7.999984000000028
 0
SEQEND
 0
CIRCLE
8
layer0
66
1
10
  -21.2499569497033
20
  21.24995694970435
30
  -7.999983999997712
40
  8.999999999999986
 0
CIRCLE
8
layer0
66
1
10
  -36.74392627736926
20
  5.755987622038532
30
  -7.999983999997033
40
  1.599999999999997
 0
CIRCLE
8
layer0
66
1
10
  -5.755987622038153
20
  5.755987622038397
30
  -7.999999999999588
40
  1.5999999999999968
 0
CIRCLE
8
layer0
66
1
10
  -5.755987622037972
20
  36.74392627736962
30
  -7.999999999999562
40
  1.599999999999996
 0
CIRCLE
8
layer0
66
1
10
  -36.74392627736922
20
  36.74392627736975
30
  -7.999999999997035
40
  1.599999999999997
 0
ENDSEC
 0
EOF
