 0
SECTION
 2
HEADER
 9
$MEASUREMENT
 70
 2
 0
ENDSEC
 0
SECTION
 2
ENTITIES
 0
POLYLINE
8
layer0
66
1
70
8
10
  0.0
20
  0.0
30
  0.0
  0
VERTEX
8
layer0
10
  240.0
20
  225.00000000000003
30
  0.0
0
VERTEX
8
layer0
10
  0.0
20
  225.00000000000003
30
  0.0
0
VERTEX
8
layer0
10
  240.0
20
  225.00000000000003
30
  0.0
0
VERTEX
8
layer0
10
  240.0
20
  0.0
30
  0.0
0
VERTEX
8
layer0
10
  0.0
20
  0.0
30
  0.0
 0
SEQEND
 0
CIRCLE
8
layer0
66
1
10
  232.5
20
  217.49999999999986
30
  9.023892744153272e-14
40
  1.599999999999997
 0
CIRCLE
8
layer0
66
1
10
  7.5
20
  217.49999999999986
30
  9.023892744153272e-14
40
  1.599999999999997
 0
CIRCLE
8
layer0
66
1
10
  7.500000000000198
20
  22.499999999999833
30
  9.023892744153272e-14
40
  1.599999999999997
 0
CIRCLE
8
layer0
66
1
10
  7.500000000000033
20
  59.99999999999984
30
  4.511946372076636e-13
40
  1.599999999999997
 0
CIRCLE
8
layer0
66
1
10
  7.500000000000091
20
  112.49999999999984
30
  9.023892744153272e-14
40
  1.599999999999997
 0
CIRCLE
8
layer0
66
1
10
  7.500000000000074
20
  97.49999999999984
30
  1.8047785488306544e-13
40
  1.599999999999997
 0
CIRCLE
8
layer0
66
1
10
  7.5000000000001075
20
  127.49999999999983
30
  9.023892744153272e-14
40
  1.59999999999999
 0
CIRCLE
8
layer0
66
1
10
  7.499999999999942
20
  164.99999999999983
30
  4.511946372076636e-13
40
  1.599999999999997
 0
CIRCLE
8
layer0
66
1
10
  7.499999999999983
20
  202.49999999999986
30
  1.8047785488306544e-13
40
  1.599999999999997
 0
CIRCLE
8
layer0
66
1
10
  232.49999999999997
20
  164.99999999999983
30
  4.511946372076636e-13
40
  1.599999999999997
 0
CIRCLE
8
layer0
66
1
10
  232.50000000000009
20
  112.49999999999986
30
  9.023892744153272e-14
40
  1.599999999999997
 0
CIRCLE
8
layer0
66
1
10
  232.50000000000006
20
  59.999999999999844
30
  4.511946372076636e-13
40
  1.5999999999999968
 0
CIRCLE
8
layer0
66
1
10
  168.74999999999997
20
  7.499999999999152
30
  9.023892744153272e-14
40
  1.599999999999997
 0
CIRCLE
8
layer0
66
1
10
  71.24999999999996
20
  7.499999999998159
30
  9.023892744153272e-14
40
  1.599999999999997
 0
CIRCLE
8
layer0
66
1
10
  217.49999999999997
20
  7.499999999999648
30
  9.023892744153272e-14
40
  1.599999999999997
 0
CIRCLE
8
layer0
66
1
10
  7.500000000000009
20
  7.499999999999829
30
  9.023892744153272e-14
40
  1.5999999999999963
 0
CIRCLE
8
layer0
66
1
10
  22.499999999999943
20
  7.499999999997662
30
  9.023892744153272e-14
40
  1.599999999999997
 0
CIRCLE
8
layer0
66
1
10
  119.99999999999996
20
  7.499999999998655
30
  9.023892744153272e-14
40
  1.599999999999997
 0
CIRCLE
8
layer0
66
1
10
  232.5
20
  7.499999999999829
30
  9.023892744153272e-14
40
  1.599999999999997
 0
POLYLINE
8
layer0
66
1
70
8
10
  0.0
20
  0.0
30
  0.0
  0
VERTEX
8
layer0
10
  0.0
20
  225.00000000000003
30
  2.9999999999999947
0
VERTEX
8
layer0
10
  0.0
20
  0.0
30
  2.9999999999999947
0
VERTEX
8
layer0
10
  240.0
20
  0.0
30
  2.9999999999999947
0
VERTEX
8
layer0
10
  240.0
20
  225.00000000000003
30
  2.9999999999999947
0
VERTEX
8
layer0
10
  0.0
20
  225.00000000000003
30
  2.9999999999999947
 0
SEQEND
 0
CIRCLE
8
layer0
66
1
10
  7.5
20
  217.49999999999986
30
  3.000000000000085
40
  1.599999999999997
 0
CIRCLE
8
layer0
66
1
10
  232.5
20
  217.49999999999986
30
  3.000000000000085
40
  1.599999999999997
 0
CIRCLE
8
layer0
66
1
10
  7.500000000000091
20
  112.49999999999984
30
  3.000000000000085
40
  1.599999999999997
 0
CIRCLE
8
layer0
66
1
10
  232.50000000000009
20
  112.49999999999986
30
  3.000000000000085
40
  1.599999999999997
 0
CIRCLE
8
layer0
66
1
10
  232.50000000000006
20
  59.999999999999844
30
  3.000000000000446
40
  1.5999999999999968
 0
CIRCLE
8
layer0
66
1
10
  232.49999999999997
20
  164.99999999999983
30
  3.000000000000446
40
  1.5999999999999974
 0
CIRCLE
8
layer0
66
1
10
  7.499999999999942
20
  164.99999999999983
30
  3.000000000000446
40
  1.599999999999997
 0
CIRCLE
8
layer0
66
1
10
  7.500000000000033
20
  59.99999999999984
30
  3.000000000000446
40
  1.599999999999997
 0
CIRCLE
8
layer0
66
1
10
  7.499999999999983
20
  202.49999999999986
30
  3.000000000000175
40
  1.599999999999997
 0
CIRCLE
8
layer0
66
1
10
  7.500000000000074
20
  97.49999999999984
30
  3.000000000000175
40
  1.599999999999997
 0
CIRCLE
8
layer0
66
1
10
  7.5000000000001075
20
  127.49999999999983
30
  3.000000000000085
40
  1.5999999999999903
 0
CIRCLE
8
layer0
66
1
10
  7.500000000000198
20
  22.499999999999833
30
  3.000000000000085
40
  1.599999999999997
 0
CIRCLE
8
layer0
66
1
10
  232.5
20
  7.499999999999829
30
  3.0000000000000906
40
  1.599999999999997
 0
CIRCLE
8
layer0
66
1
10
  217.49999999999997
20
  7.499999999999648
30
  3.0000000000000906
40
  1.599999999999997
 0
CIRCLE
8
layer0
66
1
10
  168.74999999999997
20
  7.499999999999152
30
  3.0000000000000906
40
  1.599999999999997
 0
CIRCLE
8
layer0
66
1
10
  119.99999999999996
20
  7.499999999998655
30
  3.0000000000000906
40
  1.599999999999997
 0
CIRCLE
8
layer0
66
1
10
  71.24999999999996
20
  7.499999999998159
30
  3.0000000000000906
40
  1.599999999999997
 0
CIRCLE
8
layer0
66
1
10
  22.499999999999943
20
  7.499999999997662
30
  3.0000000000000906
40
  1.599999999999997
 0
CIRCLE
8
layer0
66
1
10
  7.500000000000009
20
  7.499999999999829
30
  3.0000000000000906
40
  1.5999999999999963
 0
ENDSEC
 0
EOF
