 0
SECTION
 2
HEADER
 9
$MEASUREMENT
 70
 2
 0
ENDSEC
 0
SECTION
 2
ENTITIES
 0
POLYLINE
8
layer0
66
1
70
8
10
  0.000
20
  0.000
30
  0.000
  0
VERTEX
8
layer0
10
  16.669
20
  -9.669
30
  -2.500
  0
VERTEX
8
layer0
10
  16.370
20
  -10.059
30
  -2.500
  0
VERTEX
8
layer0
10
  16.182
20
  -10.513
30
  -2.500
  0
VERTEX
8
layer0
10
  16.117
20
  -11.000
30
  -2.500
  0
VERTEX
8
layer0
10
  16.182
20
  -11.487
30
  -2.500
  0
VERTEX
8
layer0
10
  16.370
20
  -11.941
30
  -2.500
  0
VERTEX
8
layer0
10
  16.669
20
  -12.331
30
  -2.500
  0
VERTEX
8
layer0
10
  17.059
20
  -12.630
30
  -2.500
  0
VERTEX
8
layer0
10
  17.513
20
  -12.818
30
  -2.500
  0
VERTEX
8
layer0
10
  17.943
20
  -12.875
30
  -2.500
  0
VERTEX
8
layer0
10
  87.057
20
  -12.875
30
  -2.500
  0
VERTEX
8
layer0
10
  87.487
20
  -12.818
30
  -2.500
  0
VERTEX
8
layer0
10
  87.941
20
  -12.630
30
  -2.500
  0
VERTEX
8
layer0
10
  88.331
20
  -12.331
30
  -2.500
  0
VERTEX
8
layer0
10
  88.630
20
  -11.941
30
  -2.500
  0
VERTEX
8
layer0
10
  88.818
20
  -11.487
30
  -2.500
  0
VERTEX
8
layer0
10
  88.883
20
  -11.000
30
  -2.500
  0
VERTEX
8
layer0
10
  88.818
20
  -10.513
30
  -2.500
  0
VERTEX
8
layer0
10
  88.630
20
  -10.059
30
  -2.500
  0
VERTEX
8
layer0
10
  88.331
20
  -9.669
30
  -2.500
  0
VERTEX
8
layer0
10
  87.941
20
  -9.370
30
  -2.500
  0
VERTEX
8
layer0
10
  87.487
20
  -9.182
30
  -2.500
  0
VERTEX
8
layer0
10
  87.057
20
  -9.125
30
  -2.500
  0
VERTEX
8
layer0
10
  17.943
20
  -9.125
30
  -2.500
  0
VERTEX
8
layer0
10
  17.513
20
  -9.182
30
  -2.500
  0
VERTEX
8
layer0
10
  17.059
20
  -9.370
30
  -2.500
  0
VERTEX
8
layer0
10
  16.669
20
  -9.669
30
  -2.500
  0
VERTEX
8
layer0
10
  87.000
20
  -10.000
30
  -2.500
 0
SEQEND
 0
ARC
8
layer0
66
1
10
  87.000
20
  -11.000
30
  -2.500
40
  1.0000000000000038
50
  -90.000
51
  90.000
 0
POLYLINE
8
layer0
66
1
70
8
10
  0.000
20
  0.000
30
  0.000
  0
VERTEX
8
layer0
10
  87.000
20
  -12.000
30
  -2.500
  0
VERTEX
8
layer0
10
  18.000
20
  -12.000
30
  -2.500
 0
SEQEND
 0
ARC
8
layer0
66
1
10
  18.000
20
  -11.000
30
  -2.500
40
  0.9999999999999981
50
  90.000
51
  -90.000
 0
POLYLINE
8
layer0
66
1
70
8
10
  0.000
20
  0.000
30
  0.000
  0
VERTEX
8
layer0
10
  88.331
20
  -40.331
30
  -2.500
  0
VERTEX
8
layer0
10
  88.630
20
  -39.941
30
  -2.500
  0
VERTEX
8
layer0
10
  88.818
20
  -39.487
30
  -2.500
  0
VERTEX
8
layer0
10
  88.883
20
  -39.000
30
  -2.500
  0
VERTEX
8
layer0
10
  88.818
20
  -38.513
30
  -2.500
  0
VERTEX
8
layer0
10
  88.630
20
  -38.059
30
  -2.500
  0
VERTEX
8
layer0
10
  88.331
20
  -37.669
30
  -2.500
  0
VERTEX
8
layer0
10
  87.941
20
  -37.370
30
  -2.500
  0
VERTEX
8
layer0
10
  87.487
20
  -37.182
30
  -2.500
  0
VERTEX
8
layer0
10
  87.057
20
  -37.125
30
  -2.500
  0
VERTEX
8
layer0
10
  17.943
20
  -37.125
30
  -2.500
  0
VERTEX
8
layer0
10
  17.513
20
  -37.182
30
  -2.500
  0
VERTEX
8
layer0
10
  17.059
20
  -37.370
30
  -2.500
  0
VERTEX
8
layer0
10
  16.669
20
  -37.669
30
  -2.500
  0
VERTEX
8
layer0
10
  16.370
20
  -38.059
30
  -2.500
  0
VERTEX
8
layer0
10
  16.182
20
  -38.513
30
  -2.500
  0
VERTEX
8
layer0
10
  16.117
20
  -39.000
30
  -2.500
  0
VERTEX
8
layer0
10
  16.182
20
  -39.487
30
  -2.500
  0
VERTEX
8
layer0
10
  16.370
20
  -39.941
30
  -2.500
  0
VERTEX
8
layer0
10
  16.669
20
  -40.331
30
  -2.500
  0
VERTEX
8
layer0
10
  17.059
20
  -40.630
30
  -2.500
  0
VERTEX
8
layer0
10
  17.513
20
  -40.818
30
  -2.500
  0
VERTEX
8
layer0
10
  17.943
20
  -40.875
30
  -2.500
  0
VERTEX
8
layer0
10
  87.057
20
  -40.875
30
  -2.500
  0
VERTEX
8
layer0
10
  87.487
20
  -40.818
30
  -2.500
  0
VERTEX
8
layer0
10
  87.941
20
  -40.630
30
  -2.500
  0
VERTEX
8
layer0
10
  88.331
20
  -40.331
30
  -2.500
  0
VERTEX
8
layer0
10
  87.000
20
  -38.000
30
  -2.500
 0
SEQEND
 0
ARC
8
layer0
66
1
10
  87.000
20
  -39.000
30
  -2.500
40
  1.000000000000009
50
  -90.000
51
  90.000
 0
POLYLINE
8
layer0
66
1
70
8
10
  0.000
20
  0.000
30
  0.000
  0
VERTEX
8
layer0
10
  87.000
20
  -40.000
30
  -2.500
  0
VERTEX
8
layer0
10
  18.000
20
  -40.000
30
  -2.500
 0
SEQEND
 0
ARC
8
layer0
66
1
10
  18.000
20
  -39.000
30
  -2.500
40
  1.000000000000009
50
  90.000
51
  -90.000
 0
ARC
8
layer0
66
1
10
  2.000
20
  -48.000
30
  -0.000
40
  1.9999999999999962
50
  180.000
51
  -90.000
 0
POLYLINE
8
layer0
66
1
70
8
10
  0.000
20
  0.000
30
  0.000
  0
VERTEX
8
layer0
10
  2.000
20
  -50.000
30
  -0.000
  0
VERTEX
8
layer0
10
  103.000
20
  -50.000
30
  -0.000
 0
SEQEND
 0
ARC
8
layer0
66
1
10
  103.000
20
  -48.000
30
  -0.000
40
  1.9999999999999962
50
  -90.000
51
  -0.000
 0
POLYLINE
8
layer0
66
1
70
8
10
  0.000
20
  0.000
30
  0.000
  0
VERTEX
8
layer0
10
  105.000
20
  -48.000
30
  -0.000
  0
VERTEX
8
layer0
10
  105.000
20
  -2.000
30
  -0.000
 0
SEQEND
 0
ARC
8
layer0
66
1
10
  103.000
20
  -2.000
30
  -0.000
40
  1.9999999999999962
50
  -0.000
51
  90.000
 0
POLYLINE
8
layer0
66
1
70
8
10
  0.000
20
  0.000
30
  0.000
  0
VERTEX
8
layer0
10
  103.000
20
  0.000
30
  0.000
  0
VERTEX
8
layer0
10
  2.000
20
  0.000
30
  0.000
 0
SEQEND
 0
ARC
8
layer0
66
1
10
  2.000
20
  -2.000
30
  -0.000
40
  1.9999999999999962
50
  90.000
51
  180.000
 0
POLYLINE
8
layer0
66
1
70
8
10
  0.000
20
  0.000
30
  0.000
  0
VERTEX
8
layer0
10
  0.000
20
  -2.000
30
  -0.000
  0
VERTEX
8
layer0
10
  0.000
20
  -48.000
30
  -0.000
 0
SEQEND
 0
ARC
8
layer0
66
1
10
  2.000
20
  -48.000
30
  -0.000
40
  1.9999999999999962
50
  180.000
51
  -90.000
 0
POLYLINE
8
layer0
66
1
70
8
10
  0.000
20
  0.000
30
  0.000
  0
VERTEX
8
layer0
10
  87.941
20
  -40.630
30
  -0.000
  0
VERTEX
8
layer0
10
  87.487
20
  -40.818
30
  -0.000
  0
VERTEX
8
layer0
10
  87.057
20
  -40.875
30
  -0.000
  0
VERTEX
8
layer0
10
  17.943
20
  -40.875
30
  -0.000
  0
VERTEX
8
layer0
10
  17.513
20
  -40.818
30
  -0.000
  0
VERTEX
8
layer0
10
  17.059
20
  -40.630
30
  -0.000
  0
VERTEX
8
layer0
10
  16.669
20
  -40.331
30
  -0.000
  0
VERTEX
8
layer0
10
  16.370
20
  -39.941
30
  -0.000
  0
VERTEX
8
layer0
10
  16.182
20
  -39.487
30
  -0.000
  0
VERTEX
8
layer0
10
  16.117
20
  -39.000
30
  -0.000
  0
VERTEX
8
layer0
10
  16.182
20
  -38.513
30
  -0.000
  0
VERTEX
8
layer0
10
  16.370
20
  -38.059
30
  -0.000
  0
VERTEX
8
layer0
10
  16.669
20
  -37.669
30
  -0.000
  0
VERTEX
8
layer0
10
  17.059
20
  -37.370
30
  -0.000
  0
VERTEX
8
layer0
10
  17.513
20
  -37.182
30
  -0.000
  0
VERTEX
8
layer0
10
  17.943
20
  -37.125
30
  -0.000
  0
VERTEX
8
layer0
10
  87.057
20
  -37.125
30
  -0.000
  0
VERTEX
8
layer0
10
  87.487
20
  -37.182
30
  -0.000
  0
VERTEX
8
layer0
10
  87.941
20
  -37.370
30
  -0.000
  0
VERTEX
8
layer0
10
  88.331
20
  -37.669
30
  -0.000
  0
VERTEX
8
layer0
10
  88.630
20
  -38.059
30
  -0.000
  0
VERTEX
8
layer0
10
  88.818
20
  -38.513
30
  -0.000
  0
VERTEX
8
layer0
10
  88.883
20
  -39.000
30
  -0.000
  0
VERTEX
8
layer0
10
  88.818
20
  -39.487
30
  -0.000
  0
VERTEX
8
layer0
10
  88.630
20
  -39.941
30
  -0.000
  0
VERTEX
8
layer0
10
  88.331
20
  -40.331
30
  -0.000
  0
VERTEX
8
layer0
10
  87.941
20
  -40.630
30
  -0.000
 0
SEQEND
 0
ARC
8
layer0
66
1
10
  85.200
20
  -25.000
30
  -0.000
40
  1.7999999999999967
50
  -90.000
51
  90.000
 0
POLYLINE
8
layer0
66
1
70
8
10
  0.000
20
  0.000
30
  0.000
  0
VERTEX
8
layer0
10
  85.200
20
  -26.800
30
  -0.000
  0
VERTEX
8
layer0
10
  19.800
20
  -26.800
30
  -0.000
 0
SEQEND
 0
ARC
8
layer0
66
1
10
  19.800
20
  -25.000
30
  -0.000
40
  1.7999999999999967
50
  90.000
51
  -90.000
 0
POLYLINE
8
layer0
66
1
70
8
10
  0.000
20
  0.000
30
  0.000
  0
VERTEX
8
layer0
10
  19.800
20
  -23.200
30
  -0.000
  0
VERTEX
8
layer0
10
  85.200
20
  -23.200
30
  -0.000
 0
SEQEND
 0
ARC
8
layer0
66
1
10
  85.200
20
  -25.000
30
  -0.000
40
  1.7999999999999967
50
  -90.000
51
  90.000
 0
CIRCLE
8
layer0
66
1
10
  7.500
20
  -7.500
30
  -0.000
40
  1.6000000000000023
 0
POLYLINE
8
layer0
66
1
70
8
10
  0.000
20
  0.000
30
  0.000
  0
VERTEX
8
layer0
10
  87.487
20
  -9.182
30
  -0.000
  0
VERTEX
8
layer0
10
  87.941
20
  -9.370
30
  -0.000
  0
VERTEX
8
layer0
10
  88.331
20
  -9.669
30
  -0.000
  0
VERTEX
8
layer0
10
  88.630
20
  -10.059
30
  -0.000
  0
VERTEX
8
layer0
10
  88.818
20
  -10.513
30
  -0.000
  0
VERTEX
8
layer0
10
  88.883
20
  -11.000
30
  -0.000
  0
VERTEX
8
layer0
10
  88.818
20
  -11.487
30
  -0.000
  0
VERTEX
8
layer0
10
  88.630
20
  -11.941
30
  -0.000
  0
VERTEX
8
layer0
10
  88.331
20
  -12.331
30
  -0.000
  0
VERTEX
8
layer0
10
  87.941
20
  -12.630
30
  -0.000
  0
VERTEX
8
layer0
10
  87.487
20
  -12.818
30
  -0.000
  0
VERTEX
8
layer0
10
  87.057
20
  -12.875
30
  -0.000
  0
VERTEX
8
layer0
10
  17.943
20
  -12.875
30
  -0.000
  0
VERTEX
8
layer0
10
  17.513
20
  -12.818
30
  -0.000
  0
VERTEX
8
layer0
10
  17.059
20
  -12.630
30
  -0.000
  0
VERTEX
8
layer0
10
  16.669
20
  -12.331
30
  -0.000
  0
VERTEX
8
layer0
10
  16.370
20
  -11.941
30
  -0.000
  0
VERTEX
8
layer0
10
  16.182
20
  -11.487
30
  -0.000
  0
VERTEX
8
layer0
10
  16.117
20
  -11.000
30
  -0.000
  0
VERTEX
8
layer0
10
  16.182
20
  -10.513
30
  -0.000
  0
VERTEX
8
layer0
10
  16.370
20
  -10.059
30
  -0.000
  0
VERTEX
8
layer0
10
  16.669
20
  -9.669
30
  -0.000
  0
VERTEX
8
layer0
10
  17.059
20
  -9.370
30
  -0.000
  0
VERTEX
8
layer0
10
  17.513
20
  -9.182
30
  -0.000
  0
VERTEX
8
layer0
10
  17.943
20
  -9.125
30
  -0.000
  0
VERTEX
8
layer0
10
  87.057
20
  -9.125
30
  -0.000
  0
VERTEX
8
layer0
10
  87.487
20
  -9.182
30
  -0.000
 0
SEQEND
 0
CIRCLE
8
layer0
66
1
10
  7.500
20
  -42.500
30
  -0.000
40
  1.599999999999997
 0
CIRCLE
8
layer0
66
1
10
  97.500
20
  -42.500
30
  -0.000
40
  1.599999999999997
 0
CIRCLE
8
layer0
66
1
10
  97.500
20
  -7.500
30
  -0.000
40
  1.6000000000000028
 0
ARC
8
layer0
66
1
10
  103.000
20
  -48.000
30
  -5.000
40
  1.9999999999999962
50
  -90.000
51
  -0.000
 0
POLYLINE
8
layer0
66
1
70
8
10
  0.000
20
  0.000
30
  0.000
  0
VERTEX
8
layer0
10
  103.000
20
  -50.000
30
  -5.000
  0
VERTEX
8
layer0
10
  2.000
20
  -50.000
30
  -5.000
 0
SEQEND
 0
ARC
8
layer0
66
1
10
  2.000
20
  -48.000
30
  -5.000
40
  1.9999999999999962
50
  180.000
51
  -90.000
 0
POLYLINE
8
layer0
66
1
70
8
10
  0.000
20
  0.000
30
  0.000
  0
VERTEX
8
layer0
10
  0.000
20
  -48.000
30
  -5.000
  0
VERTEX
8
layer0
10
  0.000
20
  -2.000
30
  -5.000
 0
SEQEND
 0
ARC
8
layer0
66
1
10
  2.000
20
  -2.000
30
  -5.000
40
  1.9999999999999962
50
  90.000
51
  180.000
 0
POLYLINE
8
layer0
66
1
70
8
10
  0.000
20
  0.000
30
  0.000
  0
VERTEX
8
layer0
10
  2.000
20
  0.000
30
  -5.000
  0
VERTEX
8
layer0
10
  103.000
20
  0.000
30
  -5.000
 0
SEQEND
 0
ARC
8
layer0
66
1
10
  103.000
20
  -2.000
30
  -5.000
40
  1.9999999999999962
50
  -0.000
51
  90.000
 0
POLYLINE
8
layer0
66
1
70
8
10
  0.000
20
  0.000
30
  0.000
  0
VERTEX
8
layer0
10
  105.000
20
  -2.000
30
  -5.000
  0
VERTEX
8
layer0
10
  105.000
20
  -48.000
30
  -5.000
 0
SEQEND
 0
ARC
8
layer0
66
1
10
  103.000
20
  -48.000
30
  -5.000
40
  1.9999999999999962
50
  -90.000
51
  -0.000
 0
ARC
8
layer0
66
1
10
  18.000
20
  -11.000
30
  -5.000
40
  0.9999999999999981
50
  90.000
51
  -90.000
 0
POLYLINE
8
layer0
66
1
70
8
10
  0.000
20
  0.000
30
  0.000
  0
VERTEX
8
layer0
10
  18.000
20
  -12.000
30
  -5.000
  0
VERTEX
8
layer0
10
  87.000
20
  -12.000
30
  -5.000
 0
SEQEND
 0
ARC
8
layer0
66
1
10
  87.000
20
  -11.000
30
  -5.000
40
  1.0000000000000038
50
  -90.000
51
  90.000
 0
POLYLINE
8
layer0
66
1
70
8
10
  0.000
20
  0.000
30
  0.000
  0
VERTEX
8
layer0
10
  87.000
20
  -10.000
30
  -5.000
  0
VERTEX
8
layer0
10
  18.000
20
  -10.000
30
  -5.000
 0
SEQEND
 0
ARC
8
layer0
66
1
10
  18.000
20
  -11.000
30
  -5.000
40
  0.9999999999999981
50
  90.000
51
  -90.000
 0
CIRCLE
8
layer0
66
1
10
  97.500
20
  -7.500
30
  -5.000
40
  1.6000000000000028
 0
ARC
8
layer0
66
1
10
  19.800
20
  -25.000
30
  -5.000
40
  1.7999999999999967
50
  90.000
51
  -90.000
 0
POLYLINE
8
layer0
66
1
70
8
10
  0.000
20
  0.000
30
  0.000
  0
VERTEX
8
layer0
10
  19.800
20
  -26.800
30
  -5.000
  0
VERTEX
8
layer0
10
  85.200
20
  -26.800
30
  -5.000
 0
SEQEND
 0
ARC
8
layer0
66
1
10
  85.200
20
  -25.000
30
  -5.000
40
  1.7999999999999967
50
  -90.000
51
  90.000
 0
POLYLINE
8
layer0
66
1
70
8
10
  0.000
20
  0.000
30
  0.000
  0
VERTEX
8
layer0
10
  85.200
20
  -23.200
30
  -5.000
  0
VERTEX
8
layer0
10
  19.800
20
  -23.200
30
  -5.000
 0
SEQEND
 0
ARC
8
layer0
66
1
10
  19.800
20
  -25.000
30
  -5.000
40
  1.7999999999999967
50
  90.000
51
  -90.000
 0
ARC
8
layer0
66
1
10
  18.000
20
  -39.000
30
  -5.000
40
  1.000000000000009
50
  90.000
51
  -90.000
 0
POLYLINE
8
layer0
66
1
70
8
10
  0.000
20
  0.000
30
  0.000
  0
VERTEX
8
layer0
10
  18.000
20
  -40.000
30
  -5.000
  0
VERTEX
8
layer0
10
  87.000
20
  -40.000
30
  -5.000
 0
SEQEND
 0
ARC
8
layer0
66
1
10
  87.000
20
  -39.000
30
  -5.000
40
  1.000000000000009
50
  -90.000
51
  90.000
 0
POLYLINE
8
layer0
66
1
70
8
10
  0.000
20
  0.000
30
  0.000
  0
VERTEX
8
layer0
10
  87.000
20
  -38.000
30
  -5.000
  0
VERTEX
8
layer0
10
  18.000
20
  -38.000
30
  -5.000
 0
SEQEND
 0
ARC
8
layer0
66
1
10
  18.000
20
  -39.000
30
  -5.000
40
  1.000000000000009
50
  90.000
51
  -90.000
 0
CIRCLE
8
layer0
66
1
10
  97.500
20
  -42.500
30
  -5.000
40
  1.599999999999997
 0
CIRCLE
8
layer0
66
1
10
  7.500
20
  -42.500
30
  -5.000
40
  1.599999999999997
 0
CIRCLE
8
layer0
66
1
10
  7.500
20
  -7.500
30
  -5.000
40
  1.6000000000000028
 0
ENDSEC
 0
EOF
