 0
SECTION
 2
HEADER
 9
$MEASUREMENT
 70
 2
 0
ENDSEC
 0
SECTION
 2
ENTITIES
 0
POLYLINE
8
layer0
66
1
70
8
10
  0.0
20
  0.0
30
  0.0
  0
VERTEX
8
layer0
10
  16.369663581217356
20
  -10.058724829746158
30
  -2.4999999999999956
0
VERTEX
8
layer0
10
  16.668835888301988
20
  -9.66883588830199
30
  -2.4999999999999956
0
VERTEX
8
layer0
10
  16.369663581217356
20
  -10.058724829746158
30
  -2.4999999999999956
0
VERTEX
8
layer0
10
  16.181596006814388
20
  -10.512760118512379
30
  -2.4999999999999956
0
VERTEX
8
layer0
10
  16.117449659492358
20
  -11.000000000000036
30
  -2.4999999999999956
0
VERTEX
8
layer0
10
  16.181596006814388
20
  -11.487239881487582
30
  -2.4999999999999956
0
VERTEX
8
layer0
10
  16.369663581217356
20
  -11.941275170253835
30
  -2.4999999999999956
0
VERTEX
8
layer0
10
  16.668835888301988
20
  -12.331164111697992
30
  -2.4999999999999956
0
VERTEX
8
layer0
10
  17.058724829746144
20
  -12.630336418782615
30
  -2.4999999999999956
0
VERTEX
8
layer0
10
  17.512760118512375
20
  -12.818403993185594
30
  -2.4999999999999956
0
VERTEX
8
layer0
10
  17.94264947003673
20
  -12.874999999999993
30
  -2.4999999999999956
0
VERTEX
8
layer0
10
  87.057350529963
20
  -12.875000000000027
30
  -2.4999999999999956
0
VERTEX
8
layer0
10
  87.48723988148764
20
  -12.818403993185594
30
  -2.4999999999999956
0
VERTEX
8
layer0
10
  87.9412751702538
20
  -12.63033641878267
30
  -2.4999999999999956
0
VERTEX
8
layer0
10
  88.33116411169804
20
  -12.331164111697946
30
  -2.4999999999999956
0
VERTEX
8
layer0
10
  88.63033641878266
20
  -11.941275170253835
30
  -2.4999999999999956
0
VERTEX
8
layer0
10
  88.8184039931856
20
  -11.487239881487616
30
  -2.4999999999999956
0
VERTEX
8
layer0
10
  88.88255034050765
20
  -10.999999999999991
30
  -2.4999999999999956
0
VERTEX
8
layer0
10
  88.8184039931856
20
  -10.512760118512366
30
  -2.4999999999999956
0
VERTEX
8
layer0
10
  88.63033641878266
20
  -10.058724829746158
30
  -2.4999999999999956
0
VERTEX
8
layer0
10
  88.33116411169804
20
  -9.668835888302036
30
  -2.4999999999999956
0
VERTEX
8
layer0
10
  87.9412751702538
20
  -9.369663581217312
30
  -2.4999999999999956
0
VERTEX
8
layer0
10
  87.48723988148762
20
  -9.181596006814388
30
  -2.4999999999999956
0
VERTEX
8
layer0
10
  87.05735052996336
20
  -9.12499999999999
30
  -2.4999999999999956
0
VERTEX
8
layer0
10
  17.942649470036933
20
  -9.124999999999943
30
  -2.4999999999999956
0
VERTEX
8
layer0
10
  17.512760118512364
20
  -9.181596006814388
30
  -2.4999999999999956
0
VERTEX
8
layer0
10
  17.05872482974618
20
  -9.369663581217333
30
  -2.4999999999999956
0
VERTEX
8
layer0
10
  17.99999999999999
20
  -9.999999999999993
30
  -2.4999999999999956
 0
SEQEND
 0
ARC
8
layer0
66
1
10
  87.00000000000001
20
  -10.999999999999991
30
  -2.4999999999999956
40
  1.0000000000000038
50
  90.0
51
  269.9766637957233
 0
POLYLINE
8
layer0
66
1
70
8
10
  0.0
20
  0.0
30
  0.0
  0
VERTEX
8
layer0
10
  87.00000000000001
20
  -11.99999999999999
30
  -2.4999999999999956
0
VERTEX
8
layer0
10
  17.99999999999999
20
  -11.99999999999999
30
  -2.4999999999999956
 0
SEQEND
 0
ARC
8
layer0
66
1
10
  17.99999999999999
20
  -10.999999999999991
30
  -2.4999999999999956
40
  0.9999999999999981
50
  -89.97666379572334
51
  90.0
 0
POLYLINE
8
layer0
66
1
70
8
10
  0.0
20
  0.0
30
  0.0
  0
VERTEX
8
layer0
10
  88.63033641878268
20
  -39.94127517025383
30
  -2.4999999999999956
0
VERTEX
8
layer0
10
  88.331164111698
20
  -40.33116411169799
30
  -2.4999999999999956
0
VERTEX
8
layer0
10
  88.63033641878268
20
  -39.94127517025383
30
  -2.4999999999999956
0
VERTEX
8
layer0
10
  88.81840399318563
20
  -39.48723988148763
30
  -2.4999999999999956
0
VERTEX
8
layer0
10
  88.88255034050766
20
  -39.00000000000001
30
  -2.4999999999999956
0
VERTEX
8
layer0
10
  88.81840399318563
20
  -38.51276011851238
30
  -2.4999999999999956
0
VERTEX
8
layer0
10
  88.63033641878268
20
  -38.05872482974614
30
  -2.4999999999999956
0
VERTEX
8
layer0
10
  88.331164111698
20
  -37.668835888302006
30
  -2.4999999999999956
0
VERTEX
8
layer0
10
  87.94127517025382
20
  -37.369663581217324
30
  -2.4999999999999956
0
VERTEX
8
layer0
10
  87.48723988148767
20
  -37.18159600681438
30
  -2.4999999999999956
0
VERTEX
8
layer0
10
  87.05735052996327
20
  -37.124999999999986
30
  -2.4999999999999956
0
VERTEX
8
layer0
10
  17.942649470037026
20
  -37.12499999999996
30
  -2.4999999999999956
0
VERTEX
8
layer0
10
  17.512760118512354
20
  -37.18159600681438
30
  -2.4999999999999956
0
VERTEX
8
layer0
10
  17.05872482974618
20
  -37.369663581217324
30
  -2.4999999999999956
0
VERTEX
8
layer0
10
  16.668835888302
20
  -37.668835888302006
30
  -2.4999999999999956
0
VERTEX
8
layer0
10
  16.36966358121732
20
  -38.05872482974618
30
  -2.4999999999999956
0
VERTEX
8
layer0
10
  16.181596006814388
20
  -38.51276011851238
30
  -2.4999999999999956
0
VERTEX
8
layer0
10
  16.117449659492344
20
  -39.00000000000001
30
  -2.4999999999999956
0
VERTEX
8
layer0
10
  16.181596006814388
20
  -39.48723988148763
30
  -2.4999999999999956
0
VERTEX
8
layer0
10
  16.36966358121732
20
  -39.94127517025381
30
  -2.4999999999999956
0
VERTEX
8
layer0
10
  16.668835888302
20
  -40.33116411169799
30
  -2.4999999999999956
0
VERTEX
8
layer0
10
  17.05872482974618
20
  -40.63033641878266
30
  -2.4999999999999956
0
VERTEX
8
layer0
10
  17.512760118512364
20
  -40.81840399318559
30
  -2.4999999999999956
0
VERTEX
8
layer0
10
  17.942649470036663
20
  -40.87500000000001
30
  -2.4999999999999956
0
VERTEX
8
layer0
10
  87.05735052996306
20
  -40.875000000000036
30
  -2.4999999999999956
0
VERTEX
8
layer0
10
  87.48723988148767
20
  -40.81840399318559
30
  -2.4999999999999956
0
VERTEX
8
layer0
10
  87.94127517025382
20
  -40.63033641878266
30
  -2.4999999999999956
0
VERTEX
8
layer0
10
  87.00000000000001
20
  -38.00000000000001
30
  -2.4999999999999956
 0
SEQEND
 0
ARC
8
layer0
66
1
10
  87.00000000000001
20
  -39.00000000000001
30
  -2.4999999999999956
40
  1.000000000000009
50
  -89.97666379572334
51
  90.0
 0
POLYLINE
8
layer0
66
1
70
8
10
  0.0
20
  0.0
30
  0.0
  0
VERTEX
8
layer0
10
  17.99999999999999
20
  -40.00000000000001
30
  -2.4999999999999956
0
VERTEX
8
layer0
10
  87.00000000000001
20
  -40.00000000000001
30
  -2.4999999999999956
 0
SEQEND
 0
ARC
8
layer0
66
1
10
  17.99999999999999
20
  -39.00000000000001
30
  -2.4999999999999956
40
  1.000000000000009
50
  -89.97666379572334
51
  90.0
 0
ARC
8
layer0
66
1
10
  1.9999999999999962
20
  -48.000000000000014
30
  -6.465854072035679e-29
40
  1.9999999999999962
50
  -89.97666379572334
51
  0.011668102138330028
 0
POLYLINE
8
layer0
66
1
70
8
10
  0.0
20
  0.0
30
  0.0
  0
VERTEX
8
layer0
10
  1.9999999999999962
20
  -50.00000000000001
30
  -6.735264658370499e-29
0
VERTEX
8
layer0
10
  103.00000000000001
20
  -50.00000000000001
30
  -6.735264658370499e-29
 0
SEQEND
 0
ARC
8
layer0
66
1
10
  103.00000000000001
20
  -48.000000000000014
30
  -6.465854072035679e-29
40
  1.9999999999999962
50
  0.011668102138330028
51
  90.0
 0
POLYLINE
8
layer0
66
1
70
8
10
  0.0
20
  0.0
30
  0.0
  0
VERTEX
8
layer0
10
  105.00000000000001
20
  -48.000000000000014
30
  -6.465854072035679e-29
0
VERTEX
8
layer0
10
  105.00000000000001
20
  -2.0000000000000075
30
  -2.6941058633482095e-30
 0
SEQEND
 0
ARC
8
layer0
66
1
10
  103.00000000000001
20
  -2.0000000000000075
30
  -2.6941058633482095e-30
40
  1.9999999999999962
50
  0.011668102138330028
51
  90.0
 0
POLYLINE
8
layer0
66
1
70
8
10
  0.0
20
  0.0
30
  0.0
  0
VERTEX
8
layer0
10
  103.00000000000001
20
  1.3548889941193102e-29
30
  0.0
0
VERTEX
8
layer0
10
  1.9999999999999962
20
  2.6308524157656454e-31
30
  0.0
 0
SEQEND
 0
ARC
8
layer0
66
1
10
  1.9999999999999962
20
  -2.0000000000000075
30
  -2.6941058633482095e-30
40
  1.9999999999999962
50
  179.98833189786166
51
  269.9766637957233
 0
POLYLINE
8
layer0
66
1
70
8
10
  0.0
20
  0.0
30
  0.0
  0
VERTEX
8
layer0
10
  2.6308524157656603e-31
20
  -2.0000000000000075
30
  -2.6941058633482095e-30
0
VERTEX
8
layer0
10
  6.314045797837562e-30
20
  -48.000000000000014
30
  -6.465854072035679e-29
 0
SEQEND
 0
ARC
8
layer0
66
1
10
  1.9999999999999962
20
  -48.000000000000014
30
  -6.465854072035679e-29
40
  1.9999999999999962
50
  -89.97666379572334
51
  0.011668102138330028
 0
POLYLINE
8
layer0
66
1
70
8
10
  0.0
20
  0.0
30
  0.0
  0
VERTEX
8
layer0
10
  87.94127517025382
20
  -40.63033641878266
30
  -5.473121378782613e-29
0
VERTEX
8
layer0
10
  87.48723988148767
20
  -40.81840399318559
30
  -5.498455076527841e-29
0
VERTEX
8
layer0
10
  87.05735052996306
20
  -40.875000000000036
30
  -5.506078858217886e-29
0
VERTEX
8
layer0
10
  17.942649470036663
20
  -40.87500000000001
30
  -5.506078858217883e-29
0
VERTEX
8
layer0
10
  17.512760118512364
20
  -40.81840399318559
30
  -5.498455076527841e-29
0
VERTEX
8
layer0
10
  17.05872482974618
20
  -40.63033641878266
30
  -5.473121378782613e-29
0
VERTEX
8
layer0
10
  16.668835888302
20
  -40.33116411169799
30
  -5.432821285449199e-29
0
VERTEX
8
layer0
10
  16.36966358121732
20
  -39.94127517025381
30
  -5.380301181289231e-29
0
VERTEX
8
layer0
10
  16.181596006814388
20
  -39.48723988148763
30
  -5.319140224607633e-29
0
VERTEX
8
layer0
10
  16.117449659492344
20
  -39.00000000000001
30
  -5.25350643352899e-29
0
VERTEX
8
layer0
10
  16.181596006814388
20
  -38.51276011851238
30
  -5.187872642450345e-29
0
VERTEX
8
layer0
10
  16.36966358121732
20
  -38.05872482974618
30
  -5.126711685768745e-29
0
VERTEX
8
layer0
10
  16.668835888302
20
  -37.668835888302006
30
  -5.074191581608775e-29
0
VERTEX
8
layer0
10
  17.05872482974618
20
  -37.369663581217324
30
  -5.0338914882753625e-29
0
VERTEX
8
layer0
10
  17.512760118512354
20
  -37.18159600681438
30
  -5.0085577905301303e-29
0
VERTEX
8
layer0
10
  17.942649470037026
20
  -37.12499999999996
30
  -5.000934008840089e-29
0
VERTEX
8
layer0
10
  87.05735052996327
20
  -37.124999999999986
30
  -5.000934008840092e-29
0
VERTEX
8
layer0
10
  87.48723988148767
20
  -37.18159600681438
30
  -5.0085577905301303e-29
0
VERTEX
8
layer0
10
  87.94127517025382
20
  -37.369663581217324
30
  -5.0338914882753625e-29
0
VERTEX
8
layer0
10
  88.331164111698
20
  -37.668835888302006
30
  -5.074191581608775e-29
0
VERTEX
8
layer0
10
  88.63033641878268
20
  -38.05872482974614
30
  -5.126711685768738e-29
0
VERTEX
8
layer0
10
  88.81840399318563
20
  -38.51276011851238
30
  -5.187872642450345e-29
0
VERTEX
8
layer0
10
  88.88255034050766
20
  -39.00000000000001
30
  -5.25350643352899e-29
0
VERTEX
8
layer0
10
  88.81840399318563
20
  -39.48723988148763
30
  -5.319140224607633e-29
0
VERTEX
8
layer0
10
  88.63033641878268
20
  -39.94127517025383
30
  -5.380301181289234e-29
0
VERTEX
8
layer0
10
  88.331164111698
20
  -40.33116411169799
30
  -5.432821285449199e-29
0
VERTEX
8
layer0
10
  87.94127517025382
20
  -40.63033641878266
30
  -5.473121378782613e-29
 0
SEQEND
 0
ARC
8
layer0
66
1
10
  85.2
20
  -25.00000000000001
30
  -3.36763232918525e-29
40
  1.7999999999999967
50
  -89.97666379572334
51
  90.0
 0
POLYLINE
8
layer0
66
1
70
8
10
  0.0
20
  0.0
30
  0.0
  0
VERTEX
8
layer0
10
  19.799999999999997
20
  -26.800000000000008
30
  -3.610101856886588e-29
0
VERTEX
8
layer0
10
  85.2
20
  -26.800000000000008
30
  -3.610101856886588e-29
 0
SEQEND
 0
ARC
8
layer0
66
1
10
  19.799999999999997
20
  -25.00000000000001
30
  -3.36763232918525e-29
40
  1.7999999999999967
50
  90.0
51
  269.9766637957233
 0
POLYLINE
8
layer0
66
1
70
8
10
  0.0
20
  0.0
30
  0.0
  0
VERTEX
8
layer0
10
  85.2
20
  -23.200000000000014
30
  -3.1251628014839126e-29
0
VERTEX
8
layer0
10
  19.799999999999997
20
  -23.200000000000014
30
  -3.1251628014839126e-29
 0
SEQEND
 0
ARC
8
layer0
66
1
10
  85.2
20
  -25.00000000000001
30
  -3.36763232918525e-29
40
  1.7999999999999967
50
  -89.97666379572334
51
  90.0
 0
CIRCLE
8
layer0
66
1
10
  7.499999999999997
20
  -7.499999999999997
30
  -1.0102896987555742e-29
40
  1.6000000000000023
 0
POLYLINE
8
layer0
66
1
70
8
10
  0.0
20
  0.0
30
  0.0
  0
VERTEX
8
layer0
10
  87.48723988148762
20
  -9.181596006814388
30
  -1.2368095818426526e-29
0
VERTEX
8
layer0
10
  87.9412751702538
20
  -9.369663581217312
30
  -1.262143279587882e-29
0
VERTEX
8
layer0
10
  88.33116411169804
20
  -9.668835888302036
30
  -1.3024433729213004e-29
0
VERTEX
8
layer0
10
  88.63033641878266
20
  -10.058724829746158
30
  -1.3549634770812618e-29
0
VERTEX
8
layer0
10
  88.8184039931856
20
  -10.512760118512366
30
  -1.4161244337628638e-29
0
VERTEX
8
layer0
10
  88.88255034050765
20
  -10.999999999999991
30
  -1.4817582248415083e-29
0
VERTEX
8
layer0
10
  88.8184039931856
20
  -11.487239881487616
30
  -1.5473920159201528e-29
0
VERTEX
8
layer0
10
  88.63033641878266
20
  -11.941275170253835
30
  -1.608552972601756e-29
0
VERTEX
8
layer0
10
  88.33116411169804
20
  -12.331164111697946
30
  -1.6610730767617162e-29
0
VERTEX
8
layer0
10
  87.9412751702538
20
  -12.63033641878267
30
  -1.7013731700951344e-29
0
VERTEX
8
layer0
10
  87.48723988148764
20
  -12.818403993185594
30
  -1.7267068678403638e-29
0
VERTEX
8
layer0
10
  87.057350529963
20
  -12.875000000000027
30
  -1.7343306495304066e-29
0
VERTEX
8
layer0
10
  17.94264947003673
20
  -12.874999999999993
30
  -1.7343306495304021e-29
0
VERTEX
8
layer0
10
  17.512760118512375
20
  -12.818403993185594
30
  -1.7267068678403638e-29
0
VERTEX
8
layer0
10
  17.058724829746144
20
  -12.630336418782615
30
  -1.7013731700951266e-29
0
VERTEX
8
layer0
10
  16.668835888301988
20
  -12.331164111697992
30
  -1.6610730767617223e-29
0
VERTEX
8
layer0
10
  16.369663581217356
20
  -11.941275170253835
30
  -1.608552972601756e-29
0
VERTEX
8
layer0
10
  16.181596006814388
20
  -11.487239881487582
30
  -1.5473920159201483e-29
0
VERTEX
8
layer0
10
  16.117449659492358
20
  -11.000000000000036
30
  -1.4817582248415144e-29
0
VERTEX
8
layer0
10
  16.181596006814388
20
  -10.512760118512379
30
  -1.4161244337628652e-29
0
VERTEX
8
layer0
10
  16.369663581217356
20
  -10.058724829746158
30
  -1.3549634770812618e-29
0
VERTEX
8
layer0
10
  16.668835888301988
20
  -9.66883588830199
30
  -1.3024433729212942e-29
0
VERTEX
8
layer0
10
  17.05872482974618
20
  -9.369663581217333
30
  -1.2621432795878852e-29
0
VERTEX
8
layer0
10
  17.512760118512364
20
  -9.181596006814388
30
  -1.2368095818426526e-29
0
VERTEX
8
layer0
10
  17.942649470036933
20
  -9.124999999999943
30
  -1.2291858001526082e-29
0
VERTEX
8
layer0
10
  87.05735052996336
20
  -9.12499999999999
30
  -1.2291858001526143e-29
0
VERTEX
8
layer0
10
  87.48723988148762
20
  -9.181596006814388
30
  -1.2368095818426526e-29
 0
SEQEND
 0
CIRCLE
8
layer0
66
1
10
  7.499999999999997
20
  -42.5
30
  -5.724974959614923e-29
40
  1.599999999999997
 0
CIRCLE
8
layer0
66
1
10
  97.5
20
  -42.5
30
  -5.724974959614923e-29
40
  1.599999999999997
 0
CIRCLE
8
layer0
66
1
10
  97.5
20
  -7.499999999999997
30
  -1.0102896987555742e-29
40
  1.6000000000000028
 0
ARC
8
layer0
66
1
10
  103.00000000000001
20
  -48.000000000000014
30
  -4.999999999999991
40
  1.9999999999999962
50
  0.011668102138330028
51
  90.0
 0
POLYLINE
8
layer0
66
1
70
8
10
  0.0
20
  0.0
30
  0.0
  0
VERTEX
8
layer0
10
  1.9999999999999962
20
  -50.00000000000001
30
  -4.999999999999991
0
VERTEX
8
layer0
10
  103.00000000000001
20
  -50.00000000000001
30
  -4.999999999999991
 0
SEQEND
 0
ARC
8
layer0
66
1
10
  1.9999999999999962
20
  -48.000000000000014
30
  -4.999999999999991
40
  1.9999999999999962
50
  -89.97666379572334
51
  0.011668102138330028
 0
POLYLINE
8
layer0
66
1
70
8
10
  0.0
20
  0.0
30
  0.0
  0
VERTEX
8
layer0
10
  2.6308524157656603e-31
20
  -2.0000000000000075
30
  -4.999999999999991
0
VERTEX
8
layer0
10
  6.314045797837562e-30
20
  -48.000000000000014
30
  -4.999999999999991
 0
SEQEND
 0
ARC
8
layer0
66
1
10
  1.9999999999999962
20
  -2.0000000000000075
30
  -4.999999999999991
40
  1.9999999999999962
50
  179.98833189786166
51
  269.9766637957233
 0
POLYLINE
8
layer0
66
1
70
8
10
  0.0
20
  0.0
30
  0.0
  0
VERTEX
8
layer0
10
  103.00000000000001
20
  2.0284154599563583e-29
30
  -4.999999999999991
0
VERTEX
8
layer0
10
  1.9999999999999962
20
  6.998349899947048e-30
30
  -4.999999999999991
 0
SEQEND
 0
ARC
8
layer0
66
1
10
  103.00000000000001
20
  -2.0000000000000075
30
  -4.999999999999991
40
  1.9999999999999962
50
  0.011668102138330028
51
  90.0
 0
POLYLINE
8
layer0
66
1
70
8
10
  0.0
20
  0.0
30
  0.0
  0
VERTEX
8
layer0
10
  105.00000000000001
20
  -48.000000000000014
30
  -4.999999999999991
0
VERTEX
8
layer0
10
  105.00000000000001
20
  -2.0000000000000075
30
  -4.999999999999991
 0
SEQEND
 0
ARC
8
layer0
66
1
10
  103.00000000000001
20
  -48.000000000000014
30
  -4.999999999999991
40
  1.9999999999999962
50
  0.011668102138330028
51
  90.0
 0
ARC
8
layer0
66
1
10
  17.99999999999999
20
  -10.999999999999991
30
  -4.999999999999991
40
  0.9999999999999981
50
  -89.97666379572334
51
  90.0
 0
POLYLINE
8
layer0
66
1
70
8
10
  0.0
20
  0.0
30
  0.0
  0
VERTEX
8
layer0
10
  87.00000000000001
20
  -11.99999999999999
30
  -4.999999999999991
0
VERTEX
8
layer0
10
  17.99999999999999
20
  -11.99999999999999
30
  -4.999999999999991
 0
SEQEND
 0
ARC
8
layer0
66
1
10
  87.00000000000001
20
  -10.999999999999991
30
  -4.999999999999991
40
  1.0000000000000038
50
  90.0
51
  269.9766637957233
 0
POLYLINE
8
layer0
66
1
70
8
10
  0.0
20
  0.0
30
  0.0
  0
VERTEX
8
layer0
10
  87.00000000000001
20
  -9.999999999999993
30
  -4.999999999999991
0
VERTEX
8
layer0
10
  17.99999999999999
20
  -9.999999999999993
30
  -4.999999999999991
 0
SEQEND
 0
ARC
8
layer0
66
1
10
  17.99999999999999
20
  -10.999999999999991
30
  -4.999999999999991
40
  0.9999999999999981
50
  -89.97666379572334
51
  90.0
 0
CIRCLE
8
layer0
66
1
10
  97.5
20
  -7.499999999999997
30
  -4.999999999999991
40
  1.6000000000000028
 0
ARC
8
layer0
66
1
10
  19.799999999999997
20
  -25.00000000000001
30
  -4.999999999999991
40
  1.7999999999999967
50
  90.0
51
  269.9766637957233
 0
POLYLINE
8
layer0
66
1
70
8
10
  0.0
20
  0.0
30
  0.0
  0
VERTEX
8
layer0
10
  19.799999999999997
20
  -26.800000000000008
30
  -4.999999999999991
0
VERTEX
8
layer0
10
  85.2
20
  -26.800000000000008
30
  -4.999999999999991
 0
SEQEND
 0
ARC
8
layer0
66
1
10
  85.2
20
  -25.00000000000001
30
  -4.999999999999991
40
  1.7999999999999967
50
  -89.97666379572334
51
  90.0
 0
POLYLINE
8
layer0
66
1
70
8
10
  0.0
20
  0.0
30
  0.0
  0
VERTEX
8
layer0
10
  85.2
20
  -23.200000000000014
30
  -4.999999999999991
0
VERTEX
8
layer0
10
  19.799999999999997
20
  -23.200000000000014
30
  -4.999999999999991
 0
SEQEND
 0
ARC
8
layer0
66
1
10
  19.799999999999997
20
  -25.00000000000001
30
  -4.999999999999991
40
  1.7999999999999967
50
  90.0
51
  269.9766637957233
 0
ARC
8
layer0
66
1
10
  17.99999999999999
20
  -39.00000000000001
30
  -4.999999999999991
40
  1.000000000000009
50
  -89.97666379572334
51
  90.0
 0
POLYLINE
8
layer0
66
1
70
8
10
  0.0
20
  0.0
30
  0.0
  0
VERTEX
8
layer0
10
  17.99999999999999
20
  -40.00000000000001
30
  -4.999999999999991
0
VERTEX
8
layer0
10
  87.00000000000001
20
  -40.00000000000001
30
  -4.999999999999991
 0
SEQEND
 0
ARC
8
layer0
66
1
10
  87.00000000000001
20
  -39.00000000000001
30
  -4.999999999999991
40
  1.000000000000009
50
  -89.97666379572334
51
  90.0
 0
POLYLINE
8
layer0
66
1
70
8
10
  0.0
20
  0.0
30
  0.0
  0
VERTEX
8
layer0
10
  17.99999999999999
20
  -38.00000000000001
30
  -4.999999999999991
0
VERTEX
8
layer0
10
  87.00000000000001
20
  -38.00000000000001
30
  -4.999999999999991
 0
SEQEND
 0
ARC
8
layer0
66
1
10
  17.99999999999999
20
  -39.00000000000001
30
  -4.999999999999991
40
  1.000000000000009
50
  -89.97666379572334
51
  90.0
 0
CIRCLE
8
layer0
66
1
10
  97.5
20
  -42.5
30
  -4.999999999999991
40
  1.599999999999997
 0
CIRCLE
8
layer0
66
1
10
  7.499999999999997
20
  -42.5
30
  -4.999999999999991
40
  1.599999999999997
 0
CIRCLE
8
layer0
66
1
10
  7.499999999999997
20
  -7.499999999999997
30
  -4.999999999999991
40
  1.6000000000000028
 0
ENDSEC
 0
EOF
