 0
SECTION
 2
HEADER
 9
$MEASUREMENT
 70
 2
 0
ENDSEC
 0
SECTION
 2
ENTITIES
 0
POLYLINE
8
layer0
66
1
70
8
10
  0.000
20
  0.000
30
  0.000
  0
VERTEX
8
layer0
10
  0.000
20
  -1.000
30
  -3.000
  0
VERTEX
8
layer0
10
  -65.000
20
  -1.000
30
  -3.000
 0
SEQEND
 0
POLYLINE
8
layer0
66
1
70
8
10
  0.000
20
  0.000
30
  0.000
  0
VERTEX
8
layer0
10
  -65.000
20
  -1.000
30
  -3.000
  0
VERTEX
8
layer0
10
  -76.000
20
  10.000
30
  -3.000
 0
SEQEND
 0
POLYLINE
8
layer0
66
1
70
8
10
  0.000
20
  0.000
30
  0.000
  0
VERTEX
8
layer0
10
  -76.000
20
  10.000
30
  -3.000
  0
VERTEX
8
layer0
10
  -76.000
20
  65.000
30
  -3.000
 0
SEQEND
 0
POLYLINE
8
layer0
66
1
70
8
10
  0.000
20
  0.000
30
  0.000
  0
VERTEX
8
layer0
10
  -76.000
20
  65.000
30
  -3.000
  0
VERTEX
8
layer0
10
  -65.000
20
  76.000
30
  -3.000
 0
SEQEND
 0
POLYLINE
8
layer0
66
1
70
8
10
  0.000
20
  0.000
30
  0.000
  0
VERTEX
8
layer0
10
  -65.000
20
  76.000
30
  -3.000
  0
VERTEX
8
layer0
10
  -0.000
20
  76.000
30
  -3.000
 0
SEQEND
 0
POLYLINE
8
layer0
66
1
70
8
10
  0.000
20
  0.000
30
  0.000
  0
VERTEX
8
layer0
10
  -0.000
20
  76.000
30
  -3.000
  0
VERTEX
8
layer0
10
  0.000
20
  -1.000
30
  -3.000
 0
SEQEND
 0
CIRCLE
8
layer0
66
1
10
  -37.500
20
  5.000
30
  -3.000
40
  1.600
 0
CIRCLE
8
layer0
66
1
10
  -70.000
20
  22.500
30
  -3.000
40
  1.600
 0
CIRCLE
8
layer0
66
1
10
  -70.000
20
  52.500
30
  -3.000
40
  1.600
 0
CIRCLE
8
layer0
66
1
10
  -22.500
20
  5.000
30
  -3.000
40
  1.600
 0
CIRCLE
8
layer0
66
1
10
  -52.500
20
  5.000
30
  -3.000
40
  1.600
 0
CIRCLE
8
layer0
66
1
10
  -52.500
20
  70.000
30
  -3.000
40
  1.600
 0
CIRCLE
8
layer0
66
1
10
  -37.500
20
  70.000
30
  -3.000
40
  1.600
 0
CIRCLE
8
layer0
66
1
10
  -22.500
20
  70.000
30
  -3.000
40
  1.600
 0
CIRCLE
8
layer0
66
1
10
  -70.000
20
  37.500
30
  -3.000
40
  1.600
 0
CIRCLE
8
layer0
66
1
10
  -17.078
20
  45.249
30
  -3.000
40
  1.600
 0
CIRCLE
8
layer0
66
1
10
  -30.500
20
  52.998
30
  -3.000
40
  1.600
 0
CIRCLE
8
layer0
66
1
10
  -43.923
20
  29.750
30
  -3.000
40
  1.600
 0
CIRCLE
8
layer0
66
1
10
  -43.923
20
  45.250
30
  -3.000
40
  1.600
 0
CIRCLE
8
layer0
66
1
10
  -30.500
20
  22.002
30
  -3.000
40
  1.600
 0
CIRCLE
8
layer0
66
1
10
  -17.078
20
  29.751
30
  -3.000
40
  1.600
 0
CIRCLE
8
layer0
66
1
10
  -37.500
20
  37.500
30
  -3.000
40
  6.100
 0
POLYLINE
8
layer0
66
1
70
8
10
  0.000
20
  0.000
30
  0.000
  0
VERTEX
8
layer0
10
  -76.000
20
  10.000
30
  -0.000
  0
VERTEX
8
layer0
10
  -65.000
20
  -1.000
30
  -0.000
 0
SEQEND
 0
POLYLINE
8
layer0
66
1
70
8
10
  0.000
20
  0.000
30
  0.000
  0
VERTEX
8
layer0
10
  -65.000
20
  -1.000
30
  -0.000
  0
VERTEX
8
layer0
10
  -0.000
20
  -1.000
30
  0.000
 0
SEQEND
 0
POLYLINE
8
layer0
66
1
70
8
10
  0.000
20
  0.000
30
  0.000
  0
VERTEX
8
layer0
10
  -0.000
20
  -1.000
30
  0.000
  0
VERTEX
8
layer0
10
  -0.000
20
  76.000
30
  -0.000
 0
SEQEND
 0
POLYLINE
8
layer0
66
1
70
8
10
  0.000
20
  0.000
30
  0.000
  0
VERTEX
8
layer0
10
  -0.000
20
  76.000
30
  -0.000
  0
VERTEX
8
layer0
10
  -65.000
20
  76.000
30
  -0.000
 0
SEQEND
 0
POLYLINE
8
layer0
66
1
70
8
10
  0.000
20
  0.000
30
  0.000
  0
VERTEX
8
layer0
10
  -65.000
20
  76.000
30
  -0.000
  0
VERTEX
8
layer0
10
  -76.000
20
  65.000
30
  -0.000
 0
SEQEND
 0
POLYLINE
8
layer0
66
1
70
8
10
  0.000
20
  0.000
30
  0.000
  0
VERTEX
8
layer0
10
  -76.000
20
  65.000
30
  -0.000
  0
VERTEX
8
layer0
10
  -76.000
20
  10.000
30
  -0.000
 0
SEQEND
 0
CIRCLE
8
layer0
66
1
10
  -70.000
20
  22.500
30
  -0.000
40
  1.600
 0
CIRCLE
8
layer0
66
1
10
  -37.500
20
  70.000
30
  -0.000
40
  1.600
 0
CIRCLE
8
layer0
66
1
10
  -52.500
20
  70.000
30
  -0.000
40
  1.600
 0
CIRCLE
8
layer0
66
1
10
  -70.000
20
  52.500
30
  -0.000
40
  1.600
 0
CIRCLE
8
layer0
66
1
10
  -70.000
20
  37.500
30
  -0.000
40
  1.600
 0
CIRCLE
8
layer0
66
1
10
  -22.500
20
  5.000
30
  -0.000
40
  1.600
 0
CIRCLE
8
layer0
66
1
10
  -22.500
20
  70.000
30
  -0.000
40
  1.600
 0
CIRCLE
8
layer0
66
1
10
  -37.500
20
  5.000
30
  -0.000
40
  1.600
 0
CIRCLE
8
layer0
66
1
10
  -52.500
20
  5.000
30
  -0.000
40
  1.600
 0
CIRCLE
8
layer0
66
1
10
  -37.500
20
  37.500
30
  -0.000
40
  6.100
 0
CIRCLE
8
layer0
66
1
10
  -43.923
20
  45.250
30
  -0.000
40
  1.600
 0
CIRCLE
8
layer0
66
1
10
  -30.500
20
  52.998
30
  -0.000
40
  1.600
 0
CIRCLE
8
layer0
66
1
10
  -17.078
20
  45.249
30
  -0.000
40
  1.600
 0
CIRCLE
8
layer0
66
1
10
  -17.078
20
  29.751
30
  -0.000
40
  1.600
 0
CIRCLE
8
layer0
66
1
10
  -30.500
20
  22.002
30
  -0.000
40
  1.600
 0
CIRCLE
8
layer0
66
1
10
  -43.923
20
  29.750
30
  -0.000
40
  1.600
 0
ENDSEC
 0
EOF
