 0
SECTION
 2
HEADER
 9
$MEASUREMENT
 70
 2
 0
ENDSEC
 0
SECTION
 2
ENTITIES
 0
POLYLINE
8
layer0
66
1
70
8
10
  0.0
20
  0.0
30
  0.0
  0
VERTEX
8
layer0
10
  64.916
20
  27.500
30
  3.509
0
VERTEX
8
layer0
10
  64.916
20
  12.500
30
  3.509
0
VERTEX
8
layer0
10
  39.916
20
  12.500
30
  3.509
0
VERTEX
8
layer0
10
  39.916
20
  27.500
30
  3.509
0
VERTEX
8
layer0
10
  64.916
20
  27.500
30
  3.509
 0
SEQEND
 0
CIRCLE
8
layer0
66
1
10
  57.416
20
  20.000
30
  3.509
40
  1.5999999999999974
 0
CIRCLE
8
layer0
66
1
10
  42.416
20
  20.000
30
  3.509
40
  1.5999999999999956
 0
POLYLINE
8
layer0
66
1
70
8
10
  0.0
20
  0.0
30
  0.0
  0
VERTEX
8
layer0
10
  52.416
20
  40.000
30
  0.509
0
VERTEX
8
layer0
10
  64.916
20
  27.500
30
  0.509
0
VERTEX
8
layer0
10
  39.916
20
  27.500
30
  0.509
0
VERTEX
8
layer0
10
  39.916
20
  12.500
30
  0.509
0
VERTEX
8
layer0
10
  64.916
20
  12.500
30
  0.509
0
VERTEX
8
layer0
10
  52.416
20
  0.000
30
  0.509
0
VERTEX
8
layer0
10
  1.416
20
  0.000
30
  0.509
 0
SEQEND
 0
ARC
8
layer0
66
1
10
  1.416
20
  4.000
30
  0.509
40
  4.0
50
  90.000
51
  180.000
 0
POLYLINE
8
layer0
66
1
70
8
10
  0.0
20
  0.0
30
  0.0
  0
VERTEX
8
layer0
10
  -2.584
20
  4.000
30
  0.509
0
VERTEX
8
layer0
10
  -2.584
20
  16.900
30
  0.509
 0
SEQEND
 0
ARC
8
layer0
66
1
10
  -4.184
20
  16.900
30
  0.509
40
  1.6000000000000005
50
  -0.000
51
  90.000
 0
POLYLINE
8
layer0
66
1
70
8
10
  0.0
20
  0.0
30
  0.0
  0
VERTEX
8
layer0
10
  -4.184
20
  18.500
30
  0.509
0
VERTEX
8
layer0
10
  -7.584
20
  18.500
30
  0.509
 0
SEQEND
 0
ARC
8
layer0
66
1
10
  -7.584
20
  19.500
30
  0.509
40
  0.9999999999999989
50
  -90.000
51
  -0.000
 0
POLYLINE
8
layer0
66
1
70
8
10
  0.0
20
  0.0
30
  0.0
  0
VERTEX
8
layer0
10
  -8.584
20
  19.500
30
  0.509
0
VERTEX
8
layer0
10
  -8.584
20
  20.500
30
  0.509
 0
SEQEND
 0
ARC
8
layer0
66
1
10
  -7.584
20
  20.500
30
  0.509
40
  0.9999999999999989
50
  -0.000
51
  90.000
 0
POLYLINE
8
layer0
66
1
70
8
10
  0.0
20
  0.0
30
  0.0
  0
VERTEX
8
layer0
10
  -7.584
20
  21.500
30
  0.509
0
VERTEX
8
layer0
10
  -4.184
20
  21.500
30
  0.509
 0
SEQEND
 0
ARC
8
layer0
66
1
10
  -4.184
20
  23.100
30
  0.509
40
  1.6000000000000005
50
  -90.000
51
  -0.000
 0
POLYLINE
8
layer0
66
1
70
8
10
  0.0
20
  0.0
30
  0.0
  0
VERTEX
8
layer0
10
  -2.584
20
  23.100
30
  0.509
0
VERTEX
8
layer0
10
  -2.584
20
  36.000
30
  0.509
 0
SEQEND
 0
ARC
8
layer0
66
1
10
  1.416
20
  36.000
30
  0.509
40
  3.9999999999999956
50
  -0.000
51
  90.000
 0
POLYLINE
8
layer0
66
1
70
8
10
  0.0
20
  0.0
30
  0.0
  0
VERTEX
8
layer0
10
  1.416
20
  40.000
30
  0.509
0
VERTEX
8
layer0
10
  52.416
20
  40.000
30
  0.509
 0
SEQEND
 0
CIRCLE
8
layer0
66
1
10
  19.916
20
  20.000
30
  0.509
40
  5.000000000000009
 0
CIRCLE
8
layer0
66
1
10
  4.916
20
  32.500
30
  0.509
40
  1.5999999999999939
 0
CIRCLE
8
layer0
66
1
10
  4.916
20
  7.500
30
  0.509
40
  1.5999999999999979
 0
CIRCLE
8
layer0
66
1
10
  49.916
20
  32.500
30
  0.509
40
  1.5999999999999974
 0
CIRCLE
8
layer0
66
1
10
  49.916
20
  7.500
30
  0.509
40
  1.5999999999999974
 0
CIRCLE
8
layer0
66
1
10
  34.916
20
  32.500
30
  0.509
40
  1.599999999999997
 0
CIRCLE
8
layer0
66
1
10
  19.916
20
  32.500
30
  0.509
40
  1.5999999999999974
 0
CIRCLE
8
layer0
66
1
10
  34.916
20
  7.500
30
  0.509
40
  1.599999999999996
 0
CIRCLE
8
layer0
66
1
10
  19.916
20
  7.500
30
  0.509
40
  1.599999999999998
 0
POLYLINE
8
layer0
66
1
70
8
10
  0.0
20
  0.0
30
  0.0
  0
VERTEX
8
layer0
10
  -4.184
20
  21.500
30
  6.509
0
VERTEX
8
layer0
10
  -7.584
20
  21.500
30
  6.509
 0
SEQEND
 0
ARC
8
layer0
66
1
10
  -7.584
20
  20.500
30
  6.509
40
  0.9999999999999989
50
  90.000
51
  180.000
 0
POLYLINE
8
layer0
66
1
70
8
10
  0.0
20
  0.0
30
  0.0
  0
VERTEX
8
layer0
10
  -8.584
20
  20.500
30
  6.509
0
VERTEX
8
layer0
10
  -8.584
20
  19.500
30
  6.509
 0
SEQEND
 0
ARC
8
layer0
66
1
10
  -7.584
20
  19.500
30
  6.509
40
  0.9999999999999989
50
  -90.000
51
  -0.000
 0
POLYLINE
8
layer0
66
1
70
8
10
  0.0
20
  0.0
30
  0.0
  0
VERTEX
8
layer0
10
  -7.584
20
  18.500
30
  6.509
0
VERTEX
8
layer0
10
  -4.184
20
  18.500
30
  6.509
 0
SEQEND
 0
ARC
8
layer0
66
1
10
  -4.184
20
  16.900
30
  6.509
40
  1.600000000000001
50
  -0.000
51
  90.000
 0
POLYLINE
8
layer0
66
1
70
8
10
  0.0
20
  0.0
30
  0.0
  0
VERTEX
8
layer0
10
  -2.584
20
  16.900
30
  6.509
0
VERTEX
8
layer0
10
  -2.584
20
  4.000
30
  6.509
 0
SEQEND
 0
ARC
8
layer0
66
1
10
  1.416
20
  4.000
30
  6.509
40
  3.9999999999999933
50
  180.000
51
  270.000
 0
POLYLINE
8
layer0
66
1
70
8
10
  0.0
20
  0.0
30
  0.0
  0
VERTEX
8
layer0
10
  1.416
20
  0.000
30
  6.509
0
VERTEX
8
layer0
10
  52.416
20
  0.000
30
  6.509
0
VERTEX
8
layer0
10
  64.916
20
  12.500
30
  6.509
0
VERTEX
8
layer0
10
  64.916
20
  27.500
30
  6.509
0
VERTEX
8
layer0
10
  52.416
20
  40.000
30
  6.509
0
VERTEX
8
layer0
10
  1.416
20
  40.000
30
  6.509
 0
SEQEND
 0
ARC
8
layer0
66
1
10
  1.416
20
  36.000
30
  6.509
40
  3.9999999999999956
50
  90.000
51
  180.000
 0
POLYLINE
8
layer0
66
1
70
8
10
  0.0
20
  0.0
30
  0.0
  0
VERTEX
8
layer0
10
  -2.584
20
  36.000
30
  6.509
0
VERTEX
8
layer0
10
  -2.584
20
  23.100
30
  6.509
 0
SEQEND
 0
ARC
8
layer0
66
1
10
  -4.184
20
  23.100
30
  6.509
40
  1.6000000000000005
50
  -90.000
51
  -0.000
 0
CIRCLE
8
layer0
66
1
10
  19.916
20
  7.500
30
  6.509
40
  1.599999999999998
 0
CIRCLE
8
layer0
66
1
10
  34.916
20
  7.500
30
  6.509
40
  1.5999999999999925
 0
CIRCLE
8
layer0
66
1
10
  19.916
20
  32.500
30
  6.509
40
  1.5999999999999974
 0
CIRCLE
8
layer0
66
1
10
  34.916
20
  32.500
30
  6.509
40
  1.599999999999996
 0
CIRCLE
8
layer0
66
1
10
  49.916
20
  7.500
30
  6.509
40
  1.5999999999999974
 0
CIRCLE
8
layer0
66
1
10
  49.916
20
  32.500
30
  6.509
40
  1.5999999999999985
 0
CIRCLE
8
layer0
66
1
10
  4.916
20
  7.500
30
  6.509
40
  1.5999999999999943
 0
CIRCLE
8
layer0
66
1
10
  4.916
20
  32.500
30
  6.509
40
  1.5999999999999979
 0
CIRCLE
8
layer0
66
1
10
  57.416
20
  20.000
30
  6.509
40
  1.5999999999999974
 0
CIRCLE
8
layer0
66
1
10
  42.416
20
  20.000
30
  6.509
40
  1.5999999999999968
 0
CIRCLE
8
layer0
66
1
10
  19.916
20
  20.000
30
  6.509
40
  4.999999999999997
 0
ENDSEC
 0
EOF
