 0
SECTION
 2
HEADER
 9
$MEASUREMENT
 70
 2
 0
ENDSEC
 0
SECTION
 2
ENTITIES
 0
POLYLINE
8
layer0
66
1
70
8
10
  0.0
20
  0.0
30
  0.0
  0
VERTEX
8
layer0
10
  -1.009
20
  156.607
30
  3.018
0
VERTEX
8
layer0
10
  -5.509
20
  156.607
30
  3.018
0
VERTEX
8
layer0
10
  -5.509
20
  -53.416
30
  3.017
0
VERTEX
8
layer0
10
  -1.009
20
  -53.416
30
  3.017
0
VERTEX
8
layer0
10
  -1.009
20
  -59.416
30
  3.017
0
VERTEX
8
layer0
10
  58.991
20
  -59.416
30
  3.017
0
VERTEX
8
layer0
10
  58.991
20
  -53.416
30
  3.017
0
VERTEX
8
layer0
10
  63.491
20
  -53.416
30
  3.017
0
VERTEX
8
layer0
10
  63.491
20
  156.607
30
  3.018
0
VERTEX
8
layer0
10
  58.991
20
  156.607
30
  3.018
0
VERTEX
8
layer0
10
  58.991
20
  162.607
30
  3.019
0
VERTEX
8
layer0
10
  -1.009
20
  162.607
30
  3.019
0
VERTEX
8
layer0
10
  -1.009
20
  156.607
30
  3.018
 0
SEQEND
 0
CIRCLE
8
layer0
66
1
10
  29.000
20
  -29.000
30
  3.019
40
  28.999999999938836
 0
CIRCLE
8
layer0
66
1
10
  29.000
20
  132.500
30
  3.018
40
  28.999999999938836
 0
CIRCLE
8
layer0
66
1
10
  54.000
20
  107.500
30
  3.018
40
  2.099999999999996
 0
CIRCLE
8
layer0
66
1
10
  4.000
20
  107.500
30
  3.018
40
  2.099999999999996
 0
CIRCLE
8
layer0
66
1
10
  4.000
20
  157.500
30
  3.018
40
  2.099999999999996
 0
CIRCLE
8
layer0
66
1
10
  54.000
20
  157.500
30
  3.018
40
  2.099999999999996
 0
CIRCLE
8
layer0
66
1
10
  4.000
20
  -54.000
30
  3.018
40
  2.099999999999996
 0
CIRCLE
8
layer0
66
1
10
  54.000
20
  -54.000
30
  3.018
40
  2.099999999999996
 0
CIRCLE
8
layer0
66
1
10
  4.000
20
  -4.000
30
  3.018
40
  2.099999999999996
 0
CIRCLE
8
layer0
66
1
10
  54.000
20
  -4.000
30
  3.018
40
  2.0999999999999965
 0
POLYLINE
8
layer0
66
1
70
8
10
  0.0
20
  0.0
30
  0.0
  0
VERTEX
8
layer0
10
  -5.509
20
  156.607
30
  0.018
0
VERTEX
8
layer0
10
  -1.009
20
  156.607
30
  0.018
0
VERTEX
8
layer0
10
  -1.009
20
  162.607
30
  0.019
0
VERTEX
8
layer0
10
  58.991
20
  162.607
30
  0.019
0
VERTEX
8
layer0
10
  58.991
20
  156.607
30
  0.018
0
VERTEX
8
layer0
10
  63.491
20
  156.607
30
  0.018
0
VERTEX
8
layer0
10
  63.491
20
  -53.416
30
  0.017
0
VERTEX
8
layer0
10
  58.991
20
  -53.416
30
  0.017
0
VERTEX
8
layer0
10
  58.991
20
  -59.416
30
  0.017
0
VERTEX
8
layer0
10
  -1.009
20
  -59.416
30
  0.017
0
VERTEX
8
layer0
10
  -1.009
20
  -53.416
30
  0.017
0
VERTEX
8
layer0
10
  -5.509
20
  -53.416
30
  0.017
0
VERTEX
8
layer0
10
  -5.509
20
  156.607
30
  0.018
 0
SEQEND
 0
CIRCLE
8
layer0
66
1
10
  29.000
20
  -29.000
30
  0.019
40
  28.999999999938833
 0
CIRCLE
8
layer0
66
1
10
  29.000
20
  132.500
30
  0.018
40
  28.999999999938836
 0
CIRCLE
8
layer0
66
1
10
  54.000
20
  107.500
30
  0.018
40
  2.099999999999996
 0
CIRCLE
8
layer0
66
1
10
  4.000
20
  107.500
30
  0.018
40
  2.099999999999996
 0
CIRCLE
8
layer0
66
1
10
  4.000
20
  157.500
30
  0.018
40
  2.099999999999996
 0
CIRCLE
8
layer0
66
1
10
  54.000
20
  157.500
30
  0.018
40
  2.099999999999996
 0
CIRCLE
8
layer0
66
1
10
  4.000
20
  -54.000
30
  0.018
40
  2.099999999999996
 0
CIRCLE
8
layer0
66
1
10
  54.000
20
  -54.000
30
  0.018
40
  2.099999999999996
 0
CIRCLE
8
layer0
66
1
10
  4.000
20
  -4.000
30
  0.018
40
  2.099999999999996
 0
CIRCLE
8
layer0
66
1
10
  54.000
20
  -4.000
30
  0.018
40
  2.0999999999999965
 0
ENDSEC
 0
EOF
