 0
SECTION
 2
HEADER
 9
$MEASUREMENT
 70
 2
 0
ENDSEC
 0
SECTION
 2
ENTITIES
 0
CIRCLE
8
layer0
66
1
10
  -78.750
20
  232.500
30
  0.000
40
  1.5999999999999974
 0
CIRCLE
8
layer0
66
1
10
  -150.000
20
  232.500
30
  0.000
40
  1.5999999999999974
 0
CIRCLE
8
layer0
66
1
10
  -221.250
20
  232.500
30
  0.000
40
  1.5999999999999974
 0
POLYLINE
8
layer0
66
1
70
8
10
  0.0
20
  0.0
30
  0.0
  0
VERTEX
8
layer0
10
  3.000
20
  0.000
30
  -0.000
0
VERTEX
8
layer0
10
  -303.000
20
  0.000
30
  0.000
0
VERTEX
8
layer0
10
  -303.000
20
  240.000
30
  0.000
0
VERTEX
8
layer0
10
  3.000
20
  240.000
30
  -0.000
0
VERTEX
8
layer0
10
  3.000
20
  0.000
30
  -0.000
 0
SEQEND
 0
CIRCLE
8
layer0
66
1
10
  -7.500
20
  232.500
30
  -0.000
40
  1.5999999999999974
 0
CIRCLE
8
layer0
66
1
10
  -78.750
20
  232.500
30
  0.000
40
  1.5999999999999974
 0
CIRCLE
8
layer0
66
1
10
  -150.000
20
  232.500
30
  0.000
40
  1.5999999999999974
 0
CIRCLE
8
layer0
66
1
10
  -221.250
20
  232.500
30
  0.000
40
  1.5999999999999974
 0
CIRCLE
8
layer0
66
1
10
  -292.500
20
  232.500
30
  0.000
40
  1.5999999999999974
 0
CIRCLE
8
layer0
66
1
10
  -7.500
20
  7.500
30
  -0.000
40
  1.5999999999999974
 0
CIRCLE
8
layer0
66
1
10
  -78.750
20
  7.500
30
  -0.000
40
  1.5999999999999974
 0
CIRCLE
8
layer0
66
1
10
  -150.000
20
  7.500
30
  -0.000
40
  1.5999999999999974
 0
CIRCLE
8
layer0
66
1
10
  -221.250
20
  7.500
30
  0.000
40
  1.5999999999999974
 0
CIRCLE
8
layer0
66
1
10
  -292.500
20
  7.500
30
  0.000
40
  1.5999999999999974
 0
CIRCLE
8
layer0
66
1
10
  -7.500
20
  195.000
30
  -0.000
40
  1.5999999999999974
 0
CIRCLE
8
layer0
66
1
10
  -7.500
20
  157.500
30
  -0.000
40
  1.5999999999999974
 0
CIRCLE
8
layer0
66
1
10
  -7.500
20
  120.000
30
  -0.000
40
  1.5999999999999974
 0
CIRCLE
8
layer0
66
1
10
  -7.500
20
  82.500
30
  -0.000
40
  1.5999999999999974
 0
CIRCLE
8
layer0
66
1
10
  -7.500
20
  45.000
30
  -0.000
40
  1.5999999999999974
 0
CIRCLE
8
layer0
66
1
10
  -292.500
20
  195.000
30
  0.000
40
  1.5999999999999974
 0
CIRCLE
8
layer0
66
1
10
  -292.500
20
  157.500
30
  0.000
40
  1.5999999999999974
 0
CIRCLE
8
layer0
66
1
10
  -292.500
20
  120.000
30
  0.000
40
  1.5999999999999974
 0
CIRCLE
8
layer0
66
1
10
  -292.500
20
  82.500
30
  0.000
40
  1.5999999999999974
 0
CIRCLE
8
layer0
66
1
10
  -292.500
20
  45.000
30
  0.000
40
  1.5999999999999974
 0
POLYLINE
8
layer0
66
1
70
8
10
  0.0
20
  0.0
30
  0.0
  0
VERTEX
8
layer0
10
  -275.000
20
  20.000
30
  0.000
0
VERTEX
8
layer0
10
  -25.000
20
  20.000
30
  0.000
 0
SEQEND
 0
ARC
8
layer0
66
1
10
  -25.000
20
  25.000
30
  0.000
40
  4.999999999999991
50
  -90.000
51
  -0.000
 0
POLYLINE
8
layer0
66
1
70
8
10
  0.0
20
  0.0
30
  0.0
  0
VERTEX
8
layer0
10
  -20.000
20
  25.000
30
  0.000
0
VERTEX
8
layer0
10
  -20.000
20
  215.000
30
  -0.000
 0
SEQEND
 0
ARC
8
layer0
66
1
10
  -25.000
20
  215.000
30
  -0.000
40
  4.999999999999991
50
  -0.000
51
  90.000
 0
POLYLINE
8
layer0
66
1
70
8
10
  0.0
20
  0.0
30
  0.0
  0
VERTEX
8
layer0
10
  -25.000
20
  220.000
30
  -0.000
0
VERTEX
8
layer0
10
  -275.000
20
  220.000
30
  0.000
 0
SEQEND
 0
ARC
8
layer0
66
1
10
  -275.000
20
  215.000
30
  0.000
40
  4.999999999999998
50
  90.000
51
  180.000
 0
POLYLINE
8
layer0
66
1
70
8
10
  0.0
20
  0.0
30
  0.0
  0
VERTEX
8
layer0
10
  -280.000
20
  215.000
30
  0.000
0
VERTEX
8
layer0
10
  -280.000
20
  25.000
30
  0.000
 0
SEQEND
 0
ARC
8
layer0
66
1
10
  -275.000
20
  25.000
30
  0.000
40
  5.000000000000002
50
  180.000
51
  270.000
 0
POLYLINE
8
layer0
66
1
70
8
10
  0.0
20
  0.0
30
  0.0
  0
VERTEX
8
layer0
10
  -303.000
20
  -0.000
30
  3.000
0
VERTEX
8
layer0
10
  3.000
20
  -0.000
30
  3.000
0
VERTEX
8
layer0
10
  3.000
20
  240.000
30
  3.000
0
VERTEX
8
layer0
10
  -303.000
20
  240.000
30
  3.000
0
VERTEX
8
layer0
10
  -303.000
20
  -0.000
30
  3.000
 0
SEQEND
 0
CIRCLE
8
layer0
66
1
10
  -7.500
20
  232.500
30
  3.000
40
  1.5999999999999974
 0
CIRCLE
8
layer0
66
1
10
  -78.750
20
  232.500
30
  3.000
40
  1.5999999999999974
 0
CIRCLE
8
layer0
66
1
10
  -150.000
20
  232.500
30
  3.000
40
  1.5999999999999974
 0
CIRCLE
8
layer0
66
1
10
  -221.250
20
  232.500
30
  3.000
40
  1.5999999999999974
 0
CIRCLE
8
layer0
66
1
10
  -292.500
20
  232.500
30
  3.000
40
  1.5999999999999974
 0
CIRCLE
8
layer0
66
1
10
  -7.500
20
  7.500
30
  3.000
40
  1.5999999999999974
 0
CIRCLE
8
layer0
66
1
10
  -78.750
20
  7.500
30
  3.000
40
  1.5999999999999974
 0
CIRCLE
8
layer0
66
1
10
  -150.000
20
  7.500
30
  3.000
40
  1.5999999999999974
 0
CIRCLE
8
layer0
66
1
10
  -221.250
20
  7.500
30
  3.000
40
  1.5999999999999974
 0
CIRCLE
8
layer0
66
1
10
  -292.500
20
  7.500
30
  3.000
40
  1.5999999999999979
 0
CIRCLE
8
layer0
66
1
10
  -7.500
20
  195.000
30
  3.000
40
  1.5999999999999974
 0
CIRCLE
8
layer0
66
1
10
  -7.500
20
  157.500
30
  3.000
40
  1.5999999999999974
 0
CIRCLE
8
layer0
66
1
10
  -7.500
20
  120.000
30
  3.000
40
  1.5999999999999974
 0
CIRCLE
8
layer0
66
1
10
  -7.500
20
  82.500
30
  3.000
40
  1.5999999999999974
 0
CIRCLE
8
layer0
66
1
10
  -7.500
20
  45.000
30
  3.000
40
  1.5999999999999974
 0
CIRCLE
8
layer0
66
1
10
  -292.500
20
  195.000
30
  3.000
40
  1.5999999999999974
 0
CIRCLE
8
layer0
66
1
10
  -292.500
20
  157.500
30
  3.000
40
  1.5999999999999974
 0
CIRCLE
8
layer0
66
1
10
  -292.500
20
  120.000
30
  3.000
40
  1.5999999999999974
 0
CIRCLE
8
layer0
66
1
10
  -292.500
20
  82.500
30
  3.000
40
  1.599999999999998
 0
CIRCLE
8
layer0
66
1
10
  -292.500
20
  45.000
30
  3.000
40
  1.5999999999999974
 0
POLYLINE
8
layer0
66
1
70
8
10
  0.0
20
  0.0
30
  0.0
  0
VERTEX
8
layer0
10
  -25.000
20
  20.000
30
  3.000
0
VERTEX
8
layer0
10
  -275.000
20
  20.000
30
  3.000
 0
SEQEND
 0
ARC
8
layer0
66
1
10
  -275.000
20
  25.000
30
  3.000
40
  5.000000000000002
50
  90.000
51
  180.000
 0
POLYLINE
8
layer0
66
1
70
8
10
  0.0
20
  0.0
30
  0.0
  0
VERTEX
8
layer0
10
  -280.000
20
  25.000
30
  3.000
0
VERTEX
8
layer0
10
  -280.000
20
  215.000
30
  3.000
 0
SEQEND
 0
ARC
8
layer0
66
1
10
  -275.000
20
  215.000
30
  3.000
40
  4.999999999999998
50
  -0.000
51
  90.000
 0
POLYLINE
8
layer0
66
1
70
8
10
  0.0
20
  0.0
30
  0.0
  0
VERTEX
8
layer0
10
  -275.000
20
  220.000
30
  3.000
0
VERTEX
8
layer0
10
  -25.000
20
  220.000
30
  3.000
 0
SEQEND
 0
ARC
8
layer0
66
1
10
  -25.000
20
  215.000
30
  3.000
40
  4.999999999999991
50
  -90.000
51
  -0.000
 0
POLYLINE
8
layer0
66
1
70
8
10
  0.0
20
  0.0
30
  0.0
  0
VERTEX
8
layer0
10
  -20.000
20
  215.000
30
  3.000
0
VERTEX
8
layer0
10
  -20.000
20
  25.000
30
  3.000
 0
SEQEND
 0
ARC
8
layer0
66
1
10
  -25.000
20
  25.000
30
  3.000
40
  4.999999999999991
50
  -180.000
51
  -90.000
 0
ENDSEC
 0
EOF
