 0
SECTION
 2
HEADER
 9
$MEASUREMENT
 70
 2
 0
ENDSEC
 0
SECTION
 2
ENTITIES
 0
CIRCLE
8
layer0
66
1
10
  78.750
20
  232.500
30
  0.000
40
  1.5999999999999974
 0
CIRCLE
8
layer0
66
1
10
  150.000
20
  232.500
30
  0.000
40
  1.5999999999999974
 0
CIRCLE
8
layer0
66
1
10
  221.250
20
  232.500
30
  0.000
40
  1.5999999999999974
 0
CIRCLE
8
layer0
66
1
10
  78.750
20
  7.500
30
  -3.000
40
  1.5999999999999974
 0
POLYLINE
8
layer0
66
1
70
8
10
  0.0
20
  0.0
30
  0.0
  0
VERTEX
8
layer0
10
  303.000
20
  0.000
30
  -0.000
0
VERTEX
8
layer0
10
  -3.000
20
  -0.000
30
  0.000
0
VERTEX
8
layer0
10
  -3.000
20
  240.000
30
  0.000
0
VERTEX
8
layer0
10
  303.000
20
  240.000
30
  -0.000
0
VERTEX
8
layer0
10
  303.000
20
  0.000
30
  -0.000
0
VERTEX
8
layer0
10
  274.836
20
  20.000
30
  -0.000
0
VERTEX
8
layer0
10
  275.651
20
  20.053
30
  -0.000
0
VERTEX
8
layer0
10
  276.291
20
  20.181
30
  -0.000
0
VERTEX
8
layer0
10
  276.909
20
  20.391
30
  -0.000
0
VERTEX
8
layer0
10
  277.495
20
  20.679
30
  -0.000
0
VERTEX
8
layer0
10
  278.037
20
  21.042
30
  -0.000
0
VERTEX
8
layer0
10
  278.528
20
  21.472
30
  -0.000
0
VERTEX
8
layer0
10
  278.958
20
  21.963
30
  -0.000
0
VERTEX
8
layer0
10
  279.321
20
  22.505
30
  -0.000
0
VERTEX
8
layer0
10
  279.609
20
  23.091
30
  -0.000
0
VERTEX
8
layer0
10
  279.819
20
  23.709
30
  -0.000
0
VERTEX
8
layer0
10
  279.947
20
  24.349
30
  -0.000
0
VERTEX
8
layer0
10
  280.000
20
  25.164
30
  -0.000
0
VERTEX
8
layer0
10
  280.000
20
  214.836
30
  -0.000
0
VERTEX
8
layer0
10
  279.947
20
  215.651
30
  -0.000
0
VERTEX
8
layer0
10
  279.819
20
  216.291
30
  -0.000
0
VERTEX
8
layer0
10
  279.609
20
  216.909
30
  -0.000
0
VERTEX
8
layer0
10
  279.321
20
  217.495
30
  -0.000
0
VERTEX
8
layer0
10
  278.958
20
  218.037
30
  -0.000
0
VERTEX
8
layer0
10
  278.528
20
  218.528
30
  -0.000
0
VERTEX
8
layer0
10
  278.037
20
  218.958
30
  -0.000
0
VERTEX
8
layer0
10
  277.495
20
  219.321
30
  -0.000
0
VERTEX
8
layer0
10
  276.909
20
  219.609
30
  -0.000
0
VERTEX
8
layer0
10
  276.291
20
  219.819
30
  -0.000
0
VERTEX
8
layer0
10
  275.651
20
  219.947
30
  0.000
0
VERTEX
8
layer0
10
  274.836
20
  220.000
30
  0.000
0
VERTEX
8
layer0
10
  25.164
20
  220.000
30
  -0.000
0
VERTEX
8
layer0
10
  24.349
20
  219.947
30
  -0.000
0
VERTEX
8
layer0
10
  23.709
20
  219.819
30
  -0.000
0
VERTEX
8
layer0
10
  23.091
20
  219.609
30
  -0.000
0
VERTEX
8
layer0
10
  22.505
20
  219.321
30
  -0.000
0
VERTEX
8
layer0
10
  21.963
20
  218.958
30
  -0.000
0
VERTEX
8
layer0
10
  21.472
20
  218.528
30
  -0.000
0
VERTEX
8
layer0
10
  21.042
20
  218.037
30
  -0.000
0
VERTEX
8
layer0
10
  20.679
20
  217.495
30
  0.000
0
VERTEX
8
layer0
10
  20.391
20
  216.909
30
  -0.000
0
VERTEX
8
layer0
10
  20.181
20
  216.291
30
  0.000
0
VERTEX
8
layer0
10
  20.053
20
  215.651
30
  -0.000
0
VERTEX
8
layer0
10
  20.000
20
  214.837
30
  0.000
0
VERTEX
8
layer0
10
  20.016
20
  25.164
30
  -0.000
0
VERTEX
8
layer0
10
  20.069
20
  24.349
30
  0.000
0
VERTEX
8
layer0
10
  20.196
20
  23.709
30
  0.000
0
VERTEX
8
layer0
10
  20.406
20
  23.091
30
  -0.000
0
VERTEX
8
layer0
10
  20.695
20
  22.505
30
  -0.000
0
VERTEX
8
layer0
10
  21.057
20
  21.963
30
  -0.000
0
VERTEX
8
layer0
10
  21.488
20
  21.472
30
  -0.000
0
VERTEX
8
layer0
10
  21.978
20
  21.042
30
  -0.000
0
VERTEX
8
layer0
10
  22.521
20
  20.679
30
  -0.000
0
VERTEX
8
layer0
10
  23.106
20
  20.391
30
  -0.000
0
VERTEX
8
layer0
10
  23.724
20
  20.181
30
  -0.000
0
VERTEX
8
layer0
10
  24.364
20
  20.053
30
  -0.000
0
VERTEX
8
layer0
10
  25.179
20
  20.000
30
  -0.000
 0
SEQEND
 0
CIRCLE
8
layer0
66
1
10
  7.500
20
  232.500
30
  0.000
40
  1.5999999999999974
 0
CIRCLE
8
layer0
66
1
10
  78.750
20
  232.500
30
  0.000
40
  1.5999999999999974
 0
CIRCLE
8
layer0
66
1
10
  150.000
20
  232.500
30
  0.000
40
  1.5999999999999974
 0
CIRCLE
8
layer0
66
1
10
  221.250
20
  232.500
30
  0.000
40
  1.5999999999999974
 0
CIRCLE
8
layer0
66
1
10
  292.500
20
  232.500
30
  0.000
40
  1.5999999999999974
 0
CIRCLE
8
layer0
66
1
10
  7.500
20
  7.500
30
  0.000
40
  1.5999999999999974
 0
CIRCLE
8
layer0
66
1
10
  78.750
20
  7.500
30
  0.000
40
  1.5999999999999974
 0
CIRCLE
8
layer0
66
1
10
  150.000
20
  7.500
30
  0.000
40
  1.5999999999999974
 0
CIRCLE
8
layer0
66
1
10
  221.250
20
  7.500
30
  -0.000
40
  1.5999999999999974
 0
CIRCLE
8
layer0
66
1
10
  292.500
20
  7.500
30
  0.000
40
  1.5999999999999974
 0
CIRCLE
8
layer0
66
1
10
  7.500
20
  195.000
30
  0.000
40
  1.5999999999999974
 0
CIRCLE
8
layer0
66
1
10
  7.500
20
  157.500
30
  0.000
40
  1.5999999999999974
 0
CIRCLE
8
layer0
66
1
10
  7.500
20
  120.000
30
  0.000
40
  1.5999999999999974
 0
CIRCLE
8
layer0
66
1
10
  7.500
20
  82.500
30
  0.000
40
  1.5999999999999974
 0
CIRCLE
8
layer0
66
1
10
  7.500
20
  45.000
30
  0.000
40
  1.5999999999999974
 0
CIRCLE
8
layer0
66
1
10
  292.500
20
  195.000
30
  0.000
40
  1.5999999999999974
 0
CIRCLE
8
layer0
66
1
10
  292.500
20
  157.500
30
  0.000
40
  1.5999999999999974
 0
CIRCLE
8
layer0
66
1
10
  292.500
20
  120.000
30
  0.000
40
  1.5999999999999974
 0
CIRCLE
8
layer0
66
1
10
  292.500
20
  82.500
30
  0.000
40
  1.5999999999999974
 0
CIRCLE
8
layer0
66
1
10
  292.500
20
  45.000
30
  0.000
40
  1.5999999999999974
 0
POLYLINE
8
layer0
66
1
70
8
10
  0.0
20
  0.0
30
  0.0
  0
VERTEX
8
layer0
10
  -3.000
20
  -0.000
30
  3.000
0
VERTEX
8
layer0
10
  303.000
20
  -0.000
30
  3.000
0
VERTEX
8
layer0
10
  303.000
20
  240.000
30
  3.000
0
VERTEX
8
layer0
10
  -3.000
20
  240.000
30
  3.000
0
VERTEX
8
layer0
10
  -3.000
20
  -0.000
30
  3.000
0
VERTEX
8
layer0
10
  25.179
20
  20.000
30
  3.000
0
VERTEX
8
layer0
10
  24.364
20
  20.053
30
  3.000
0
VERTEX
8
layer0
10
  23.724
20
  20.181
30
  3.000
0
VERTEX
8
layer0
10
  23.106
20
  20.391
30
  3.000
0
VERTEX
8
layer0
10
  22.521
20
  20.679
30
  3.000
0
VERTEX
8
layer0
10
  21.978
20
  21.042
30
  3.000
0
VERTEX
8
layer0
10
  21.488
20
  21.472
30
  3.000
0
VERTEX
8
layer0
10
  21.057
20
  21.963
30
  3.000
0
VERTEX
8
layer0
10
  20.695
20
  22.505
30
  3.000
0
VERTEX
8
layer0
10
  20.406
20
  23.091
30
  3.000
0
VERTEX
8
layer0
10
  20.196
20
  23.709
30
  3.000
0
VERTEX
8
layer0
10
  20.069
20
  24.349
30
  3.000
0
VERTEX
8
layer0
10
  20.016
20
  25.164
30
  3.000
0
VERTEX
8
layer0
10
  20.000
20
  214.837
30
  3.000
0
VERTEX
8
layer0
10
  20.053
20
  215.651
30
  3.000
0
VERTEX
8
layer0
10
  20.181
20
  216.291
30
  3.000
0
VERTEX
8
layer0
10
  20.391
20
  216.909
30
  3.000
0
VERTEX
8
layer0
10
  20.679
20
  217.495
30
  3.000
0
VERTEX
8
layer0
10
  21.042
20
  218.037
30
  3.000
0
VERTEX
8
layer0
10
  21.472
20
  218.528
30
  3.000
0
VERTEX
8
layer0
10
  21.963
20
  218.958
30
  3.000
0
VERTEX
8
layer0
10
  22.505
20
  219.321
30
  3.000
0
VERTEX
8
layer0
10
  23.091
20
  219.609
30
  3.000
0
VERTEX
8
layer0
10
  23.709
20
  219.819
30
  3.000
0
VERTEX
8
layer0
10
  24.349
20
  219.947
30
  3.000
0
VERTEX
8
layer0
10
  25.164
20
  220.000
30
  3.000
0
VERTEX
8
layer0
10
  274.836
20
  220.000
30
  3.000
0
VERTEX
8
layer0
10
  275.651
20
  219.947
30
  3.000
0
VERTEX
8
layer0
10
  276.291
20
  219.819
30
  3.000
0
VERTEX
8
layer0
10
  276.909
20
  219.609
30
  3.000
0
VERTEX
8
layer0
10
  277.495
20
  219.321
30
  3.000
0
VERTEX
8
layer0
10
  278.037
20
  218.958
30
  3.000
0
VERTEX
8
layer0
10
  278.528
20
  218.528
30
  3.000
0
VERTEX
8
layer0
10
  278.958
20
  218.037
30
  3.000
0
VERTEX
8
layer0
10
  279.321
20
  217.495
30
  3.000
0
VERTEX
8
layer0
10
  279.609
20
  216.909
30
  3.000
0
VERTEX
8
layer0
10
  279.819
20
  216.291
30
  3.000
0
VERTEX
8
layer0
10
  279.947
20
  215.651
30
  3.000
0
VERTEX
8
layer0
10
  280.000
20
  214.836
30
  3.000
0
VERTEX
8
layer0
10
  280.000
20
  25.164
30
  3.000
0
VERTEX
8
layer0
10
  279.947
20
  24.349
30
  3.000
0
VERTEX
8
layer0
10
  279.819
20
  23.709
30
  3.000
0
VERTEX
8
layer0
10
  279.609
20
  23.091
30
  3.000
0
VERTEX
8
layer0
10
  279.321
20
  22.505
30
  3.000
0
VERTEX
8
layer0
10
  278.958
20
  21.963
30
  3.000
0
VERTEX
8
layer0
10
  278.528
20
  21.472
30
  3.000
0
VERTEX
8
layer0
10
  278.037
20
  21.042
30
  3.000
0
VERTEX
8
layer0
10
  277.495
20
  20.679
30
  3.000
0
VERTEX
8
layer0
10
  276.909
20
  20.391
30
  3.000
0
VERTEX
8
layer0
10
  276.291
20
  20.181
30
  3.000
0
VERTEX
8
layer0
10
  275.651
20
  20.053
30
  3.000
0
VERTEX
8
layer0
10
  274.836
20
  20.000
30
  3.000
 0
SEQEND
 0
CIRCLE
8
layer0
66
1
10
  7.500
20
  232.500
30
  3.000
40
  1.5999999999999974
 0
CIRCLE
8
layer0
66
1
10
  7.500
20
  7.500
30
  3.000
40
  1.5999999999999974
 0
CIRCLE
8
layer0
66
1
10
  150.000
20
  7.500
30
  3.000
40
  1.6000000000000052
 0
CIRCLE
8
layer0
66
1
10
  221.250
20
  7.500
30
  3.000
40
  1.5999999999999974
 0
CIRCLE
8
layer0
66
1
10
  292.500
20
  7.500
30
  3.000
40
  1.5999999999999974
 0
CIRCLE
8
layer0
66
1
10
  292.500
20
  232.500
30
  3.000
40
  1.5999999999999974
 0
CIRCLE
8
layer0
66
1
10
  7.500
20
  195.000
30
  3.000
40
  1.5999999999999974
 0
CIRCLE
8
layer0
66
1
10
  7.500
20
  157.500
30
  3.000
40
  1.5999999999999974
 0
CIRCLE
8
layer0
66
1
10
  7.500
20
  120.000
30
  3.000
40
  1.5999999999999974
 0
CIRCLE
8
layer0
66
1
10
  7.500
20
  82.500
30
  3.000
40
  1.5999999999999974
 0
CIRCLE
8
layer0
66
1
10
  7.500
20
  45.000
30
  3.000
40
  1.5999999999999974
 0
CIRCLE
8
layer0
66
1
10
  292.500
20
  195.000
30
  3.000
40
  1.5999999999999974
 0
CIRCLE
8
layer0
66
1
10
  292.500
20
  157.500
30
  3.000
40
  1.5999999999999974
 0
CIRCLE
8
layer0
66
1
10
  292.500
20
  120.000
30
  3.000
40
  1.5999999999999979
 0
CIRCLE
8
layer0
66
1
10
  292.500
20
  82.500
30
  3.000
40
  1.5999999999999974
 0
CIRCLE
8
layer0
66
1
10
  292.500
20
  45.000
30
  3.000
40
  1.599999999999997
 0
ENDSEC
 0
EOF
