 0
SECTION
 2
HEADER
 9
$MEASUREMENT
 70
 2
 0
ENDSEC
 0
SECTION
 2
ENTITIES
 0
POLYLINE
8
layer0
66
1
70
8
10
  0.000
20
  0.000
30
  0.000
  0
VERTEX
8
layer0
10
  -3.989
20
  -63.498
30
  0.139
  0
VERTEX
8
layer0
10
  -35.989
20
  -63.514
30
  0.139
 0
SEQEND
 0
ARC
8
layer0
66
1
10
  -35.991
20
  -59.514
30
  0.139
40
  4.000
50
  180.029
51
  -89.971
 0
POLYLINE
8
layer0
66
1
70
8
10
  0.000
20
  0.000
30
  0.000
  0
VERTEX
8
layer0
10
  -39.991
20
  -59.516
30
  0.139
  0
VERTEX
8
layer0
10
  -40.018
20
  -7.516
30
  0.139
 0
SEQEND
 0
POLYLINE
8
layer0
66
1
70
8
10
  0.000
20
  0.000
30
  0.000
  0
VERTEX
8
layer0
10
  -40.018
20
  -7.516
30
  0.139
  0
VERTEX
8
layer0
10
  -27.524
20
  4.991
30
  0.139
 0
SEQEND
 0
POLYLINE
8
layer0
66
1
70
8
10
  0.000
20
  0.000
30
  0.000
  0
VERTEX
8
layer0
10
  -27.524
20
  4.991
30
  0.139
  0
VERTEX
8
layer0
10
  -27.503
20
  -35.509
30
  0.139
 0
SEQEND
 0
POLYLINE
8
layer0
66
1
70
8
10
  0.000
20
  0.000
30
  0.000
  0
VERTEX
8
layer0
10
  -27.503
20
  -35.509
30
  0.139
  0
VERTEX
8
layer0
10
  -12.503
20
  -35.502
30
  0.139
 0
SEQEND
 0
POLYLINE
8
layer0
66
1
70
8
10
  0.000
20
  0.000
30
  0.000
  0
VERTEX
8
layer0
10
  -12.503
20
  -35.502
30
  0.139
  0
VERTEX
8
layer0
10
  -12.524
20
  4.998
30
  0.139
 0
SEQEND
 0
POLYLINE
8
layer0
66
1
70
8
10
  0.000
20
  0.000
30
  0.000
  0
VERTEX
8
layer0
10
  -12.524
20
  4.998
30
  0.139
  0
VERTEX
8
layer0
10
  -0.018
20
  -7.496
30
  0.139
 0
SEQEND
 0
POLYLINE
8
layer0
66
1
70
8
10
  0.000
20
  0.000
30
  0.000
  0
VERTEX
8
layer0
10
  -0.018
20
  -7.496
30
  0.139
  0
VERTEX
8
layer0
10
  0.009
20
  -59.496
30
  0.139
 0
SEQEND
 0
ARC
8
layer0
66
1
10
  -3.991
20
  -59.498
30
  0.139
40
  4.000
50
  -89.971
51
  0.029
 0
CIRCLE
8
layer0
66
1
10
  -32.516
20
  -10.012
30
  0.151
40
  1.600
 0
CIRCLE
8
layer0
66
1
10
  -7.516
20
  -9.999
30
  0.151
40
  1.600
 0
CIRCLE
8
layer0
66
1
10
  -32.505
20
  -33.012
30
  0.139
40
  1.600
 0
CIRCLE
8
layer0
66
1
10
  -7.505
20
  -32.999
30
  0.139
40
  1.600
 0
CIRCLE
8
layer0
66
1
10
  -7.493
20
  -55.999
30
  0.139
40
  1.600
 0
ARC
8
layer0
66
1
10
  -19.998
20
  -44.994
30
  0.135
40
  7.390
50
  0.010
51
  -59.990
 0
ARC
8
layer0
66
1
10
  -19.998
20
  -44.994
30
  0.135
40
  7.390
50
  60.010
51
  0.010
 0
ARC
8
layer0
66
1
10
  -19.998
20
  -44.994
30
  0.135
40
  7.390
50
  120.010
51
  60.010
 0
ARC
8
layer0
66
1
10
  -19.998
20
  -44.994
30
  0.135
40
  7.390
50
  180.010
51
  120.010
 0
ARC
8
layer0
66
1
10
  -19.998
20
  -44.994
30
  0.135
40
  7.390
50
  240.010
51
  180.010
 0
ARC
8
layer0
66
1
10
  -19.998
20
  -44.994
30
  0.135
40
  7.390
50
  -59.990
51
  240.010
 0
CIRCLE
8
layer0
66
1
10
  -32.493
20
  -56.012
30
  0.139
40
  1.600
 0
POLYLINE
8
layer0
66
1
70
8
10
  0.000
20
  0.000
30
  0.000
  0
VERTEX
8
layer0
10
  -35.989
20
  -63.514
30
  9.139
  0
VERTEX
8
layer0
10
  -3.989
20
  -63.498
30
  9.139
 0
SEQEND
 0
ARC
8
layer0
66
1
10
  -3.991
20
  -59.498
30
  9.139
40
  4.000
50
  -89.971
51
  0.029
 0
POLYLINE
8
layer0
66
1
70
8
10
  0.000
20
  0.000
30
  0.000
  0
VERTEX
8
layer0
10
  0.009
20
  -59.496
30
  9.139
  0
VERTEX
8
layer0
10
  -0.018
20
  -7.496
30
  9.139
 0
SEQEND
 0
POLYLINE
8
layer0
66
1
70
8
10
  0.000
20
  0.000
30
  0.000
  0
VERTEX
8
layer0
10
  -0.018
20
  -7.496
30
  9.139
  0
VERTEX
8
layer0
10
  -12.524
20
  4.998
30
  9.139
 0
SEQEND
 0
POLYLINE
8
layer0
66
1
70
8
10
  0.000
20
  0.000
30
  0.000
  0
VERTEX
8
layer0
10
  -12.524
20
  4.998
30
  9.139
  0
VERTEX
8
layer0
10
  -12.503
20
  -35.502
30
  9.139
 0
SEQEND
 0
POLYLINE
8
layer0
66
1
70
8
10
  0.000
20
  0.000
30
  0.000
  0
VERTEX
8
layer0
10
  -12.503
20
  -35.502
30
  9.139
  0
VERTEX
8
layer0
10
  -27.503
20
  -35.509
30
  9.139
 0
SEQEND
 0
POLYLINE
8
layer0
66
1
70
8
10
  0.000
20
  0.000
30
  0.000
  0
VERTEX
8
layer0
10
  -27.503
20
  -35.509
30
  9.139
  0
VERTEX
8
layer0
10
  -27.524
20
  4.991
30
  9.139
 0
SEQEND
 0
POLYLINE
8
layer0
66
1
70
8
10
  0.000
20
  0.000
30
  0.000
  0
VERTEX
8
layer0
10
  -27.524
20
  4.991
30
  9.139
  0
VERTEX
8
layer0
10
  -40.018
20
  -7.516
30
  9.139
 0
SEQEND
 0
POLYLINE
8
layer0
66
1
70
8
10
  0.000
20
  0.000
30
  0.000
  0
VERTEX
8
layer0
10
  -40.018
20
  -7.516
30
  9.139
  0
VERTEX
8
layer0
10
  -39.991
20
  -59.516
30
  9.139
 0
SEQEND
 0
ARC
8
layer0
66
1
10
  -35.991
20
  -59.514
30
  9.139
40
  4.000
50
  180.029
51
  -89.971
 0
ARC
8
layer0
66
1
10
  -19.998
20
  -44.994
30
  9.135
40
  7.390
50
  60.010
51
  0.010
 0
ARC
8
layer0
66
1
10
  -19.998
20
  -44.994
30
  9.135
40
  7.390
50
  0.010
51
  -59.990
 0
ARC
8
layer0
66
1
10
  -19.998
20
  -44.994
30
  9.135
40
  7.390
50
  -59.990
51
  240.010
 0
ARC
8
layer0
66
1
10
  -19.998
20
  -44.994
30
  9.135
40
  7.390
50
  240.010
51
  180.010
 0
ARC
8
layer0
66
1
10
  -19.998
20
  -44.994
30
  9.135
40
  7.390
50
  180.010
51
  120.010
 0
ARC
8
layer0
66
1
10
  -19.998
20
  -44.994
30
  9.135
40
  7.390
50
  120.010
51
  60.010
 0
CIRCLE
8
layer0
66
1
10
  -32.516
20
  -10.012
30
  9.151
40
  1.600
 0
CIRCLE
8
layer0
66
1
10
  -7.516
20
  -9.999
30
  9.151
40
  1.600
 0
CIRCLE
8
layer0
66
1
10
  -32.493
20
  -56.012
30
  9.139
40
  1.600
 0
CIRCLE
8
layer0
66
1
10
  -7.493
20
  -55.999
30
  9.139
40
  1.600
 0
CIRCLE
8
layer0
66
1
10
  -7.505
20
  -32.999
30
  9.139
40
  1.600
 0
CIRCLE
8
layer0
66
1
10
  -32.505
20
  -33.012
30
  9.139
40
  1.600
 0
ENDSEC
 0
EOF
