 0
SECTION
 2
HEADER
 9
$MEASUREMENT
 70
 2
 0
ENDSEC
 0
SECTION
 2
ENTITIES
 0
ARC
8
layer0
66
1
10
  4.011
20
  -63.530
30
  -8.899
40
  3.999999999999999
50
  179.990
51
  269.990
 0
POLYLINE
8
layer0
66
1
70
8
10
  0.000
20
  0.000
30
  0.000
  0
VERTEX
8
layer0
10
  0.011
20
  -63.530
30
  -8.899
  0
VERTEX
8
layer0
10
  0.019
20
  -12.530
30
  -9.091
 0
SEQEND
 0
POLYLINE
8
layer0
66
1
70
8
10
  0.000
20
  0.000
30
  0.000
  0
VERTEX
8
layer0
10
  0.019
20
  -12.530
30
  -9.091
  0
VERTEX
8
layer0
10
  12.521
20
  -0.032
30
  -9.139
 0
SEQEND
 0
POLYLINE
8
layer0
66
1
70
8
10
  0.000
20
  0.000
30
  0.000
  0
VERTEX
8
layer0
10
  12.521
20
  -0.032
30
  -9.139
  0
VERTEX
8
layer0
10
  12.517
20
  -25.032
30
  -9.044
 0
SEQEND
 0
POLYLINE
8
layer0
66
1
70
8
10
  0.000
20
  0.000
30
  0.000
  0
VERTEX
8
layer0
10
  12.517
20
  -25.032
30
  -9.044
  0
VERTEX
8
layer0
10
  27.517
20
  -25.034
30
  -9.044
 0
SEQEND
 0
POLYLINE
8
layer0
66
1
70
8
10
  0.000
20
  0.000
30
  0.000
  0
VERTEX
8
layer0
10
  27.517
20
  -25.034
30
  -9.044
  0
VERTEX
8
layer0
10
  27.521
20
  -0.035
30
  -9.139
 0
SEQEND
 0
POLYLINE
8
layer0
66
1
70
8
10
  0.000
20
  0.000
30
  0.000
  0
VERTEX
8
layer0
10
  27.521
20
  -0.035
30
  -9.139
  0
VERTEX
8
layer0
10
  40.019
20
  -12.537
30
  -9.091
 0
SEQEND
 0
POLYLINE
8
layer0
66
1
70
8
10
  0.000
20
  0.000
30
  0.000
  0
VERTEX
8
layer0
10
  40.019
20
  -12.537
30
  -9.091
  0
VERTEX
8
layer0
10
  40.011
20
  -63.536
30
  -8.899
 0
SEQEND
 0
ARC
8
layer0
66
1
10
  36.011
20
  -63.536
30
  -8.899
40
  3.9999999999999942
50
  269.990
51
  -0.010
 0
POLYLINE
8
layer0
66
1
70
8
10
  0.000
20
  0.000
30
  0.000
  0
VERTEX
8
layer0
10
  36.010
20
  -67.536
30
  -8.884
  0
VERTEX
8
layer0
10
  4.010
20
  -67.530
30
  -8.884
 0
SEQEND
 0
CIRCLE
8
layer0
66
1
10
  32.511
20
  -60.035
30
  -8.912
40
  1.599999999999997
 0
CIRCLE
8
layer0
66
1
10
  7.511
20
  -60.031
30
  -8.912
40
  1.5999999999999932
 0
CIRCLE
8
layer0
66
1
10
  32.519
20
  -15.035
30
  -9.082
40
  1.599999999999997
 0
CIRCLE
8
layer0
66
1
10
  7.519
20
  -15.031
30
  -9.082
40
  1.5999999999999963
 0
CIRCLE
8
layer0
66
1
10
  32.516
20
  -30.035
30
  -9.025
40
  1.599999999999997
 0
CIRCLE
8
layer0
66
1
10
  32.514
20
  -45.035
30
  -8.969
40
  1.5999999999999968
 0
CIRCLE
8
layer0
66
1
10
  7.516
20
  -30.031
30
  -9.025
40
  1.5999999999999963
 0
CIRCLE
8
layer0
66
1
10
  7.514
20
  -45.031
30
  -8.969
40
  1.5999999999999928
 0
CIRCLE
8
layer0
66
1
10
  20.014
20
  -45.022
30
  -8.969
40
  7.389999999999624
 0
ARC
8
layer0
66
1
10
  36.011
20
  -63.502
30
  0.101
40
  3.9999999999999942
50
  269.990
51
  -0.010
 0
POLYLINE
8
layer0
66
1
70
8
10
  0.000
20
  0.000
30
  0.000
  0
VERTEX
8
layer0
10
  40.011
20
  -63.502
30
  0.101
  0
VERTEX
8
layer0
10
  40.019
20
  -12.503
30
  -0.092
 0
SEQEND
 0
POLYLINE
8
layer0
66
1
70
8
10
  0.000
20
  0.000
30
  0.000
  0
VERTEX
8
layer0
10
  40.019
20
  -12.503
30
  -0.092
  0
VERTEX
8
layer0
10
  27.521
20
  -0.001
30
  -0.139
 0
SEQEND
 0
POLYLINE
8
layer0
66
1
70
8
10
  0.000
20
  0.000
30
  0.000
  0
VERTEX
8
layer0
10
  27.521
20
  -0.001
30
  -0.139
  0
VERTEX
8
layer0
10
  27.517
20
  -25.001
30
  -0.044
 0
SEQEND
 0
POLYLINE
8
layer0
66
1
70
8
10
  0.000
20
  0.000
30
  0.000
  0
VERTEX
8
layer0
10
  27.517
20
  -25.001
30
  -0.044
  0
VERTEX
8
layer0
10
  12.517
20
  -24.998
30
  -0.044
 0
SEQEND
 0
POLYLINE
8
layer0
66
1
70
8
10
  0.000
20
  0.000
30
  0.000
  0
VERTEX
8
layer0
10
  12.517
20
  -24.998
30
  -0.044
  0
VERTEX
8
layer0
10
  12.521
20
  0.002
30
  -0.139
 0
SEQEND
 0
POLYLINE
8
layer0
66
1
70
8
10
  0.000
20
  0.000
30
  0.000
  0
VERTEX
8
layer0
10
  12.521
20
  0.002
30
  -0.139
  0
VERTEX
8
layer0
10
  0.019
20
  -12.496
30
  -0.092
 0
SEQEND
 0
POLYLINE
8
layer0
66
1
70
8
10
  0.000
20
  0.000
30
  0.000
  0
VERTEX
8
layer0
10
  0.019
20
  -12.496
30
  -0.092
  0
VERTEX
8
layer0
10
  0.011
20
  -63.496
30
  0.101
 0
SEQEND
 0
ARC
8
layer0
66
1
10
  4.011
20
  -63.496
30
  0.101
40
  3.999999999999999
50
  179.990
51
  269.990
 0
POLYLINE
8
layer0
66
1
70
8
10
  0.000
20
  0.000
30
  0.000
  0
VERTEX
8
layer0
10
  4.010
20
  -67.496
30
  0.116
  0
VERTEX
8
layer0
10
  36.010
20
  -67.502
30
  0.116
 0
SEQEND
 0
CIRCLE
8
layer0
66
1
10
  32.511
20
  -60.001
30
  0.088
40
  1.599999999999997
 0
CIRCLE
8
layer0
66
1
10
  7.511
20
  -59.997
30
  0.088
40
  1.5999999999999985
 0
CIRCLE
8
layer0
66
1
10
  32.519
20
  -15.001
30
  -0.082
40
  1.5999999999999968
 0
CIRCLE
8
layer0
66
1
10
  7.519
20
  -14.997
30
  -0.082
40
  1.5999999999999963
 0
CIRCLE
8
layer0
66
1
10
  32.516
20
  -30.001
30
  -0.025
40
  1.5999999999999974
 0
CIRCLE
8
layer0
66
1
10
  32.514
20
  -45.001
30
  0.031
40
  1.600000000000002
 0
CIRCLE
8
layer0
66
1
10
  7.516
20
  -29.997
30
  -0.025
40
  1.5999999999999968
 0
CIRCLE
8
layer0
66
1
10
  7.514
20
  -44.997
30
  0.031
40
  1.5999999999999985
 0
CIRCLE
8
layer0
66
1
10
  20.014
20
  -44.988
30
  0.031
40
  7.389999999999624
 0
ENDSEC
 0
EOF
