 0
SECTION
 2
HEADER
 9
$MEASUREMENT
 70
 2
 0
ENDSEC
 0
SECTION
 2
ENTITIES
 0
CIRCLE
8
layer0
66
1
10
  32.520
20
  -10.035
30
  -9.113
40
  1.600
 0
CIRCLE
8
layer0
66
1
10
  7.520
20
  -10.031
30
  -9.113
40
  1.600
 0
CIRCLE
8
layer0
66
1
10
  7.516
20
  -33.031
30
  -9.014
40
  1.600
 0
CIRCLE
8
layer0
66
1
10
  32.512
20
  -56.035
30
  -8.927
40
  1.600
 0
CIRCLE
8
layer0
66
1
10
  32.516
20
  -33.035
30
  -9.014
40
  1.600
 0
CIRCLE
8
layer0
66
1
10
  7.512
20
  -56.031
30
  -8.927
40
  1.600
 0
POLYLINE
8
layer0
66
1
70
8
10
  0.000
20
  0.000
30
  0.000
  0
VERTEX
8
layer0
10
  16.318
20
  -38.622
30
  -8.990
  0
VERTEX
8
layer0
10
  12.624
20
  -45.023
30
  -8.965
 0
SEQEND
 0
POLYLINE
8
layer0
66
1
70
8
10
  0.000
20
  0.000
30
  0.000
  0
VERTEX
8
layer0
10
  12.624
20
  -45.023
30
  -8.965
  0
VERTEX
8
layer0
10
  16.320
20
  -51.422
30
  -8.941
 0
SEQEND
 0
POLYLINE
8
layer0
66
1
70
8
10
  0.000
20
  0.000
30
  0.000
  0
VERTEX
8
layer0
10
  16.320
20
  -51.422
30
  -8.941
  0
VERTEX
8
layer0
10
  23.710
20
  -51.421
30
  -8.941
 0
SEQEND
 0
POLYLINE
8
layer0
66
1
70
8
10
  0.000
20
  0.000
30
  0.000
  0
VERTEX
8
layer0
10
  23.710
20
  -51.421
30
  -8.941
  0
VERTEX
8
layer0
10
  27.404
20
  -45.020
30
  -8.965
 0
SEQEND
 0
POLYLINE
8
layer0
66
1
70
8
10
  0.000
20
  0.000
30
  0.000
  0
VERTEX
8
layer0
10
  27.404
20
  -45.020
30
  -8.965
  0
VERTEX
8
layer0
10
  23.708
20
  -38.621
30
  -8.990
 0
SEQEND
 0
POLYLINE
8
layer0
66
1
70
8
10
  0.000
20
  0.000
30
  0.000
  0
VERTEX
8
layer0
10
  23.708
20
  -38.621
30
  -8.990
  0
VERTEX
8
layer0
10
  16.318
20
  -38.622
30
  -8.990
 0
SEQEND
 0
POLYLINE
8
layer0
66
1
70
8
10
  0.000
20
  0.000
30
  0.000
  0
VERTEX
8
layer0
10
  36.011
20
  -63.536
30
  -8.899
  0
VERTEX
8
layer0
10
  4.011
20
  -63.530
30
  -8.899
 0
SEQEND
 0
ARC
8
layer0
66
1
10
  4.011
20
  -59.530
30
  -8.914
40
  4.000
50
  179.990
51
  269.990
 0
POLYLINE
8
layer0
66
1
70
8
10
  0.000
20
  0.000
30
  0.000
  0
VERTEX
8
layer0
10
  0.011
20
  -59.530
30
  -8.914
  0
VERTEX
8
layer0
10
  0.020
20
  -7.530
30
  -9.110
 0
SEQEND
 0
POLYLINE
8
layer0
66
1
70
8
10
  0.000
20
  0.000
30
  0.000
  0
VERTEX
8
layer0
10
  0.020
20
  -7.530
30
  -9.110
  0
VERTEX
8
layer0
10
  12.522
20
  4.968
30
  -9.158
 0
SEQEND
 0
POLYLINE
8
layer0
66
1
70
8
10
  0.000
20
  0.000
30
  0.000
  0
VERTEX
8
layer0
10
  12.522
20
  4.968
30
  -9.158
  0
VERTEX
8
layer0
10
  12.515
20
  -35.532
30
  -9.005
 0
SEQEND
 0
POLYLINE
8
layer0
66
1
70
8
10
  0.000
20
  0.000
30
  0.000
  0
VERTEX
8
layer0
10
  12.515
20
  -35.532
30
  -9.005
  0
VERTEX
8
layer0
10
  27.515
20
  -35.534
30
  -9.005
 0
SEQEND
 0
POLYLINE
8
layer0
66
1
70
8
10
  0.000
20
  0.000
30
  0.000
  0
VERTEX
8
layer0
10
  27.515
20
  -35.534
30
  -9.005
  0
VERTEX
8
layer0
10
  27.522
20
  4.965
30
  -9.158
 0
SEQEND
 0
POLYLINE
8
layer0
66
1
70
8
10
  0.000
20
  0.000
30
  0.000
  0
VERTEX
8
layer0
10
  27.522
20
  4.965
30
  -9.158
  0
VERTEX
8
layer0
10
  40.020
20
  -7.537
30
  -9.110
 0
SEQEND
 0
POLYLINE
8
layer0
66
1
70
8
10
  0.000
20
  0.000
30
  0.000
  0
VERTEX
8
layer0
10
  40.020
20
  -7.537
30
  -9.110
  0
VERTEX
8
layer0
10
  40.011
20
  -59.536
30
  -8.914
 0
SEQEND
 0
ARC
8
layer0
66
1
10
  36.011
20
  -59.536
30
  -8.914
40
  4.000
50
  269.990
51
  -0.010
 0
CIRCLE
8
layer0
66
1
10
  32.520
20
  -10.001
30
  -0.113
40
  1.600
 0
CIRCLE
8
layer0
66
1
10
  7.520
20
  -9.997
30
  -0.113
40
  1.600
 0
CIRCLE
8
layer0
66
1
10
  7.516
20
  -32.997
30
  -0.014
40
  1.600
 0
CIRCLE
8
layer0
66
1
10
  32.512
20
  -56.001
30
  0.073
40
  1.600
 0
CIRCLE
8
layer0
66
1
10
  32.516
20
  -33.001
30
  -0.014
40
  1.600
 0
CIRCLE
8
layer0
66
1
10
  7.512
20
  -55.997
30
  0.073
40
  1.600
 0
POLYLINE
8
layer0
66
1
70
8
10
  0.000
20
  0.000
30
  0.000
  0
VERTEX
8
layer0
10
  16.320
20
  -51.388
30
  0.059
  0
VERTEX
8
layer0
10
  12.624
20
  -44.989
30
  0.034
 0
SEQEND
 0
POLYLINE
8
layer0
66
1
70
8
10
  0.000
20
  0.000
30
  0.000
  0
VERTEX
8
layer0
10
  12.624
20
  -44.989
30
  0.034
  0
VERTEX
8
layer0
10
  16.318
20
  -38.589
30
  0.010
 0
SEQEND
 0
POLYLINE
8
layer0
66
1
70
8
10
  0.000
20
  0.000
30
  0.000
  0
VERTEX
8
layer0
10
  16.318
20
  -38.589
30
  0.010
  0
VERTEX
8
layer0
10
  23.708
20
  -38.587
30
  0.010
 0
SEQEND
 0
POLYLINE
8
layer0
66
1
70
8
10
  0.000
20
  0.000
30
  0.000
  0
VERTEX
8
layer0
10
  23.708
20
  -38.587
30
  0.010
  0
VERTEX
8
layer0
10
  27.404
20
  -44.987
30
  0.034
 0
SEQEND
 0
POLYLINE
8
layer0
66
1
70
8
10
  0.000
20
  0.000
30
  0.000
  0
VERTEX
8
layer0
10
  27.404
20
  -44.987
30
  0.034
  0
VERTEX
8
layer0
10
  23.710
20
  -51.387
30
  0.059
 0
SEQEND
 0
POLYLINE
8
layer0
66
1
70
8
10
  0.000
20
  0.000
30
  0.000
  0
VERTEX
8
layer0
10
  23.710
20
  -51.387
30
  0.059
  0
VERTEX
8
layer0
10
  16.320
20
  -51.388
30
  0.059
 0
SEQEND
 0
POLYLINE
8
layer0
66
1
70
8
10
  0.000
20
  0.000
30
  0.000
  0
VERTEX
8
layer0
10
  4.011
20
  -63.496
30
  0.101
  0
VERTEX
8
layer0
10
  36.011
20
  -63.502
30
  0.101
 0
SEQEND
 0
ARC
8
layer0
66
1
10
  36.011
20
  -59.502
30
  0.086
40
  4.000
50
  269.990
51
  -0.010
 0
POLYLINE
8
layer0
66
1
70
8
10
  0.000
20
  0.000
30
  0.000
  0
VERTEX
8
layer0
10
  40.011
20
  -59.502
30
  0.086
  0
VERTEX
8
layer0
10
  40.020
20
  -7.503
30
  -0.110
 0
SEQEND
 0
POLYLINE
8
layer0
66
1
70
8
10
  0.000
20
  0.000
30
  0.000
  0
VERTEX
8
layer0
10
  40.020
20
  -7.503
30
  -0.110
  0
VERTEX
8
layer0
10
  27.522
20
  4.999
30
  -0.158
 0
SEQEND
 0
POLYLINE
8
layer0
66
1
70
8
10
  0.000
20
  0.000
30
  0.000
  0
VERTEX
8
layer0
10
  27.522
20
  4.999
30
  -0.158
  0
VERTEX
8
layer0
10
  27.515
20
  -35.500
30
  -0.005
 0
SEQEND
 0
POLYLINE
8
layer0
66
1
70
8
10
  0.000
20
  0.000
30
  0.000
  0
VERTEX
8
layer0
10
  27.515
20
  -35.500
30
  -0.005
  0
VERTEX
8
layer0
10
  12.515
20
  -35.498
30
  -0.005
 0
SEQEND
 0
POLYLINE
8
layer0
66
1
70
8
10
  0.000
20
  0.000
30
  0.000
  0
VERTEX
8
layer0
10
  12.515
20
  -35.498
30
  -0.005
  0
VERTEX
8
layer0
10
  12.522
20
  5.002
30
  -0.158
 0
SEQEND
 0
POLYLINE
8
layer0
66
1
70
8
10
  0.000
20
  0.000
30
  0.000
  0
VERTEX
8
layer0
10
  12.522
20
  5.002
30
  -0.158
  0
VERTEX
8
layer0
10
  0.020
20
  -7.496
30
  -0.110
 0
SEQEND
 0
POLYLINE
8
layer0
66
1
70
8
10
  0.000
20
  0.000
30
  0.000
  0
VERTEX
8
layer0
10
  0.020
20
  -7.496
30
  -0.110
  0
VERTEX
8
layer0
10
  0.011
20
  -59.496
30
  0.086
 0
SEQEND
 0
ARC
8
layer0
66
1
10
  4.011
20
  -59.496
30
  0.086
40
  4.000
50
  179.990
51
  269.990
 0
ENDSEC
 0
EOF
