 0
SECTION
 2
HEADER
 9
$MEASUREMENT
 70
 2
 0
ENDSEC
 0
SECTION
 2
ENTITIES
 0
POLYLINE
8
layer0
66
1
70
8
10
  0.0
20
  0.0
30
  0.0
  0
VERTEX
8
layer0
10
  24.000
20
  0.000
30
  -3.000
0
VERTEX
8
layer0
10
  22.000
20
  3.000
30
  -3.000
0
VERTEX
8
layer0
10
  24.000
20
  0.000
30
  -15.500
0
VERTEX
8
layer0
10
  24.000
20
  0.000
30
  -3.000
 0
SEQEND
 0
SEQEND
 0
ARC
8
layer0
66
1
10
  8.094
20
  0.000
30
  -6.125
40
  10.156250000000066
50
  180.000
51
  233.130
 0
POLYLINE
8
layer0
66
1
70
8
10
  0.0
20
  0.0
30
  0.0
  0
VERTEX
8
layer0
10
  -2.062
20
  0.000
30
  -6.125
0
VERTEX
8
layer0
10
  -2.062
20
  0.000
30
  -12.375
 0
SEQEND
 0
ARC
8
layer0
66
1
10
  8.094
20
  0.000
30
  -12.375
40
  10.156250000000032
50
  126.870
51
  180.000
 0
POLYLINE
8
layer0
66
1
70
8
10
  0.0
20
  0.0
30
  0.0
  0
VERTEX
8
layer0
10
  2.000
20
  0.000
30
  -20.500
0
VERTEX
8
layer0
10
  27.000
20
  0.000
30
  -37.000
0
VERTEX
8
layer0
10
  27.000
20
  0.000
30
  -31.000
0
VERTEX
8
layer0
10
  30.000
20
  0.000
30
  -31.000
0
VERTEX
8
layer0
10
  30.000
20
  0.000
30
  12.500
0
VERTEX
8
layer0
10
  27.000
20
  0.000
30
  12.500
0
VERTEX
8
layer0
10
  27.000
20
  0.000
30
  18.500
0
VERTEX
8
layer0
10
  2.000
20
  0.000
30
  2.000
 0
SEQEND
 0
ARC
8
layer0
66
1
10
  8.094
20
  0.000
30
  -6.125
40
  10.156250000000066
50
  180.000
51
  233.130
 0
POLYLINE
8
layer0
66
1
70
8
10
  0.0
20
  0.0
30
  0.0
  0
VERTEX
8
layer0
10
  2.000
20
  0.000
30
  -15.500
0
VERTEX
8
layer0
10
  2.000
20
  0.000
30
  -3.000
0
VERTEX
8
layer0
10
  24.000
20
  0.000
30
  -3.000
0
VERTEX
8
layer0
10
  24.000
20
  0.000
30
  -15.500
0
VERTEX
8
layer0
10
  2.000
20
  0.000
30
  -15.500
 0
SEQEND
 0
SEQEND
 0
ARC
8
layer0
66
1
10
  8.094
20
  3.000
30
  -6.125
40
  10.156250000000066
50
  180.000
51
  233.130
 0
POLYLINE
8
layer0
66
1
70
8
10
  0.0
20
  0.0
30
  0.0
  0
VERTEX
8
layer0
10
  2.000
20
  3.000
30
  2.000
0
VERTEX
8
layer0
10
  27.000
20
  3.000
30
  18.500
0
VERTEX
8
layer0
10
  27.000
20
  3.000
30
  12.500
0
VERTEX
8
layer0
10
  30.000
20
  3.000
30
  12.500
0
VERTEX
8
layer0
10
  30.000
20
  3.000
30
  -31.000
0
VERTEX
8
layer0
10
  27.000
20
  3.000
30
  -31.000
0
VERTEX
8
layer0
10
  27.000
20
  3.000
30
  -37.000
0
VERTEX
8
layer0
10
  2.000
20
  3.000
30
  -20.500
 0
SEQEND
 0
ARC
8
layer0
66
1
10
  8.094
20
  3.000
30
  -12.375
40
  10.156250000000032
50
  180.000
51
  233.130
 0
POLYLINE
8
layer0
66
1
70
8
10
  0.0
20
  0.0
30
  0.0
  0
VERTEX
8
layer0
10
  -2.062
20
  3.000
30
  -12.375
0
VERTEX
8
layer0
10
  -2.062
20
  3.000
30
  -6.125
 0
SEQEND
 0
ARC
8
layer0
66
1
10
  8.094
20
  3.000
30
  -6.125
40
  10.156250000000066
50
  180.000
51
  233.130
 0
POLYLINE
8
layer0
66
1
70
8
10
  0.0
20
  0.0
30
  0.0
  0
VERTEX
8
layer0
10
  2.000
20
  3.000
30
  -15.500
0
VERTEX
8
layer0
10
  24.000
20
  3.000
30
  -15.500
0
VERTEX
8
layer0
10
  22.000
20
  3.000
30
  -3.000
0
VERTEX
8
layer0
10
  2.000
20
  3.000
30
  -3.000
0
VERTEX
8
layer0
10
  2.000
20
  3.000
30
  -15.500
 0
SEQEND
 0
ENDSEC
 0
EOF
