 0
SECTION
 2
HEADER
 9
$MEASUREMENT
 70
 2
 0
ENDSEC
 0
SECTION
 2
ENTITIES
 0
POLYLINE
8
layer0
66
1
70
8
10
  0.000
20
  0.000
30
  0.000
  0
VERTEX
8
layer0
10
  21.500
20
  25.000
30
  3.000
  0
VERTEX
8
layer0
10
  34.000
20
  25.000
30
  3.000
 0
SEQEND
 0
POLYLINE
8
layer0
66
1
70
8
10
  0.000
20
  0.000
30
  0.000
  0
VERTEX
8
layer0
10
  34.000
20
  25.000
30
  3.000
  0
VERTEX
8
layer0
10
  34.000
20
  -3.000
30
  3.000
 0
SEQEND
 0
POLYLINE
8
layer0
66
1
70
8
10
  0.000
20
  0.000
30
  0.000
  0
VERTEX
8
layer0
10
  34.000
20
  -3.000
30
  3.000
  0
VERTEX
8
layer0
10
  49.500
20
  -3.000
30
  3.000
 0
SEQEND
 0
POLYLINE
8
layer0
66
1
70
8
10
  0.000
20
  0.000
30
  0.000
  0
VERTEX
8
layer0
10
  49.500
20
  -3.000
30
  3.000
  0
VERTEX
8
layer0
10
  49.500
20
  0.000
30
  3.000
 0
SEQEND
 0
POLYLINE
8
layer0
66
1
70
8
10
  0.000
20
  0.000
30
  0.000
  0
VERTEX
8
layer0
10
  49.500
20
  0.000
30
  3.000
  0
VERTEX
8
layer0
10
  55.500
20
  0.000
30
  3.000
 0
SEQEND
 0
POLYLINE
8
layer0
66
1
70
8
10
  0.000
20
  0.000
30
  0.000
  0
VERTEX
8
layer0
10
  55.500
20
  0.000
30
  3.000
  0
VERTEX
8
layer0
10
  39.000
20
  25.000
30
  3.000
 0
SEQEND
 0
ARC
8
layer0
66
1
10
  30.875
20
  18.906
30
  3.000
40
  10.156250000000066
50
  36.870
51
  90.000
 0
POLYLINE
8
layer0
66
1
70
8
10
  0.000
20
  0.000
30
  0.000
  0
VERTEX
8
layer0
10
  30.875
20
  29.062
30
  3.000
  0
VERTEX
8
layer0
10
  24.625
20
  29.062
30
  3.000
 0
SEQEND
 0
ARC
8
layer0
66
1
10
  24.625
20
  18.906
30
  3.000
40
  10.156250000000032
50
  90.000
51
  143.130
 0
POLYLINE
8
layer0
66
1
70
8
10
  0.000
20
  0.000
30
  0.000
  0
VERTEX
8
layer0
10
  16.500
20
  25.000
30
  3.000
  0
VERTEX
8
layer0
10
  0.000
20
  0.000
30
  3.000
 0
SEQEND
 0
POLYLINE
8
layer0
66
1
70
8
10
  0.000
20
  0.000
30
  0.000
  0
VERTEX
8
layer0
10
  0.000
20
  0.000
30
  3.000
  0
VERTEX
8
layer0
10
  6.000
20
  0.000
30
  3.000
 0
SEQEND
 0
POLYLINE
8
layer0
66
1
70
8
10
  0.000
20
  0.000
30
  0.000
  0
VERTEX
8
layer0
10
  6.000
20
  0.000
30
  3.000
  0
VERTEX
8
layer0
10
  6.000
20
  -3.000
30
  3.000
 0
SEQEND
 0
POLYLINE
8
layer0
66
1
70
8
10
  0.000
20
  0.000
30
  0.000
  0
VERTEX
8
layer0
10
  6.000
20
  -3.000
30
  3.000
  0
VERTEX
8
layer0
10
  21.500
20
  -3.000
30
  3.000
 0
SEQEND
 0
POLYLINE
8
layer0
66
1
70
8
10
  0.000
20
  0.000
30
  0.000
  0
VERTEX
8
layer0
10
  21.500
20
  -3.000
30
  3.000
  0
VERTEX
8
layer0
10
  21.500
20
  25.000
30
  3.000
 0
SEQEND
 0
POLYLINE
8
layer0
66
1
70
8
10
  0.000
20
  0.000
30
  0.000
  0
VERTEX
8
layer0
10
  0.000
20
  0.000
30
  0.000
  0
VERTEX
8
layer0
10
  16.500
20
  25.000
30
  -0.000
 0
SEQEND
 0
ARC
8
layer0
66
1
10
  24.625
20
  18.906
30
  -0.000
40
  10.156250000000032
50
  90.000
51
  143.130
 0
POLYLINE
8
layer0
66
1
70
8
10
  0.000
20
  0.000
30
  0.000
  0
VERTEX
8
layer0
10
  24.625
20
  29.062
30
  -0.000
  0
VERTEX
8
layer0
10
  30.875
20
  29.062
30
  -0.000
 0
SEQEND
 0
ARC
8
layer0
66
1
10
  30.875
20
  18.906
30
  -0.000
40
  10.156250000000066
50
  36.870
51
  90.000
 0
POLYLINE
8
layer0
66
1
70
8
10
  0.000
20
  0.000
30
  0.000
  0
VERTEX
8
layer0
10
  39.000
20
  25.000
30
  -0.000
  0
VERTEX
8
layer0
10
  55.500
20
  -0.000
30
  0.000
 0
SEQEND
 0
POLYLINE
8
layer0
66
1
70
8
10
  0.000
20
  0.000
30
  0.000
  0
VERTEX
8
layer0
10
  55.500
20
  -0.000
30
  0.000
  0
VERTEX
8
layer0
10
  49.500
20
  -0.000
30
  0.000
 0
SEQEND
 0
POLYLINE
8
layer0
66
1
70
8
10
  0.000
20
  0.000
30
  0.000
  0
VERTEX
8
layer0
10
  49.500
20
  -0.000
30
  0.000
  0
VERTEX
8
layer0
10
  49.500
20
  -3.000
30
  0.000
 0
SEQEND
 0
POLYLINE
8
layer0
66
1
70
8
10
  0.000
20
  0.000
30
  0.000
  0
VERTEX
8
layer0
10
  49.500
20
  -3.000
30
  0.000
  0
VERTEX
8
layer0
10
  34.000
20
  -3.000
30
  0.000
 0
SEQEND
 0
POLYLINE
8
layer0
66
1
70
8
10
  0.000
20
  0.000
30
  0.000
  0
VERTEX
8
layer0
10
  34.000
20
  -3.000
30
  0.000
  0
VERTEX
8
layer0
10
  34.000
20
  25.000
30
  -0.000
 0
SEQEND
 0
POLYLINE
8
layer0
66
1
70
8
10
  0.000
20
  0.000
30
  0.000
  0
VERTEX
8
layer0
10
  34.000
20
  25.000
30
  -0.000
  0
VERTEX
8
layer0
10
  21.500
20
  25.000
30
  -0.000
 0
SEQEND
 0
POLYLINE
8
layer0
66
1
70
8
10
  0.000
20
  0.000
30
  0.000
  0
VERTEX
8
layer0
10
  21.500
20
  25.000
30
  -0.000
  0
VERTEX
8
layer0
10
  21.500
20
  -3.000
30
  0.000
 0
SEQEND
 0
POLYLINE
8
layer0
66
1
70
8
10
  0.000
20
  0.000
30
  0.000
  0
VERTEX
8
layer0
10
  21.500
20
  -3.000
30
  0.000
  0
VERTEX
8
layer0
10
  6.000
20
  -3.000
30
  0.000
 0
SEQEND
 0
POLYLINE
8
layer0
66
1
70
8
10
  0.000
20
  0.000
30
  0.000
  0
VERTEX
8
layer0
10
  6.000
20
  -3.000
30
  0.000
  0
VERTEX
8
layer0
10
  6.000
20
  0.000
30
  -0.000
 0
SEQEND
 0
POLYLINE
8
layer0
66
1
70
8
10
  0.000
20
  0.000
30
  0.000
  0
VERTEX
8
layer0
10
  6.000
20
  0.000
30
  -0.000
  0
VERTEX
8
layer0
10
  0.000
20
  0.000
30
  0.000
 0
SEQEND
 0
ENDSEC
 0
EOF
