 0
SECTION
 2
HEADER
 9
$MEASUREMENT
 70
 2
 0
ENDSEC
 0
SECTION
 2
ENTITIES
 0
POLYLINE
8
layer0
66
1
70
8
10
  0.000
20
  0.000
30
  0.000
  0
VERTEX
8
layer0
10
  34.000
20
  25.000
30
  3.000
  0
VERTEX
8
layer0
10
  34.000
20
  3.000
30
  3.000
 0
SEQEND
 0
POLYLINE
8
layer0
66
1
70
8
10
  0.000
20
  0.000
30
  0.000
  0
VERTEX
8
layer0
10
  34.000
20
  3.000
30
  3.000
  0
VERTEX
8
layer0
10
  21.500
20
  3.000
30
  3.000
 0
SEQEND
 0
POLYLINE
8
layer0
66
1
70
8
10
  0.000
20
  0.000
30
  0.000
  0
VERTEX
8
layer0
10
  21.500
20
  3.000
30
  3.000
  0
VERTEX
8
layer0
10
  21.500
20
  25.000
30
  3.000
 0
SEQEND
 0
POLYLINE
8
layer0
66
1
70
8
10
  0.000
20
  0.000
30
  0.000
  0
VERTEX
8
layer0
10
  21.500
20
  25.000
30
  3.000
  0
VERTEX
8
layer0
10
  34.000
20
  25.000
30
  3.000
 0
SEQEND
 0
POLYLINE
8
layer0
66
1
70
8
10
  0.000
20
  0.000
30
  0.000
  0
VERTEX
8
layer0
10
  13.800
20
  12.000
30
  3.000
  0
VERTEX
8
layer0
10
  13.800
20
  -9.000
30
  3.000
 0
SEQEND
 0
POLYLINE
8
layer0
66
1
70
8
10
  0.000
20
  0.000
30
  0.000
  0
VERTEX
8
layer0
10
  13.800
20
  -9.000
30
  3.000
  0
VERTEX
8
layer0
10
  41.700
20
  -9.000
30
  3.000
 0
SEQEND
 0
POLYLINE
8
layer0
66
1
70
8
10
  0.000
20
  0.000
30
  0.000
  0
VERTEX
8
layer0
10
  41.700
20
  -9.000
30
  3.000
  0
VERTEX
8
layer0
10
  41.700
20
  12.000
30
  3.000
 0
SEQEND
 0
ARC
8
layer0
66
1
10
  43.300
20
  12.000
30
  3.000
40
  1.600
50
  -0.000
51
  180.000
 0
POLYLINE
8
layer0
66
1
70
8
10
  0.000
20
  0.000
30
  0.000
  0
VERTEX
8
layer0
10
  44.900
20
  12.000
30
  3.000
  0
VERTEX
8
layer0
10
  44.900
20
  -9.000
30
  3.000
 0
SEQEND
 0
POLYLINE
8
layer0
66
1
70
8
10
  0.000
20
  0.000
30
  0.000
  0
VERTEX
8
layer0
10
  44.900
20
  -9.000
30
  3.000
  0
VERTEX
8
layer0
10
  48.500
20
  -9.000
30
  3.000
 0
SEQEND
 0
POLYLINE
8
layer0
66
1
70
8
10
  0.000
20
  0.000
30
  0.000
  0
VERTEX
8
layer0
10
  48.500
20
  -9.000
30
  3.000
  0
VERTEX
8
layer0
10
  52.500
20
  -5.000
30
  3.000
 0
SEQEND
 0
POLYLINE
8
layer0
66
1
70
8
10
  0.000
20
  0.000
30
  0.000
  0
VERTEX
8
layer0
10
  52.500
20
  -5.000
30
  3.000
  0
VERTEX
8
layer0
10
  52.500
20
  -3.991
30
  3.000
 0
SEQEND
 0
POLYLINE
8
layer0
66
1
70
8
10
  0.000
20
  0.000
30
  0.000
  0
VERTEX
8
layer0
10
  52.500
20
  -3.991
30
  3.000
  0
VERTEX
8
layer0
10
  52.500
20
  -3.950
30
  3.000
 0
SEQEND
 0
ARC
8
layer0
66
1
10
  52.400
20
  -3.991
30
  3.000
40
  0.100
50
  45.000
51
  22.500
 0
POLYLINE
8
layer0
66
1
70
8
10
  0.000
20
  0.000
30
  0.000
  0
VERTEX
8
layer0
10
  52.471
20
  -3.921
30
  3.000
  0
VERTEX
8
layer0
10
  52.250
20
  -3.700
30
  3.000
 0
SEQEND
 0
POLYLINE
8
layer0
66
1
70
8
10
  0.000
20
  0.000
30
  0.000
  0
VERTEX
8
layer0
10
  52.250
20
  -3.700
30
  3.000
  0
VERTEX
8
layer0
10
  51.500
20
  -3.700
30
  3.000
 0
SEQEND
 0
POLYLINE
8
layer0
66
1
70
8
10
  0.000
20
  0.000
30
  0.000
  0
VERTEX
8
layer0
10
  51.500
20
  -3.700
30
  3.000
  0
VERTEX
8
layer0
10
  50.500
20
  -3.200
30
  3.000
 0
SEQEND
 0
POLYLINE
8
layer0
66
1
70
8
10
  0.000
20
  0.000
30
  0.000
  0
VERTEX
8
layer0
10
  50.500
20
  -3.200
30
  3.000
  0
VERTEX
8
layer0
10
  49.500
20
  -3.200
30
  3.000
 0
SEQEND
 0
POLYLINE
8
layer0
66
1
70
8
10
  0.000
20
  0.000
30
  0.000
  0
VERTEX
8
layer0
10
  49.500
20
  -3.200
30
  3.000
  0
VERTEX
8
layer0
10
  49.500
20
  -0.000
30
  3.000
 0
SEQEND
 0
POLYLINE
8
layer0
66
1
70
8
10
  0.000
20
  0.000
30
  0.000
  0
VERTEX
8
layer0
10
  49.500
20
  -0.000
30
  3.000
  0
VERTEX
8
layer0
10
  55.500
20
  -0.000
30
  3.000
 0
SEQEND
 0
POLYLINE
8
layer0
66
1
70
8
10
  0.000
20
  0.000
30
  0.000
  0
VERTEX
8
layer0
10
  55.500
20
  -0.000
30
  3.000
  0
VERTEX
8
layer0
10
  39.000
20
  25.000
30
  3.000
 0
SEQEND
 0
ARC
8
layer0
66
1
10
  30.875
20
  18.906
30
  3.000
40
  10.156
50
  36.870
51
  90.000
 0
POLYLINE
8
layer0
66
1
70
8
10
  0.000
20
  0.000
30
  0.000
  0
VERTEX
8
layer0
10
  30.875
20
  29.062
30
  3.000
  0
VERTEX
8
layer0
10
  24.625
20
  29.062
30
  3.000
 0
SEQEND
 0
ARC
8
layer0
66
1
10
  24.625
20
  18.906
30
  3.000
40
  10.156
50
  90.000
51
  143.130
 0
POLYLINE
8
layer0
66
1
70
8
10
  0.000
20
  0.000
30
  0.000
  0
VERTEX
8
layer0
10
  16.500
20
  25.000
30
  3.000
  0
VERTEX
8
layer0
10
  -0.000
20
  -0.000
30
  3.000
 0
SEQEND
 0
POLYLINE
8
layer0
66
1
70
8
10
  0.000
20
  0.000
30
  0.000
  0
VERTEX
8
layer0
10
  -0.000
20
  -0.000
30
  3.000
  0
VERTEX
8
layer0
10
  6.000
20
  0.000
30
  3.000
 0
SEQEND
 0
POLYLINE
8
layer0
66
1
70
8
10
  0.000
20
  0.000
30
  0.000
  0
VERTEX
8
layer0
10
  6.000
20
  0.000
30
  3.000
  0
VERTEX
8
layer0
10
  6.000
20
  -3.200
30
  3.000
 0
SEQEND
 0
POLYLINE
8
layer0
66
1
70
8
10
  0.000
20
  0.000
30
  0.000
  0
VERTEX
8
layer0
10
  6.000
20
  -3.200
30
  3.000
  0
VERTEX
8
layer0
10
  5.000
20
  -3.200
30
  3.000
 0
SEQEND
 0
POLYLINE
8
layer0
66
1
70
8
10
  0.000
20
  0.000
30
  0.000
  0
VERTEX
8
layer0
10
  5.000
20
  -3.200
30
  3.000
  0
VERTEX
8
layer0
10
  4.000
20
  -3.700
30
  3.000
 0
SEQEND
 0
POLYLINE
8
layer0
66
1
70
8
10
  0.000
20
  0.000
30
  0.000
  0
VERTEX
8
layer0
10
  4.000
20
  -3.700
30
  3.000
  0
VERTEX
8
layer0
10
  3.250
20
  -3.700
30
  3.000
 0
SEQEND
 0
POLYLINE
8
layer0
66
1
70
8
10
  0.000
20
  0.000
30
  0.000
  0
VERTEX
8
layer0
10
  3.250
20
  -3.700
30
  3.000
  0
VERTEX
8
layer0
10
  3.029
20
  -3.921
30
  3.000
 0
SEQEND
 0
ARC
8
layer0
66
1
10
  3.100
20
  -3.991
30
  3.000
40
  0.100
50
  135.000
51
  157.500
 0
POLYLINE
8
layer0
66
1
70
8
10
  0.000
20
  0.000
30
  0.000
  0
VERTEX
8
layer0
10
  3.000
20
  -3.950
30
  3.000
  0
VERTEX
8
layer0
10
  3.000
20
  -3.991
30
  3.000
 0
SEQEND
 0
POLYLINE
8
layer0
66
1
70
8
10
  0.000
20
  0.000
30
  0.000
  0
VERTEX
8
layer0
10
  3.000
20
  -3.991
30
  3.000
  0
VERTEX
8
layer0
10
  3.000
20
  -5.000
30
  3.000
 0
SEQEND
 0
POLYLINE
8
layer0
66
1
70
8
10
  0.000
20
  0.000
30
  0.000
  0
VERTEX
8
layer0
10
  3.000
20
  -5.000
30
  3.000
  0
VERTEX
8
layer0
10
  7.000
20
  -9.000
30
  3.000
 0
SEQEND
 0
POLYLINE
8
layer0
66
1
70
8
10
  0.000
20
  0.000
30
  0.000
  0
VERTEX
8
layer0
10
  7.000
20
  -9.000
30
  3.000
  0
VERTEX
8
layer0
10
  10.600
20
  -9.000
30
  3.000
 0
SEQEND
 0
POLYLINE
8
layer0
66
1
70
8
10
  0.000
20
  0.000
30
  0.000
  0
VERTEX
8
layer0
10
  10.600
20
  -9.000
30
  3.000
  0
VERTEX
8
layer0
10
  10.600
20
  12.000
30
  3.000
 0
SEQEND
 0
ARC
8
layer0
66
1
10
  12.200
20
  12.000
30
  3.000
40
  1.600
50
  -0.000
51
  180.000
 0
POLYLINE
8
layer0
66
1
70
8
10
  0.000
20
  0.000
30
  0.000
  0
VERTEX
8
layer0
10
  21.500
20
  3.000
30
  0.000
  0
VERTEX
8
layer0
10
  34.000
20
  3.000
30
  0.000
 0
SEQEND
 0
POLYLINE
8
layer0
66
1
70
8
10
  0.000
20
  0.000
30
  0.000
  0
VERTEX
8
layer0
10
  34.000
20
  3.000
30
  0.000
  0
VERTEX
8
layer0
10
  34.000
20
  25.000
30
  0.000
 0
SEQEND
 0
POLYLINE
8
layer0
66
1
70
8
10
  0.000
20
  0.000
30
  0.000
  0
VERTEX
8
layer0
10
  34.000
20
  25.000
30
  0.000
  0
VERTEX
8
layer0
10
  21.500
20
  25.000
30
  0.000
 0
SEQEND
 0
POLYLINE
8
layer0
66
1
70
8
10
  0.000
20
  0.000
30
  0.000
  0
VERTEX
8
layer0
10
  21.500
20
  25.000
30
  0.000
  0
VERTEX
8
layer0
10
  21.500
20
  3.000
30
  0.000
 0
SEQEND
 0
POLYLINE
8
layer0
66
1
70
8
10
  0.000
20
  0.000
30
  0.000
  0
VERTEX
8
layer0
10
  41.700
20
  -9.000
30
  -0.000
  0
VERTEX
8
layer0
10
  13.800
20
  -9.000
30
  -0.000
 0
SEQEND
 0
POLYLINE
8
layer0
66
1
70
8
10
  0.000
20
  0.000
30
  0.000
  0
VERTEX
8
layer0
10
  13.800
20
  -9.000
30
  -0.000
  0
VERTEX
8
layer0
10
  13.800
20
  12.000
30
  0.000
 0
SEQEND
 0
ARC
8
layer0
66
1
10
  12.200
20
  12.000
30
  0.000
40
  1.600
50
  -0.000
51
  180.000
 0
POLYLINE
8
layer0
66
1
70
8
10
  0.000
20
  0.000
30
  0.000
  0
VERTEX
8
layer0
10
  10.600
20
  12.000
30
  0.000
  0
VERTEX
8
layer0
10
  10.600
20
  -9.000
30
  -0.000
 0
SEQEND
 0
POLYLINE
8
layer0
66
1
70
8
10
  0.000
20
  0.000
30
  0.000
  0
VERTEX
8
layer0
10
  10.600
20
  -9.000
30
  -0.000
  0
VERTEX
8
layer0
10
  7.000
20
  -9.000
30
  -0.000
 0
SEQEND
 0
POLYLINE
8
layer0
66
1
70
8
10
  0.000
20
  0.000
30
  0.000
  0
VERTEX
8
layer0
10
  7.000
20
  -9.000
30
  -0.000
  0
VERTEX
8
layer0
10
  3.000
20
  -5.000
30
  -0.000
 0
SEQEND
 0
POLYLINE
8
layer0
66
1
70
8
10
  0.000
20
  0.000
30
  0.000
  0
VERTEX
8
layer0
10
  3.000
20
  -5.000
30
  -0.000
  0
VERTEX
8
layer0
10
  3.000
20
  -3.991
30
  -0.000
 0
SEQEND
 0
POLYLINE
8
layer0
66
1
70
8
10
  0.000
20
  0.000
30
  0.000
  0
VERTEX
8
layer0
10
  3.000
20
  -3.991
30
  -0.000
  0
VERTEX
8
layer0
10
  3.000
20
  -3.950
30
  -0.000
 0
SEQEND
 0
ARC
8
layer0
66
1
10
  3.100
20
  -3.991
30
  -0.000
40
  0.100
50
  135.000
51
  157.500
 0
POLYLINE
8
layer0
66
1
70
8
10
  0.000
20
  0.000
30
  0.000
  0
VERTEX
8
layer0
10
  3.029
20
  -3.921
30
  -0.000
  0
VERTEX
8
layer0
10
  3.250
20
  -3.700
30
  -0.000
 0
SEQEND
 0
POLYLINE
8
layer0
66
1
70
8
10
  0.000
20
  0.000
30
  0.000
  0
VERTEX
8
layer0
10
  3.250
20
  -3.700
30
  -0.000
  0
VERTEX
8
layer0
10
  4.000
20
  -3.700
30
  -0.000
 0
SEQEND
 0
POLYLINE
8
layer0
66
1
70
8
10
  0.000
20
  0.000
30
  0.000
  0
VERTEX
8
layer0
10
  4.000
20
  -3.700
30
  -0.000
  0
VERTEX
8
layer0
10
  5.000
20
  -3.200
30
  -0.000
 0
SEQEND
 0
POLYLINE
8
layer0
66
1
70
8
10
  0.000
20
  0.000
30
  0.000
  0
VERTEX
8
layer0
10
  5.000
20
  -3.200
30
  -0.000
  0
VERTEX
8
layer0
10
  6.000
20
  -3.200
30
  -0.000
 0
SEQEND
 0
POLYLINE
8
layer0
66
1
70
8
10
  0.000
20
  0.000
30
  0.000
  0
VERTEX
8
layer0
10
  6.000
20
  -3.200
30
  -0.000
  0
VERTEX
8
layer0
10
  6.000
20
  0.000
30
  0.000
 0
SEQEND
 0
POLYLINE
8
layer0
66
1
70
8
10
  0.000
20
  0.000
30
  0.000
  0
VERTEX
8
layer0
10
  6.000
20
  0.000
30
  0.000
  0
VERTEX
8
layer0
10
  0.000
20
  0.000
30
  0.000
 0
SEQEND
 0
POLYLINE
8
layer0
66
1
70
8
10
  0.000
20
  0.000
30
  0.000
  0
VERTEX
8
layer0
10
  0.000
20
  0.000
30
  0.000
  0
VERTEX
8
layer0
10
  16.500
20
  25.000
30
  0.000
 0
SEQEND
 0
ARC
8
layer0
66
1
10
  24.625
20
  18.906
30
  0.000
40
  10.156
50
  90.000
51
  143.130
 0
POLYLINE
8
layer0
66
1
70
8
10
  0.000
20
  0.000
30
  0.000
  0
VERTEX
8
layer0
10
  24.625
20
  29.062
30
  0.000
  0
VERTEX
8
layer0
10
  30.875
20
  29.062
30
  0.000
 0
SEQEND
 0
ARC
8
layer0
66
1
10
  30.875
20
  18.906
30
  0.000
40
  10.156
50
  36.870
51
  90.000
 0
POLYLINE
8
layer0
66
1
70
8
10
  0.000
20
  0.000
30
  0.000
  0
VERTEX
8
layer0
10
  39.000
20
  25.000
30
  0.000
  0
VERTEX
8
layer0
10
  55.500
20
  -0.000
30
  -0.000
 0
SEQEND
 0
POLYLINE
8
layer0
66
1
70
8
10
  0.000
20
  0.000
30
  0.000
  0
VERTEX
8
layer0
10
  55.500
20
  -0.000
30
  -0.000
  0
VERTEX
8
layer0
10
  49.500
20
  -0.000
30
  0.000
 0
SEQEND
 0
POLYLINE
8
layer0
66
1
70
8
10
  0.000
20
  0.000
30
  0.000
  0
VERTEX
8
layer0
10
  49.500
20
  -0.000
30
  0.000
  0
VERTEX
8
layer0
10
  49.500
20
  -3.200
30
  -0.000
 0
SEQEND
 0
POLYLINE
8
layer0
66
1
70
8
10
  0.000
20
  0.000
30
  0.000
  0
VERTEX
8
layer0
10
  49.500
20
  -3.200
30
  -0.000
  0
VERTEX
8
layer0
10
  50.500
20
  -3.200
30
  -0.000
 0
SEQEND
 0
POLYLINE
8
layer0
66
1
70
8
10
  0.000
20
  0.000
30
  0.000
  0
VERTEX
8
layer0
10
  50.500
20
  -3.200
30
  -0.000
  0
VERTEX
8
layer0
10
  51.500
20
  -3.700
30
  -0.000
 0
SEQEND
 0
POLYLINE
8
layer0
66
1
70
8
10
  0.000
20
  0.000
30
  0.000
  0
VERTEX
8
layer0
10
  51.500
20
  -3.700
30
  -0.000
  0
VERTEX
8
layer0
10
  52.250
20
  -3.700
30
  -0.000
 0
SEQEND
 0
POLYLINE
8
layer0
66
1
70
8
10
  0.000
20
  0.000
30
  0.000
  0
VERTEX
8
layer0
10
  52.250
20
  -3.700
30
  -0.000
  0
VERTEX
8
layer0
10
  52.471
20
  -3.921
30
  -0.000
 0
SEQEND
 0
ARC
8
layer0
66
1
10
  52.400
20
  -3.991
30
  -0.000
40
  0.100
50
  45.000
51
  22.500
 0
POLYLINE
8
layer0
66
1
70
8
10
  0.000
20
  0.000
30
  0.000
  0
VERTEX
8
layer0
10
  52.500
20
  -3.950
30
  -0.000
  0
VERTEX
8
layer0
10
  52.500
20
  -3.991
30
  -0.000
 0
SEQEND
 0
POLYLINE
8
layer0
66
1
70
8
10
  0.000
20
  0.000
30
  0.000
  0
VERTEX
8
layer0
10
  52.500
20
  -3.991
30
  -0.000
  0
VERTEX
8
layer0
10
  52.500
20
  -5.000
30
  -0.000
 0
SEQEND
 0
POLYLINE
8
layer0
66
1
70
8
10
  0.000
20
  0.000
30
  0.000
  0
VERTEX
8
layer0
10
  52.500
20
  -5.000
30
  -0.000
  0
VERTEX
8
layer0
10
  48.500
20
  -9.000
30
  -0.000
 0
SEQEND
 0
POLYLINE
8
layer0
66
1
70
8
10
  0.000
20
  0.000
30
  0.000
  0
VERTEX
8
layer0
10
  48.500
20
  -9.000
30
  -0.000
  0
VERTEX
8
layer0
10
  44.900
20
  -9.000
30
  -0.000
 0
SEQEND
 0
POLYLINE
8
layer0
66
1
70
8
10
  0.000
20
  0.000
30
  0.000
  0
VERTEX
8
layer0
10
  44.900
20
  -9.000
30
  -0.000
  0
VERTEX
8
layer0
10
  44.900
20
  12.000
30
  0.000
 0
SEQEND
 0
ARC
8
layer0
66
1
10
  43.300
20
  12.000
30
  0.000
40
  1.600
50
  -0.000
51
  180.000
 0
POLYLINE
8
layer0
66
1
70
8
10
  0.000
20
  0.000
30
  0.000
  0
VERTEX
8
layer0
10
  41.700
20
  12.000
30
  0.000
  0
VERTEX
8
layer0
10
  41.700
20
  -9.000
30
  -0.000
 0
SEQEND
 0
ENDSEC
 0
EOF
