 0
SECTION
 2
HEADER
 9
$MEASUREMENT
 70
 2
 0
ENDSEC
 0
SECTION
 2
ENTITIES
 0
POLYLINE
8
layer0
66
1
70
8
10
  0.0
20
  0.0
30
  0.0
  0
VERTEX
8
layer0
10
  22.0
20
  2.9999999999999947
30
  -3.0000000000000395
0
VERTEX
8
layer0
10
  24.0
20
  0.0
30
  -3.0000000000000395
0
VERTEX
8
layer0
10
  22.0
20
  2.9999999999999947
30
  -3.0000000000000395
0
VERTEX
8
layer0
10
  24.0
20
  0.0
30
  -15.499999999999995
 0
SEQEND
 0
ARC
8
layer0
66
1
10
  8.093750000000115
20
  0.0
30
  -6.125000000000005
40
  10.156250000000066
50
  179.98833189786166
51
  233.11154616911844
 0
POLYLINE
8
layer0
66
1
70
8
10
  0.0
20
  0.0
30
  0.0
  0
VERTEX
8
layer0
10
  -2.0624999999999174
20
  0.0
30
  -12.375000000000028
0
VERTEX
8
layer0
10
  -2.0624999999999485
20
  0.0
30
  -6.125000000000005
 0
SEQEND
 0
ARC
8
layer0
66
1
10
  8.093750000000115
20
  0.0
30
  -12.375000000000028
40
  10.156250000000032
50
  179.98833189786166
51
  233.11154616911824
 0
POLYLINE
8
layer0
66
1
70
8
10
  0.0
20
  0.0
30
  0.0
  0
VERTEX
8
layer0
10
  27.000000000000007
20
  0.0
30
  -36.99999999999998
0
VERTEX
8
layer0
10
  2.000000000000005
20
  0.0
30
  -20.499999999999986
0
VERTEX
8
layer0
10
  27.000000000000007
20
  0.0
30
  -36.99999999999998
0
VERTEX
8
layer0
10
  27.000000000000007
20
  0.0
30
  -30.99999999999999
0
VERTEX
8
layer0
10
  30.000000000000007
20
  0.0
30
  12.500000000000316
0
VERTEX
8
layer0
10
  27.000000000000053
20
  0.0
30
  12.500000000000316
0
VERTEX
8
layer0
10
  27.000000000000057
20
  0.0
30
  18.500000000000306
0
VERTEX
8
layer0
10
  2.00000000000001
20
  0.0
30
  1.9999999999999962
 0
SEQEND
 0
ARC
8
layer0
66
1
10
  8.093750000000115
20
  0.0
30
  -6.125000000000005
40
  10.156250000000066
50
  179.98833189786166
51
  233.11154616911844
 0
POLYLINE
8
layer0
66
1
70
8
10
  0.0
20
  0.0
30
  0.0
  0
VERTEX
8
layer0
10
  1.9999999999999991
20
  0.0
30
  -2.9999999999999947
0
VERTEX
8
layer0
10
  2.000000000000005
20
  0.0
30
  -15.499999999999995
0
VERTEX
8
layer0
10
  1.9999999999999991
20
  0.0
30
  -2.9999999999999947
0
VERTEX
8
layer0
10
  24.0
20
  0.0
30
  -15.499999999999995
0
VERTEX
8
layer0
10
  2.000000000000005
20
  0.0
30
  -15.499999999999995
 0
SEQEND
 0
ARC
8
layer0
66
1
10
  8.093750000000115
20
  2.9999999999999947
30
  -6.125000000000005
40
  10.156250000000066
50
  179.98833189786166
51
  233.11154616911844
 0
POLYLINE
8
layer0
66
1
70
8
10
  0.0
20
  0.0
30
  0.0
  0
VERTEX
8
layer0
10
  27.000000000000057
20
  2.9999999999999947
30
  18.500000000000306
0
VERTEX
8
layer0
10
  2.00000000000001
20
  2.9999999999999947
30
  1.9999999999999962
0
VERTEX
8
layer0
10
  27.000000000000057
20
  2.9999999999999947
30
  18.500000000000306
0
VERTEX
8
layer0
10
  27.000000000000053
20
  2.9999999999999947
30
  12.500000000000316
0
VERTEX
8
layer0
10
  30.000000000000007
20
  2.9999999999999947
30
  -30.99999999999999
0
VERTEX
8
layer0
10
  27.000000000000007
20
  2.9999999999999947
30
  -30.99999999999999
0
VERTEX
8
layer0
10
  27.000000000000007
20
  2.9999999999999947
30
  -36.99999999999998
0
VERTEX
8
layer0
10
  2.000000000000005
20
  2.9999999999999947
30
  -20.499999999999986
 0
SEQEND
 0
ARC
8
layer0
66
1
10
  8.093750000000115
20
  2.9999999999999947
30
  -12.375000000000028
40
  10.156250000000032
50
  179.98833189786166
51
  233.11154616911824
 0
POLYLINE
8
layer0
66
1
70
8
10
  0.0
20
  0.0
30
  0.0
  0
VERTEX
8
layer0
10
  -2.0624999999999174
20
  2.9999999999999947
30
  -12.375000000000028
0
VERTEX
8
layer0
10
  -2.0624999999999485
20
  2.9999999999999947
30
  -6.125000000000005
 0
SEQEND
 0
ARC
8
layer0
66
1
10
  8.093750000000115
20
  2.9999999999999947
30
  -6.125000000000005
40
  10.156250000000066
50
  179.98833189786166
51
  233.11154616911844
 0
POLYLINE
8
layer0
66
1
70
8
10
  0.0
20
  0.0
30
  0.0
  0
VERTEX
8
layer0
10
  24.0
20
  2.9999999999999947
30
  -15.499999999999995
0
VERTEX
8
layer0
10
  2.000000000000005
20
  2.9999999999999947
30
  -15.499999999999995
0
VERTEX
8
layer0
10
  24.0
20
  2.9999999999999947
30
  -15.499999999999995
0
VERTEX
8
layer0
10
  1.9999999999999991
20
  2.9999999999999947
30
  -2.9999999999999947
0
VERTEX
8
layer0
10
  2.000000000000005
20
  2.9999999999999947
30
  -15.499999999999995
 0
SEQEND
 0
ENDSEC
 0
EOF
