 0
SECTION
 2
HEADER
 9
$MEASUREMENT
 70
 2
 0
ENDSEC
 0
SECTION
 2
ENTITIES
 0
POLYLINE
8
layer0
66
1
70
8
10
  0.0
20
  0.0
30
  0.0
  0
VERTEX
8
layer0
10
  -27.000000000000007
20
  -2.9999999999999947
30
  -36.99999999999998
0
VERTEX
8
layer0
10
  -2.000000000000005
20
  -2.9999999999999947
30
  -20.499999999999986
 0
SEQEND
 0
ARC
8
layer0
66
1
10
  -8.093750000000115
20
  -2.9999999999999947
30
  -12.375000000000028
40
  10.156250000000032
50
  0.011668102138330028
51
  53.1348823733949
 0
POLYLINE
8
layer0
66
1
70
8
10
  0.0
20
  0.0
30
  0.0
  0
VERTEX
8
layer0
10
  2.062499999999916
20
  -2.9999999999999947
30
  -12.375000000000028
0
VERTEX
8
layer0
10
  2.0624999999999485
20
  -2.9999999999999947
30
  -6.125000000000005
 0
SEQEND
 0
ARC
8
layer0
66
1
10
  -8.093750000000115
20
  -2.9999999999999947
30
  -6.125000000000005
40
  10.156250000000066
50
  0.011668102138330028
51
  53.13488237339507
 0
POLYLINE
8
layer0
66
1
70
8
10
  0.0
20
  0.0
30
  0.0
  0
VERTEX
8
layer0
10
  -27.000000000000057
20
  -2.9999999999999947
30
  18.500000000000306
0
VERTEX
8
layer0
10
  -2.00000000000001
20
  -2.9999999999999947
30
  1.9999999999999962
0
VERTEX
8
layer0
10
  -27.000000000000057
20
  -2.9999999999999947
30
  18.500000000000306
0
VERTEX
8
layer0
10
  -27.000000000000053
20
  -2.9999999999999947
30
  12.500000000000316
0
VERTEX
8
layer0
10
  -30.00000000000003
20
  -2.9999999999999947
30
  -2.9999999999999947
0
VERTEX
8
layer0
10
  -1.9999999999999991
20
  -2.9999999999999947
30
  -2.9999999999999947
0
VERTEX
8
layer0
10
  -2.000000000000005
20
  -2.9999999999999947
30
  -15.499999999999995
0
VERTEX
8
layer0
10
  -2.000000000000005
20
  -2.9999999999999947
30
  -15.499999999999995
0
VERTEX
8
layer0
10
  -30.000000000000007
20
  -2.9999999999999947
30
  -15.499999999999995
0
VERTEX
8
layer0
10
  -27.000000000000007
20
  -2.9999999999999947
30
  -30.99999999999999
0
VERTEX
8
layer0
10
  -27.000000000000007
20
  -2.9999999999999947
30
  -36.99999999999998
0
VERTEX
8
layer0
10
  -2.000000000000005
20
  3.8635627531766077e-31
30
  -15.499999999999995
0
VERTEX
8
layer0
10
  -1.9999999999999991
20
  3.863562753176597e-31
30
  -2.9999999999999947
0
VERTEX
8
layer0
10
  -30.00000000000003
20
  5.795344129764904e-30
30
  -2.9999999999999947
0
VERTEX
8
layer0
10
  -27.000000000000053
20
  5.215809716788418e-30
30
  12.500000000000316
0
VERTEX
8
layer0
10
  -27.000000000000057
20
  5.2158097167884196e-30
30
  18.500000000000306
0
VERTEX
8
layer0
10
  -2.00000000000001
20
  3.863562753176619e-31
30
  1.9999999999999962
 0
SEQEND
 0
ARC
8
layer0
66
1
10
  -8.093750000000115
20
  1.5635355516761774e-30
30
  -6.125000000000005
40
  10.156250000000066
50
  0.011668102138330028
51
  53.13488237339507
 0
POLYLINE
8
layer0
66
1
70
8
10
  0.0
20
  0.0
30
  0.0
  0
VERTEX
8
layer0
10
  2.062499999999916
20
  -3.984299089213205e-31
30
  -12.375000000000028
0
VERTEX
8
layer0
10
  2.0624999999999485
20
  -3.984299089213267e-31
30
  -6.125000000000005
 0
SEQEND
 0
ARC
8
layer0
66
1
10
  -8.093750000000115
20
  1.5635355516761774e-30
30
  -12.375000000000028
40
  10.156250000000032
50
  0.011668102138330028
51
  53.1348823733949
 0
POLYLINE
8
layer0
66
1
70
8
10
  0.0
20
  0.0
30
  0.0
  0
VERTEX
8
layer0
10
  -27.000000000000007
20
  5.21580971678841e-30
30
  -36.99999999999998
0
VERTEX
8
layer0
10
  -2.000000000000005
20
  3.8635627531766077e-31
30
  -20.499999999999986
0
VERTEX
8
layer0
10
  -27.000000000000007
20
  5.21580971678841e-30
30
  -36.99999999999998
0
VERTEX
8
layer0
10
  -27.000000000000007
20
  5.21580971678841e-30
30
  -30.99999999999999
0
VERTEX
8
layer0
10
  -30.000000000000007
20
  5.795344129764899e-30
30
  -15.499999999999995
0
VERTEX
8
layer0
10
  -2.000000000000005
20
  3.8635627531766077e-31
30
  -15.499999999999995
 0
SEQEND
 0
ENDSEC
 0
EOF
