 0
SECTION
 2
HEADER
 9
$MEASUREMENT
 70
 2
 0
ENDSEC
 0
SECTION
 2
ENTITIES
 0
POLYLINE
8
layer0
66
1
70
8
10
  0.000
20
  0.000
30
  0.000
  0
VERTEX
8
layer0
10
  34.000
20
  25.000
30
  3.000
  0
VERTEX
8
layer0
10
  34.000
20
  3.000
30
  3.000
 0
SEQEND
 0
POLYLINE
8
layer0
66
1
70
8
10
  0.000
20
  0.000
30
  0.000
  0
VERTEX
8
layer0
10
  34.000
20
  3.000
30
  3.000
  0
VERTEX
8
layer0
10
  21.500
20
  3.000
30
  3.000
 0
SEQEND
 0
POLYLINE
8
layer0
66
1
70
8
10
  0.000
20
  0.000
30
  0.000
  0
VERTEX
8
layer0
10
  21.500
20
  3.000
30
  3.000
  0
VERTEX
8
layer0
10
  21.500
20
  25.000
30
  3.000
 0
SEQEND
 0
POLYLINE
8
layer0
66
1
70
8
10
  0.000
20
  0.000
30
  0.000
  0
VERTEX
8
layer0
10
  21.500
20
  25.000
30
  3.000
  0
VERTEX
8
layer0
10
  34.000
20
  25.000
30
  3.000
 0
SEQEND
 0
POLYLINE
8
layer0
66
1
70
8
10
  0.000
20
  0.000
30
  0.000
  0
VERTEX
8
layer0
10
  51.500
20
  -4.000
30
  3.000
  0
VERTEX
8
layer0
10
  51.500
20
  -3.250
30
  3.000
 0
SEQEND
 0
POLYLINE
8
layer0
66
1
70
8
10
  0.000
20
  0.000
30
  0.000
  0
VERTEX
8
layer0
10
  51.500
20
  -3.250
30
  3.000
  0
VERTEX
8
layer0
10
  51.250
20
  -3.000
30
  3.000
 0
SEQEND
 0
POLYLINE
8
layer0
66
1
70
8
10
  0.000
20
  0.000
30
  0.000
  0
VERTEX
8
layer0
10
  51.250
20
  -3.000
30
  3.000
  0
VERTEX
8
layer0
10
  49.500
20
  -3.000
30
  3.000
 0
SEQEND
 0
ARC
8
layer0
66
1
10
  49.500
20
  -1.500
30
  3.000
40
  1.500
50
  90.000
51
  -90.000
 0
POLYLINE
8
layer0
66
1
70
8
10
  0.000
20
  0.000
30
  0.000
  0
VERTEX
8
layer0
10
  49.500
20
  0.000
30
  3.000
  0
VERTEX
8
layer0
10
  55.500
20
  0.000
30
  3.000
 0
SEQEND
 0
POLYLINE
8
layer0
66
1
70
8
10
  0.000
20
  0.000
30
  0.000
  0
VERTEX
8
layer0
10
  55.500
20
  0.000
30
  3.000
  0
VERTEX
8
layer0
10
  39.000
20
  25.000
30
  3.000
 0
SEQEND
 0
ARC
8
layer0
66
1
10
  30.875
20
  18.906
30
  3.000
40
  10.156
50
  36.870
51
  90.000
 0
POLYLINE
8
layer0
66
1
70
8
10
  0.000
20
  0.000
30
  0.000
  0
VERTEX
8
layer0
10
  30.875
20
  29.062
30
  3.000
  0
VERTEX
8
layer0
10
  24.625
20
  29.062
30
  3.000
 0
SEQEND
 0
ARC
8
layer0
66
1
10
  24.625
20
  18.906
30
  3.000
40
  10.156
50
  90.000
51
  143.130
 0
POLYLINE
8
layer0
66
1
70
8
10
  0.000
20
  0.000
30
  0.000
  0
VERTEX
8
layer0
10
  16.500
20
  25.000
30
  3.000
  0
VERTEX
8
layer0
10
  0.000
20
  -0.000
30
  3.000
 0
SEQEND
 0
POLYLINE
8
layer0
66
1
70
8
10
  0.000
20
  0.000
30
  0.000
  0
VERTEX
8
layer0
10
  0.000
20
  -0.000
30
  3.000
  0
VERTEX
8
layer0
10
  6.000
20
  0.000
30
  3.000
 0
SEQEND
 0
ARC
8
layer0
66
1
10
  6.000
20
  -1.500
30
  3.000
40
  1.500
50
  -90.000
51
  90.000
 0
POLYLINE
8
layer0
66
1
70
8
10
  0.000
20
  0.000
30
  0.000
  0
VERTEX
8
layer0
10
  6.000
20
  -3.000
30
  3.000
  0
VERTEX
8
layer0
10
  4.250
20
  -3.000
30
  3.000
 0
SEQEND
 0
POLYLINE
8
layer0
66
1
70
8
10
  0.000
20
  0.000
30
  0.000
  0
VERTEX
8
layer0
10
  4.250
20
  -3.000
30
  3.000
  0
VERTEX
8
layer0
10
  4.000
20
  -3.250
30
  3.000
 0
SEQEND
 0
POLYLINE
8
layer0
66
1
70
8
10
  0.000
20
  0.000
30
  0.000
  0
VERTEX
8
layer0
10
  4.000
20
  -3.250
30
  3.000
  0
VERTEX
8
layer0
10
  4.000
20
  -4.000
30
  3.000
 0
SEQEND
 0
POLYLINE
8
layer0
66
1
70
8
10
  0.000
20
  0.000
30
  0.000
  0
VERTEX
8
layer0
10
  4.000
20
  -4.000
30
  3.000
  0
VERTEX
8
layer0
10
  8.000
20
  -8.000
30
  3.000
 0
SEQEND
 0
POLYLINE
8
layer0
66
1
70
8
10
  0.000
20
  0.000
30
  0.000
  0
VERTEX
8
layer0
10
  8.000
20
  -8.000
30
  3.000
  0
VERTEX
8
layer0
10
  10.600
20
  -8.000
30
  3.000
 0
SEQEND
 0
POLYLINE
8
layer0
66
1
70
8
10
  0.000
20
  0.000
30
  0.000
  0
VERTEX
8
layer0
10
  10.600
20
  -8.000
30
  3.000
  0
VERTEX
8
layer0
10
  10.600
20
  12.000
30
  3.000
 0
SEQEND
 0
ARC
8
layer0
66
1
10
  12.200
20
  12.000
30
  3.000
40
  1.600
50
  -0.000
51
  180.000
 0
POLYLINE
8
layer0
66
1
70
8
10
  0.000
20
  0.000
30
  0.000
  0
VERTEX
8
layer0
10
  13.800
20
  12.000
30
  3.000
  0
VERTEX
8
layer0
10
  13.800
20
  -8.000
30
  3.000
 0
SEQEND
 0
POLYLINE
8
layer0
66
1
70
8
10
  0.000
20
  0.000
30
  0.000
  0
VERTEX
8
layer0
10
  13.800
20
  -8.000
30
  3.000
  0
VERTEX
8
layer0
10
  41.700
20
  -8.000
30
  3.000
 0
SEQEND
 0
POLYLINE
8
layer0
66
1
70
8
10
  0.000
20
  0.000
30
  0.000
  0
VERTEX
8
layer0
10
  41.700
20
  -8.000
30
  3.000
  0
VERTEX
8
layer0
10
  41.700
20
  12.000
30
  3.000
 0
SEQEND
 0
ARC
8
layer0
66
1
10
  43.300
20
  12.000
30
  3.000
40
  1.600
50
  -0.000
51
  180.000
 0
POLYLINE
8
layer0
66
1
70
8
10
  0.000
20
  0.000
30
  0.000
  0
VERTEX
8
layer0
10
  44.900
20
  12.000
30
  3.000
  0
VERTEX
8
layer0
10
  44.900
20
  -8.000
30
  3.000
 0
SEQEND
 0
POLYLINE
8
layer0
66
1
70
8
10
  0.000
20
  0.000
30
  0.000
  0
VERTEX
8
layer0
10
  44.900
20
  -8.000
30
  3.000
  0
VERTEX
8
layer0
10
  47.500
20
  -8.000
30
  3.000
 0
SEQEND
 0
POLYLINE
8
layer0
66
1
70
8
10
  0.000
20
  0.000
30
  0.000
  0
VERTEX
8
layer0
10
  47.500
20
  -8.000
30
  3.000
  0
VERTEX
8
layer0
10
  51.500
20
  -4.000
30
  3.000
 0
SEQEND
 0
POLYLINE
8
layer0
66
1
70
8
10
  0.000
20
  0.000
30
  0.000
  0
VERTEX
8
layer0
10
  34.000
20
  3.000
30
  0.000
  0
VERTEX
8
layer0
10
  34.000
20
  25.000
30
  0.000
 0
SEQEND
 0
POLYLINE
8
layer0
66
1
70
8
10
  0.000
20
  0.000
30
  0.000
  0
VERTEX
8
layer0
10
  34.000
20
  25.000
30
  0.000
  0
VERTEX
8
layer0
10
  21.500
20
  25.000
30
  0.000
 0
SEQEND
 0
POLYLINE
8
layer0
66
1
70
8
10
  0.000
20
  0.000
30
  0.000
  0
VERTEX
8
layer0
10
  21.500
20
  25.000
30
  0.000
  0
VERTEX
8
layer0
10
  21.500
20
  3.000
30
  0.000
 0
SEQEND
 0
POLYLINE
8
layer0
66
1
70
8
10
  0.000
20
  0.000
30
  0.000
  0
VERTEX
8
layer0
10
  21.500
20
  3.000
30
  0.000
  0
VERTEX
8
layer0
10
  34.000
20
  3.000
30
  0.000
 0
SEQEND
 0
ARC
8
layer0
66
1
10
  6.000
20
  -1.500
30
  -0.000
40
  1.500
50
  -90.000
51
  90.000
 0
POLYLINE
8
layer0
66
1
70
8
10
  0.000
20
  0.000
30
  0.000
  0
VERTEX
8
layer0
10
  6.000
20
  0.000
30
  0.000
  0
VERTEX
8
layer0
10
  0.000
20
  0.000
30
  0.000
 0
SEQEND
 0
POLYLINE
8
layer0
66
1
70
8
10
  0.000
20
  0.000
30
  0.000
  0
VERTEX
8
layer0
10
  0.000
20
  0.000
30
  0.000
  0
VERTEX
8
layer0
10
  16.500
20
  25.000
30
  0.000
 0
SEQEND
 0
ARC
8
layer0
66
1
10
  24.625
20
  18.906
30
  0.000
40
  10.156
50
  90.000
51
  143.130
 0
POLYLINE
8
layer0
66
1
70
8
10
  0.000
20
  0.000
30
  0.000
  0
VERTEX
8
layer0
10
  24.625
20
  29.062
30
  0.000
  0
VERTEX
8
layer0
10
  30.875
20
  29.062
30
  0.000
 0
SEQEND
 0
ARC
8
layer0
66
1
10
  30.875
20
  18.906
30
  0.000
40
  10.156
50
  36.870
51
  90.000
 0
POLYLINE
8
layer0
66
1
70
8
10
  0.000
20
  0.000
30
  0.000
  0
VERTEX
8
layer0
10
  39.000
20
  25.000
30
  0.000
  0
VERTEX
8
layer0
10
  55.500
20
  0.000
30
  0.000
 0
SEQEND
 0
POLYLINE
8
layer0
66
1
70
8
10
  0.000
20
  0.000
30
  0.000
  0
VERTEX
8
layer0
10
  55.500
20
  0.000
30
  0.000
  0
VERTEX
8
layer0
10
  49.500
20
  0.000
30
  0.000
 0
SEQEND
 0
ARC
8
layer0
66
1
10
  49.500
20
  -1.500
30
  -0.000
40
  1.500
50
  90.000
51
  -90.000
 0
POLYLINE
8
layer0
66
1
70
8
10
  0.000
20
  0.000
30
  0.000
  0
VERTEX
8
layer0
10
  49.500
20
  -3.000
30
  -0.000
  0
VERTEX
8
layer0
10
  51.250
20
  -3.000
30
  -0.000
 0
SEQEND
 0
POLYLINE
8
layer0
66
1
70
8
10
  0.000
20
  0.000
30
  0.000
  0
VERTEX
8
layer0
10
  51.250
20
  -3.000
30
  -0.000
  0
VERTEX
8
layer0
10
  51.500
20
  -3.250
30
  -0.000
 0
SEQEND
 0
POLYLINE
8
layer0
66
1
70
8
10
  0.000
20
  0.000
30
  0.000
  0
VERTEX
8
layer0
10
  51.500
20
  -3.250
30
  -0.000
  0
VERTEX
8
layer0
10
  51.500
20
  -4.000
30
  -0.000
 0
SEQEND
 0
POLYLINE
8
layer0
66
1
70
8
10
  0.000
20
  0.000
30
  0.000
  0
VERTEX
8
layer0
10
  51.500
20
  -4.000
30
  -0.000
  0
VERTEX
8
layer0
10
  47.500
20
  -8.000
30
  -0.000
 0
SEQEND
 0
POLYLINE
8
layer0
66
1
70
8
10
  0.000
20
  0.000
30
  0.000
  0
VERTEX
8
layer0
10
  47.500
20
  -8.000
30
  -0.000
  0
VERTEX
8
layer0
10
  44.900
20
  -8.000
30
  -0.000
 0
SEQEND
 0
POLYLINE
8
layer0
66
1
70
8
10
  0.000
20
  0.000
30
  0.000
  0
VERTEX
8
layer0
10
  44.900
20
  -8.000
30
  -0.000
  0
VERTEX
8
layer0
10
  44.900
20
  12.000
30
  0.000
 0
SEQEND
 0
ARC
8
layer0
66
1
10
  43.300
20
  12.000
30
  0.000
40
  1.600
50
  -0.000
51
  180.000
 0
POLYLINE
8
layer0
66
1
70
8
10
  0.000
20
  0.000
30
  0.000
  0
VERTEX
8
layer0
10
  41.700
20
  12.000
30
  0.000
  0
VERTEX
8
layer0
10
  41.700
20
  -8.000
30
  -0.000
 0
SEQEND
 0
POLYLINE
8
layer0
66
1
70
8
10
  0.000
20
  0.000
30
  0.000
  0
VERTEX
8
layer0
10
  41.700
20
  -8.000
30
  -0.000
  0
VERTEX
8
layer0
10
  13.800
20
  -8.000
30
  -0.000
 0
SEQEND
 0
POLYLINE
8
layer0
66
1
70
8
10
  0.000
20
  0.000
30
  0.000
  0
VERTEX
8
layer0
10
  13.800
20
  -8.000
30
  -0.000
  0
VERTEX
8
layer0
10
  13.800
20
  12.000
30
  0.000
 0
SEQEND
 0
ARC
8
layer0
66
1
10
  12.200
20
  12.000
30
  0.000
40
  1.600
50
  -0.000
51
  180.000
 0
POLYLINE
8
layer0
66
1
70
8
10
  0.000
20
  0.000
30
  0.000
  0
VERTEX
8
layer0
10
  10.600
20
  12.000
30
  0.000
  0
VERTEX
8
layer0
10
  10.600
20
  -8.000
30
  -0.000
 0
SEQEND
 0
POLYLINE
8
layer0
66
1
70
8
10
  0.000
20
  0.000
30
  0.000
  0
VERTEX
8
layer0
10
  10.600
20
  -8.000
30
  -0.000
  0
VERTEX
8
layer0
10
  8.000
20
  -8.000
30
  -0.000
 0
SEQEND
 0
POLYLINE
8
layer0
66
1
70
8
10
  0.000
20
  0.000
30
  0.000
  0
VERTEX
8
layer0
10
  8.000
20
  -8.000
30
  -0.000
  0
VERTEX
8
layer0
10
  4.000
20
  -4.000
30
  -0.000
 0
SEQEND
 0
POLYLINE
8
layer0
66
1
70
8
10
  0.000
20
  0.000
30
  0.000
  0
VERTEX
8
layer0
10
  4.000
20
  -4.000
30
  -0.000
  0
VERTEX
8
layer0
10
  4.000
20
  -3.250
30
  -0.000
 0
SEQEND
 0
POLYLINE
8
layer0
66
1
70
8
10
  0.000
20
  0.000
30
  0.000
  0
VERTEX
8
layer0
10
  4.000
20
  -3.250
30
  -0.000
  0
VERTEX
8
layer0
10
  4.250
20
  -3.000
30
  -0.000
 0
SEQEND
 0
POLYLINE
8
layer0
66
1
70
8
10
  0.000
20
  0.000
30
  0.000
  0
VERTEX
8
layer0
10
  4.250
20
  -3.000
30
  -0.000
  0
VERTEX
8
layer0
10
  6.000
20
  -3.000
30
  -0.000
 0
SEQEND
 0
ARC
8
layer0
66
1
10
  6.000
20
  -1.500
30
  -0.000
40
  1.500
50
  -90.000
51
  90.000
 0
ENDSEC
 0
EOF
