 0
SECTION
 2
HEADER
 9
$MEASUREMENT
 70
 2
 0
ENDSEC
 0
SECTION
 2
ENTITIES
 0
CIRCLE
8
layer0
66
1
10
  10.700
20
  -153.000
30
  0.000
40
  1.600
 0
CIRCLE
8
layer0
66
1
10
  58.300
20
  -153.000
30
  0.000
40
  1.600
 0
CIRCLE
8
layer0
66
1
10
  58.300
20
  -111.000
30
  0.000
40
  1.600
 0
CIRCLE
8
layer0
66
1
10
  58.300
20
  -90.000
30
  0.000
40
  1.600
 0
CIRCLE
8
layer0
66
1
10
  10.700
20
  -132.000
30
  0.000
40
  1.600
 0
CIRCLE
8
layer0
66
1
10
  58.300
20
  -69.000
30
  0.000
40
  1.600
 0
CIRCLE
8
layer0
66
1
10
  10.700
20
  -111.000
30
  0.000
40
  1.600
 0
CIRCLE
8
layer0
66
1
10
  58.300
20
  -132.000
30
  0.000
40
  1.600
 0
CIRCLE
8
layer0
66
1
10
  10.700
20
  -69.000
30
  0.000
40
  1.600
 0
CIRCLE
8
layer0
66
1
10
  10.700
20
  -90.000
30
  0.000
40
  1.600
 0
POLYLINE
8
layer0
66
1
70
8
10
  0.000
20
  0.000
30
  0.000
  0
VERTEX
8
layer0
10
  62.000
20
  -60.000
30
  0.000
  0
VERTEX
8
layer0
10
  7.000
20
  -60.000
30
  -0.000
 0
SEQEND
 0
ARC
8
layer0
66
1
10
  7.000
20
  -62.000
30
  -0.000
40
  2.000
50
  90.000
51
  180.000
 0
POLYLINE
8
layer0
66
1
70
8
10
  0.000
20
  0.000
30
  0.000
  0
VERTEX
8
layer0
10
  5.000
20
  -62.000
30
  -0.000
  0
VERTEX
8
layer0
10
  5.000
20
  -160.000
30
  -0.000
 0
SEQEND
 0
ARC
8
layer0
66
1
10
  7.000
20
  -160.000
30
  -0.000
40
  2.000
50
  180.000
51
  -90.000
 0
POLYLINE
8
layer0
66
1
70
8
10
  0.000
20
  0.000
30
  0.000
  0
VERTEX
8
layer0
10
  7.000
20
  -162.000
30
  -0.000
  0
VERTEX
8
layer0
10
  62.000
20
  -162.000
30
  0.000
 0
SEQEND
 0
ARC
8
layer0
66
1
10
  62.000
20
  -160.000
30
  0.000
40
  2.000
50
  -90.000
51
  -0.000
 0
POLYLINE
8
layer0
66
1
70
8
10
  0.000
20
  0.000
30
  0.000
  0
VERTEX
8
layer0
10
  64.000
20
  -160.000
30
  0.000
  0
VERTEX
8
layer0
10
  64.000
20
  -62.000
30
  0.000
 0
SEQEND
 0
ARC
8
layer0
66
1
10
  62.000
20
  -62.000
30
  0.000
40
  2.000
50
  -0.000
51
  90.000
 0
CIRCLE
8
layer0
66
1
10
  10.700
20
  -153.000
30
  -1.500
40
  1.600
 0
CIRCLE
8
layer0
66
1
10
  58.300
20
  -153.000
30
  -1.500
40
  1.600
 0
CIRCLE
8
layer0
66
1
10
  58.300
20
  -132.000
30
  -1.500
40
  1.600
 0
CIRCLE
8
layer0
66
1
10
  58.300
20
  -111.000
30
  -1.500
40
  1.600
 0
CIRCLE
8
layer0
66
1
10
  58.300
20
  -69.000
30
  -1.500
40
  1.600
 0
CIRCLE
8
layer0
66
1
10
  58.300
20
  -90.000
30
  -1.500
40
  1.600
 0
CIRCLE
8
layer0
66
1
10
  10.700
20
  -132.000
30
  -1.500
40
  1.600
 0
CIRCLE
8
layer0
66
1
10
  10.700
20
  -90.000
30
  -1.500
40
  1.600
 0
CIRCLE
8
layer0
66
1
10
  10.700
20
  -111.000
30
  -1.500
40
  1.600
 0
CIRCLE
8
layer0
66
1
10
  10.700
20
  -69.000
30
  -1.500
40
  1.600
 0
POLYLINE
8
layer0
66
1
70
8
10
  0.000
20
  0.000
30
  0.000
  0
VERTEX
8
layer0
10
  7.000
20
  -60.000
30
  -1.500
  0
VERTEX
8
layer0
10
  62.000
20
  -60.000
30
  -1.500
 0
SEQEND
 0
ARC
8
layer0
66
1
10
  62.000
20
  -62.000
30
  -1.500
40
  2.000
50
  -0.000
51
  90.000
 0
POLYLINE
8
layer0
66
1
70
8
10
  0.000
20
  0.000
30
  0.000
  0
VERTEX
8
layer0
10
  64.000
20
  -62.000
30
  -1.500
  0
VERTEX
8
layer0
10
  64.000
20
  -160.000
30
  -1.500
 0
SEQEND
 0
ARC
8
layer0
66
1
10
  62.000
20
  -160.000
30
  -1.500
40
  2.000
50
  -90.000
51
  -0.000
 0
POLYLINE
8
layer0
66
1
70
8
10
  0.000
20
  0.000
30
  0.000
  0
VERTEX
8
layer0
10
  62.000
20
  -162.000
30
  -1.500
  0
VERTEX
8
layer0
10
  7.000
20
  -162.000
30
  -1.500
 0
SEQEND
 0
ARC
8
layer0
66
1
10
  7.000
20
  -160.000
30
  -1.500
40
  2.000
50
  180.000
51
  -90.000
 0
POLYLINE
8
layer0
66
1
70
8
10
  0.000
20
  0.000
30
  0.000
  0
VERTEX
8
layer0
10
  5.000
20
  -160.000
30
  -1.500
  0
VERTEX
8
layer0
10
  5.000
20
  -62.000
30
  -1.500
 0
SEQEND
 0
ARC
8
layer0
66
1
10
  7.000
20
  -62.000
30
  -1.500
40
  2.000
50
  90.000
51
  180.000
 0
ENDSEC
 0
EOF
