 0
SECTION
 2
HEADER
 9
$MEASUREMENT
 70
 2
 0
ENDSEC
 0
SECTION
 2
ENTITIES
 0
POLYLINE
8
layer0
66
1
70
8
10
  0.0
20
  0.0
30
  0.0
  0
VERTEX
8
layer0
10
  3.392943344082587e-28
20
  102.99999999999977
30
  -1.8047785488306544e-13
0
VERTEX
8
layer0
10
  -6.785886688165172e-28
20
  6.324709922950078e-28
30
  3.6095570976613087e-13
0
VERTEX
8
layer0
10
  3.392943344082587e-28
20
  102.99999999999977
30
  -1.8047785488306544e-13
0
VERTEX
8
layer0
10
  96.0
20
  102.99999999999977
30
  3.6095570976613087e-13
0
VERTEX
8
layer0
10
  96.0
20
  6.324709922950078e-28
30
  5.414335646491963e-13
 0
SEQEND
 0
CIRCLE
8
layer0
66
1
10
  85.5
20
  92.49999999999976
30
  3.596141723132683e-13
40
  1.599999999999997
 0
CIRCLE
8
layer0
66
1
10
  85.5
20
  52.49999999999997
30
  3.394637322049647e-13
40
  1.5999999999999963
 0
CIRCLE
8
layer0
66
1
10
  85.5
20
  29.99999999999999
30
  4.2400797005067256e-13
40
  1.599999999999997
 0
CIRCLE
8
layer0
66
1
10
  85.5
20
  7.500000000000009
30
  5.085522078963805e-13
40
  1.599999999999997
 0
CIRCLE
8
layer0
66
1
10
  10.500000000000004
20
  7.500000000000009
30
  2.3219549260668653e-13
40
  1.599999999999997
 0
CIRCLE
8
layer0
66
1
10
  10.500000000000004
20
  29.99999999999999
30
  1.4765125476097864e-13
40
  1.599999999999997
 0
CIRCLE
8
layer0
66
1
10
  10.500000000000004
20
  52.49999999999997
30
  6.310701691527076e-14
40
  1.5999999999999968
 0
CIRCLE
8
layer0
66
1
10
  10.500000000000004
20
  92.49999999999976
30
  8.325745702357436e-14
40
  1.599999999999997
 0
POLYLINE
8
layer0
66
1
70
8
10
  0.0
20
  0.0
30
  0.0
  0
VERTEX
8
layer0
10
  64.94430526118798
20
  63.999999999999474
30
  2.8066904530403807e-13
0
VERTEX
8
layer0
10
  64.94430526118798
20
  76.49999999999947
30
  2.587663930124039e-13
0
VERTEX
8
layer0
10
  57.499999999999986
20
  76.49999999999947
30
  1.8837193581317587e-13
0
VERTEX
8
layer0
10
  57.499999999999986
20
  76.49999999999947
30
  1.8837193581317587e-13
0
VERTEX
8
layer0
10
  54.49999999999999
20
  91.99999999999979
30
  1.330129821460699e-13
0
VERTEX
8
layer0
10
  54.49999999999999
20
  76.49999999999947
30
  1.8273200284808005e-13
0
VERTEX
8
layer0
10
  42.94430526118798
20
  76.49999999999947
30
  2.0048708570641399e-13
0
VERTEX
8
layer0
10
  42.94430526118798
20
  63.999999999999474
30
  2.2238973799804818e-13
0
VERTEX
8
layer0
10
  54.49999999999999
20
  63.999999999999474
30
  2.2719438700009743e-13
0
VERTEX
8
layer0
10
  54.49999999999999
20
  63.999999999999474
30
  2.2719438700009743e-13
0
VERTEX
8
layer0
10
  54.49999999999999
20
  48.49999999999948
30
  2.5435367584172385e-13
0
VERTEX
8
layer0
10
  57.499999999999986
20
  63.999999999999474
30
  2.3283431996519324e-13
0
VERTEX
8
layer0
10
  64.94430526118798
20
  63.999999999999474
30
  2.8066904530403807e-13
0
VERTEX
8
layer0
10
  41.49999999999997
20
  91.99999999999979
30
  1.424128704212295e-13
0
VERTEX
8
layer0
10
  38.49999999999997
20
  91.99999999999979
30
  1.3677293745613374e-13
0
VERTEX
8
layer0
10
  38.49999999999997
20
  48.49999999999948
30
  2.129941674310213e-13
0
VERTEX
8
layer0
10
  41.49999999999997
20
  48.49999999999948
30
  2.186341003961171e-13
0
VERTEX
8
layer0
10
  -1.6919798895288052e-14
20
  5.2566365499928324e-15
30
  3.0000000000003553
0
VERTEX
8
layer0
10
  96.0
20
  5.2566365499928324e-15
30
  3.000000000000536
0
VERTEX
8
layer0
10
  96.0
20
  102.99999999999977
30
  3.0000000000003553
0
VERTEX
8
layer0
10
  -1.6919798895287033e-14
20
  102.99999999999977
30
  2.999999999999814
 0
SEQEND
 0
CIRCLE
8
layer0
66
1
10
  85.49999999999999
20
  7.500000000000014
30
  3.000000000000503
40
  1.599999999999997
 0
CIRCLE
8
layer0
66
1
10
  85.49999999999999
20
  29.999999999999996
30
  3.0000000000004188
40
  1.599999999999997
 0
CIRCLE
8
layer0
66
1
10
  85.49999999999999
20
  52.49999999999997
30
  3.000000000000334
40
  1.5999999999999963
 0
CIRCLE
8
layer0
66
1
10
  85.49999999999999
20
  92.49999999999976
30
  3.000000000000354
40
  1.599999999999997
 0
CIRCLE
8
layer0
66
1
10
  10.499999999999998
20
  92.49999999999976
30
  3.0000000000000777
40
  1.599999999999997
 0
CIRCLE
8
layer0
66
1
10
  10.499999999999998
20
  7.500000000000014
30
  3.000000000000227
40
  1.599999999999997
 0
CIRCLE
8
layer0
66
1
10
  10.499999999999998
20
  29.999999999999996
30
  3.000000000000142
40
  1.599999999999997
 0
CIRCLE
8
layer0
66
1
10
  10.499999999999998
20
  52.49999999999997
30
  3.0000000000000577
40
  1.5999999999999968
 0
POLYLINE
8
layer0
66
1
70
8
10
  0.0
20
  0.0
30
  0.0
  0
VERTEX
8
layer0
10
  64.94430526118798
20
  63.999999999999474
30
  3.0000000000002807
0
VERTEX
8
layer0
10
  64.94430526118798
20
  76.49999999999947
30
  3.000000000000259
0
VERTEX
8
layer0
10
  64.94430526118798
20
  63.999999999999474
30
  3.0000000000002807
0
VERTEX
8
layer0
10
  57.49999999999997
20
  63.999999999999474
30
  3.00000000000025
0
VERTEX
8
layer0
10
  54.49999999999998
20
  48.49999999999949
30
  3.000000000000272
0
VERTEX
8
layer0
10
  54.49999999999998
20
  63.999999999999474
30
  3.0000000000002442
0
VERTEX
8
layer0
10
  54.49999999999998
20
  63.999999999999474
30
  3.0000000000002442
0
VERTEX
8
layer0
10
  42.94430526118797
20
  63.999999999999474
30
  3.0000000000002225
0
VERTEX
8
layer0
10
  42.94430526118797
20
  76.49999999999947
30
  3.0000000000002007
0
VERTEX
8
layer0
10
  54.49999999999998
20
  76.49999999999947
30
  3.000000000000205
0
VERTEX
8
layer0
10
  54.49999999999998
20
  91.99999999999979
30
  3.0000000000001554
0
VERTEX
8
layer0
10
  57.49999999999997
20
  76.49999999999947
30
  3.000000000000211
0
VERTEX
8
layer0
10
  57.49999999999997
20
  76.49999999999947
30
  3.000000000000211
0
VERTEX
8
layer0
10
  41.499999999999964
20
  91.99999999999979
30
  3.0000000000001705
0
VERTEX
8
layer0
10
  41.499999999999964
20
  48.49999999999949
30
  3.000000000000247
0
VERTEX
8
layer0
10
  38.49999999999997
20
  48.49999999999949
30
  3.000000000000241
0
VERTEX
8
layer0
10
  38.49999999999997
20
  91.99999999999979
30
  3.000000000000165
 0
SEQEND
 0
ENDSEC
 0
EOF
