 0
SECTION
 2
HEADER
 9
$MEASUREMENT
 70
 2
 0
ENDSEC
 0
SECTION
 2
ENTITIES
 0
POLYLINE
8
layer0
66
1
70
8
10
  0.000
20
  0.000
30
  0.000
  0
VERTEX
8
layer0
10
  -0.000
20
  0.000
30
  0.000
  0
VERTEX
8
layer0
10
  0.000
20
  103.000
30
  -0.000
 0
SEQEND
 0
POLYLINE
8
layer0
66
1
70
8
10
  0.000
20
  0.000
30
  0.000
  0
VERTEX
8
layer0
10
  0.000
20
  103.000
30
  -0.000
  0
VERTEX
8
layer0
10
  96.000
20
  103.000
30
  0.000
 0
SEQEND
 0
POLYLINE
8
layer0
66
1
70
8
10
  0.000
20
  0.000
30
  0.000
  0
VERTEX
8
layer0
10
  96.000
20
  103.000
30
  0.000
  0
VERTEX
8
layer0
10
  96.000
20
  0.000
30
  0.000
 0
SEQEND
 0
POLYLINE
8
layer0
66
1
70
8
10
  0.000
20
  0.000
30
  0.000
  0
VERTEX
8
layer0
10
  96.000
20
  0.000
30
  0.000
  0
VERTEX
8
layer0
10
  -0.000
20
  0.000
30
  0.000
 0
SEQEND
 0
CIRCLE
8
layer0
66
1
10
  85.500
20
  92.500
30
  0.000
40
  1.600
 0
CIRCLE
8
layer0
66
1
10
  85.500
20
  52.500
30
  0.000
40
  1.600
 0
CIRCLE
8
layer0
66
1
10
  85.500
20
  30.000
30
  0.000
40
  1.600
 0
CIRCLE
8
layer0
66
1
10
  85.500
20
  7.500
30
  0.000
40
  1.600
 0
CIRCLE
8
layer0
66
1
10
  10.500
20
  7.500
30
  0.000
40
  1.600
 0
CIRCLE
8
layer0
66
1
10
  10.500
20
  30.000
30
  0.000
40
  1.600
 0
CIRCLE
8
layer0
66
1
10
  10.500
20
  52.500
30
  0.000
40
  1.600
 0
CIRCLE
8
layer0
66
1
10
  10.500
20
  92.500
30
  0.000
40
  1.600
 0
POLYLINE
8
layer0
66
1
70
8
10
  0.000
20
  0.000
30
  0.000
  0
VERTEX
8
layer0
10
  64.944
20
  64.000
30
  0.000
  0
VERTEX
8
layer0
10
  64.944
20
  76.500
30
  0.000
 0
SEQEND
 0
POLYLINE
8
layer0
66
1
70
8
10
  0.000
20
  0.000
30
  0.000
  0
VERTEX
8
layer0
10
  64.944
20
  76.500
30
  0.000
  0
VERTEX
8
layer0
10
  57.500
20
  76.500
30
  0.000
 0
SEQEND
 0
POLYLINE
8
layer0
66
1
70
8
10
  0.000
20
  0.000
30
  0.000
  0
VERTEX
8
layer0
10
  57.500
20
  76.500
30
  0.000
  0
VERTEX
8
layer0
10
  57.500
20
  92.000
30
  0.000
 0
SEQEND
 0
POLYLINE
8
layer0
66
1
70
8
10
  0.000
20
  0.000
30
  0.000
  0
VERTEX
8
layer0
10
  57.500
20
  92.000
30
  0.000
  0
VERTEX
8
layer0
10
  54.500
20
  92.000
30
  0.000
 0
SEQEND
 0
POLYLINE
8
layer0
66
1
70
8
10
  0.000
20
  0.000
30
  0.000
  0
VERTEX
8
layer0
10
  54.500
20
  92.000
30
  0.000
  0
VERTEX
8
layer0
10
  54.500
20
  76.500
30
  0.000
 0
SEQEND
 0
POLYLINE
8
layer0
66
1
70
8
10
  0.000
20
  0.000
30
  0.000
  0
VERTEX
8
layer0
10
  54.500
20
  76.500
30
  0.000
  0
VERTEX
8
layer0
10
  42.944
20
  76.500
30
  0.000
 0
SEQEND
 0
POLYLINE
8
layer0
66
1
70
8
10
  0.000
20
  0.000
30
  0.000
  0
VERTEX
8
layer0
10
  42.944
20
  76.500
30
  0.000
  0
VERTEX
8
layer0
10
  42.944
20
  64.000
30
  0.000
 0
SEQEND
 0
POLYLINE
8
layer0
66
1
70
8
10
  0.000
20
  0.000
30
  0.000
  0
VERTEX
8
layer0
10
  42.944
20
  64.000
30
  0.000
  0
VERTEX
8
layer0
10
  54.500
20
  64.000
30
  0.000
 0
SEQEND
 0
POLYLINE
8
layer0
66
1
70
8
10
  0.000
20
  0.000
30
  0.000
  0
VERTEX
8
layer0
10
  54.500
20
  64.000
30
  0.000
  0
VERTEX
8
layer0
10
  54.500
20
  48.500
30
  0.000
 0
SEQEND
 0
POLYLINE
8
layer0
66
1
70
8
10
  0.000
20
  0.000
30
  0.000
  0
VERTEX
8
layer0
10
  54.500
20
  48.500
30
  0.000
  0
VERTEX
8
layer0
10
  57.500
20
  48.500
30
  0.000
 0
SEQEND
 0
POLYLINE
8
layer0
66
1
70
8
10
  0.000
20
  0.000
30
  0.000
  0
VERTEX
8
layer0
10
  57.500
20
  48.500
30
  0.000
  0
VERTEX
8
layer0
10
  57.500
20
  64.000
30
  0.000
 0
SEQEND
 0
POLYLINE
8
layer0
66
1
70
8
10
  0.000
20
  0.000
30
  0.000
  0
VERTEX
8
layer0
10
  57.500
20
  64.000
30
  0.000
  0
VERTEX
8
layer0
10
  64.944
20
  64.000
30
  0.000
 0
SEQEND
 0
POLYLINE
8
layer0
66
1
70
8
10
  0.000
20
  0.000
30
  0.000
  0
VERTEX
8
layer0
10
  41.500
20
  92.000
30
  0.000
  0
VERTEX
8
layer0
10
  38.500
20
  92.000
30
  0.000
 0
SEQEND
 0
POLYLINE
8
layer0
66
1
70
8
10
  0.000
20
  0.000
30
  0.000
  0
VERTEX
8
layer0
10
  38.500
20
  92.000
30
  0.000
  0
VERTEX
8
layer0
10
  38.500
20
  48.500
30
  0.000
 0
SEQEND
 0
POLYLINE
8
layer0
66
1
70
8
10
  0.000
20
  0.000
30
  0.000
  0
VERTEX
8
layer0
10
  38.500
20
  48.500
30
  0.000
  0
VERTEX
8
layer0
10
  41.500
20
  48.500
30
  0.000
 0
SEQEND
 0
POLYLINE
8
layer0
66
1
70
8
10
  0.000
20
  0.000
30
  0.000
  0
VERTEX
8
layer0
10
  41.500
20
  48.500
30
  0.000
  0
VERTEX
8
layer0
10
  41.500
20
  92.000
30
  0.000
 0
SEQEND
 0
POLYLINE
8
layer0
66
1
70
8
10
  0.000
20
  0.000
30
  0.000
  0
VERTEX
8
layer0
10
  -0.000
20
  103.000
30
  3.000
  0
VERTEX
8
layer0
10
  -0.000
20
  0.000
30
  3.000
 0
SEQEND
 0
POLYLINE
8
layer0
66
1
70
8
10
  0.000
20
  0.000
30
  0.000
  0
VERTEX
8
layer0
10
  -0.000
20
  0.000
30
  3.000
  0
VERTEX
8
layer0
10
  96.000
20
  0.000
30
  3.000
 0
SEQEND
 0
POLYLINE
8
layer0
66
1
70
8
10
  0.000
20
  0.000
30
  0.000
  0
VERTEX
8
layer0
10
  96.000
20
  0.000
30
  3.000
  0
VERTEX
8
layer0
10
  96.000
20
  103.000
30
  3.000
 0
SEQEND
 0
POLYLINE
8
layer0
66
1
70
8
10
  0.000
20
  0.000
30
  0.000
  0
VERTEX
8
layer0
10
  96.000
20
  103.000
30
  3.000
  0
VERTEX
8
layer0
10
  -0.000
20
  103.000
30
  3.000
 0
SEQEND
 0
CIRCLE
8
layer0
66
1
10
  85.500
20
  7.500
30
  3.000
40
  1.600
 0
CIRCLE
8
layer0
66
1
10
  85.500
20
  30.000
30
  3.000
40
  1.600
 0
CIRCLE
8
layer0
66
1
10
  85.500
20
  52.500
30
  3.000
40
  1.600
 0
CIRCLE
8
layer0
66
1
10
  85.500
20
  92.500
30
  3.000
40
  1.600
 0
CIRCLE
8
layer0
66
1
10
  10.500
20
  92.500
30
  3.000
40
  1.600
 0
CIRCLE
8
layer0
66
1
10
  10.500
20
  7.500
30
  3.000
40
  1.600
 0
CIRCLE
8
layer0
66
1
10
  10.500
20
  30.000
30
  3.000
40
  1.600
 0
CIRCLE
8
layer0
66
1
10
  10.500
20
  52.500
30
  3.000
40
  1.600
 0
POLYLINE
8
layer0
66
1
70
8
10
  0.000
20
  0.000
30
  0.000
  0
VERTEX
8
layer0
10
  64.944
20
  76.500
30
  3.000
  0
VERTEX
8
layer0
10
  64.944
20
  64.000
30
  3.000
 0
SEQEND
 0
POLYLINE
8
layer0
66
1
70
8
10
  0.000
20
  0.000
30
  0.000
  0
VERTEX
8
layer0
10
  64.944
20
  64.000
30
  3.000
  0
VERTEX
8
layer0
10
  57.500
20
  64.000
30
  3.000
 0
SEQEND
 0
POLYLINE
8
layer0
66
1
70
8
10
  0.000
20
  0.000
30
  0.000
  0
VERTEX
8
layer0
10
  57.500
20
  64.000
30
  3.000
  0
VERTEX
8
layer0
10
  57.500
20
  48.500
30
  3.000
 0
SEQEND
 0
POLYLINE
8
layer0
66
1
70
8
10
  0.000
20
  0.000
30
  0.000
  0
VERTEX
8
layer0
10
  57.500
20
  48.500
30
  3.000
  0
VERTEX
8
layer0
10
  54.500
20
  48.500
30
  3.000
 0
SEQEND
 0
POLYLINE
8
layer0
66
1
70
8
10
  0.000
20
  0.000
30
  0.000
  0
VERTEX
8
layer0
10
  54.500
20
  48.500
30
  3.000
  0
VERTEX
8
layer0
10
  54.500
20
  64.000
30
  3.000
 0
SEQEND
 0
POLYLINE
8
layer0
66
1
70
8
10
  0.000
20
  0.000
30
  0.000
  0
VERTEX
8
layer0
10
  54.500
20
  64.000
30
  3.000
  0
VERTEX
8
layer0
10
  42.944
20
  64.000
30
  3.000
 0
SEQEND
 0
POLYLINE
8
layer0
66
1
70
8
10
  0.000
20
  0.000
30
  0.000
  0
VERTEX
8
layer0
10
  42.944
20
  64.000
30
  3.000
  0
VERTEX
8
layer0
10
  42.944
20
  76.500
30
  3.000
 0
SEQEND
 0
POLYLINE
8
layer0
66
1
70
8
10
  0.000
20
  0.000
30
  0.000
  0
VERTEX
8
layer0
10
  42.944
20
  76.500
30
  3.000
  0
VERTEX
8
layer0
10
  54.500
20
  76.500
30
  3.000
 0
SEQEND
 0
POLYLINE
8
layer0
66
1
70
8
10
  0.000
20
  0.000
30
  0.000
  0
VERTEX
8
layer0
10
  54.500
20
  76.500
30
  3.000
  0
VERTEX
8
layer0
10
  54.500
20
  92.000
30
  3.000
 0
SEQEND
 0
POLYLINE
8
layer0
66
1
70
8
10
  0.000
20
  0.000
30
  0.000
  0
VERTEX
8
layer0
10
  54.500
20
  92.000
30
  3.000
  0
VERTEX
8
layer0
10
  57.500
20
  92.000
30
  3.000
 0
SEQEND
 0
POLYLINE
8
layer0
66
1
70
8
10
  0.000
20
  0.000
30
  0.000
  0
VERTEX
8
layer0
10
  57.500
20
  92.000
30
  3.000
  0
VERTEX
8
layer0
10
  57.500
20
  76.500
30
  3.000
 0
SEQEND
 0
POLYLINE
8
layer0
66
1
70
8
10
  0.000
20
  0.000
30
  0.000
  0
VERTEX
8
layer0
10
  57.500
20
  76.500
30
  3.000
  0
VERTEX
8
layer0
10
  64.944
20
  76.500
30
  3.000
 0
SEQEND
 0
POLYLINE
8
layer0
66
1
70
8
10
  0.000
20
  0.000
30
  0.000
  0
VERTEX
8
layer0
10
  38.500
20
  92.000
30
  3.000
  0
VERTEX
8
layer0
10
  41.500
20
  92.000
30
  3.000
 0
SEQEND
 0
POLYLINE
8
layer0
66
1
70
8
10
  0.000
20
  0.000
30
  0.000
  0
VERTEX
8
layer0
10
  41.500
20
  92.000
30
  3.000
  0
VERTEX
8
layer0
10
  41.500
20
  48.500
30
  3.000
 0
SEQEND
 0
POLYLINE
8
layer0
66
1
70
8
10
  0.000
20
  0.000
30
  0.000
  0
VERTEX
8
layer0
10
  41.500
20
  48.500
30
  3.000
  0
VERTEX
8
layer0
10
  38.500
20
  48.500
30
  3.000
 0
SEQEND
 0
POLYLINE
8
layer0
66
1
70
8
10
  0.000
20
  0.000
30
  0.000
  0
VERTEX
8
layer0
10
  38.500
20
  48.500
30
  3.000
  0
VERTEX
8
layer0
10
  38.500
20
  92.000
30
  3.000
 0
SEQEND
 0
ENDSEC
 0
EOF
