 0
SECTION
 2
HEADER
 9
$MEASUREMENT
 70
 2
 0
ENDSEC
 0
SECTION
 2
ENTITIES
 0
ARC
8
layer0
66
1
10
  -24.951
20
  25.000
30
  0.000
40
  24.99999999999999
50
  234.000
51
  147.600
 0
ARC
8
layer0
66
1
10
  -65.270
20
  -26.200
30
  0.000
40
  40.20024933447587
50
  50.400
51
  90.000
 0
POLYLINE
8
layer0
66
1
70
8
10
  0.000
20
  0.000
30
  0.000
  0
VERTEX
8
layer0
10
  -65.270
20
  14.000
30
  0.000
  0
VERTEX
8
layer0
10
  -150.951
20
  14.000
30
  0.000
 0
SEQEND
 0
ARC
8
layer0
66
1
10
  -150.951
20
  16.000
30
  0.000
40
  1.9999999999999962
50
  180.000
51
  -90.000
 0
POLYLINE
8
layer0
66
1
70
8
10
  0.000
20
  0.000
30
  0.000
  0
VERTEX
8
layer0
10
  -152.951
20
  16.000
30
  0.000
  0
VERTEX
8
layer0
10
  -152.951
20
  28.000
30
  0.000
 0
SEQEND
 0
ARC
8
layer0
66
1
10
  -150.951
20
  28.000
30
  0.000
40
  1.9999999999999962
50
  90.000
51
  180.000
 0
POLYLINE
8
layer0
66
1
70
8
10
  0.000
20
  0.000
30
  0.000
  0
VERTEX
8
layer0
10
  -150.951
20
  30.000
30
  0.000
  0
VERTEX
8
layer0
10
  -62.536
20
  30.000
30
  0.000
 0
SEQEND
 0
ARC
8
layer0
66
1
10
  -62.536
20
  50.367
30
  0.000
40
  20.36722344643492
50
  -90.000
51
  -36.000
 0
ARC
8
layer0
66
1
10
  -24.951
20
  25.000
30
  0.000
40
  24.99999999999999
50
  234.000
51
  147.600
 0
CIRCLE
8
layer0
66
1
10
  -39.951
20
  25.000
30
  0.000
40
  2.100000000000018
 0
CIRCLE
8
layer0
66
1
10
  -9.951
20
  25.000
30
  0.000
40
  2.100000000000018
 0
CIRCLE
8
layer0
66
1
10
  -70.451
20
  20.000
30
  0.000
40
  1.599999999999997
 0
CIRCLE
8
layer0
66
1
10
  -145.451
20
  20.000
30
  0.000
40
  1.599999999999997
 0
CIRCLE
8
layer0
66
1
10
  -24.951
20
  40.000
30
  0.000
40
  2.100000000000018
 0
CIRCLE
8
layer0
66
1
10
  -24.951
20
  10.000
30
  0.000
40
  2.100000000000018
 0
ARC
8
layer0
66
1
10
  -150.951
20
  28.000
30
  3.000
40
  1.9999999999999962
50
  90.000
51
  180.000
 0
POLYLINE
8
layer0
66
1
70
8
10
  0.000
20
  0.000
30
  0.000
  0
VERTEX
8
layer0
10
  -152.951
20
  28.000
30
  3.000
  0
VERTEX
8
layer0
10
  -152.951
20
  16.000
30
  3.000
 0
SEQEND
 0
ARC
8
layer0
66
1
10
  -150.951
20
  16.000
30
  3.000
40
  1.9999999999999962
50
  180.000
51
  -90.000
 0
POLYLINE
8
layer0
66
1
70
8
10
  0.000
20
  0.000
30
  0.000
  0
VERTEX
8
layer0
10
  -150.951
20
  14.000
30
  3.000
  0
VERTEX
8
layer0
10
  -65.270
20
  14.000
30
  3.000
 0
SEQEND
 0
ARC
8
layer0
66
1
10
  -65.270
20
  -26.200
30
  3.000
40
  40.20024933447587
50
  50.400
51
  90.000
 0
ARC
8
layer0
66
1
10
  -24.951
20
  25.000
30
  3.000
40
  24.99999999999999
50
  234.000
51
  147.600
 0
ARC
8
layer0
66
1
10
  -62.536
20
  50.367
30
  3.000
40
  20.36722344643492
50
  -90.000
51
  -36.000
 0
POLYLINE
8
layer0
66
1
70
8
10
  0.000
20
  0.000
30
  0.000
  0
VERTEX
8
layer0
10
  -62.536
20
  30.000
30
  3.000
  0
VERTEX
8
layer0
10
  -150.951
20
  30.000
30
  3.000
 0
SEQEND
 0
ARC
8
layer0
66
1
10
  -150.951
20
  28.000
30
  3.000
40
  1.9999999999999962
50
  90.000
51
  180.000
 0
CIRCLE
8
layer0
66
1
10
  -39.951
20
  25.000
30
  3.000
40
  2.100000000000018
 0
CIRCLE
8
layer0
66
1
10
  -9.951
20
  25.000
30
  3.000
40
  2.100000000000018
 0
CIRCLE
8
layer0
66
1
10
  -24.951
20
  40.000
30
  3.000
40
  2.100000000000018
 0
CIRCLE
8
layer0
66
1
10
  -24.951
20
  10.000
30
  3.000
40
  2.100000000000018
 0
CIRCLE
8
layer0
66
1
10
  -70.451
20
  20.000
30
  3.000
40
  1.5999999999999963
 0
CIRCLE
8
layer0
66
1
10
  -145.451
20
  20.000
30
  3.000
40
  1.599999999999997
 0
ENDSEC
 0
EOF
