 0
SECTION
 2
HEADER
 9
$MEASUREMENT
 70
 2
 0
ENDSEC
 0
SECTION
 2
ENTITIES
 0
POLYLINE
8
layer0
66
1
70
8
10
  0.000
20
  0.000
30
  0.000
  0
VERTEX
8
layer0
10
  26.394
20
  68.250
30
  0.000
  0
VERTEX
8
layer0
10
  26.227
20
  68.900
30
  1.000
 0
SEQEND
 0
CIRCLE
8
layer0
66
1
10
  34.931
20
  35.000
30
  1.000
40
  35.000
 0
POLYLINE
8
layer0
66
1
70
8
10
  0.000
20
  0.000
30
  0.000
  0
VERTEX
8
layer0
10
  30.544
20
  69.724
30
  1.000
  0
VERTEX
8
layer0
10
  30.628
20
  69.058
30
  0.000
 0
SEQEND
 0
CIRCLE
8
layer0
66
1
10
  34.931
20
  35.000
30
  0.000
40
  34.329
 0
POLYLINE
8
layer0
66
1
70
8
10
  0.000
20
  0.000
30
  0.000
  0
VERTEX
8
layer0
10
  39.233
20
  69.058
30
  0.000
  0
VERTEX
8
layer0
10
  39.318
20
  69.724
30
  1.000
 0
SEQEND
 0
CIRCLE
8
layer0
66
1
10
  34.931
20
  35.000
30
  1.000
40
  35.000
 0
POLYLINE
8
layer0
66
1
70
8
10
  0.000
20
  0.000
30
  0.000
  0
VERTEX
8
layer0
10
  43.635
20
  68.900
30
  1.000
  0
VERTEX
8
layer0
10
  43.468
20
  68.250
30
  0.000
 0
SEQEND
 0
CIRCLE
8
layer0
66
1
10
  34.931
20
  35.000
30
  0.000
40
  34.329
 0
POLYLINE
8
layer0
66
1
70
8
10
  0.000
20
  0.000
30
  0.000
  0
VERTEX
8
layer0
10
  30.628
20
  69.058
30
  0.000
  0
VERTEX
8
layer0
10
  30.544
20
  69.724
30
  1.000
 0
SEQEND
 0
CIRCLE
8
layer0
66
1
10
  34.931
20
  35.000
30
  1.000
40
  35.000
 0
POLYLINE
8
layer0
66
1
70
8
10
  0.000
20
  0.000
30
  0.000
  0
VERTEX
8
layer0
10
  34.931
20
  70.000
30
  1.000
  0
VERTEX
8
layer0
10
  34.931
20
  69.329
30
  0.000
 0
SEQEND
 0
CIRCLE
8
layer0
66
1
10
  34.931
20
  35.000
30
  0.000
40
  34.329
 0
POLYLINE
8
layer0
66
1
70
8
10
  0.000
20
  0.000
30
  0.000
  0
VERTEX
8
layer0
10
  34.931
20
  69.329
30
  0.000
  0
VERTEX
8
layer0
10
  34.931
20
  70.000
30
  1.000
 0
SEQEND
 0
CIRCLE
8
layer0
66
1
10
  34.931
20
  35.000
30
  1.000
40
  35.000
 0
POLYLINE
8
layer0
66
1
70
8
10
  0.000
20
  0.000
30
  0.000
  0
VERTEX
8
layer0
10
  39.318
20
  69.724
30
  1.000
  0
VERTEX
8
layer0
10
  39.233
20
  69.058
30
  0.000
 0
SEQEND
 0
CIRCLE
8
layer0
66
1
10
  34.931
20
  35.000
30
  0.000
40
  34.329
 0
POLYLINE
8
layer0
66
1
70
8
10
  0.000
20
  0.000
30
  0.000
  0
VERTEX
8
layer0
10
  22.294
20
  66.918
30
  0.000
  0
VERTEX
8
layer0
10
  22.047
20
  67.542
30
  1.000
 0
SEQEND
 0
CIRCLE
8
layer0
66
1
10
  34.931
20
  35.000
30
  1.000
40
  35.000
 0
POLYLINE
8
layer0
66
1
70
8
10
  0.000
20
  0.000
30
  0.000
  0
VERTEX
8
layer0
10
  26.227
20
  68.900
30
  1.000
  0
VERTEX
8
layer0
10
  26.394
20
  68.250
30
  0.000
 0
SEQEND
 0
CIRCLE
8
layer0
66
1
10
  34.931
20
  35.000
30
  0.000
40
  34.329
 0
POLYLINE
8
layer0
66
1
70
8
10
  0.000
20
  0.000
30
  0.000
  0
VERTEX
8
layer0
10
  43.468
20
  68.250
30
  0.000
  0
VERTEX
8
layer0
10
  43.635
20
  68.900
30
  1.000
 0
SEQEND
 0
CIRCLE
8
layer0
66
1
10
  34.931
20
  35.000
30
  1.000
40
  35.000
 0
POLYLINE
8
layer0
66
1
70
8
10
  0.000
20
  0.000
30
  0.000
  0
VERTEX
8
layer0
10
  47.815
20
  67.542
30
  1.000
  0
VERTEX
8
layer0
10
  47.568
20
  66.918
30
  0.000
 0
SEQEND
 0
CIRCLE
8
layer0
66
1
10
  34.931
20
  35.000
30
  0.000
40
  34.329
 0
POLYLINE
8
layer0
66
1
70
8
10
  0.000
20
  0.000
30
  0.000
  0
VERTEX
8
layer0
10
  14.753
20
  62.773
30
  0.000
  0
VERTEX
8
layer0
10
  14.358
20
  63.316
30
  1.000
 0
SEQEND
 0
CIRCLE
8
layer0
66
1
10
  34.931
20
  35.000
30
  1.000
40
  35.000
 0
POLYLINE
8
layer0
66
1
70
8
10
  0.000
20
  0.000
30
  0.000
  0
VERTEX
8
layer0
10
  18.070
20
  65.671
30
  1.000
  0
VERTEX
8
layer0
10
  18.393
20
  65.083
30
  0.000
 0
SEQEND
 0
CIRCLE
8
layer0
66
1
10
  34.931
20
  35.000
30
  0.000
40
  34.329
 0
POLYLINE
8
layer0
66
1
70
8
10
  0.000
20
  0.000
30
  0.000
  0
VERTEX
8
layer0
10
  51.469
20
  65.083
30
  0.000
  0
VERTEX
8
layer0
10
  51.792
20
  65.671
30
  1.000
 0
SEQEND
 0
CIRCLE
8
layer0
66
1
10
  34.931
20
  35.000
30
  1.000
40
  35.000
 0
POLYLINE
8
layer0
66
1
70
8
10
  0.000
20
  0.000
30
  0.000
  0
VERTEX
8
layer0
10
  55.503
20
  63.316
30
  1.000
  0
VERTEX
8
layer0
10
  55.109
20
  62.773
30
  0.000
 0
SEQEND
 0
CIRCLE
8
layer0
66
1
10
  34.931
20
  35.000
30
  0.000
40
  34.329
 0
POLYLINE
8
layer0
66
1
70
8
10
  0.000
20
  0.000
30
  0.000
  0
VERTEX
8
layer0
10
  18.393
20
  65.083
30
  0.000
  0
VERTEX
8
layer0
10
  18.070
20
  65.671
30
  1.000
 0
SEQEND
 0
CIRCLE
8
layer0
66
1
10
  34.931
20
  35.000
30
  1.000
40
  35.000
 0
POLYLINE
8
layer0
66
1
70
8
10
  0.000
20
  0.000
30
  0.000
  0
VERTEX
8
layer0
10
  22.047
20
  67.542
30
  1.000
  0
VERTEX
8
layer0
10
  22.294
20
  66.918
30
  0.000
 0
SEQEND
 0
CIRCLE
8
layer0
66
1
10
  34.931
20
  35.000
30
  0.000
40
  34.329
 0
CIRCLE
8
layer0
66
1
10
  34.931
20
  35.000
30
  1.000
40
  35.000
 0
POLYLINE
8
layer0
66
1
70
8
10
  0.000
20
  0.000
30
  0.000
  0
VERTEX
8
layer0
10
  5.379
20
  53.754
30
  1.000
  0
VERTEX
8
layer0
10
  5.946
20
  53.394
30
  0.000
 0
SEQEND
 0
CIRCLE
8
layer0
66
1
10
  34.931
20
  35.000
30
  0.000
40
  34.329
 0
POLYLINE
8
layer0
66
1
70
8
10
  0.000
20
  0.000
30
  0.000
  0
VERTEX
8
layer0
10
  3.869
20
  49.617
30
  0.000
  0
VERTEX
8
layer0
10
  3.262
20
  49.902
30
  1.000
 0
SEQEND
 0
POLYLINE
8
layer0
66
1
70
8
10
  0.000
20
  0.000
30
  0.000
  0
VERTEX
8
layer0
10
  61.382
20
  56.882
30
  0.000
  0
VERTEX
8
layer0
10
  61.899
20
  57.310
30
  1.000
 0
SEQEND
 0
CIRCLE
8
layer0
66
1
10
  34.931
20
  35.000
30
  1.000
40
  35.000
 0
POLYLINE
8
layer0
66
1
70
8
10
  0.000
20
  0.000
30
  0.000
  0
VERTEX
8
layer0
10
  64.482
20
  53.754
30
  1.000
  0
VERTEX
8
layer0
10
  63.916
20
  53.394
30
  0.000
 0
SEQEND
 0
POLYLINE
8
layer0
66
1
70
8
10
  0.000
20
  0.000
30
  0.000
  0
VERTEX
8
layer0
10
  3.262
20
  49.902
30
  1.000
  0
VERTEX
8
layer0
10
  3.869
20
  49.617
30
  0.000
 0
SEQEND
 0
CIRCLE
8
layer0
66
1
10
  34.931
20
  35.000
30
  0.000
40
  34.329
 0
POLYLINE
8
layer0
66
1
70
8
10
  0.000
20
  0.000
30
  0.000
  0
VERTEX
8
layer0
10
  2.282
20
  45.608
30
  0.000
  0
VERTEX
8
layer0
10
  1.644
20
  45.816
30
  1.000
 0
SEQEND
 0
CIRCLE
8
layer0
66
1
10
  34.931
20
  35.000
30
  1.000
40
  35.000
 0
POLYLINE
8
layer0
66
1
70
8
10
  0.000
20
  0.000
30
  0.000
  0
VERTEX
8
layer0
10
  -0.000
20
  37.198
30
  1.000
  0
VERTEX
8
layer0
10
  0.670
20
  37.156
30
  0.000
 0
SEQEND
 0
CIRCLE
8
layer0
66
1
10
  34.931
20
  35.000
30
  0.000
40
  34.329
 0
POLYLINE
8
layer0
66
1
70
8
10
  0.000
20
  0.000
30
  0.000
  0
VERTEX
8
layer0
10
  0.670
20
  32.844
30
  0.000
  0
VERTEX
8
layer0
10
  -0.000
20
  32.802
30
  1.000
 0
SEQEND
 0
CIRCLE
8
layer0
66
1
10
  34.931
20
  35.000
30
  1.000
40
  35.000
 0
POLYLINE
8
layer0
66
1
70
8
10
  0.000
20
  0.000
30
  0.000
  0
VERTEX
8
layer0
10
  1.644
20
  45.816
30
  1.000
  0
VERTEX
8
layer0
10
  2.282
20
  45.608
30
  0.000
 0
SEQEND
 0
CIRCLE
8
layer0
66
1
10
  34.931
20
  35.000
30
  0.000
40
  34.329
 0
POLYLINE
8
layer0
66
1
70
8
10
  0.000
20
  0.000
30
  0.000
  0
VERTEX
8
layer0
10
  1.210
20
  41.433
30
  0.000
  0
VERTEX
8
layer0
10
  0.551
20
  41.558
30
  1.000
 0
SEQEND
 0
POLYLINE
8
layer0
66
1
70
8
10
  0.000
20
  0.000
30
  0.000
  0
VERTEX
8
layer0
10
  63.916
20
  53.394
30
  0.000
  0
VERTEX
8
layer0
10
  64.482
20
  53.754
30
  1.000
 0
SEQEND
 0
CIRCLE
8
layer0
66
1
10
  34.931
20
  35.000
30
  1.000
40
  35.000
 0
POLYLINE
8
layer0
66
1
70
8
10
  0.000
20
  0.000
30
  0.000
  0
VERTEX
8
layer0
10
  66.600
20
  49.902
30
  1.000
  0
VERTEX
8
layer0
10
  65.993
20
  49.617
30
  0.000
 0
SEQEND
 0
POLYLINE
8
layer0
66
1
70
8
10
  0.000
20
  0.000
30
  0.000
  0
VERTEX
8
layer0
10
  11.431
20
  60.025
30
  0.000
  0
VERTEX
8
layer0
10
  10.972
20
  60.514
30
  1.000
 0
SEQEND
 0
POLYLINE
8
layer0
66
1
70
8
10
  0.000
20
  0.000
30
  0.000
  0
VERTEX
8
layer0
10
  14.358
20
  63.316
30
  1.000
  0
VERTEX
8
layer0
10
  14.753
20
  62.773
30
  0.000
 0
SEQEND
 0
CIRCLE
8
layer0
66
1
10
  34.931
20
  35.000
30
  0.000
40
  34.329
 0
POLYLINE
8
layer0
66
1
70
8
10
  0.000
20
  0.000
30
  0.000
  0
VERTEX
8
layer0
10
  47.568
20
  66.918
30
  0.000
  0
VERTEX
8
layer0
10
  47.815
20
  67.542
30
  1.000
 0
SEQEND
 0
CIRCLE
8
layer0
66
1
10
  34.931
20
  35.000
30
  1.000
40
  35.000
 0
POLYLINE
8
layer0
66
1
70
8
10
  0.000
20
  0.000
30
  0.000
  0
VERTEX
8
layer0
10
  51.792
20
  65.671
30
  1.000
  0
VERTEX
8
layer0
10
  51.469
20
  65.083
30
  0.000
 0
SEQEND
 0
CIRCLE
8
layer0
66
1
10
  34.931
20
  35.000
30
  0.000
40
  34.329
 0
POLYLINE
8
layer0
66
1
70
8
10
  0.000
20
  0.000
30
  0.000
  0
VERTEX
8
layer0
10
  65.993
20
  49.617
30
  0.000
  0
VERTEX
8
layer0
10
  66.600
20
  49.902
30
  1.000
 0
SEQEND
 0
CIRCLE
8
layer0
66
1
10
  34.931
20
  35.000
30
  1.000
40
  35.000
 0
POLYLINE
8
layer0
66
1
70
8
10
  0.000
20
  0.000
30
  0.000
  0
VERTEX
8
layer0
10
  68.218
20
  45.816
30
  1.000
  0
VERTEX
8
layer0
10
  67.580
20
  45.608
30
  0.000
 0
SEQEND
 0
POLYLINE
8
layer0
66
1
70
8
10
  0.000
20
  0.000
30
  0.000
  0
VERTEX
8
layer0
10
  55.109
20
  62.773
30
  0.000
  0
VERTEX
8
layer0
10
  55.503
20
  63.316
30
  1.000
 0
SEQEND
 0
POLYLINE
8
layer0
66
1
70
8
10
  0.000
20
  0.000
30
  0.000
  0
VERTEX
8
layer0
10
  58.890
20
  60.514
30
  1.000
  0
VERTEX
8
layer0
10
  58.431
20
  60.025
30
  0.000
 0
SEQEND
 0
CIRCLE
8
layer0
66
1
10
  34.931
20
  35.000
30
  0.000
40
  34.329
 0
CIRCLE
8
layer0
66
1
10
  34.931
20
  35.000
30
  1.000
40
  35.000
 0
POLYLINE
8
layer0
66
1
70
8
10
  0.000
20
  0.000
30
  0.000
  0
VERTEX
8
layer0
10
  10.972
20
  60.514
30
  1.000
  0
VERTEX
8
layer0
10
  11.431
20
  60.025
30
  0.000
 0
SEQEND
 0
CIRCLE
8
layer0
66
1
10
  34.931
20
  35.000
30
  0.000
40
  34.329
 0
POLYLINE
8
layer0
66
1
70
8
10
  0.000
20
  0.000
30
  0.000
  0
VERTEX
8
layer0
10
  8.480
20
  56.882
30
  0.000
  0
VERTEX
8
layer0
10
  7.963
20
  57.310
30
  1.000
 0
SEQEND
 0
CIRCLE
8
layer0
66
1
10
  34.931
20
  35.000
30
  1.000
40
  35.000
 0
POLYLINE
8
layer0
66
1
70
8
10
  0.000
20
  0.000
30
  0.000
  0
VERTEX
8
layer0
10
  7.963
20
  57.310
30
  1.000
  0
VERTEX
8
layer0
10
  8.480
20
  56.882
30
  0.000
 0
SEQEND
 0
CIRCLE
8
layer0
66
1
10
  34.931
20
  35.000
30
  0.000
40
  34.329
 0
POLYLINE
8
layer0
66
1
70
8
10
  0.000
20
  0.000
30
  0.000
  0
VERTEX
8
layer0
10
  5.946
20
  53.394
30
  0.000
  0
VERTEX
8
layer0
10
  5.379
20
  53.754
30
  1.000
 0
SEQEND
 0
CIRCLE
8
layer0
66
1
10
  34.931
20
  35.000
30
  1.000
40
  35.000
 0
POLYLINE
8
layer0
66
1
70
8
10
  0.000
20
  0.000
30
  0.000
  0
VERTEX
8
layer0
10
  0.551
20
  41.558
30
  1.000
  0
VERTEX
8
layer0
10
  1.210
20
  41.433
30
  0.000
 0
SEQEND
 0
CIRCLE
8
layer0
66
1
10
  34.931
20
  35.000
30
  0.000
40
  34.329
 0
POLYLINE
8
layer0
66
1
70
8
10
  0.000
20
  0.000
30
  0.000
  0
VERTEX
8
layer0
10
  0.670
20
  37.156
30
  0.000
  0
VERTEX
8
layer0
10
  -0.000
20
  37.198
30
  1.000
 0
SEQEND
 0
CIRCLE
8
layer0
66
1
10
  34.931
20
  35.000
30
  1.000
40
  35.000
 0
POLYLINE
8
layer0
66
1
70
8
10
  0.000
20
  0.000
30
  0.000
  0
VERTEX
8
layer0
10
  0.551
20
  28.442
30
  1.000
  0
VERTEX
8
layer0
10
  1.210
20
  28.567
30
  0.000
 0
SEQEND
 0
CIRCLE
8
layer0
66
1
10
  34.931
20
  35.000
30
  0.000
40
  34.329
 0
POLYLINE
8
layer0
66
1
70
8
10
  0.000
20
  0.000
30
  0.000
  0
VERTEX
8
layer0
10
  2.282
20
  24.392
30
  0.000
  0
VERTEX
8
layer0
10
  1.644
20
  24.184
30
  1.000
 0
SEQEND
 0
POLYLINE
8
layer0
66
1
70
8
10
  0.000
20
  0.000
30
  0.000
  0
VERTEX
8
layer0
10
  67.580
20
  45.608
30
  0.000
  0
VERTEX
8
layer0
10
  68.218
20
  45.816
30
  1.000
 0
SEQEND
 0
CIRCLE
8
layer0
66
1
10
  34.931
20
  35.000
30
  1.000
40
  35.000
 0
POLYLINE
8
layer0
66
1
70
8
10
  0.000
20
  0.000
30
  0.000
  0
VERTEX
8
layer0
10
  69.311
20
  41.558
30
  1.000
  0
VERTEX
8
layer0
10
  68.652
20
  41.433
30
  0.000
 0
SEQEND
 0
CIRCLE
8
layer0
66
1
10
  34.931
20
  35.000
30
  0.000
40
  34.329
 0
POLYLINE
8
layer0
66
1
70
8
10
  0.000
20
  0.000
30
  0.000
  0
VERTEX
8
layer0
10
  58.431
20
  60.025
30
  0.000
  0
VERTEX
8
layer0
10
  58.890
20
  60.514
30
  1.000
 0
SEQEND
 0
CIRCLE
8
layer0
66
1
10
  34.931
20
  35.000
30
  1.000
40
  35.000
 0
POLYLINE
8
layer0
66
1
70
8
10
  0.000
20
  0.000
30
  0.000
  0
VERTEX
8
layer0
10
  61.899
20
  57.310
30
  1.000
  0
VERTEX
8
layer0
10
  61.382
20
  56.882
30
  0.000
 0
SEQEND
 0
POLYLINE
8
layer0
66
1
70
8
10
  0.000
20
  0.000
30
  0.000
  0
VERTEX
8
layer0
10
  34.931
20
  0.671
30
  0.000
  0
VERTEX
8
layer0
10
  34.931
20
  -0.000
30
  1.000
 0
SEQEND
 0
POLYLINE
8
layer0
66
1
70
8
10
  0.000
20
  0.000
30
  0.000
  0
VERTEX
8
layer0
10
  30.544
20
  0.276
30
  1.000
  0
VERTEX
8
layer0
10
  30.628
20
  0.942
30
  0.000
 0
SEQEND
 0
CIRCLE
8
layer0
66
1
10
  34.931
20
  35.000
30
  0.000
40
  34.329
 0
POLYLINE
8
layer0
66
1
70
8
10
  0.000
20
  0.000
30
  0.000
  0
VERTEX
8
layer0
10
  69.192
20
  37.156
30
  0.000
  0
VERTEX
8
layer0
10
  69.862
20
  37.198
30
  1.000
 0
SEQEND
 0
CIRCLE
8
layer0
66
1
10
  34.931
20
  35.000
30
  1.000
40
  35.000
 0
POLYLINE
8
layer0
66
1
70
8
10
  0.000
20
  0.000
30
  0.000
  0
VERTEX
8
layer0
10
  69.862
20
  32.802
30
  1.000
  0
VERTEX
8
layer0
10
  69.192
20
  32.844
30
  0.000
 0
SEQEND
 0
POLYLINE
8
layer0
66
1
70
8
10
  0.000
20
  0.000
30
  0.000
  0
VERTEX
8
layer0
10
  39.233
20
  0.942
30
  0.000
  0
VERTEX
8
layer0
10
  39.318
20
  0.276
30
  1.000
 0
SEQEND
 0
POLYLINE
8
layer0
66
1
70
8
10
  0.000
20
  0.000
30
  0.000
  0
VERTEX
8
layer0
10
  34.931
20
  -0.000
30
  1.000
  0
VERTEX
8
layer0
10
  34.931
20
  0.671
30
  0.000
 0
SEQEND
 0
CIRCLE
8
layer0
66
1
10
  34.931
20
  35.000
30
  0.000
40
  34.329
 0
POLYLINE
8
layer0
66
1
70
8
10
  0.000
20
  0.000
30
  0.000
  0
VERTEX
8
layer0
10
  68.652
20
  41.433
30
  0.000
  0
VERTEX
8
layer0
10
  69.311
20
  41.558
30
  1.000
 0
SEQEND
 0
CIRCLE
8
layer0
66
1
10
  34.931
20
  35.000
30
  1.000
40
  35.000
 0
POLYLINE
8
layer0
66
1
70
8
10
  0.000
20
  0.000
30
  0.000
  0
VERTEX
8
layer0
10
  69.862
20
  37.198
30
  1.000
  0
VERTEX
8
layer0
10
  69.192
20
  37.156
30
  0.000
 0
SEQEND
 0
POLYLINE
8
layer0
66
1
70
8
10
  0.000
20
  0.000
30
  0.000
  0
VERTEX
8
layer0
10
  1.644
20
  24.184
30
  1.000
  0
VERTEX
8
layer0
10
  2.282
20
  24.392
30
  0.000
 0
SEQEND
 0
CIRCLE
8
layer0
66
1
10
  34.931
20
  35.000
30
  0.000
40
  34.329
 0
POLYLINE
8
layer0
66
1
70
8
10
  0.000
20
  0.000
30
  0.000
  0
VERTEX
8
layer0
10
  3.869
20
  20.383
30
  0.000
  0
VERTEX
8
layer0
10
  3.262
20
  20.098
30
  1.000
 0
SEQEND
 0
POLYLINE
8
layer0
66
1
70
8
10
  0.000
20
  0.000
30
  0.000
  0
VERTEX
8
layer0
10
  68.652
20
  28.567
30
  0.000
  0
VERTEX
8
layer0
10
  69.311
20
  28.442
30
  1.000
 0
SEQEND
 0
CIRCLE
8
layer0
66
1
10
  34.931
20
  35.000
30
  1.000
40
  35.000
 0
POLYLINE
8
layer0
66
1
70
8
10
  0.000
20
  0.000
30
  0.000
  0
VERTEX
8
layer0
10
  68.218
20
  24.184
30
  1.000
  0
VERTEX
8
layer0
10
  67.580
20
  24.392
30
  0.000
 0
SEQEND
 0
CIRCLE
8
layer0
66
1
10
  34.931
20
  35.000
30
  0.000
40
  34.329
 0
POLYLINE
8
layer0
66
1
70
8
10
  0.000
20
  0.000
30
  0.000
  0
VERTEX
8
layer0
10
  67.580
20
  24.392
30
  0.000
  0
VERTEX
8
layer0
10
  68.218
20
  24.184
30
  1.000
 0
SEQEND
 0
CIRCLE
8
layer0
66
1
10
  34.931
20
  35.000
30
  1.000
40
  35.000
 0
POLYLINE
8
layer0
66
1
70
8
10
  0.000
20
  0.000
30
  0.000
  0
VERTEX
8
layer0
10
  66.600
20
  20.098
30
  1.000
  0
VERTEX
8
layer0
10
  65.993
20
  20.383
30
  0.000
 0
SEQEND
 0
POLYLINE
8
layer0
66
1
70
8
10
  0.000
20
  0.000
30
  0.000
  0
VERTEX
8
layer0
10
  30.628
20
  0.942
30
  0.000
  0
VERTEX
8
layer0
10
  30.544
20
  0.276
30
  1.000
 0
SEQEND
 0
POLYLINE
8
layer0
66
1
70
8
10
  0.000
20
  0.000
30
  0.000
  0
VERTEX
8
layer0
10
  26.227
20
  1.100
30
  1.000
  0
VERTEX
8
layer0
10
  26.394
20
  1.750
30
  0.000
 0
SEQEND
 0
CIRCLE
8
layer0
66
1
10
  34.931
20
  35.000
30
  0.000
40
  34.329
 0
POLYLINE
8
layer0
66
1
70
8
10
  0.000
20
  0.000
30
  0.000
  0
VERTEX
8
layer0
10
  43.468
20
  1.750
30
  0.000
  0
VERTEX
8
layer0
10
  43.635
20
  1.100
30
  1.000
 0
SEQEND
 0
CIRCLE
8
layer0
66
1
10
  34.931
20
  35.000
30
  1.000
40
  35.000
 0
POLYLINE
8
layer0
66
1
70
8
10
  0.000
20
  0.000
30
  0.000
  0
VERTEX
8
layer0
10
  39.318
20
  0.276
30
  1.000
  0
VERTEX
8
layer0
10
  39.233
20
  0.942
30
  0.000
 0
SEQEND
 0
CIRCLE
8
layer0
66
1
10
  34.931
20
  35.000
30
  0.000
40
  34.329
 0
CIRCLE
8
layer0
66
1
10
  34.931
20
  35.000
30
  1.000
40
  35.000
 0
POLYLINE
8
layer0
66
1
70
8
10
  0.000
20
  0.000
30
  0.000
  0
VERTEX
8
layer0
10
  3.262
20
  20.098
30
  1.000
  0
VERTEX
8
layer0
10
  3.869
20
  20.383
30
  0.000
 0
SEQEND
 0
CIRCLE
8
layer0
66
1
10
  34.931
20
  35.000
30
  0.000
40
  34.329
 0
POLYLINE
8
layer0
66
1
70
8
10
  0.000
20
  0.000
30
  0.000
  0
VERTEX
8
layer0
10
  5.946
20
  16.606
30
  0.000
  0
VERTEX
8
layer0
10
  5.379
20
  16.246
30
  1.000
 0
SEQEND
 0
POLYLINE
8
layer0
66
1
70
8
10
  0.000
20
  0.000
30
  0.000
  0
VERTEX
8
layer0
10
  65.993
20
  20.383
30
  0.000
  0
VERTEX
8
layer0
10
  66.600
20
  20.098
30
  1.000
 0
SEQEND
 0
CIRCLE
8
layer0
66
1
10
  34.931
20
  35.000
30
  1.000
40
  35.000
 0
POLYLINE
8
layer0
66
1
70
8
10
  0.000
20
  0.000
30
  0.000
  0
VERTEX
8
layer0
10
  64.482
20
  16.246
30
  1.000
  0
VERTEX
8
layer0
10
  63.916
20
  16.606
30
  0.000
 0
SEQEND
 0
CIRCLE
8
layer0
66
1
10
  34.931
20
  35.000
30
  0.000
40
  34.329
 0
POLYLINE
8
layer0
66
1
70
8
10
  0.000
20
  0.000
30
  0.000
  0
VERTEX
8
layer0
10
  61.382
20
  13.118
30
  0.000
  0
VERTEX
8
layer0
10
  61.899
20
  12.690
30
  1.000
 0
SEQEND
 0
CIRCLE
8
layer0
66
1
10
  34.931
20
  35.000
30
  1.000
40
  35.000
 0
POLYLINE
8
layer0
66
1
70
8
10
  0.000
20
  0.000
30
  0.000
  0
VERTEX
8
layer0
10
  58.890
20
  9.486
30
  1.000
  0
VERTEX
8
layer0
10
  58.431
20
  9.975
30
  0.000
 0
SEQEND
 0
POLYLINE
8
layer0
66
1
70
8
10
  0.000
20
  0.000
30
  0.000
  0
VERTEX
8
layer0
10
  7.963
20
  12.690
30
  1.000
  0
VERTEX
8
layer0
10
  8.480
20
  13.118
30
  0.000
 0
SEQEND
 0
CIRCLE
8
layer0
66
1
10
  34.931
20
  35.000
30
  0.000
40
  34.329
 0
POLYLINE
8
layer0
66
1
70
8
10
  0.000
20
  0.000
30
  0.000
  0
VERTEX
8
layer0
10
  11.431
20
  9.975
30
  0.000
  0
VERTEX
8
layer0
10
  10.972
20
  9.486
30
  1.000
 0
SEQEND
 0
POLYLINE
8
layer0
66
1
70
8
10
  0.000
20
  0.000
30
  0.000
  0
VERTEX
8
layer0
10
  63.916
20
  16.606
30
  0.000
  0
VERTEX
8
layer0
10
  64.482
20
  16.246
30
  1.000
 0
SEQEND
 0
CIRCLE
8
layer0
66
1
10
  34.931
20
  35.000
30
  1.000
40
  35.000
 0
POLYLINE
8
layer0
66
1
70
8
10
  0.000
20
  0.000
30
  0.000
  0
VERTEX
8
layer0
10
  61.899
20
  12.690
30
  1.000
  0
VERTEX
8
layer0
10
  61.382
20
  13.118
30
  0.000
 0
SEQEND
 0
POLYLINE
8
layer0
66
1
70
8
10
  0.000
20
  0.000
30
  0.000
  0
VERTEX
8
layer0
10
  14.753
20
  7.227
30
  0.000
  0
VERTEX
8
layer0
10
  14.358
20
  6.684
30
  1.000
 0
SEQEND
 0
POLYLINE
8
layer0
66
1
70
8
10
  0.000
20
  0.000
30
  0.000
  0
VERTEX
8
layer0
10
  10.972
20
  9.486
30
  1.000
  0
VERTEX
8
layer0
10
  11.431
20
  9.975
30
  0.000
 0
SEQEND
 0
CIRCLE
8
layer0
66
1
10
  34.931
20
  35.000
30
  0.000
40
  34.329
 0
CIRCLE
8
layer0
66
1
10
  34.931
20
  35.000
30
  1.000
40
  35.000
 0
POLYLINE
8
layer0
66
1
70
8
10
  0.000
20
  0.000
30
  0.000
  0
VERTEX
8
layer0
10
  -0.000
20
  32.802
30
  1.000
  0
VERTEX
8
layer0
10
  0.670
20
  32.844
30
  0.000
 0
SEQEND
 0
CIRCLE
8
layer0
66
1
10
  34.931
20
  35.000
30
  0.000
40
  34.329
 0
POLYLINE
8
layer0
66
1
70
8
10
  0.000
20
  0.000
30
  0.000
  0
VERTEX
8
layer0
10
  1.210
20
  28.567
30
  0.000
  0
VERTEX
8
layer0
10
  0.551
20
  28.442
30
  1.000
 0
SEQEND
 0
POLYLINE
8
layer0
66
1
70
8
10
  0.000
20
  0.000
30
  0.000
  0
VERTEX
8
layer0
10
  58.431
20
  9.975
30
  0.000
  0
VERTEX
8
layer0
10
  58.890
20
  9.486
30
  1.000
 0
SEQEND
 0
CIRCLE
8
layer0
66
1
10
  34.931
20
  35.000
30
  1.000
40
  35.000
 0
POLYLINE
8
layer0
66
1
70
8
10
  0.000
20
  0.000
30
  0.000
  0
VERTEX
8
layer0
10
  55.503
20
  6.684
30
  1.000
  0
VERTEX
8
layer0
10
  55.109
20
  7.227
30
  0.000
 0
SEQEND
 0
CIRCLE
8
layer0
66
1
10
  34.931
20
  35.000
30
  0.000
40
  34.329
 0
CIRCLE
8
layer0
66
1
10
  34.931
20
  35.000
30
  1.000
40
  35.000
 0
POLYLINE
8
layer0
66
1
70
8
10
  0.000
20
  0.000
30
  0.000
  0
VERTEX
8
layer0
10
  5.379
20
  16.246
30
  1.000
  0
VERTEX
8
layer0
10
  5.946
20
  16.606
30
  0.000
 0
SEQEND
 0
CIRCLE
8
layer0
66
1
10
  34.931
20
  35.000
30
  0.000
40
  34.329
 0
POLYLINE
8
layer0
66
1
70
8
10
  0.000
20
  0.000
30
  0.000
  0
VERTEX
8
layer0
10
  8.480
20
  13.118
30
  0.000
  0
VERTEX
8
layer0
10
  7.963
20
  12.690
30
  1.000
 0
SEQEND
 0
POLYLINE
8
layer0
66
1
70
8
10
  0.000
20
  0.000
30
  0.000
  0
VERTEX
8
layer0
10
  26.394
20
  1.750
30
  0.000
  0
VERTEX
8
layer0
10
  26.227
20
  1.100
30
  1.000
 0
SEQEND
 0
CIRCLE
8
layer0
66
1
10
  34.931
20
  35.000
30
  1.000
40
  35.000
 0
POLYLINE
8
layer0
66
1
70
8
10
  0.000
20
  0.000
30
  0.000
  0
VERTEX
8
layer0
10
  22.047
20
  2.458
30
  1.000
  0
VERTEX
8
layer0
10
  22.294
20
  3.082
30
  0.000
 0
SEQEND
 0
CIRCLE
8
layer0
66
1
10
  34.931
20
  35.000
30
  0.000
40
  34.329
 0
POLYLINE
8
layer0
66
1
70
8
10
  0.000
20
  0.000
30
  0.000
  0
VERTEX
8
layer0
10
  47.568
20
  3.082
30
  0.000
  0
VERTEX
8
layer0
10
  47.815
20
  2.458
30
  1.000
 0
SEQEND
 0
CIRCLE
8
layer0
66
1
10
  34.931
20
  35.000
30
  1.000
40
  35.000
 0
POLYLINE
8
layer0
66
1
70
8
10
  0.000
20
  0.000
30
  0.000
  0
VERTEX
8
layer0
10
  43.635
20
  1.100
30
  1.000
  0
VERTEX
8
layer0
10
  43.468
20
  1.750
30
  0.000
 0
SEQEND
 0
CIRCLE
8
layer0
66
1
10
  34.931
20
  35.000
30
  0.000
40
  34.329
 0
POLYLINE
8
layer0
66
1
70
8
10
  0.000
20
  0.000
30
  0.000
  0
VERTEX
8
layer0
10
  22.294
20
  3.082
30
  0.000
  0
VERTEX
8
layer0
10
  22.047
20
  2.458
30
  1.000
 0
SEQEND
 0
CIRCLE
8
layer0
66
1
10
  34.931
20
  35.000
30
  1.000
40
  35.000
 0
POLYLINE
8
layer0
66
1
70
8
10
  0.000
20
  0.000
30
  0.000
  0
VERTEX
8
layer0
10
  18.070
20
  4.329
30
  1.000
  0
VERTEX
8
layer0
10
  18.393
20
  4.917
30
  0.000
 0
SEQEND
 0
CIRCLE
8
layer0
66
1
10
  34.931
20
  35.000
30
  0.000
40
  34.329
 0
POLYLINE
8
layer0
66
1
70
8
10
  0.000
20
  0.000
30
  0.000
  0
VERTEX
8
layer0
10
  69.192
20
  32.844
30
  0.000
  0
VERTEX
8
layer0
10
  69.862
20
  32.802
30
  1.000
 0
SEQEND
 0
CIRCLE
8
layer0
66
1
10
  34.931
20
  35.000
30
  1.000
40
  35.000
 0
POLYLINE
8
layer0
66
1
70
8
10
  0.000
20
  0.000
30
  0.000
  0
VERTEX
8
layer0
10
  69.311
20
  28.442
30
  1.000
  0
VERTEX
8
layer0
10
  68.652
20
  28.567
30
  0.000
 0
SEQEND
 0
POLYLINE
8
layer0
66
1
70
8
10
  0.000
20
  0.000
30
  0.000
  0
VERTEX
8
layer0
10
  51.469
20
  4.917
30
  0.000
  0
VERTEX
8
layer0
10
  51.792
20
  4.329
30
  1.000
 0
SEQEND
 0
POLYLINE
8
layer0
66
1
70
8
10
  0.000
20
  0.000
30
  0.000
  0
VERTEX
8
layer0
10
  47.815
20
  2.458
30
  1.000
  0
VERTEX
8
layer0
10
  47.568
20
  3.082
30
  0.000
 0
SEQEND
 0
CIRCLE
8
layer0
66
1
10
  34.931
20
  35.000
30
  0.000
40
  34.329
 0
POLYLINE
8
layer0
66
1
70
8
10
  0.000
20
  0.000
30
  0.000
  0
VERTEX
8
layer0
10
  18.393
20
  4.917
30
  0.000
  0
VERTEX
8
layer0
10
  18.070
20
  4.329
30
  1.000
 0
SEQEND
 0
CIRCLE
8
layer0
66
1
10
  34.931
20
  35.000
30
  1.000
40
  35.000
 0
POLYLINE
8
layer0
66
1
70
8
10
  0.000
20
  0.000
30
  0.000
  0
VERTEX
8
layer0
10
  14.358
20
  6.684
30
  1.000
  0
VERTEX
8
layer0
10
  14.753
20
  7.227
30
  0.000
 0
SEQEND
 0
CIRCLE
8
layer0
66
1
10
  34.931
20
  35.000
30
  0.000
40
  34.329
 0
POLYLINE
8
layer0
66
1
70
8
10
  0.000
20
  0.000
30
  0.000
  0
VERTEX
8
layer0
10
  55.109
20
  7.227
30
  0.000
  0
VERTEX
8
layer0
10
  55.503
20
  6.684
30
  1.000
 0
SEQEND
 0
CIRCLE
8
layer0
66
1
10
  34.931
20
  35.000
30
  1.000
40
  35.000
 0
POLYLINE
8
layer0
66
1
70
8
10
  0.000
20
  0.000
30
  0.000
  0
VERTEX
8
layer0
10
  51.792
20
  4.329
30
  1.000
  0
VERTEX
8
layer0
10
  51.469
20
  4.917
30
  0.000
 0
SEQEND
 0
CIRCLE
8
layer0
66
1
10
  34.931
20
  35.000
30
  0.000
40
  34.329
 0
CIRCLE
8
layer0
66
1
10
  34.931
20
  35.000
30
  6.000
40
  27.000
 0
CIRCLE
8
layer0
66
1
10
  34.931
20
  35.000
30
  6.000
40
  30.000
 0
CIRCLE
8
layer0
66
1
10
  34.931
20
  35.000
30
  3.100
40
  27.000
 0
CIRCLE
8
layer0
66
1
10
  34.931
20
  35.000
30
  3.100
40
  30.000
 0
CIRCLE
8
layer0
66
1
10
  34.931
20
  35.000
30
  0.000
40
  30.000
 0
CIRCLE
8
layer0
66
1
10
  34.931
20
  35.000
30
  0.000
40
  34.329
 0
CIRCLE
8
layer0
66
1
10
  34.931
20
  35.000
30
  6.000
40
  30.000
 0
CIRCLE
8
layer0
66
1
10
  34.931
20
  35.000
30
  6.000
40
  35.000
 0
ENDSEC
 0
EOF
