 0
SECTION
 2
HEADER
 9
$MEASUREMENT
 70
 2
 0
ENDSEC
 0
SECTION
 2
ENTITIES
 0
POLYLINE
8
layer0
66
1
70
8
10
  0.0
20
  0.0
30
  0.0
  0
VERTEX
8
layer0
10
  -219.000
20
  279.000
30
  0.000
0
VERTEX
8
layer0
10
  0.000
20
  279.000
30
  0.000
0
VERTEX
8
layer0
10
  0.000
20
  0.000
30
  0.000
0
VERTEX
8
layer0
10
  -219.000
20
  0.000
30
  0.000
0
VERTEX
8
layer0
10
  -219.000
20
  279.000
30
  0.000
0
VERTEX
8
layer0
10
  -214.500
20
  274.500
30
  0.000
0
VERTEX
8
layer0
10
  -214.500
20
  4.500
30
  0.000
0
VERTEX
8
layer0
10
  -4.500
20
  4.500
30
  0.000
0
VERTEX
8
layer0
10
  -4.500
20
  274.500
30
  0.000
 0
SEQEND
0
VERTEX
8
layer0
10
  -4.500
20
  274.500
30
  -2.000
0
VERTEX
8
layer0
10
  -4.500
20
  4.500
30
  -2.000
0
VERTEX
8
layer0
10
  -214.500
20
  4.500
30
  -2.000
0
VERTEX
8
layer0
10
  -214.500
20
  274.500
30
  -2.000
 0
SEQEND
 0
CIRCLE
8
layer0
66
1
10
  -197.500
20
  11.500
30
  -2.000
40
  1.599999999999997
 0
CIRCLE
8
layer0
66
1
10
  -134.509
20
  245.250
30
  -2.000
40
  2.100000000000019
 0
CIRCLE
8
layer0
66
1
10
  -207.500
20
  11.500
30
  -2.000
40
  1.599999999999997
 0
ARC
8
layer0
66
1
10
  -102.750
20
  11.500
30
  -2.000
40
  1.5999999999999968
50
  -90.000
51
  90.000
 0
POLYLINE
8
layer0
66
1
70
8
10
  0.0
20
  0.0
30
  0.0
  0
VERTEX
8
layer0
10
  -102.750
20
  13.100
30
  -2.000
0
VERTEX
8
layer0
10
  -116.250
20
  13.100
30
  -2.000
 0
SEQEND
 0
ARC
8
layer0
66
1
10
  -116.250
20
  11.500
30
  -2.000
40
  1.5999999999999968
50
  90.000
51
  270.000
 0
POLYLINE
8
layer0
66
1
70
8
10
  0.0
20
  0.0
30
  0.0
  0
VERTEX
8
layer0
10
  -116.250
20
  9.900
30
  -2.000
0
VERTEX
8
layer0
10
  -102.750
20
  9.900
30
  -2.000
 0
SEQEND
 0
ARC
8
layer0
66
1
10
  -102.750
20
  11.500
30
  -2.000
40
  1.5999999999999968
50
  -90.000
51
  90.000
 0
CIRCLE
8
layer0
66
1
10
  -17.500
20
  224.250
30
  -2.000
40
  8.949999999999996
 0
CIRCLE
8
layer0
66
1
10
  -109.509
20
  220.250
30
  -2.000
40
  28.999999999999993
 0
CIRCLE
8
layer0
66
1
10
  -207.500
20
  267.500
30
  -2.000
40
  1.599999999999997
 0
CIRCLE
8
layer0
66
1
10
  -197.500
20
  267.500
30
  -2.000
40
  1.599999999999997
 0
POLYLINE
8
layer0
66
1
70
8
10
  0.0
20
  0.0
30
  0.0
  0
VERTEX
8
layer0
10
  -14.750
20
  253.375
30
  -2.000
0
VERTEX
8
layer0
10
  -14.750
20
  256.175
30
  -2.000
0
VERTEX
8
layer0
10
  -20.250
20
  256.175
30
  -2.000
0
VERTEX
8
layer0
10
  -20.250
20
  253.375
30
  -2.000
0
VERTEX
8
layer0
10
  -20.270
20
  252.664
30
  -2.000
 0
SEQEND
 0
ARC
8
layer0
66
1
10
  -17.500
20
  247.625
30
  -2.000
40
  5.750000000000001
50
  118.800
51
  421.552
 0
POLYLINE
8
layer0
66
1
70
8
10
  0.0
20
  0.0
30
  0.0
  0
VERTEX
8
layer0
10
  -14.770
20
  252.664
30
  -2.000
0
VERTEX
8
layer0
10
  -14.750
20
  253.375
30
  -2.000
 0
SEQEND
 0
CIRCLE
8
layer0
66
1
10
  -187.500
20
  267.500
30
  -2.000
40
  1.599999999999997
 0
CIRCLE
8
layer0
66
1
10
  -177.500
20
  267.500
30
  -2.000
40
  1.599999999999997
 0
CIRCLE
8
layer0
66
1
10
  -167.500
20
  267.500
30
  -2.000
40
  1.599999999999997
 0
CIRCLE
8
layer0
66
1
10
  -109.509
20
  58.750
30
  -2.000
40
  28.999999999999993
 0
CIRCLE
8
layer0
66
1
10
  -84.509
20
  245.250
30
  -2.000
40
  2.100000000000018
 0
CIRCLE
8
layer0
66
1
10
  -134.509
20
  195.250
30
  -2.000
40
  2.100000000000018
 0
CIRCLE
8
layer0
66
1
10
  -84.509
20
  195.250
30
  -2.000
40
  2.100000000000018
 0
CIRCLE
8
layer0
66
1
10
  -134.509
20
  83.750
30
  -2.000
40
  2.1000000000000094
 0
CIRCLE
8
layer0
66
1
10
  -134.509
20
  33.750
30
  -2.000
40
  2.1000000000000094
 0
CIRCLE
8
layer0
66
1
10
  -84.509
20
  33.750
30
  -2.000
40
  2.100000000000016
 0
CIRCLE
8
layer0
66
1
10
  -84.509
20
  83.750
30
  -2.000
40
  2.100000000000018
 0
POLYLINE
8
layer0
66
1
70
8
10
  0.0
20
  0.0
30
  0.0
  0
VERTEX
8
layer0
10
  0.000
20
  0.000
30
  3.000
0
VERTEX
8
layer0
10
  0.000
20
  279.000
30
  3.000
0
VERTEX
8
layer0
10
  -219.000
20
  279.000
30
  3.000
0
VERTEX
8
layer0
10
  -219.000
20
  0.000
30
  3.000
0
VERTEX
8
layer0
10
  0.000
20
  0.000
30
  3.000
 0
SEQEND
 0
CIRCLE
8
layer0
66
1
10
  -109.509
20
  220.250
30
  3.000
40
  28.999999999999993
 0
CIRCLE
8
layer0
66
1
10
  -109.509
20
  58.750
30
  3.000
40
  28.999999999999993
 0
ARC
8
layer0
66
1
10
  -17.500
20
  247.625
30
  3.000
40
  5.750000000000001
50
  118.800
51
  421.552
 0
POLYLINE
8
layer0
66
1
70
8
10
  0.0
20
  0.0
30
  0.0
  0
VERTEX
8
layer0
10
  -20.270
20
  252.664
30
  3.000
0
VERTEX
8
layer0
10
  -20.250
20
  253.375
30
  3.000
0
VERTEX
8
layer0
10
  -20.250
20
  256.175
30
  3.000
0
VERTEX
8
layer0
10
  -14.750
20
  256.175
30
  3.000
0
VERTEX
8
layer0
10
  -14.750
20
  253.375
30
  3.000
0
VERTEX
8
layer0
10
  -14.770
20
  252.664
30
  3.000
 0
SEQEND
 0
CIRCLE
8
layer0
66
1
10
  -17.500
20
  224.250
30
  3.000
40
  8.949999999999996
 0
CIRCLE
8
layer0
66
1
10
  -167.500
20
  267.500
30
  3.000
40
  1.599999999999997
 0
CIRCLE
8
layer0
66
1
10
  -177.500
20
  267.500
30
  3.000
40
  1.599999999999997
 0
CIRCLE
8
layer0
66
1
10
  -187.500
20
  267.500
30
  3.000
40
  1.599999999999997
 0
CIRCLE
8
layer0
66
1
10
  -197.500
20
  267.500
30
  3.000
40
  1.599999999999997
 0
CIRCLE
8
layer0
66
1
10
  -207.500
20
  267.500
30
  3.000
40
  1.599999999999997
 0
CIRCLE
8
layer0
66
1
10
  -197.500
20
  11.500
30
  3.000
40
  1.599999999999997
 0
CIRCLE
8
layer0
66
1
10
  -207.500
20
  11.500
30
  3.000
40
  1.599999999999997
 0
ARC
8
layer0
66
1
10
  -116.250
20
  11.500
30
  3.000
40
  1.5999999999999968
50
  90.000
51
  270.000
 0
POLYLINE
8
layer0
66
1
70
8
10
  0.0
20
  0.0
30
  0.0
  0
VERTEX
8
layer0
10
  -116.250
20
  13.100
30
  3.000
0
VERTEX
8
layer0
10
  -102.750
20
  13.100
30
  3.000
 0
SEQEND
 0
ARC
8
layer0
66
1
10
  -102.750
20
  11.500
30
  3.000
40
  1.5999999999999968
50
  -90.000
51
  90.000
 0
POLYLINE
8
layer0
66
1
70
8
10
  0.0
20
  0.0
30
  0.0
  0
VERTEX
8
layer0
10
  -102.750
20
  9.900
30
  3.000
0
VERTEX
8
layer0
10
  -116.250
20
  9.900
30
  3.000
 0
SEQEND
 0
ARC
8
layer0
66
1
10
  -116.250
20
  11.500
30
  3.000
40
  1.5999999999999968
50
  90.000
51
  270.000
 0
CIRCLE
8
layer0
66
1
10
  -134.509
20
  33.750
30
  3.000
40
  2.1000000000000094
 0
CIRCLE
8
layer0
66
1
10
  -84.509
20
  33.750
30
  3.000
40
  2.100000000000016
 0
CIRCLE
8
layer0
66
1
10
  -134.509
20
  83.750
30
  3.000
40
  2.1000000000000094
 0
CIRCLE
8
layer0
66
1
10
  -84.509
20
  83.750
30
  3.000
40
  2.100000000000018
 0
CIRCLE
8
layer0
66
1
10
  -84.509
20
  245.250
30
  3.000
40
  2.100000000000018
 0
CIRCLE
8
layer0
66
1
10
  -134.509
20
  245.250
30
  3.000
40
  2.100000000000019
 0
CIRCLE
8
layer0
66
1
10
  -134.509
20
  195.250
30
  3.000
40
  2.100000000000018
 0
CIRCLE
8
layer0
66
1
10
  -84.509
20
  195.250
30
  3.000
40
  2.100000000000018
 0
ENDSEC
 0
EOF
