 0
SECTION
 2
HEADER
 9
$MEASUREMENT
 70
 2
 0
ENDSEC
 0
SECTION
 2
ENTITIES
 0
CIRCLE
8
layer0
66
1
10
  -52.500
20
  5.000
30
  -3.000
40
  1.600
 0
CIRCLE
8
layer0
66
1
10
  -37.500
20
  5.000
30
  -3.000
40
  1.600
 0
CIRCLE
8
layer0
66
1
10
  -22.500
20
  5.000
30
  -3.000
40
  1.600
 0
CIRCLE
8
layer0
66
1
10
  -52.500
20
  70.000
30
  -3.000
40
  1.600
 0
CIRCLE
8
layer0
66
1
10
  -22.500
20
  70.000
30
  -3.000
40
  1.600
 0
CIRCLE
8
layer0
66
1
10
  -37.500
20
  70.000
30
  -3.000
40
  1.600
 0
CIRCLE
8
layer0
66
1
10
  -13.930
20
  13.930
30
  -3.000
40
  2.100
 0
CIRCLE
8
layer0
66
1
10
  -13.930
20
  61.070
30
  -3.000
40
  2.100
 0
CIRCLE
8
layer0
66
1
10
  -61.070
20
  61.070
30
  -3.000
40
  2.100
 0
CIRCLE
8
layer0
66
1
10
  -61.070
20
  13.930
30
  -3.000
40
  2.100
 0
CIRCLE
8
layer0
66
1
10
  -67.500
20
  52.500
30
  -3.000
40
  3.000
 0
CIRCLE
8
layer0
66
1
10
  -67.500
20
  37.500
30
  -3.000
40
  3.000
 0
CIRCLE
8
layer0
66
1
10
  -67.500
20
  22.500
30
  -3.000
40
  3.000
 0
CIRCLE
8
layer0
66
1
10
  -37.500
20
  37.500
30
  -3.000
40
  19.000
 0
POLYLINE
8
layer0
66
1
70
8
10
  0.000
20
  0.000
30
  0.000
  0
VERTEX
8
layer0
10
  -73.500
20
  67.500
30
  -3.000
  0
VERTEX
8
layer0
10
  -65.000
20
  76.000
30
  -3.000
 0
SEQEND
 0
POLYLINE
8
layer0
66
1
70
8
10
  0.000
20
  0.000
30
  0.000
  0
VERTEX
8
layer0
10
  -65.000
20
  76.000
30
  -3.000
  0
VERTEX
8
layer0
10
  -0.000
20
  76.000
30
  -3.000
 0
SEQEND
 0
POLYLINE
8
layer0
66
1
70
8
10
  0.000
20
  0.000
30
  0.000
  0
VERTEX
8
layer0
10
  -0.000
20
  76.000
30
  -3.000
  0
VERTEX
8
layer0
10
  0.000
20
  -1.000
30
  -3.000
 0
SEQEND
 0
POLYLINE
8
layer0
66
1
70
8
10
  0.000
20
  0.000
30
  0.000
  0
VERTEX
8
layer0
10
  0.000
20
  -1.000
30
  -3.000
  0
VERTEX
8
layer0
10
  -65.000
20
  -1.000
30
  -3.000
 0
SEQEND
 0
POLYLINE
8
layer0
66
1
70
8
10
  0.000
20
  0.000
30
  0.000
  0
VERTEX
8
layer0
10
  -65.000
20
  -1.000
30
  -3.000
  0
VERTEX
8
layer0
10
  -73.500
20
  7.500
30
  -3.000
 0
SEQEND
 0
POLYLINE
8
layer0
66
1
70
8
10
  0.000
20
  0.000
30
  0.000
  0
VERTEX
8
layer0
10
  -73.500
20
  7.500
30
  -3.000
  0
VERTEX
8
layer0
10
  -73.500
20
  67.500
30
  -3.000
 0
SEQEND
 0
CIRCLE
8
layer0
66
1
10
  -52.500
20
  5.000
30
  -0.000
40
  1.600
 0
CIRCLE
8
layer0
66
1
10
  -37.500
20
  5.000
30
  -0.000
40
  1.600
 0
CIRCLE
8
layer0
66
1
10
  -22.500
20
  5.000
30
  -0.000
40
  1.600
 0
CIRCLE
8
layer0
66
1
10
  -52.500
20
  70.000
30
  -0.000
40
  1.600
 0
CIRCLE
8
layer0
66
1
10
  -22.500
20
  70.000
30
  -0.000
40
  1.600
 0
CIRCLE
8
layer0
66
1
10
  -37.500
20
  70.000
30
  -0.000
40
  1.600
 0
CIRCLE
8
layer0
66
1
10
  -13.930
20
  13.930
30
  -0.000
40
  2.100
 0
CIRCLE
8
layer0
66
1
10
  -13.930
20
  61.070
30
  -0.000
40
  2.100
 0
CIRCLE
8
layer0
66
1
10
  -61.070
20
  13.930
30
  -0.000
40
  2.100
 0
CIRCLE
8
layer0
66
1
10
  -61.070
20
  61.070
30
  -0.000
40
  2.100
 0
CIRCLE
8
layer0
66
1
10
  -67.500
20
  22.500
30
  -0.000
40
  3.000
 0
CIRCLE
8
layer0
66
1
10
  -67.500
20
  37.500
30
  -0.000
40
  3.000
 0
CIRCLE
8
layer0
66
1
10
  -67.500
20
  52.500
30
  -0.000
40
  3.000
 0
CIRCLE
8
layer0
66
1
10
  -37.500
20
  37.500
30
  -0.000
40
  19.000
 0
POLYLINE
8
layer0
66
1
70
8
10
  0.000
20
  0.000
30
  0.000
  0
VERTEX
8
layer0
10
  -65.000
20
  76.000
30
  -0.000
  0
VERTEX
8
layer0
10
  -73.500
20
  67.500
30
  -0.000
 0
SEQEND
 0
POLYLINE
8
layer0
66
1
70
8
10
  0.000
20
  0.000
30
  0.000
  0
VERTEX
8
layer0
10
  -73.500
20
  67.500
30
  -0.000
  0
VERTEX
8
layer0
10
  -73.500
20
  7.500
30
  -0.000
 0
SEQEND
 0
POLYLINE
8
layer0
66
1
70
8
10
  0.000
20
  0.000
30
  0.000
  0
VERTEX
8
layer0
10
  -73.500
20
  7.500
30
  -0.000
  0
VERTEX
8
layer0
10
  -65.000
20
  -1.000
30
  -0.000
 0
SEQEND
 0
POLYLINE
8
layer0
66
1
70
8
10
  0.000
20
  0.000
30
  0.000
  0
VERTEX
8
layer0
10
  -65.000
20
  -1.000
30
  -0.000
  0
VERTEX
8
layer0
10
  -0.000
20
  -1.000
30
  0.000
 0
SEQEND
 0
POLYLINE
8
layer0
66
1
70
8
10
  0.000
20
  0.000
30
  0.000
  0
VERTEX
8
layer0
10
  -0.000
20
  -1.000
30
  0.000
  0
VERTEX
8
layer0
10
  -0.000
20
  76.000
30
  -0.000
 0
SEQEND
 0
POLYLINE
8
layer0
66
1
70
8
10
  0.000
20
  0.000
30
  0.000
  0
VERTEX
8
layer0
10
  -0.000
20
  76.000
30
  -0.000
  0
VERTEX
8
layer0
10
  -65.000
20
  76.000
30
  -0.000
 0
SEQEND
 0
ENDSEC
 0
EOF
