 0
SECTION
 2
HEADER
 9
$MEASUREMENT
 70
 2
 0
ENDSEC
 0
SECTION
 2
ENTITIES
 0
POLYLINE
8
layer0
66
1
70
8
10
  0.000
20
  0.000
30
  0.000
  0
VERTEX
8
layer0
10
  0.000
20
  -1.000
30
  -3.000
  0
VERTEX
8
layer0
10
  -65.000
20
  -1.000
30
  -3.000
 0
SEQEND
 0
POLYLINE
8
layer0
66
1
70
8
10
  0.000
20
  0.000
30
  0.000
  0
VERTEX
8
layer0
10
  -65.000
20
  -1.000
30
  -3.000
  0
VERTEX
8
layer0
10
  -76.000
20
  10.000
30
  -3.000
 0
SEQEND
 0
POLYLINE
8
layer0
66
1
70
8
10
  0.000
20
  0.000
30
  0.000
  0
VERTEX
8
layer0
10
  -76.000
20
  10.000
30
  -3.000
  0
VERTEX
8
layer0
10
  -76.000
20
  65.000
30
  -3.000
 0
SEQEND
 0
POLYLINE
8
layer0
66
1
70
8
10
  0.000
20
  0.000
30
  0.000
  0
VERTEX
8
layer0
10
  -76.000
20
  65.000
30
  -3.000
  0
VERTEX
8
layer0
10
  -65.000
20
  76.000
30
  -3.000
 0
SEQEND
 0
POLYLINE
8
layer0
66
1
70
8
10
  0.000
20
  0.000
30
  0.000
  0
VERTEX
8
layer0
10
  -65.000
20
  76.000
30
  -3.000
  0
VERTEX
8
layer0
10
  -0.000
20
  76.000
30
  -3.000
 0
SEQEND
 0
POLYLINE
8
layer0
66
1
70
8
10
  0.000
20
  0.000
30
  0.000
  0
VERTEX
8
layer0
10
  -0.000
20
  76.000
30
  -3.000
  0
VERTEX
8
layer0
10
  0.000
20
  -1.000
30
  -3.000
 0
SEQEND
 0
CIRCLE
8
layer0
66
1
10
  -37.500
20
  5.000
30
  -3.000
40
  1.599999999999997
 0
CIRCLE
8
layer0
66
1
10
  -70.000
20
  22.500
30
  -3.000
40
  1.599999999999997
 0
CIRCLE
8
layer0
66
1
10
  -70.000
20
  52.500
30
  -3.000
40
  1.599999999999997
 0
CIRCLE
8
layer0
66
1
10
  -22.500
20
  5.000
30
  -3.000
40
  1.599999999999997
 0
CIRCLE
8
layer0
66
1
10
  -52.500
20
  5.000
30
  -3.000
40
  1.5999999999999974
 0
CIRCLE
8
layer0
66
1
10
  -52.500
20
  70.000
30
  -3.000
40
  1.5999999999999974
 0
CIRCLE
8
layer0
66
1
10
  -37.500
20
  70.000
30
  -3.000
40
  1.5999999999999963
 0
CIRCLE
8
layer0
66
1
10
  -22.500
20
  70.000
30
  -3.000
40
  1.5999999999999974
 0
CIRCLE
8
layer0
66
1
10
  -70.000
20
  37.500
30
  -3.000
40
  1.599999999999997
 0
CIRCLE
8
layer0
66
1
10
  -37.500
20
  37.500
30
  -3.000
40
  18.999999999999964
 0
CIRCLE
8
layer0
66
1
10
  -13.930
20
  13.930
30
  -3.000
40
  2.1000000000000134
 0
CIRCLE
8
layer0
66
1
10
  -61.070
20
  13.930
30
  -3.000
40
  2.1000000000000183
 0
CIRCLE
8
layer0
66
1
10
  -61.070
20
  61.070
30
  -3.000
40
  2.100000000000015
 0
CIRCLE
8
layer0
66
1
10
  -13.930
20
  61.070
30
  -3.000
40
  2.1000000000000183
 0
POLYLINE
8
layer0
66
1
70
8
10
  0.000
20
  0.000
30
  0.000
  0
VERTEX
8
layer0
10
  -76.000
20
  10.000
30
  -0.000
  0
VERTEX
8
layer0
10
  -65.000
20
  -1.000
30
  -0.000
 0
SEQEND
 0
POLYLINE
8
layer0
66
1
70
8
10
  0.000
20
  0.000
30
  0.000
  0
VERTEX
8
layer0
10
  -65.000
20
  -1.000
30
  -0.000
  0
VERTEX
8
layer0
10
  -0.000
20
  -1.000
30
  0.000
 0
SEQEND
 0
POLYLINE
8
layer0
66
1
70
8
10
  0.000
20
  0.000
30
  0.000
  0
VERTEX
8
layer0
10
  -0.000
20
  -1.000
30
  0.000
  0
VERTEX
8
layer0
10
  -0.000
20
  76.000
30
  -0.000
 0
SEQEND
 0
POLYLINE
8
layer0
66
1
70
8
10
  0.000
20
  0.000
30
  0.000
  0
VERTEX
8
layer0
10
  -0.000
20
  76.000
30
  -0.000
  0
VERTEX
8
layer0
10
  -65.000
20
  76.000
30
  -0.000
 0
SEQEND
 0
POLYLINE
8
layer0
66
1
70
8
10
  0.000
20
  0.000
30
  0.000
  0
VERTEX
8
layer0
10
  -65.000
20
  76.000
30
  -0.000
  0
VERTEX
8
layer0
10
  -76.000
20
  65.000
30
  -0.000
 0
SEQEND
 0
POLYLINE
8
layer0
66
1
70
8
10
  0.000
20
  0.000
30
  0.000
  0
VERTEX
8
layer0
10
  -76.000
20
  65.000
30
  -0.000
  0
VERTEX
8
layer0
10
  -76.000
20
  10.000
30
  -0.000
 0
SEQEND
 0
CIRCLE
8
layer0
66
1
10
  -70.000
20
  22.500
30
  -0.000
40
  1.599999999999997
 0
CIRCLE
8
layer0
66
1
10
  -37.500
20
  70.000
30
  -0.000
40
  1.5999999999999968
 0
CIRCLE
8
layer0
66
1
10
  -52.500
20
  70.000
30
  -0.000
40
  1.599999999999997
 0
CIRCLE
8
layer0
66
1
10
  -70.000
20
  52.500
30
  -0.000
40
  1.599999999999992
 0
CIRCLE
8
layer0
66
1
10
  -70.000
20
  37.500
30
  -0.000
40
  1.600000000000002
 0
CIRCLE
8
layer0
66
1
10
  -22.500
20
  5.000
30
  -0.000
40
  1.599999999999997
 0
CIRCLE
8
layer0
66
1
10
  -22.500
20
  70.000
30
  -0.000
40
  1.5999999999999974
 0
CIRCLE
8
layer0
66
1
10
  -37.500
20
  5.000
30
  -0.000
40
  1.5999999999999956
 0
CIRCLE
8
layer0
66
1
10
  -52.500
20
  5.000
30
  -0.000
40
  1.599999999999997
 0
CIRCLE
8
layer0
66
1
10
  -37.500
20
  37.500
30
  -0.000
40
  19.000000000000004
 0
CIRCLE
8
layer0
66
1
10
  -13.930
20
  61.070
30
  -0.000
40
  2.1000000000000187
 0
CIRCLE
8
layer0
66
1
10
  -61.070
20
  61.070
30
  -0.000
40
  2.100000000000015
 0
CIRCLE
8
layer0
66
1
10
  -61.070
20
  13.930
30
  -0.000
40
  2.1000000000000183
 0
CIRCLE
8
layer0
66
1
10
  -13.930
20
  13.930
30
  -0.000
40
  2.1000000000000134
 0
ENDSEC
 0
EOF
