 0
SECTION
 2
HEADER
 9
$MEASUREMENT
 70
 2
 0
ENDSEC
 0
SECTION
 2
ENTITIES
 0
POLYLINE
8
layer0
66
1
70
8
10
  0.000
20
  0.000
30
  0.000
  0
VERTEX
8
layer0
10
  61.000
20
  4.959
30
  294.634
  0
VERTEX
8
layer0
10
  61.000
20
  69.959
30
  294.634
 0
SEQEND
 0
POLYLINE
8
layer0
66
1
70
8
10
  0.000
20
  0.000
30
  0.000
  0
VERTEX
8
layer0
10
  61.000
20
  69.959
30
  294.634
  0
VERTEX
8
layer0
10
  50.000
20
  80.959
30
  294.634
 0
SEQEND
 0
POLYLINE
8
layer0
66
1
70
8
10
  0.000
20
  0.000
30
  0.000
  0
VERTEX
8
layer0
10
  50.000
20
  80.959
30
  294.634
  0
VERTEX
8
layer0
10
  -5.000
20
  80.959
30
  294.634
 0
SEQEND
 0
POLYLINE
8
layer0
66
1
70
8
10
  0.000
20
  0.000
30
  0.000
  0
VERTEX
8
layer0
10
  -5.000
20
  80.959
30
  294.634
  0
VERTEX
8
layer0
10
  -16.000
20
  69.959
30
  294.634
 0
SEQEND
 0
POLYLINE
8
layer0
66
1
70
8
10
  0.000
20
  0.000
30
  0.000
  0
VERTEX
8
layer0
10
  -16.000
20
  69.959
30
  294.634
  0
VERTEX
8
layer0
10
  -16.000
20
  4.959
30
  294.634
 0
SEQEND
 0
POLYLINE
8
layer0
66
1
70
8
10
  0.000
20
  0.000
30
  0.000
  0
VERTEX
8
layer0
10
  -16.000
20
  4.959
30
  294.634
  0
VERTEX
8
layer0
10
  61.000
20
  4.959
30
  294.634
 0
SEQEND
 0
CIRCLE
8
layer0
66
1
10
  55.000
20
  42.459
30
  294.634
40
  1.599999999999997
 0
CIRCLE
8
layer0
66
1
10
  37.500
20
  74.959
30
  294.634
40
  1.599999999999997
 0
CIRCLE
8
layer0
66
1
10
  7.500
20
  74.959
30
  294.634
40
  1.599999999999997
 0
CIRCLE
8
layer0
66
1
10
  55.000
20
  27.459
30
  294.634
40
  1.599999999999997
 0
CIRCLE
8
layer0
66
1
10
  55.000
20
  57.459
30
  294.634
40
  1.5999999999999974
 0
CIRCLE
8
layer0
66
1
10
  -10.000
20
  57.459
30
  294.634
40
  1.5999999999999974
 0
CIRCLE
8
layer0
66
1
10
  -10.000
20
  42.459
30
  294.634
40
  1.5999999999999963
 0
CIRCLE
8
layer0
66
1
10
  -10.000
20
  27.459
30
  294.634
40
  1.5999999999999974
 0
CIRCLE
8
layer0
66
1
10
  22.500
20
  74.959
30
  294.634
40
  1.599999999999997
 0
CIRCLE
8
layer0
66
1
10
  7.000
20
  26.959
30
  294.634
40
  1.5
 0
CIRCLE
8
layer0
66
1
10
  7.000
20
  57.959
30
  294.634
40
  1.5
 0
CIRCLE
8
layer0
66
1
10
  38.000
20
  57.959
30
  294.634
40
  1.500000000000002
 0
CIRCLE
8
layer0
66
1
10
  38.000
20
  26.959
30
  294.634
40
  1.5000000000000153
 0
CIRCLE
8
layer0
66
1
10
  22.500
20
  42.459
30
  294.634
40
  11.099999999999996
 0
POLYLINE
8
layer0
66
1
70
8
10
  0.000
20
  0.000
30
  0.000
  0
VERTEX
8
layer0
10
  50.000
20
  80.959
30
  291.634
  0
VERTEX
8
layer0
10
  61.000
20
  69.959
30
  291.634
 0
SEQEND
 0
POLYLINE
8
layer0
66
1
70
8
10
  0.000
20
  0.000
30
  0.000
  0
VERTEX
8
layer0
10
  61.000
20
  69.959
30
  291.634
  0
VERTEX
8
layer0
10
  61.000
20
  4.959
30
  291.634
 0
SEQEND
 0
POLYLINE
8
layer0
66
1
70
8
10
  0.000
20
  0.000
30
  0.000
  0
VERTEX
8
layer0
10
  61.000
20
  4.959
30
  291.634
  0
VERTEX
8
layer0
10
  -16.000
20
  4.959
30
  291.634
 0
SEQEND
 0
POLYLINE
8
layer0
66
1
70
8
10
  0.000
20
  0.000
30
  0.000
  0
VERTEX
8
layer0
10
  -16.000
20
  4.959
30
  291.634
  0
VERTEX
8
layer0
10
  -16.000
20
  69.959
30
  291.634
 0
SEQEND
 0
POLYLINE
8
layer0
66
1
70
8
10
  0.000
20
  0.000
30
  0.000
  0
VERTEX
8
layer0
10
  -16.000
20
  69.959
30
  291.634
  0
VERTEX
8
layer0
10
  -5.000
20
  80.959
30
  291.634
 0
SEQEND
 0
POLYLINE
8
layer0
66
1
70
8
10
  0.000
20
  0.000
30
  0.000
  0
VERTEX
8
layer0
10
  -5.000
20
  80.959
30
  291.634
  0
VERTEX
8
layer0
10
  50.000
20
  80.959
30
  291.634
 0
SEQEND
 0
CIRCLE
8
layer0
66
1
10
  37.500
20
  74.959
30
  291.634
40
  1.599999999999997
 0
CIRCLE
8
layer0
66
1
10
  -10.000
20
  42.459
30
  291.634
40
  1.5999999999999968
 0
CIRCLE
8
layer0
66
1
10
  -10.000
20
  57.459
30
  291.634
40
  1.599999999999997
 0
CIRCLE
8
layer0
66
1
10
  7.500
20
  74.959
30
  291.634
40
  1.5999999999999919
 0
CIRCLE
8
layer0
66
1
10
  22.500
20
  74.959
30
  291.634
40
  1.6000000000000023
 0
CIRCLE
8
layer0
66
1
10
  55.000
20
  27.459
30
  291.634
40
  1.599999999999997
 0
CIRCLE
8
layer0
66
1
10
  -10.000
20
  27.459
30
  291.634
40
  1.5999999999999974
 0
CIRCLE
8
layer0
66
1
10
  55.000
20
  42.459
30
  291.634
40
  1.5999999999999956
 0
CIRCLE
8
layer0
66
1
10
  55.000
20
  57.459
30
  291.634
40
  1.599999999999997
 0
CIRCLE
8
layer0
66
1
10
  7.000
20
  57.959
30
  291.634
40
  1.5
 0
CIRCLE
8
layer0
66
1
10
  7.000
20
  26.959
30
  291.634
40
  1.5000000000000029
 0
CIRCLE
8
layer0
66
1
10
  38.000
20
  26.959
30
  291.634
40
  1.5000000000000215
 0
CIRCLE
8
layer0
66
1
10
  38.000
20
  57.959
30
  291.634
40
  1.500000000000002
 0
CIRCLE
8
layer0
66
1
10
  22.500
20
  42.459
30
  291.634
40
  11.099999999999996
 0
ENDSEC
 0
EOF
