 0
SECTION
 2
HEADER
 9
$MEASUREMENT
 70
 2
 0
ENDSEC
 0
SECTION
 2
ENTITIES
 0
POLYLINE
8
layer0
66
1
70
8
10
  0.000
20
  0.000
30
  0.000
  0
VERTEX
8
layer0
10
  0.000
20
  -1.000
30
  -3.000
  0
VERTEX
8
layer0
10
  -65.000
20
  -1.000
30
  -3.000
 0
SEQEND
 0
POLYLINE
8
layer0
66
1
70
8
10
  0.000
20
  0.000
30
  0.000
  0
VERTEX
8
layer0
10
  -65.000
20
  -1.000
30
  -3.000
  0
VERTEX
8
layer0
10
  -76.000
20
  10.000
30
  -3.000
 0
SEQEND
 0
POLYLINE
8
layer0
66
1
70
8
10
  0.000
20
  0.000
30
  0.000
  0
VERTEX
8
layer0
10
  -76.000
20
  10.000
30
  -3.000
  0
VERTEX
8
layer0
10
  -76.000
20
  65.000
30
  -3.000
 0
SEQEND
 0
POLYLINE
8
layer0
66
1
70
8
10
  0.000
20
  0.000
30
  0.000
  0
VERTEX
8
layer0
10
  -76.000
20
  65.000
30
  -3.000
  0
VERTEX
8
layer0
10
  -65.000
20
  76.000
30
  -3.000
 0
SEQEND
 0
POLYLINE
8
layer0
66
1
70
8
10
  0.000
20
  0.000
30
  0.000
  0
VERTEX
8
layer0
10
  -65.000
20
  76.000
30
  -3.000
  0
VERTEX
8
layer0
10
  -0.000
20
  76.000
30
  -3.000
 0
SEQEND
 0
POLYLINE
8
layer0
66
1
70
8
10
  0.000
20
  0.000
30
  0.000
  0
VERTEX
8
layer0
10
  -0.000
20
  76.000
30
  -3.000
  0
VERTEX
8
layer0
10
  0.000
20
  -1.000
30
  -3.000
 0
SEQEND
 0
CIRCLE
8
layer0
66
1
10
  -37.500
20
  5.000
30
  -3.000
40
  1.600
 0
CIRCLE
8
layer0
66
1
10
  -70.000
20
  22.500
30
  -3.000
40
  1.600
 0
CIRCLE
8
layer0
66
1
10
  -70.000
20
  52.500
30
  -3.000
40
  1.600
 0
CIRCLE
8
layer0
66
1
10
  -22.500
20
  5.000
30
  -3.000
40
  1.600
 0
CIRCLE
8
layer0
66
1
10
  -52.500
20
  5.000
30
  -3.000
40
  1.600
 0
CIRCLE
8
layer0
66
1
10
  -52.500
20
  70.000
30
  -3.000
40
  1.600
 0
CIRCLE
8
layer0
66
1
10
  -37.500
20
  70.000
30
  -3.000
40
  1.600
 0
CIRCLE
8
layer0
66
1
10
  -22.500
20
  70.000
30
  -3.000
40
  1.600
 0
CIRCLE
8
layer0
66
1
10
  -70.000
20
  37.500
30
  -3.000
40
  1.600
 0
CIRCLE
8
layer0
66
1
10
  -22.000
20
  53.000
30
  -3.000
40
  1.500
 0
CIRCLE
8
layer0
66
1
10
  -53.000
20
  53.000
30
  -3.000
40
  1.500
 0
CIRCLE
8
layer0
66
1
10
  -53.000
20
  22.000
30
  -3.000
40
  1.500
 0
CIRCLE
8
layer0
66
1
10
  -22.000
20
  22.000
30
  -3.000
40
  1.500
 0
CIRCLE
8
layer0
66
1
10
  -37.500
20
  37.500
30
  -3.000
40
  11.100
 0
POLYLINE
8
layer0
66
1
70
8
10
  0.000
20
  0.000
30
  0.000
  0
VERTEX
8
layer0
10
  -76.000
20
  10.000
30
  -0.000
  0
VERTEX
8
layer0
10
  -65.000
20
  -1.000
30
  -0.000
 0
SEQEND
 0
POLYLINE
8
layer0
66
1
70
8
10
  0.000
20
  0.000
30
  0.000
  0
VERTEX
8
layer0
10
  -65.000
20
  -1.000
30
  -0.000
  0
VERTEX
8
layer0
10
  -0.000
20
  -1.000
30
  0.000
 0
SEQEND
 0
POLYLINE
8
layer0
66
1
70
8
10
  0.000
20
  0.000
30
  0.000
  0
VERTEX
8
layer0
10
  -0.000
20
  -1.000
30
  0.000
  0
VERTEX
8
layer0
10
  -0.000
20
  76.000
30
  -0.000
 0
SEQEND
 0
POLYLINE
8
layer0
66
1
70
8
10
  0.000
20
  0.000
30
  0.000
  0
VERTEX
8
layer0
10
  -0.000
20
  76.000
30
  -0.000
  0
VERTEX
8
layer0
10
  -65.000
20
  76.000
30
  -0.000
 0
SEQEND
 0
POLYLINE
8
layer0
66
1
70
8
10
  0.000
20
  0.000
30
  0.000
  0
VERTEX
8
layer0
10
  -65.000
20
  76.000
30
  -0.000
  0
VERTEX
8
layer0
10
  -76.000
20
  65.000
30
  -0.000
 0
SEQEND
 0
POLYLINE
8
layer0
66
1
70
8
10
  0.000
20
  0.000
30
  0.000
  0
VERTEX
8
layer0
10
  -76.000
20
  65.000
30
  -0.000
  0
VERTEX
8
layer0
10
  -76.000
20
  10.000
30
  -0.000
 0
SEQEND
 0
CIRCLE
8
layer0
66
1
10
  -70.000
20
  22.500
30
  -0.000
40
  1.600
 0
CIRCLE
8
layer0
66
1
10
  -37.500
20
  70.000
30
  -0.000
40
  1.600
 0
CIRCLE
8
layer0
66
1
10
  -52.500
20
  70.000
30
  -0.000
40
  1.600
 0
CIRCLE
8
layer0
66
1
10
  -70.000
20
  52.500
30
  -0.000
40
  1.600
 0
CIRCLE
8
layer0
66
1
10
  -70.000
20
  37.500
30
  -0.000
40
  1.600
 0
CIRCLE
8
layer0
66
1
10
  -22.500
20
  5.000
30
  -0.000
40
  1.600
 0
CIRCLE
8
layer0
66
1
10
  -22.500
20
  70.000
30
  -0.000
40
  1.600
 0
CIRCLE
8
layer0
66
1
10
  -37.500
20
  5.000
30
  -0.000
40
  1.600
 0
CIRCLE
8
layer0
66
1
10
  -52.500
20
  5.000
30
  -0.000
40
  1.600
 0
CIRCLE
8
layer0
66
1
10
  -53.000
20
  53.000
30
  0.000
40
  1.500
 0
CIRCLE
8
layer0
66
1
10
  -22.000
20
  53.000
30
  -0.000
40
  1.500
 0
CIRCLE
8
layer0
66
1
10
  -22.000
20
  22.000
30
  -0.000
40
  1.500
 0
CIRCLE
8
layer0
66
1
10
  -53.000
20
  22.000
30
  0.000
40
  1.500
 0
CIRCLE
8
layer0
66
1
10
  -37.500
20
  37.500
30
  -0.000
40
  11.100
 0
ENDSEC
 0
EOF
