 0
SECTION
 2
HEADER
 9
$MEASUREMENT
 70
 2
 0
ENDSEC
 0
SECTION
 2
ENTITIES
 0
POLYLINE
8
layer0
66
1
70
8
10
  0.0
20
  0.0
30
  0.0
  0
VERTEX
8
layer0
10
  -6.401497801356757
20
  155.97868534383025
30
  2.6345430856234034e-12
0
VERTEX
8
layer0
10
  233.59850219864268
20
  155.9786853438308
30
  4.5202225489428916e-13
0
VERTEX
8
layer0
10
  233.59850219864268
20
  155.9786853438308
30
  4.5202225489428916e-13
0
VERTEX
8
layer0
10
  -6.401497801356706
20
  52.97868534383088
30
  6.645439218255973e-13
0
VERTEX
8
layer0
10
  -6.401497801356757
20
  155.97868534383025
30
  2.6345430856234034e-12
 0
SEQEND
 0
CIRCLE
8
layer0
66
1
10
  226.09850219864313
20
  60.47868534383175
30
  -7.36819987123878e-13
40
  1.599999999999997
 0
CIRCLE
8
layer0
66
1
10
  226.09850219864313
20
  82.97868534383177
30
  -3.6008710544793634e-13
40
  1.599999999999997
 0
CIRCLE
8
layer0
66
1
10
  220.04850219864286
20
  125.47868534383078
30
  1.8867203426330783e-13
40
  2.1000000000000187
 0
CIRCLE
8
layer0
66
1
10
  226.09850219864313
20
  105.47868534383107
30
  -5.9139556323841265e-15
40
  1.599999999999997
 0
CIRCLE
8
layer0
66
1
10
  226.09850219864302
20
  145.4786853438311
30
  3.8810333349794024e-13
40
  1.599999999999997
 0
CIRCLE
8
layer0
66
1
10
  1.0985021986430883
20
  145.47868534383187
30
  2.3912121234476428e-12
40
  1.599999999999997
 0
CIRCLE
8
layer0
66
1
10
  23.598502198643086
20
  145.4786853438319
30
  2.2743722523360916e-12
40
  1.599999999999998
 0
CIRCLE
8
layer0
66
1
10
  113.5985021986431
20
  145.47868534383196
30
  1.8070127678898844e-12
40
  1.599999999999997
 0
CIRCLE
8
layer0
66
1
10
  203.5985021986431
20
  145.478685343832
30
  1.4073324790248268e-12
40
  1.599999999999997
 0
CIRCLE
8
layer0
66
1
10
  1.0985021986431052
20
  60.47868534383179
30
  8.15094165618155e-13
40
  1.599999999999997
 0
CIRCLE
8
layer0
66
1
10
  23.59850219864311
20
  60.47868534383184
30
  6.756945626462205e-13
40
  1.599999999999997
 0
CIRCLE
8
layer0
66
1
10
  113.59850219864312
20
  60.478685343831884
30
  2.3089481006039657e-13
40
  1.599999999999997
 0
CIRCLE
8
layer0
66
1
10
  203.5985021986432
20
  60.47868534383193
30
  4.1251014821254773e-16
40
  1.599999999999997
 0
POLYLINE
8
layer0
66
1
70
8
10
  0.0
20
  0.0
30
  0.0
  0
VERTEX
8
layer0
10
  53.21831169504054
20
  135.92868534383084
30
  1.800383502034069e-12
0
VERTEX
8
layer0
10
  2.049502198642738
20
  135.92868534383106
30
  2.077377017141626e-12
0
VERTEX
8
layer0
10
  2.049502198642738
20
  135.92868534383106
30
  2.077377017141626e-12
0
VERTEX
8
layer0
10
  2.049502198642744
20
  119.37868534383085
30
  1.944300407808611e-12
0
VERTEX
8
layer0
10
  53.21831169504054
20
  135.92868534383084
30
  1.800383502034069e-12
 0
SEQEND
 0
CIRCLE
8
layer0
66
1
10
  1.0985021986431052
20
  82.97868534383183
30
  1.1692673154337136e-12
40
  1.5999999999999963
 0
CIRCLE
8
layer0
66
1
10
  203.59850219864273
20
  82.97868534383196
30
  -3.22206295847722e-13
40
  8.999999999999984
 0
CIRCLE
8
layer0
66
1
10
  1.0985021986431052
20
  105.4786853438318
30
  1.376802208156781e-12
40
  1.5999999999999963
 0
CIRCLE
8
layer0
66
1
10
  23.59850219864311
20
  105.47868534383184
30
  1.2599623370452295e-12
40
  1.599999999999997
 0
CIRCLE
8
layer0
66
1
10
  113.5985021986431
20
  105.4786853438319
30
  9.843605734122795e-13
40
  1.599999999999997
 0
CIRCLE
8
layer0
66
1
10
  203.5985021986432
20
  105.47868534383194
30
  5.621205526868385e-13
40
  1.599999999999997
 0
POLYLINE
8
layer0
66
1
70
8
10
  0.0
20
  0.0
30
  0.0
  0
VERTEX
8
layer0
10
  -6.401497801356719
20
  155.97868534383022
30
  3.000000000002697
0
VERTEX
8
layer0
10
  233.59850219864268
20
  155.97868534383076
30
  2.9999999999998597
0
VERTEX
8
layer0
10
  -6.401497801356719
20
  155.97868534383022
30
  3.000000000002697
0
VERTEX
8
layer0
10
  -6.401497801356685
20
  52.97868534383086
30
  3.0000000000006137
0
VERTEX
8
layer0
10
  233.59850219864268
20
  155.97868534383076
30
  2.9999999999998597
 0
SEQEND
 0
CIRCLE
8
layer0
66
1
10
  226.09850219864313
20
  105.47868534383096
30
  2.9999999999999885
40
  1.599999999999997
 0
CIRCLE
8
layer0
66
1
10
  113.59850219864315
20
  60.47868534383182
30
  3.0000000000002256
40
  1.5999999999999974
 0
CIRCLE
8
layer0
66
1
10
  1.098502198643132
20
  60.47868534383173
30
  3.0000000000008096
40
  1.599999999999997
 0
CIRCLE
8
layer0
66
1
10
  23.598502198643125
20
  60.47868534383177
30
  3.00000000000067
40
  1.599999999999997
 0
CIRCLE
8
layer0
66
1
10
  1.0985021986431263
20
  82.97868534383176
30
  3.0000000000011635
40
  1.5999999999999963
 0
CIRCLE
8
layer0
66
1
10
  23.598502198643125
20
  105.47868534383178
30
  3.000000000001254
40
  1.599999999999997
 0
CIRCLE
8
layer0
66
1
10
  113.59850219864312
20
  105.47868534383183
30
  3.000000000000979
40
  1.599999999999997
 0
CIRCLE
8
layer0
66
1
10
  1.0985021986431263
20
  105.47868534383173
30
  3.0000000000013713
40
  1.5999999999999963
 0
CIRCLE
8
layer0
66
1
10
  203.5985021986431
20
  145.47868534383193
30
  3.0000000000014015
40
  1.599999999999997
 0
CIRCLE
8
layer0
66
1
10
  1.0985021986431038
20
  145.47868534383178
30
  3.0000000000023856
40
  1.599999999999997
 0
CIRCLE
8
layer0
66
1
10
  226.09850219864313
20
  60.47868534383168
30
  2.999999999999258
40
  1.599999999999997
 0
CIRCLE
8
layer0
66
1
10
  203.5985021986432
20
  60.47868534383186
30
  2.9999999999999947
40
  1.599999999999997
 0
CIRCLE
8
layer0
66
1
10
  226.09850219864313
20
  82.97868534383171
30
  2.999999999999634
40
  1.5999999999999963
 0
CIRCLE
8
layer0
66
1
10
  203.59850219864273
20
  82.97868534383188
30
  2.9999999999996723
40
  8.999999999999984
 0
CIRCLE
8
layer0
66
1
10
  203.5985021986432
20
  105.47868534383187
30
  3.000000000000557
40
  1.5999999999999974
 0
POLYLINE
8
layer0
66
1
70
8
10
  0.0
20
  0.0
30
  0.0
  0
VERTEX
8
layer0
10
  53.21831169504064
20
  135.9286853438308
30
  3.000000000001795
0
VERTEX
8
layer0
10
  2.0495021986427537
20
  135.92868534383103
30
  3.0000000000020717
0
VERTEX
8
layer0
10
  53.21831169504056
20
  119.3786853438306
30
  3.0000000000017293
0
VERTEX
8
layer0
10
  2.0495021986427653
20
  119.37868534383082
30
  3.000000000001939
0
VERTEX
8
layer0
10
  2.0495021986427537
20
  135.92868534383103
30
  3.0000000000020717
 0
SEQEND
 0
CIRCLE
8
layer0
66
1
10
  220.04850219864286
20
  125.47868534383075
30
  3.0000000000001945
40
  2.1000000000000134
 0
CIRCLE
8
layer0
66
1
10
  226.09850219864302
20
  145.478685343831
30
  3.000000000000383
40
  1.599999999999997
 0
CIRCLE
8
layer0
66
1
10
  113.59850219864315
20
  145.4786853438319
30
  3.0000000000018012
40
  1.599999999999997
 0
CIRCLE
8
layer0
66
1
10
  23.598502198643114
20
  145.47868534383184
30
  3.000000000002269
40
  1.5999999999999968
 0
ENDSEC
 0
EOF
