 0
SECTION
 2
HEADER
 9
$MEASUREMENT
 70
 2
 0
ENDSEC
 0
SECTION
 2
ENTITIES
 0
CIRCLE
8
layer0
66
1
10
  36.110
20
  -101.560
30
  3.000
40
  1.600
 0
CIRCLE
8
layer0
66
1
10
  64.050
20
  -101.560
30
  3.000
40
  1.600
 0
CIRCLE
8
layer0
66
1
10
  69.130
20
  -71.080
30
  3.000
40
  1.600
 0
CIRCLE
8
layer0
66
1
10
  69.130
20
  -153.630
30
  3.000
40
  1.600
 0
CIRCLE
8
layer0
66
1
10
  52.500
20
  -196.500
30
  3.000
40
  1.600
 0
CIRCLE
8
layer0
66
1
10
  52.500
20
  -229.500
30
  3.000
40
  1.600
 0
CIRCLE
8
layer0
66
1
10
  20.870
20
  -152.360
30
  3.000
40
  1.600
 0
CIRCLE
8
layer0
66
1
10
  79.574
20
  -60.500
30
  3.000
40
  1.600
 0
CIRCLE
8
layer0
66
1
10
  20.870
20
  -77.430
30
  3.000
40
  1.600
 0
CIRCLE
8
layer0
66
1
10
  7.500
20
  -196.500
30
  3.000
40
  1.600
 0
CIRCLE
8
layer0
66
1
10
  82.500
20
  -186.500
30
  3.000
40
  1.600
 0
CIRCLE
8
layer0
66
1
10
  79.574
20
  -11.500
30
  3.000
40
  1.600
 0
CIRCLE
8
layer0
66
1
10
  7.500
20
  -186.500
30
  3.000
40
  1.600
 0
CIRCLE
8
layer0
66
1
10
  7.500
20
  -229.500
30
  3.000
40
  1.600
 0
CIRCLE
8
layer0
66
1
10
  21.574
20
  -60.500
30
  3.000
40
  1.600
 0
CIRCLE
8
layer0
66
1
10
  7.500
20
  -75.000
30
  3.000
40
  1.600
 0
CIRCLE
8
layer0
66
1
10
  82.500
20
  -224.100
30
  3.000
40
  1.600
 0
CIRCLE
8
layer0
66
1
10
  21.574
20
  -11.500
30
  3.000
40
  1.600
 0
CIRCLE
8
layer0
66
1
10
  82.500
20
  -75.000
30
  3.000
40
  1.600
 0
POLYLINE
8
layer0
66
1
70
8
10
  0.000
20
  0.000
30
  0.000
  0
VERTEX
8
layer0
10
  75.000
20
  -240.000
30
  3.000
  0
VERTEX
8
layer0
10
  90.000
20
  -240.000
30
  3.000
 0
SEQEND
 0
POLYLINE
8
layer0
66
1
70
8
10
  0.000
20
  0.000
30
  0.000
  0
VERTEX
8
layer0
10
  90.000
20
  -240.000
30
  3.000
  0
VERTEX
8
layer0
10
  90.000
20
  0.000
30
  3.000
 0
SEQEND
 0
POLYLINE
8
layer0
66
1
70
8
10
  0.000
20
  0.000
30
  0.000
  0
VERTEX
8
layer0
10
  90.000
20
  0.000
30
  3.000
  0
VERTEX
8
layer0
10
  75.000
20
  0.000
30
  3.000
 0
SEQEND
 0
POLYLINE
8
layer0
66
1
70
8
10
  0.000
20
  0.000
30
  0.000
  0
VERTEX
8
layer0
10
  75.000
20
  0.000
30
  3.000
  0
VERTEX
8
layer0
10
  75.000
20
  -4.400
30
  3.000
 0
SEQEND
 0
ARC
8
layer0
66
1
10
  73.400
20
  -4.400
30
  3.000
40
  1.600
50
  -90.000
51
  -0.000
 0
POLYLINE
8
layer0
66
1
70
8
10
  0.000
20
  0.000
30
  0.000
  0
VERTEX
8
layer0
10
  73.400
20
  -6.000
30
  3.000
  0
VERTEX
8
layer0
10
  16.600
20
  -6.000
30
  3.000
 0
SEQEND
 0
ARC
8
layer0
66
1
10
  16.600
20
  -4.400
30
  3.000
40
  1.600
50
  180.000
51
  -90.000
 0
POLYLINE
8
layer0
66
1
70
8
10
  0.000
20
  0.000
30
  0.000
  0
VERTEX
8
layer0
10
  15.000
20
  -4.400
30
  3.000
  0
VERTEX
8
layer0
10
  15.000
20
  0.000
30
  3.000
 0
SEQEND
 0
POLYLINE
8
layer0
66
1
70
8
10
  0.000
20
  0.000
30
  0.000
  0
VERTEX
8
layer0
10
  15.000
20
  0.000
30
  3.000
  0
VERTEX
8
layer0
10
  -0.000
20
  0.000
30
  3.000
 0
SEQEND
 0
POLYLINE
8
layer0
66
1
70
8
10
  0.000
20
  0.000
30
  0.000
  0
VERTEX
8
layer0
10
  -0.000
20
  0.000
30
  3.000
  0
VERTEX
8
layer0
10
  0.000
20
  -240.000
30
  3.000
 0
SEQEND
 0
POLYLINE
8
layer0
66
1
70
8
10
  0.000
20
  0.000
30
  0.000
  0
VERTEX
8
layer0
10
  0.000
20
  -240.000
30
  3.000
  0
VERTEX
8
layer0
10
  15.000
20
  -240.000
30
  3.000
 0
SEQEND
 0
POLYLINE
8
layer0
66
1
70
8
10
  0.000
20
  0.000
30
  0.000
  0
VERTEX
8
layer0
10
  15.000
20
  -240.000
30
  3.000
  0
VERTEX
8
layer0
10
  15.000
20
  -235.600
30
  3.000
 0
SEQEND
 0
ARC
8
layer0
66
1
10
  16.600
20
  -235.600
30
  3.000
40
  1.600
50
  90.000
51
  180.000
 0
POLYLINE
8
layer0
66
1
70
8
10
  0.000
20
  0.000
30
  0.000
  0
VERTEX
8
layer0
10
  16.600
20
  -234.000
30
  3.000
  0
VERTEX
8
layer0
10
  73.400
20
  -234.000
30
  3.000
 0
SEQEND
 0
ARC
8
layer0
66
1
10
  73.400
20
  -235.600
30
  3.000
40
  1.600
50
  -0.000
51
  90.000
 0
POLYLINE
8
layer0
66
1
70
8
10
  0.000
20
  0.000
30
  0.000
  0
VERTEX
8
layer0
10
  75.000
20
  -235.600
30
  3.000
  0
VERTEX
8
layer0
10
  75.000
20
  -240.000
30
  3.000
 0
SEQEND
 0
CIRCLE
8
layer0
66
1
10
  64.050
20
  -101.560
30
  0.000
40
  1.600
 0
CIRCLE
8
layer0
66
1
10
  36.110
20
  -101.560
30
  0.000
40
  1.600
 0
CIRCLE
8
layer0
66
1
10
  69.130
20
  -71.080
30
  0.000
40
  1.600
 0
CIRCLE
8
layer0
66
1
10
  52.500
20
  -229.500
30
  0.000
40
  1.600
 0
CIRCLE
8
layer0
66
1
10
  52.500
20
  -196.500
30
  0.000
40
  1.600
 0
CIRCLE
8
layer0
66
1
10
  69.130
20
  -153.630
30
  0.000
40
  1.600
 0
CIRCLE
8
layer0
66
1
10
  20.870
20
  -77.430
30
  0.000
40
  1.600
 0
CIRCLE
8
layer0
66
1
10
  7.500
20
  -186.500
30
  0.000
40
  1.600
 0
CIRCLE
8
layer0
66
1
10
  20.870
20
  -152.360
30
  0.000
40
  1.600
 0
CIRCLE
8
layer0
66
1
10
  79.574
20
  -11.500
30
  0.000
40
  1.600
 0
CIRCLE
8
layer0
66
1
10
  7.500
20
  -229.500
30
  0.000
40
  1.600
 0
CIRCLE
8
layer0
66
1
10
  7.500
20
  -75.000
30
  0.000
40
  1.600
 0
CIRCLE
8
layer0
66
1
10
  82.500
20
  -224.100
30
  0.000
40
  1.600
 0
CIRCLE
8
layer0
66
1
10
  79.574
20
  -60.500
30
  0.000
40
  1.600
 0
CIRCLE
8
layer0
66
1
10
  7.500
20
  -196.500
30
  0.000
40
  1.600
 0
CIRCLE
8
layer0
66
1
10
  21.574
20
  -60.500
30
  0.000
40
  1.600
 0
CIRCLE
8
layer0
66
1
10
  82.500
20
  -186.500
30
  0.000
40
  1.600
 0
CIRCLE
8
layer0
66
1
10
  82.500
20
  -75.000
30
  0.000
40
  1.600
 0
CIRCLE
8
layer0
66
1
10
  21.574
20
  -11.500
30
  0.000
40
  1.600
 0
POLYLINE
8
layer0
66
1
70
8
10
  0.000
20
  0.000
30
  0.000
  0
VERTEX
8
layer0
10
  90.000
20
  0.000
30
  0.000
  0
VERTEX
8
layer0
10
  90.000
20
  -240.000
30
  0.000
 0
SEQEND
 0
POLYLINE
8
layer0
66
1
70
8
10
  0.000
20
  0.000
30
  0.000
  0
VERTEX
8
layer0
10
  90.000
20
  -240.000
30
  0.000
  0
VERTEX
8
layer0
10
  75.000
20
  -240.000
30
  0.000
 0
SEQEND
 0
POLYLINE
8
layer0
66
1
70
8
10
  0.000
20
  0.000
30
  0.000
  0
VERTEX
8
layer0
10
  75.000
20
  -240.000
30
  0.000
  0
VERTEX
8
layer0
10
  75.000
20
  -235.600
30
  0.000
 0
SEQEND
 0
ARC
8
layer0
66
1
10
  73.400
20
  -235.600
30
  0.000
40
  1.600
50
  -0.000
51
  90.000
 0
POLYLINE
8
layer0
66
1
70
8
10
  0.000
20
  0.000
30
  0.000
  0
VERTEX
8
layer0
10
  73.400
20
  -234.000
30
  0.000
  0
VERTEX
8
layer0
10
  16.600
20
  -234.000
30
  0.000
 0
SEQEND
 0
ARC
8
layer0
66
1
10
  16.600
20
  -235.600
30
  0.000
40
  1.600
50
  90.000
51
  180.000
 0
POLYLINE
8
layer0
66
1
70
8
10
  0.000
20
  0.000
30
  0.000
  0
VERTEX
8
layer0
10
  15.000
20
  -235.600
30
  0.000
  0
VERTEX
8
layer0
10
  15.000
20
  -240.000
30
  0.000
 0
SEQEND
 0
POLYLINE
8
layer0
66
1
70
8
10
  0.000
20
  0.000
30
  0.000
  0
VERTEX
8
layer0
10
  15.000
20
  -240.000
30
  0.000
  0
VERTEX
8
layer0
10
  0.000
20
  -240.000
30
  0.000
 0
SEQEND
 0
POLYLINE
8
layer0
66
1
70
8
10
  0.000
20
  0.000
30
  0.000
  0
VERTEX
8
layer0
10
  0.000
20
  -240.000
30
  0.000
  0
VERTEX
8
layer0
10
  -0.000
20
  -0.000
30
  0.000
 0
SEQEND
 0
POLYLINE
8
layer0
66
1
70
8
10
  0.000
20
  0.000
30
  0.000
  0
VERTEX
8
layer0
10
  -0.000
20
  -0.000
30
  0.000
  0
VERTEX
8
layer0
10
  15.000
20
  0.000
30
  0.000
 0
SEQEND
 0
POLYLINE
8
layer0
66
1
70
8
10
  0.000
20
  0.000
30
  0.000
  0
VERTEX
8
layer0
10
  15.000
20
  0.000
30
  0.000
  0
VERTEX
8
layer0
10
  15.000
20
  -4.400
30
  0.000
 0
SEQEND
 0
ARC
8
layer0
66
1
10
  16.600
20
  -4.400
30
  0.000
40
  1.600
50
  180.000
51
  -90.000
 0
POLYLINE
8
layer0
66
1
70
8
10
  0.000
20
  0.000
30
  0.000
  0
VERTEX
8
layer0
10
  16.600
20
  -6.000
30
  0.000
  0
VERTEX
8
layer0
10
  73.400
20
  -6.000
30
  0.000
 0
SEQEND
 0
ARC
8
layer0
66
1
10
  73.400
20
  -4.400
30
  0.000
40
  1.600
50
  -90.000
51
  -0.000
 0
POLYLINE
8
layer0
66
1
70
8
10
  0.000
20
  0.000
30
  0.000
  0
VERTEX
8
layer0
10
  75.000
20
  -4.400
30
  0.000
  0
VERTEX
8
layer0
10
  75.000
20
  0.000
30
  0.000
 0
SEQEND
 0
POLYLINE
8
layer0
66
1
70
8
10
  0.000
20
  0.000
30
  0.000
  0
VERTEX
8
layer0
10
  75.000
20
  0.000
30
  0.000
  0
VERTEX
8
layer0
10
  90.000
20
  0.000
30
  0.000
 0
SEQEND
 0
ENDSEC
 0
EOF
