 0
SECTION
 2
HEADER
 9
$MEASUREMENT
 70
 2
 0
ENDSEC
 0
SECTION
 2
ENTITIES
 0
CIRCLE
8
layer0
66
1
10
  -203.599
20
  118.579
30
  -3.000
40
  1.600
 0
CIRCLE
8
layer0
66
1
10
  -1.099
20
  60.479
30
  -3.000
40
  1.600
 0
CIRCLE
8
layer0
66
1
10
  -1.099
20
  82.979
30
  -3.000
40
  1.600
 0
CIRCLE
8
layer0
66
1
10
  -203.599
20
  145.479
30
  -3.000
40
  1.600
 0
CIRCLE
8
layer0
66
1
10
  -203.599
20
  60.479
30
  -3.000
40
  1.600
 0
CIRCLE
8
layer0
66
1
10
  -226.099
20
  82.979
30
  -3.000
40
  1.600
 0
CIRCLE
8
layer0
66
1
10
  -163.199
20
  126.929
30
  -3.000
40
  1.600
 0
CIRCLE
8
layer0
66
1
10
  -226.099
20
  60.479
30
  -3.000
40
  1.600
 0
CIRCLE
8
layer0
66
1
10
  -1.099
20
  145.479
30
  -3.000
40
  1.600
 0
CIRCLE
8
layer0
66
1
10
  -175.399
20
  118.579
30
  -3.000
40
  1.600
 0
CIRCLE
8
layer0
66
1
10
  -113.599
20
  145.479
30
  -3.000
40
  1.600
 0
CIRCLE
8
layer0
66
1
10
  -194.199
20
  118.579
30
  -3.000
40
  1.600
 0
CIRCLE
8
layer0
66
1
10
  -212.999
20
  118.579
30
  -3.000
40
  1.600
 0
CIRCLE
8
layer0
66
1
10
  -222.399
20
  118.579
30
  -3.000
40
  1.600
 0
CIRCLE
8
layer0
66
1
10
  -113.599
20
  60.479
30
  -3.000
40
  1.600
 0
CIRCLE
8
layer0
66
1
10
  -23.599
20
  105.479
30
  -3.000
40
  1.600
 0
CIRCLE
8
layer0
66
1
10
  -23.599
20
  145.479
30
  -3.000
40
  1.600
 0
CIRCLE
8
layer0
66
1
10
  -23.599
20
  60.479
30
  -3.000
40
  1.600
 0
CIRCLE
8
layer0
66
1
10
  -184.799
20
  118.579
30
  -3.000
40
  1.600
 0
CIRCLE
8
layer0
66
1
10
  -226.099
20
  105.479
30
  -3.000
40
  1.600
 0
CIRCLE
8
layer0
66
1
10
  -163.199
20
  74.629
30
  -3.000
40
  1.600
 0
CIRCLE
8
layer0
66
1
10
  -226.099
20
  145.479
30
  -3.000
40
  1.600
 0
CIRCLE
8
layer0
66
1
10
  -1.099
20
  105.479
30
  -3.000
40
  1.600
 0
CIRCLE
8
layer0
66
1
10
  -36.049
20
  73.729
30
  -3.000
40
  1.600
 0
CIRCLE
8
layer0
66
1
10
  -113.599
20
  105.479
30
  -3.000
40
  1.600
 0
CIRCLE
8
layer0
66
1
10
  -203.599
20
  105.479
30
  -3.000
40
  1.600
 0
POLYLINE
8
layer0
66
1
70
8
10
  0.000
20
  0.000
30
  0.000
  0
VERTEX
8
layer0
10
  6.401
20
  52.979
30
  -3.000
  0
VERTEX
8
layer0
10
  -233.599
20
  52.979
30
  -3.000
 0
SEQEND
 0
POLYLINE
8
layer0
66
1
70
8
10
  0.000
20
  0.000
30
  0.000
  0
VERTEX
8
layer0
10
  -233.599
20
  52.979
30
  -3.000
  0
VERTEX
8
layer0
10
  -233.599
20
  155.979
30
  -3.000
 0
SEQEND
 0
POLYLINE
8
layer0
66
1
70
8
10
  0.000
20
  0.000
30
  0.000
  0
VERTEX
8
layer0
10
  -233.599
20
  155.979
30
  -3.000
  0
VERTEX
8
layer0
10
  6.401
20
  155.979
30
  -3.000
 0
SEQEND
 0
POLYLINE
8
layer0
66
1
70
8
10
  0.000
20
  0.000
30
  0.000
  0
VERTEX
8
layer0
10
  6.401
20
  155.979
30
  -3.000
  0
VERTEX
8
layer0
10
  6.401
20
  52.979
30
  -3.000
 0
SEQEND
 0
CIRCLE
8
layer0
66
1
10
  -203.599
20
  118.579
30
  0.000
40
  1.600
 0
CIRCLE
8
layer0
66
1
10
  -203.599
20
  145.479
30
  0.000
40
  1.600
 0
CIRCLE
8
layer0
66
1
10
  -23.599
20
  105.479
30
  0.000
40
  1.600
 0
CIRCLE
8
layer0
66
1
10
  -194.199
20
  118.579
30
  0.000
40
  1.600
 0
CIRCLE
8
layer0
66
1
10
  -113.599
20
  145.479
30
  0.000
40
  1.600
 0
CIRCLE
8
layer0
66
1
10
  -1.099
20
  145.479
30
  -0.000
40
  1.600
 0
CIRCLE
8
layer0
66
1
10
  -226.099
20
  60.479
30
  0.000
40
  1.600
 0
CIRCLE
8
layer0
66
1
10
  -226.099
20
  145.479
30
  0.000
40
  1.600
 0
CIRCLE
8
layer0
66
1
10
  -203.599
20
  60.479
30
  0.000
40
  1.600
 0
CIRCLE
8
layer0
66
1
10
  -226.099
20
  82.979
30
  0.000
40
  1.600
 0
CIRCLE
8
layer0
66
1
10
  -226.099
20
  105.479
30
  0.000
40
  1.600
 0
CIRCLE
8
layer0
66
1
10
  -1.099
20
  60.479
30
  0.000
40
  1.600
 0
CIRCLE
8
layer0
66
1
10
  -23.599
20
  145.479
30
  -0.000
40
  1.600
 0
CIRCLE
8
layer0
66
1
10
  -163.199
20
  74.629
30
  0.000
40
  1.600
 0
CIRCLE
8
layer0
66
1
10
  -36.049
20
  73.729
30
  0.000
40
  1.600
 0
CIRCLE
8
layer0
66
1
10
  -23.599
20
  60.479
30
  0.000
40
  1.600
 0
CIRCLE
8
layer0
66
1
10
  -1.099
20
  82.979
30
  0.000
40
  1.600
 0
CIRCLE
8
layer0
66
1
10
  -1.099
20
  105.479
30
  0.000
40
  1.600
 0
CIRCLE
8
layer0
66
1
10
  -163.199
20
  126.929
30
  0.000
40
  1.600
 0
CIRCLE
8
layer0
66
1
10
  -175.399
20
  118.579
30
  0.000
40
  1.600
 0
CIRCLE
8
layer0
66
1
10
  -113.599
20
  60.479
30
  0.000
40
  1.600
 0
CIRCLE
8
layer0
66
1
10
  -222.399
20
  118.579
30
  0.000
40
  1.600
 0
CIRCLE
8
layer0
66
1
10
  -184.799
20
  118.579
30
  0.000
40
  1.600
 0
CIRCLE
8
layer0
66
1
10
  -212.999
20
  118.579
30
  0.000
40
  1.600
 0
CIRCLE
8
layer0
66
1
10
  -113.599
20
  105.479
30
  0.000
40
  1.600
 0
CIRCLE
8
layer0
66
1
10
  -203.599
20
  105.479
30
  0.000
40
  1.600
 0
POLYLINE
8
layer0
66
1
70
8
10
  0.000
20
  0.000
30
  0.000
  0
VERTEX
8
layer0
10
  -233.599
20
  155.979
30
  0.000
  0
VERTEX
8
layer0
10
  -233.599
20
  52.979
30
  0.000
 0
SEQEND
 0
POLYLINE
8
layer0
66
1
70
8
10
  0.000
20
  0.000
30
  0.000
  0
VERTEX
8
layer0
10
  -233.599
20
  52.979
30
  0.000
  0
VERTEX
8
layer0
10
  6.401
20
  52.979
30
  0.000
 0
SEQEND
 0
POLYLINE
8
layer0
66
1
70
8
10
  0.000
20
  0.000
30
  0.000
  0
VERTEX
8
layer0
10
  6.401
20
  52.979
30
  0.000
  0
VERTEX
8
layer0
10
  6.401
20
  155.979
30
  0.000
 0
SEQEND
 0
POLYLINE
8
layer0
66
1
70
8
10
  0.000
20
  0.000
30
  0.000
  0
VERTEX
8
layer0
10
  6.401
20
  155.979
30
  0.000
  0
VERTEX
8
layer0
10
  -233.599
20
  155.979
30
  0.000
 0
SEQEND
 0
ENDSEC
 0
EOF
