 0
SECTION
 2
HEADER
 9
$MEASUREMENT
 70
 2
 0
ENDSEC
 0
SECTION
 2
ENTITIES
 0
POLYLINE
8
layer0
66
1
70
8
10
  0.000
20
  0.000
30
  0.000
  0
VERTEX
8
layer0
10
  -0.000
20
  -0.000
30
  -3.000
  0
VERTEX
8
layer0
10
  -17.400
20
  -0.000
30
  -3.000
 0
SEQEND
 0
POLYLINE
8
layer0
66
1
70
8
10
  0.000
20
  0.000
30
  0.000
  0
VERTEX
8
layer0
10
  -17.400
20
  -0.000
30
  -3.000
  0
VERTEX
8
layer0
10
  -17.400
20
  5.939
30
  -3.000
 0
SEQEND
 0
POLYLINE
8
layer0
66
1
70
8
10
  0.000
20
  0.000
30
  0.000
  0
VERTEX
8
layer0
10
  -17.400
20
  5.939
30
  -3.000
  0
VERTEX
8
layer0
10
  -17.472
20
  6.707
30
  -3.000
 0
SEQEND
 0
POLYLINE
8
layer0
66
1
70
8
10
  0.000
20
  0.000
30
  0.000
  0
VERTEX
8
layer0
10
  -17.472
20
  6.707
30
  -3.000
  0
VERTEX
8
layer0
10
  -17.681
20
  7.424
30
  -3.000
 0
SEQEND
 0
POLYLINE
8
layer0
66
1
70
8
10
  0.000
20
  0.000
30
  0.000
  0
VERTEX
8
layer0
10
  -17.681
20
  7.424
30
  -3.000
  0
VERTEX
8
layer0
10
  -18.015
20
  8.039
30
  -3.000
 0
SEQEND
 0
POLYLINE
8
layer0
66
1
70
8
10
  0.000
20
  0.000
30
  0.000
  0
VERTEX
8
layer0
10
  -18.015
20
  8.039
30
  -3.000
  0
VERTEX
8
layer0
10
  -18.450
20
  8.511
30
  -3.000
 0
SEQEND
 0
POLYLINE
8
layer0
66
1
70
8
10
  0.000
20
  0.000
30
  0.000
  0
VERTEX
8
layer0
10
  -18.450
20
  8.511
30
  -3.000
  0
VERTEX
8
layer0
10
  -18.956
20
  8.807
30
  -3.000
 0
SEQEND
 0
POLYLINE
8
layer0
66
1
70
8
10
  0.000
20
  0.000
30
  0.000
  0
VERTEX
8
layer0
10
  -18.956
20
  8.807
30
  -3.000
  0
VERTEX
8
layer0
10
  -19.500
20
  8.908
30
  -3.000
 0
SEQEND
 0
POLYLINE
8
layer0
66
1
70
8
10
  0.000
20
  0.000
30
  0.000
  0
VERTEX
8
layer0
10
  -19.500
20
  8.908
30
  -3.000
  0
VERTEX
8
layer0
10
  -20.044
20
  8.807
30
  -3.000
 0
SEQEND
 0
POLYLINE
8
layer0
66
1
70
8
10
  0.000
20
  0.000
30
  0.000
  0
VERTEX
8
layer0
10
  -20.044
20
  8.807
30
  -3.000
  0
VERTEX
8
layer0
10
  -20.550
20
  8.511
30
  -3.000
 0
SEQEND
 0
POLYLINE
8
layer0
66
1
70
8
10
  0.000
20
  0.000
30
  0.000
  0
VERTEX
8
layer0
10
  -20.550
20
  8.511
30
  -3.000
  0
VERTEX
8
layer0
10
  -20.985
20
  8.039
30
  -3.000
 0
SEQEND
 0
POLYLINE
8
layer0
66
1
70
8
10
  0.000
20
  0.000
30
  0.000
  0
VERTEX
8
layer0
10
  -20.985
20
  8.039
30
  -3.000
  0
VERTEX
8
layer0
10
  -21.319
20
  7.424
30
  -3.000
 0
SEQEND
 0
POLYLINE
8
layer0
66
1
70
8
10
  0.000
20
  0.000
30
  0.000
  0
VERTEX
8
layer0
10
  -21.319
20
  7.424
30
  -3.000
  0
VERTEX
8
layer0
10
  -21.528
20
  6.707
30
  -3.000
 0
SEQEND
 0
POLYLINE
8
layer0
66
1
70
8
10
  0.000
20
  0.000
30
  0.000
  0
VERTEX
8
layer0
10
  -21.528
20
  6.707
30
  -3.000
  0
VERTEX
8
layer0
10
  -21.600
20
  5.939
30
  -3.000
 0
SEQEND
 0
POLYLINE
8
layer0
66
1
70
8
10
  0.000
20
  0.000
30
  0.000
  0
VERTEX
8
layer0
10
  -21.600
20
  5.939
30
  -3.000
  0
VERTEX
8
layer0
10
  -21.600
20
  -0.000
30
  -3.000
 0
SEQEND
 0
POLYLINE
8
layer0
66
1
70
8
10
  0.000
20
  0.000
30
  0.000
  0
VERTEX
8
layer0
10
  -21.600
20
  -0.000
30
  -3.000
  0
VERTEX
8
layer0
10
  -69.000
20
  -0.000
30
  -3.000
 0
SEQEND
 0
POLYLINE
8
layer0
66
1
70
8
10
  0.000
20
  0.000
30
  0.000
  0
VERTEX
8
layer0
10
  -69.000
20
  -0.000
30
  -3.000
  0
VERTEX
8
layer0
10
  -69.000
20
  60.000
30
  -3.000
 0
SEQEND
 0
POLYLINE
8
layer0
66
1
70
8
10
  0.000
20
  0.000
30
  0.000
  0
VERTEX
8
layer0
10
  -69.000
20
  60.000
30
  -3.000
  0
VERTEX
8
layer0
10
  -0.000
20
  60.000
30
  -3.000
 0
SEQEND
 0
POLYLINE
8
layer0
66
1
70
8
10
  0.000
20
  0.000
30
  0.000
  0
VERTEX
8
layer0
10
  -0.000
20
  60.000
30
  -3.000
  0
VERTEX
8
layer0
10
  -0.000
20
  -0.000
30
  -3.000
 0
SEQEND
 0
POLYLINE
8
layer0
66
1
70
8
10
  0.000
20
  0.000
30
  0.000
  0
VERTEX
8
layer0
10
  -17.400
20
  0.000
30
  0.000
  0
VERTEX
8
layer0
10
  0.000
20
  0.000
30
  0.000
 0
SEQEND
 0
POLYLINE
8
layer0
66
1
70
8
10
  0.000
20
  0.000
30
  0.000
  0
VERTEX
8
layer0
10
  0.000
20
  0.000
30
  0.000
  0
VERTEX
8
layer0
10
  -0.000
20
  60.000
30
  -0.000
 0
SEQEND
 0
POLYLINE
8
layer0
66
1
70
8
10
  0.000
20
  0.000
30
  0.000
  0
VERTEX
8
layer0
10
  -0.000
20
  60.000
30
  -0.000
  0
VERTEX
8
layer0
10
  -69.000
20
  60.000
30
  0.000
 0
SEQEND
 0
POLYLINE
8
layer0
66
1
70
8
10
  0.000
20
  0.000
30
  0.000
  0
VERTEX
8
layer0
10
  -69.000
20
  60.000
30
  0.000
  0
VERTEX
8
layer0
10
  -69.000
20
  0.000
30
  0.000
 0
SEQEND
 0
POLYLINE
8
layer0
66
1
70
8
10
  0.000
20
  0.000
30
  0.000
  0
VERTEX
8
layer0
10
  -69.000
20
  0.000
30
  0.000
  0
VERTEX
8
layer0
10
  -21.600
20
  0.000
30
  0.000
 0
SEQEND
 0
POLYLINE
8
layer0
66
1
70
8
10
  0.000
20
  0.000
30
  0.000
  0
VERTEX
8
layer0
10
  -21.600
20
  0.000
30
  0.000
  0
VERTEX
8
layer0
10
  -21.600
20
  5.939
30
  0.000
 0
SEQEND
 0
POLYLINE
8
layer0
66
1
70
8
10
  0.000
20
  0.000
30
  0.000
  0
VERTEX
8
layer0
10
  -21.600
20
  5.939
30
  0.000
  0
VERTEX
8
layer0
10
  -21.528
20
  6.707
30
  0.000
 0
SEQEND
 0
POLYLINE
8
layer0
66
1
70
8
10
  0.000
20
  0.000
30
  0.000
  0
VERTEX
8
layer0
10
  -21.528
20
  6.707
30
  0.000
  0
VERTEX
8
layer0
10
  -21.319
20
  7.424
30
  0.000
 0
SEQEND
 0
POLYLINE
8
layer0
66
1
70
8
10
  0.000
20
  0.000
30
  0.000
  0
VERTEX
8
layer0
10
  -21.319
20
  7.424
30
  0.000
  0
VERTEX
8
layer0
10
  -20.985
20
  8.039
30
  0.000
 0
SEQEND
 0
POLYLINE
8
layer0
66
1
70
8
10
  0.000
20
  0.000
30
  0.000
  0
VERTEX
8
layer0
10
  -20.985
20
  8.039
30
  0.000
  0
VERTEX
8
layer0
10
  -20.550
20
  8.511
30
  0.000
 0
SEQEND
 0
POLYLINE
8
layer0
66
1
70
8
10
  0.000
20
  0.000
30
  0.000
  0
VERTEX
8
layer0
10
  -20.550
20
  8.511
30
  0.000
  0
VERTEX
8
layer0
10
  -20.044
20
  8.807
30
  0.000
 0
SEQEND
 0
POLYLINE
8
layer0
66
1
70
8
10
  0.000
20
  0.000
30
  0.000
  0
VERTEX
8
layer0
10
  -20.044
20
  8.807
30
  0.000
  0
VERTEX
8
layer0
10
  -19.500
20
  8.908
30
  0.000
 0
SEQEND
 0
POLYLINE
8
layer0
66
1
70
8
10
  0.000
20
  0.000
30
  0.000
  0
VERTEX
8
layer0
10
  -19.500
20
  8.908
30
  0.000
  0
VERTEX
8
layer0
10
  -18.956
20
  8.807
30
  0.000
 0
SEQEND
 0
POLYLINE
8
layer0
66
1
70
8
10
  0.000
20
  0.000
30
  0.000
  0
VERTEX
8
layer0
10
  -18.956
20
  8.807
30
  0.000
  0
VERTEX
8
layer0
10
  -18.450
20
  8.511
30
  0.000
 0
SEQEND
 0
POLYLINE
8
layer0
66
1
70
8
10
  0.000
20
  0.000
30
  0.000
  0
VERTEX
8
layer0
10
  -18.450
20
  8.511
30
  0.000
  0
VERTEX
8
layer0
10
  -18.015
20
  8.039
30
  0.000
 0
SEQEND
 0
POLYLINE
8
layer0
66
1
70
8
10
  0.000
20
  0.000
30
  0.000
  0
VERTEX
8
layer0
10
  -18.015
20
  8.039
30
  0.000
  0
VERTEX
8
layer0
10
  -17.681
20
  7.424
30
  0.000
 0
SEQEND
 0
POLYLINE
8
layer0
66
1
70
8
10
  0.000
20
  0.000
30
  0.000
  0
VERTEX
8
layer0
10
  -17.681
20
  7.424
30
  0.000
  0
VERTEX
8
layer0
10
  -17.472
20
  6.707
30
  0.000
 0
SEQEND
 0
POLYLINE
8
layer0
66
1
70
8
10
  0.000
20
  0.000
30
  0.000
  0
VERTEX
8
layer0
10
  -17.472
20
  6.707
30
  0.000
  0
VERTEX
8
layer0
10
  -17.400
20
  5.939
30
  0.000
 0
SEQEND
 0
POLYLINE
8
layer0
66
1
70
8
10
  0.000
20
  0.000
30
  0.000
  0
VERTEX
8
layer0
10
  -17.400
20
  5.939
30
  0.000
  0
VERTEX
8
layer0
10
  -17.400
20
  0.000
30
  0.000
 0
SEQEND
 0
ENDSEC
 0
EOF
