 0
SECTION
 2
HEADER
 9
$MEASUREMENT
 70
 2
 0
ENDSEC
 0
SECTION
 2
ENTITIES
 0
POLYLINE
8
layer0
66
1
70
8
10
  0.000
20
  0.000
30
  0.000
  0
VERTEX
8
layer0
10
  92.924
20
  100.000
30
  2.874
  0
VERTEX
8
layer0
10
  92.934
20
  99.289
30
  2.854
 0
SEQEND
 0
POLYLINE
8
layer0
66
1
70
8
10
  0.000
20
  0.000
30
  0.000
  0
VERTEX
8
layer0
10
  92.934
20
  99.289
30
  2.854
  0
VERTEX
8
layer0
10
  92.945
20
  99.296
30
  0.000
 0
SEQEND
 0
POLYLINE
8
layer0
66
1
70
8
10
  0.000
20
  0.000
30
  0.000
  0
VERTEX
8
layer0
10
  92.945
20
  99.296
30
  0.000
  0
VERTEX
8
layer0
10
  92.924
20
  100.000
30
  2.874
 0
SEQEND
 0
POLYLINE
8
layer0
66
1
70
8
10
  0.000
20
  0.000
30
  0.000
  0
VERTEX
8
layer0
10
  92.934
20
  99.289
30
  2.854
  0
VERTEX
8
layer0
10
  93.000
20
  0.000
30
  0.000
 0
SEQEND
 0
POLYLINE
8
layer0
66
1
70
8
10
  0.000
20
  0.000
30
  0.000
  0
VERTEX
8
layer0
10
  93.000
20
  0.000
30
  0.000
  0
VERTEX
8
layer0
10
  92.920
20
  99.157
30
  0.000
 0
SEQEND
 0
POLYLINE
8
layer0
66
1
70
8
10
  0.000
20
  0.000
30
  0.000
  0
VERTEX
8
layer0
10
  92.920
20
  99.157
30
  0.000
  0
VERTEX
8
layer0
10
  92.934
20
  99.289
30
  2.854
 0
SEQEND
 0
CIRCLE
8
layer0
66
1
10
  10.500
20
  7.500
30
  0.000
40
  1.600
 0
CIRCLE
8
layer0
66
1
10
  85.500
20
  30.000
30
  0.000
40
  1.600
 0
CIRCLE
8
layer0
66
1
10
  85.500
20
  7.500
30
  0.000
40
  1.600
 0
CIRCLE
8
layer0
66
1
10
  10.500
20
  92.500
30
  0.000
40
  1.600
 0
CIRCLE
8
layer0
66
1
10
  10.500
20
  30.000
30
  0.000
40
  1.600
 0
CIRCLE
8
layer0
66
1
10
  85.500
20
  92.500
30
  0.000
40
  1.600
 0
CIRCLE
8
layer0
66
1
10
  85.500
20
  52.500
30
  0.000
40
  1.600
 0
CIRCLE
8
layer0
66
1
10
  10.500
20
  52.500
30
  0.000
40
  1.600
 0
POLYLINE
8
layer0
66
1
70
8
10
  0.000
20
  0.000
30
  0.000
  0
VERTEX
8
layer0
10
  39.400
20
  48.500
30
  0.000
  0
VERTEX
8
layer0
10
  42.600
20
  48.500
30
  0.000
 0
SEQEND
 0
POLYLINE
8
layer0
66
1
70
8
10
  0.000
20
  0.000
30
  0.000
  0
VERTEX
8
layer0
10
  42.600
20
  48.500
30
  0.000
  0
VERTEX
8
layer0
10
  42.600
20
  92.000
30
  0.000
 0
SEQEND
 0
POLYLINE
8
layer0
66
1
70
8
10
  0.000
20
  0.000
30
  0.000
  0
VERTEX
8
layer0
10
  42.600
20
  92.000
30
  0.000
  0
VERTEX
8
layer0
10
  39.400
20
  92.000
30
  0.000
 0
SEQEND
 0
POLYLINE
8
layer0
66
1
70
8
10
  0.000
20
  0.000
30
  0.000
  0
VERTEX
8
layer0
10
  39.400
20
  92.000
30
  0.000
  0
VERTEX
8
layer0
10
  39.400
20
  48.500
30
  0.000
 0
SEQEND
 0
POLYLINE
8
layer0
66
1
70
8
10
  0.000
20
  0.000
30
  0.000
  0
VERTEX
8
layer0
10
  58.600
20
  64.500
30
  0.000
  0
VERTEX
8
layer0
10
  65.944
20
  64.500
30
  0.000
 0
SEQEND
 0
POLYLINE
8
layer0
66
1
70
8
10
  0.000
20
  0.000
30
  0.000
  0
VERTEX
8
layer0
10
  65.944
20
  64.500
30
  0.000
  0
VERTEX
8
layer0
10
  65.944
20
  76.000
30
  0.000
 0
SEQEND
 0
POLYLINE
8
layer0
66
1
70
8
10
  0.000
20
  0.000
30
  0.000
  0
VERTEX
8
layer0
10
  65.944
20
  76.000
30
  0.000
  0
VERTEX
8
layer0
10
  58.600
20
  76.000
30
  0.000
 0
SEQEND
 0
POLYLINE
8
layer0
66
1
70
8
10
  0.000
20
  0.000
30
  0.000
  0
VERTEX
8
layer0
10
  58.600
20
  76.000
30
  0.000
  0
VERTEX
8
layer0
10
  58.600
20
  92.000
30
  0.000
 0
SEQEND
 0
POLYLINE
8
layer0
66
1
70
8
10
  0.000
20
  0.000
30
  0.000
  0
VERTEX
8
layer0
10
  58.600
20
  92.000
30
  0.000
  0
VERTEX
8
layer0
10
  55.400
20
  92.000
30
  0.000
 0
SEQEND
 0
POLYLINE
8
layer0
66
1
70
8
10
  0.000
20
  0.000
30
  0.000
  0
VERTEX
8
layer0
10
  55.400
20
  92.000
30
  0.000
  0
VERTEX
8
layer0
10
  55.400
20
  76.000
30
  0.000
 0
SEQEND
 0
POLYLINE
8
layer0
66
1
70
8
10
  0.000
20
  0.000
30
  0.000
  0
VERTEX
8
layer0
10
  55.400
20
  76.000
30
  0.000
  0
VERTEX
8
layer0
10
  45.944
20
  76.000
30
  0.000
 0
SEQEND
 0
POLYLINE
8
layer0
66
1
70
8
10
  0.000
20
  0.000
30
  0.000
  0
VERTEX
8
layer0
10
  45.944
20
  76.000
30
  0.000
  0
VERTEX
8
layer0
10
  45.944
20
  64.500
30
  0.000
 0
SEQEND
 0
POLYLINE
8
layer0
66
1
70
8
10
  0.000
20
  0.000
30
  0.000
  0
VERTEX
8
layer0
10
  45.944
20
  64.500
30
  0.000
  0
VERTEX
8
layer0
10
  55.400
20
  64.500
30
  0.000
 0
SEQEND
 0
POLYLINE
8
layer0
66
1
70
8
10
  0.000
20
  0.000
30
  0.000
  0
VERTEX
8
layer0
10
  55.400
20
  64.500
30
  0.000
  0
VERTEX
8
layer0
10
  55.400
20
  48.500
30
  0.000
 0
SEQEND
 0
POLYLINE
8
layer0
66
1
70
8
10
  0.000
20
  0.000
30
  0.000
  0
VERTEX
8
layer0
10
  55.400
20
  48.500
30
  0.000
  0
VERTEX
8
layer0
10
  58.600
20
  48.500
30
  0.000
 0
SEQEND
 0
POLYLINE
8
layer0
66
1
70
8
10
  0.000
20
  0.000
30
  0.000
  0
VERTEX
8
layer0
10
  58.600
20
  48.500
30
  0.000
  0
VERTEX
8
layer0
10
  58.600
20
  64.500
30
  0.000
 0
SEQEND
 0
ARC
8
layer0
66
1
10
  83.500
20
  97.100
30
  0.000
40
  1.600
50
  180.000
51
  -90.000
 0
POLYLINE
8
layer0
66
1
70
8
10
  0.000
20
  0.000
30
  0.000
  0
VERTEX
8
layer0
10
  83.500
20
  95.500
30
  0.000
  0
VERTEX
8
layer0
10
  87.500
20
  95.500
30
  0.000
 0
SEQEND
 0
ARC
8
layer0
66
1
10
  87.500
20
  97.100
30
  0.000
40
  1.600
50
  -90.000
51
  -0.000
 0
POLYLINE
8
layer0
66
1
70
8
10
  0.000
20
  0.000
30
  0.000
  0
VERTEX
8
layer0
10
  89.100
20
  97.100
30
  0.000
  0
VERTEX
8
layer0
10
  89.100
20
  100.000
30
  0.000
 0
SEQEND
 0
POLYLINE
8
layer0
66
1
70
8
10
  0.000
20
  0.000
30
  0.000
  0
VERTEX
8
layer0
10
  89.100
20
  100.000
30
  0.000
  0
VERTEX
8
layer0
10
  92.924
20
  100.000
30
  0.000
 0
SEQEND
 0
POLYLINE
8
layer0
66
1
70
8
10
  0.000
20
  0.000
30
  0.000
  0
VERTEX
8
layer0
10
  92.924
20
  100.000
30
  0.000
  0
VERTEX
8
layer0
10
  92.965
20
  99.436
30
  0.000
 0
SEQEND
 0
POLYLINE
8
layer0
66
1
70
8
10
  0.000
20
  0.000
30
  0.000
  0
VERTEX
8
layer0
10
  92.965
20
  99.436
30
  0.000
  0
VERTEX
8
layer0
10
  92.945
20
  99.296
30
  0.000
 0
SEQEND
 0
POLYLINE
8
layer0
66
1
70
8
10
  0.000
20
  0.000
30
  0.000
  0
VERTEX
8
layer0
10
  92.945
20
  99.296
30
  0.000
  0
VERTEX
8
layer0
10
  92.920
20
  99.157
30
  0.000
 0
SEQEND
 0
POLYLINE
8
layer0
66
1
70
8
10
  0.000
20
  0.000
30
  0.000
  0
VERTEX
8
layer0
10
  92.920
20
  99.157
30
  0.000
  0
VERTEX
8
layer0
10
  93.000
20
  0.000
30
  0.000
 0
SEQEND
 0
POLYLINE
8
layer0
66
1
70
8
10
  0.000
20
  0.000
30
  0.000
  0
VERTEX
8
layer0
10
  93.000
20
  0.000
30
  0.000
  0
VERTEX
8
layer0
10
  3.000
20
  0.000
30
  0.000
 0
SEQEND
 0
POLYLINE
8
layer0
66
1
70
8
10
  0.000
20
  0.000
30
  0.000
  0
VERTEX
8
layer0
10
  3.000
20
  0.000
30
  0.000
  0
VERTEX
8
layer0
10
  3.000
20
  100.000
30
  -0.000
 0
SEQEND
 0
POLYLINE
8
layer0
66
1
70
8
10
  0.000
20
  0.000
30
  0.000
  0
VERTEX
8
layer0
10
  3.000
20
  100.000
30
  -0.000
  0
VERTEX
8
layer0
10
  6.900
20
  100.000
30
  -0.000
 0
SEQEND
 0
POLYLINE
8
layer0
66
1
70
8
10
  0.000
20
  0.000
30
  0.000
  0
VERTEX
8
layer0
10
  6.900
20
  100.000
30
  -0.000
  0
VERTEX
8
layer0
10
  6.900
20
  97.100
30
  -0.000
 0
SEQEND
 0
ARC
8
layer0
66
1
10
  8.500
20
  97.100
30
  -0.000
40
  1.600
50
  180.000
51
  -90.000
 0
POLYLINE
8
layer0
66
1
70
8
10
  0.000
20
  0.000
30
  0.000
  0
VERTEX
8
layer0
10
  8.500
20
  95.500
30
  -0.000
  0
VERTEX
8
layer0
10
  12.500
20
  95.500
30
  -0.000
 0
SEQEND
 0
ARC
8
layer0
66
1
10
  12.500
20
  97.100
30
  -0.000
40
  1.600
50
  -90.000
51
  -0.000
 0
POLYLINE
8
layer0
66
1
70
8
10
  0.000
20
  0.000
30
  0.000
  0
VERTEX
8
layer0
10
  14.100
20
  97.100
30
  -0.000
  0
VERTEX
8
layer0
10
  14.100
20
  100.000
30
  -0.000
 0
SEQEND
 0
POLYLINE
8
layer0
66
1
70
8
10
  0.000
20
  0.000
30
  0.000
  0
VERTEX
8
layer0
10
  14.100
20
  100.000
30
  -0.000
  0
VERTEX
8
layer0
10
  24.450
20
  100.000
30
  -0.000
 0
SEQEND
 0
POLYLINE
8
layer0
66
1
70
8
10
  0.000
20
  0.000
30
  0.000
  0
VERTEX
8
layer0
10
  24.450
20
  100.000
30
  -0.000
  0
VERTEX
8
layer0
10
  24.450
20
  79.000
30
  -0.000
 0
SEQEND
 0
POLYLINE
8
layer0
66
1
70
8
10
  0.000
20
  0.000
30
  0.000
  0
VERTEX
8
layer0
10
  24.450
20
  79.000
30
  -0.000
  0
VERTEX
8
layer0
10
  32.950
20
  79.000
30
  -0.000
 0
SEQEND
 0
POLYLINE
8
layer0
66
1
70
8
10
  0.000
20
  0.000
30
  0.000
  0
VERTEX
8
layer0
10
  32.950
20
  79.000
30
  -0.000
  0
VERTEX
8
layer0
10
  32.950
20
  100.000
30
  -0.000
 0
SEQEND
 0
POLYLINE
8
layer0
66
1
70
8
10
  0.000
20
  0.000
30
  0.000
  0
VERTEX
8
layer0
10
  32.950
20
  100.000
30
  -0.000
  0
VERTEX
8
layer0
10
  81.900
20
  100.000
30
  0.000
 0
SEQEND
 0
POLYLINE
8
layer0
66
1
70
8
10
  0.000
20
  0.000
30
  0.000
  0
VERTEX
8
layer0
10
  81.900
20
  100.000
30
  0.000
  0
VERTEX
8
layer0
10
  81.900
20
  97.100
30
  0.000
 0
SEQEND
 0
ARC
8
layer0
66
1
10
  83.500
20
  97.100
30
  0.000
40
  1.600
50
  180.000
51
  -90.000
 0
CIRCLE
8
layer0
66
1
10
  85.500
20
  92.500
30
  3.000
40
  1.600
 0
CIRCLE
8
layer0
66
1
10
  10.500
20
  7.500
30
  3.000
40
  1.600
 0
CIRCLE
8
layer0
66
1
10
  85.500
20
  52.500
30
  3.000
40
  1.600
 0
CIRCLE
8
layer0
66
1
10
  10.500
20
  30.000
30
  3.000
40
  1.600
 0
CIRCLE
8
layer0
66
1
10
  85.500
20
  7.500
30
  3.000
40
  1.600
 0
CIRCLE
8
layer0
66
1
10
  10.500
20
  52.500
30
  3.000
40
  1.600
 0
CIRCLE
8
layer0
66
1
10
  10.500
20
  92.500
30
  3.000
40
  1.600
 0
CIRCLE
8
layer0
66
1
10
  85.500
20
  30.000
30
  3.000
40
  1.600
 0
POLYLINE
8
layer0
66
1
70
8
10
  0.000
20
  0.000
30
  0.000
  0
VERTEX
8
layer0
10
  39.400
20
  48.500
30
  3.000
  0
VERTEX
8
layer0
10
  39.400
20
  92.000
30
  3.000
 0
SEQEND
 0
POLYLINE
8
layer0
66
1
70
8
10
  0.000
20
  0.000
30
  0.000
  0
VERTEX
8
layer0
10
  39.400
20
  92.000
30
  3.000
  0
VERTEX
8
layer0
10
  42.600
20
  92.000
30
  3.000
 0
SEQEND
 0
POLYLINE
8
layer0
66
1
70
8
10
  0.000
20
  0.000
30
  0.000
  0
VERTEX
8
layer0
10
  42.600
20
  92.000
30
  3.000
  0
VERTEX
8
layer0
10
  42.600
20
  48.500
30
  3.000
 0
SEQEND
 0
POLYLINE
8
layer0
66
1
70
8
10
  0.000
20
  0.000
30
  0.000
  0
VERTEX
8
layer0
10
  42.600
20
  48.500
30
  3.000
  0
VERTEX
8
layer0
10
  39.400
20
  48.500
30
  3.000
 0
SEQEND
 0
POLYLINE
8
layer0
66
1
70
8
10
  0.000
20
  0.000
30
  0.000
  0
VERTEX
8
layer0
10
  65.944
20
  76.000
30
  3.000
  0
VERTEX
8
layer0
10
  65.944
20
  64.500
30
  3.000
 0
SEQEND
 0
POLYLINE
8
layer0
66
1
70
8
10
  0.000
20
  0.000
30
  0.000
  0
VERTEX
8
layer0
10
  65.944
20
  64.500
30
  3.000
  0
VERTEX
8
layer0
10
  58.600
20
  64.500
30
  3.000
 0
SEQEND
 0
POLYLINE
8
layer0
66
1
70
8
10
  0.000
20
  0.000
30
  0.000
  0
VERTEX
8
layer0
10
  58.600
20
  64.500
30
  3.000
  0
VERTEX
8
layer0
10
  58.600
20
  48.500
30
  3.000
 0
SEQEND
 0
POLYLINE
8
layer0
66
1
70
8
10
  0.000
20
  0.000
30
  0.000
  0
VERTEX
8
layer0
10
  58.600
20
  48.500
30
  3.000
  0
VERTEX
8
layer0
10
  55.400
20
  48.500
30
  3.000
 0
SEQEND
 0
POLYLINE
8
layer0
66
1
70
8
10
  0.000
20
  0.000
30
  0.000
  0
VERTEX
8
layer0
10
  55.400
20
  48.500
30
  3.000
  0
VERTEX
8
layer0
10
  55.400
20
  64.500
30
  3.000
 0
SEQEND
 0
POLYLINE
8
layer0
66
1
70
8
10
  0.000
20
  0.000
30
  0.000
  0
VERTEX
8
layer0
10
  55.400
20
  64.500
30
  3.000
  0
VERTEX
8
layer0
10
  45.944
20
  64.500
30
  3.000
 0
SEQEND
 0
POLYLINE
8
layer0
66
1
70
8
10
  0.000
20
  0.000
30
  0.000
  0
VERTEX
8
layer0
10
  45.944
20
  64.500
30
  3.000
  0
VERTEX
8
layer0
10
  45.944
20
  76.000
30
  3.000
 0
SEQEND
 0
POLYLINE
8
layer0
66
1
70
8
10
  0.000
20
  0.000
30
  0.000
  0
VERTEX
8
layer0
10
  45.944
20
  76.000
30
  3.000
  0
VERTEX
8
layer0
10
  55.400
20
  76.000
30
  3.000
 0
SEQEND
 0
POLYLINE
8
layer0
66
1
70
8
10
  0.000
20
  0.000
30
  0.000
  0
VERTEX
8
layer0
10
  55.400
20
  76.000
30
  3.000
  0
VERTEX
8
layer0
10
  55.400
20
  92.000
30
  3.000
 0
SEQEND
 0
POLYLINE
8
layer0
66
1
70
8
10
  0.000
20
  0.000
30
  0.000
  0
VERTEX
8
layer0
10
  55.400
20
  92.000
30
  3.000
  0
VERTEX
8
layer0
10
  58.600
20
  92.000
30
  3.000
 0
SEQEND
 0
POLYLINE
8
layer0
66
1
70
8
10
  0.000
20
  0.000
30
  0.000
  0
VERTEX
8
layer0
10
  58.600
20
  92.000
30
  3.000
  0
VERTEX
8
layer0
10
  58.600
20
  76.000
30
  3.000
 0
SEQEND
 0
POLYLINE
8
layer0
66
1
70
8
10
  0.000
20
  0.000
30
  0.000
  0
VERTEX
8
layer0
10
  58.600
20
  76.000
30
  3.000
  0
VERTEX
8
layer0
10
  65.944
20
  76.000
30
  3.000
 0
SEQEND
 0
POLYLINE
8
layer0
66
1
70
8
10
  0.000
20
  0.000
30
  0.000
  0
VERTEX
8
layer0
10
  93.000
20
  0.000
30
  3.000
  0
VERTEX
8
layer0
10
  92.945
20
  99.296
30
  3.000
 0
SEQEND
 0
POLYLINE
8
layer0
66
1
70
8
10
  0.000
20
  0.000
30
  0.000
  0
VERTEX
8
layer0
10
  92.945
20
  99.296
30
  3.000
  0
VERTEX
8
layer0
10
  92.965
20
  99.436
30
  3.000
 0
SEQEND
 0
POLYLINE
8
layer0
66
1
70
8
10
  0.000
20
  0.000
30
  0.000
  0
VERTEX
8
layer0
10
  92.965
20
  99.436
30
  3.000
  0
VERTEX
8
layer0
10
  92.924
20
  100.000
30
  3.000
 0
SEQEND
 0
POLYLINE
8
layer0
66
1
70
8
10
  0.000
20
  0.000
30
  0.000
  0
VERTEX
8
layer0
10
  92.924
20
  100.000
30
  3.000
  0
VERTEX
8
layer0
10
  89.100
20
  100.000
30
  3.000
 0
SEQEND
 0
POLYLINE
8
layer0
66
1
70
8
10
  0.000
20
  0.000
30
  0.000
  0
VERTEX
8
layer0
10
  89.100
20
  100.000
30
  3.000
  0
VERTEX
8
layer0
10
  89.100
20
  97.100
30
  3.000
 0
SEQEND
 0
ARC
8
layer0
66
1
10
  87.500
20
  97.100
30
  3.000
40
  1.600
50
  -90.000
51
  -0.000
 0
POLYLINE
8
layer0
66
1
70
8
10
  0.000
20
  0.000
30
  0.000
  0
VERTEX
8
layer0
10
  87.500
20
  95.500
30
  3.000
  0
VERTEX
8
layer0
10
  83.500
20
  95.500
30
  3.000
 0
SEQEND
 0
ARC
8
layer0
66
1
10
  83.500
20
  97.100
30
  3.000
40
  1.600
50
  180.000
51
  -90.000
 0
POLYLINE
8
layer0
66
1
70
8
10
  0.000
20
  0.000
30
  0.000
  0
VERTEX
8
layer0
10
  81.900
20
  97.100
30
  3.000
  0
VERTEX
8
layer0
10
  81.900
20
  100.000
30
  3.000
 0
SEQEND
 0
POLYLINE
8
layer0
66
1
70
8
10
  0.000
20
  0.000
30
  0.000
  0
VERTEX
8
layer0
10
  81.900
20
  100.000
30
  3.000
  0
VERTEX
8
layer0
10
  32.950
20
  100.000
30
  3.000
 0
SEQEND
 0
POLYLINE
8
layer0
66
1
70
8
10
  0.000
20
  0.000
30
  0.000
  0
VERTEX
8
layer0
10
  32.950
20
  100.000
30
  3.000
  0
VERTEX
8
layer0
10
  32.950
20
  79.000
30
  3.000
 0
SEQEND
 0
POLYLINE
8
layer0
66
1
70
8
10
  0.000
20
  0.000
30
  0.000
  0
VERTEX
8
layer0
10
  32.950
20
  79.000
30
  3.000
  0
VERTEX
8
layer0
10
  24.450
20
  79.000
30
  3.000
 0
SEQEND
 0
POLYLINE
8
layer0
66
1
70
8
10
  0.000
20
  0.000
30
  0.000
  0
VERTEX
8
layer0
10
  24.450
20
  79.000
30
  3.000
  0
VERTEX
8
layer0
10
  24.450
20
  100.000
30
  3.000
 0
SEQEND
 0
POLYLINE
8
layer0
66
1
70
8
10
  0.000
20
  0.000
30
  0.000
  0
VERTEX
8
layer0
10
  24.450
20
  100.000
30
  3.000
  0
VERTEX
8
layer0
10
  14.100
20
  100.000
30
  3.000
 0
SEQEND
 0
POLYLINE
8
layer0
66
1
70
8
10
  0.000
20
  0.000
30
  0.000
  0
VERTEX
8
layer0
10
  14.100
20
  100.000
30
  3.000
  0
VERTEX
8
layer0
10
  14.100
20
  97.100
30
  3.000
 0
SEQEND
 0
ARC
8
layer0
66
1
10
  12.500
20
  97.100
30
  3.000
40
  1.600
50
  -90.000
51
  -0.000
 0
POLYLINE
8
layer0
66
1
70
8
10
  0.000
20
  0.000
30
  0.000
  0
VERTEX
8
layer0
10
  12.500
20
  95.500
30
  3.000
  0
VERTEX
8
layer0
10
  8.500
20
  95.500
30
  3.000
 0
SEQEND
 0
ARC
8
layer0
66
1
10
  8.500
20
  97.100
30
  3.000
40
  1.600
50
  180.000
51
  -90.000
 0
POLYLINE
8
layer0
66
1
70
8
10
  0.000
20
  0.000
30
  0.000
  0
VERTEX
8
layer0
10
  6.900
20
  97.100
30
  3.000
  0
VERTEX
8
layer0
10
  6.900
20
  100.000
30
  3.000
 0
SEQEND
 0
POLYLINE
8
layer0
66
1
70
8
10
  0.000
20
  0.000
30
  0.000
  0
VERTEX
8
layer0
10
  6.900
20
  100.000
30
  3.000
  0
VERTEX
8
layer0
10
  3.000
20
  100.000
30
  3.000
 0
SEQEND
 0
POLYLINE
8
layer0
66
1
70
8
10
  0.000
20
  0.000
30
  0.000
  0
VERTEX
8
layer0
10
  3.000
20
  100.000
30
  3.000
  0
VERTEX
8
layer0
10
  3.000
20
  0.000
30
  3.000
 0
SEQEND
 0
POLYLINE
8
layer0
66
1
70
8
10
  0.000
20
  0.000
30
  0.000
  0
VERTEX
8
layer0
10
  3.000
20
  0.000
30
  3.000
  0
VERTEX
8
layer0
10
  93.000
20
  0.000
30
  3.000
 0
SEQEND
 0
ENDSEC
 0
EOF
