 0
SECTION
 2
HEADER
 9
$MEASUREMENT
 70
 2
 0
ENDSEC
 0
SECTION
 2
ENTITIES
 0
CIRCLE
8
layer0
66
1
10
  -10.700
20
  153.000
30
  -3.000
40
  1.600
 0
CIRCLE
8
layer0
66
1
10
  -58.300
20
  153.000
30
  -3.000
40
  1.600
 0
CIRCLE
8
layer0
66
1
10
  -58.300
20
  111.000
30
  -3.000
40
  1.600
 0
CIRCLE
8
layer0
66
1
10
  -58.300
20
  69.000
30
  -3.000
40
  1.600
 0
CIRCLE
8
layer0
66
1
10
  -10.700
20
  132.000
30
  -3.000
40
  1.600
 0
CIRCLE
8
layer0
66
1
10
  -58.300
20
  132.000
30
  -3.000
40
  1.600
 0
CIRCLE
8
layer0
66
1
10
  -58.300
20
  90.000
30
  -3.000
40
  1.600
 0
CIRCLE
8
layer0
66
1
10
  -10.700
20
  111.000
30
  -3.000
40
  1.600
 0
CIRCLE
8
layer0
66
1
10
  -10.700
20
  90.000
30
  -3.000
40
  1.600
 0
CIRCLE
8
layer0
66
1
10
  -10.700
20
  69.000
30
  -3.000
40
  1.600
 0
ARC
8
layer0
66
1
10
  -50.000
20
  209.700
30
  -3.000
40
  2.000
50
  -0.000
51
  180.000
 0
POLYLINE
8
layer0
66
1
70
8
10
  0.000
20
  0.000
30
  0.000
  0
VERTEX
8
layer0
10
  -52.000
20
  209.700
30
  -3.000
  0
VERTEX
8
layer0
10
  -52.000
20
  205.300
30
  -3.000
 0
SEQEND
 0
ARC
8
layer0
66
1
10
  -50.000
20
  205.300
30
  -3.000
40
  2.000
50
  180.000
51
  -0.000
 0
POLYLINE
8
layer0
66
1
70
8
10
  0.000
20
  0.000
30
  0.000
  0
VERTEX
8
layer0
10
  -48.000
20
  205.300
30
  -3.000
  0
VERTEX
8
layer0
10
  -48.000
20
  209.700
30
  -3.000
 0
SEQEND
 0
ARC
8
layer0
66
1
10
  -50.000
20
  209.700
30
  -3.000
40
  2.000
50
  -0.000
51
  180.000
 0
POLYLINE
8
layer0
66
1
70
8
10
  0.000
20
  0.000
30
  0.000
  0
VERTEX
8
layer0
10
  -0.000
20
  216.000
30
  -3.000
  0
VERTEX
8
layer0
10
  -0.000
20
  6.000
30
  -3.000
 0
SEQEND
 0
POLYLINE
8
layer0
66
1
70
8
10
  0.000
20
  0.000
30
  0.000
  0
VERTEX
8
layer0
10
  -0.000
20
  6.000
30
  -3.000
  0
VERTEX
8
layer0
10
  -4.500
20
  6.000
30
  -3.000
 0
SEQEND
 0
POLYLINE
8
layer0
66
1
70
8
10
  0.000
20
  0.000
30
  0.000
  0
VERTEX
8
layer0
10
  -4.500
20
  6.000
30
  -3.000
  0
VERTEX
8
layer0
10
  -4.500
20
  -0.000
30
  -3.000
 0
SEQEND
 0
POLYLINE
8
layer0
66
1
70
8
10
  0.000
20
  0.000
30
  0.000
  0
VERTEX
8
layer0
10
  -4.500
20
  -0.000
30
  -3.000
  0
VERTEX
8
layer0
10
  -64.500
20
  -0.000
30
  -3.000
 0
SEQEND
 0
POLYLINE
8
layer0
66
1
70
8
10
  0.000
20
  0.000
30
  0.000
  0
VERTEX
8
layer0
10
  -64.500
20
  -0.000
30
  -3.000
  0
VERTEX
8
layer0
10
  -64.500
20
  6.000
30
  -3.000
 0
SEQEND
 0
POLYLINE
8
layer0
66
1
70
8
10
  0.000
20
  0.000
30
  0.000
  0
VERTEX
8
layer0
10
  -64.500
20
  6.000
30
  -3.000
  0
VERTEX
8
layer0
10
  -69.000
20
  6.000
30
  -3.000
 0
SEQEND
 0
POLYLINE
8
layer0
66
1
70
8
10
  0.000
20
  0.000
30
  0.000
  0
VERTEX
8
layer0
10
  -69.000
20
  6.000
30
  -3.000
  0
VERTEX
8
layer0
10
  -69.000
20
  216.000
30
  -3.000
 0
SEQEND
 0
POLYLINE
8
layer0
66
1
70
8
10
  0.000
20
  0.000
30
  0.000
  0
VERTEX
8
layer0
10
  -69.000
20
  216.000
30
  -3.000
  0
VERTEX
8
layer0
10
  -64.500
20
  216.000
30
  -3.000
 0
SEQEND
 0
POLYLINE
8
layer0
66
1
70
8
10
  0.000
20
  0.000
30
  0.000
  0
VERTEX
8
layer0
10
  -64.500
20
  216.000
30
  -3.000
  0
VERTEX
8
layer0
10
  -64.500
20
  222.000
30
  -3.000
 0
SEQEND
 0
POLYLINE
8
layer0
66
1
70
8
10
  0.000
20
  0.000
30
  0.000
  0
VERTEX
8
layer0
10
  -64.500
20
  222.000
30
  -3.000
  0
VERTEX
8
layer0
10
  -4.500
20
  222.000
30
  -3.000
 0
SEQEND
 0
POLYLINE
8
layer0
66
1
70
8
10
  0.000
20
  0.000
30
  0.000
  0
VERTEX
8
layer0
10
  -4.500
20
  222.000
30
  -3.000
  0
VERTEX
8
layer0
10
  -4.500
20
  216.000
30
  -3.000
 0
SEQEND
 0
POLYLINE
8
layer0
66
1
70
8
10
  0.000
20
  0.000
30
  0.000
  0
VERTEX
8
layer0
10
  -4.500
20
  216.000
30
  -3.000
  0
VERTEX
8
layer0
10
  -0.000
20
  216.000
30
  -3.000
 0
SEQEND
 0
CIRCLE
8
layer0
66
1
10
  -10.700
20
  153.000
30
  0.000
40
  1.600
 0
CIRCLE
8
layer0
66
1
10
  -58.300
20
  153.000
30
  0.000
40
  1.600
 0
CIRCLE
8
layer0
66
1
10
  -58.300
20
  90.000
30
  0.000
40
  1.600
 0
CIRCLE
8
layer0
66
1
10
  -58.300
20
  132.000
30
  0.000
40
  1.600
 0
CIRCLE
8
layer0
66
1
10
  -10.700
20
  111.000
30
  0.000
40
  1.600
 0
CIRCLE
8
layer0
66
1
10
  -10.700
20
  90.000
30
  0.000
40
  1.600
 0
CIRCLE
8
layer0
66
1
10
  -58.300
20
  69.000
30
  0.000
40
  1.600
 0
CIRCLE
8
layer0
66
1
10
  -58.300
20
  111.000
30
  0.000
40
  1.600
 0
CIRCLE
8
layer0
66
1
10
  -10.700
20
  132.000
30
  0.000
40
  1.600
 0
CIRCLE
8
layer0
66
1
10
  -10.700
20
  69.000
30
  0.000
40
  1.600
 0
ARC
8
layer0
66
1
10
  -50.000
20
  209.700
30
  0.000
40
  2.000
50
  -0.000
51
  180.000
 0
POLYLINE
8
layer0
66
1
70
8
10
  0.000
20
  0.000
30
  0.000
  0
VERTEX
8
layer0
10
  -48.000
20
  209.700
30
  0.000
  0
VERTEX
8
layer0
10
  -48.000
20
  205.300
30
  0.000
 0
SEQEND
 0
ARC
8
layer0
66
1
10
  -50.000
20
  205.300
30
  0.000
40
  2.000
50
  180.000
51
  -0.000
 0
POLYLINE
8
layer0
66
1
70
8
10
  0.000
20
  0.000
30
  0.000
  0
VERTEX
8
layer0
10
  -52.000
20
  205.300
30
  0.000
  0
VERTEX
8
layer0
10
  -52.000
20
  209.700
30
  0.000
 0
SEQEND
 0
ARC
8
layer0
66
1
10
  -50.000
20
  209.700
30
  0.000
40
  2.000
50
  -0.000
51
  180.000
 0
POLYLINE
8
layer0
66
1
70
8
10
  0.000
20
  0.000
30
  0.000
  0
VERTEX
8
layer0
10
  -64.500
20
  -0.000
30
  0.000
  0
VERTEX
8
layer0
10
  -4.500
20
  -0.000
30
  0.000
 0
SEQEND
 0
POLYLINE
8
layer0
66
1
70
8
10
  0.000
20
  0.000
30
  0.000
  0
VERTEX
8
layer0
10
  -4.500
20
  -0.000
30
  0.000
  0
VERTEX
8
layer0
10
  -4.500
20
  6.000
30
  0.000
 0
SEQEND
 0
POLYLINE
8
layer0
66
1
70
8
10
  0.000
20
  0.000
30
  0.000
  0
VERTEX
8
layer0
10
  -4.500
20
  6.000
30
  0.000
  0
VERTEX
8
layer0
10
  0.000
20
  6.000
30
  0.000
 0
SEQEND
 0
POLYLINE
8
layer0
66
1
70
8
10
  0.000
20
  0.000
30
  0.000
  0
VERTEX
8
layer0
10
  0.000
20
  6.000
30
  0.000
  0
VERTEX
8
layer0
10
  -0.000
20
  216.000
30
  0.000
 0
SEQEND
 0
POLYLINE
8
layer0
66
1
70
8
10
  0.000
20
  0.000
30
  0.000
  0
VERTEX
8
layer0
10
  -0.000
20
  216.000
30
  0.000
  0
VERTEX
8
layer0
10
  -4.500
20
  216.000
30
  0.000
 0
SEQEND
 0
POLYLINE
8
layer0
66
1
70
8
10
  0.000
20
  0.000
30
  0.000
  0
VERTEX
8
layer0
10
  -4.500
20
  216.000
30
  0.000
  0
VERTEX
8
layer0
10
  -4.500
20
  222.000
30
  0.000
 0
SEQEND
 0
POLYLINE
8
layer0
66
1
70
8
10
  0.000
20
  0.000
30
  0.000
  0
VERTEX
8
layer0
10
  -4.500
20
  222.000
30
  0.000
  0
VERTEX
8
layer0
10
  -64.500
20
  222.000
30
  0.000
 0
SEQEND
 0
POLYLINE
8
layer0
66
1
70
8
10
  0.000
20
  0.000
30
  0.000
  0
VERTEX
8
layer0
10
  -64.500
20
  222.000
30
  0.000
  0
VERTEX
8
layer0
10
  -64.500
20
  216.000
30
  0.000
 0
SEQEND
 0
POLYLINE
8
layer0
66
1
70
8
10
  0.000
20
  0.000
30
  0.000
  0
VERTEX
8
layer0
10
  -64.500
20
  216.000
30
  0.000
  0
VERTEX
8
layer0
10
  -69.000
20
  216.000
30
  0.000
 0
SEQEND
 0
POLYLINE
8
layer0
66
1
70
8
10
  0.000
20
  0.000
30
  0.000
  0
VERTEX
8
layer0
10
  -69.000
20
  216.000
30
  0.000
  0
VERTEX
8
layer0
10
  -69.000
20
  6.000
30
  0.000
 0
SEQEND
 0
POLYLINE
8
layer0
66
1
70
8
10
  0.000
20
  0.000
30
  0.000
  0
VERTEX
8
layer0
10
  -69.000
20
  6.000
30
  0.000
  0
VERTEX
8
layer0
10
  -64.500
20
  6.000
30
  0.000
 0
SEQEND
 0
POLYLINE
8
layer0
66
1
70
8
10
  0.000
20
  0.000
30
  0.000
  0
VERTEX
8
layer0
10
  -64.500
20
  6.000
30
  0.000
  0
VERTEX
8
layer0
10
  -64.500
20
  -0.000
30
  0.000
 0
SEQEND
 0
ENDSEC
 0
EOF
