 0
SECTION
 2
HEADER
 9
$MEASUREMENT
 70
 2
 0
ENDSEC
 0
SECTION
 2
ENTITIES
 0
POLYLINE
8
layer0
66
1
70
8
10
  0.0
20
  0.0
30
  0.0
  0
VERTEX
8
layer0
10
  -90.0000000000008
20
  239.99999999999937
30
  1.8761618930568805e-13
0
VERTEX
8
layer0
10
  -90.00000000000065
20
  -4.3962345869593054e-14
30
  4.0607517348689725e-13
0
VERTEX
8
layer0
10
  -90.0000000000008
20
  239.99999999999937
30
  1.8761618930568805e-13
0
VERTEX
8
layer0
10
  -75.0000000000008
20
  239.99999999999937
30
  1.8761618930568805e-13
 0
SEQEND
 0
ARC
8
layer0
66
1
10
  -73.4000000000008
20
  235.5999999999994
30
  1.9162127068234359e-13
40
  1.599999999999997
50
  -89.97666379572334
51
  0.011668102138344238
 0
POLYLINE
8
layer0
66
1
70
8
10
  0.0
20
  0.0
30
  0.0
  0
VERTEX
8
layer0
10
  -16.600000000000115
20
  233.99999999999943
30
  1.930776639102183e-13
0
VERTEX
8
layer0
10
  -73.4000000000008
20
  233.9999999999994
30
  1.930776639102183e-13
 0
SEQEND
 0
ARC
8
layer0
66
1
10
  -16.600000000000115
20
  235.59999999999943
30
  1.9162127068234359e-13
40
  1.599999999999997
50
  -89.97666379572334
51
  0.011668102138344238
 0
POLYLINE
8
layer0
66
1
70
8
10
  0.0
20
  0.0
30
  0.0
  0
VERTEX
8
layer0
10
  -15.000000000000115
20
  235.59999999999943
30
  1.9162127068234359e-13
0
VERTEX
8
layer0
10
  -15.000000000000119
20
  239.99999999999943
30
  1.8761618930568805e-13
0
VERTEX
8
layer0
10
  -15.000000000000119
20
  239.99999999999943
30
  1.8761618930568805e-13
0
VERTEX
8
layer0
10
  -1.3603269886923372e-13
20
  239.99999999999943
30
  1.8761618930568805e-13
0
VERTEX
8
layer0
10
  1.127986593019159e-14
20
  6.923608253209094e-30
30
  0.0
0
VERTEX
8
layer0
10
  -14.999999999999973
20
  2.07283063022775e-15
30
  2.7071678232459813e-13
 0
SEQEND
 0
ARC
8
layer0
66
1
10
  -16.599999999999973
20
  4.399999999999993
30
  2.667117009479426e-13
40
  1.599999999999997
50
  90.00000000000003
51
  179.9883318978617
 0
POLYLINE
8
layer0
66
1
70
8
10
  0.0
20
  0.0
30
  0.0
  0
VERTEX
8
layer0
10
  -73.40000000000063
20
  5.999999999999949
30
  3.5549423516160065e-13
0
VERTEX
8
layer0
10
  -16.599999999999973
20
  5.99999999999999
30
  2.652553077200679e-13
 0
SEQEND
 0
ARC
8
layer0
66
1
10
  -73.40000000000063
20
  4.399999999999952
30
  3.5695062838947537e-13
40
  1.599999999999997
50
  90.00000000000003
51
  179.9883318978617
 0
POLYLINE
8
layer0
66
1
70
8
10
  0.0
20
  0.0
30
  0.0
  0
VERTEX
8
layer0
10
  -75.00000000000063
20
  4.3999999999999515
30
  3.5695062838947537e-13
0
VERTEX
8
layer0
10
  -75.00000000000063
20
  -4.039524353472478e-14
30
  3.6095570976613087e-13
0
VERTEX
8
layer0
10
  -75.00000000000063
20
  -4.039524353472478e-14
30
  3.6095570976613087e-13
 0
SEQEND
 0
CIRCLE
8
layer0
66
1
10
  -7.500000000000714
20
  119.99999999999942
30
  1.163678265132275e-13
40
  1.5999999999999963
 0
CIRCLE
8
layer0
66
1
10
  -82.50000000000071
20
  119.99999999999937
30
  2.9684568139629295e-13
40
  1.5999999999999963
 0
POLYLINE
8
layer0
66
1
70
8
10
  0.0
20
  0.0
30
  0.0
  0
VERTEX
8
layer0
10
  -15.000000000000115
20
  235.59999999999943
30
  3.000000000000186
0
VERTEX
8
layer0
10
  -15.000000000000119
20
  239.99999999999943
30
  3.000000000000182
 0
SEQEND
 0
ARC
8
layer0
66
1
10
  -16.600000000000115
20
  235.59999999999943
30
  3.000000000000186
40
  1.599999999999997
50
  -89.97666379572334
51
  0.011668102138344238
 0
POLYLINE
8
layer0
66
1
70
8
10
  0.0
20
  0.0
30
  0.0
  0
VERTEX
8
layer0
10
  -16.600000000000115
20
  233.99999999999943
30
  3.000000000000188
0
VERTEX
8
layer0
10
  -73.4000000000008
20
  233.9999999999994
30
  3.000000000000188
 0
SEQEND
 0
ARC
8
layer0
66
1
10
  -73.4000000000008
20
  235.5999999999994
30
  3.000000000000186
40
  1.599999999999997
50
  -89.97666379572334
51
  0.011668102138344238
 0
POLYLINE
8
layer0
66
1
70
8
10
  0.0
20
  0.0
30
  0.0
  0
VERTEX
8
layer0
10
  -75.0000000000008
20
  235.5999999999994
30
  3.000000000000186
0
VERTEX
8
layer0
10
  -75.0000000000008
20
  239.99999999999937
30
  3.000000000000182
0
VERTEX
8
layer0
10
  -90.0000000000008
20
  239.99999999999937
30
  3.000000000000182
0
VERTEX
8
layer0
10
  -90.00000000000065
20
  -4.1231608567327936e-14
30
  3.0000000000004006
0
VERTEX
8
layer0
10
  -75.00000000000063
20
  -3.766450623245979e-14
30
  3.0000000000002203
0
VERTEX
8
layer0
10
  -75.00000000000063
20
  -3.766450623245979e-14
30
  3.0000000000002203
 0
SEQEND
 0
ARC
8
layer0
66
1
10
  -73.40000000000063
20
  4.399999999999955
30
  3.0000000000002163
40
  1.599999999999997
50
  90.00000000000003
51
  179.9883318978617
 0
POLYLINE
8
layer0
66
1
70
8
10
  0.0
20
  0.0
30
  0.0
  0
VERTEX
8
layer0
10
  -73.40000000000063
20
  5.999999999999952
30
  3.000000000000215
0
VERTEX
8
layer0
10
  -16.599999999999973
20
  5.999999999999993
30
  3.000000000000125
 0
SEQEND
 0
ARC
8
layer0
66
1
10
  -16.599999999999973
20
  4.399999999999995
30
  3.000000000000126
40
  1.599999999999997
50
  90.00000000000003
51
  179.9883318978617
 0
POLYLINE
8
layer0
66
1
70
8
10
  0.0
20
  0.0
30
  0.0
  0
VERTEX
8
layer0
10
  -14.999999999999975
20
  4.399999999999997
30
  3.000000000000126
0
VERTEX
8
layer0
10
  -14.999999999999973
20
  4.8035679324927425e-15
30
  3.0000000000001297
0
VERTEX
8
layer0
10
  2.2559731860383176e-14
20
  2.73073730226513e-15
30
  2.9999999999999947
0
VERTEX
8
layer0
10
  -1.2475283293904212e-13
20
  239.99999999999943
30
  3.000000000000182
0
VERTEX
8
layer0
10
  -15.000000000000119
20
  239.99999999999943
30
  3.000000000000182
 0
SEQEND
 0
CIRCLE
8
layer0
66
1
10
  -7.500000000000714
20
  119.99999999999942
30
  3.000000000000111
40
  1.5999999999999963
 0
CIRCLE
8
layer0
66
1
10
  -82.50000000000071
20
  119.99999999999937
30
  3.0000000000002913
40
  1.5999999999999968
 0
ENDSEC
 0
EOF
