 0
SECTION
 2
HEADER
 9
$MEASUREMENT
 70
 2
 0
ENDSEC
 0
SECTION
 2
ENTITIES
 0
POLYLINE
8
layer0
66
1
70
8
10
  0.000
20
  0.000
30
  0.000
  0
VERTEX
8
layer0
10
  -90.000
20
  240.000
30
  0.000
  0
VERTEX
8
layer0
10
  -0.000
20
  240.000
30
  0.000
  0
VERTEX
8
layer0
10
  0.000
20
  0.000
30
  0.000
  0
VERTEX
8
layer0
10
  -90.000
20
  -0.000
30
  0.000
  0
VERTEX
8
layer0
10
  -90.000
20
  240.000
30
  0.000
 0
SEQEND
 0
CIRCLE
8
layer0
66
1
10
  -82.500
20
  7.500
30
  0.000
40
  1.5999999999999963
 0
ARC
8
layer0
66
1
10
  -22.500
20
  225.000
30
  0.000
40
  2.999999999999992
50
  -90.000
51
  90.000
 0
POLYLINE
8
layer0
66
1
70
8
10
  0.000
20
  0.000
30
  0.000
  0
VERTEX
8
layer0
10
  -22.500
20
  228.000
30
  0.000
  0
VERTEX
8
layer0
10
  -39.000
20
  228.000
30
  0.000
 0
SEQEND
 0
ARC
8
layer0
66
1
10
  -39.000
20
  225.000
30
  0.000
40
  2.999999999999992
50
  90.000
51
  -90.000
 0
POLYLINE
8
layer0
66
1
70
8
10
  0.000
20
  0.000
30
  0.000
  0
VERTEX
8
layer0
10
  -39.000
20
  222.000
30
  0.000
  0
VERTEX
8
layer0
10
  -22.500
20
  222.000
30
  0.000
 0
SEQEND
 0
ARC
8
layer0
66
1
10
  -22.500
20
  225.000
30
  0.000
40
  2.999999999999992
50
  -90.000
51
  90.000
 0
POLYLINE
8
layer0
66
1
70
8
10
  0.000
20
  0.000
30
  0.000
  0
VERTEX
8
layer0
10
  -22.500
20
  190.500
30
  0.000
  0
VERTEX
8
layer0
10
  -39.000
20
  190.500
30
  0.000
 0
SEQEND
 0
ARC
8
layer0
66
1
10
  -39.000
20
  187.500
30
  0.000
40
  2.999999999999991
50
  90.000
51
  -90.000
 0
POLYLINE
8
layer0
66
1
70
8
10
  0.000
20
  0.000
30
  0.000
  0
VERTEX
8
layer0
10
  -39.000
20
  184.500
30
  0.000
  0
VERTEX
8
layer0
10
  -22.500
20
  184.500
30
  0.000
 0
SEQEND
 0
ARC
8
layer0
66
1
10
  -22.500
20
  187.500
30
  0.000
40
  2.999999999999991
50
  -90.000
51
  90.000
 0
ARC
8
layer0
66
1
10
  -67.500
20
  200.000
30
  0.000
40
  2.999999999999991
50
  90.000
51
  -90.000
 0
POLYLINE
8
layer0
66
1
70
8
10
  0.000
20
  0.000
30
  0.000
  0
VERTEX
8
layer0
10
  -67.500
20
  197.000
30
  0.000
  0
VERTEX
8
layer0
10
  -51.000
20
  197.000
30
  0.000
 0
SEQEND
 0
ARC
8
layer0
66
1
10
  -51.000
20
  200.000
30
  0.000
40
  2.9999999999999907
50
  -90.000
51
  90.000
 0
POLYLINE
8
layer0
66
1
70
8
10
  0.000
20
  0.000
30
  0.000
  0
VERTEX
8
layer0
10
  -51.000
20
  203.000
30
  0.000
  0
VERTEX
8
layer0
10
  -67.500
20
  203.000
30
  0.000
 0
SEQEND
 0
ARC
8
layer0
66
1
10
  -67.500
20
  200.000
30
  0.000
40
  2.999999999999991
50
  90.000
51
  -90.000
 0
ARC
8
layer0
66
1
10
  -51.000
20
  175.000
30
  0.000
40
  2.9999999999999907
50
  -90.000
51
  90.000
 0
POLYLINE
8
layer0
66
1
70
8
10
  0.000
20
  0.000
30
  0.000
  0
VERTEX
8
layer0
10
  -51.000
20
  178.000
30
  0.000
  0
VERTEX
8
layer0
10
  -67.500
20
  178.000
30
  0.000
 0
SEQEND
 0
ARC
8
layer0
66
1
10
  -67.500
20
  175.000
30
  0.000
40
  2.999999999999991
50
  90.000
51
  -90.000
 0
POLYLINE
8
layer0
66
1
70
8
10
  0.000
20
  0.000
30
  0.000
  0
VERTEX
8
layer0
10
  -67.500
20
  172.000
30
  0.000
  0
VERTEX
8
layer0
10
  -51.000
20
  172.000
30
  0.000
 0
SEQEND
 0
ARC
8
layer0
66
1
10
  -51.000
20
  175.000
30
  0.000
40
  2.9999999999999907
50
  -90.000
51
  90.000
 0
POLYLINE
8
layer0
66
1
70
8
10
  0.000
20
  0.000
30
  0.000
  0
VERTEX
8
layer0
10
  -22.500
20
  178.000
30
  0.000
  0
VERTEX
8
layer0
10
  -39.000
20
  178.000
30
  0.000
 0
SEQEND
 0
ARC
8
layer0
66
1
10
  -39.000
20
  175.000
30
  0.000
40
  2.999999999999991
50
  90.000
51
  -90.000
 0
POLYLINE
8
layer0
66
1
70
8
10
  0.000
20
  0.000
30
  0.000
  0
VERTEX
8
layer0
10
  -39.000
20
  172.000
30
  0.000
  0
VERTEX
8
layer0
10
  -22.500
20
  172.000
30
  0.000
 0
SEQEND
 0
ARC
8
layer0
66
1
10
  -22.500
20
  175.000
30
  0.000
40
  2.999999999999991
50
  -90.000
51
  90.000
 0
ARC
8
layer0
66
1
10
  -22.500
20
  162.500
30
  0.000
40
  2.999999999999991
50
  -90.000
51
  90.000
 0
POLYLINE
8
layer0
66
1
70
8
10
  0.000
20
  0.000
30
  0.000
  0
VERTEX
8
layer0
10
  -22.500
20
  165.500
30
  0.000
  0
VERTEX
8
layer0
10
  -39.000
20
  165.500
30
  0.000
 0
SEQEND
 0
ARC
8
layer0
66
1
10
  -39.000
20
  162.500
30
  0.000
40
  2.999999999999991
50
  90.000
51
  -90.000
 0
POLYLINE
8
layer0
66
1
70
8
10
  0.000
20
  0.000
30
  0.000
  0
VERTEX
8
layer0
10
  -39.000
20
  159.500
30
  0.000
  0
VERTEX
8
layer0
10
  -22.500
20
  159.500
30
  0.000
 0
SEQEND
 0
ARC
8
layer0
66
1
10
  -22.500
20
  162.500
30
  0.000
40
  2.999999999999991
50
  -90.000
51
  90.000
 0
ARC
8
layer0
66
1
10
  -51.000
20
  162.500
30
  0.000
40
  2.9999999999999907
50
  -90.000
51
  90.000
 0
POLYLINE
8
layer0
66
1
70
8
10
  0.000
20
  0.000
30
  0.000
  0
VERTEX
8
layer0
10
  -51.000
20
  165.500
30
  0.000
  0
VERTEX
8
layer0
10
  -67.500
20
  165.500
30
  0.000
 0
SEQEND
 0
ARC
8
layer0
66
1
10
  -67.500
20
  162.500
30
  0.000
40
  2.999999999999991
50
  90.000
51
  -90.000
 0
POLYLINE
8
layer0
66
1
70
8
10
  0.000
20
  0.000
30
  0.000
  0
VERTEX
8
layer0
10
  -67.500
20
  159.500
30
  0.000
  0
VERTEX
8
layer0
10
  -51.000
20
  159.500
30
  0.000
 0
SEQEND
 0
ARC
8
layer0
66
1
10
  -51.000
20
  162.500
30
  0.000
40
  2.9999999999999907
50
  -90.000
51
  90.000
 0
CIRCLE
8
layer0
66
1
10
  -7.500
20
  120.000
30
  0.000
40
  1.5999999999999963
 0
CIRCLE
8
layer0
66
1
10
  -82.500
20
  120.000
30
  0.000
40
  1.5999999999999963
 0
ARC
8
layer0
66
1
10
  -51.000
20
  187.500
30
  0.000
40
  2.9999999999999907
50
  -90.000
51
  90.000
 0
POLYLINE
8
layer0
66
1
70
8
10
  0.000
20
  0.000
30
  0.000
  0
VERTEX
8
layer0
10
  -51.000
20
  190.500
30
  0.000
  0
VERTEX
8
layer0
10
  -67.500
20
  190.500
30
  0.000
 0
SEQEND
 0
ARC
8
layer0
66
1
10
  -67.500
20
  187.500
30
  0.000
40
  2.999999999999991
50
  90.000
51
  -90.000
 0
POLYLINE
8
layer0
66
1
70
8
10
  0.000
20
  0.000
30
  0.000
  0
VERTEX
8
layer0
10
  -67.500
20
  184.500
30
  0.000
  0
VERTEX
8
layer0
10
  -51.000
20
  184.500
30
  0.000
 0
SEQEND
 0
ARC
8
layer0
66
1
10
  -51.000
20
  187.500
30
  0.000
40
  2.9999999999999907
50
  -90.000
51
  90.000
 0
ARC
8
layer0
66
1
10
  -22.500
20
  200.000
30
  0.000
40
  2.999999999999991
50
  -90.000
51
  90.000
 0
POLYLINE
8
layer0
66
1
70
8
10
  0.000
20
  0.000
30
  0.000
  0
VERTEX
8
layer0
10
  -22.500
20
  203.000
30
  0.000
  0
VERTEX
8
layer0
10
  -39.000
20
  203.000
30
  0.000
 0
SEQEND
 0
ARC
8
layer0
66
1
10
  -39.000
20
  200.000
30
  0.000
40
  2.999999999999991
50
  90.000
51
  -90.000
 0
POLYLINE
8
layer0
66
1
70
8
10
  0.000
20
  0.000
30
  0.000
  0
VERTEX
8
layer0
10
  -39.000
20
  197.000
30
  0.000
  0
VERTEX
8
layer0
10
  -22.500
20
  197.000
30
  0.000
 0
SEQEND
 0
ARC
8
layer0
66
1
10
  -22.500
20
  200.000
30
  0.000
40
  2.999999999999991
50
  -90.000
51
  90.000
 0
ARC
8
layer0
66
1
10
  -67.500
20
  212.500
30
  0.000
40
  2.999999999999991
50
  90.000
51
  -90.000
 0
POLYLINE
8
layer0
66
1
70
8
10
  0.000
20
  0.000
30
  0.000
  0
VERTEX
8
layer0
10
  -67.500
20
  209.500
30
  0.000
  0
VERTEX
8
layer0
10
  -51.000
20
  209.500
30
  0.000
 0
SEQEND
 0
ARC
8
layer0
66
1
10
  -51.000
20
  212.500
30
  0.000
40
  2.9999999999999907
50
  -90.000
51
  90.000
 0
POLYLINE
8
layer0
66
1
70
8
10
  0.000
20
  0.000
30
  0.000
  0
VERTEX
8
layer0
10
  -51.000
20
  215.500
30
  0.000
  0
VERTEX
8
layer0
10
  -67.500
20
  215.500
30
  0.000
 0
SEQEND
 0
ARC
8
layer0
66
1
10
  -67.500
20
  212.500
30
  0.000
40
  2.999999999999991
50
  90.000
51
  -90.000
 0
ARC
8
layer0
66
1
10
  -22.500
20
  212.500
30
  0.000
40
  2.999999999999991
50
  -90.000
51
  90.000
 0
POLYLINE
8
layer0
66
1
70
8
10
  0.000
20
  0.000
30
  0.000
  0
VERTEX
8
layer0
10
  -22.500
20
  215.500
30
  0.000
  0
VERTEX
8
layer0
10
  -39.000
20
  215.500
30
  0.000
 0
SEQEND
 0
ARC
8
layer0
66
1
10
  -39.000
20
  212.500
30
  0.000
40
  2.999999999999991
50
  90.000
51
  -90.000
 0
POLYLINE
8
layer0
66
1
70
8
10
  0.000
20
  0.000
30
  0.000
  0
VERTEX
8
layer0
10
  -39.000
20
  209.500
30
  0.000
  0
VERTEX
8
layer0
10
  -22.500
20
  209.500
30
  0.000
 0
SEQEND
 0
ARC
8
layer0
66
1
10
  -22.500
20
  212.500
30
  0.000
40
  2.999999999999991
50
  -90.000
51
  90.000
 0
ARC
8
layer0
66
1
10
  -51.000
20
  225.000
30
  0.000
40
  2.999999999999991
50
  -90.000
51
  90.000
 0
POLYLINE
8
layer0
66
1
70
8
10
  0.000
20
  0.000
30
  0.000
  0
VERTEX
8
layer0
10
  -51.000
20
  228.000
30
  0.000
  0
VERTEX
8
layer0
10
  -67.500
20
  228.000
30
  0.000
 0
SEQEND
 0
ARC
8
layer0
66
1
10
  -67.500
20
  225.000
30
  0.000
40
  2.999999999999992
50
  90.000
51
  -90.000
 0
POLYLINE
8
layer0
66
1
70
8
10
  0.000
20
  0.000
30
  0.000
  0
VERTEX
8
layer0
10
  -67.500
20
  222.000
30
  0.000
  0
VERTEX
8
layer0
10
  -51.000
20
  222.000
30
  0.000
 0
SEQEND
 0
ARC
8
layer0
66
1
10
  -51.000
20
  225.000
30
  0.000
40
  2.999999999999991
50
  -90.000
51
  90.000
 0
CIRCLE
8
layer0
66
1
10
  -7.500
20
  232.500
30
  0.000
40
  1.5999999999999963
 0
CIRCLE
8
layer0
66
1
10
  -82.500
20
  232.500
30
  0.000
40
  1.5999999999999963
 0
CIRCLE
8
layer0
66
1
10
  -7.500
20
  7.500
30
  0.000
40
  1.5999999999999963
 0
ARC
8
layer0
66
1
10
  -51.000
20
  52.500
30
  0.000
40
  2.9999999999999845
50
  -90.000
51
  90.000
 0
POLYLINE
8
layer0
66
1
70
8
10
  0.000
20
  0.000
30
  0.000
  0
VERTEX
8
layer0
10
  -51.000
20
  55.500
30
  0.000
  0
VERTEX
8
layer0
10
  -67.500
20
  55.500
30
  0.000
 0
SEQEND
 0
ARC
8
layer0
66
1
10
  -67.500
20
  52.500
30
  0.000
40
  2.9999999999999845
50
  90.000
51
  -90.000
 0
POLYLINE
8
layer0
66
1
70
8
10
  0.000
20
  0.000
30
  0.000
  0
VERTEX
8
layer0
10
  -67.500
20
  49.500
30
  0.000
  0
VERTEX
8
layer0
10
  -51.000
20
  49.500
30
  0.000
 0
SEQEND
 0
ARC
8
layer0
66
1
10
  -51.000
20
  52.500
30
  0.000
40
  2.9999999999999845
50
  -90.000
51
  90.000
 0
ARC
8
layer0
66
1
10
  -39.000
20
  52.500
30
  0.000
40
  2.9999999999999836
50
  90.000
51
  -90.000
 0
POLYLINE
8
layer0
66
1
70
8
10
  0.000
20
  0.000
30
  0.000
  0
VERTEX
8
layer0
10
  -39.000
20
  49.500
30
  0.000
  0
VERTEX
8
layer0
10
  -22.500
20
  49.500
30
  0.000
 0
SEQEND
 0
ARC
8
layer0
66
1
10
  -22.500
20
  52.500
30
  0.000
40
  2.9999999999999845
50
  -90.000
51
  90.000
 0
POLYLINE
8
layer0
66
1
70
8
10
  0.000
20
  0.000
30
  0.000
  0
VERTEX
8
layer0
10
  -22.500
20
  55.500
30
  0.000
  0
VERTEX
8
layer0
10
  -39.000
20
  55.500
30
  0.000
 0
SEQEND
 0
ARC
8
layer0
66
1
10
  -39.000
20
  52.500
30
  0.000
40
  2.9999999999999836
50
  90.000
51
  -90.000
 0
ARC
8
layer0
66
1
10
  -39.000
20
  15.000
30
  0.000
40
  2.999999999999985
50
  90.000
51
  -90.000
 0
POLYLINE
8
layer0
66
1
70
8
10
  0.000
20
  0.000
30
  0.000
  0
VERTEX
8
layer0
10
  -39.000
20
  12.000
30
  0.000
  0
VERTEX
8
layer0
10
  -22.500
20
  12.000
30
  0.000
 0
SEQEND
 0
ARC
8
layer0
66
1
10
  -22.500
20
  15.000
30
  0.000
40
  2.999999999999986
50
  -90.000
51
  90.000
 0
POLYLINE
8
layer0
66
1
70
8
10
  0.000
20
  0.000
30
  0.000
  0
VERTEX
8
layer0
10
  -22.500
20
  18.000
30
  0.000
  0
VERTEX
8
layer0
10
  -39.000
20
  18.000
30
  0.000
 0
SEQEND
 0
ARC
8
layer0
66
1
10
  -39.000
20
  15.000
30
  0.000
40
  2.999999999999985
50
  90.000
51
  -90.000
 0
POLYLINE
8
layer0
66
1
70
8
10
  0.000
20
  0.000
30
  0.000
  0
VERTEX
8
layer0
10
  -51.000
20
  18.000
30
  0.000
  0
VERTEX
8
layer0
10
  -67.500
20
  18.000
30
  0.000
 0
SEQEND
 0
ARC
8
layer0
66
1
10
  -67.500
20
  15.000
30
  0.000
40
  2.99999999999998
50
  90.000
51
  270.000
 0
POLYLINE
8
layer0
66
1
70
8
10
  0.000
20
  0.000
30
  0.000
  0
VERTEX
8
layer0
10
  -67.500
20
  12.000
30
  0.000
  0
VERTEX
8
layer0
10
  -51.000
20
  12.000
30
  0.000
 0
SEQEND
 0
ARC
8
layer0
66
1
10
  -51.000
20
  15.000
30
  0.000
40
  2.99999999999998
50
  -90.000
51
  90.000
 0
POLYLINE
8
layer0
66
1
70
8
10
  0.000
20
  0.000
30
  0.000
  0
VERTEX
8
layer0
10
  -51.000
20
  30.500
30
  0.000
  0
VERTEX
8
layer0
10
  -67.500
20
  30.500
30
  0.000
 0
SEQEND
 0
ARC
8
layer0
66
1
10
  -67.500
20
  27.500
30
  0.000
40
  2.9999999999999813
50
  90.000
51
  -90.000
 0
POLYLINE
8
layer0
66
1
70
8
10
  0.000
20
  0.000
30
  0.000
  0
VERTEX
8
layer0
10
  -67.500
20
  24.500
30
  0.000
  0
VERTEX
8
layer0
10
  -51.000
20
  24.500
30
  0.000
 0
SEQEND
 0
ARC
8
layer0
66
1
10
  -51.000
20
  27.500
30
  0.000
40
  2.9999999999999853
50
  -90.000
51
  90.000
 0
ARC
8
layer0
66
1
10
  -39.000
20
  40.000
30
  0.000
40
  2.9999999999999845
50
  90.000
51
  270.000
 0
POLYLINE
8
layer0
66
1
70
8
10
  0.000
20
  0.000
30
  0.000
  0
VERTEX
8
layer0
10
  -39.000
20
  37.000
30
  0.000
  0
VERTEX
8
layer0
10
  -22.500
20
  37.000
30
  0.000
 0
SEQEND
 0
ARC
8
layer0
66
1
10
  -22.500
20
  40.000
30
  0.000
40
  2.999999999999985
50
  270.000
51
  90.000
 0
POLYLINE
8
layer0
66
1
70
8
10
  0.000
20
  0.000
30
  0.000
  0
VERTEX
8
layer0
10
  -22.500
20
  43.000
30
  0.000
  0
VERTEX
8
layer0
10
  -39.000
20
  43.000
30
  0.000
 0
SEQEND
 0
ARC
8
layer0
66
1
10
  -39.000
20
  40.000
30
  0.000
40
  2.9999999999999845
50
  90.000
51
  270.000
 0
ARC
8
layer0
66
1
10
  -51.000
20
  40.000
30
  0.000
40
  2.999999999999985
50
  -90.000
51
  90.000
 0
POLYLINE
8
layer0
66
1
70
8
10
  0.000
20
  0.000
30
  0.000
  0
VERTEX
8
layer0
10
  -51.000
20
  43.000
30
  0.000
  0
VERTEX
8
layer0
10
  -67.500
20
  43.000
30
  0.000
 0
SEQEND
 0
ARC
8
layer0
66
1
10
  -67.500
20
  40.000
30
  0.000
40
  2.999999999999985
50
  90.000
51
  -90.000
 0
POLYLINE
8
layer0
66
1
70
8
10
  0.000
20
  0.000
30
  0.000
  0
VERTEX
8
layer0
10
  -67.500
20
  37.000
30
  0.000
  0
VERTEX
8
layer0
10
  -51.000
20
  37.000
30
  0.000
 0
SEQEND
 0
ARC
8
layer0
66
1
10
  -51.000
20
  40.000
30
  0.000
40
  2.999999999999985
50
  -90.000
51
  90.000
 0
ARC
8
layer0
66
1
10
  -39.000
20
  27.500
30
  0.000
40
  2.9999999999999845
50
  90.000
51
  270.000
 0
POLYLINE
8
layer0
66
1
70
8
10
  0.000
20
  0.000
30
  0.000
  0
VERTEX
8
layer0
10
  -39.000
20
  24.500
30
  0.000
  0
VERTEX
8
layer0
10
  -22.500
20
  24.500
30
  0.000
 0
SEQEND
 0
ARC
8
layer0
66
1
10
  -22.500
20
  27.500
30
  0.000
40
  2.9999999999999774
50
  270.000
51
  90.000
 0
POLYLINE
8
layer0
66
1
70
8
10
  0.000
20
  0.000
30
  0.000
  0
VERTEX
8
layer0
10
  -22.500
20
  30.500
30
  0.000
  0
VERTEX
8
layer0
10
  -39.000
20
  30.500
30
  0.000
 0
SEQEND
 0
ARC
8
layer0
66
1
10
  -39.000
20
  27.500
30
  0.000
40
  2.9999999999999845
50
  90.000
51
  270.000
 0
ARC
8
layer0
66
1
10
  -22.500
20
  77.500
30
  0.000
40
  2.999999999999975
50
  -90.000
51
  90.000
 0
POLYLINE
8
layer0
66
1
70
8
10
  0.000
20
  0.000
30
  0.000
  0
VERTEX
8
layer0
10
  -22.500
20
  80.500
30
  0.000
  0
VERTEX
8
layer0
10
  -39.000
20
  80.500
30
  0.000
 0
SEQEND
 0
ARC
8
layer0
66
1
10
  -39.000
20
  77.500
30
  0.000
40
  2.999999999999975
50
  90.000
51
  -90.000
 0
POLYLINE
8
layer0
66
1
70
8
10
  0.000
20
  0.000
30
  0.000
  0
VERTEX
8
layer0
10
  -39.000
20
  74.500
30
  0.000
  0
VERTEX
8
layer0
10
  -22.500
20
  74.500
30
  0.000
 0
SEQEND
 0
ARC
8
layer0
66
1
10
  -22.500
20
  77.500
30
  0.000
40
  2.999999999999975
50
  -90.000
51
  90.000
 0
ARC
8
layer0
66
1
10
  -51.000
20
  77.500
30
  0.000
40
  2.999999999999977
50
  -90.000
51
  90.000
 0
POLYLINE
8
layer0
66
1
70
8
10
  0.000
20
  0.000
30
  0.000
  0
VERTEX
8
layer0
10
  -51.000
20
  80.500
30
  0.000
  0
VERTEX
8
layer0
10
  -67.500
20
  80.500
30
  0.000
 0
SEQEND
 0
ARC
8
layer0
66
1
10
  -67.500
20
  77.500
30
  0.000
40
  2.9999999999999756
50
  90.000
51
  -90.000
 0
POLYLINE
8
layer0
66
1
70
8
10
  0.000
20
  0.000
30
  0.000
  0
VERTEX
8
layer0
10
  -67.500
20
  74.500
30
  0.000
  0
VERTEX
8
layer0
10
  -51.000
20
  74.500
30
  0.000
 0
SEQEND
 0
ARC
8
layer0
66
1
10
  -51.000
20
  77.500
30
  0.000
40
  2.999999999999977
50
  -90.000
51
  90.000
 0
ARC
8
layer0
66
1
10
  -51.000
20
  65.000
30
  0.000
40
  2.999999999999976
50
  -90.000
51
  90.000
 0
POLYLINE
8
layer0
66
1
70
8
10
  0.000
20
  0.000
30
  0.000
  0
VERTEX
8
layer0
10
  -51.000
20
  68.000
30
  0.000
  0
VERTEX
8
layer0
10
  -67.500
20
  68.000
30
  0.000
 0
SEQEND
 0
ARC
8
layer0
66
1
10
  -67.500
20
  65.000
30
  0.000
40
  2.999999999999978
50
  90.000
51
  -90.000
 0
POLYLINE
8
layer0
66
1
70
8
10
  0.000
20
  0.000
30
  0.000
  0
VERTEX
8
layer0
10
  -67.500
20
  62.000
30
  0.000
  0
VERTEX
8
layer0
10
  -51.000
20
  62.000
30
  0.000
 0
SEQEND
 0
ARC
8
layer0
66
1
10
  -51.000
20
  65.000
30
  0.000
40
  2.999999999999976
50
  -90.000
51
  90.000
 0
ARC
8
layer0
66
1
10
  -39.000
20
  65.000
30
  0.000
40
  2.999999999999978
50
  90.000
51
  -90.000
 0
POLYLINE
8
layer0
66
1
70
8
10
  0.000
20
  0.000
30
  0.000
  0
VERTEX
8
layer0
10
  -39.000
20
  62.000
30
  0.000
  0
VERTEX
8
layer0
10
  -22.500
20
  62.000
30
  0.000
 0
SEQEND
 0
ARC
8
layer0
66
1
10
  -22.500
20
  65.000
30
  0.000
40
  2.99999999999998
50
  -90.000
51
  90.000
 0
POLYLINE
8
layer0
66
1
70
8
10
  0.000
20
  0.000
30
  0.000
  0
VERTEX
8
layer0
10
  -22.500
20
  68.000
30
  0.000
  0
VERTEX
8
layer0
10
  -39.000
20
  68.000
30
  0.000
 0
SEQEND
 0
ARC
8
layer0
66
1
10
  -39.000
20
  65.000
30
  0.000
40
  2.999999999999978
50
  90.000
51
  -90.000
 0
POLYLINE
8
layer0
66
1
70
8
10
  0.000
20
  0.000
30
  0.000
  0
VERTEX
8
layer0
10
  0.000
20
  0.000
30
  3.000
  0
VERTEX
8
layer0
10
  -0.000
20
  240.000
30
  3.000
  0
VERTEX
8
layer0
10
  -90.000
20
  240.000
30
  3.000
  0
VERTEX
8
layer0
10
  -90.000
20
  -0.000
30
  3.000
  0
VERTEX
8
layer0
10
  0.000
20
  0.000
30
  3.000
 0
SEQEND
 0
CIRCLE
8
layer0
66
1
10
  -82.500
20
  120.000
30
  3.000
40
  1.5999999999999963
 0
CIRCLE
8
layer0
66
1
10
  -7.500
20
  232.500
30
  3.000
40
  1.5999999999999963
 0
CIRCLE
8
layer0
66
1
10
  -82.500
20
  232.500
30
  3.000
40
  1.5999999999999963
 0
ARC
8
layer0
66
1
10
  -39.000
20
  200.000
30
  3.000
40
  2.9999999999999916
50
  90.000
51
  -90.000
 0
POLYLINE
8
layer0
66
1
70
8
10
  0.000
20
  0.000
30
  0.000
  0
VERTEX
8
layer0
10
  -39.000
20
  203.000
30
  3.000
  0
VERTEX
8
layer0
10
  -22.500
20
  203.000
30
  3.000
 0
SEQEND
 0
ARC
8
layer0
66
1
10
  -22.500
20
  200.000
30
  3.000
40
  2.9999999999999916
50
  -90.000
51
  90.000
 0
POLYLINE
8
layer0
66
1
70
8
10
  0.000
20
  0.000
30
  0.000
  0
VERTEX
8
layer0
10
  -22.500
20
  197.000
30
  3.000
  0
VERTEX
8
layer0
10
  -39.000
20
  197.000
30
  3.000
 0
SEQEND
 0
ARC
8
layer0
66
1
10
  -39.000
20
  200.000
30
  3.000
40
  2.9999999999999916
50
  90.000
51
  -90.000
 0
ARC
8
layer0
66
1
10
  -67.500
20
  200.000
30
  3.000
40
  2.9999999999999916
50
  90.000
51
  -90.000
 0
POLYLINE
8
layer0
66
1
70
8
10
  0.000
20
  0.000
30
  0.000
  0
VERTEX
8
layer0
10
  -67.500
20
  203.000
30
  3.000
  0
VERTEX
8
layer0
10
  -51.000
20
  203.000
30
  3.000
 0
SEQEND
 0
ARC
8
layer0
66
1
10
  -51.000
20
  200.000
30
  3.000
40
  2.999999999999991
50
  -90.000
51
  90.000
 0
POLYLINE
8
layer0
66
1
70
8
10
  0.000
20
  0.000
30
  0.000
  0
VERTEX
8
layer0
10
  -51.000
20
  197.000
30
  3.000
  0
VERTEX
8
layer0
10
  -67.500
20
  197.000
30
  3.000
 0
SEQEND
 0
ARC
8
layer0
66
1
10
  -67.500
20
  200.000
30
  3.000
40
  2.9999999999999916
50
  90.000
51
  -90.000
 0
POLYLINE
8
layer0
66
1
70
8
10
  0.000
20
  0.000
30
  0.000
  0
VERTEX
8
layer0
10
  -67.500
20
  178.000
30
  3.000
  0
VERTEX
8
layer0
10
  -51.000
20
  178.000
30
  3.000
 0
SEQEND
 0
ARC
8
layer0
66
1
10
  -51.000
20
  175.000
30
  3.000
40
  2.999999999999991
50
  -90.000
51
  90.000
 0
POLYLINE
8
layer0
66
1
70
8
10
  0.000
20
  0.000
30
  0.000
  0
VERTEX
8
layer0
10
  -51.000
20
  172.000
30
  3.000
  0
VERTEX
8
layer0
10
  -67.500
20
  172.000
30
  3.000
 0
SEQEND
 0
ARC
8
layer0
66
1
10
  -67.500
20
  175.000
30
  3.000
40
  2.9999999999999916
50
  90.000
51
  -90.000
 0
POLYLINE
8
layer0
66
1
70
8
10
  0.000
20
  0.000
30
  0.000
  0
VERTEX
8
layer0
10
  -39.000
20
  178.000
30
  3.000
  0
VERTEX
8
layer0
10
  -22.500
20
  178.000
30
  3.000
 0
SEQEND
 0
ARC
8
layer0
66
1
10
  -22.500
20
  175.000
30
  3.000
40
  2.9999999999999916
50
  -90.000
51
  90.000
 0
POLYLINE
8
layer0
66
1
70
8
10
  0.000
20
  0.000
30
  0.000
  0
VERTEX
8
layer0
10
  -22.500
20
  172.000
30
  3.000
  0
VERTEX
8
layer0
10
  -39.000
20
  172.000
30
  3.000
 0
SEQEND
 0
ARC
8
layer0
66
1
10
  -39.000
20
  175.000
30
  3.000
40
  2.9999999999999916
50
  90.000
51
  -90.000
 0
ARC
8
layer0
66
1
10
  -22.500
20
  162.500
30
  3.000
40
  2.9999999999999916
50
  -90.000
51
  90.000
 0
POLYLINE
8
layer0
66
1
70
8
10
  0.000
20
  0.000
30
  0.000
  0
VERTEX
8
layer0
10
  -22.500
20
  159.500
30
  3.000
  0
VERTEX
8
layer0
10
  -39.000
20
  159.500
30
  3.000
 0
SEQEND
 0
ARC
8
layer0
66
1
10
  -39.000
20
  162.500
30
  3.000
40
  2.9999999999999916
50
  90.000
51
  -90.000
 0
POLYLINE
8
layer0
66
1
70
8
10
  0.000
20
  0.000
30
  0.000
  0
VERTEX
8
layer0
10
  -39.000
20
  165.500
30
  3.000
  0
VERTEX
8
layer0
10
  -22.500
20
  165.500
30
  3.000
 0
SEQEND
 0
ARC
8
layer0
66
1
10
  -22.500
20
  162.500
30
  3.000
40
  2.9999999999999916
50
  -90.000
51
  90.000
 0
POLYLINE
8
layer0
66
1
70
8
10
  0.000
20
  0.000
30
  0.000
  0
VERTEX
8
layer0
10
  -67.500
20
  165.500
30
  3.000
  0
VERTEX
8
layer0
10
  -51.000
20
  165.500
30
  3.000
 0
SEQEND
 0
ARC
8
layer0
66
1
10
  -51.000
20
  162.500
30
  3.000
40
  2.999999999999991
50
  -90.000
51
  90.000
 0
POLYLINE
8
layer0
66
1
70
8
10
  0.000
20
  0.000
30
  0.000
  0
VERTEX
8
layer0
10
  -51.000
20
  159.500
30
  3.000
  0
VERTEX
8
layer0
10
  -67.500
20
  159.500
30
  3.000
 0
SEQEND
 0
ARC
8
layer0
66
1
10
  -67.500
20
  162.500
30
  3.000
40
  2.9999999999999916
50
  90.000
51
  -90.000
 0
ARC
8
layer0
66
1
10
  -67.500
20
  187.500
30
  3.000
40
  2.9999999999999916
50
  90.000
51
  -90.000
 0
POLYLINE
8
layer0
66
1
70
8
10
  0.000
20
  0.000
30
  0.000
  0
VERTEX
8
layer0
10
  -67.500
20
  190.500
30
  3.000
  0
VERTEX
8
layer0
10
  -51.000
20
  190.500
30
  3.000
 0
SEQEND
 0
ARC
8
layer0
66
1
10
  -51.000
20
  187.500
30
  3.000
40
  2.999999999999991
50
  -90.000
51
  90.000
 0
POLYLINE
8
layer0
66
1
70
8
10
  0.000
20
  0.000
30
  0.000
  0
VERTEX
8
layer0
10
  -51.000
20
  184.500
30
  3.000
  0
VERTEX
8
layer0
10
  -67.500
20
  184.500
30
  3.000
 0
SEQEND
 0
ARC
8
layer0
66
1
10
  -67.500
20
  187.500
30
  3.000
40
  2.9999999999999916
50
  90.000
51
  -90.000
 0
POLYLINE
8
layer0
66
1
70
8
10
  0.000
20
  0.000
30
  0.000
  0
VERTEX
8
layer0
10
  -39.000
20
  190.500
30
  3.000
  0
VERTEX
8
layer0
10
  -22.500
20
  190.500
30
  3.000
 0
SEQEND
 0
ARC
8
layer0
66
1
10
  -22.500
20
  187.500
30
  3.000
40
  2.9999999999999916
50
  -90.000
51
  90.000
 0
POLYLINE
8
layer0
66
1
70
8
10
  0.000
20
  0.000
30
  0.000
  0
VERTEX
8
layer0
10
  -22.500
20
  184.500
30
  3.000
  0
VERTEX
8
layer0
10
  -39.000
20
  184.500
30
  3.000
 0
SEQEND
 0
ARC
8
layer0
66
1
10
  -39.000
20
  187.500
30
  3.000
40
  2.9999999999999916
50
  90.000
51
  -90.000
 0
POLYLINE
8
layer0
66
1
70
8
10
  0.000
20
  0.000
30
  0.000
  0
VERTEX
8
layer0
10
  -67.500
20
  215.500
30
  3.000
  0
VERTEX
8
layer0
10
  -51.000
20
  215.500
30
  3.000
 0
SEQEND
 0
ARC
8
layer0
66
1
10
  -51.000
20
  212.500
30
  3.000
40
  2.999999999999991
50
  -90.000
51
  90.000
 0
POLYLINE
8
layer0
66
1
70
8
10
  0.000
20
  0.000
30
  0.000
  0
VERTEX
8
layer0
10
  -51.000
20
  209.500
30
  3.000
  0
VERTEX
8
layer0
10
  -67.500
20
  209.500
30
  3.000
 0
SEQEND
 0
ARC
8
layer0
66
1
10
  -67.500
20
  212.500
30
  3.000
40
  2.9999999999999916
50
  90.000
51
  -90.000
 0
POLYLINE
8
layer0
66
1
70
8
10
  0.000
20
  0.000
30
  0.000
  0
VERTEX
8
layer0
10
  -39.000
20
  215.500
30
  3.000
  0
VERTEX
8
layer0
10
  -22.500
20
  215.500
30
  3.000
 0
SEQEND
 0
ARC
8
layer0
66
1
10
  -22.500
20
  212.500
30
  3.000
40
  2.9999999999999916
50
  -90.000
51
  90.000
 0
POLYLINE
8
layer0
66
1
70
8
10
  0.000
20
  0.000
30
  0.000
  0
VERTEX
8
layer0
10
  -22.500
20
  209.500
30
  3.000
  0
VERTEX
8
layer0
10
  -39.000
20
  209.500
30
  3.000
 0
SEQEND
 0
ARC
8
layer0
66
1
10
  -39.000
20
  212.500
30
  3.000
40
  2.9999999999999916
50
  90.000
51
  -90.000
 0
ARC
8
layer0
66
1
10
  -67.500
20
  225.000
30
  3.000
40
  2.9999999999999925
50
  90.000
51
  -90.000
 0
POLYLINE
8
layer0
66
1
70
8
10
  0.000
20
  0.000
30
  0.000
  0
VERTEX
8
layer0
10
  -67.500
20
  228.000
30
  3.000
  0
VERTEX
8
layer0
10
  -51.000
20
  228.000
30
  3.000
 0
SEQEND
 0
ARC
8
layer0
66
1
10
  -51.000
20
  225.000
30
  3.000
40
  2.9999999999999916
50
  -90.000
51
  90.000
 0
POLYLINE
8
layer0
66
1
70
8
10
  0.000
20
  0.000
30
  0.000
  0
VERTEX
8
layer0
10
  -51.000
20
  222.000
30
  3.000
  0
VERTEX
8
layer0
10
  -67.500
20
  222.000
30
  3.000
 0
SEQEND
 0
ARC
8
layer0
66
1
10
  -67.500
20
  225.000
30
  3.000
40
  2.9999999999999925
50
  90.000
51
  -90.000
 0
ARC
8
layer0
66
1
10
  -22.500
20
  225.000
30
  3.000
40
  2.9999999999999925
50
  -90.000
51
  90.000
 0
POLYLINE
8
layer0
66
1
70
8
10
  0.000
20
  0.000
30
  0.000
  0
VERTEX
8
layer0
10
  -22.500
20
  222.000
30
  3.000
  0
VERTEX
8
layer0
10
  -39.000
20
  222.000
30
  3.000
 0
SEQEND
 0
ARC
8
layer0
66
1
10
  -39.000
20
  225.000
30
  3.000
40
  2.9999999999999925
50
  90.000
51
  -90.000
 0
POLYLINE
8
layer0
66
1
70
8
10
  0.000
20
  0.000
30
  0.000
  0
VERTEX
8
layer0
10
  -39.000
20
  228.000
30
  3.000
  0
VERTEX
8
layer0
10
  -22.500
20
  228.000
30
  3.000
 0
SEQEND
 0
ARC
8
layer0
66
1
10
  -22.500
20
  225.000
30
  3.000
40
  2.9999999999999925
50
  -90.000
51
  90.000
 0
CIRCLE
8
layer0
66
1
10
  -7.500
20
  120.000
30
  3.000
40
  1.5999999999999963
 0
CIRCLE
8
layer0
66
1
10
  -7.500
20
  7.500
30
  3.000
40
  1.5999999999999963
 0
CIRCLE
8
layer0
66
1
10
  -82.500
20
  7.500
30
  3.000
40
  1.5999999999999963
 0
ARC
8
layer0
66
1
10
  -22.500
20
  52.500
30
  3.000
40
  2.9999999999999845
50
  -90.000
51
  90.000
 0
POLYLINE
8
layer0
66
1
70
8
10
  0.000
20
  0.000
30
  0.000
  0
VERTEX
8
layer0
10
  -22.500
20
  49.500
30
  3.000
  0
VERTEX
8
layer0
10
  -39.000
20
  49.500
30
  3.000
 0
SEQEND
 0
ARC
8
layer0
66
1
10
  -39.000
20
  52.500
30
  3.000
40
  2.999999999999984
50
  90.000
51
  -90.000
 0
POLYLINE
8
layer0
66
1
70
8
10
  0.000
20
  0.000
30
  0.000
  0
VERTEX
8
layer0
10
  -39.000
20
  55.500
30
  3.000
  0
VERTEX
8
layer0
10
  -22.500
20
  55.500
30
  3.000
 0
SEQEND
 0
ARC
8
layer0
66
1
10
  -22.500
20
  52.500
30
  3.000
40
  2.9999999999999845
50
  -90.000
51
  90.000
 0
ARC
8
layer0
66
1
10
  -67.500
20
  52.500
30
  3.000
40
  2.9999999999999845
50
  90.000
51
  -90.000
 0
POLYLINE
8
layer0
66
1
70
8
10
  0.000
20
  0.000
30
  0.000
  0
VERTEX
8
layer0
10
  -67.500
20
  55.500
30
  3.000
  0
VERTEX
8
layer0
10
  -51.000
20
  55.500
30
  3.000
 0
SEQEND
 0
ARC
8
layer0
66
1
10
  -51.000
20
  52.500
30
  3.000
40
  2.9999999999999845
50
  -90.000
51
  90.000
 0
POLYLINE
8
layer0
66
1
70
8
10
  0.000
20
  0.000
30
  0.000
  0
VERTEX
8
layer0
10
  -51.000
20
  49.500
30
  3.000
  0
VERTEX
8
layer0
10
  -67.500
20
  49.500
30
  3.000
 0
SEQEND
 0
ARC
8
layer0
66
1
10
  -67.500
20
  52.500
30
  3.000
40
  2.9999999999999845
50
  90.000
51
  -90.000
 0
ARC
8
layer0
66
1
10
  -51.000
20
  40.000
30
  3.000
40
  2.9999999999999853
50
  -90.000
51
  90.000
 0
POLYLINE
8
layer0
66
1
70
8
10
  0.000
20
  0.000
30
  0.000
  0
VERTEX
8
layer0
10
  -51.000
20
  37.000
30
  3.000
  0
VERTEX
8
layer0
10
  -67.500
20
  37.000
30
  3.000
 0
SEQEND
 0
ARC
8
layer0
66
1
10
  -67.500
20
  40.000
30
  3.000
40
  2.9999999999999853
50
  90.000
51
  -90.000
 0
POLYLINE
8
layer0
66
1
70
8
10
  0.000
20
  0.000
30
  0.000
  0
VERTEX
8
layer0
10
  -67.500
20
  43.000
30
  3.000
  0
VERTEX
8
layer0
10
  -51.000
20
  43.000
30
  3.000
 0
SEQEND
 0
ARC
8
layer0
66
1
10
  -51.000
20
  40.000
30
  3.000
40
  2.9999999999999853
50
  -90.000
51
  90.000
 0
ARC
8
layer0
66
1
10
  -39.000
20
  40.000
30
  3.000
40
  2.9999999999999845
50
  90.000
51
  -90.000
 0
POLYLINE
8
layer0
66
1
70
8
10
  0.000
20
  0.000
30
  0.000
  0
VERTEX
8
layer0
10
  -39.000
20
  43.000
30
  3.000
  0
VERTEX
8
layer0
10
  -22.500
20
  43.000
30
  3.000
 0
SEQEND
 0
ARC
8
layer0
66
1
10
  -22.500
20
  40.000
30
  3.000
40
  2.9999999999999853
50
  -90.000
51
  90.000
 0
POLYLINE
8
layer0
66
1
70
8
10
  0.000
20
  0.000
30
  0.000
  0
VERTEX
8
layer0
10
  -22.500
20
  37.000
30
  3.000
  0
VERTEX
8
layer0
10
  -39.000
20
  37.000
30
  3.000
 0
SEQEND
 0
ARC
8
layer0
66
1
10
  -39.000
20
  40.000
30
  3.000
40
  2.9999999999999845
50
  90.000
51
  -90.000
 0
ARC
8
layer0
66
1
10
  -51.000
20
  15.000
30
  3.000
40
  2.9999999999999853
50
  -90.000
51
  90.000
 0
POLYLINE
8
layer0
66
1
70
8
10
  0.000
20
  0.000
30
  0.000
  0
VERTEX
8
layer0
10
  -51.000
20
  12.000
30
  3.000
  0
VERTEX
8
layer0
10
  -67.500
20
  12.000
30
  3.000
 0
SEQEND
 0
ARC
8
layer0
66
1
10
  -67.500
20
  15.000
30
  3.000
40
  2.9999999999999867
50
  90.000
51
  -90.000
 0
POLYLINE
8
layer0
66
1
70
8
10
  0.000
20
  0.000
30
  0.000
  0
VERTEX
8
layer0
10
  -67.500
20
  18.000
30
  3.000
  0
VERTEX
8
layer0
10
  -51.000
20
  18.000
30
  3.000
 0
SEQEND
 0
ARC
8
layer0
66
1
10
  -51.000
20
  15.000
30
  3.000
40
  2.9999999999999853
50
  -90.000
51
  90.000
 0
ARC
8
layer0
66
1
10
  -67.500
20
  27.500
30
  3.000
40
  2.999999999999983
50
  90.000
51
  -90.000
 0
POLYLINE
8
layer0
66
1
70
8
10
  0.000
20
  0.000
30
  0.000
  0
VERTEX
8
layer0
10
  -67.500
20
  30.500
30
  3.000
  0
VERTEX
8
layer0
10
  -51.000
20
  30.500
30
  3.000
 0
SEQEND
 0
ARC
8
layer0
66
1
10
  -51.000
20
  27.500
30
  3.000
40
  2.999999999999986
50
  -90.000
51
  90.000
 0
POLYLINE
8
layer0
66
1
70
8
10
  0.000
20
  0.000
30
  0.000
  0
VERTEX
8
layer0
10
  -51.000
20
  24.500
30
  3.000
  0
VERTEX
8
layer0
10
  -67.500
20
  24.500
30
  3.000
 0
SEQEND
 0
ARC
8
layer0
66
1
10
  -67.500
20
  27.500
30
  3.000
40
  2.999999999999983
50
  90.000
51
  -90.000
 0
ARC
8
layer0
66
1
10
  -39.000
20
  27.500
30
  3.000
40
  2.9999999999999845
50
  90.000
51
  -90.000
 0
POLYLINE
8
layer0
66
1
70
8
10
  0.000
20
  0.000
30
  0.000
  0
VERTEX
8
layer0
10
  -39.000
20
  30.500
30
  3.000
  0
VERTEX
8
layer0
10
  -22.500
20
  30.500
30
  3.000
 0
SEQEND
 0
ARC
8
layer0
66
1
10
  -22.500
20
  27.500
30
  3.000
40
  2.999999999999978
50
  -90.000
51
  90.000
 0
POLYLINE
8
layer0
66
1
70
8
10
  0.000
20
  0.000
30
  0.000
  0
VERTEX
8
layer0
10
  -22.500
20
  24.500
30
  3.000
  0
VERTEX
8
layer0
10
  -39.000
20
  24.500
30
  3.000
 0
SEQEND
 0
ARC
8
layer0
66
1
10
  -39.000
20
  27.500
30
  3.000
40
  2.9999999999999845
50
  90.000
51
  -90.000
 0
ARC
8
layer0
66
1
10
  -22.500
20
  15.000
30
  3.000
40
  2.9999999999999862
50
  -90.000
51
  90.000
 0
POLYLINE
8
layer0
66
1
70
8
10
  0.000
20
  0.000
30
  0.000
  0
VERTEX
8
layer0
10
  -22.500
20
  12.000
30
  3.000
  0
VERTEX
8
layer0
10
  -39.000
20
  12.000
30
  3.000
 0
SEQEND
 0
ARC
8
layer0
66
1
10
  -39.000
20
  15.000
30
  3.000
40
  2.9999999999999853
50
  90.000
51
  -90.000
 0
POLYLINE
8
layer0
66
1
70
8
10
  0.000
20
  0.000
30
  0.000
  0
VERTEX
8
layer0
10
  -39.000
20
  18.000
30
  3.000
  0
VERTEX
8
layer0
10
  -22.500
20
  18.000
30
  3.000
 0
SEQEND
 0
ARC
8
layer0
66
1
10
  -22.500
20
  15.000
30
  3.000
40
  2.9999999999999862
50
  -90.000
51
  90.000
 0
ARC
8
layer0
66
1
10
  -22.500
20
  77.500
30
  3.000
40
  2.9999999999999756
50
  -90.000
51
  90.000
 0
POLYLINE
8
layer0
66
1
70
8
10
  0.000
20
  0.000
30
  0.000
  0
VERTEX
8
layer0
10
  -22.500
20
  74.500
30
  3.000
  0
VERTEX
8
layer0
10
  -39.000
20
  74.500
30
  3.000
 0
SEQEND
 0
ARC
8
layer0
66
1
10
  -39.000
20
  77.500
30
  3.000
40
  2.9999999999999756
50
  90.000
51
  -90.000
 0
POLYLINE
8
layer0
66
1
70
8
10
  0.000
20
  0.000
30
  0.000
  0
VERTEX
8
layer0
10
  -39.000
20
  80.500
30
  3.000
  0
VERTEX
8
layer0
10
  -22.500
20
  80.500
30
  3.000
 0
SEQEND
 0
ARC
8
layer0
66
1
10
  -22.500
20
  77.500
30
  3.000
40
  2.9999999999999756
50
  -90.000
51
  90.000
 0
POLYLINE
8
layer0
66
1
70
8
10
  0.000
20
  0.000
30
  0.000
  0
VERTEX
8
layer0
10
  -67.500
20
  80.500
30
  3.000
  0
VERTEX
8
layer0
10
  -51.000
20
  80.500
30
  3.000
 0
SEQEND
 0
ARC
8
layer0
66
1
10
  -51.000
20
  77.500
30
  3.000
40
  2.999999999999977
50
  -90.000
51
  90.000
 0
POLYLINE
8
layer0
66
1
70
8
10
  0.000
20
  0.000
30
  0.000
  0
VERTEX
8
layer0
10
  -51.000
20
  74.500
30
  3.000
  0
VERTEX
8
layer0
10
  -67.500
20
  74.500
30
  3.000
 0
SEQEND
 0
ARC
8
layer0
66
1
10
  -67.500
20
  77.500
30
  3.000
40
  2.999999999999976
50
  90.000
51
  -90.000
 0
ARC
8
layer0
66
1
10
  -51.000
20
  65.000
30
  3.000
40
  2.9999999999999765
50
  -90.000
51
  90.000
 0
POLYLINE
8
layer0
66
1
70
8
10
  0.000
20
  0.000
30
  0.000
  0
VERTEX
8
layer0
10
  -51.000
20
  62.000
30
  3.000
  0
VERTEX
8
layer0
10
  -67.500
20
  62.000
30
  3.000
 0
SEQEND
 0
ARC
8
layer0
66
1
10
  -67.500
20
  65.000
30
  3.000
40
  2.999999999999978
50
  90.000
51
  -90.000
 0
POLYLINE
8
layer0
66
1
70
8
10
  0.000
20
  0.000
30
  0.000
  0
VERTEX
8
layer0
10
  -67.500
20
  68.000
30
  3.000
  0
VERTEX
8
layer0
10
  -51.000
20
  68.000
30
  3.000
 0
SEQEND
 0
ARC
8
layer0
66
1
10
  -51.000
20
  65.000
30
  3.000
40
  2.9999999999999765
50
  -90.000
51
  90.000
 0
ARC
8
layer0
66
1
10
  -39.000
20
  65.000
30
  3.000
40
  2.999999999999978
50
  90.000
51
  -90.000
 0
POLYLINE
8
layer0
66
1
70
8
10
  0.000
20
  0.000
30
  0.000
  0
VERTEX
8
layer0
10
  -39.000
20
  68.000
30
  3.000
  0
VERTEX
8
layer0
10
  -22.500
20
  68.000
30
  3.000
 0
SEQEND
 0
ARC
8
layer0
66
1
10
  -22.500
20
  65.000
30
  3.000
40
  2.9999999999999805
50
  -90.000
51
  90.000
 0
POLYLINE
8
layer0
66
1
70
8
10
  0.000
20
  0.000
30
  0.000
  0
VERTEX
8
layer0
10
  -22.500
20
  62.000
30
  3.000
  0
VERTEX
8
layer0
10
  -39.000
20
  62.000
30
  3.000
 0
SEQEND
 0
ARC
8
layer0
66
1
10
  -39.000
20
  65.000
30
  3.000
40
  2.999999999999978
50
  90.000
51
  -90.000
 0
ENDSEC
 0
EOF
