 0
SECTION
 2
HEADER
 9
$MEASUREMENT
 70
 2
 0
ENDSEC
 0
SECTION
 2
ENTITIES
 0
CIRCLE
8
layer0
66
1
10
  -1.099
20
  60.479
30
  -3.000
40
  1.600
 0
CIRCLE
8
layer0
66
1
10
  -1.099
20
  82.979
30
  -3.000
40
  1.600
 0
CIRCLE
8
layer0
66
1
10
  -203.599
20
  145.479
30
  -3.000
40
  1.600
 0
CIRCLE
8
layer0
66
1
10
  -226.099
20
  82.979
30
  -3.000
40
  1.600
 0
CIRCLE
8
layer0
66
1
10
  -23.599
20
  105.479
30
  -3.000
40
  1.600
 0
CIRCLE
8
layer0
66
1
10
  -226.099
20
  60.479
30
  -3.000
40
  1.600
 0
CIRCLE
8
layer0
66
1
10
  -226.099
20
  145.479
30
  -3.000
40
  1.600
 0
CIRCLE
8
layer0
66
1
10
  -1.099
20
  145.479
30
  -3.000
40
  1.600
 0
CIRCLE
8
layer0
66
1
10
  -23.599
20
  145.479
30
  -3.000
40
  1.600
 0
CIRCLE
8
layer0
66
1
10
  -113.599
20
  145.479
30
  -3.000
40
  1.600
 0
CIRCLE
8
layer0
66
1
10
  -203.599
20
  60.479
30
  -3.000
40
  1.600
 0
CIRCLE
8
layer0
66
1
10
  -1.099
20
  105.479
30
  -3.000
40
  1.600
 0
CIRCLE
8
layer0
66
1
10
  -226.099
20
  105.479
30
  -3.000
40
  1.600
 0
CIRCLE
8
layer0
66
1
10
  -113.599
20
  60.479
30
  -3.000
40
  1.600
 0
CIRCLE
8
layer0
66
1
10
  -23.599
20
  60.479
30
  -3.000
40
  1.600
 0
CIRCLE
8
layer0
66
1
10
  -113.599
20
  105.479
30
  -3.000
40
  1.600
 0
CIRCLE
8
layer0
66
1
10
  -203.599
20
  105.479
30
  -3.000
40
  1.600
 0
CIRCLE
8
layer0
66
1
10
  -185.049
20
  118.467
30
  -3.000
40
  2.100
 0
ARC
8
layer0
66
1
10
  -162.699
20
  120.579
30
  -3.000
40
  1.600
50
  -90.000
51
  -0.000
 0
POLYLINE
8
layer0
66
1
70
8
10
  0.000
20
  0.000
30
  0.000
  0
VERTEX
8
layer0
10
  -161.099
20
  120.579
30
  -3.000
  0
VERTEX
8
layer0
10
  -161.099
20
  133.879
30
  -3.000
 0
SEQEND
 0
ARC
8
layer0
66
1
10
  -162.699
20
  133.879
30
  -3.000
40
  1.600
50
  -0.000
51
  90.000
 0
POLYLINE
8
layer0
66
1
70
8
10
  0.000
20
  0.000
30
  0.000
  0
VERTEX
8
layer0
10
  -162.699
20
  135.479
30
  -3.000
  0
VERTEX
8
layer0
10
  -169.499
20
  135.479
30
  -3.000
 0
SEQEND
 0
ARC
8
layer0
66
1
10
  -169.499
20
  133.879
30
  -3.000
40
  1.600
50
  90.000
51
  180.000
 0
POLYLINE
8
layer0
66
1
70
8
10
  0.000
20
  0.000
30
  0.000
  0
VERTEX
8
layer0
10
  -171.099
20
  133.879
30
  -3.000
  0
VERTEX
8
layer0
10
  -171.099
20
  120.579
30
  -3.000
 0
SEQEND
 0
ARC
8
layer0
66
1
10
  -169.499
20
  120.579
30
  -3.000
40
  1.600
50
  180.000
51
  -90.000
 0
POLYLINE
8
layer0
66
1
70
8
10
  0.000
20
  0.000
30
  0.000
  0
VERTEX
8
layer0
10
  -169.499
20
  118.979
30
  -3.000
  0
VERTEX
8
layer0
10
  -162.699
20
  118.979
30
  -3.000
 0
SEQEND
 0
ARC
8
layer0
66
1
10
  -162.699
20
  120.579
30
  -3.000
40
  1.600
50
  -90.000
51
  -0.000
 0
CIRCLE
8
layer0
66
1
10
  -203.599
20
  82.979
30
  -3.000
40
  9.000
 0
POLYLINE
8
layer0
66
1
70
8
10
  0.000
20
  0.000
30
  0.000
  0
VERTEX
8
layer0
10
  -56.099
20
  133.879
30
  -3.000
  0
VERTEX
8
layer0
10
  -56.099
20
  120.579
30
  -3.000
 0
SEQEND
 0
ARC
8
layer0
66
1
10
  -54.499
20
  120.579
30
  -3.000
40
  1.600
50
  180.000
51
  -90.000
 0
POLYLINE
8
layer0
66
1
70
8
10
  0.000
20
  0.000
30
  0.000
  0
VERTEX
8
layer0
10
  -54.499
20
  118.979
30
  -3.000
  0
VERTEX
8
layer0
10
  -5.099
20
  118.979
30
  -3.000
 0
SEQEND
 0
ARC
8
layer0
66
1
10
  -5.099
20
  120.579
30
  -3.000
40
  1.600
50
  -90.000
51
  -0.000
 0
POLYLINE
8
layer0
66
1
70
8
10
  0.000
20
  0.000
30
  0.000
  0
VERTEX
8
layer0
10
  -3.499
20
  120.579
30
  -3.000
  0
VERTEX
8
layer0
10
  -3.499
20
  133.879
30
  -3.000
 0
SEQEND
 0
ARC
8
layer0
66
1
10
  -5.099
20
  133.879
30
  -3.000
40
  1.600
50
  -0.000
51
  90.000
 0
POLYLINE
8
layer0
66
1
70
8
10
  0.000
20
  0.000
30
  0.000
  0
VERTEX
8
layer0
10
  -5.099
20
  135.479
30
  -3.000
  0
VERTEX
8
layer0
10
  -54.499
20
  135.479
30
  -3.000
 0
SEQEND
 0
ARC
8
layer0
66
1
10
  -54.499
20
  133.879
30
  -3.000
40
  1.600
50
  90.000
51
  180.000
 0
POLYLINE
8
layer0
66
1
70
8
10
  0.000
20
  0.000
30
  0.000
  0
VERTEX
8
layer0
10
  -233.599
20
  155.979
30
  -3.000
  0
VERTEX
8
layer0
10
  9.401
20
  155.979
30
  -3.000
 0
SEQEND
 0
POLYLINE
8
layer0
66
1
70
8
10
  0.000
20
  0.000
30
  0.000
  0
VERTEX
8
layer0
10
  9.401
20
  155.979
30
  -3.000
  0
VERTEX
8
layer0
10
  9.401
20
  52.979
30
  -3.000
 0
SEQEND
 0
POLYLINE
8
layer0
66
1
70
8
10
  0.000
20
  0.000
30
  0.000
  0
VERTEX
8
layer0
10
  9.401
20
  52.979
30
  -3.000
  0
VERTEX
8
layer0
10
  -233.599
20
  52.979
30
  -3.000
 0
SEQEND
 0
POLYLINE
8
layer0
66
1
70
8
10
  0.000
20
  0.000
30
  0.000
  0
VERTEX
8
layer0
10
  -233.599
20
  52.979
30
  -3.000
  0
VERTEX
8
layer0
10
  -233.599
20
  155.979
30
  -3.000
 0
SEQEND
 0
CIRCLE
8
layer0
66
1
10
  -203.599
20
  145.479
30
  0.000
40
  1.600
 0
CIRCLE
8
layer0
66
1
10
  -113.599
20
  145.479
30
  0.000
40
  1.600
 0
CIRCLE
8
layer0
66
1
10
  -113.599
20
  60.479
30
  0.000
40
  1.600
 0
CIRCLE
8
layer0
66
1
10
  -203.599
20
  60.479
30
  0.000
40
  1.600
 0
CIRCLE
8
layer0
66
1
10
  -226.099
20
  82.979
30
  0.000
40
  1.600
 0
CIRCLE
8
layer0
66
1
10
  -1.099
20
  60.479
30
  0.000
40
  1.600
 0
CIRCLE
8
layer0
66
1
10
  -1.099
20
  145.479
30
  -0.000
40
  1.600
 0
CIRCLE
8
layer0
66
1
10
  -1.099
20
  82.979
30
  0.000
40
  1.600
 0
CIRCLE
8
layer0
66
1
10
  -23.599
20
  105.479
30
  0.000
40
  1.600
 0
CIRCLE
8
layer0
66
1
10
  -1.099
20
  105.479
30
  0.000
40
  1.600
 0
CIRCLE
8
layer0
66
1
10
  -23.599
20
  60.479
30
  0.000
40
  1.600
 0
CIRCLE
8
layer0
66
1
10
  -23.599
20
  145.479
30
  -0.000
40
  1.600
 0
CIRCLE
8
layer0
66
1
10
  -226.099
20
  145.479
30
  0.000
40
  1.600
 0
CIRCLE
8
layer0
66
1
10
  -226.099
20
  105.479
30
  0.000
40
  1.600
 0
CIRCLE
8
layer0
66
1
10
  -226.099
20
  60.479
30
  0.000
40
  1.600
 0
CIRCLE
8
layer0
66
1
10
  -203.599
20
  105.479
30
  0.000
40
  1.600
 0
CIRCLE
8
layer0
66
1
10
  -113.599
20
  105.479
30
  0.000
40
  1.600
 0
CIRCLE
8
layer0
66
1
10
  -185.049
20
  118.467
30
  0.000
40
  2.100
 0
ARC
8
layer0
66
1
10
  -162.699
20
  120.579
30
  0.000
40
  1.600
50
  -90.000
51
  -0.000
 0
POLYLINE
8
layer0
66
1
70
8
10
  0.000
20
  0.000
30
  0.000
  0
VERTEX
8
layer0
10
  -162.699
20
  118.979
30
  0.000
  0
VERTEX
8
layer0
10
  -169.499
20
  118.979
30
  0.000
 0
SEQEND
 0
ARC
8
layer0
66
1
10
  -169.499
20
  120.579
30
  0.000
40
  1.600
50
  180.000
51
  -90.000
 0
POLYLINE
8
layer0
66
1
70
8
10
  0.000
20
  0.000
30
  0.000
  0
VERTEX
8
layer0
10
  -171.099
20
  120.579
30
  0.000
  0
VERTEX
8
layer0
10
  -171.099
20
  133.879
30
  0.000
 0
SEQEND
 0
ARC
8
layer0
66
1
10
  -169.499
20
  133.879
30
  0.000
40
  1.600
50
  90.000
51
  180.000
 0
POLYLINE
8
layer0
66
1
70
8
10
  0.000
20
  0.000
30
  0.000
  0
VERTEX
8
layer0
10
  -169.499
20
  135.479
30
  0.000
  0
VERTEX
8
layer0
10
  -162.699
20
  135.479
30
  0.000
 0
SEQEND
 0
ARC
8
layer0
66
1
10
  -162.699
20
  133.879
30
  0.000
40
  1.600
50
  -0.000
51
  90.000
 0
POLYLINE
8
layer0
66
1
70
8
10
  0.000
20
  0.000
30
  0.000
  0
VERTEX
8
layer0
10
  -161.099
20
  133.879
30
  0.000
  0
VERTEX
8
layer0
10
  -161.099
20
  120.579
30
  0.000
 0
SEQEND
 0
ARC
8
layer0
66
1
10
  -162.699
20
  120.579
30
  0.000
40
  1.600
50
  -90.000
51
  -0.000
 0
CIRCLE
8
layer0
66
1
10
  -203.599
20
  82.979
30
  0.000
40
  9.000
 0
ARC
8
layer0
66
1
10
  -54.499
20
  133.879
30
  0.000
40
  1.600
50
  90.000
51
  180.000
 0
POLYLINE
8
layer0
66
1
70
8
10
  0.000
20
  0.000
30
  0.000
  0
VERTEX
8
layer0
10
  -54.499
20
  135.479
30
  0.000
  0
VERTEX
8
layer0
10
  -5.099
20
  135.479
30
  -0.000
 0
SEQEND
 0
ARC
8
layer0
66
1
10
  -5.099
20
  133.879
30
  -0.000
40
  1.600
50
  -0.000
51
  90.000
 0
POLYLINE
8
layer0
66
1
70
8
10
  0.000
20
  0.000
30
  0.000
  0
VERTEX
8
layer0
10
  -3.499
20
  133.879
30
  -0.000
  0
VERTEX
8
layer0
10
  -3.499
20
  120.579
30
  -0.000
 0
SEQEND
 0
ARC
8
layer0
66
1
10
  -5.099
20
  120.579
30
  -0.000
40
  1.600
50
  270.000
51
  -0.000
 0
POLYLINE
8
layer0
66
1
70
8
10
  0.000
20
  0.000
30
  0.000
  0
VERTEX
8
layer0
10
  -5.099
20
  118.979
30
  -0.000
  0
VERTEX
8
layer0
10
  -54.499
20
  118.979
30
  -0.000
 0
SEQEND
 0
ARC
8
layer0
66
1
10
  -54.499
20
  120.579
30
  0.000
40
  1.600
50
  180.000
51
  270.000
 0
POLYLINE
8
layer0
66
1
70
8
10
  0.000
20
  0.000
30
  0.000
  0
VERTEX
8
layer0
10
  -56.099
20
  120.579
30
  -0.000
  0
VERTEX
8
layer0
10
  -56.099
20
  133.879
30
  0.000
 0
SEQEND
 0
POLYLINE
8
layer0
66
1
70
8
10
  0.000
20
  0.000
30
  0.000
  0
VERTEX
8
layer0
10
  9.401
20
  155.979
30
  -0.000
  0
VERTEX
8
layer0
10
  -233.599
20
  155.979
30
  0.000
 0
SEQEND
 0
POLYLINE
8
layer0
66
1
70
8
10
  0.000
20
  0.000
30
  0.000
  0
VERTEX
8
layer0
10
  -233.599
20
  155.979
30
  0.000
  0
VERTEX
8
layer0
10
  -233.599
20
  52.979
30
  0.000
 0
SEQEND
 0
POLYLINE
8
layer0
66
1
70
8
10
  0.000
20
  0.000
30
  0.000
  0
VERTEX
8
layer0
10
  -233.599
20
  52.979
30
  0.000
  0
VERTEX
8
layer0
10
  9.401
20
  52.979
30
  0.000
 0
SEQEND
 0
POLYLINE
8
layer0
66
1
70
8
10
  0.000
20
  0.000
30
  0.000
  0
VERTEX
8
layer0
10
  9.401
20
  52.979
30
  0.000
  0
VERTEX
8
layer0
10
  9.401
20
  155.979
30
  -0.000
 0
SEQEND
 0
ENDSEC
 0
EOF
