 0
SECTION
 2
HEADER
 9
$MEASUREMENT
 70
 2
 0
ENDSEC
 0
SECTION
 2
ENTITIES
 0
CIRCLE
8
layer0
66
1
10
  8.388
20
  -8.388
30
  10.000
40
  6.000
 0
POLYLINE
8
layer0
66
1
70
8
10
  0.000
20
  0.000
30
  0.000
  0
VERTEX
8
layer0
10
  3.191
20
  -11.388
30
  10.000
  0
VERTEX
8
layer0
10
  2.325
20
  -11.888
30
  6.000
 0
SEQEND
 0
CIRCLE
8
layer0
66
1
10
  8.388
20
  -8.388
30
  6.000
40
  7.000
 0
POLYLINE
8
layer0
66
1
70
8
10
  0.000
20
  0.000
30
  0.000
  0
VERTEX
8
layer0
10
  3.438
20
  -13.337
30
  6.000
  0
VERTEX
8
layer0
10
  4.145
20
  -12.630
30
  10.000
 0
SEQEND
 0
CIRCLE
8
layer0
66
1
10
  8.388
20
  -8.388
30
  10.000
40
  6.000
 0
POLYLINE
8
layer0
66
1
70
8
10
  0.000
20
  0.000
30
  0.000
  0
VERTEX
8
layer0
10
  3.191
20
  -5.388
30
  10.000
  0
VERTEX
8
layer0
10
  2.325
20
  -4.888
30
  6.000
 0
SEQEND
 0
CIRCLE
8
layer0
66
1
10
  8.388
20
  -8.388
30
  6.000
40
  7.000
 0
POLYLINE
8
layer0
66
1
70
8
10
  0.000
20
  0.000
30
  0.000
  0
VERTEX
8
layer0
10
  1.626
20
  -6.576
30
  6.000
  0
VERTEX
8
layer0
10
  2.592
20
  -6.835
30
  10.000
 0
SEQEND
 0
POLYLINE
8
layer0
66
1
70
8
10
  0.000
20
  0.000
30
  0.000
  0
VERTEX
8
layer0
10
  14.450
20
  -11.888
30
  6.000
  0
VERTEX
8
layer0
10
  13.584
20
  -11.388
30
  10.000
 0
SEQEND
 0
CIRCLE
8
layer0
66
1
10
  8.388
20
  -8.388
30
  10.000
40
  6.000
 0
POLYLINE
8
layer0
66
1
70
8
10
  0.000
20
  0.000
30
  0.000
  0
VERTEX
8
layer0
10
  12.630
20
  -12.630
30
  10.000
  0
VERTEX
8
layer0
10
  13.337
20
  -13.337
30
  6.000
 0
SEQEND
 0
CIRCLE
8
layer0
66
1
10
  8.388
20
  -8.388
30
  6.000
40
  7.000
 0
CIRCLE
8
layer0
66
1
10
  8.388
20
  -8.388
30
  10.000
40
  6.000
 0
POLYLINE
8
layer0
66
1
70
8
10
  0.000
20
  0.000
30
  0.000
  0
VERTEX
8
layer0
10
  6.835
20
  -2.592
30
  10.000
  0
VERTEX
8
layer0
10
  6.576
20
  -1.626
30
  6.000
 0
SEQEND
 0
CIRCLE
8
layer0
66
1
10
  8.388
20
  -8.388
30
  6.000
40
  7.000
 0
POLYLINE
8
layer0
66
1
70
8
10
  0.000
20
  0.000
30
  0.000
  0
VERTEX
8
layer0
10
  4.888
20
  -2.325
30
  6.000
  0
VERTEX
8
layer0
10
  5.388
20
  -3.191
30
  10.000
 0
SEQEND
 0
POLYLINE
8
layer0
66
1
70
8
10
  0.000
20
  0.000
30
  0.000
  0
VERTEX
8
layer0
10
  15.149
20
  -10.199
30
  6.000
  0
VERTEX
8
layer0
10
  14.183
20
  -9.940
30
  10.000
 0
SEQEND
 0
CIRCLE
8
layer0
66
1
10
  8.388
20
  -8.388
30
  10.000
40
  6.000
 0
POLYLINE
8
layer0
66
1
70
8
10
  0.000
20
  0.000
30
  0.000
  0
VERTEX
8
layer0
10
  13.584
20
  -11.388
30
  10.000
  0
VERTEX
8
layer0
10
  14.450
20
  -11.888
30
  6.000
 0
SEQEND
 0
CIRCLE
8
layer0
66
1
10
  8.388
20
  -8.388
30
  6.000
40
  7.000
 0
POLYLINE
8
layer0
66
1
70
8
10
  0.000
20
  0.000
30
  0.000
  0
VERTEX
8
layer0
10
  13.337
20
  -3.438
30
  6.000
  0
VERTEX
8
layer0
10
  12.630
20
  -4.145
30
  10.000
 0
SEQEND
 0
CIRCLE
8
layer0
66
1
10
  8.388
20
  -8.388
30
  10.000
40
  6.000
 0
POLYLINE
8
layer0
66
1
70
8
10
  0.000
20
  0.000
30
  0.000
  0
VERTEX
8
layer0
10
  13.584
20
  -5.388
30
  10.000
  0
VERTEX
8
layer0
10
  14.450
20
  -4.888
30
  6.000
 0
SEQEND
 0
CIRCLE
8
layer0
66
1
10
  8.388
20
  -8.388
30
  6.000
40
  7.000
 0
CIRCLE
8
layer0
66
1
10
  8.388
20
  -8.388
30
  10.000
40
  6.000
 0
POLYLINE
8
layer0
66
1
70
8
10
  0.000
20
  0.000
30
  0.000
  0
VERTEX
8
layer0
10
  2.592
20
  -9.940
30
  10.000
  0
VERTEX
8
layer0
10
  1.626
20
  -10.199
30
  6.000
 0
SEQEND
 0
CIRCLE
8
layer0
66
1
10
  8.388
20
  -8.388
30
  6.000
40
  7.000
 0
POLYLINE
8
layer0
66
1
70
8
10
  0.000
20
  0.000
30
  0.000
  0
VERTEX
8
layer0
10
  2.325
20
  -11.888
30
  6.000
  0
VERTEX
8
layer0
10
  3.191
20
  -11.388
30
  10.000
 0
SEQEND
 0
POLYLINE
8
layer0
66
1
70
8
10
  0.000
20
  0.000
30
  0.000
  0
VERTEX
8
layer0
10
  11.888
20
  -14.450
30
  6.000
  0
VERTEX
8
layer0
10
  11.388
20
  -13.584
30
  10.000
 0
SEQEND
 0
CIRCLE
8
layer0
66
1
10
  8.388
20
  -8.388
30
  10.000
40
  6.000
 0
POLYLINE
8
layer0
66
1
70
8
10
  0.000
20
  0.000
30
  0.000
  0
VERTEX
8
layer0
10
  9.940
20
  -14.183
30
  10.000
  0
VERTEX
8
layer0
10
  10.199
20
  -15.149
30
  6.000
 0
SEQEND
 0
CIRCLE
8
layer0
66
1
10
  8.388
20
  -8.388
30
  6.000
40
  7.000
 0
CIRCLE
8
layer0
66
1
10
  8.388
20
  -8.388
30
  10.000
40
  6.000
 0
POLYLINE
8
layer0
66
1
70
8
10
  0.000
20
  0.000
30
  0.000
  0
VERTEX
8
layer0
10
  6.835
20
  -14.183
30
  10.000
  0
VERTEX
8
layer0
10
  6.576
20
  -15.149
30
  6.000
 0
SEQEND
 0
CIRCLE
8
layer0
66
1
10
  8.388
20
  -8.388
30
  6.000
40
  7.000
 0
POLYLINE
8
layer0
66
1
70
8
10
  0.000
20
  0.000
30
  0.000
  0
VERTEX
8
layer0
10
  8.388
20
  -15.388
30
  6.000
  0
VERTEX
8
layer0
10
  8.388
20
  -14.388
30
  10.000
 0
SEQEND
 0
POLYLINE
8
layer0
66
1
70
8
10
  0.000
20
  0.000
30
  0.000
  0
VERTEX
8
layer0
10
  11.888
20
  -2.325
30
  6.000
  0
VERTEX
8
layer0
10
  11.388
20
  -3.191
30
  10.000
 0
SEQEND
 0
CIRCLE
8
layer0
66
1
10
  8.388
20
  -8.388
30
  10.000
40
  6.000
 0
POLYLINE
8
layer0
66
1
70
8
10
  0.000
20
  0.000
30
  0.000
  0
VERTEX
8
layer0
10
  12.630
20
  -4.145
30
  10.000
  0
VERTEX
8
layer0
10
  13.337
20
  -3.438
30
  6.000
 0
SEQEND
 0
CIRCLE
8
layer0
66
1
10
  8.388
20
  -8.388
30
  6.000
40
  7.000
 0
POLYLINE
8
layer0
66
1
70
8
10
  0.000
20
  0.000
30
  0.000
  0
VERTEX
8
layer0
10
  10.199
20
  -1.626
30
  6.000
  0
VERTEX
8
layer0
10
  9.940
20
  -2.592
30
  10.000
 0
SEQEND
 0
CIRCLE
8
layer0
66
1
10
  8.388
20
  -8.388
30
  10.000
40
  6.000
 0
POLYLINE
8
layer0
66
1
70
8
10
  0.000
20
  0.000
30
  0.000
  0
VERTEX
8
layer0
10
  11.388
20
  -3.191
30
  10.000
  0
VERTEX
8
layer0
10
  11.888
20
  -2.325
30
  6.000
 0
SEQEND
 0
CIRCLE
8
layer0
66
1
10
  8.388
20
  -8.388
30
  6.000
40
  7.000
 0
CIRCLE
8
layer0
66
1
10
  8.388
20
  -8.388
30
  10.000
40
  6.000
 0
POLYLINE
8
layer0
66
1
70
8
10
  0.000
20
  0.000
30
  0.000
  0
VERTEX
8
layer0
10
  2.388
20
  -8.388
30
  10.000
  0
VERTEX
8
layer0
10
  1.388
20
  -8.388
30
  6.000
 0
SEQEND
 0
CIRCLE
8
layer0
66
1
10
  8.388
20
  -8.388
30
  6.000
40
  7.000
 0
POLYLINE
8
layer0
66
1
70
8
10
  0.000
20
  0.000
30
  0.000
  0
VERTEX
8
layer0
10
  1.626
20
  -10.199
30
  6.000
  0
VERTEX
8
layer0
10
  2.592
20
  -9.940
30
  10.000
 0
SEQEND
 0
POLYLINE
8
layer0
66
1
70
8
10
  0.000
20
  0.000
30
  0.000
  0
VERTEX
8
layer0
10
  15.388
20
  -8.388
30
  6.000
  0
VERTEX
8
layer0
10
  14.388
20
  -8.388
30
  10.000
 0
SEQEND
 0
CIRCLE
8
layer0
66
1
10
  8.388
20
  -8.388
30
  10.000
40
  6.000
 0
POLYLINE
8
layer0
66
1
70
8
10
  0.000
20
  0.000
30
  0.000
  0
VERTEX
8
layer0
10
  14.183
20
  -9.940
30
  10.000
  0
VERTEX
8
layer0
10
  15.149
20
  -10.199
30
  6.000
 0
SEQEND
 0
CIRCLE
8
layer0
66
1
10
  8.388
20
  -8.388
30
  6.000
40
  7.000
 0
POLYLINE
8
layer0
66
1
70
8
10
  0.000
20
  0.000
30
  0.000
  0
VERTEX
8
layer0
10
  8.388
20
  -1.388
30
  6.000
  0
VERTEX
8
layer0
10
  8.388
20
  -2.388
30
  10.000
 0
SEQEND
 0
CIRCLE
8
layer0
66
1
10
  8.388
20
  -8.388
30
  10.000
40
  6.000
 0
POLYLINE
8
layer0
66
1
70
8
10
  0.000
20
  0.000
30
  0.000
  0
VERTEX
8
layer0
10
  9.940
20
  -2.592
30
  10.000
  0
VERTEX
8
layer0
10
  10.199
20
  -1.626
30
  6.000
 0
SEQEND
 0
CIRCLE
8
layer0
66
1
10
  8.388
20
  -8.388
30
  6.000
40
  7.000
 0
CIRCLE
8
layer0
66
1
10
  8.388
20
  -8.388
30
  10.000
40
  6.000
 0
POLYLINE
8
layer0
66
1
70
8
10
  0.000
20
  0.000
30
  0.000
  0
VERTEX
8
layer0
10
  5.388
20
  -13.584
30
  10.000
  0
VERTEX
8
layer0
10
  4.888
20
  -14.450
30
  6.000
 0
SEQEND
 0
CIRCLE
8
layer0
66
1
10
  8.388
20
  -8.388
30
  6.000
40
  7.000
 0
POLYLINE
8
layer0
66
1
70
8
10
  0.000
20
  0.000
30
  0.000
  0
VERTEX
8
layer0
10
  6.576
20
  -15.149
30
  6.000
  0
VERTEX
8
layer0
10
  6.835
20
  -14.183
30
  10.000
 0
SEQEND
 0
CIRCLE
8
layer0
66
1
10
  8.388
20
  -8.388
30
  10.000
40
  6.000
 0
POLYLINE
8
layer0
66
1
70
8
10
  0.000
20
  0.000
30
  0.000
  0
VERTEX
8
layer0
10
  5.388
20
  -3.191
30
  10.000
  0
VERTEX
8
layer0
10
  4.888
20
  -2.325
30
  6.000
 0
SEQEND
 0
CIRCLE
8
layer0
66
1
10
  8.388
20
  -8.388
30
  6.000
40
  7.000
 0
POLYLINE
8
layer0
66
1
70
8
10
  0.000
20
  0.000
30
  0.000
  0
VERTEX
8
layer0
10
  3.438
20
  -3.438
30
  6.000
  0
VERTEX
8
layer0
10
  4.145
20
  -4.145
30
  10.000
 0
SEQEND
 0
CIRCLE
8
layer0
66
1
10
  8.388
20
  -8.388
30
  10.000
40
  6.000
 0
POLYLINE
8
layer0
66
1
70
8
10
  0.000
20
  0.000
30
  0.000
  0
VERTEX
8
layer0
10
  4.145
20
  -12.630
30
  10.000
  0
VERTEX
8
layer0
10
  3.438
20
  -13.337
30
  6.000
 0
SEQEND
 0
CIRCLE
8
layer0
66
1
10
  8.388
20
  -8.388
30
  6.000
40
  7.000
 0
POLYLINE
8
layer0
66
1
70
8
10
  0.000
20
  0.000
30
  0.000
  0
VERTEX
8
layer0
10
  4.888
20
  -14.450
30
  6.000
  0
VERTEX
8
layer0
10
  5.388
20
  -13.584
30
  10.000
 0
SEQEND
 0
POLYLINE
8
layer0
66
1
70
8
10
  0.000
20
  0.000
30
  0.000
  0
VERTEX
8
layer0
10
  13.337
20
  -13.337
30
  6.000
  0
VERTEX
8
layer0
10
  12.630
20
  -12.630
30
  10.000
 0
SEQEND
 0
CIRCLE
8
layer0
66
1
10
  8.388
20
  -8.388
30
  10.000
40
  6.000
 0
POLYLINE
8
layer0
66
1
70
8
10
  0.000
20
  0.000
30
  0.000
  0
VERTEX
8
layer0
10
  11.388
20
  -13.584
30
  10.000
  0
VERTEX
8
layer0
10
  11.888
20
  -14.450
30
  6.000
 0
SEQEND
 0
CIRCLE
8
layer0
66
1
10
  8.388
20
  -8.388
30
  6.000
40
  7.000
 0
CIRCLE
8
layer0
66
1
10
  8.388
20
  -8.388
30
  10.000
40
  6.000
 0
POLYLINE
8
layer0
66
1
70
8
10
  0.000
20
  0.000
30
  0.000
  0
VERTEX
8
layer0
10
  4.145
20
  -4.145
30
  10.000
  0
VERTEX
8
layer0
10
  3.438
20
  -3.438
30
  6.000
 0
SEQEND
 0
CIRCLE
8
layer0
66
1
10
  8.388
20
  -8.388
30
  6.000
40
  7.000
 0
POLYLINE
8
layer0
66
1
70
8
10
  0.000
20
  0.000
30
  0.000
  0
VERTEX
8
layer0
10
  2.325
20
  -4.888
30
  6.000
  0
VERTEX
8
layer0
10
  3.191
20
  -5.388
30
  10.000
 0
SEQEND
 0
POLYLINE
8
layer0
66
1
70
8
10
  0.000
20
  0.000
30
  0.000
  0
VERTEX
8
layer0
10
  10.199
20
  -15.149
30
  6.000
  0
VERTEX
8
layer0
10
  9.940
20
  -14.183
30
  10.000
 0
SEQEND
 0
CIRCLE
8
layer0
66
1
10
  8.388
20
  -8.388
30
  10.000
40
  6.000
 0
POLYLINE
8
layer0
66
1
70
8
10
  0.000
20
  0.000
30
  0.000
  0
VERTEX
8
layer0
10
  8.388
20
  -14.388
30
  10.000
  0
VERTEX
8
layer0
10
  8.388
20
  -15.388
30
  6.000
 0
SEQEND
 0
CIRCLE
8
layer0
66
1
10
  8.388
20
  -8.388
30
  6.000
40
  7.000
 0
POLYLINE
8
layer0
66
1
70
8
10
  0.000
20
  0.000
30
  0.000
  0
VERTEX
8
layer0
10
  14.450
20
  -4.888
30
  6.000
  0
VERTEX
8
layer0
10
  13.584
20
  -5.388
30
  10.000
 0
SEQEND
 0
CIRCLE
8
layer0
66
1
10
  8.388
20
  -8.388
30
  10.000
40
  6.000
 0
POLYLINE
8
layer0
66
1
70
8
10
  0.000
20
  0.000
30
  0.000
  0
VERTEX
8
layer0
10
  14.183
20
  -6.835
30
  10.000
  0
VERTEX
8
layer0
10
  15.149
20
  -6.576
30
  6.000
 0
SEQEND
 0
CIRCLE
8
layer0
66
1
10
  8.388
20
  -8.388
30
  6.000
40
  7.000
 0
CIRCLE
8
layer0
66
1
10
  8.388
20
  -8.388
30
  10.000
40
  6.000
 0
POLYLINE
8
layer0
66
1
70
8
10
  0.000
20
  0.000
30
  0.000
  0
VERTEX
8
layer0
10
  8.388
20
  -2.388
30
  10.000
  0
VERTEX
8
layer0
10
  8.388
20
  -1.388
30
  6.000
 0
SEQEND
 0
CIRCLE
8
layer0
66
1
10
  8.388
20
  -8.388
30
  6.000
40
  7.000
 0
POLYLINE
8
layer0
66
1
70
8
10
  0.000
20
  0.000
30
  0.000
  0
VERTEX
8
layer0
10
  6.576
20
  -1.626
30
  6.000
  0
VERTEX
8
layer0
10
  6.835
20
  -2.592
30
  10.000
 0
SEQEND
 0
POLYLINE
8
layer0
66
1
70
8
10
  0.000
20
  0.000
30
  0.000
  0
VERTEX
8
layer0
10
  15.149
20
  -6.576
30
  6.000
  0
VERTEX
8
layer0
10
  14.183
20
  -6.835
30
  10.000
 0
SEQEND
 0
CIRCLE
8
layer0
66
1
10
  8.388
20
  -8.388
30
  10.000
40
  6.000
 0
POLYLINE
8
layer0
66
1
70
8
10
  0.000
20
  0.000
30
  0.000
  0
VERTEX
8
layer0
10
  14.388
20
  -8.388
30
  10.000
  0
VERTEX
8
layer0
10
  15.388
20
  -8.388
30
  6.000
 0
SEQEND
 0
CIRCLE
8
layer0
66
1
10
  8.388
20
  -8.388
30
  6.000
40
  7.000
 0
CIRCLE
8
layer0
66
1
10
  8.388
20
  -8.388
30
  10.000
40
  6.000
 0
POLYLINE
8
layer0
66
1
70
8
10
  0.000
20
  0.000
30
  0.000
  0
VERTEX
8
layer0
10
  2.592
20
  -6.835
30
  10.000
  0
VERTEX
8
layer0
10
  1.626
20
  -6.576
30
  6.000
 0
SEQEND
 0
CIRCLE
8
layer0
66
1
10
  8.388
20
  -8.388
30
  6.000
40
  7.000
 0
POLYLINE
8
layer0
66
1
70
8
10
  0.000
20
  0.000
30
  0.000
  0
VERTEX
8
layer0
10
  1.388
20
  -8.388
30
  6.000
  0
VERTEX
8
layer0
10
  2.388
20
  -8.388
30
  10.000
 0
SEQEND
 0
CIRCLE
8
layer0
66
1
10
  8.388
20
  -8.388
30
  2.000
40
  7.000
 0
CIRCLE
8
layer0
66
1
10
  8.388
20
  -8.388
30
  2.000
40
  8.417
 0
CIRCLE
8
layer0
66
1
10
  8.388
20
  -8.388
30
  10.000
40
  1.500
 0
CIRCLE
8
layer0
66
1
10
  8.388
20
  -8.388
30
  10.000
40
  6.000
 0
CIRCLE
8
layer0
66
1
10
  8.388
20
  -8.388
30
  -0.000
40
  1.500
 0
CIRCLE
8
layer0
66
1
10
  8.388
20
  -8.388
30
  -0.000
40
  8.417
 0
ENDSEC
 0
EOF
