 0
SECTION
 2
HEADER
 9
$MEASUREMENT
 70
 2
 0
ENDSEC
 0
SECTION
 2
ENTITIES
 0
POLYLINE
8
layer0
66
1
70
8
10
  0.000
20
  0.000
30
  0.000
  0
VERTEX
8
layer0
10
  2.329
20
  -0.082
30
  1.500
  0
VERTEX
8
layer0
10
  2.438
20
  0.344
30
  1.500
 0
SEQEND
 0
POLYLINE
8
layer0
66
1
70
8
10
  0.000
20
  0.000
30
  0.000
  0
VERTEX
8
layer0
10
  2.438
20
  0.344
30
  1.500
  0
VERTEX
8
layer0
10
  0.965
20
  -11.915
30
  1.500
 0
SEQEND
 0
ARC
8
layer0
66
1
10
  -1.000
20
  -11.540
30
  1.500
40
  2.000
50
  190.800
51
  -10.800
 0
POLYLINE
8
layer0
66
1
70
8
10
  0.000
20
  0.000
30
  0.000
  0
VERTEX
8
layer0
10
  -2.965
20
  -11.915
30
  1.500
  0
VERTEX
8
layer0
10
  -4.438
20
  0.344
30
  1.500
 0
SEQEND
 0
POLYLINE
8
layer0
66
1
70
8
10
  0.000
20
  0.000
30
  0.000
  0
VERTEX
8
layer0
10
  -4.438
20
  0.344
30
  1.500
  0
VERTEX
8
layer0
10
  -4.329
20
  -0.082
30
  1.500
 0
SEQEND
 0
POLYLINE
8
layer0
66
1
70
8
10
  0.000
20
  0.000
30
  0.000
  0
VERTEX
8
layer0
10
  -4.329
20
  -0.082
30
  1.500
  0
VERTEX
8
layer0
10
  -4.167
20
  -0.490
30
  1.500
 0
SEQEND
 0
POLYLINE
8
layer0
66
1
70
8
10
  0.000
20
  0.000
30
  0.000
  0
VERTEX
8
layer0
10
  -4.167
20
  -0.490
30
  1.500
  0
VERTEX
8
layer0
10
  -3.955
20
  -0.875
30
  1.500
 0
SEQEND
 0
POLYLINE
8
layer0
66
1
70
8
10
  0.000
20
  0.000
30
  0.000
  0
VERTEX
8
layer0
10
  -3.955
20
  -0.875
30
  1.500
  0
VERTEX
8
layer0
10
  -3.697
20
  -1.231
30
  1.500
 0
SEQEND
 0
POLYLINE
8
layer0
66
1
70
8
10
  0.000
20
  0.000
30
  0.000
  0
VERTEX
8
layer0
10
  -3.697
20
  -1.231
30
  1.500
  0
VERTEX
8
layer0
10
  -3.396
20
  -1.551
30
  1.500
 0
SEQEND
 0
POLYLINE
8
layer0
66
1
70
8
10
  0.000
20
  0.000
30
  0.000
  0
VERTEX
8
layer0
10
  -3.396
20
  -1.551
30
  1.500
  0
VERTEX
8
layer0
10
  -3.057
20
  -1.832
30
  1.500
 0
SEQEND
 0
POLYLINE
8
layer0
66
1
70
8
10
  0.000
20
  0.000
30
  0.000
  0
VERTEX
8
layer0
10
  -3.057
20
  -1.832
30
  1.500
  0
VERTEX
8
layer0
10
  -2.686
20
  -2.067
30
  1.500
 0
SEQEND
 0
POLYLINE
8
layer0
66
1
70
8
10
  0.000
20
  0.000
30
  0.000
  0
VERTEX
8
layer0
10
  -2.686
20
  -2.067
30
  1.500
  0
VERTEX
8
layer0
10
  -2.288
20
  -2.254
30
  1.500
 0
SEQEND
 0
POLYLINE
8
layer0
66
1
70
8
10
  0.000
20
  0.000
30
  0.000
  0
VERTEX
8
layer0
10
  -2.288
20
  -2.254
30
  1.500
  0
VERTEX
8
layer0
10
  -1.870
20
  -2.390
30
  1.500
 0
SEQEND
 0
POLYLINE
8
layer0
66
1
70
8
10
  0.000
20
  0.000
30
  0.000
  0
VERTEX
8
layer0
10
  -1.870
20
  -2.390
30
  1.500
  0
VERTEX
8
layer0
10
  -1.439
20
  -2.472
30
  1.500
 0
SEQEND
 0
POLYLINE
8
layer0
66
1
70
8
10
  0.000
20
  0.000
30
  0.000
  0
VERTEX
8
layer0
10
  -1.439
20
  -2.472
30
  1.500
  0
VERTEX
8
layer0
10
  -1.000
20
  -2.500
30
  1.500
 0
SEQEND
 0
POLYLINE
8
layer0
66
1
70
8
10
  0.000
20
  0.000
30
  0.000
  0
VERTEX
8
layer0
10
  -1.000
20
  -2.500
30
  1.500
  0
VERTEX
8
layer0
10
  -0.561
20
  -2.472
30
  1.500
 0
SEQEND
 0
POLYLINE
8
layer0
66
1
70
8
10
  0.000
20
  0.000
30
  0.000
  0
VERTEX
8
layer0
10
  -0.561
20
  -2.472
30
  1.500
  0
VERTEX
8
layer0
10
  -0.130
20
  -2.390
30
  1.500
 0
SEQEND
 0
POLYLINE
8
layer0
66
1
70
8
10
  0.000
20
  0.000
30
  0.000
  0
VERTEX
8
layer0
10
  -0.130
20
  -2.390
30
  1.500
  0
VERTEX
8
layer0
10
  0.288
20
  -2.254
30
  1.500
 0
SEQEND
 0
POLYLINE
8
layer0
66
1
70
8
10
  0.000
20
  0.000
30
  0.000
  0
VERTEX
8
layer0
10
  0.288
20
  -2.254
30
  1.500
  0
VERTEX
8
layer0
10
  0.686
20
  -2.067
30
  1.500
 0
SEQEND
 0
POLYLINE
8
layer0
66
1
70
8
10
  0.000
20
  0.000
30
  0.000
  0
VERTEX
8
layer0
10
  0.686
20
  -2.067
30
  1.500
  0
VERTEX
8
layer0
10
  1.057
20
  -1.832
30
  1.500
 0
SEQEND
 0
POLYLINE
8
layer0
66
1
70
8
10
  0.000
20
  0.000
30
  0.000
  0
VERTEX
8
layer0
10
  1.057
20
  -1.832
30
  1.500
  0
VERTEX
8
layer0
10
  1.396
20
  -1.551
30
  1.500
 0
SEQEND
 0
POLYLINE
8
layer0
66
1
70
8
10
  0.000
20
  0.000
30
  0.000
  0
VERTEX
8
layer0
10
  1.396
20
  -1.551
30
  1.500
  0
VERTEX
8
layer0
10
  1.697
20
  -1.231
30
  1.500
 0
SEQEND
 0
POLYLINE
8
layer0
66
1
70
8
10
  0.000
20
  0.000
30
  0.000
  0
VERTEX
8
layer0
10
  1.697
20
  -1.231
30
  1.500
  0
VERTEX
8
layer0
10
  1.955
20
  -0.875
30
  1.500
 0
SEQEND
 0
POLYLINE
8
layer0
66
1
70
8
10
  0.000
20
  0.000
30
  0.000
  0
VERTEX
8
layer0
10
  1.955
20
  -0.875
30
  1.500
  0
VERTEX
8
layer0
10
  2.167
20
  -0.490
30
  1.500
 0
SEQEND
 0
POLYLINE
8
layer0
66
1
70
8
10
  0.000
20
  0.000
30
  0.000
  0
VERTEX
8
layer0
10
  2.167
20
  -0.490
30
  1.500
  0
VERTEX
8
layer0
10
  2.329
20
  -0.082
30
  1.500
 0
SEQEND
 0
POLYLINE
8
layer0
66
1
70
8
10
  0.000
20
  0.000
30
  0.000
  0
VERTEX
8
layer0
10
  -4.493
20
  0.780
30
  -0.000
  0
VERTEX
8
layer0
10
  -4.438
20
  0.344
30
  -0.000
 0
SEQEND
 0
POLYLINE
8
layer0
66
1
70
8
10
  0.000
20
  0.000
30
  0.000
  0
VERTEX
8
layer0
10
  -4.438
20
  0.344
30
  -0.000
  0
VERTEX
8
layer0
10
  -2.965
20
  -11.915
30
  0.000
 0
SEQEND
 0
ARC
8
layer0
66
1
10
  -1.000
20
  -11.540
30
  0.000
40
  2.000
50
  190.800
51
  -10.800
 0
POLYLINE
8
layer0
66
1
70
8
10
  0.000
20
  0.000
30
  0.000
  0
VERTEX
8
layer0
10
  0.965
20
  -11.915
30
  0.000
  0
VERTEX
8
layer0
10
  2.438
20
  0.344
30
  -0.000
 0
SEQEND
 0
POLYLINE
8
layer0
66
1
70
8
10
  0.000
20
  0.000
30
  0.000
  0
VERTEX
8
layer0
10
  2.438
20
  0.344
30
  -0.000
  0
VERTEX
8
layer0
10
  2.493
20
  0.780
30
  -0.000
 0
SEQEND
 0
POLYLINE
8
layer0
66
1
70
8
10
  0.000
20
  0.000
30
  0.000
  0
VERTEX
8
layer0
10
  2.493
20
  0.780
30
  -0.000
  0
VERTEX
8
layer0
10
  2.493
20
  1.220
30
  -0.000
 0
SEQEND
 0
POLYLINE
8
layer0
66
1
70
8
10
  0.000
20
  0.000
30
  0.000
  0
VERTEX
8
layer0
10
  2.493
20
  1.220
30
  -0.000
  0
VERTEX
8
layer0
10
  2.438
20
  1.656
30
  -0.000
 0
SEQEND
 0
POLYLINE
8
layer0
66
1
70
8
10
  0.000
20
  0.000
30
  0.000
  0
VERTEX
8
layer0
10
  2.438
20
  1.656
30
  -0.000
  0
VERTEX
8
layer0
10
  2.329
20
  2.082
30
  -0.000
 0
SEQEND
 0
POLYLINE
8
layer0
66
1
70
8
10
  0.000
20
  0.000
30
  0.000
  0
VERTEX
8
layer0
10
  2.329
20
  2.082
30
  -0.000
  0
VERTEX
8
layer0
10
  2.167
20
  2.490
30
  -0.000
 0
SEQEND
 0
POLYLINE
8
layer0
66
1
70
8
10
  0.000
20
  0.000
30
  0.000
  0
VERTEX
8
layer0
10
  2.167
20
  2.490
30
  -0.000
  0
VERTEX
8
layer0
10
  1.955
20
  2.875
30
  -0.000
 0
SEQEND
 0
POLYLINE
8
layer0
66
1
70
8
10
  0.000
20
  0.000
30
  0.000
  0
VERTEX
8
layer0
10
  1.955
20
  2.875
30
  -0.000
  0
VERTEX
8
layer0
10
  1.697
20
  3.231
30
  -0.000
 0
SEQEND
 0
POLYLINE
8
layer0
66
1
70
8
10
  0.000
20
  0.000
30
  0.000
  0
VERTEX
8
layer0
10
  1.697
20
  3.231
30
  -0.000
  0
VERTEX
8
layer0
10
  1.396
20
  3.551
30
  -0.000
 0
SEQEND
 0
POLYLINE
8
layer0
66
1
70
8
10
  0.000
20
  0.000
30
  0.000
  0
VERTEX
8
layer0
10
  1.396
20
  3.551
30
  -0.000
  0
VERTEX
8
layer0
10
  1.057
20
  3.832
30
  -0.000
 0
SEQEND
 0
POLYLINE
8
layer0
66
1
70
8
10
  0.000
20
  0.000
30
  0.000
  0
VERTEX
8
layer0
10
  1.057
20
  3.832
30
  -0.000
  0
VERTEX
8
layer0
10
  0.686
20
  4.067
30
  -0.000
 0
SEQEND
 0
POLYLINE
8
layer0
66
1
70
8
10
  0.000
20
  0.000
30
  0.000
  0
VERTEX
8
layer0
10
  0.686
20
  4.067
30
  -0.000
  0
VERTEX
8
layer0
10
  0.288
20
  4.254
30
  -0.000
 0
SEQEND
 0
POLYLINE
8
layer0
66
1
70
8
10
  0.000
20
  0.000
30
  0.000
  0
VERTEX
8
layer0
10
  0.288
20
  4.254
30
  -0.000
  0
VERTEX
8
layer0
10
  -0.130
20
  4.390
30
  -0.000
 0
SEQEND
 0
POLYLINE
8
layer0
66
1
70
8
10
  0.000
20
  0.000
30
  0.000
  0
VERTEX
8
layer0
10
  -0.130
20
  4.390
30
  -0.000
  0
VERTEX
8
layer0
10
  -0.561
20
  4.472
30
  -0.000
 0
SEQEND
 0
POLYLINE
8
layer0
66
1
70
8
10
  0.000
20
  0.000
30
  0.000
  0
VERTEX
8
layer0
10
  -0.561
20
  4.472
30
  -0.000
  0
VERTEX
8
layer0
10
  -1.000
20
  4.500
30
  -0.000
 0
SEQEND
 0
POLYLINE
8
layer0
66
1
70
8
10
  0.000
20
  0.000
30
  0.000
  0
VERTEX
8
layer0
10
  -1.000
20
  4.500
30
  -0.000
  0
VERTEX
8
layer0
10
  -1.439
20
  4.472
30
  -0.000
 0
SEQEND
 0
POLYLINE
8
layer0
66
1
70
8
10
  0.000
20
  0.000
30
  0.000
  0
VERTEX
8
layer0
10
  -1.439
20
  4.472
30
  -0.000
  0
VERTEX
8
layer0
10
  -1.870
20
  4.390
30
  -0.000
 0
SEQEND
 0
POLYLINE
8
layer0
66
1
70
8
10
  0.000
20
  0.000
30
  0.000
  0
VERTEX
8
layer0
10
  -1.870
20
  4.390
30
  -0.000
  0
VERTEX
8
layer0
10
  -2.288
20
  4.254
30
  -0.000
 0
SEQEND
 0
POLYLINE
8
layer0
66
1
70
8
10
  0.000
20
  0.000
30
  0.000
  0
VERTEX
8
layer0
10
  -2.288
20
  4.254
30
  -0.000
  0
VERTEX
8
layer0
10
  -2.686
20
  4.067
30
  -0.000
 0
SEQEND
 0
POLYLINE
8
layer0
66
1
70
8
10
  0.000
20
  0.000
30
  0.000
  0
VERTEX
8
layer0
10
  -2.686
20
  4.067
30
  -0.000
  0
VERTEX
8
layer0
10
  -3.057
20
  3.832
30
  -0.000
 0
SEQEND
 0
POLYLINE
8
layer0
66
1
70
8
10
  0.000
20
  0.000
30
  0.000
  0
VERTEX
8
layer0
10
  -3.057
20
  3.832
30
  -0.000
  0
VERTEX
8
layer0
10
  -3.396
20
  3.551
30
  -0.000
 0
SEQEND
 0
POLYLINE
8
layer0
66
1
70
8
10
  0.000
20
  0.000
30
  0.000
  0
VERTEX
8
layer0
10
  -3.396
20
  3.551
30
  -0.000
  0
VERTEX
8
layer0
10
  -3.697
20
  3.231
30
  -0.000
 0
SEQEND
 0
POLYLINE
8
layer0
66
1
70
8
10
  0.000
20
  0.000
30
  0.000
  0
VERTEX
8
layer0
10
  -3.697
20
  3.231
30
  -0.000
  0
VERTEX
8
layer0
10
  -3.955
20
  2.875
30
  -0.000
 0
SEQEND
 0
POLYLINE
8
layer0
66
1
70
8
10
  0.000
20
  0.000
30
  0.000
  0
VERTEX
8
layer0
10
  -3.955
20
  2.875
30
  -0.000
  0
VERTEX
8
layer0
10
  -4.167
20
  2.490
30
  -0.000
 0
SEQEND
 0
POLYLINE
8
layer0
66
1
70
8
10
  0.000
20
  0.000
30
  0.000
  0
VERTEX
8
layer0
10
  -4.167
20
  2.490
30
  -0.000
  0
VERTEX
8
layer0
10
  -4.329
20
  2.082
30
  -0.000
 0
SEQEND
 0
POLYLINE
8
layer0
66
1
70
8
10
  0.000
20
  0.000
30
  0.000
  0
VERTEX
8
layer0
10
  -4.329
20
  2.082
30
  -0.000
  0
VERTEX
8
layer0
10
  -4.438
20
  1.656
30
  -0.000
 0
SEQEND
 0
POLYLINE
8
layer0
66
1
70
8
10
  0.000
20
  0.000
30
  0.000
  0
VERTEX
8
layer0
10
  -4.438
20
  1.656
30
  -0.000
  0
VERTEX
8
layer0
10
  -4.493
20
  1.220
30
  -0.000
 0
SEQEND
 0
POLYLINE
8
layer0
66
1
70
8
10
  0.000
20
  0.000
30
  0.000
  0
VERTEX
8
layer0
10
  -4.493
20
  1.220
30
  -0.000
  0
VERTEX
8
layer0
10
  -4.493
20
  0.780
30
  -0.000
 0
SEQEND
 0
ARC
8
layer0
66
1
10
  -1.000
20
  -22.375
30
  0.000
40
  12.500
50
  176.400
51
  3.600
 0
POLYLINE
8
layer0
66
1
70
8
10
  0.000
20
  0.000
30
  0.000
  0
VERTEX
8
layer0
10
  -13.475
20
  -21.590
30
  0.000
  0
VERTEX
8
layer0
10
  -10.980
20
  1.628
30
  -0.000
 0
SEQEND
 0
ARC
8
layer0
66
1
10
  -1.000
20
  1.000
30
  -0.000
40
  10.000
50
  3.600
51
  176.400
 0
POLYLINE
8
layer0
66
1
70
8
10
  0.000
20
  0.000
30
  0.000
  0
VERTEX
8
layer0
10
  8.980
20
  1.628
30
  -0.000
  0
VERTEX
8
layer0
10
  11.475
20
  -21.590
30
  0.000
 0
SEQEND
 0
CIRCLE
8
layer0
66
1
10
  -1.000
20
  1.000
30
  3.000
40
  3.500
 0
ARC
8
layer0
66
1
10
  -1.000
20
  -22.375
30
  3.000
40
  12.500
50
  176.400
51
  3.600
 0
POLYLINE
8
layer0
66
1
70
8
10
  0.000
20
  0.000
30
  0.000
  0
VERTEX
8
layer0
10
  11.475
20
  -21.590
30
  3.000
  0
VERTEX
8
layer0
10
  8.980
20
  1.628
30
  3.000
 0
SEQEND
 0
ARC
8
layer0
66
1
10
  -1.000
20
  1.000
30
  3.000
40
  10.000
50
  3.600
51
  176.400
 0
POLYLINE
8
layer0
66
1
70
8
10
  0.000
20
  0.000
30
  0.000
  0
VERTEX
8
layer0
10
  -10.980
20
  1.628
30
  3.000
  0
VERTEX
8
layer0
10
  -13.475
20
  -21.590
30
  3.000
 0
SEQEND
 0
ARC
8
layer0
66
1
10
  -1.000
20
  -22.375
30
  3.000
40
  12.500
50
  176.400
51
  3.600
 0
ENDSEC
 0
EOF
