 0
SECTION
 2
HEADER
 9
$MEASUREMENT
 70
 2
 0
ENDSEC
 0
SECTION
 2
ENTITIES
 0
POLYLINE
8
layer0
66
1
70
8
10
  0.0
20
  0.0
30
  0.0
  0
VERTEX
8
layer0
10
  -3.000
20
  225.000
30
  0.000
0
VERTEX
8
layer0
10
  303.000
20
  225.000
30
  0.000
0
VERTEX
8
layer0
10
  303.000
20
  -3.000
30
  -0.000
0
VERTEX
8
layer0
10
  -3.000
20
  -3.000
30
  -0.000
0
VERTEX
8
layer0
10
  -3.000
20
  225.000
30
  0.000
 0
SEQEND
 0
CIRCLE
8
layer0
66
1
10
  292.500
20
  7.500
30
  -0.000
40
  1.599999999999997
 0
CIRCLE
8
layer0
66
1
10
  292.500
20
  60.000
30
  0.000
40
  1.5999999999999939
 0
CIRCLE
8
layer0
66
1
10
  292.500
20
  97.500
30
  -0.000
40
  1.599999999999997
 0
CIRCLE
8
layer0
66
1
10
  292.500
20
  112.500
30
  -0.000
40
  1.5999999999999963
 0
CIRCLE
8
layer0
66
1
10
  292.500
20
  202.500
30
  -0.000
40
  1.5999999999999974
 0
CIRCLE
8
layer0
66
1
10
  292.500
20
  165.000
30
  -0.000
40
  1.599999999999997
 0
CIRCLE
8
layer0
66
1
10
  7.500
20
  202.500
30
  -0.000
40
  1.599999999999997
 0
CIRCLE
8
layer0
66
1
10
  7.500
20
  165.000
30
  -0.000
40
  1.599999999999997
 0
CIRCLE
8
layer0
66
1
10
  7.500
20
  112.500
30
  -0.000
40
  1.5999999999999892
 0
CIRCLE
8
layer0
66
1
10
  7.500
20
  97.500
30
  -0.000
40
  1.5999999999999928
 0
CIRCLE
8
layer0
66
1
10
  7.500
20
  60.000
30
  0.000
40
  1.599999999999997
 0
CIRCLE
8
layer0
66
1
10
  7.500
20
  7.500
30
  0.000
40
  1.599999999999997
 0
CIRCLE
8
layer0
66
1
10
  78.750
20
  7.500
30
  0.000
40
  1.599999999999997
 0
CIRCLE
8
layer0
66
1
10
  78.750
20
  112.500
30
  -0.000
40
  1.5999999999999885
 0
CIRCLE
8
layer0
66
1
10
  150.000
20
  112.500
30
  0.000
40
  1.5999999999999885
 0
CIRCLE
8
layer0
66
1
10
  150.000
20
  7.500
30
  0.000
40
  1.5999999999999979
 0
CIRCLE
8
layer0
66
1
10
  221.250
20
  112.500
30
  -0.000
40
  1.5999999999999963
 0
CIRCLE
8
layer0
66
1
10
  221.250
20
  7.500
30
  -0.000
40
  1.599999999999997
 0
CIRCLE
8
layer0
66
1
10
  292.500
20
  22.500
30
  0.000
40
  1.599999999999997
 0
CIRCLE
8
layer0
66
1
10
  292.500
20
  127.500
30
  -0.000
40
  1.599999999999997
 0
CIRCLE
8
layer0
66
1
10
  7.500
20
  127.500
30
  -0.000
40
  1.599999999999997
 0
CIRCLE
8
layer0
66
1
10
  7.500
20
  22.500
30
  0.000
40
  1.5999999999999968
 0
POLYLINE
8
layer0
66
1
70
8
10
  0.0
20
  0.0
30
  0.0
  0
VERTEX
8
layer0
10
  303.000
20
  225.000
30
  3.000
0
VERTEX
8
layer0
10
  -3.000
20
  225.000
30
  3.000
0
VERTEX
8
layer0
10
  -3.000
20
  -3.000
30
  3.000
0
VERTEX
8
layer0
10
  303.000
20
  -3.000
30
  3.000
0
VERTEX
8
layer0
10
  303.000
20
  225.000
30
  3.000
 0
SEQEND
 0
CIRCLE
8
layer0
66
1
10
  7.500
20
  7.500
30
  3.000
40
  1.599999999999997
 0
CIRCLE
8
layer0
66
1
10
  7.500
20
  60.000
30
  3.000
40
  1.599999999999997
 0
CIRCLE
8
layer0
66
1
10
  7.500
20
  97.500
30
  3.000
40
  1.5999999999999928
 0
CIRCLE
8
layer0
66
1
10
  7.500
20
  112.500
30
  3.000
40
  1.5999999999999897
 0
CIRCLE
8
layer0
66
1
10
  7.500
20
  165.000
30
  3.000
40
  1.599999999999997
 0
CIRCLE
8
layer0
66
1
10
  7.500
20
  202.500
30
  3.000
40
  1.599999999999997
 0
CIRCLE
8
layer0
66
1
10
  78.750
20
  7.500
30
  3.000
40
  1.599999999999997
 0
CIRCLE
8
layer0
66
1
10
  78.750
20
  112.500
30
  3.000
40
  1.599999999999989
 0
CIRCLE
8
layer0
66
1
10
  150.000
20
  7.500
30
  3.000
40
  1.599999999999997
 0
CIRCLE
8
layer0
66
1
10
  150.000
20
  112.500
30
  3.000
40
  1.599999999999989
 0
CIRCLE
8
layer0
66
1
10
  221.250
20
  7.500
30
  3.000
40
  1.599999999999997
 0
CIRCLE
8
layer0
66
1
10
  221.250
20
  112.500
30
  3.000
40
  1.5999999999999963
 0
CIRCLE
8
layer0
66
1
10
  292.500
20
  112.500
30
  3.000
40
  1.5999999999999963
 0
CIRCLE
8
layer0
66
1
10
  292.500
20
  7.500
30
  3.000
40
  1.5999999999999928
 0
CIRCLE
8
layer0
66
1
10
  292.500
20
  165.000
30
  3.000
40
  1.599999999999997
 0
CIRCLE
8
layer0
66
1
10
  292.500
20
  202.500
30
  3.000
40
  1.599999999999997
 0
CIRCLE
8
layer0
66
1
10
  292.500
20
  60.000
30
  3.000
40
  1.599999999999997
 0
CIRCLE
8
layer0
66
1
10
  292.500
20
  97.500
30
  3.000
40
  1.599999999999997
 0
CIRCLE
8
layer0
66
1
10
  7.500
20
  127.500
30
  3.000
40
  1.599999999999997
 0
CIRCLE
8
layer0
66
1
10
  7.500
20
  22.500
30
  3.000
40
  1.5999999999999968
 0
CIRCLE
8
layer0
66
1
10
  292.500
20
  22.500
30
  3.000
40
  1.599999999999997
 0
CIRCLE
8
layer0
66
1
10
  292.500
20
  127.500
30
  3.000
40
  1.599999999999997
 0
ENDSEC
 0
EOF
