 0
SECTION
 2
HEADER
 9
$MEASUREMENT
 70
 2
 0
ENDSEC
 0
SECTION
 2
ENTITIES
 0
CIRCLE
8
layer0
66
1
10
  19.000
20
  27.200
30
  0.000
40
  1.600
 0
CIRCLE
8
layer0
66
1
10
  56.000
20
  27.200
30
  -0.000
40
  1.600
 0
CIRCLE
8
layer0
66
1
10
  62.500
20
  40.000
30
  -0.000
40
  1.600
 0
CIRCLE
8
layer0
66
1
10
  62.500
20
  50.000
30
  -0.000
40
  1.600
 0
CIRCLE
8
layer0
66
1
10
  3.200
20
  37.500
30
  0.000
40
  1.600
 0
CIRCLE
8
layer0
66
1
10
  71.800
20
  11.500
30
  0.000
40
  1.600
 0
CIRCLE
8
layer0
66
1
10
  3.200
20
  11.500
30
  0.000
40
  1.600
 0
CIRCLE
8
layer0
66
1
10
  12.500
20
  40.000
30
  0.000
40
  1.600
 0
CIRCLE
8
layer0
66
1
10
  19.000
20
  64.200
30
  0.000
40
  1.600
 0
CIRCLE
8
layer0
66
1
10
  71.800
20
  37.500
30
  0.000
40
  1.600
 0
CIRCLE
8
layer0
66
1
10
  71.800
20
  63.500
30
  0.000
40
  1.600
 0
CIRCLE
8
layer0
66
1
10
  12.500
20
  50.000
30
  0.000
40
  1.600
 0
CIRCLE
8
layer0
66
1
10
  3.200
20
  63.500
30
  0.000
40
  1.600
 0
CIRCLE
8
layer0
66
1
10
  56.000
20
  64.200
30
  -0.000
40
  1.600
 0
CIRCLE
8
layer0
66
1
10
  62.500
20
  5.000
30
  0.000
40
  1.600
 0
CIRCLE
8
layer0
66
1
10
  12.500
20
  70.000
30
  0.000
40
  1.600
 0
CIRCLE
8
layer0
66
1
10
  62.500
20
  70.000
30
  0.000
40
  1.600
 0
CIRCLE
8
layer0
66
1
10
  12.500
20
  5.000
30
  0.000
40
  1.600
 0
POLYLINE
8
layer0
66
1
70
8
10
  0.000
20
  0.000
30
  0.000
  0
VERTEX
8
layer0
10
  -7.500
20
  -1.000
30
  -0.000
  0
VERTEX
8
layer0
10
  -7.500
20
  76.000
30
  -0.000
 0
SEQEND
 0
POLYLINE
8
layer0
66
1
70
8
10
  0.000
20
  0.000
30
  0.000
  0
VERTEX
8
layer0
10
  -7.500
20
  76.000
30
  -0.000
  0
VERTEX
8
layer0
10
  82.500
20
  76.000
30
  0.000
 0
SEQEND
 0
POLYLINE
8
layer0
66
1
70
8
10
  0.000
20
  0.000
30
  0.000
  0
VERTEX
8
layer0
10
  82.500
20
  76.000
30
  0.000
  0
VERTEX
8
layer0
10
  82.500
20
  -1.000
30
  0.000
 0
SEQEND
 0
POLYLINE
8
layer0
66
1
70
8
10
  0.000
20
  0.000
30
  0.000
  0
VERTEX
8
layer0
10
  82.500
20
  -1.000
30
  0.000
  0
VERTEX
8
layer0
10
  -7.500
20
  -1.000
30
  -0.000
 0
SEQEND
 0
CIRCLE
8
layer0
66
1
10
  19.000
20
  27.200
30
  3.000
40
  1.600
 0
CIRCLE
8
layer0
66
1
10
  56.000
20
  27.200
30
  3.000
40
  1.600
 0
CIRCLE
8
layer0
66
1
10
  3.200
20
  63.500
30
  3.000
40
  1.600
 0
CIRCLE
8
layer0
66
1
10
  62.500
20
  40.000
30
  3.000
40
  1.600
 0
CIRCLE
8
layer0
66
1
10
  62.500
20
  50.000
30
  3.000
40
  1.600
 0
CIRCLE
8
layer0
66
1
10
  12.500
20
  50.000
30
  3.000
40
  1.600
 0
CIRCLE
8
layer0
66
1
10
  12.500
20
  40.000
30
  3.000
40
  1.600
 0
CIRCLE
8
layer0
66
1
10
  71.800
20
  63.500
30
  3.000
40
  1.600
 0
CIRCLE
8
layer0
66
1
10
  3.200
20
  37.500
30
  3.000
40
  1.600
 0
CIRCLE
8
layer0
66
1
10
  19.000
20
  64.200
30
  3.000
40
  1.600
 0
CIRCLE
8
layer0
66
1
10
  71.800
20
  37.500
30
  3.000
40
  1.600
 0
CIRCLE
8
layer0
66
1
10
  3.200
20
  11.500
30
  3.000
40
  1.600
 0
CIRCLE
8
layer0
66
1
10
  71.800
20
  11.500
30
  3.000
40
  1.600
 0
CIRCLE
8
layer0
66
1
10
  56.000
20
  64.200
30
  3.000
40
  1.600
 0
CIRCLE
8
layer0
66
1
10
  12.500
20
  70.000
30
  3.000
40
  1.600
 0
CIRCLE
8
layer0
66
1
10
  62.500
20
  5.000
30
  3.000
40
  1.600
 0
CIRCLE
8
layer0
66
1
10
  12.500
20
  5.000
30
  3.000
40
  1.600
 0
CIRCLE
8
layer0
66
1
10
  62.500
20
  70.000
30
  3.000
40
  1.600
 0
POLYLINE
8
layer0
66
1
70
8
10
  0.000
20
  0.000
30
  0.000
  0
VERTEX
8
layer0
10
  -7.500
20
  76.000
30
  3.000
  0
VERTEX
8
layer0
10
  -7.500
20
  -1.000
30
  3.000
 0
SEQEND
 0
POLYLINE
8
layer0
66
1
70
8
10
  0.000
20
  0.000
30
  0.000
  0
VERTEX
8
layer0
10
  -7.500
20
  -1.000
30
  3.000
  0
VERTEX
8
layer0
10
  82.500
20
  -1.000
30
  3.000
 0
SEQEND
 0
POLYLINE
8
layer0
66
1
70
8
10
  0.000
20
  0.000
30
  0.000
  0
VERTEX
8
layer0
10
  82.500
20
  -1.000
30
  3.000
  0
VERTEX
8
layer0
10
  82.500
20
  76.000
30
  3.000
 0
SEQEND
 0
POLYLINE
8
layer0
66
1
70
8
10
  0.000
20
  0.000
30
  0.000
  0
VERTEX
8
layer0
10
  82.500
20
  76.000
30
  3.000
  0
VERTEX
8
layer0
10
  -7.500
20
  76.000
30
  3.000
 0
SEQEND
 0
ENDSEC
 0
EOF
