 0
SECTION
 2
HEADER
 9
$MEASUREMENT
 70
 2
 0
ENDSEC
 0
SECTION
 2
ENTITIES
 0
CIRCLE
8
layer0
66
1
10
  -75.000
20
  37.500
30
  -3.000
40
  1.600
 0
CIRCLE
8
layer0
66
1
10
  -75.000
20
  52.500
30
  -3.000
40
  1.600
 0
CIRCLE
8
layer0
66
1
10
  -75.000
20
  22.500
30
  -3.000
40
  1.600
 0
POLYLINE
8
layer0
66
1
70
8
10
  0.000
20
  0.000
30
  0.000
  0
VERTEX
8
layer0
10
  -18.500
20
  18.667
30
  -3.000
  0
VERTEX
8
layer0
10
  -77.500
20
  -1.000
30
  -3.000
 0
SEQEND
 0
POLYLINE
8
layer0
66
1
70
8
10
  0.000
20
  0.000
30
  0.000
  0
VERTEX
8
layer0
10
  -77.500
20
  -1.000
30
  -3.000
  0
VERTEX
8
layer0
10
  -82.500
20
  -1.000
30
  -3.000
 0
SEQEND
 0
POLYLINE
8
layer0
66
1
70
8
10
  0.000
20
  0.000
30
  0.000
  0
VERTEX
8
layer0
10
  -82.500
20
  -1.000
30
  -3.000
  0
VERTEX
8
layer0
10
  -82.500
20
  76.000
30
  -3.000
 0
SEQEND
 0
POLYLINE
8
layer0
66
1
70
8
10
  0.000
20
  0.000
30
  0.000
  0
VERTEX
8
layer0
10
  -82.500
20
  76.000
30
  -3.000
  0
VERTEX
8
layer0
10
  -67.500
20
  76.000
30
  -3.000
 0
SEQEND
 0
POLYLINE
8
layer0
66
1
70
8
10
  0.000
20
  0.000
30
  0.000
  0
VERTEX
8
layer0
10
  -67.500
20
  76.000
30
  -3.000
  0
VERTEX
8
layer0
10
  -18.500
20
  76.000
30
  -3.000
 0
SEQEND
 0
POLYLINE
8
layer0
66
1
70
8
10
  0.000
20
  0.000
30
  0.000
  0
VERTEX
8
layer0
10
  -18.500
20
  76.000
30
  -3.000
  0
VERTEX
8
layer0
10
  -18.500
20
  18.667
30
  -3.000
 0
SEQEND
 0
CIRCLE
8
layer0
66
1
10
  -75.000
20
  37.500
30
  -0.000
40
  1.600
 0
CIRCLE
8
layer0
66
1
10
  -75.000
20
  22.500
30
  -0.000
40
  1.600
 0
CIRCLE
8
layer0
66
1
10
  -75.000
20
  52.500
30
  -0.000
40
  1.600
 0
POLYLINE
8
layer0
66
1
70
8
10
  0.000
20
  0.000
30
  0.000
  0
VERTEX
8
layer0
10
  -67.500
20
  76.000
30
  -0.000
  0
VERTEX
8
layer0
10
  -82.500
20
  76.000
30
  -0.000
 0
SEQEND
 0
POLYLINE
8
layer0
66
1
70
8
10
  0.000
20
  0.000
30
  0.000
  0
VERTEX
8
layer0
10
  -82.500
20
  76.000
30
  -0.000
  0
VERTEX
8
layer0
10
  -82.500
20
  -1.000
30
  -0.000
 0
SEQEND
 0
POLYLINE
8
layer0
66
1
70
8
10
  0.000
20
  0.000
30
  0.000
  0
VERTEX
8
layer0
10
  -82.500
20
  -1.000
30
  -0.000
  0
VERTEX
8
layer0
10
  -77.500
20
  -1.000
30
  -0.000
 0
SEQEND
 0
POLYLINE
8
layer0
66
1
70
8
10
  0.000
20
  0.000
30
  0.000
  0
VERTEX
8
layer0
10
  -77.500
20
  -1.000
30
  -0.000
  0
VERTEX
8
layer0
10
  -18.500
20
  18.667
30
  -0.000
 0
SEQEND
 0
POLYLINE
8
layer0
66
1
70
8
10
  0.000
20
  0.000
30
  0.000
  0
VERTEX
8
layer0
10
  -18.500
20
  18.667
30
  -0.000
  0
VERTEX
8
layer0
10
  -18.500
20
  76.000
30
  -0.000
 0
SEQEND
 0
POLYLINE
8
layer0
66
1
70
8
10
  0.000
20
  0.000
30
  0.000
  0
VERTEX
8
layer0
10
  -18.500
20
  76.000
30
  -0.000
  0
VERTEX
8
layer0
10
  -67.500
20
  76.000
30
  -0.000
 0
SEQEND
 0
ENDSEC
 0
EOF
