 0
SECTION
 2
HEADER
 9
$MEASUREMENT
 70
 2
 0
ENDSEC
 0
SECTION
 2
ENTITIES
 0
POLYLINE
8
layer0
66
1
70
8
10
  0.0
20
  0.0
30
  0.0
  0
VERTEX
8
layer0
10
  240.0
20
  225.00000000000003
30
  0.0
0
VERTEX
8
layer0
10
  0.0
20
  225.00000000000003
30
  0.0
0
VERTEX
8
layer0
10
  240.0
20
  225.00000000000003
30
  0.0
0
VERTEX
8
layer0
10
  240.0
20
  0.0
30
  0.0
0
VERTEX
8
layer0
10
  0.0
20
  0.0
30
  0.0
 0
SEQEND
 0
CIRCLE
8
layer0
66
1
10
  232.50000000000009
20
  112.49999999999986
30
  9.023892744153272e-14
40
  1.599999999999997
 0
CIRCLE
8
layer0
66
1
10
  7.499999999999983
20
  202.49999999999986
30
  1.8047785488306544e-13
40
  1.599999999999997
 0
CIRCLE
8
layer0
66
1
10
  232.50000000000006
20
  59.999999999999844
30
  4.511946372076636e-13
40
  1.599999999999997
 0
CIRCLE
8
layer0
66
1
10
  232.50000000000023
20
  22.499999999999847
30
  9.023892744153272e-14
40
  1.5999999999999974
 0
CIRCLE
8
layer0
66
1
10
  232.49999999999997
20
  164.99999999999983
30
  4.511946372076636e-13
40
  1.599999999999997
 0
CIRCLE
8
layer0
66
1
10
  232.5
20
  217.49999999999986
30
  9.023892744153272e-14
40
  1.599999999999997
 0
CIRCLE
8
layer0
66
1
10
  232.50000000000014
20
  127.49999999999983
30
  9.023892744153272e-14
40
  1.5999999999999936
 0
CIRCLE
8
layer0
66
1
10
  40.081942329873115
20
  79.99999999999838
30
  -2.7071678232459817e-12
40
  1.5999999999999974
 0
CIRCLE
8
layer0
66
1
10
  7.500000000000033
20
  59.99999999999984
30
  4.511946372076636e-13
40
  1.599999999999997
 0
CIRCLE
8
layer0
66
1
10
  232.5
20
  202.4999999999999
30
  1.8047785488306544e-13
40
  1.599999999999997
 0
CIRCLE
8
layer0
66
1
10
  199.99999999998963
20
  145.00000000000153
30
  -3.023004069291346e-12
40
  1.5999999999999974
 0
CIRCLE
8
layer0
66
1
10
  7.5000000000001075
20
  127.49999999999983
30
  9.023892744153272e-14
40
  1.59999999999999
 0
CIRCLE
8
layer0
66
1
10
  232.50000000000009
20
  97.49999999999986
30
  1.8047785488306544e-13
40
  1.599999999999997
 0
CIRCLE
8
layer0
66
1
10
  7.499999999999942
20
  164.99999999999983
30
  4.511946372076636e-13
40
  1.599999999999997
 0
CIRCLE
8
layer0
66
1
10
  7.5
20
  217.49999999999986
30
  9.023892744153272e-14
40
  1.599999999999997
 0
CIRCLE
8
layer0
66
1
10
  7.500000000000198
20
  22.499999999999833
30
  9.023892744153272e-14
40
  1.599999999999997
 0
CIRCLE
8
layer0
66
1
10
  25.08194232987225
20
  145.00000000000142
30
  -1.4438228390645235e-12
40
  1.5999999999999939
 0
CIRCLE
8
layer0
66
1
10
  184.99999999998965
20
  145.00000000000168
30
  -1.7145396213891216e-12
40
  1.5999999999999968
 0
CIRCLE
8
layer0
66
1
10
  7.500000000000074
20
  97.49999999999984
30
  1.8047785488306544e-13
40
  1.599999999999997
 0
CIRCLE
8
layer0
66
1
10
  7.500000000000091
20
  112.49999999999984
30
  9.023892744153272e-14
40
  1.599999999999997
 0
CIRCLE
8
layer0
66
1
10
  40.08194232987221
20
  145.00000000000128
30
  -2.752287286966748e-12
40
  1.599999999999992
 0
CIRCLE
8
layer0
66
1
10
  184.99999999999054
20
  79.99999999999861
30
  -1.759659085109888e-12
40
  1.5999999999999932
 0
CIRCLE
8
layer0
66
1
10
  214.99999999998963
20
  145.00000000000153
30
  -4.241229589752038e-12
40
  1.5999999999999928
 0
CIRCLE
8
layer0
66
1
10
  55.08194232987221
20
  145.00000000000128
30
  -3.9705128074274395e-12
40
  1.5999999999999932
 0
CIRCLE
8
layer0
66
1
10
  119.99999999999996
20
  16.60860173291633
30
  9.023892744153272e-14
40
  1.599999999999997
 0
CIRCLE
8
layer0
66
1
10
  71.24999999999996
20
  16.608601732915837
30
  9.023892744153272e-14
40
  1.599999999999997
 0
POLYLINE
8
layer0
66
1
70
8
10
  0.0
20
  0.0
30
  0.0
  0
VERTEX
8
layer0
10
  232.91411047216403
20
  9.045481322062352
30
  9.023892744153272e-14
0
VERTEX
8
layer0
10
  230.9
20
  9.499999999999828
30
  9.023892744153272e-14
0
VERTEX
8
layer0
10
  9.100000000000007
20
  9.499999999999828
30
  9.023892744153272e-14
0
VERTEX
8
layer0
10
  9.100000000000007
20
  9.499999999999828
30
  9.023892744153272e-14
0
VERTEX
8
layer0
10
  6.70000000000001
20
  8.885640646054913
30
  9.023892744153272e-14
0
VERTEX
8
layer0
10
  6.368629150101535
20
  8.631370849898298
30
  9.023892744153272e-14
0
VERTEX
8
layer0
10
  6.114359353944908
20
  8.299999999999827
30
  9.023892744153272e-14
0
VERTEX
8
layer0
10
  5.954518677937502
20
  7.914110472163838
30
  9.023892744153272e-14
0
VERTEX
8
layer0
10
  5.900000000000012
20
  7.499999999999829
30
  9.023892744153272e-14
0
VERTEX
8
layer0
10
  5.954518677937503
20
  7.085889527835774
30
  9.023892744153272e-14
0
VERTEX
8
layer0
10
  6.11435935394491
20
  6.69999999999983
30
  9.023892744153272e-14
0
VERTEX
8
layer0
10
  6.368629150101536
20
  6.368629150101358
30
  9.023892744153272e-14
0
VERTEX
8
layer0
10
  6.70000000000001
20
  6.114359353944744
30
  9.023892744153272e-14
0
VERTEX
8
layer0
10
  7.085889527835977
20
  5.954518677937304
30
  9.023892744153272e-14
0
VERTEX
8
layer0
10
  9.100000000000007
20
  5.499999999999829
30
  9.023892744153272e-14
0
VERTEX
8
layer0
10
  9.100000000000007
20
  5.499999999999829
30
  9.023892744153272e-14
0
VERTEX
8
layer0
10
  230.9
20
  5.499999999999829
30
  9.023892744153272e-14
0
VERTEX
8
layer0
10
  233.3
20
  6.114359353944744
30
  9.023892744153272e-14
0
VERTEX
8
layer0
10
  233.63137084989847
20
  6.368629150101358
30
  9.023892744153272e-14
0
VERTEX
8
layer0
10
  233.8856406460551
20
  6.69999999999983
30
  9.023892744153272e-14
0
VERTEX
8
layer0
10
  234.04548132206253
20
  7.085889527835774
30
  9.023892744153272e-14
0
VERTEX
8
layer0
10
  234.1
20
  7.499999999999829
30
  9.023892744153272e-14
0
VERTEX
8
layer0
10
  234.04548132206253
20
  7.914110472163883
30
  9.023892744153272e-14
0
VERTEX
8
layer0
10
  233.8856406460551
20
  8.299999999999827
30
  9.023892744153272e-14
0
VERTEX
8
layer0
10
  233.63137084989847
20
  8.631370849898298
30
  9.023892744153272e-14
0
VERTEX
8
layer0
10
  233.3
20
  8.885640646054913
30
  9.023892744153272e-14
0
VERTEX
8
layer0
10
  232.91411047216403
20
  9.045481322062352
30
  9.023892744153272e-14
 0
SEQEND
 0
CIRCLE
8
layer0
66
1
10
  168.74999999999997
20
  16.608601732916828
30
  9.023892744153272e-14
40
  1.599999999999997
 0
CIRCLE
8
layer0
66
1
10
  22.499999999999943
20
  16.60860173291534
30
  9.023892744153272e-14
40
  1.599999999999997
 0
CIRCLE
8
layer0
66
1
10
  55.0819423298731
20
  79.99999999999827
30
  -3.835154416265141e-12
40
  1.5999999999999903
 0
CIRCLE
8
layer0
66
1
10
  39.999999999999794
20
  112.50000000000028
30
  -9.023892744153272e-14
40
  3.9999999999999925
 0
CIRCLE
8
layer0
66
1
10
  25.081942329873137
20
  79.99999999999835
30
  -1.4889423027852898e-12
40
  1.5999999999999932
 0
CIRCLE
8
layer0
66
1
10
  217.49999999999997
20
  16.608601732917325
30
  9.023892744153272e-14
40
  1.599999999999997
 0
CIRCLE
8
layer0
66
1
10
  199.9999999999905
20
  79.99999999999862
30
  -2.9778846055705796e-12
40
  1.5999999999999974
 0
CIRCLE
8
layer0
66
1
10
  199.99999999998494
20
  112.50000000000054
30
  -3.6095570976613087e-13
40
  3.9999999999999925
 0
CIRCLE
8
layer0
66
1
10
  214.99999999999048
20
  79.99999999999851
30
  -4.105871198589739e-12
40
  1.5999999999999963
 0
CIRCLE
8
layer0
66
1
10
  120.08194232987222
20
  145.00000000000153
30
  -2.662048359525215e-12
40
  1.5999999999999939
 0
CIRCLE
8
layer0
66
1
10
  120.08194232987312
20
  79.99999999999862
30
  -2.6169288958044487e-12
40
  1.599999999999997
 0
POLYLINE
8
layer0
66
1
70
8
10
  0.0
20
  0.0
30
  0.0
  0
VERTEX
8
layer0
10
  240.0
20
  0.0
30
  2.9999999999999947
0
VERTEX
8
layer0
10
  240.0
20
  225.00000000000003
30
  2.9999999999999947
0
VERTEX
8
layer0
10
  0.0
20
  225.00000000000003
30
  2.9999999999999947
0
VERTEX
8
layer0
10
  0.0
20
  0.0
30
  2.9999999999999947
0
VERTEX
8
layer0
10
  240.0
20
  0.0
30
  2.9999999999999947
 0
SEQEND
 0
CIRCLE
8
layer0
66
1
10
  25.08194232987246
20
  145.00000000000162
30
  2.9999999999985505
40
  1.5999999999999939
 0
CIRCLE
8
layer0
66
1
10
  199.99999999998988
20
  145.00000000000182
30
  2.9999999999969713
40
  1.5999999999999974
 0
CIRCLE
8
layer0
66
1
10
  184.99999999998988
20
  145.00000000000185
30
  2.99999999999828
40
  1.5999999999999968
 0
CIRCLE
8
layer0
66
1
10
  184.9999999999908
20
  79.9999999999984
30
  2.9999999999982347
40
  1.5999999999999932
 0
ARC
8
layer0
66
1
10
  232.5
20
  7.499999999999829
30
  3.000000000000085
40
  1.599999999999997
50
  75.00194468369068
51
  224.98249784679382
 0
POLYLINE
8
layer0
66
1
70
8
10
  0.0
20
  0.0
30
  0.0
  0
VERTEX
8
layer0
10
  232.91411047216405
20
  5.954518677937304
30
  3.000000000000085
0
VERTEX
8
layer0
10
  230.9
20
  5.499999999999829
30
  3.000000000000085
0
VERTEX
8
layer0
10
  9.100000000000007
20
  5.499999999999829
30
  3.000000000000085
0
VERTEX
8
layer0
10
  9.100000000000007
20
  5.499999999999829
30
  3.000000000000085
 0
SEQEND
 0
ARC
8
layer0
66
1
10
  7.500000000000009
20
  7.499999999999829
30
  3.000000000000085
40
  1.5999999999999963
50
  254.97860847941325
51
  404.9591616425164
 0
POLYLINE
8
layer0
66
1
70
8
10
  0.0
20
  0.0
30
  0.0
  0
VERTEX
8
layer0
10
  7.085889527835976
20
  9.045481322062352
30
  3.000000000000085
0
VERTEX
8
layer0
10
  9.100000000000007
20
  9.499999999999828
30
  3.000000000000085
0
VERTEX
8
layer0
10
  9.100000000000007
20
  9.499999999999828
30
  3.000000000000085
0
VERTEX
8
layer0
10
  230.9
20
  9.499999999999828
30
  3.000000000000085
 0
SEQEND
 0
ARC
8
layer0
66
1
10
  232.5
20
  7.499999999999829
30
  3.000000000000085
40
  1.599999999999997
50
  75.00194468369068
51
  224.98249784679382
 0
CIRCLE
8
layer0
66
1
10
  199.9999999999908
20
  79.99999999999835
30
  2.9999999999970166
40
  1.5999999999999974
 0
CIRCLE
8
layer0
66
1
10
  199.99999999998516
20
  112.50000000000054
30
  2.9999999999996336
40
  3.9999999999999925
 0
CIRCLE
8
layer0
66
1
10
  217.49999999999997
20
  16.608601732917325
30
  3.000000000000085
40
  1.599999999999997
 0
CIRCLE
8
layer0
66
1
10
  232.50000000000006
20
  59.999999999999844
30
  3.000000000000446
40
  1.599999999999997
 0
CIRCLE
8
layer0
66
1
10
  232.49999999999997
20
  164.99999999999983
30
  3.000000000000446
40
  1.599999999999997
 0
CIRCLE
8
layer0
66
1
10
  25.08194232987339
20
  79.99999999999812
30
  2.9999999999985056
40
  1.599999999999989
 0
CIRCLE
8
layer0
66
1
10
  55.08194232987245
20
  145.0000000000015
30
  2.999999999996024
40
  1.5999999999999932
 0
CIRCLE
8
layer0
66
1
10
  40.08194232987338
20
  79.99999999999811
30
  2.9999999999972875
40
  1.5999999999999974
 0
CIRCLE
8
layer0
66
1
10
  55.08194232987337
20
  79.99999999999808
30
  2.9999999999961595
40
  1.5999999999999908
 0
CIRCLE
8
layer0
66
1
10
  119.99999999999996
20
  16.60860173291633
30
  3.000000000000085
40
  1.599999999999997
 0
CIRCLE
8
layer0
66
1
10
  168.74999999999997
20
  16.608601732916828
30
  3.000000000000085
40
  1.599999999999997
 0
CIRCLE
8
layer0
66
1
10
  214.99999999998985
20
  145.00000000000176
30
  2.999999999995753
40
  1.5999999999999928
 0
CIRCLE
8
layer0
66
1
10
  214.99999999999076
20
  79.99999999999834
30
  2.9999999999958886
40
  1.5999999999999963
 0
CIRCLE
8
layer0
66
1
10
  7.500000000000198
20
  22.499999999999833
30
  3.000000000000085
40
  1.599999999999997
 0
CIRCLE
8
layer0
66
1
10
  22.499999999999943
20
  16.60860173291534
30
  3.000000000000085
40
  1.599999999999997
 0
CIRCLE
8
layer0
66
1
10
  71.24999999999996
20
  16.608601732915837
30
  3.000000000000085
40
  1.599999999999997
 0
CIRCLE
8
layer0
66
1
10
  7.499999999999942
20
  164.99999999999983
30
  3.000000000000446
40
  1.599999999999997
 0
CIRCLE
8
layer0
66
1
10
  7.500000000000033
20
  59.99999999999984
30
  3.000000000000446
40
  1.599999999999997
 0
CIRCLE
8
layer0
66
1
10
  7.5000000000001075
20
  127.49999999999983
30
  3.000000000000085
40
  1.59999999999999
 0
CIRCLE
8
layer0
66
1
10
  7.500000000000091
20
  112.49999999999984
30
  3.000000000000085
40
  1.599999999999997
 0
CIRCLE
8
layer0
66
1
10
  7.500000000000074
20
  97.49999999999984
30
  3.000000000000175
40
  1.599999999999997
 0
CIRCLE
8
layer0
66
1
10
  7.5
20
  217.49999999999986
30
  3.000000000000085
40
  1.599999999999997
 0
CIRCLE
8
layer0
66
1
10
  40.081942329872454
20
  145.00000000000156
30
  2.999999999997242
40
  1.5999999999999968
 0
CIRCLE
8
layer0
66
1
10
  40.000000000000014
20
  112.50000000000028
30
  2.999999999999904
40
  3.9999999999999925
 0
CIRCLE
8
layer0
66
1
10
  7.499999999999983
20
  202.49999999999986
30
  3.000000000000175
40
  1.599999999999997
 0
CIRCLE
8
layer0
66
1
10
  232.50000000000014
20
  127.49999999999983
30
  3.000000000000085
40
  1.5999999999999939
 0
CIRCLE
8
layer0
66
1
10
  232.50000000000009
20
  112.49999999999986
30
  3.000000000000085
40
  1.599999999999997
 0
CIRCLE
8
layer0
66
1
10
  232.50000000000009
20
  97.49999999999986
30
  3.000000000000175
40
  1.599999999999997
 0
CIRCLE
8
layer0
66
1
10
  232.5
20
  217.49999999999986
30
  3.000000000000085
40
  1.599999999999997
 0
CIRCLE
8
layer0
66
1
10
  232.50000000000023
20
  22.499999999999847
30
  3.000000000000085
40
  1.5999999999999974
 0
CIRCLE
8
layer0
66
1
10
  232.5
20
  202.4999999999999
30
  3.000000000000175
40
  1.599999999999997
 0
CIRCLE
8
layer0
66
1
10
  120.08194232987245
20
  145.00000000000182
30
  2.9999999999973324
40
  1.599999999999996
 0
CIRCLE
8
layer0
66
1
10
  120.08194232987337
20
  79.99999999999835
30
  2.9999999999973777
40
  1.599999999999996
 0
ENDSEC
 0
EOF
