 0
SECTION
 2
HEADER
 9
$MEASUREMENT
 70
 2
 0
ENDSEC
 0
SECTION
 2
ENTITIES
 0
POLYLINE
8
layer0
66
1
70
8
10
  0.000
20
  0.000
30
  0.000
  0
VERTEX
8
layer0
10
  -240.000
20
  0.000
30
  -3.000
  0
VERTEX
8
layer0
10
  -240.000
20
  225.000
30
  -3.000
 0
SEQEND
 0
POLYLINE
8
layer0
66
1
70
8
10
  0.000
20
  0.000
30
  0.000
  0
VERTEX
8
layer0
10
  -240.000
20
  225.000
30
  -3.000
  0
VERTEX
8
layer0
10
  0.000
20
  225.000
30
  -3.000
 0
SEQEND
 0
POLYLINE
8
layer0
66
1
70
8
10
  0.000
20
  0.000
30
  0.000
  0
VERTEX
8
layer0
10
  0.000
20
  225.000
30
  -3.000
  0
VERTEX
8
layer0
10
  0.000
20
  0.000
30
  -3.000
 0
SEQEND
 0
POLYLINE
8
layer0
66
1
70
8
10
  0.000
20
  0.000
30
  0.000
  0
VERTEX
8
layer0
10
  0.000
20
  0.000
30
  -3.000
  0
VERTEX
8
layer0
10
  -240.000
20
  0.000
30
  -3.000
 0
SEQEND
 0
CIRCLE
8
layer0
66
1
10
  -202.500
20
  80.000
30
  -3.000
40
  1.600
 0
CIRCLE
8
layer0
66
1
10
  -22.500
20
  17.000
30
  -3.000
40
  1.600
 0
CIRCLE
8
layer0
66
1
10
  -7.500
20
  22.500
30
  -3.000
40
  1.600
 0
CIRCLE
8
layer0
66
1
10
  -37.582
20
  80.000
30
  -3.000
40
  1.600
 0
CIRCLE
8
layer0
66
1
10
  -120.000
20
  17.000
30
  -3.000
40
  1.600
 0
CIRCLE
8
layer0
66
1
10
  -52.582
20
  80.000
30
  -3.000
40
  1.600
 0
CIRCLE
8
layer0
66
1
10
  -71.250
20
  17.000
30
  -3.000
40
  1.600
 0
CIRCLE
8
layer0
66
1
10
  -120.082
20
  145.000
30
  -3.000
40
  1.600
 0
CIRCLE
8
layer0
66
1
10
  -168.750
20
  17.000
30
  -3.000
40
  1.600
 0
CIRCLE
8
layer0
66
1
10
  -120.082
20
  80.000
30
  -3.000
40
  1.600
 0
CIRCLE
8
layer0
66
1
10
  -187.500
20
  80.000
30
  -3.000
40
  1.600
 0
ARC
8
layer0
66
1
10
  -232.500
20
  7.500
30
  -3.000
40
  1.600
50
  105.000
51
  255.000
 0
POLYLINE
8
layer0
66
1
70
8
10
  0.000
20
  0.000
30
  0.000
  0
VERTEX
8
layer0
10
  -232.914
20
  5.955
30
  -3.000
  0
VERTEX
8
layer0
10
  -230.900
20
  5.500
30
  -3.000
 0
SEQEND
 0
POLYLINE
8
layer0
66
1
70
8
10
  0.000
20
  0.000
30
  0.000
  0
VERTEX
8
layer0
10
  -230.900
20
  5.500
30
  -3.000
  0
VERTEX
8
layer0
10
  -9.100
20
  5.500
30
  -3.000
 0
SEQEND
 0
POLYLINE
8
layer0
66
1
70
8
10
  0.000
20
  0.000
30
  0.000
  0
VERTEX
8
layer0
10
  -9.100
20
  5.500
30
  -3.000
  0
VERTEX
8
layer0
10
  -7.086
20
  5.955
30
  -3.000
 0
SEQEND
 0
ARC
8
layer0
66
1
10
  -7.500
20
  7.500
30
  -3.000
40
  1.600
50
  -75.000
51
  75.000
 0
POLYLINE
8
layer0
66
1
70
8
10
  0.000
20
  0.000
30
  0.000
  0
VERTEX
8
layer0
10
  -7.086
20
  9.045
30
  -3.000
  0
VERTEX
8
layer0
10
  -9.100
20
  9.500
30
  -3.000
 0
SEQEND
 0
POLYLINE
8
layer0
66
1
70
8
10
  0.000
20
  0.000
30
  0.000
  0
VERTEX
8
layer0
10
  -9.100
20
  9.500
30
  -3.000
  0
VERTEX
8
layer0
10
  -230.900
20
  9.500
30
  -3.000
 0
SEQEND
 0
POLYLINE
8
layer0
66
1
70
8
10
  0.000
20
  0.000
30
  0.000
  0
VERTEX
8
layer0
10
  -230.900
20
  9.500
30
  -3.000
  0
VERTEX
8
layer0
10
  -232.914
20
  9.045
30
  -3.000
 0
SEQEND
 0
ARC
8
layer0
66
1
10
  -232.500
20
  7.500
30
  -3.000
40
  1.600
50
  105.000
51
  255.000
 0
CIRCLE
8
layer0
66
1
10
  -232.500
20
  60.000
30
  -3.000
40
  1.600
 0
CIRCLE
8
layer0
66
1
10
  -217.500
20
  17.000
30
  -3.000
40
  1.600
 0
CIRCLE
8
layer0
66
1
10
  -232.500
20
  165.000
30
  -3.000
40
  1.600
 0
CIRCLE
8
layer0
66
1
10
  -232.500
20
  127.500
30
  -3.000
40
  1.600
 0
CIRCLE
8
layer0
66
1
10
  -232.500
20
  112.500
30
  -3.000
40
  1.600
 0
CIRCLE
8
layer0
66
1
10
  -232.500
20
  97.500
30
  -3.000
40
  1.600
 0
CIRCLE
8
layer0
66
1
10
  -232.500
20
  217.500
30
  -3.000
40
  1.600
 0
CIRCLE
8
layer0
66
1
10
  -232.500
20
  202.500
30
  -3.000
40
  1.600
 0
CIRCLE
8
layer0
66
1
10
  -232.500
20
  22.500
30
  -3.000
40
  1.600
 0
CIRCLE
8
layer0
66
1
10
  -7.500
20
  165.000
30
  -3.000
40
  1.600
 0
CIRCLE
8
layer0
66
1
10
  -7.500
20
  60.000
30
  -3.000
40
  1.600
 0
CIRCLE
8
layer0
66
1
10
  -7.500
20
  127.500
30
  -3.000
40
  1.600
 0
CIRCLE
8
layer0
66
1
10
  -7.500
20
  112.500
30
  -3.000
40
  1.600
 0
CIRCLE
8
layer0
66
1
10
  -7.500
20
  97.500
30
  -3.000
40
  1.600
 0
CIRCLE
8
layer0
66
1
10
  -7.500
20
  217.500
30
  -3.000
40
  1.600
 0
CIRCLE
8
layer0
66
1
10
  -7.500
20
  202.500
30
  -3.000
40
  1.600
 0
CIRCLE
8
layer0
66
1
10
  -52.582
20
  145.000
30
  -3.000
40
  1.600
 0
CIRCLE
8
layer0
66
1
10
  -37.582
20
  145.000
30
  -3.000
40
  1.600
 0
CIRCLE
8
layer0
66
1
10
  -37.500
20
  112.500
30
  -3.000
40
  4.000
 0
CIRCLE
8
layer0
66
1
10
  -22.582
20
  145.000
30
  -3.000
40
  1.600
 0
CIRCLE
8
layer0
66
1
10
  -22.582
20
  80.000
30
  -3.000
40
  1.600
 0
CIRCLE
8
layer0
66
1
10
  -217.500
20
  80.000
30
  -3.000
40
  1.600
 0
CIRCLE
8
layer0
66
1
10
  -217.500
20
  145.000
30
  -3.000
40
  1.600
 0
CIRCLE
8
layer0
66
1
10
  -202.500
20
  112.500
30
  -3.000
40
  4.000
 0
CIRCLE
8
layer0
66
1
10
  -202.500
20
  145.000
30
  -3.000
40
  1.600
 0
CIRCLE
8
layer0
66
1
10
  -187.500
20
  145.000
30
  -3.000
40
  1.600
 0
POLYLINE
8
layer0
66
1
70
8
10
  0.000
20
  0.000
30
  0.000
  0
VERTEX
8
layer0
10
  0.000
20
  225.000
30
  0.000
  0
VERTEX
8
layer0
10
  -240.000
20
  225.000
30
  0.000
 0
SEQEND
 0
POLYLINE
8
layer0
66
1
70
8
10
  0.000
20
  0.000
30
  0.000
  0
VERTEX
8
layer0
10
  -240.000
20
  225.000
30
  0.000
  0
VERTEX
8
layer0
10
  -240.000
20
  0.000
30
  0.000
 0
SEQEND
 0
POLYLINE
8
layer0
66
1
70
8
10
  0.000
20
  0.000
30
  0.000
  0
VERTEX
8
layer0
10
  -240.000
20
  0.000
30
  0.000
  0
VERTEX
8
layer0
10
  0.000
20
  0.000
30
  0.000
 0
SEQEND
 0
POLYLINE
8
layer0
66
1
70
8
10
  0.000
20
  0.000
30
  0.000
  0
VERTEX
8
layer0
10
  0.000
20
  0.000
30
  0.000
  0
VERTEX
8
layer0
10
  0.000
20
  225.000
30
  0.000
 0
SEQEND
 0
CIRCLE
8
layer0
66
1
10
  -217.500
20
  145.000
30
  0.000
40
  1.600
 0
CIRCLE
8
layer0
66
1
10
  -217.500
20
  17.000
30
  -0.000
40
  1.600
 0
CIRCLE
8
layer0
66
1
10
  -202.500
20
  145.000
30
  0.000
40
  1.600
 0
CIRCLE
8
layer0
66
1
10
  -120.082
20
  145.000
30
  0.000
40
  1.600
 0
CIRCLE
8
layer0
66
1
10
  -120.082
20
  80.000
30
  0.000
40
  1.600
 0
CIRCLE
8
layer0
66
1
10
  -37.582
20
  145.000
30
  0.000
40
  1.600
 0
CIRCLE
8
layer0
66
1
10
  -22.582
20
  145.000
30
  0.000
40
  1.600
 0
CIRCLE
8
layer0
66
1
10
  -22.582
20
  80.000
30
  0.000
40
  1.600
 0
CIRCLE
8
layer0
66
1
10
  -7.500
20
  165.000
30
  -0.000
40
  1.600
 0
CIRCLE
8
layer0
66
1
10
  -7.500
20
  217.500
30
  -0.000
40
  1.600
 0
CIRCLE
8
layer0
66
1
10
  -7.500
20
  127.500
30
  -0.000
40
  1.600
 0
CIRCLE
8
layer0
66
1
10
  -7.500
20
  22.500
30
  -0.000
40
  1.600
 0
CIRCLE
8
layer0
66
1
10
  -7.500
20
  202.500
30
  -0.000
40
  1.600
 0
CIRCLE
8
layer0
66
1
10
  -202.500
20
  80.000
30
  0.000
40
  1.600
 0
CIRCLE
8
layer0
66
1
10
  -7.500
20
  60.000
30
  -0.000
40
  1.600
 0
CIRCLE
8
layer0
66
1
10
  -7.500
20
  112.500
30
  -0.000
40
  1.600
 0
CIRCLE
8
layer0
66
1
10
  -37.582
20
  80.000
30
  0.000
40
  1.600
 0
CIRCLE
8
layer0
66
1
10
  -7.500
20
  97.500
30
  -0.000
40
  1.600
 0
CIRCLE
8
layer0
66
1
10
  -232.500
20
  97.500
30
  -0.000
40
  1.600
 0
CIRCLE
8
layer0
66
1
10
  -232.500
20
  112.500
30
  -0.000
40
  1.600
 0
CIRCLE
8
layer0
66
1
10
  -22.500
20
  17.000
30
  -0.000
40
  1.600
 0
CIRCLE
8
layer0
66
1
10
  -120.000
20
  17.000
30
  -0.000
40
  1.600
 0
CIRCLE
8
layer0
66
1
10
  -37.500
20
  112.500
30
  0.000
40
  4.000
 0
CIRCLE
8
layer0
66
1
10
  -52.582
20
  80.000
30
  0.000
40
  1.600
 0
CIRCLE
8
layer0
66
1
10
  -52.582
20
  145.000
30
  0.000
40
  1.600
 0
CIRCLE
8
layer0
66
1
10
  -71.250
20
  17.000
30
  -0.000
40
  1.600
 0
CIRCLE
8
layer0
66
1
10
  -168.750
20
  17.000
30
  -0.000
40
  1.600
 0
CIRCLE
8
layer0
66
1
10
  -187.500
20
  145.000
30
  0.000
40
  1.600
 0
CIRCLE
8
layer0
66
1
10
  -187.500
20
  80.000
30
  0.000
40
  1.600
 0
CIRCLE
8
layer0
66
1
10
  -217.500
20
  80.000
30
  0.000
40
  1.600
 0
CIRCLE
8
layer0
66
1
10
  -202.500
20
  112.500
30
  0.000
40
  4.000
 0
CIRCLE
8
layer0
66
1
10
  -232.500
20
  165.000
30
  -0.000
40
  1.600
 0
CIRCLE
8
layer0
66
1
10
  -232.500
20
  60.000
30
  -0.000
40
  1.600
 0
POLYLINE
8
layer0
66
1
70
8
10
  0.000
20
  0.000
30
  0.000
  0
VERTEX
8
layer0
10
  -9.100
20
  5.500
30
  -0.000
  0
VERTEX
8
layer0
10
  -230.900
20
  5.500
30
  -0.000
 0
SEQEND
 0
POLYLINE
8
layer0
66
1
70
8
10
  0.000
20
  0.000
30
  0.000
  0
VERTEX
8
layer0
10
  -230.900
20
  5.500
30
  -0.000
  0
VERTEX
8
layer0
10
  -232.914
20
  5.955
30
  -0.000
 0
SEQEND
 0
POLYLINE
8
layer0
66
1
70
8
10
  0.000
20
  0.000
30
  0.000
  0
VERTEX
8
layer0
10
  -232.914
20
  5.955
30
  -0.000
  0
VERTEX
8
layer0
10
  -233.300
20
  6.114
30
  -0.000
 0
SEQEND
 0
POLYLINE
8
layer0
66
1
70
8
10
  0.000
20
  0.000
30
  0.000
  0
VERTEX
8
layer0
10
  -233.300
20
  6.114
30
  -0.000
  0
VERTEX
8
layer0
10
  -233.631
20
  6.369
30
  -0.000
 0
SEQEND
 0
POLYLINE
8
layer0
66
1
70
8
10
  0.000
20
  0.000
30
  0.000
  0
VERTEX
8
layer0
10
  -233.631
20
  6.369
30
  -0.000
  0
VERTEX
8
layer0
10
  -233.886
20
  6.700
30
  -0.000
 0
SEQEND
 0
POLYLINE
8
layer0
66
1
70
8
10
  0.000
20
  0.000
30
  0.000
  0
VERTEX
8
layer0
10
  -233.886
20
  6.700
30
  -0.000
  0
VERTEX
8
layer0
10
  -234.045
20
  7.086
30
  -0.000
 0
SEQEND
 0
POLYLINE
8
layer0
66
1
70
8
10
  0.000
20
  0.000
30
  0.000
  0
VERTEX
8
layer0
10
  -234.045
20
  7.086
30
  -0.000
  0
VERTEX
8
layer0
10
  -234.100
20
  7.500
30
  -0.000
 0
SEQEND
 0
POLYLINE
8
layer0
66
1
70
8
10
  0.000
20
  0.000
30
  0.000
  0
VERTEX
8
layer0
10
  -234.100
20
  7.500
30
  -0.000
  0
VERTEX
8
layer0
10
  -234.045
20
  7.914
30
  -0.000
 0
SEQEND
 0
POLYLINE
8
layer0
66
1
70
8
10
  0.000
20
  0.000
30
  0.000
  0
VERTEX
8
layer0
10
  -234.045
20
  7.914
30
  -0.000
  0
VERTEX
8
layer0
10
  -233.886
20
  8.300
30
  -0.000
 0
SEQEND
 0
POLYLINE
8
layer0
66
1
70
8
10
  0.000
20
  0.000
30
  0.000
  0
VERTEX
8
layer0
10
  -233.886
20
  8.300
30
  -0.000
  0
VERTEX
8
layer0
10
  -233.631
20
  8.631
30
  -0.000
 0
SEQEND
 0
POLYLINE
8
layer0
66
1
70
8
10
  0.000
20
  0.000
30
  0.000
  0
VERTEX
8
layer0
10
  -233.631
20
  8.631
30
  -0.000
  0
VERTEX
8
layer0
10
  -233.300
20
  8.886
30
  -0.000
 0
SEQEND
 0
POLYLINE
8
layer0
66
1
70
8
10
  0.000
20
  0.000
30
  0.000
  0
VERTEX
8
layer0
10
  -233.300
20
  8.886
30
  -0.000
  0
VERTEX
8
layer0
10
  -232.914
20
  9.045
30
  -0.000
 0
SEQEND
 0
POLYLINE
8
layer0
66
1
70
8
10
  0.000
20
  0.000
30
  0.000
  0
VERTEX
8
layer0
10
  -232.914
20
  9.045
30
  -0.000
  0
VERTEX
8
layer0
10
  -230.900
20
  9.500
30
  -0.000
 0
SEQEND
 0
POLYLINE
8
layer0
66
1
70
8
10
  0.000
20
  0.000
30
  0.000
  0
VERTEX
8
layer0
10
  -230.900
20
  9.500
30
  -0.000
  0
VERTEX
8
layer0
10
  -9.100
20
  9.500
30
  -0.000
 0
SEQEND
 0
POLYLINE
8
layer0
66
1
70
8
10
  0.000
20
  0.000
30
  0.000
  0
VERTEX
8
layer0
10
  -9.100
20
  9.500
30
  -0.000
  0
VERTEX
8
layer0
10
  -7.086
20
  9.045
30
  -0.000
 0
SEQEND
 0
POLYLINE
8
layer0
66
1
70
8
10
  0.000
20
  0.000
30
  0.000
  0
VERTEX
8
layer0
10
  -7.086
20
  9.045
30
  -0.000
  0
VERTEX
8
layer0
10
  -6.700
20
  8.886
30
  -0.000
 0
SEQEND
 0
POLYLINE
8
layer0
66
1
70
8
10
  0.000
20
  0.000
30
  0.000
  0
VERTEX
8
layer0
10
  -6.700
20
  8.886
30
  -0.000
  0
VERTEX
8
layer0
10
  -6.369
20
  8.631
30
  -0.000
 0
SEQEND
 0
POLYLINE
8
layer0
66
1
70
8
10
  0.000
20
  0.000
30
  0.000
  0
VERTEX
8
layer0
10
  -6.369
20
  8.631
30
  -0.000
  0
VERTEX
8
layer0
10
  -6.114
20
  8.300
30
  -0.000
 0
SEQEND
 0
POLYLINE
8
layer0
66
1
70
8
10
  0.000
20
  0.000
30
  0.000
  0
VERTEX
8
layer0
10
  -6.114
20
  8.300
30
  -0.000
  0
VERTEX
8
layer0
10
  -5.955
20
  7.914
30
  -0.000
 0
SEQEND
 0
POLYLINE
8
layer0
66
1
70
8
10
  0.000
20
  0.000
30
  0.000
  0
VERTEX
8
layer0
10
  -5.955
20
  7.914
30
  -0.000
  0
VERTEX
8
layer0
10
  -5.900
20
  7.500
30
  -0.000
 0
SEQEND
 0
POLYLINE
8
layer0
66
1
70
8
10
  0.000
20
  0.000
30
  0.000
  0
VERTEX
8
layer0
10
  -5.900
20
  7.500
30
  -0.000
  0
VERTEX
8
layer0
10
  -5.955
20
  7.086
30
  -0.000
 0
SEQEND
 0
POLYLINE
8
layer0
66
1
70
8
10
  0.000
20
  0.000
30
  0.000
  0
VERTEX
8
layer0
10
  -5.955
20
  7.086
30
  -0.000
  0
VERTEX
8
layer0
10
  -6.114
20
  6.700
30
  -0.000
 0
SEQEND
 0
POLYLINE
8
layer0
66
1
70
8
10
  0.000
20
  0.000
30
  0.000
  0
VERTEX
8
layer0
10
  -6.114
20
  6.700
30
  -0.000
  0
VERTEX
8
layer0
10
  -6.369
20
  6.369
30
  -0.000
 0
SEQEND
 0
POLYLINE
8
layer0
66
1
70
8
10
  0.000
20
  0.000
30
  0.000
  0
VERTEX
8
layer0
10
  -6.369
20
  6.369
30
  -0.000
  0
VERTEX
8
layer0
10
  -6.700
20
  6.114
30
  -0.000
 0
SEQEND
 0
POLYLINE
8
layer0
66
1
70
8
10
  0.000
20
  0.000
30
  0.000
  0
VERTEX
8
layer0
10
  -6.700
20
  6.114
30
  -0.000
  0
VERTEX
8
layer0
10
  -7.086
20
  5.955
30
  -0.000
 0
SEQEND
 0
POLYLINE
8
layer0
66
1
70
8
10
  0.000
20
  0.000
30
  0.000
  0
VERTEX
8
layer0
10
  -7.086
20
  5.955
30
  -0.000
  0
VERTEX
8
layer0
10
  -9.100
20
  5.500
30
  -0.000
 0
SEQEND
 0
CIRCLE
8
layer0
66
1
10
  -232.500
20
  127.500
30
  -0.000
40
  1.600
 0
CIRCLE
8
layer0
66
1
10
  -232.500
20
  217.500
30
  -0.000
40
  1.600
 0
CIRCLE
8
layer0
66
1
10
  -232.500
20
  202.500
30
  -0.000
40
  1.600
 0
CIRCLE
8
layer0
66
1
10
  -232.500
20
  22.500
30
  -0.000
40
  1.600
 0
ENDSEC
 0
EOF
